<?xml version="1.0" encoding="UTF-8" standalone="no"?>
<!-- Created with Inkscape (http://www.inkscape.org/) -->

<svg
   xmlns:dc="http://purl.org/dc/elements/1.1/"
   xmlns:cc="http://creativecommons.org/ns#"
   xmlns:rdf="http://www.w3.org/1999/02/22-rdf-syntax-ns#"
   xmlns:svg="http://www.w3.org/2000/svg"
   xmlns="http://www.w3.org/2000/svg"
   xmlns:sodipodi="http://sodipodi.sourceforge.net/DTD/sodipodi-0.dtd"
   xmlns:inkscape="http://www.inkscape.org/namespaces/inkscape"
   width="744.09448819"
   height="1052.3622047"
   id="svg3201"
   version="1.1"
   inkscape:version="0.48.2 r9819"
   sodipodi:docname="BalloonBW.eps">
  <defs
     id="defs3203" />
  <sodipodi:namedview
     id="base"
     pagecolor="#ffffff"
     bordercolor="#666666"
     borderopacity="1.0"
     inkscape:pageopacity="0.0"
     inkscape:pageshadow="2"
     inkscape:zoom="0.49497475"
     inkscape:cx="222.013"
     inkscape:cy="605.54176"
     inkscape:document-units="px"
     inkscape:current-layer="layer1"
     showgrid="false"
     inkscape:window-width="1366"
     inkscape:window-height="706"
     inkscape:window-x="-8"
     inkscape:window-y="-8"
     inkscape:window-maximized="1" />
  <metadata
     id="metadata3206">
    <rdf:RDF>
      <cc:Work
         rdf:about="">
        <dc:format>image/svg+xml</dc:format>
        <dc:type
           rdf:resource="http://purl.org/dc/dcmitype/StillImage" />
        <dc:title></dc:title>
      </cc:Work>
    </rdf:RDF>
  </metadata>
  <g
     inkscape:label="Layer 1"
     inkscape:groupmode="layer"
     id="layer1">
    <path
       sodipodi:type="arc"
       style="fill:none;stroke:#000000;stroke-opacity:1"
       id="path3765"
       sodipodi:cx="123.74369"
       sodipodi:cy="95.747719"
       sodipodi:rx="35.860416"
       sodipodi:ry="48.487324"
       d="m 159.60411,95.747719 a 35.860416,48.487324 0 1 1 -71.720836,0 35.860416,48.487324 0 1 1 71.720836,0 z"
       transform="translate(223.74879,77.33022)"
       inkscape:export-filename="C:\Users\jolens\Documents\GitHub\TPT\Worksheets\Math_03_OA_4_MultiplicationUnknowns\path3813.png"
       inkscape:export-xdpi="90"
       inkscape:export-ydpi="90" />
    <path
       style="fill:none;stroke:#000000;stroke-width:0.14772769999999999px;stroke-linecap:butt;stroke-linejoin:miter;stroke-opacity:1"
       d="m 342.87209,230.90073 4.45285,-9.737"
       id="path3781"
       inkscape:connector-curvature="0"
       inkscape:export-filename="C:\Users\jolens\Documents\GitHub\TPT\Worksheets\Math_03_OA_4_MultiplicationUnknowns\path3813.png"
       inkscape:export-xdpi="90"
       inkscape:export-ydpi="90" />
    <path
       style="fill:none;stroke:#000000;stroke-width:0.14772769999999999px;stroke-linecap:butt;stroke-linejoin:miter;stroke-opacity:1"
       d="m 347.32494,221.16373 4.11553,9.572 -8.43345,-0.082"
       id="path3789"
       inkscape:connector-curvature="0"
       inkscape:export-filename="C:\Users\jolens\Documents\GitHub\TPT\Worksheets\Math_03_OA_4_MultiplicationUnknowns\path3813.png"
       inkscape:export-xdpi="90"
       inkscape:export-ydpi="90" />
    <path
       style="fill:none;stroke:#000000;stroke-width:1px;stroke-linecap:butt;stroke-linejoin:miter;stroke-opacity:1"
       d="m 342.67736,230.40673 4.64286,-8.5715 3.92857,8.5715"
       id="path3799"
       inkscape:connector-curvature="0"
       inkscape:export-filename="C:\Users\jolens\Documents\GitHub\TPT\Worksheets\Math_03_OA_4_MultiplicationUnknowns\path3813.png"
       inkscape:export-xdpi="90"
       inkscape:export-ydpi="90" />
    <path
       style="fill:none;stroke:#000000;stroke-width:2;stroke-linecap:butt;stroke-linejoin:miter;stroke-miterlimit:4;stroke-opacity:1;stroke-dasharray:none"
       d="m 342.67736,230.04953 8.92857,0"
       id="path3807"
       inkscape:connector-curvature="0"
       inkscape:export-filename="C:\Users\jolens\Documents\GitHub\TPT\Worksheets\Math_03_OA_4_MultiplicationUnknowns\path3813.png"
       inkscape:export-xdpi="90"
       inkscape:export-ydpi="90" />
    <path
       style="fill:none;stroke:#000000;stroke-width:0.35714287000000000;stroke-opacity:1"
       d="m 343.61996,220.53723 c -6.65553,-0.9641 -14.14147,-5.44532 -19.16749,-11.47394 -5.43358,-6.5175 -9.07492,-14.59051 -11.08313,-24.57177 -0.69953,-3.47683 -0.82307,-5.18978 -0.82307,-11.41228 0,-6.22251 0.12354,-7.93545 0.82307,-11.41229 3.2187,-15.99765 11.0887,-27.88343 22.02357,-33.26139 4.7827,-2.35222 7.28587,-2.95754 12.14286,-2.9364 7.92774,0.0345 14.62739,3.04508 20.89285,9.38851 15.05066,15.23796 18.65276,43.75075 8.18215,64.76663 -7.3656,14.78372 -20.00269,22.79443 -32.99081,20.91293 l 0,0 z"
       id="path3809"
       inkscape:connector-curvature="0"
       inkscape:export-filename="C:\Users\jolens\Documents\GitHub\TPT\Worksheets\Math_03_OA_4_MultiplicationUnknowns\path3813.png"
       inkscape:export-xdpi="90"
       inkscape:export-ydpi="90" />
    <path
       style="fill:none;stroke:#000000;stroke-width:2;stroke-miterlimit:4;stroke-opacity:1;stroke-dasharray:none"
       d="m 343.9771,220.20033 c -3.04699,-0.4703 -5.29946,-1.2619 -8.76276,-3.0795 -3.76596,-1.9764 -6.08904,-3.75194 -9.13878,-6.98483 -4.3154,-4.57454 -7.81323,-10.68317 -10.151,-17.72774 -2.32807,-7.01534 -2.57199,-8.609 -2.75425,-17.99474 -0.14971,-7.70961 -0.0926,-8.85478 0.62365,-12.5 3.44385,-17.52744 12.26788,-29.54897 25.53623,-34.78963 2.33859,-0.92368 2.83059,-0.9842 8.02701,-0.98735 5.13664,-0.003 5.73944,0.068 8.36181,0.9867 12.49103,4.37593 22.18584,17.47232 25.39549,34.30589 4.5352,23.78574 -5.45779,48.46322 -22.88554,56.51533 -4.41332,2.03907 -9.96439,2.91777 -14.25186,2.25587 l 0,0 z"
       id="path3813"
       inkscape:connector-curvature="0"
       inkscape:export-xdpi="90"
       inkscape:export-ydpi="90" />
  </g>
</svg>
