<?xml version="1.0" encoding="UTF-8" standalone="no"?>
<!-- Created with Inkscape (http://www.inkscape.org/) -->

<svg
   xmlns:dc="http://purl.org/dc/elements/1.1/"
   xmlns:cc="http://creativecommons.org/ns#"
   xmlns:rdf="http://www.w3.org/1999/02/22-rdf-syntax-ns#"
   xmlns:svg="http://www.w3.org/2000/svg"
   xmlns="http://www.w3.org/2000/svg"
   xmlns:sodipodi="http://sodipodi.sourceforge.net/DTD/sodipodi-0.dtd"
   xmlns:inkscape="http://www.inkscape.org/namespaces/inkscape"
   width="832.0849"
   height="277.81778"
   id="svg2"
   version="1.1"
   inkscape:version="0.48.1 r9760"
   sodipodi:docname="guppande båt.svg">
  <defs
     id="defs4" />
  <sodipodi:namedview
     id="base"
     pagecolor="#ffffff"
     bordercolor="#666666"
     borderopacity="1.0"
     inkscape:pageopacity="0.0"
     inkscape:pageshadow="2"
     inkscape:zoom="1.4142136"
     inkscape:cx="287.74329"
     inkscape:cy="196.38374"
     inkscape:document-units="px"
     inkscape:current-layer="layer1"
     showgrid="false"
     inkscape:window-width="1920"
     inkscape:window-height="1123"
     inkscape:window-x="0"
     inkscape:window-y="24"
     inkscape:window-maximized="1"
     fit-margin-top="0"
     fit-margin-left="-70"
     fit-margin-right="-70"
     fit-margin-bottom="0" />
  <metadata
     id="metadata7">
    <rdf:RDF>
      <cc:Work
         rdf:about="">
        <dc:format>image/svg+xml</dc:format>
        <dc:type
           rdf:resource="http://purl.org/dc/dcmitype/StillImage" />
        <dc:title></dc:title>
      </cc:Work>
    </rdf:RDF>
  </metadata>
  <g
     inkscape:groupmode="layer"
     id="layer2"
     inkscape:label="himmel natt"
     style="display:none"
     transform="translate(31.131729,-134.41887)">
    <rect
       style="fill:#102942;fill-opacity:1;stroke:none"
       id="rect4137"
       width="810.34436"
       height="441.23462"
       x="-35.355339"
       y="-81.83709" />
    <path
       sodipodi:type="star"
       style="fill:#d4cf00;fill-opacity:1;stroke:none"
       id="path4139"
       sodipodi:sides="5"
       sodipodi:cx="173.94827"
       sodipodi:cy="-47.188858"
       sodipodi:r1="19"
       sodipodi:r2="9.5"
       sodipodi:arg1="0.78539816"
       sodipodi:arg2="1.4137167"
       inkscape:flatsided="false"
       inkscape:rounded="0"
       inkscape:randomized="0"
       d="m 187.3833,-33.753829 -11.9489,-4.05199 -10.11195,7.546085 0.16126,-12.616214 -10.30152,-7.285165 12.04857,-3.745259 3.74526,-12.048564 7.28516,10.301516 12.61622,-0.161258 -7.54609,10.111947 z"
       inkscape:transform-center-x="0.26346789"
       inkscape:transform-center-y="-0.26347036"
       transform="matrix(0.28685531,0,0,0.28685531,110.66736,-47.035413)" />
    <path
       sodipodi:type="star"
       style="fill:#d4cf00;fill-opacity:1;stroke:none"
       id="path4139-4"
       sodipodi:sides="5"
       sodipodi:cx="173.94827"
       sodipodi:cy="-47.188858"
       sodipodi:r1="19"
       sodipodi:r2="9.5"
       sodipodi:arg1="0.78539816"
       sodipodi:arg2="1.4137167"
       inkscape:flatsided="false"
       inkscape:rounded="0"
       inkscape:randomized="0"
       d="m 187.3833,-33.753829 -11.9489,-4.05199 -10.11195,7.546085 0.16126,-12.616214 -10.30152,-7.285165 12.04857,-3.745259 3.74526,-12.048564 7.28516,10.301516 12.61622,-0.161258 -7.54609,10.111947 z"
       inkscape:transform-center-x="-29.364818"
       inkscape:transform-center-y="50.012228"
       transform="matrix(0.03130009,-0.16855183,0.16855183,0.03130009,583.21146,21.257843)" />
  </g>
  <g
     inkscape:groupmode="layer"
     id="layer4"
     inkscape:label="himmel dag"
     style="display:none"
     transform="translate(31.131729,-134.41887)">
    <rect
       style="fill:#11f3ff;fill-opacity:1;stroke:none"
       id="rect4194"
       width="803"
       height="400"
       x="-44"
       y="-52.637814" />
    <path
       sodipodi:type="arc"
       style="fill:#ffdb00;fill-opacity:1;stroke:none"
       id="path4196"
       sodipodi:cx="4"
       sodipodi:cy="-26.637814"
       sodipodi:rx="72"
       sodipodi:ry="72"
       d="m 76,-26.637814 c 0,39.764502 -32.235498,72 -72,72 -39.764502,0 -72,-32.235498 -72,-72 0,-39.764502 32.235498,-72 72,-72 39.764502,0 72,32.235498 72,72 z"
       transform="translate(-20,-5)" />
  </g>
  <g
     inkscape:label="båt"
     inkscape:groupmode="layer"
     id="layer1"
     style="display:inline"
     transform="translate(31.131729,-134.41887)">
    <path
       style="font-size:medium;font-style:normal;font-variant:normal;font-weight:normal;font-stretch:normal;text-indent:0;text-align:start;text-decoration:none;line-height:normal;letter-spacing:normal;word-spacing:normal;text-transform:none;direction:ltr;block-progression:tb;writing-mode:lr-tb;text-anchor:start;baseline-shift:baseline;color:#000000;fill:#dbe2e3;fill-opacity:1;stroke:none;stroke-width:2.13496327;marker:none;visibility:visible;display:inline;overflow:visible;enable-background:accumulate;font-family:Sans;-inkscape-font-specification:Sans"
       d="m 701.32315,237.48327 c -17.72116,0 -30.45002,8.49381 -39.09375,24.46875 -8.38325,15.49356 -20.13464,23.34375 -37.1875,23.34375 -16.97651,0 -28.29512,-9.70861 -37.3125,-23.3125 -9.21768,-13.90607 -21.29621,-24.28125 -39.09375,-24.28125 -8.83463,0 -15.99,1.77787 -22.25,5.75 -6.26,3.97213 -11.57551,10.0953 -16.875,18.6875 -5.20286,8.43551 -10.30851,14.26746 -16.1875,18 -5.87899,3.73254 -12.57262,5.40625 -21.125,5.40625 -16.9765,0 -28.29511,-9.67736 -37.3125,-23.28125 -9.21767,-13.90607 -21.26495,-24.28125 -39.0625,-24.28125 -17.72115,0 -30.45001,8.49381 -39.09375,24.46875 -8.38325,15.49356 -20.13463,23.34375 -37.1875,23.34375 -16.9765,0 -28.29511,-9.70861 -37.3125,-23.3125 -9.21768,-13.90607 -21.2962,-24.28125 -39.09375,-24.28125 -8.81407,0 -16.36697,1.50543 -22.8125,5.34375 -6.44553,3.83832 -11.70414,9.99764 -16.0625,19.09375 -4.23105,8.83039 -9.22725,14.59892 -15.25,18.1875 -6.02275,3.58858 -13.1458,5.03125 -21.71875,5.03125 -16.9765,0 -28.29511,-9.70861 -37.3125,-23.3125 -9.21768,-13.90607 -21.2962,-24.25 -39.093752,-24.25 -17.72115,0 -30.41877,8.46256 -39.062496,24.4375 -8.38325,15.49356 -20.13463,23.34375 -37.18749,23.34375 -16.9765198,0 -28.29512,-9.70861 -37.3125,-23.3125 -9.21769,-13.90607 -21.29621,-24.25 -39.09375,-24.25 -17.79352,0 -33.06111,10.14798 -39.218752,24.59375 0,0 -0.93112,117.83209 1.968752,111.02902 304.241058,0 608.482138,0 912.723208,0 3.07869,-7.22261 1.24553,-112.40402 1.24553,-112.40402 -5.79995,13.60668 -20.26947,23.3125 -37.25,23.3125 -16.97649,0 -28.2951,-9.67736 -37.3125,-23.28125 -9.21768,-13.90607 -21.26496,-24.28125 -39.0625,-24.28125 z"
       id="path2988-9-9-3-3"
       inkscape:connector-curvature="0"
       sodipodi:nodetypes="sssssssssssssssssssssssssccccsss" />
    <path
       style="font-size:medium;font-style:normal;font-variant:normal;font-weight:normal;font-stretch:normal;text-indent:0;text-align:start;text-decoration:none;line-height:normal;letter-spacing:normal;word-spacing:normal;text-transform:none;direction:ltr;block-progression:tb;writing-mode:lr-tb;text-anchor:start;baseline-shift:baseline;color:#000000;fill:#87aade;fill-opacity:1;stroke:none;stroke-width:2.13496327;marker:none;visibility:visible;display:inline;overflow:visible;enable-background:accumulate;font-family:Sans;-inkscape-font-specification:Sans"
       d="m 751.287,246.7505 c -17.72116,0 -30.45002,8.49381 -39.09375,24.46875 -8.38325,15.49356 -20.13464,23.34375 -37.1875,23.34375 -16.97651,0 -28.29512,-9.70861 -37.3125,-23.3125 -9.21768,-13.90607 -21.29621,-24.28125 -39.09375,-24.28125 -8.83463,0 -15.99,1.77787 -22.25,5.75 -6.26,3.97213 -11.57551,10.0953 -16.875,18.6875 -5.20286,8.43551 -10.30851,14.26746 -16.1875,18 -5.87899,3.73254 -12.57262,5.40625 -21.125,5.40625 -16.9765,0 -28.29511,-9.67736 -37.3125,-23.28125 -9.21767,-13.90607 -21.26495,-24.28125 -39.0625,-24.28125 -17.72115,0 -30.45001,8.49381 -39.09375,24.46875 -8.38325,15.49356 -20.13463,23.34375 -37.1875,23.34375 -16.9765,0 -28.29511,-9.70861 -37.3125,-23.3125 -9.21768,-13.90607 -21.2962,-24.28125 -39.09375,-24.28125 -8.81407,0 -16.36697,1.50543 -22.8125,5.34375 -6.44553,3.83832 -11.70414,9.99764 -16.0625,19.09375 -4.23105,8.83039 -9.22725,14.59892 -15.25,18.1875 -6.02275,3.58858 -13.1458,5.03125 -21.71875,5.03125 -16.9765,0 -28.29511,-9.70861 -37.3125,-23.3125 -9.21768,-13.90607 -21.2962,-24.25 -39.09375,-24.25 -17.72115,0 -30.41877,8.46256 -39.0625,24.4375 -8.383254,15.49356 -20.134644,23.34375 -37.187504,23.34375 -16.97652,0 -28.295123,-9.70861 -37.312503,-23.3125 -9.21769,-13.90607 -21.2962103,-24.25 -39.093752,-24.25 -17.793522,0 -33.061111,10.14798 -39.21875,24.59375 0,0 -0.931117,117.83209 1.968749,111.02902 304.24108,0 608.48216,0 912.72323,0 3.07869,-7.22261 1.24553,-112.40402 1.24553,-112.40402 -5.79995,13.60668 -20.26947,23.3125 -37.25,23.3125 -16.97649,0 -28.2951,-9.67736 -37.3125,-23.28125 -9.21768,-13.90607 -21.26496,-24.28125 -39.0625,-24.28125 z"
       id="path2988-9-9-3-1"
       inkscape:connector-curvature="0"
       sodipodi:nodetypes="sssssssssssssssssssssssssccccsss" />
    <g
       id="g4178">
      <g
         id="g4163">
        <path
           sodipodi:type="arc"
           style="fill:#2b0000;fill-opacity:1;stroke:none"
           id="path4118"
           sodipodi:cx="453.84375"
           sodipodi:cy="225.89343"
           sodipodi:rx="6.78125"
           sodipodi:ry="5.15625"
           d="m 460.625,225.89343 c 0,2.84772 -3.03607,5.15625 -6.78125,5.15625 -3.74518,0 -6.78125,-2.30853 -6.78125,-5.15625 0,-2.84772 3.03607,-5.15625 6.78125,-5.15625 3.74518,0 6.78125,2.30853 6.78125,5.15625 z" />
        <g
           id="g3951"
           transform="matrix(0.99618943,-0.08721594,0.08721594,0.99618943,-18.768168,61.516348)">
          <g
             style="stroke:none"
             transform="matrix(0.41042054,-0.08290055,0.08290055,0.41042054,281.17635,176.8395)"
             id="g3938">
            <path
               style="fill:#4d4d4d;stroke:none"
               d="m 294.28571,78.821572 -1.42857,-30.745105 15.71429,0 0,30.745105 z"
               id="path3877"
               inkscape:connector-curvature="0" />
            <path
               inkscape:connector-curvature="0"
               id="path3883-1"
               style="fill:#008080;stroke:none"
               d="m 280.06479,81.353047 0.7989,29.294423 39.94452,0 0,-29.799499 z m -29.54696,0.252539 0.50508,29.294424 25.25381,0 0,-29.7995 z m -1.9464,75.756594 -5.71429,-82.857141 83.57143,-2.142857 0,84.285718 z" />
            <g
               style="stroke:none"
               id="g3934">
              <path
                 sodipodi:nodetypes="ccccc"
                 inkscape:connector-curvature="0"
                 id="path3879-5"
                 d="m 433.08927,155.48791 c -7.99142,18.27148 -14.07421,38.8224 -20.94641,57.58856 l -187.85715,0 -23.32995,-57.3755 z"
                 style="fill:#ebebeb;fill-opacity:1;stroke:#848484;stroke-width:1.00217533px;stroke-linecap:butt;stroke-linejoin:miter;stroke-opacity:1" />
              <path
                 inkscape:connector-curvature="0"
                 d="m 403.57142,172.36218 c 0,5.12836 -4.15736,9.28572 -9.28571,9.28572 -5.12836,0 -9.28572,-4.15736 -9.28572,-9.28572 0,-5.12836 4.15736,-9.28571 9.28572,-9.28571 5.12835,0 9.28571,4.15735 9.28571,9.28571 z m 50.23382,-49.96356 -307.28664,0 17.60627,64.90386 273.23397,-0.0163 0.27649,-0.1061 z"
                 style="fill:#ff0000;stroke:none"
                 transform="matrix(0.85076452,0,0,0.55040117,61.06146,53.565264)"
                 id="path3881" />
            </g>
          </g>
          <path
             inkscape:connector-curvature="0"
             id="path3945"
             d="m 407.14286,163.07647 c 1.75609,-2.65558 4.95431,-6.03016 1.95518,-9.10738 -2.58403,-3.08453 0.47759,-7.30972 -2.33138,-10.15443 -2.7155,-2.34168 -4.20761,-5.8928 -7.6203,-7.39777 -1.93863,-1.30433 -0.72306,2.47979 -1.60724,0.047 -1.03589,-2.5753 -5.14806,-3.94485 -5.91029,-5.6225 2.39891,0.81251 -1.70072,-3.80751 -2.70576,-4.64594 -1.52516,-4.55799 -4.30679,-9.10803 -8.22139,-12.1325 -2.01932,-1.92862 -4.34596,-0.43884 -4.46288,1.93255 -3.47719,0.73169 -5.2264,-4.52976 -7.02158,-6.80456 -2.69524,-2.60401 -7.6589,0.79975 -8.94672,-3.79094 -3.03085,-0.31216 -7.35102,-1.63082 -9.64044,1.17944 0.32434,1.0399 3.68687,3.52277 0.81474,2.15538 -1.59949,-1.54503 -6.18101,-1.02927 -3.13099,1.55129 1.0758,3.16801 -5.7098,0.0777 -6.12302,3.58265 -0.88473,4.00895 2.25217,7.70182 4.38328,10.81707 1.22597,1.77799 6.196,3.30473 3.08034,5.04912 0.0411,1.86851 3.58634,4.17856 4.63988,3.52197 -2.83158,-2.26741 0.84499,3.08801 1.45666,4.13761 1.48274,2.60352 3.85014,4.44432 6.29635,6.06827 2.91131,2.28084 6.17181,4.93239 10.1099,4.61365 3.05405,0.65961 0.0443,-4.55253 3.6318,-4.11572 2.82168,-0.89113 5.84177,-5.97022 2.31707,-7.52661 -0.17771,3.25459 3.40242,4.43684 5.5285,6.16742 2.68349,1.8607 6.3625,3.30736 9.41558,1.45921 4.09612,-0.92431 3.3657,5.14058 6.30727,6.81658 3.63336,1.63251 1.07406,6.03116 3.63981,8.15546 -3.53554,-2.04819 -4.66961,3.44268 -1.61452,4.71484 1.4307,2.35305 4.48908,1.16995 5.76015,-0.67118 z"
             style="fill:#dadada;fill-opacity:1;stroke:#e3e3e3;stroke-width:1px;stroke-linecap:butt;stroke-linejoin:miter;stroke-opacity:1" />
        </g>
      </g>
      <g
         id="g4174">
        <path
           id="path4114"
           style="fill:#312f2b;fill-opacity:1;stroke:none"
           d="m 452.79182,227.78007 c -0.29702,-0.0276 -0.52084,-0.2324 -0.49986,-0.45738 0.0209,-0.22496 0.27869,-0.38491 0.57571,-0.35726 0.29704,0.0276 0.52084,0.2324 0.49995,0.45733 -0.0209,0.22495 -0.27868,0.38489 -0.57572,0.35725 z m 1.47719,-0.30848 c 0.16628,-0.62348 -0.63434,-1.49511 -1.32158,-1.71847 -0.39169,-0.12733 -0.5785,0.21585 -1.33912,0.65714 -6.77209,-0.17355 -12.72897,-1.15633 -12.72897,-1.15633 -0.10293,-0.90224 1.07954,-4.01732 3.53864,-4.60515 1.76802,-0.42263 1.24865,0.6293 1.24865,0.6293 l 2.37542,-1.23646 -2.93079,-1.69819 c 0,0 0.61651,1.03071 -0.73393,1.1882 -4.41338,0.51486 -5.71283,5.25502 -5.36654,5.67152 -0.31242,0.15429 -0.75877,0.25395 -0.79999,0.62299 -0.0273,0.37034 0.3927,0.55066 0.67134,0.75988 -0.41712,0.34553 -0.0148,5.24399 4.22779,6.56442 1.29822,0.40398 0.50209,1.30323 0.50209,1.30323 l 3.19383,-1.12821 -2.10648,-1.65357 c 0,0 0.31635,1.12972 -1.34331,0.38809 -2.3084,-1.03151 -2.89575,-4.31131 -2.62808,-5.17906 0,0 6.03593,0.13334 12.72373,1.21242 0.66613,0.57408 0.78641,0.94584 1.19488,0.89298 0.71665,-0.0927 1.66435,-0.80165 1.61597,-1.44512 2.5e-4,-0.0474 0.004,-0.0464 0.006,-0.0697 z"
           inkscape:connector-curvature="0" />
        <path
           id="path4131"
           style="fill:#552200;stroke:none"
           d="m 454.1875,227.9403 c 0.1193,0.002 0.37114,-0.002 0.48522,-0.0334 0.17034,-0.0402 0.30702,-0.1536 0.44679,-0.25214 0.0224,-0.0441 0.0982,-0.10204 0.14628,-0.1626 0.0835,-0.0579 0.15355,-0.13767 0.24259,-0.19255 0.0692,-0.0638 0.13834,-0.12876 0.2217,-0.17372 0.11857,-0.0803 0.251,-0.14358 0.34708,-0.25288 0.0629,-0.0671 0.12734,-0.13193 0.19694,-0.19153 0.0901,-0.0866 0.0241,-0.21288 -0.0659,-0.26825 -0.13393,-0.0922 -0.29235,-0.19042 -0.46225,-0.15632 -0.12609,0.036 -0.24819,0.0839 -0.36526,0.14298 -0.10606,0.0529 -0.21846,0.0996 -0.31047,0.17547 -0.0825,0.0877 -0.16244,0.17783 -0.24977,0.26105 -0.0621,0.0707 -0.14172,0.12363 -0.20512,0.19319 -0.0824,0.0633 -0.17206,0.12508 -0.27214,0.15457 -0.0185,0.003 -0.0493,0.0177 -0.0659,0.027 0.002,0.0347 -0.0312,0.61364 -0.1093,0.72126 z m -1.375,1.03126 c 0.21441,0.10833 0.4642,0.0971 0.69784,0.11284 0.22042,-0.005 0.43685,-0.0974 0.61102,-0.22908 0.16999,-0.14858 0.15967,-0.42328 0.0841,-0.61807 -0.12853,-0.13587 -0.0897,-0.35687 -0.23851,-0.47725 -0.19035,-0.20105 -0.44791,-0.32307 -0.6977,-0.43292 -0.16992,-0.0511 -0.36079,-0.13217 -0.53512,-0.0568 -0.16743,0.0522 -0.38198,0.19132 -0.24467,0.38913 0.15651,0.15035 0.41034,0.14453 0.59043,0.26871 0.20001,0.11696 0.37872,0.30882 0.42957,0.53918 0.025,0.22773 -0.24344,0.23179 -0.38136,0.32384 -0.086,0.0722 -0.26551,0.12069 -0.31556,0.18047 z m -1.59375,-2.54688 c -0.0776,0.19514 -0.13363,0.39916 -0.24218,0.58067 -0.0974,0.23037 -0.20247,0.46599 -0.1947,0.72196 -0.0247,0.2031 0.0572,0.41316 0.25121,0.50144 0.16036,0.14733 0.37999,0.075 0.57064,0.11693 0.19419,-0.0299 0.14338,-0.29994 0.17709,-0.44522 0.001,-0.195 -8e-5,-0.39001 3.5e-4,-0.58501 0.0451,-0.15641 0.0799,-0.3163 0.1677,-0.45762 0.0831,-0.20426 0.23773,-0.4068 0.1953,-0.63828 -0.0259,-0.23192 -0.27304,-0.20096 -0.43102,-0.12978 -0.19367,0.0466 -0.36909,0.14386 -0.47851,0.31274 l -0.0157,0.0221 -1.4e-4,6e-5 z"
           inkscape:connector-curvature="0" />
      </g>
    </g>
    <path
       style="font-size:medium;font-style:normal;font-variant:normal;font-weight:normal;font-stretch:normal;text-indent:0;text-align:start;text-decoration:none;line-height:normal;letter-spacing:normal;word-spacing:normal;text-transform:none;direction:ltr;block-progression:tb;writing-mode:lr-tb;text-anchor:start;baseline-shift:baseline;color:#000000;fill:#aaccff;fill-opacity:1;stroke:none;stroke-width:2.13496327;marker:none;visibility:visible;display:inline;overflow:visible;enable-background:accumulate;font-family:Sans;-inkscape-font-specification:Sans"
       d="m 731.28697,258.17907 c -17.7211,0 -30.45,8.49381 -39.0937,24.46875 -8.3833,15.49356 -20.1347,23.34375 -37.1875,23.34375 -16.97654,0 -28.29515,-9.70861 -37.31253,-23.3125 -9.21768,-13.90607 -21.29621,-24.28125 -39.09375,-24.28125 -8.83463,0 -15.99,1.77787 -22.25,5.75 -6.26,3.97213 -11.57551,10.0953 -16.875,18.6875 -5.20286,8.43551 -10.30851,14.26746 -16.1875,18 -5.87899,3.73254 -12.57262,5.40625 -21.125,5.40625 -16.9765,0 -28.29511,-9.67736 -37.3125,-23.28125 -9.21767,-13.90607 -21.26495,-24.28125 -39.0625,-24.28125 -17.72115,0 -30.45001,8.49381 -39.09375,24.46875 -8.38325,15.49356 -20.13463,23.34375 -37.1875,23.34375 -16.9765,0 -28.29511,-9.70861 -37.3125,-23.3125 -9.21768,-13.90607 -21.2962,-24.28125 -39.09375,-24.28125 -8.81407,0 -16.36697,1.50543 -22.8125,5.34375 -6.44553,3.83832 -11.70414,9.99764 -16.0625,19.09375 -4.23105,8.83039 -9.22725,14.59892 -15.25,18.1875 -6.02275,3.58858 -13.1458,5.03125 -21.71875,5.03125 -16.9765,0 -28.29511,-9.70861 -37.3125,-23.3125 -9.21768,-13.90607 -21.2962,-24.25 -39.09375,-24.25 -17.72115,0 -30.418773,8.46256 -39.062493,24.4375 -8.38325,15.49356 -20.13464,23.34375 -37.1875,23.34375 -16.97652,0 -28.29512,-9.70861 -37.31251,-23.3125 -9.21768,-13.90607 -21.29621,-24.25 -39.09375,-24.25 -17.79352,0 -33.06111,10.14798 -39.21875,24.59375 0,0 -0.93111,117.83209 1.96875,111.02902 304.241073,0 608.482153,0 912.723223,0 3.0787,-7.22261 1.2455,-112.40402 1.2455,-112.40402 -5.7999,13.60668 -20.2695,23.3125 -37.24999,23.3125 -16.9765,0 -28.2951,-9.67736 -37.3125,-23.28125 -9.2177,-13.90607 -21.2649,-24.28125 -39.0625,-24.28125 z"
       id="path2988-9-9-3-7"
       inkscape:connector-curvature="0"
       sodipodi:nodetypes="sssssssssssssssssssssssssccccsss" />
    <path
       style="font-size:medium;font-style:normal;font-variant:normal;font-weight:normal;font-stretch:normal;text-indent:0;text-align:start;text-decoration:none;line-height:normal;letter-spacing:normal;word-spacing:normal;text-transform:none;direction:ltr;block-progression:tb;writing-mode:lr-tb;text-anchor:start;baseline-shift:baseline;color:#000000;fill:#2a1bff;fill-opacity:1;stroke:none;stroke-width:2.13496327;marker:none;visibility:visible;display:inline;overflow:visible;enable-background:accumulate;font-family:Sans;-inkscape-font-specification:Sans"
       d="m 756.78657,275.299 c -17.72116,0 -30.45002,8.49381 -39.09375,24.46875 -8.38325,15.49356 -20.13464,23.34375 -37.1875,23.34375 -16.97651,0 -28.29512,-9.70861 -37.3125,-23.3125 -9.21768,-13.90607 -21.29621,-24.28125 -39.09375,-24.28125 -8.83463,0 -15.99,1.77787 -22.25,5.75 -6.26,3.97213 -11.57551,10.0953 -16.875,18.6875 -5.20286,8.43551 -10.30851,14.26746 -16.1875,18 -5.87899,3.73254 -12.57262,5.40625 -21.125,5.40625 -16.9765,0 -28.29511,-9.67736 -37.3125,-23.28125 -9.21767,-13.90607 -21.26495,-24.28125 -39.0625,-24.28125 -17.72115,0 -30.45001,8.49381 -39.09375,24.46875 -8.38325,15.49356 -20.13463,23.34375 -37.1875,23.34375 -16.9765,0 -28.29511,-9.70861 -37.3125,-23.3125 -9.21768,-13.90607 -21.2962,-24.28125 -39.09375,-24.28125 -8.81407,0 -16.36697,1.50543 -22.8125,5.34375 -6.44553,3.83832 -11.70414,9.99764 -16.0625,19.09375 -4.23105,8.83039 -9.22725,14.59892 -15.25,18.1875 -6.02275,3.58858 -13.1458,5.03125 -21.71875,5.03125 -16.9765,0 -28.29511,-9.70861 -37.3125,-23.3125 -9.21768,-13.90607 -21.2962,-24.25 -39.09375,-24.25 -17.72115,0 -30.41877,8.46256 -39.0625,24.4375 -8.383247,15.49356 -20.134635,23.34375 -37.187492,23.34375 -16.976514,0 -28.295114,-9.70861 -37.3125,-23.3125 -9.217685,-13.90607 -21.296212,-24.25 -39.0937507,-24.25 -17.7935213,0 -33.0611093,10.14798 -39.2187493,24.59375 0,0 -0.931117,117.83209 1.96875,111.02902 304.241062,0 608.482142,0 912.723212,0 3.07869,-7.22261 1.24553,-112.40402 1.24553,-112.40402 -5.79995,13.60668 -20.26947,23.3125 -37.25,23.3125 -16.97649,0 -28.2951,-9.67736 -37.3125,-23.28125 -9.21768,-13.90607 -21.26496,-24.28125 -39.0625,-24.28125 z"
       id="path2988-9-9-3"
       inkscape:connector-curvature="0"
       sodipodi:nodetypes="sssssssssssssssssssssssssccccsss" />
  </g>
  <g
     inkscape:groupmode="layer"
     id="layer3"
     inkscape:label="atmosfär"
     style="display:none"
     transform="translate(31.131729,-134.41887)">
    <rect
       style="fill:#04040f;fill-opacity:0.63519311;stroke:none"
       id="rect4160"
       width="912"
       height="464"
       x="-53"
       y="-84.63781" />
  </g>
</svg>
