<?xml version="1.0" encoding="UTF-8" standalone="no"?>
<!-- Created with Inkscape (http://www.inkscape.org/) -->

<svg
   xmlns:dc="http://purl.org/dc/elements/1.1/"
   xmlns:cc="http://creativecommons.org/ns#"
   xmlns:rdf="http://www.w3.org/1999/02/22-rdf-syntax-ns#"
   xmlns:svg="http://www.w3.org/2000/svg"
   xmlns="http://www.w3.org/2000/svg"
   xmlns:sodipodi="http://sodipodi.sourceforge.net/DTD/sodipodi-0.dtd"
   xmlns:inkscape="http://www.inkscape.org/namespaces/inkscape"
   width="128"
   height="128"
   id="svg3253"
   sodipodi:version="0.32"
   inkscape:version="0.48.2 r9819"
   version="1.0"
   sodipodi:docname="Bunny.svg"
   inkscape:output_extension="org.inkscape.output.svg.inkscape">
  <defs
     id="defs3255">
    <inkscape:perspective
       sodipodi:type="inkscape:persp3d"
       inkscape:vp_x="0 : 526.18109 : 1"
       inkscape:vp_y="0 : 1000 : 0"
       inkscape:vp_z="744.09448 : 526.18109 : 1"
       inkscape:persp3d-origin="372.04724 : 350.78739 : 1"
       id="perspective3261" />
  </defs>
  <sodipodi:namedview
     id="base"
     pagecolor="#ffffff"
     bordercolor="#666666"
     borderopacity="1.0"
     gridtolerance="10000"
     guidetolerance="10"
     objecttolerance="10"
     inkscape:pageopacity="0.0"
     inkscape:pageshadow="2"
     inkscape:zoom="1.4887912"
     inkscape:cx="43.288839"
     inkscape:cy="58.624215"
     inkscape:document-units="px"
     inkscape:current-layer="layer1"
     showgrid="true"
     inkscape:snap-global="false"
     inkscape:window-width="1280"
     inkscape:window-height="744"
     inkscape:window-x="-4"
     inkscape:window-y="-4"
     inkscape:window-maximized="0">
    <inkscape:grid
       type="xygrid"
       id="grid3263"
       visible="true"
       enabled="true" />
  </sodipodi:namedview>
  <metadata
     id="metadata3258">
    <rdf:RDF>
      <cc:Work
         rdf:about="">
        <dc:format>image/svg+xml</dc:format>
        <dc:type
           rdf:resource="http://purl.org/dc/dcmitype/StillImage" />
      </cc:Work>
    </rdf:RDF>
  </metadata>
  <g
     inkscape:label="Layer 1"
     inkscape:groupmode="layer"
     id="layer1">
    <path
       style="fill:#008080;fill-opacity:1;fill-rule:evenodd;stroke:#000000;stroke-width:6;stroke-linecap:round;stroke-linejoin:round;marker:none;marker-start:none;marker-mid:none;marker-end:none;stroke-miterlimit:4;stroke-dasharray:none;stroke-dashoffset:0;stroke-opacity:1;visibility:visible;display:inline;overflow:visible;enable-background:accumulate"
       d="M 64.1875 5.3125 C 58.79133 5.393833 53.28957 6.3513706 47.59375 8.84375 C 37.776971 13.13938 34.039981 18.369047 31.3125 23.8125 C 24.774235 23.505281 17.844102 26.267359 13.09375 31.75 C 5.6991746 40.284485 6.3827054 52.138562 14.625 58.1875 C 16.865178 59.831544 19.423247 60.829058 22.125 61.3125 C 21.061549 65.59208 21.214562 70.068765 22.3125 74.53125 C 22.154267 74.574836 22.001888 74.606755 21.84375 74.65625 C 14.886121 76.833899 10.873775 83.912463 12.90625 90.40625 C 13.652806 92.791507 15.109937 94.752387 17 96.1875 C 18.729975 97.977709 21.454432 98.653553 24.125 97.6875 C 27.512737 96.462015 29.655642 93.026065 29.375 89.625 C 34.213413 96.669131 40.723101 102.87275 47.34375 107.1875 C 44.211975 109.23429 42.337408 111.8818 42.40625 114.75 C 42.451171 116.62165 42.906448 119.02929 44.8125 119.90625 C 50.16805 122.37031 56.984861 122.66445 63.71875 122.59375 C 70.362679 122.524 77.079234 122.09755 82.28125 119.5625 C 84.113839 118.66944 84.419528 116.2614 84.375 114.40625 C 84.361793 113.85599 84.274264 113.31017 84.125 112.78125 C 87.380585 111.98755 90.18504 110.80118 92.46875 109.25 C 96.681756 113.11103 103.4061 113.51712 108.625 109.90625 C 114.62035 105.75817 116.3403 97.845655 112.46875 92.25 C 109.36061 87.757721 103.60216 86.139466 98.34375 87.8125 C 97.027233 83.217912 94.614531 78.051056 90.9375 72.3125 C 82.333288 58.884342 62.70925 48.748645 46.96875 46.78125 C 47.688216 44.728054 48.062305 42.62029 48.0625 40.5625 C 58.643289 41.642234 69.940728 42.254536 86.65625 39.65625 C 92.419172 38.760455 94.415155 36.965237 88.65625 32.625 C 81.530731 27.254808 73.50337 23.498994 63.21875 23.71875 C 68.735038 21.298006 74.002627 18.436003 78.46875 15.34375 C 84.294157 11.31036 86.226357 8.0293834 76.625 6.40625 C 72.497236 5.7084413 68.384521 5.249241 64.1875 5.3125 z "
       id="path3912" />
    <path
       style="fill:#cccccc;fill-opacity:1;fill-rule:evenodd;stroke:none;stroke-width:2;stroke-linecap:round;stroke-linejoin:round;marker:none;marker-start:none;marker-mid:none;marker-end:none;stroke-miterlimit:4;stroke-dasharray:none;stroke-dashoffset:0;stroke-opacity:1;visibility:visible;display:inline;overflow:visible;enable-background:accumulate"
       d="M 64.1875 5.3125 C 58.79133 5.393833 53.28957 6.3513706 47.59375 8.84375 C 37.776971 13.13938 34.039981 18.369047 31.3125 23.8125 C 24.774235 23.505281 17.844102 26.267359 13.09375 31.75 C 5.6991746 40.284485 6.3827054 52.138562 14.625 58.1875 C 16.865178 59.831544 19.423247 60.829058 22.125 61.3125 C 21.061549 65.59208 21.214562 70.068765 22.3125 74.53125 C 22.154267 74.574836 22.001888 74.606755 21.84375 74.65625 C 14.886121 76.833899 10.873775 83.912463 12.90625 90.40625 C 13.652806 92.791507 15.109937 94.752387 17 96.1875 C 18.729975 97.977709 21.454432 98.653553 24.125 97.6875 C 27.512737 96.462015 29.655642 93.026065 29.375 89.625 C 34.213413 96.669131 40.723101 102.87275 47.34375 107.1875 C 44.211975 109.23429 42.337408 111.8818 42.40625 114.75 C 42.451171 116.62165 42.906448 119.02929 44.8125 119.90625 C 50.16805 122.37031 56.984861 122.66445 63.71875 122.59375 C 70.362679 122.524 77.079234 122.09755 82.28125 119.5625 C 84.113839 118.66944 84.419528 116.2614 84.375 114.40625 C 84.361793 113.85599 84.274264 113.31017 84.125 112.78125 C 87.380585 111.98755 90.18504 110.80118 92.46875 109.25 C 96.681756 113.11103 103.4061 113.51712 108.625 109.90625 C 114.62035 105.75817 116.3403 97.845655 112.46875 92.25 C 109.36061 87.757721 103.60216 86.139466 98.34375 87.8125 C 97.027233 83.217912 94.614531 78.051056 90.9375 72.3125 C 82.333288 58.884342 62.70925 48.748645 46.96875 46.78125 C 47.688216 44.728054 48.062305 42.62029 48.0625 40.5625 C 58.643289 41.642234 69.940728 42.254536 86.65625 39.65625 C 92.419172 38.760455 94.415155 36.965237 88.65625 32.625 C 81.530731 27.254808 73.50337 23.498994 63.21875 23.71875 C 68.735038 21.298006 74.002627 18.436003 78.46875 15.34375 C 84.294157 11.31036 86.226357 8.0293834 76.625 6.40625 C 72.497236 5.7084413 68.384521 5.249241 64.1875 5.3125 z "
       id="path3782" />
    <path
       sodipodi:type="arc"
       style="opacity:1;fill:#000000;fill-opacity:1;fill-rule:evenodd;stroke:none;stroke-width:6;stroke-linecap:round;stroke-linejoin:round;marker:none;marker-start:none;marker-mid:none;marker-end:none;stroke-miterlimit:4;stroke-dasharray:none;stroke-dashoffset:0;stroke-opacity:1;visibility:visible;display:inline;overflow:visible;enable-background:accumulate"
       id="path3927"
       sodipodi:cx="26.195747"
       sodipodi:cy="37.154488"
       sodipodi:rx="1.6792146"
       sodipodi:ry="1.5112932"
       d="M 27.874962,37.154488 A 1.6792146,1.5112932 0 1 1 24.516533,37.154488 A 1.6792146,1.5112932 0 1 1 27.874962,37.154488 z"
       transform="matrix(2,0,0,2,-28.210805,-37.658252)" />
    <path
       style="fill:none;fill-rule:evenodd;stroke:#000000;stroke-width:3;stroke-linecap:round;stroke-linejoin:round;stroke-opacity:1;stroke-miterlimit:4;stroke-dasharray:none"
       d="M 41.30868,112.21538 C 44.049759,103.478 52.444848,103.95983 60.78757,105.16269 C 57.940549,101.1809 56.134541,97.978277 56.421611,90.721435 C 56.819058,80.674357 68.545368,74.907541 75.9005,79.302776"
       id="path3929"
       sodipodi:nodetypes="ccsc" />
    <path
       style="fill:#ffffff;fill-opacity:1;stroke:#000000;stroke-width:0.53466195000000005;stroke-miterlimit:4;stroke-opacity:1;stroke-dasharray:none"
       d="m 55.379185,121.99343 c -3.666503,-0.35957 -10.625765,-2.29297 -11.332319,-3.1483 -0.350798,-0.42466 -0.835745,-1.83158 -1.077661,-3.12647 -0.550638,-2.94738 1.596737,-6.47453 5.034824,-8.2699 1.946322,-1.01637 3.307894,-1.15384 8.135923,-0.82142 7.03895,0.48463 7.527335,-0.0619 4.653246,-5.20685 -3.483491,-6.235894 -3.333299,-12.832756 0.39299,-17.261201 3.211643,-3.816822 6.599533,-4.76901 13.168122,-3.701003 2.99177,0.486442 3.190508,0.427253 3.190508,-0.950187 0,-2.906808 -6.636316,-4.29848 -12.343628,-2.588529 -3.721172,1.114891 -8.799813,6.106564 -9.751189,9.584204 -1.218525,4.454171 -0.816884,11.045317 0.931162,15.280856 0.428933,1.03931 0.03851,1.17545 -3.371009,1.17545 -2.12087,0 -4.9979,0.34208 -6.3934,0.76019 -2.46434,0.73833 -2.635588,0.67558 -5.957657,-2.18298 -1.881212,-1.618747 -5.14691,-5.014461 -7.257106,-7.546032 -2.28745,-2.744226 -3.946771,-4.23598 -4.109254,-3.694272 -2.665626,8.886894 -10.844684,9.838514 -14.975051,1.742326 -2.898399,-5.681327 -0.481534,-12.900298 5.314459,-15.873817 l 2.466953,-1.265624 0.01582,-7.084719 0.01582,-7.084719 -2.015057,-0.401275 C 16.966534,59.702043 12.949628,56.544836 10.727034,52.949874 8.9678893,50.104525 8.6972371,49.031993 8.6986655,44.911925 c 0.00126,-3.647261 0.3740451,-5.511686 1.6007535,-8.006007 3.208258,-6.523498 10.789993,-11.786502 17.876488,-12.409301 3.225346,-0.283462 3.451588,-0.440294 5.70933,-3.957755 2.96434,-4.618308 6.654355,-7.654944 12.914795,-10.6280129 8.480549,-4.0273949 16.076006,-5.0640198 26.490805,-3.6154544 5.986574,0.8326563 9.627468,2.1449904 9.627468,3.4701552 0,2.1515241 -9.603248,9.0597441 -16.685714,12.0030841 -1.905674,0.791963 -3.464862,1.701892 -3.464862,2.022065 0,0.320173 1.607562,0.582133 3.572361,0.582133 4.510695,0 9.622961,1.493427 15.341372,4.481617 5.003637,2.614675 9.968759,6.571742 9.968759,7.944821 0,2.387077 -11.162183,3.919366 -28.994421,3.98021 -8.004246,0.02731 -14.687439,0.200785 -14.851539,0.385499 -0.164101,0.184713 -0.487052,1.569935 -0.717669,3.07827 l -0.419304,2.742426 5.195556,1.129605 c 13.849301,3.011082 29.382762,12.171063 36.367347,21.445589 3.453184,4.58533 6.890846,10.725089 8.481136,15.147536 l 1.274275,3.543633 2.465988,-0.416626 c 3.02009,-0.51024 7.21125,0.548593 9.59572,2.424222 6.18331,4.863784 4.79921,15.445116 -2.58646,19.773416 -3.75731,2.20192 -8.651788,2.37506 -12.369005,0.43754 l -2.590914,-1.35046 -4.474905,1.75839 c -2.771732,1.08915 -4.35503,2.0708 -4.159939,2.5792 0.173235,0.45144 0.02767,1.86142 -0.323531,3.13328 -0.518252,1.87696 -1.179131,2.51895 -3.509095,3.40876 -5.076199,1.93862 -16.114067,2.8312 -24.654276,1.99367 l 0,0 z M 27.034041,39.015584 c 1.379766,-1.379766 0.923373,-3.787918 -0.950591,-5.015787 -1.574034,-1.031346 -1.940558,-1.048076 -3.52635,-0.16096 -2.109426,1.180046 -2.597693,3.379645 -1.085819,4.891518 1.279318,1.279319 4.408236,1.439753 5.56276,0.285229 z"
       id="path2988"
       inkscape:connector-curvature="0" />
    <rect
       style="fill:#ffffff;fill-opacity:1;stroke:#f2f2f2;stroke-width:0.7275508;stroke-miterlimit:4;stroke-opacity:1;stroke-dasharray:none"
       id="rect2992"
       width="26.935883"
       height="28.279255"
       x="52.342213"
       y="74.230904"
       ry="0" />
  </g>
</svg>
