<?xml version="1.0" encoding="UTF-8" standalone="no"?>
<!-- Created with Inkscape (http://www.inkscape.org/) -->

<svg
   xmlns:dc="http://purl.org/dc/elements/1.1/"
   xmlns:cc="http://creativecommons.org/ns#"
   xmlns:rdf="http://www.w3.org/1999/02/22-rdf-syntax-ns#"
   xmlns:svg="http://www.w3.org/2000/svg"
   xmlns="http://www.w3.org/2000/svg"
   xmlns:sodipodi="http://sodipodi.sourceforge.net/DTD/sodipodi-0.dtd"
   xmlns:inkscape="http://www.inkscape.org/namespaces/inkscape"
   width="744.09448819"
   height="1052.3622047"
   id="svg2"
   version="1.1"
   inkscape:version="0.48.2 r9819"
   sodipodi:docname="CartoonsBW.svg">
  <defs
     id="defs4" />
  <sodipodi:namedview
     id="base"
     pagecolor="#ffffff"
     bordercolor="#666666"
     borderopacity="1.0"
     inkscape:pageopacity="0.0"
     inkscape:pageshadow="2"
     inkscape:zoom="1.4"
     inkscape:cx="173.02607"
     inkscape:cy="778.5139"
     inkscape:document-units="px"
     inkscape:current-layer="layer1"
     showgrid="false"
     inkscape:window-width="1366"
     inkscape:window-height="706"
     inkscape:window-x="-8"
     inkscape:window-y="-8"
     inkscape:window-maximized="1"
     showguides="true"
     inkscape:guide-bbox="true" />
  <metadata
     id="metadata7">
    <rdf:RDF>
      <cc:Work
         rdf:about="">
        <dc:format>image/svg+xml</dc:format>
        <dc:type
           rdf:resource="http://purl.org/dc/dcmitype/StillImage" />
        <dc:title></dc:title>
      </cc:Work>
    </rdf:RDF>
  </metadata>
  <g
     inkscape:label="Layer 1"
     inkscape:groupmode="layer"
     id="layer1">
    <path
       sodipodi:type="arc"
       style="fill:#f9f9f9;stroke:#000000;stroke-opacity:1"
       id="path3765"
       sodipodi:cx="123.74369"
       sodipodi:cy="95.747719"
       sodipodi:rx="35.860416"
       sodipodi:ry="48.487324"
       d="m 159.60411,95.747719 a 35.860416,48.487324 0 1 1 -71.720836,0 35.860416,48.487324 0 1 1 71.720836,0 z"
       transform="translate(-86.873119,-45.47717)"
       inkscape:export-filename="C:\Users\jolens\Documents\GitHub\TPT\Worksheets\Math_03_OA_4_MultiplicationUnknowns\path3813.png"
       inkscape:export-xdpi="90"
       inkscape:export-ydpi="90" />
    <path
       style="fill:none;stroke:#000000;stroke-width:0.1477277px;stroke-linecap:butt;stroke-linejoin:miter;stroke-opacity:1"
       d="m 32.250181,108.09337 4.45285,-9.73699"
       id="path3781"
       inkscape:connector-curvature="0"
       inkscape:export-filename="C:\Users\jolens\Documents\GitHub\TPT\Worksheets\Math_03_OA_4_MultiplicationUnknowns\path3813.png"
       inkscape:export-xdpi="90"
       inkscape:export-ydpi="90" />
    <path
       style="fill:none;stroke:#000000;stroke-width:0.1477277px;stroke-linecap:butt;stroke-linejoin:miter;stroke-opacity:1"
       d="m 36.703031,98.35638 4.11553,9.57195 -8.43345,-0.0825"
       id="path3789"
       inkscape:connector-curvature="0"
       inkscape:export-filename="C:\Users\jolens\Documents\GitHub\TPT\Worksheets\Math_03_OA_4_MultiplicationUnknowns\path3813.png"
       inkscape:export-xdpi="90"
       inkscape:export-ydpi="90" />
    <path
       style="fill:none;stroke:#000000;stroke-width:1px;stroke-linecap:butt;stroke-linejoin:miter;stroke-opacity:1"
       d="m 32.055451,107.5993 4.64286,-8.57143 3.92857,8.57143"
       id="path3799"
       inkscape:connector-curvature="0"
       inkscape:export-filename="C:\Users\jolens\Documents\GitHub\TPT\Worksheets\Math_03_OA_4_MultiplicationUnknowns\path3813.png"
       inkscape:export-xdpi="90"
       inkscape:export-ydpi="90" />
    <path
       style="fill:none;stroke:#000000;stroke-width:1px;stroke-linecap:butt;stroke-linejoin:miter;stroke-opacity:1"
       d="m 32.055451,107.24215 8.92857,0"
       id="path3807"
       inkscape:connector-curvature="0"
       inkscape:export-filename="C:\Users\jolens\Documents\GitHub\TPT\Worksheets\Math_03_OA_4_MultiplicationUnknowns\path3813.png"
       inkscape:export-xdpi="90"
       inkscape:export-ydpi="90" />
    <path
       style="fill:#f9f9f9;stroke:#000000;stroke-width:0.35714287;stroke-opacity:1"
       d="M 32.998051,97.72984 C 26.342521,96.76572 18.856581,92.28452 13.830561,86.2559 8.396988,79.7384 4.7556421,71.66539 2.7474331,61.68413 2.0479011,58.2073 1.9243601,56.49435 1.9243601,50.271847 c 0,-6.222508 0.123541,-7.935454 0.823073,-11.412286 C 5.9661291,22.861907 13.836131,10.976129 24.771001,5.5981674 c 4.7827,-2.352219 7.28587,-2.957537 12.14286,-2.936405 7.92774,0.03449 14.62739,3.045081 20.89285,9.3885126 15.05066,15.237958 18.65276,43.750755 8.18215,64.766635 -7.3656,14.78372 -20.00269,22.79438 -32.99081,20.91293 l 0,0 z"
       id="path3809"
       inkscape:connector-curvature="0"
       inkscape:export-filename="C:\Users\jolens\Documents\GitHub\TPT\Worksheets\Math_03_OA_4_MultiplicationUnknowns\path3813.png"
       inkscape:export-xdpi="90"
       inkscape:export-ydpi="90" />
    <path
       style="fill:#ffffff;stroke:#000000;stroke-width:0.35714287;stroke-opacity:1"
       d="m 33.355191,97.39295 c -3.04699,-0.47036 -5.29946,-1.26195 -8.76276,-3.07951 -3.76596,-1.9764 -6.08904,-3.75194 -9.13878,-6.98483 C 11.138255,82.75407 7.6404261,76.64544 5.3026571,69.60087 c -2.32807,-7.01534 -2.571993,-8.609 -2.75425,-17.994745 -0.149709,-7.709611 -0.09257,-8.854778 0.62365,-12.5 C 6.6159041,21.578689 15.439931,9.5571524 28.708281,4.3165014 c 2.33859,-0.923685 2.83059,-0.984202 8.02701,-0.987354 5.13664,-0.0031 5.73944,0.06802 8.36181,0.9867 12.49103,4.375929 22.18584,17.4723166 25.39549,34.3058916 4.5352,23.785741 -5.45779,48.463221 -22.88554,56.515331 -4.41332,2.03908 -9.96439,2.91774 -14.25186,2.25588 l 0,0 z"
       id="path3813"
       inkscape:connector-curvature="0"
       inkscape:export-xdpi="90"
       inkscape:export-ydpi="90" />
    <path
       sodipodi:type="arc"
       style="fill:#ffffff;stroke:#000000;stroke-opacity:1"
       id="path3832"
       sodipodi:cx="342.44171"
       sodipodi:cy="196.2579"
       sodipodi:rx="57.578693"
       sodipodi:ry="79.296974"
       d="m 400.0204,196.2579 a 57.578693,79.296974 0 1 1 -115.15738,0 57.578693,79.296974 0 1 1 115.15738,0 z"
       inkscape:export-filename="C:\Users\jolens\Documents\GitHub\TPT\Worksheets\Math_03_OA_4_MultiplicationUnknowns\Spider.png"
       inkscape:export-xdpi="90"
       inkscape:export-ydpi="90"
       transform="translate(-143.44166,-78.791898)" />
    <path
       sodipodi:type="arc"
       style="fill:#ffffff;stroke:#000000;stroke-opacity:1"
       id="path3834"
       sodipodi:cx="343.95694"
       sodipodi:cy="106.8594"
       sodipodi:rx="27.779194"
       sodipodi:ry="19.1929"
       d="m 371.73613,106.8594 a 27.779194,19.1929 0 1 1 -55.55838,0 27.779194,19.1929 0 1 1 55.55838,0 z"
       inkscape:export-filename="C:\Users\jolens\Documents\GitHub\TPT\Worksheets\Math_03_OA_4_MultiplicationUnknowns\Spider.png"
       inkscape:export-xdpi="90"
       inkscape:export-ydpi="90"
       transform="translate(-143.44166,-78.791898)" />
    <path
       sodipodi:type="arc"
       style="fill:#ffffff;stroke:#000000;stroke-opacity:1"
       id="path3836"
       sodipodi:cx="335.37064"
       sodipodi:cy="85.646194"
       sodipodi:rx="6.0609155"
       sodipodi:ry="6.0609155"
       d="m 341.43155,85.646194 a 6.0609155,6.0609155 0 1 1 -12.12183,0 6.0609155,6.0609155 0 1 1 12.12183,0 z"
       transform="translate(-141.44166,-78.791898)"
       inkscape:export-filename="C:\Users\jolens\Documents\GitHub\TPT\Worksheets\Math_03_OA_4_MultiplicationUnknowns\Spider.png"
       inkscape:export-xdpi="90"
       inkscape:export-ydpi="90" />
    <path
       transform="translate(-125.31982,-78.791896)"
       sodipodi:type="arc"
       style="fill:#ffffff;stroke:#000000;stroke-opacity:1"
       id="path3836-1"
       sodipodi:cx="335.37064"
       sodipodi:cy="85.646194"
       sodipodi:rx="6.0609155"
       sodipodi:ry="6.0609155"
       d="m 341.43155,85.646194 a 6.0609155,6.0609155 0 1 1 -12.12183,0 6.0609155,6.0609155 0 1 1 12.12183,0 z"
       inkscape:export-filename="C:\Users\jolens\Documents\GitHub\TPT\Worksheets\Math_03_OA_4_MultiplicationUnknowns\Spider.png"
       inkscape:export-xdpi="90"
       inkscape:export-ydpi="90" />
    <path
       sodipodi:type="spiral"
       style="fill:none;stroke:#000000;stroke-width:1px;stroke-linecap:butt;stroke-linejoin:miter;stroke-opacity:1"
       id="path3884"
       sodipodi:cx="336.3808"
       sodipodi:cy="172.51932"
       sodipodi:expansion="1"
       sodipodi:revolution="3"
       sodipodi:radius="34.758644"
       sodipodi:argument="-17.89901"
       sodipodi:t0="0"
       d="m 336.3808,172.51932 c 1.01295,1.41813 -1.41186,2.06509 -2.35702,1.68359 -2.56135,-1.03385 -2.42112,-4.51194 -1.01016,-6.39764 2.52388,-3.37306 7.55238,-2.97941 10.43824,-0.33672 4.23512,3.87825 3.56194,10.63685 -0.33671,14.47885 -5.19627,5.12079 -13.7373,4.15525 -18.51946,-1.01014 -6.01786,-6.5001 -4.75422,-16.84547 1.68357,-22.56007 7.79704,-6.92115 19.958,-5.35651 26.60069,2.357 7.82818,9.09011 5.96086,23.07325 -3.03044,30.6413 -10.38081,8.73761 -26.19031,6.56661 -34.68191,-3.70387 -9.64869,-11.66997 -7.17331,-29.30865 4.37731,-38.72252 12.95805,-10.56093 32.42792,-7.78073 42.76313,5.05074 11.47403,14.24536 8.38866,35.54789 -5.72417,46.80374"
       transform="translate(-140.4112,-56.568542)"
       inkscape:export-filename="C:\Users\jolens\Documents\GitHub\TPT\Worksheets\Math_03_OA_4_MultiplicationUnknowns\Spider.png"
       inkscape:export-xdpi="90"
       inkscape:export-ydpi="90" />
    <path
       style="fill:none;stroke:#000000;stroke-width:1px;stroke-linecap:butt;stroke-linejoin:miter;stroke-opacity:1"
       d="m 153.54319,65.443142 c -1.5073,-1.81193 -4.29711,-1.61941 -6.06092,-3.03045 -1.11552,-0.89242 -1.91493,-2.13804 -3.03045,-3.03046 -0.58794,-0.47035 -1.39384,-0.59251 -2.02031,-1.01015 -0.79243,-0.52829 -1.1168,-1.71914 -2.0203,-2.02031 -0.63888,-0.21296 -1.38143,0.21296 -2.02031,0 -0.45175,-0.15058 -0.67343,-0.67343 -1.01015,-1.01015 -0.67344,-0.33672 -1.28986,-0.82754 -2.02031,-1.01015 -1.30665,-0.32667 -2.71989,0.26414 -4.04061,0 -8.50516,-1.70104 -0.0312,-0.0156 -4.04061,-2.02031 -0.20697,-0.10348 -3.72281,-0.0795 -4.04061,0 -1.033,0.25825 -1.99745,0.7519 -3.03046,1.01015 -0.32666,0.0817 -0.77205,-0.23809 -1.01015,0 -0.5324,0.5324 -0.47775,1.48791 -1.01015,2.02031 -0.2381,0.23809 -0.70898,-0.15059 -1.01015,0 -0.30563,0.15281 -3.8878,3.73498 -4.04061,4.04061 -0.15059,0.30117 0.18677,0.72999 0,1.01015 -0.49807,0.7471 -3.62513,3.20964 -4.04061,4.04061 -0.15059,0.30117 0.15058,0.70899 0,1.01015 -0.21296,0.42592 -0.7972,0.58424 -1.01016,1.01016 -0.15058,0.30117 0.15059,0.70898 0,1.01015 -0.21296,0.42592 -0.67343,1.34687 -1.01015,1.01015 -0.33672,-0.33672 1.01015,-1.48634 1.01015,-1.01015 0,0.75292 -0.77205,1.30602 -1.01015,2.0203 -0.10648,0.31944 0,0.67344 0,1.01016"
       id="path3892"
       inkscape:connector-curvature="0"
       inkscape:export-filename="C:\Users\jolens\Documents\GitHub\TPT\Worksheets\Math_03_OA_4_MultiplicationUnknowns\Spider.png"
       inkscape:export-xdpi="90"
       inkscape:export-ydpi="90" />
    <path
       style="fill:none;stroke:#000000;stroke-width:1px;stroke-linecap:butt;stroke-linejoin:miter;stroke-opacity:1"
       d="m 143.44166,86.656352 c -3.09545,-0.95642 -4.09914,-2.07884 -6.06091,-4.04061 -0.33672,-0.33672 -0.58424,-0.7972 -1.01015,-1.01015 -0.30117,-0.15059 -0.70899,0.15058 -1.01016,0 -0.42592,-0.21296 -0.58423,-0.7972 -1.01015,-1.01016 -0.27718,-0.13859 -5.87871,-0.0455 -6.06092,0 -6.80412,1.70103 -0.0156,0.0156 -2.0203,2.02031 -0.47619,0.47619 -1.54412,-0.47619 -2.02031,0 -0.23809,0.23809 0,0.67343 0,1.01015 -0.67343,1.01015 -1.16184,2.17199 -2.0203,3.03046 -1.23035,1.23035 -2.25689,0.47318 -3.03046,2.0203 -0.15058,0.30117 0.10648,0.69072 0,1.01016 -0.19242,0.57727 -2.70985,5.7403 -3.03046,6.06091 -0.23809,0.2381 -0.85956,-0.30117 -1.01015,0 -0.30117,0.60234 0.16333,1.36698 0,2.02031 -0.18261,0.73044 -0.77206,1.30602 -1.01015,2.0203 -0.10648,0.319438 0.15058,0.708978 0,1.010148 -0.21296,0.42592 -0.85957,0.5584 -1.01015,1.01016 -0.17066,0.51197 0,6.24527 0,7.07106"
       id="path3894"
       inkscape:connector-curvature="0"
       inkscape:export-filename="C:\Users\jolens\Documents\GitHub\TPT\Worksheets\Math_03_OA_4_MultiplicationUnknowns\Spider.png"
       inkscape:export-xdpi="90"
       inkscape:export-ydpi="90" />
    <path
       style="fill:none;stroke:#000000;stroke-width:1px;stroke-linecap:butt;stroke-linejoin:miter;stroke-opacity:1"
       d="m 143.44166,131.10306 c -10.06768,0 -1.12569,0.95238 -5.05076,-1.01015 -0.30742,-0.15371 -2.57553,0 -3.03046,0 -0.33671,0 -0.67343,0 -1.01015,0 -0.33672,0 -0.70898,-0.15059 -1.01015,0 -0.42592,0.21296 -0.5584,0.85957 -1.01016,1.01015 -0.63887,0.21296 -1.38142,-0.21296 -2.0203,0 -0.45175,0.15058 -0.61394,0.74601 -1.01015,1.01015 -0.62647,0.41765 -1.39384,0.59251 -2.02031,1.01015 -0.39621,0.26415 -0.67343,0.67344 -1.01015,1.01016 -0.33672,0.33671 -0.79719,0.58423 -1.01015,1.01015 -0.15059,0.30117 0.23809,0.77206 0,1.01015 -0.2381,0.2381 -0.77206,-0.23809 -1.01016,0 -0.23809,0.2381 0.2381,0.77206 0,1.01016 -0.23809,0.23809 -0.70898,-0.15059 -1.01015,0 -0.42592,0.21295 -0.67343,0.67343 -1.01015,1.01015 -0.33672,0.33672 -0.79719,0.58423 -1.01015,1.01015 -0.47619,0.95238 -0.53397,2.07808 -1.01016,3.03046 -0.21295,0.42592 -0.79719,0.58423 -1.01015,1.01015 -0.15058,0.30117 0.2381,0.77206 0,1.01015 -0.23809,0.2381 -0.77206,-0.23809 -1.01015,0 -0.35458,0.35459 0.34887,4.35302 0,5.05077 -0.21296,0.42591 -0.79719,0.58423 -1.01015,1.01015 -0.15059,0.30117 0,0.67343 0,1.01015 0,0.67344 0.16333,1.36698 0,2.02031 -1.16074,4.64294 -1.01016,0.22918 -1.01016,3.03045"
       id="path3896"
       inkscape:connector-curvature="0"
       inkscape:export-filename="C:\Users\jolens\Documents\GitHub\TPT\Worksheets\Math_03_OA_4_MultiplicationUnknowns\Spider.png"
       inkscape:export-xdpi="90"
       inkscape:export-ydpi="90" />
    <path
       style="fill:none;stroke:#000000;stroke-width:1px;stroke-linecap:butt;stroke-linejoin:miter;stroke-opacity:1"
       d="m 153.54319,171.50916 c -1.68359,0.33672 -3.36718,0.67344 -5.05076,1.01015 -1.01016,0 -2.03405,-0.16606 -3.03046,0 -7.33867,1.22312 0.35503,1.01016 -5.05076,1.01016 -0.24005,0 -3.81421,-0.11321 -4.04061,0 -0.42592,0.21296 -0.67344,0.67343 -1.01016,1.01015 -0.33671,0.33672 -0.67343,0.67343 -1.01015,1.01015 -0.67344,0.67344 -1.34687,1.34687 -2.02031,2.02031 -0.33671,0.33671 -0.85956,0.5584 -1.01015,1.01015 -0.21296,0.63888 0.47619,1.54411 0,2.0203 -0.47619,0.47619 -1.54411,-0.47619 -2.0203,0 -0.47619,0.47619 0.21296,1.38143 0,2.02031 -0.30117,0.90351 -1.59439,1.16847 -2.02031,2.0203 -0.15058,0.30117 0.15059,0.70899 0,1.01016 -0.60609,1.21218 -2.42436,1.81827 -3.03046,3.03045 -0.15058,0.30117 0.10648,0.69072 0,1.01016 -2.43898,7.31695 0.29124,-1.59262 -2.0203,3.03046 -0.15059,0.30116 0.23809,0.77205 0,1.01015 -0.2381,0.23809 -0.70898,-0.15059 -1.01015,0 -0.42592,0.21296 -0.67344,0.67343 -1.01016,1.01015"
       id="path3898"
       inkscape:connector-curvature="0"
       inkscape:export-filename="C:\Users\jolens\Documents\GitHub\TPT\Worksheets\Math_03_OA_4_MultiplicationUnknowns\Spider.png"
       inkscape:export-xdpi="90"
       inkscape:export-ydpi="90" />
    <path
       style="fill:none;stroke:#000000;stroke-width:1px;stroke-linecap:butt;stroke-linejoin:miter;stroke-opacity:1"
       d="m 239.40615,57.361922 c 4.48512,-2.24255 7.19957,-3.95692 12.12184,-5.05076 0.98609,-0.21913 2.03404,0.16607 3.03045,0 1.05031,-0.17505 2.00664,-0.71763 3.03046,-1.01015 1.33491,-0.3814 2.75159,-0.49454 4.04061,-1.01015 0.44213,-0.17686 0.58424,-0.7972 1.01015,-1.01016 0.30117,-0.15058 0.70899,0.15059 1.01016,0 0.85183,-0.42591 1.09636,-1.78932 2.0203,-2.0203 0.60322,-0.15081 6.39175,0 7.07107,0 0.51858,0 3.79064,-0.16665 4.04061,0 3.42952,2.28634 0.9012,1.37904 3.03046,4.04061 0.89242,1.11553 2.13803,1.91493 3.03045,3.03046 0.47035,0.58793 0.59251,1.39383 1.01016,2.0203 0.26414,0.39622 0.74601,0.61394 1.01015,1.01015 0.41765,0.62647 0.59251,1.39384 1.01015,2.02031 0.77704,1.16556 2.25342,1.8649 3.03046,3.03046 0.18678,0.28016 -0.2381,0.77205 0,1.01015 0.85846,0.85846 2.30203,1.04906 3.03046,2.0203 0.40406,0.53875 -0.16333,1.36698 0,2.02031 1.21949,4.87797 0.48004,-0.0501 2.0203,3.03046 0.15059,0.30117 0,0.67343 0,1.01015"
       id="path3900"
       inkscape:connector-curvature="0"
       inkscape:export-filename="C:\Users\jolens\Documents\GitHub\TPT\Worksheets\Math_03_OA_4_MultiplicationUnknowns\Spider.png"
       inkscape:export-xdpi="90"
       inkscape:export-ydpi="90" />
    <path
       style="fill:none;stroke:#000000;stroke-width:1px;stroke-linecap:butt;stroke-linejoin:miter;stroke-opacity:1"
       d="m 251.52799,87.666502 c 1.89966,-0.97999 4.10093,0.49 6.06091,0 0.73044,-0.18261 1.28986,-0.82754 2.02031,-1.01015 0.65332,-0.16333 1.38142,0.21296 2.0203,0 0.45175,-0.15059 0.58424,-0.7972 1.01015,-1.01015 0.22641,-0.11321 3.80057,0 4.04061,0 1.01016,0 2.02031,0 3.03046,0 0.33672,0 0.67344,0 1.01015,0 0.33672,0 0.70899,-0.15059 1.01016,0 2.50846,1.25423 -0.43534,0.86221 1.01015,3.03045 0.41765,0.62647 1.39383,0.59251 2.0203,1.01016 0.39622,0.26414 0.74601,0.61393 1.01016,1.01015 0.26827,0.40241 1.9106,3.96748 2.0203,4.04061 0.56033,0.37355 1.41797,-0.30117 2.02031,0 0.60234,0.30117 -0.30117,1.41796 0,2.0203 0.21296,0.42592 0.67343,0.67344 1.01015,1.01016"
       id="path3902"
       inkscape:connector-curvature="0"
       inkscape:export-filename="C:\Users\jolens\Documents\GitHub\TPT\Worksheets\Math_03_OA_4_MultiplicationUnknowns\Spider.png"
       inkscape:export-xdpi="90"
       inkscape:export-ydpi="90" />
    <path
       style="fill:none;stroke:#000000;stroke-width:1px;stroke-linecap:butt;stroke-linejoin:miter;stroke-opacity:1"
       d="m 256.57875,131.10306 c 2.69374,0 5.38748,0 8.08122,0 0.67343,0 1.36698,-0.16333 2.0203,0 4.87797,1.21949 -0.0501,0.48004 3.03046,2.0203 0.30117,0.15059 0.70898,-0.15058 1.01015,0 0.83572,0.41786 3.18825,1.89398 4.04061,3.03046 0.72844,0.97124 1.16184,2.172 2.02031,3.03046 0.85846,0.85846 2.05921,1.29187 3.03046,2.02031 1.33184,0.99888 2.72043,3.16049 4.04061,4.04061 0.62647,0.41764 1.4879,0.47775 2.0203,1.01015 0.5324,0.5324 0.59251,1.39383 1.01015,2.0203 0.26415,0.39622 0.67344,0.67344 1.01016,1.01016"
       id="path3904"
       inkscape:connector-curvature="0"
       inkscape:export-filename="C:\Users\jolens\Documents\GitHub\TPT\Worksheets\Math_03_OA_4_MultiplicationUnknowns\Spider.png"
       inkscape:export-xdpi="90"
       inkscape:export-ydpi="90" />
    <path
       style="fill:none;stroke:#000000;stroke-width:1px;stroke-linecap:butt;stroke-linejoin:miter;stroke-opacity:1"
       d="m 244.45692,173.52947 c 6.33972,-1.38264 12.77156,-1.01016 19.1929,-1.01016 0.58204,0 4.68258,-0.18408 5.05076,0 0.42592,0.21296 0.58423,0.7972 1.01015,1.01016 2.48796,1.24398 -0.9119,-2.93221 3.03046,1.01015 0.23809,0.23809 -0.2381,0.77206 0,1.01015 0.47619,0.47619 1.41797,-0.30117 2.0203,0 0.92462,0.46231 1.77424,2.29225 2.02031,3.03046 0.10648,0.31944 -0.15059,0.70898 0,1.01015 2.10201,4.20401 -0.0697,-1.07989 2.0203,1.01015 0.47619,0.47619 -0.30117,1.41797 0,2.02031 0.21296,0.42592 0.67344,0.67343 1.01016,1.01015"
       id="path3906"
       inkscape:connector-curvature="0"
       inkscape:export-filename="C:\Users\jolens\Documents\GitHub\TPT\Worksheets\Math_03_OA_4_MultiplicationUnknowns\Spider.png"
       inkscape:export-xdpi="90"
       inkscape:export-ydpi="90" />
    <path
       sodipodi:type="arc"
       style="fill:#ffffff;stroke:#000000;stroke-opacity:1"
       id="path4212"
       sodipodi:cx="108.5914"
       sodipodi:cy="212.92542"
       sodipodi:rx="72.225906"
       sodipodi:ry="46.467018"
       d="m 180.81731,212.92542 a 72.225906,46.467018 0 1 1 -144.451816,0 72.225906,46.467018 0 1 1 144.451816,0 z"
       transform="translate(345.66502,-40.67068)"
       inkscape:export-filename="C:\Users\jolens\Documents\GitHub\TPT\Worksheets\Math_03_OA_4_MultiplicationUnknowns\Fish.png"
       inkscape:export-xdpi="90"
       inkscape:export-ydpi="90" />
    <path
       sodipodi:type="arc"
       style="fill:#ffffff;stroke:#000000;stroke-opacity:1"
       id="path4218"
       sodipodi:cx="158.08887"
       sodipodi:cy="395.25797"
       sodipodi:rx="22.728434"
       sodipodi:ry="48.992397"
       d="m 157.54033,444.23609 a 22.728434,48.992397 0 1 1 2.90802,-97.70581 l -2.35948,48.72769 z"
       sodipodi:start="1.594933"
       sodipodi:end="4.8163883"
       transform="matrix(-0.97803505,-0.05116628,-0.03701873,0.7577331,529.59352,-121.57462)"
       inkscape:export-filename="C:\Users\jolens\Documents\GitHub\TPT\Worksheets\Math_03_OA_4_MultiplicationUnknowns\Fish.png"
       inkscape:export-xdpi="90"
       inkscape:export-ydpi="90" />
    <path
       style="fill:none;stroke:#000000;stroke-width:1px;stroke-linecap:butt;stroke-linejoin:miter;stroke-opacity:1"
       d="m 505.26912,181.20469 c 1.34687,0.33672 2.75159,0.49454 4.04061,1.01015 0.44213,0.17686 0.58424,0.7972 1.01015,1.01016 0.30117,0.15058 0.67344,0 1.01016,0 2.0203,0 4.04061,0 6.06091,0 0.33672,0 0.77206,0.23809 1.01015,0 0.2381,-0.2381 -0.23809,-0.77206 0,-1.01016 0.2381,-0.23809 0.77206,0.2381 1.01016,0 0.23809,-0.23809 -0.2381,-0.77205 0,-1.01015 0.47619,-0.47619 1.54411,0.47619 2.0203,0 0,-2.69374 -0.33672,0.33672 1.01015,-1.01015 0.2381,-0.2381 -0.23809,-0.77206 0,-1.01015 0.2381,-0.2381 0.77206,0.23809 1.01016,0 0.23809,-0.2381 -0.2381,-0.77206 0,-1.01016 0.23809,-0.23809 0.77205,0.2381 1.01015,0 0.23809,-0.23809 -0.2381,-0.77205 0,-1.01015 0.23809,-0.23809 0.77206,0.2381 1.01015,0 0.2381,-0.23809 -0.33672,-1.01015 0,-1.01015 0.33672,0 0,0.67343 0,1.01015"
       id="path4256"
       inkscape:connector-curvature="0"
       inkscape:export-filename="C:\Users\jolens\Documents\GitHub\TPT\Worksheets\Math_03_OA_4_MultiplicationUnknowns\Fish.png"
       inkscape:export-xdpi="90"
       inkscape:export-ydpi="90" />
    <path
       sodipodi:type="arc"
       style="fill:#000000;fill-opacity:1;stroke:#000000;stroke-opacity:1"
       id="path4260"
       sodipodi:cx="303.55084"
       sodipodi:cy="387.17673"
       sodipodi:rx="2.5253813"
       sodipodi:ry="3.5355339"
       d="m 303.48989,390.71123 a 2.5253813,3.5355339 0 1 1 0.32312,-7.05093 l -0.26217,3.51643 z"
       sodipodi:start="1.594933"
       sodipodi:end="4.8163883"
       transform="translate(203.23351,-223.64971)"
       inkscape:export-filename="C:\Users\jolens\Documents\GitHub\TPT\Worksheets\Math_03_OA_4_MultiplicationUnknowns\Fish.png"
       inkscape:export-xdpi="90"
       inkscape:export-ydpi="90" />
    <path
       sodipodi:type="arc"
       style="fill:#ffffff;stroke:#000000;stroke-width:2.6905005;stroke-miterlimit:4;stroke-opacity:1;stroke-dasharray:none"
       id="path4218-3"
       sodipodi:cx="158.08887"
       sodipodi:cy="395.25797"
       sodipodi:rx="22.728434"
       sodipodi:ry="48.992397"
       d="m 157.54033,444.23609 a 22.728434,48.992397 0 1 1 2.90802,-97.70581 l -2.35948,48.72769 z"
       sodipodi:start="1.594933"
       sodipodi:end="4.8163883"
       transform="matrix(-0.88172797,0.10148574,2.6557446e-4,0.25386553,585.8242,55.03338)"
       inkscape:export-filename="C:\Users\jolens\Documents\GitHub\TPT\Worksheets\Math_03_OA_4_MultiplicationUnknowns\Fish.png"
       inkscape:export-xdpi="90"
       inkscape:export-ydpi="90" />
    <path
       sodipodi:type="arc"
       style="fill:#ffffff;stroke:#000000;stroke-width:1.33543897;stroke-miterlimit:4;stroke-opacity:1;stroke-dasharray:none"
       id="path4212-1"
       sodipodi:cx="108.5914"
       sodipodi:cy="212.92542"
       sodipodi:rx="72.225906"
       sodipodi:ry="46.467018"
       d="m 180.81731,212.92542 a 72.225906,46.467018 0 1 1 -144.451816,0 72.225906,46.467018 0 1 1 144.451816,0 z"
       transform="matrix(0.49387001,0,0,0.71939169,529.13768,-76.01779)"
       inkscape:export-filename="C:\Users\jolens\Documents\GitHub\TPT\Worksheets\Math_03_OA_4_MultiplicationUnknowns\Fish.png"
       inkscape:export-xdpi="90"
       inkscape:export-ydpi="90" />
    <path
       sodipodi:type="arc"
       style="fill:#ffffff;stroke:#000000;stroke-width:5.41091108;stroke-miterlimit:4;stroke-opacity:1;stroke-dasharray:none"
       id="path4212-1-6"
       sodipodi:cx="108.5914"
       sodipodi:cy="212.92542"
       sodipodi:rx="72.225906"
       sodipodi:ry="46.467018"
       d="m 180.81731,212.92542 a 72.225906,46.467018 0 1 1 -144.451816,0 72.225906,46.467018 0 1 1 144.451816,0 z"
       transform="matrix(0.16844026,0,0,0.24535712,528.93703,81.48475)"
       inkscape:export-filename="C:\Users\jolens\Documents\GitHub\TPT\Worksheets\Math_03_OA_4_MultiplicationUnknowns\Fish.png"
       inkscape:export-xdpi="90"
       inkscape:export-ydpi="90" />
    <path
       sodipodi:type="arc"
       style="fill:#ffffff;stroke:#000000;stroke-width:6.13205671;stroke-miterlimit:4;stroke-opacity:1;stroke-dasharray:none"
       id="path4212-1-6-8"
       sodipodi:cx="108.5914"
       sodipodi:cy="212.92542"
       sodipodi:rx="72.225906"
       sodipodi:ry="46.467018"
       d="m 180.81731,212.92542 a 72.225906,46.467018 0 1 1 -144.451816,0 72.225906,46.467018 0 1 1 144.451816,0 z"
       transform="matrix(0.11295975,0,0,0.16454189,594.01792,-19.74737)"
       inkscape:export-filename="C:\Users\jolens\Documents\GitHub\TPT\Worksheets\Math_03_OA_4_MultiplicationUnknowns\Fish.png"
       inkscape:export-xdpi="90"
       inkscape:export-ydpi="90" />
    <rect
       style="fill:#ffffff;fill-opacity:1;stroke:#000000;stroke-width:2.60335469;stroke-miterlimit:4;stroke-opacity:1;stroke-dasharray:5.20670952, 2.60335476;stroke-dashoffset:0"
       id="rect2985"
       width="50.695095"
       height="50.695095"
       x="400.43173"
       y="20.397594"
       inkscape:export-filename="C:\Users\jolens\Documents\GitHub\TPT\Worksheets\Math_03_OA_4_MultiplicationUnknowns\SquareBW.png"
       inkscape:export-xdpi="90"
       inkscape:export-ydpi="90" />
    <path
       sodipodi:type="arc"
       style="fill:#ffffff;fill-opacity:1;stroke:#000000;stroke-width:1.42072022;stroke-miterlimit:4;stroke-opacity:1;stroke-dasharray:none;stroke-dashoffset:0"
       id="path3824"
       sodipodi:cx="375.27167"
       sodipodi:cy="947.8114"
       sodipodi:rx="259.10413"
       sodipodi:ry="275.26657"
       d="m 634.37579,947.8114 a 259.10413,275.26657 0 1 1 -518.20825,-1e-5"
       transform="matrix(-1.6122082,2.3194536e-8,-2.3194536e-8,-1.6122082,1004.4397,2953.5687)"
       sodipodi:start="0"
       sodipodi:end="3.1415927"
       sodipodi:open="true"
       inkscape:export-filename="C:\Users\jolens\Documents\GitHub\TPT\Worksheets\Math_03_OA_4_MultiplicationUnknowns\RainbowMazeBW.png"
       inkscape:export-xdpi="90"
       inkscape:export-ydpi="90" />
    <path
       sodipodi:type="arc"
       style="fill:#ffffff;fill-opacity:1;stroke:#000000;stroke-width:1.58682454;stroke-miterlimit:4;stroke-opacity:1;stroke-dasharray:none;stroke-dashoffset:0"
       id="path3824-1"
       sodipodi:cx="375.27167"
       sodipodi:cy="947.8114"
       sodipodi:rx="259.10413"
       sodipodi:ry="275.26657"
       d="m 634.37579,947.8114 a 259.10413,275.26657 0 1 1 -518.20825,-1e-5"
       transform="matrix(-1.3902482,-2.6864805e-8,2.6864805e-8,-1.3902482,918.62712,2738.2955)"
       sodipodi:start="0"
       sodipodi:end="3.1415927"
       sodipodi:open="true"
       inkscape:export-filename="C:\Users\jolens\Documents\GitHub\TPT\Worksheets\Math_03_OA_4_MultiplicationUnknowns\RainbowMazeBW.png"
       inkscape:export-xdpi="90"
       inkscape:export-ydpi="90" />
    <path
       sodipodi:type="arc"
       style="fill:#ffffff;fill-opacity:1;stroke:#000000;stroke-width:1.79012322;stroke-miterlimit:4;stroke-opacity:1;stroke-dasharray:none;stroke-dashoffset:0"
       id="path3824-1-7"
       sodipodi:cx="375.27167"
       sodipodi:cy="947.8114"
       sodipodi:rx="259.10413"
       sodipodi:ry="275.26657"
       d="m 634.37579,947.8114 a 259.10413,275.26657 0 1 1 -518.20825,-1e-5"
       transform="matrix(-1.200822,0,0,-1.200822,846.94681,2559.1623)"
       sodipodi:start="0"
       sodipodi:end="3.1415927"
       sodipodi:open="true"
       inkscape:export-filename="C:\Users\jolens\Documents\GitHub\TPT\Worksheets\Math_03_OA_4_MultiplicationUnknowns\RainbowMazeBW.png"
       inkscape:export-xdpi="90"
       inkscape:export-ydpi="90" />
    <path
       sodipodi:type="arc"
       style="fill:#ffffff;fill-opacity:1;stroke:#000000;stroke-width:2.06617522;stroke-miterlimit:4;stroke-opacity:1;stroke-dasharray:none;stroke-dashoffset:0"
       id="path3824-1-7-4"
       sodipodi:cx="375.27167"
       sodipodi:cy="947.8114"
       sodipodi:rx="259.10413"
       sodipodi:ry="275.26657"
       d="m 634.37579,947.8114 a 259.10413,275.26657 0 1 1 -518.20825,-1e-5"
       transform="matrix(-1.0234062,0,0,-1.0234062,776.93486,2392.2531)"
       sodipodi:start="0"
       sodipodi:end="3.1415927"
       sodipodi:open="true"
       inkscape:export-filename="C:\Users\jolens\Documents\GitHub\TPT\Worksheets\Math_03_OA_4_MultiplicationUnknowns\RainbowMazeBW.png"
       inkscape:export-xdpi="90"
       inkscape:export-ydpi="90" />
    <path
       sodipodi:type="arc"
       style="fill:#ffffff;fill-opacity:1;stroke:#000000;stroke-width:2.4041419;stroke-miterlimit:4;stroke-opacity:1;stroke-dasharray:none;stroke-dashoffset:0"
       id="path3824-1-7-4-0"
       sodipodi:cx="375.27167"
       sodipodi:cy="947.8114"
       sodipodi:rx="259.10413"
       sodipodi:ry="275.26657"
       d="m 634.37579,947.8114 a 259.10413,275.26657 0 1 1 -518.20825,-1e-5"
       transform="matrix(-0.8445593,0,0,-0.8445593,705.88662,2223.8834)"
       sodipodi:start="0"
       sodipodi:end="3.1415927"
       sodipodi:open="true"
       inkscape:export-filename="C:\Users\jolens\Documents\GitHub\TPT\Worksheets\Math_03_OA_4_MultiplicationUnknowns\RainbowMazeBW.png"
       inkscape:export-xdpi="90"
       inkscape:export-ydpi="90" />
    <path
       sodipodi:type="arc"
       style="fill:#ffffff;fill-opacity:1;stroke:#000000;stroke-width:2.84759736;stroke-miterlimit:4;stroke-opacity:1;stroke-dasharray:none;stroke-dashoffset:0"
       id="path3824-1-7-4-0-9"
       sodipodi:cx="375.27167"
       sodipodi:cy="947.8114"
       sodipodi:rx="259.10413"
       sodipodi:ry="275.26657"
       d="m 634.37579,947.8114 a 259.10413,275.26657 0 1 1 -518.20825,-1e-5"
       transform="matrix(-0.67781595,0,0,-0.66504061,643.68999,2054.5047)"
       sodipodi:start="0"
       sodipodi:end="3.1415927"
       sodipodi:open="true"
       inkscape:export-filename="C:\Users\jolens\Documents\GitHub\TPT\Worksheets\Math_03_OA_4_MultiplicationUnknowns\RainbowMazeBW.png"
       inkscape:export-xdpi="90"
       inkscape:export-ydpi="90" />
    <path
       sodipodi:type="arc"
       style="fill:#ffffff;fill-opacity:1;stroke:#000000;stroke-width:3.53907204;stroke-miterlimit:4;stroke-opacity:1;stroke-dasharray:none;stroke-dashoffset:0"
       id="path3824-1-7-4-0-9-4"
       sodipodi:cx="375.27167"
       sodipodi:cy="947.8114"
       sodipodi:rx="259.10413"
       sodipodi:ry="275.26657"
       d="m 634.37579,947.8114 a 259.10413,275.26657 0 1 1 -518.20825,-1e-5"
       transform="matrix(-0.49579089,0,0,-0.49579089,577.82657,1894.4219)"
       sodipodi:start="0"
       sodipodi:end="3.1415927"
       sodipodi:open="true"
       inkscape:export-filename="C:\Users\jolens\Documents\GitHub\TPT\Worksheets\Math_03_OA_4_MultiplicationUnknowns\RainbowMazeBW.png"
       inkscape:export-xdpi="90"
       inkscape:export-ydpi="90" />
    <path
       sodipodi:type="arc"
       style="fill:#ffffff;fill-opacity:1;stroke:#000000;stroke-width:4.57448912;stroke-miterlimit:4;stroke-opacity:1;stroke-dasharray:none;stroke-dashoffset:0"
       id="path3824-1-7-4-0-9-4-8"
       sodipodi:cx="375.27167"
       sodipodi:cy="947.8114"
       sodipodi:rx="259.10413"
       sodipodi:ry="275.26657"
       d="m 634.37579,947.8114 a 259.10413,275.26657 0 1 1 -518.20825,-1e-5"
       transform="matrix(-0.31932421,0,0,-0.313697,510.84245,1720.4033)"
       sodipodi:start="0"
       sodipodi:end="3.1415927"
       sodipodi:open="true"
       inkscape:export-filename="C:\Users\jolens\Documents\GitHub\TPT\Worksheets\Math_03_OA_4_MultiplicationUnknowns\RainbowMazeBW.png"
       inkscape:export-xdpi="90"
       inkscape:export-ydpi="90" />
    <rect
       inkscape:export-filename="C:\Users\jolens\Documents\GitHub\TPT\Worksheets\Math_03_OA_4_MultiplicationUnknowns\SquareSolidBW.png"
       inkscape:export-xdpi="90"
       inkscape:export-ydpi="90"
       style="fill:none;stroke:#000000;stroke-width:2;stroke-miterlimit:4;stroke-opacity:1;stroke-dasharray:none;stroke-dashoffset:0"
       id="rect4580"
       width="75.714287"
       height="75.714287"
       x="661.42859"
       y="10.933601" />
    <path
       style="fill:none;stroke:#000000;stroke-width:2;stroke-miterlimit:4;stroke-opacity:1;stroke-dasharray:none;stroke-dashoffset:0"
       id="path4600"
       d="m 315.35809,85.778959 c 3.71478,2.87822 7.07098,6.08763 10.23071,9.56119 4.26455,4.790421 7.31829,10.330981 9.79346,16.200291 2.83803,6.25939 4.27473,12.97105 5.33431,19.72288 1.19232,7.35654 0.38866,14.7422 -1.09259,21.98251 -1.73058,6.92926 -4.37353,13.59311 -7.33634,20.07739 -3.57508,7.52794 -8.22384,14.48331 -12.42776,21.66609 -3.52155,5.93846 -6.2601,12.269 -7.97669,18.95134 -1.46441,5.74144 -1.13594,11.49391 -0.35841,17.28818 0.86496,5.97667 3.95155,11.17166 6.8693,16.33733 3.05976,5.67985 6.49242,9.8648 11.15201,14.26475 4.26875,3.50369 8.7384,6.57626 13.68913,9.01522 3.87298,2.25549 8.29449,3.12221 12.58884,4.21136 2.67007,0.67677 5.40896,0.92713 8.15048,1.06986 0,0 -17.10592,12.23765 -17.10592,12.23765 l 0,0 c -2.79204,-0.26345 -5.56563,-0.6808 -8.26499,-1.46702 -4.36801,-1.21419 -8.81922,-2.26682 -12.7477,-4.6344 -5.00744,-2.62731 -9.50464,-6.01249 -13.84946,-9.62101 -4.56863,-4.35557 -8.51189,-9.17516 -11.50154,-14.76919 -3.04481,-5.37574 -6.21598,-10.83711 -7.19726,-17.03195 -0.92122,-5.9957 -1.44183,-11.96966 -0.0695,-17.96443 1.65711,-6.92441 4.47003,-13.47945 8.06164,-19.62702 4.10052,-7.15821 8.77366,-14.01065 12.36356,-21.44389 3.04072,-6.31965 5.56588,-12.89829 7.49084,-19.64561 1.63133,-6.97684 2.57987,-14.17776 1.46458,-21.3185 -1.03017,-6.57613 -2.46478,-13.12508 -5.1757,-19.23831 -2.39227,-5.64846 -5.35829,-10.97147 -9.51618,-15.54142 -3.1518,-3.38728 -6.58414,-6.441921 -10.48941,-8.948701 0,0 17.92054,-11.33459 17.92054,-11.33459 z"
       inkscape:connector-curvature="0" />
    <path
       sodipodi:type="arc"
       style="fill:none;stroke:#000000;stroke-width:2;stroke-miterlimit:4;stroke-opacity:1;stroke-dasharray:none;stroke-dashoffset:0"
       id="path4590-2"
       sodipodi:cx="160.71428"
       sodipodi:cy="430.21933"
       sodipodi:rx="53.57143"
       sodipodi:ry="53.57143"
       d="m 214.28571,430.21933 a 53.57143,53.57143 0 1 1 -107.14286,0 53.57143,53.57143 0 1 1 107.14286,0 z"
       inkscape:export-filename="C:\Users\jolens\Documents\GitHub\TPT\Worksheets\Math_03_OA_4_MultiplicationUnknowns\CircleBW.png"
       inkscape:export-xdpi="90"
       inkscape:export-ydpi="90"
       transform="translate(526.42858,-273.57144)" />
    <path
       style="fill:none;stroke:#000000;stroke-width:2.79999995;stroke-linecap:butt;stroke-linejoin:miter;stroke-miterlimit:4;stroke-opacity:1;stroke-dasharray:2.8, 8.4;stroke-dashoffset:0"
       d="m 554.28571,108.07646 c 0,0 42.85715,21.42858 20,45.71429 -22.85714,24.28571 -11.42857,40 7.14286,45.71429 18.57143,5.71428 11.42857,34.28571 4.28571,38.57143 -7.14285,4.28571 -7.14285,4.28571 -7.14285,4.28571"
       id="path4717"
       inkscape:connector-curvature="0"
       inkscape:export-filename="C:\Users\jolens\Documents\GitHub\TPT\Worksheets\Math_03_OA_4_MultiplicationUnknowns\DashedCurve1.png"
       inkscape:export-xdpi="90"
       inkscape:export-ydpi="90" />
    <path
       style="fill:none;stroke:#000000;stroke-width:2.79999995;stroke-linecap:butt;stroke-linejoin:miter;stroke-miterlimit:4;stroke-opacity:1;stroke-dasharray:2.8, 8.4;stroke-dashoffset:0"
       d="m 641.24921,245.1503 c 0,0 -45.00974,-16.43297 -25.05248,-43.15286 19.95726,-26.71989 6.82124,-41.03758 -12.27818,-44.61012 -19.09942,-3.57254 -15.24094,-32.76944 -8.62986,-37.83713 6.61107,-5.06768 6.61107,-5.06768 6.61107,-5.06768"
       id="path4717-2"
       inkscape:connector-curvature="0"
       inkscape:export-filename="C:\Users\jolens\Documents\GitHub\TPT\Worksheets\Math_03_OA_4_MultiplicationUnknowns\DashedCurve2.png"
       inkscape:export-xdpi="90"
       inkscape:export-ydpi="90" />
    <path
       style="fill:none;stroke:#000000;stroke-width:2.79999995;stroke-linecap:butt;stroke-linejoin:miter;stroke-miterlimit:4;stroke-opacity:1;stroke-dasharray:2.8, 8.4;stroke-dashoffset:0"
       d="m 2.8571401,247.55536 c 0,0 21.4285799,-42.85714 45.7142899,-20 24.28571,22.85715 40,11.42857 45.714293,-7.14285 5.714277,-18.57143 34.285707,-11.42858 38.571427,-4.28572 4.28571,7.14286 4.28571,7.14286 4.28571,7.14286"
       id="path4717-3"
       inkscape:connector-curvature="0"
       inkscape:export-filename="C:\Users\jolens\Documents\GitHub\TPT\Worksheets\Math_03_OA_4_MultiplicationUnknowns\SidewaysDashedCurve1.png"
       inkscape:export-xdpi="90"
       inkscape:export-ydpi="90" />
    <path
       style="fill:none;stroke:#000000;stroke-width:2.79999995;stroke-linecap:butt;stroke-linejoin:miter;stroke-miterlimit:4;stroke-opacity:1;stroke-dasharray:2.8, 8.4;stroke-dashoffset:0"
       d="m 271.18431,218.74668 c 0,0 -27.52241,39.22292 -48.16652,13.03006 -20.64411,-26.19285 -37.87379,-17.21012 -46.26789,0.31386 -8.3941,17.52399 -35.59749,6.24026 -38.78144,-1.45716 -3.18393,-7.69742 -3.18393,-7.69742 -3.18393,-7.69742"
       id="path4717-2-2"
       inkscape:connector-curvature="0"
       inkscape:export-filename="C:\Users\jolens\Documents\GitHub\TPT\Worksheets\Math_03_OA_4_MultiplicationUnknowns\SidewaysDashedCurve2.png"
       inkscape:export-xdpi="90"
       inkscape:export-ydpi="90" />
    <path
       sodipodi:type="arc"
       style="fill:none;stroke:#000000;stroke-width:2.79999995;stroke-miterlimit:4;stroke-opacity:1;stroke-dasharray:none;stroke-dashoffset:0"
       id="path4831"
       sodipodi:cx="409.28571"
       sodipodi:cy="535.93359"
       sodipodi:rx="282.14285"
       sodipodi:ry="136.42857"
       d="m 690.1279,522.84882 a 282.14285,136.42857 0 1 1 -14.3184,-31.6781"
       sodipodi:start="6.1871283"
       sodipodi:end="12.232074"
       transform="matrix(-0.9141571,0,0,1.0888755,857.98733,-164.34585)"
       sodipodi:open="true"
       inkscape:export-filename="C:\Users\jolens\Documents\GitHub\TPT\Worksheets\Math_03_OA_4_MultiplicationUnknowns\SpeechBubbleBW.png"
       inkscape:export-xdpi="90"
       inkscape:export-ydpi="90" />
    <path
       sodipodi:type="arc"
       style="fill:none;stroke:#000000;stroke-width:2.79999995;stroke-miterlimit:4;stroke-opacity:1;stroke-dasharray:none;stroke-dashoffset:0"
       id="path4839"
       sodipodi:cx="600"
       sodipodi:cy="539.50507"
       sodipodi:rx="60"
       sodipodi:ry="37.142857"
       d="m 554.76406,515.10399 a 60,37.142857 0 0 1 105.22006,23.54654"
       sodipodi:start="3.8583615"
       sodipodi:end="6.2601766"
       transform="matrix(-1.0561267,0.13134838,0.12600709,1.1008947,761.26847,-266.63875)"
       sodipodi:open="true"
       inkscape:export-filename="C:\Users\jolens\Documents\GitHub\TPT\Worksheets\Math_03_OA_4_MultiplicationUnknowns\SpeechBubbleBW.png"
       inkscape:export-xdpi="90"
       inkscape:export-ydpi="90" />
    <path
       sodipodi:type="arc"
       style="fill:none;stroke:#000000;stroke-width:2.79999995;stroke-miterlimit:4;stroke-opacity:1;stroke-dasharray:none;stroke-dashoffset:0"
       id="path4844"
       sodipodi:cx="622.14288"
       sodipodi:cy="530.93359"
       sodipodi:rx="46.42857"
       sodipodi:ry="12.857142"
       d="m 578.92948,526.23231 a 46.42857,12.857142 0 0 1 87.93879,1.25082"
       sodipodi:start="3.5159299"
       sodipodi:end="6.0114856"
       sodipodi:open="true"
       transform="matrix(-1.0817224,0,0,1.949561,853.41464,-615.21049)"
       inkscape:export-filename="C:\Users\jolens\Documents\GitHub\TPT\Worksheets\Math_03_OA_4_MultiplicationUnknowns\SpeechBubbleBW.png"
       inkscape:export-xdpi="90"
       inkscape:export-ydpi="90" />
    <path
       style="fill:#008000;stroke:#008000;stroke-width:1.63357842;stroke-miterlimit:4;stroke-opacity:1;stroke-dasharray:none;stroke-dashoffset:0"
       d="m 73.229792,130.89906 -41.503632,6.59346 5.155477,6.48259 -27.0905081,21.54453 15.3301981,19.27649 27.090513,-21.54454 5.26026,6.61434 15.757692,-38.96687 z"
       inkscape:connector-curvature="0"
       inkscape:export-filename="C:\Users\jolens\Documents\GitHub\TPT\Worksheets\Math_03_OA_4_MultiplicationUnknowns\GreenArrow.png"
       inkscape:export-xdpi="90"
       inkscape:export-ydpi="90" />
  </g>
</svg>
