<?xml version="1.0" encoding="UTF-8" standalone="no"?>
<!-- Created with Inkscape (http://www.inkscape.org/) -->

<svg
   xmlns:dc="http://purl.org/dc/elements/1.1/"
   xmlns:cc="http://creativecommons.org/ns#"
   xmlns:rdf="http://www.w3.org/1999/02/22-rdf-syntax-ns#"
   xmlns:svg="http://www.w3.org/2000/svg"
   xmlns="http://www.w3.org/2000/svg"
   xmlns:sodipodi="http://sodipodi.sourceforge.net/DTD/sodipodi-0.dtd"
   xmlns:inkscape="http://www.inkscape.org/namespaces/inkscape"
   width="444.66061"
   height="449.10315"
   id="svg2944"
   sodipodi:version="0.32"
   inkscape:version="0.48.2 r9819"
   version="1.0"
   sodipodi:docname="DogOutlineBW.eps">
  <defs
     id="defs3" />
  <sodipodi:namedview
     inkscape:document-units="mm"
     id="base"
     pagecolor="#ffffff"
     bordercolor="#666666"
     borderopacity="1.0"
     inkscape:pageopacity="0.0"
     inkscape:pageshadow="2"
     inkscape:zoom="0.98994949"
     inkscape:cx="196.97353"
     inkscape:cy="160.86548"
     inkscape:current-layer="g2926"
     inkscape:window-width="1366"
     inkscape:window-height="706"
     inkscape:window-x="-8"
     inkscape:window-y="-8"
     showgrid="false"
     inkscape:window-maximized="1" />
  <metadata
     id="metadata4">
    <rdf:RDF>
      <cc:Work
         rdf:about="">
        <dc:format>image/svg+xml</dc:format>
        <dc:type
           rdf:resource="http://purl.org/dc/dcmitype/StillImage" />
        <dc:title></dc:title>
      </cc:Work>
    </rdf:RDF>
  </metadata>
  <g
     inkscape:label="Layer 1"
     inkscape:groupmode="layer"
     id="layer1"
     transform="translate(3.759234,-2.740131)">
    <g
       id="g2926"
       transform="matrix(1.587161,0,0,1.5473953,1788.9745,1566.5356)">
      <path
         sodipodi:nodetypes="csscccccccccccccccccccccccccsccccccscccccccccsccccccccccccsscsscccccccccccccsccccccccsccccscccccccccscccccccccccccccccc"
         id="path2799-2"
         d="m -1039.2194,-1018.9301 c -0.4206,0.5522 -0.6431,1.3101 -0.717,2.2222 0,0.024 -0.01,0.046 -0.01,0.07 -0.1967,1.0305 -0.2042,2.3372 0.01,3.9612 0.246,0.5079 0.4984,1.04 0.754,1.5564 1.9386,7.2101 6.9473,16.78917 9.1717,20.56427 0.031,0.01 0.057,0 0.087,0.01 3.2423,10.2327 3.1744,20.5047 -6.9213,28.9768 -1.8221,1.8742 -4.2535,2.8695 -7.0451,3.3171 -3.3542,-0.7894 -12.3399,-0.8896 -18.4247,-1.0163 -2.2813,-0.2604 -4.4941,-0.4688 -6.537,-0.4804 -8.7448,-1.276 -11.7861,2.6047 -11.3685,7.801 -0.1318,1.0112 -0.1649,2.1461 -0.091,3.4157 0.6183,0.9953 1.2707,1.9422 1.9428,2.854 2.4462,5.1155 7.0026,10.1423 12.005,12.2734 9.3237,4.3346 20.6472,12.8789 29.6946,16.4694 12.0589,10.4959 6.7619,35.3162 3.5241,50.5265 -4.9743,19.764 -19.3519,31.5334 -33.7383,42.4752 -19.2674,12.4129 -32.6982,33.2739 -45.9244,52.7428 -14.0652,14.3504 -20.3333,34.8167 -14.4456,55.0958 4.2553,11.9669 -5.9636,19.873 -8.1046,29.424 -0.2121,-0.3592 -0.4442,-0.5282 -0.7372,-0.3803 -4.401,20.7397 16.9557,1.7804 17.0737,-9.2166 4.1743,-6.8003 -2.76,-41.5248 4.7246,-20.8788 5.8712,21.6199 23.0706,34.563 34.8143,51.74581 9.6627,15.41454 22.7584,26.7253 35.0416,39.13356 9.7312,15.90461 20.1214,30.14314 34.1211,41.78901 3.4912,3.65162 8.165,9.85815 13.22209,14.9955 2.1985,2.99035 4.6304,4.94517 7.1143,6.02782 0.016,0.007 0.033,0.0162 0.05,0.0236 6.4258,4.16913 12.8413,4.24137 17.7704,-6.47782 3.4203,-4.54597 4.9657,-8.44541 4.8979,-11.43179 0.2712,-1.24838 0.4693,-2.53588 0.6044,-3.86132 -0.6133,0.0919 -1.2122,0.15079 -1.8151,0.19667 -1.9456,-2.49644 -6.1596,-3.38052 -12.1734,-2.16 -1.7899,-0.78379 -3.5179,-1.76038 -5.1953,-2.88087 -0.017,-0.008 -0.036,-0.0128 -0.05,-0.0236 -11.3025,-8.87425 -19.82399,-22.02157 -27.08579,-35.04793 -8.6251,-19.46219 -19.9734,-37.41178 -25.9359,-58.37804 -9.5722,-20.1388 10.8821,-20.1453 20.933,-10.5716 1.539,1.8009 2.8891,3.8566 4.0998,6.0499 0.9973,7.8042 3.688,14.0904 7.4454,19.45101 0.2562,0.84989 0.5257,1.72337 0.7748,2.55209 0.9548,0.65076 1.891,1.31614 2.8338,1.98834 4.74999,5.32832 10.56909,9.77182 16.65639,14.1201 9.158,5.19994 16.5676,16.72367 26.0296,20.9663 0.033,0.0154 0.067,0.032 0.1015,0.0467 1.039,0.61438 2.1055,0.96701 3.19,1.0989 1.807,0.43771 3.6948,0.58205 5.6875,0.35907 3.3752,-1.46325 5.8528,-4.80015 8.2973,-8.20352 1.3197,-1.51519 2.5203,-3.11383 3.5575,-4.68154 0.4841,-0.56796 0.9733,-1.12142 1.489,-1.62345 9.6237,-5.81398 5.5677,-21.19584 -6.0544,-16.45295 -0.048,0.0233 -0.097,0.0453 -0.1458,0.0679 -2.8902,-0.017 -5.906,0.573 -8.4782,1.83271 -12.8767,-0.34717 -23.3115,-14.88479 -31.092,-25.00826 -4.984,-13.9005 -10.6816,-32.4065 -2.0887,-45.4819 0.4009,-0.5173 0.8387,-1.0219 1.295,-1.5236 0.7322,-0.9239 1.5382,-1.884 2.3752,-2.8629 0,-0.01 0.01,-0.01 0.012,-0.015 0.4399,-0.4205 0.901,-0.8237 1.3832,-1.2265 9.7364,-11.8131 24.2555,-18.9568 35.458,-11.2445 0.014,0.01 0.025,0.029 0.039,0.039 0.4294,0.4727 0.8582,0.9622 1.2732,1.5121 1.6811,1.8763 3.4453,3.6635 5.2481,5.3837 0.1925,0.2936 0.3753,0.6139 0.5636,0.9217 13.2817,14.2736 31.7545,22.5502 42.22217,39.85 13.07251,0.128 24.93471,27.10502 36.8995,12.3074 3.63536,-4.0505 20.49884,-23.0315 8.53461,-25.7343 -16.49178,4.8644 -28.93354,-11.1469 -40.12522,-21.4797 -1.85329,-1.6763 -3.74229,-3.3422 -5.62852,-5.0189 -6.44284,-6.5913 -13.67454,-12.5077 -20.06664,-19.2039 -3.7866,-4.1838 -7.3042,-8.6188 -10.359,-13.4529 -6.9552,-15.5466 8.1865,-40.9677 22.3036,-40.1684 22.22961,16.8655 41.3734,38.4142 63.68949,55.2354 1.23779,0.9571 2.59844,1.7368 4.02897,2.3433 0.0531,0.039 0.10153,0.086 0.15463,0.1253 0.0451,0 0.0914,0.01 0.1366,0.01 14.07254,5.6956 35.51316,-4.8262 33.0488,-23.1742 -0.89682,0.01 -1.84452,0.016 -2.76594,0.029 -2.72457,-0.8816 -7.10025,-0.4377 -11.64889,-0.1961 -5.54241,-0.3941 -11.04481,-1.4199 -15.91805,-3.9873 -0.0186,-0.024 -0.0349,-0.053 -0.0533,-0.079 -4.66737,-3.8984 -9.04264,-8.1793 -13.22871,-12.7091 -10.00444,-11.1577 -18.57605,-23.7954 -28.24862,-35.2395 -0.12129,-0.1579 -0.23585,-0.3244 -0.35717,-0.482 -0.0818,-0.081 -0.16508,-0.1614 -0.24692,-0.2421 -2.46187,-2.8853 -4.9789,-5.7018 -7.63185,-8.3803 -1.35234,-1.1147 -2.65596,-2.2796 -3.89611,-3.5044 -3.38345,-3.7701 -6.59634,-7.7093 -9.40987,-11.9688 -0.0402,-0.065 -0.0808,-0.1314 -0.12081,-0.1974 -2.74515,-4.5394 -5.02405,-9.4826 -6.82005,-14.7527 -0.2938,-0.339 -0.6015,-0.6574 -0.9017,-0.9898 -0.1993,-0.6021 -0.3852,-1.2069 -0.5676,-1.8216 -2.4021,-1.8593 -4.9212,-3.8863 -7.4982,-6.0089 -1.679,-1.4617 -3.3979,-2.8959 -5.1245,-4.3138 -5.522,-4.6922 -11.2099,-9.7267 -16.7363,-14.7784 -0.4914,-0.5211 -0.9729,-1.0427 -1.45,-1.5799 -4.8125,-5.8743 -12.5911,-9.431 -15.3455,-16.9199 -11.3972,-19.5376 16.9148,-24.5638 22.1195,-40.6652 9.5546,-14.6629 -0.6331,-37.9915 -16.0541,-38.5671 -0.03,0 -0.057,-0.01 -0.087,-0.01 -7.7577,-1.5839 -16.8363,-0.1589 -25.0819,-0.06 -3.7624,-0.3335 -6.5891,-0.8332 -8.8985,-1.3732 -3.0868,-2.2647 -6.4052,-3.0176 -9.7535,-3.2394 -1.9811,-0.3565 -4.3259,-0.4303 -7.3844,-0.02 1.0843,-0.058 2.0433,-0.069 2.939,-0.044 -6.4459,0.1292 -12.63269,0.6622 -17.06119,-5.37177 0.6526,0.5079 1.2796,0.9831 1.8898,1.4315 -0.7452,-0.6204 -1.5234,-1.3102 -2.3276,-2.0453 -0.5771,-0.8666 -1.1298,-1.8494 -1.6381,-2.977 -3.8955,-3.388 -16.2388,-13.6841 -23.0219,-14.3796 -1.8203,-0.3751 -3.0146,-0.01 -3.6946,0.8836 z m 30.6823,18.5183 c 2.285,1.90237 3.2125,3.62617 4.7229,3.64317 -1.4838,-0.2686 -2.4172,-1.9488 -4.7229,-3.64317 z m -124.3262,319.97977 c 0.648,0.081 1.2803,0.068 1.8969,-0.037 -0.7994,0.5392 -1.408,0.4719 -1.8969,0.037 z"
         style="fill:#ffffff;fill-opacity:1;stroke:#000000;stroke-width:0.29609656;stroke-miterlimit:4;stroke-opacity:1;stroke-dasharray:none"
         inkscape:connector-curvature="0" />
      <path
         sodipodi:nodetypes="ccccccccccccccccccccccccccccssscccccccccccccc"
         id="path10746-7"
         d="m -859.30298,-683.78783 c -11.47555,14.85035 -24.05623,-12.8831 -36.38189,-12.6384 -12.91454,-18.9007 -33.36154,-28.4844 -48.28324,-45.1382 -12.2573,-16.2436 -31.0827,1.8481 -40.5445,13.7868 -12.7601,14.0313 -3.4414,34.2615 1.2738,49.5651 8.4736,9.12974 17.2528,21.07127 29.6847,22.94611 10.4518,-6.07507 30.2359,0.1459 15.3158,13.78301 -5.2838,8.97334 -17.0537,20.99371 -25.2589,10.27248 -14.2008,-11.19093 -27.4969,-23.97583 -42.29599,-34.06354 -4.5987,-15.29196 -10.0557,-34.78796 -27.3876,-35.76706 -18.3746,2.1447 -1.7271,29.41419 2.0689,40.20036 7.4341,16.19381 15.3698,32.0622 23.9244,47.55576 9.73009,15.02858 22.92689,31.43182 40.40509,28.81403 -2.1119,20.71855 -21.6824,32.79828 -32.8,11.92974 -11.26879,-15.165 -28.47069,-24.57281 -36.63749,-42.28217 -8.2144,-16.19012 -24.8458,-23.42775 -34.263,-38.51646 -12.077,-17.34381 -26.9977,-32.03256 -38.0984,-50.18176 -3.5301,-7.3772 -11.463,-35.235 -9.8034,-10.9506 2.8507,11.7324 -5.0911,40.4057 -17.3385,33.8873 -1.7613,-12.18 13.3619,-20.66 8.3411,-34.7795 -5.8877,-20.2791 0.3814,-40.73 14.4467,-55.0803 13.226,-19.4689 26.6552,-40.3316 45.9224,-52.7444 14.3865,-10.9418 28.7665,-22.7178 33.7408,-42.4819 3.3397,-15.6892 8.8777,-41.606 -4.7084,-51.4772 -14.5357,-9.698 -32.2887,-14.288 -42.4565,-30.6537 -1.3298,-22.9087 32.3923,-1.6326 43.4654,-13.0228 17.6561,-14.8166 4.6214,-35.1713 -3.0996,-51.11007 -2.3148,-17.6995 20.9381,3.2371 26.6691,8.2215 1.8741,4.15657 5.5946,6.58147 9.5703,7.97307 3.97559,1.3919 8.97919,0.7714 11.87349,0.7958 3.3448,0.029 4.8783,0.3293 6.5296,0.8972 1.6512,0.5678 3.4203,1.4025 7.2358,2.4983 14.7161,2.4878 35.5807,-5.8894 45.6698,8.5947 12.9135,12.2369 4.3377,33.1483 -7.0736,43.3423 -13.2888,5.7034 -23.3416,18.0495 -13.5546,28.7177 13.7374,13.4875 32.9785,31.0958 48.0178,42.7363 5.2284,17.6227 17.5642,30.0042 29.58819,41.8603 13.04918,16.9519 25.74154,34.9788 41.84451,48.4288 8.04866,11.3004 39.65086,-6.4695 27.81782,15.6616 -5.97066,13.7995 -19.45446,11.6562 -30.62308,11.7571 -23.28535,-17.2814 -43.61401,-39.286 -66.12224,-57.7608 -14.7366,-5.2163 -30.0511,22.9114 -25.3385,37.8796 8.0256,15.6715 22.8852,25.1968 34.26968,37.6948 12.84854,10.9618 25.89077,29.0765 44.28964,24.2704 7.83196,5.5907 -5.84517,19.5355 -9.89539,24.5787 z"
         style="fill:#ffffff;fill-opacity:1;stroke:#000000;stroke-width:3.55315852;stroke-miterlimit:4;stroke-opacity:1;stroke-dasharray:none"
         inkscape:connector-curvature="0" />
      <path
         sodipodi:nodetypes="ccccccccccccccccccccccccccccccccccccccccccccccccccccccccccccccccccccccccccccccccccccccccccccccccccccccccccccccccccccccccccccccccccccccccccccccccccccccc"
         id="path10748-9"
         d="m -859.04584,-683.10343 c -11.96479,14.7977 -23.83188,-12.1854 -36.90441,-12.3133 -10.46766,-17.3 -28.93076,-25.5875 -42.21246,-39.8611 -11.3756,-18.594 -30.5979,-11.1377 -42.5812,3.4015 -15.4336,12.8899 -8.7323,35.0504 -2.9781,51.0993 9.45,12.29576 22.8216,31.13875 39.7192,23.10913 11.6221,-4.74296 15.6827,10.6505 6.0591,16.46441 -4.6151,4.49324 -7.7434,12.0857 -13.3483,14.5156 -14.24,1.59334 -23.1605,-15.74974 -35.0142,-22.48048 -13.3765,-9.55495 -25.45919,-19.56253 -27.74349,-38.43296 -6.1852,-14.712 -36.2151,-18.7483 -24.9987,4.8494 5.9625,20.96623 17.3098,38.90213 25.935,58.36429 8.1603,14.63857 17.92319,29.43804 31.42129,38.14428 13.9775,-3.23716 18.9056,4.45042 9.4033,17.08046 -10.7923,23.46961 -28.77829,-4.75574 -38.16609,-14.57514 -13.9997,-11.64587 -24.3807,-25.88202 -34.1118,-41.7866 -12.2832,-12.40834 -25.3888,-23.72207 -35.0515,-39.13657 -11.7438,-17.18272 -28.9304,-30.13222 -34.8009,-51.75232 -7.4847,-20.6459 -0.5548,14.081 -4.729,20.8813 -0.1181,10.9969 -21.4837,29.95565 -17.0826,9.216 2.1303,-1.0756 1.3958,14.24282 8.3454,2.5716 13.4951,-12.9956 3.8912,-33.3795 9.5217,-48.5901 1.9548,-12.7194 2.9949,17.799 7.0998,20.4574 7.7352,20.1812 24.5079,33.1262 35.8486,50.53017 10.0835,16.03947 25.5418,25.46451 36.8832,40.08518 5.4156,15.56787 18.6824,23.59191 28.3688,35.39443 7.7449,7.58668 21.61909,27.107 27.47169,22.37656 -13.6683,0.95082 9.8188,-3.8703 -0.016,-8.31178 7.9516,-2.96887 12.1646,-15.49855 -0.668,-12.34441 -18.46709,-13.21501 -31.27229,-34.15025 -40.27129,-56.10831 -9.3222,-17.26045 -20.2858,-36.58814 -20.4951,-57.39444 3.7666,-14.7979 27.0157,-1.2349 32.2793,9.8246 1.722,19.12466 14.55409,27.20488 27.22319,37.17829 12.4659,7.47401 19.3404,22.584 30.9232,15.80401 0.2753,-6.88993 12.3104,-16.86259 12.559,-9.43839 -4.725,-1.39529 -15.8946,17.37867 -13.7333,14.63359 11.6364,-3.07445 31.1813,-31.35764 7.4365,-24.49522 -15.1108,3.67227 -27.1144,-10.55583 -36.6187,-20.68638 -5.6889,-14.0829 -13.9652,-31.8344 -6.7679,-47.2774 6.7896,-15.5262 21.0519,-23.4284 34.4034,-29.8583 -6.0586,-7.3142 -19.7662,-14.7243 -24.26,-19.1988 16.4316,3.5203 25.1644,19.4189 38.2334,29.2639 15.0208,15.8414 34.645,26.054 47.70104,44.1132 10.56379,-3.6058 18.66866,20.4021 26.45677,13.5913 3.01449,-7.6253 0.69837,12.71843 4.6348,-1.3052 3.39566,0.9802 4.08419,-3.3115 6.35197,-5.5096 4.61792,-0.9811 3.64734,-2.9855 4.362,-4.8637 3.30107,-2.4405 4.18187,-2.5602 3.23127,-8.2614 4.47511,-3.6096 -5.03824,-2.4047 -9.72276,-1.4012 -22.00016,-6.9013 -36.4437,-28.0503 -53.78669,-43.1586 -6.5872,-6.1395 -23.8986,-23.8782 -18.4189,-25.607 -1.8461,-15.7867 12.5639,-30.6201 20.1659,-38.9958 11.1221,-3.7956 23.47026,15.005 40.16432,30.2101 11.23933,10.0632 22.26288,21.0755 34.43088,29.4224 9.13011,6.6546 19.4341,1.2913 22.16954,-2.4143 5.8148,3.1913 17.43521,-22.9992 2.00779,-14.7275 -8.20161,-0.024 -11.32285,-2.136 -22.25319,-5.5403 -9.8722,-7.5562 -21.59943,-19.2907 -29.66965,-32.2036 -9.53028,-14.1021 -21.75646,-25.2839 -32.47012,-38.1098 -6.47217,-17.1105 -18.18347,-29.0739 -32.08007,-38.7445 -10.0995,-11.6311 -25.8917,-19.1568 -28.7934,-36.2775 -3.2914,-8.8964 12.54,-14.275 0.1495,-9.6767 -6.0353,2.6104 -5.0416,5.527 -12.7755,7.935 -10.2258,5.9936 -6.175,-2.1579 3.7094,-3.7504 5.2924,-9.2423 29.5305,-9.2398 31.4058,-21.3631 2.1873,-4.2696 8.93,-19.2721 5.7592,-19.143 -6.077,3.9797 -24.1302,3.4022 -19.7241,-10.2738 18.9183,-15.5116 -15.0704,-12.3351 -24.5057,-11.9562 -3.3224,0.096 -10.7711,-7.3507 -22.4698,-5.7821 14.4574,-0.7856 9.7879,6.5959 48.7987,4.7881 16.7323,-1.9288 28.509,23.0607 18.4656,38.4738 -5.2048,16.1014 -33.5179,21.1355 -22.1206,40.6731 2.7544,7.4888 10.5219,11.0448 15.3344,16.919 9.7864,11.0215 22.7599,18.4958 32.2951,29.4912 4.1649,12.2214 10.83596,22.687 20.22729,30.4287 14.47035,14.6095 25.48081,32.9507 39.76972,47.8779 9.46435,14.6676 26.53249,13.53 40.33514,13.4001 2.73388,20.3547 -23.9522,31.0895 -37.36083,20.7213 -22.31608,-16.8212 -41.45932,-38.3805 -63.68892,-55.246 -14.1171,-0.7993 -29.2675,24.6158 -22.3124,40.1624 9.4674,14.9814 23.352,26.1842 36.05483,37.6735 11.19166,10.3328 23.64207,26.3491 40.13384,21.4848 11.96423,2.7028 -4.90903,21.6913 -8.54443,25.742 z m -115.10577,110.76512 c 6.2098,-12.44288 3.0037,-8.6006 -2.0119,0.40309 -9.2356,2.92339 5.2852,0.0554 -2.8257,8.05219 2.9082,-1.31616 3.3594,-5.75808 4.8376,-8.45528 z m 44.4904,-401.90552 c -3.7283,-3.1045 3.3569,5.7253 0,0 z m -15.178,1.8775 c -2.2803,4.4192 3.4401,3.7545 0,0 z m -2.4215,2.4271 c -4.7498,-0.5755 3.2942,2.8006 0,0 z m 3.5847,-7.4218 c 5.5984,-12.8844 -11.2215,7.937 0.596,0.5725 l -0.596,-0.5723 z m 77.08409,296.2148 c 0.77582,-3.767 0.3635,2.4116 0,0 z m -111.61069,98.74456 c -3.3383,-0.36243 4.7882,-0.48395 0,0 z m 39.0385,-63.54117 c -5.9647,-4.53468 8.3178,-5.04275 0,0 z m -3.8763,3.62662 c 1.3635,-3.94633 1.8251,1.90059 0,0 z m 4.1419,-9.00904 c -6.1584,-0.22021 3.6471,-1.40209 0,0 z m -12.7864,6.42481 c 1.739,-3.00953 0.067,1.51652 0,0 z m -73.09559,43.70268 c -0.5556,-2.62503 1.9741,0.9162 0,0 z m 74.48739,-289.71796 c -4.6025,-5.6466 -9.5242,-36.3714 -3.451,-15.1646 1.0622,3.4646 4.9718,14.6548 3.451,15.1646 z m -78.38159,-23.6787 c -9.4098,0.9741 -25.3915,-12.2901 -37.8233,-18.0696 -12.9991,-5.538 -23.0138,-30.6303 -0.7022,-26.0187 5.6862,0.3969 29.3884,-0.047 23.5748,2.6526 -9.571,-0.7303 -14.6806,1.4936 -2.1844,1.53 8.1458,2.5007 -15.8914,1.6595 -20.3462,0.031 -12.8865,-1.5328 -17.0616,-1.9132 -7.8804,11.126 6.3122,10.6681 21.8944,16.3502 28.8728,16.5241 -5.8377,2.3583 5.2767,-1.8041 2.3089,4.7059 1.845,2.3757 21.4953,5.9859 14.18,7.5182 z m -3.2883,-8.0908 c -15.4076,1.9331 -3.8599,-3.3997 1.6558,-0.5394 l -1.6558,0.5394 0,-10e-5 z m 26.7316,-34.222 c -13.1418,4.8124 3.4148,-22.5054 7.65839,-8.793 -1.51,3.8112 -4.43289,6.8158 -7.65839,8.793 z m 2.4669,-7.7337 c -4.1477,-2.0003 -1.7528,8.0737 0,0 z m -31.5092,36.1833 c -11.2515,6.8482 -7.3529,-3.8236 -3.8362,-5.027 -5.6343,-5.0353 6.0505,-8.5542 4.3226,2.0087 -0.01,0.047 1.3141,4.3151 -0.4864,3.0183 z m -3.0332,-1.7094 c -3.5068,1.028 1.8536,0.8723 0,0 z m 34.4268,-66.2968 c -6.9192,-1.2525 -24.6173,-22.94607 -35.8813,-18.98717 4.4963,7.9487 14.3535,27.07297 8.6325,25.63547 -4.3815,-7.4355 -19.5972,-37.43987 -0.7823,-27.35537 10.1105,3.0829 22.3729,20.64327 28.0311,20.70707 z m -8.5733,6.8911 c -6.4043,4.1323 -18.1522,2.341 -4.7237,-0.069 5.4928,-4.8917 16.58109,-3.5413 4.7237,0.069 z"
         style="fill:#000000;fill-opacity:1;stroke:#000000;stroke-width:0;stroke-miterlimit:4;stroke-opacity:1;stroke-dasharray:none"
         inkscape:connector-curvature="0" />
      <path
         id="path2891-5"
         d="m -856.69034,-692.19843 c 1.31018,1.2847 2.00934,2.7889 1.56065,3.3572 -0.44866,0.5684 -1.87617,-0.013 -3.18635,-1.2979 -1.31023,-1.2848 -2.0094,-2.7889 -1.56071,-3.3572 0.44872,-0.5685 1.87617,0.013 3.18641,1.2979 z"
         style="fill:#ffffff;fill-opacity:1;stroke:#000000;stroke-width:2.18045497;stroke-miterlimit:4;stroke-opacity:1;stroke-dasharray:none"
         inkscape:connector-curvature="0" />
      <path
         id="path2904-4"
         d="m -852.47693,-697.66783 c 1.31021,1.2848 2.0094,2.7888 1.56073,3.3571 -0.44872,0.5684 -1.87623,-0.014 -3.1864,-1.2979 -1.31019,-1.2848 -2.0094,-2.7888 -1.56069,-3.3572 0.44867,-0.5685 1.87618,0.013 3.18636,1.298 z"
         style="fill:#ffffff;fill-opacity:1;stroke:#000000;stroke-width:2.18045497;stroke-miterlimit:4;stroke-opacity:1;stroke-dasharray:none"
         inkscape:connector-curvature="0" />
      <path
         id="path2906-3"
         d="m -849.33626,-704.03343 c 1.31021,1.2849 2.0094,2.7889 1.56073,3.3573 -0.44872,0.5684 -1.87622,-0.013 -3.18641,-1.2979 -1.31017,-1.2848 -2.0094,-2.7889 -1.56067,-3.3573 0.44866,-0.5683 1.87617,0.014 3.18635,1.2979 z"
         style="fill:#ffffff;fill-opacity:1;stroke:#000000;stroke-width:2.18045497;stroke-miterlimit:4;stroke-opacity:1;stroke-dasharray:none"
         inkscape:connector-curvature="0" />
      <path
         id="path2908-1"
         d="m -809.04127,-763.19343 c 1.41806,1.1343 2.24545,2.5524 1.84679,3.1651 -0.39866,0.6127 -1.87313,0.1893 -3.29123,-0.9451 -1.41807,-1.1344 -2.24548,-2.5524 -1.84679,-3.1652 0.39868,-0.6128 1.87313,-0.1893 3.29123,0.9452 z"
         style="fill:#ffffff;fill-opacity:1;stroke:#000000;stroke-width:2.18045497;stroke-miterlimit:4;stroke-opacity:1;stroke-dasharray:none"
         inkscape:connector-curvature="0" />
      <path
         id="path2910-2"
         d="m -806.88216,-767.67703 c 1.4914,1.0129 2.41136,2.3563 2.05309,2.9992 -0.35805,0.6428 -1.85909,0.3423 -3.35048,-0.6706 -1.49138,-1.0128 -2.41134,-2.3562 -2.05308,-2.9991 0.35806,-0.6427 1.8591,-0.3423 3.35047,0.6705 z"
         style="fill:#ffffff;fill-opacity:1;stroke:#000000;stroke-width:2.18045497;stroke-miterlimit:4;stroke-opacity:1;stroke-dasharray:none"
         inkscape:connector-curvature="0" />
      <path
         id="path2912-3"
         d="m -805.00806,-772.12653 c 1.5173,0.9648 2.47113,2.278 2.12906,2.9313 -0.34208,0.6532 -1.8511,0.4002 -3.36839,-0.5647 -1.51727,-0.9648 -2.47109,-2.2781 -2.12903,-2.9313 0.34208,-0.6533 1.85109,-0.4003 3.36836,0.5647 z"
         style="fill:#ffffff;fill-opacity:1;stroke:#000000;stroke-width:2.18045497;stroke-miterlimit:4;stroke-opacity:1;stroke-dasharray:none"
         inkscape:connector-curvature="0" />
      <path
         id="path2914-3"
         d="m -979.66061,-569.67735 c 1.3103,1.28482 2.0095,2.78884 1.5607,3.35723 -0.4486,0.5684 -1.8761,-0.0131 -3.1863,-1.29793 -1.3101,-1.28485 -2.0094,-2.78884 -1.5608,-3.35724 0.4488,-0.56842 1.8764,0.0131 3.1864,1.29794 z"
         style="fill:#ffffff;fill-opacity:1;stroke:#000000;stroke-width:2.18045497;stroke-miterlimit:4;stroke-opacity:1;stroke-dasharray:none"
         inkscape:connector-curvature="0" />
      <path
         id="path2916-4"
         d="m -975.44701,-575.14685 c 1.3102,1.28486 2.0094,2.7889 1.5606,3.3573 -0.4486,0.56834 -1.8761,-0.0131 -3.1863,-1.29796 -1.3102,-1.28483 -2.0094,-2.78891 -1.5607,-3.35724 0.4487,-0.5684 1.8762,0.0131 3.1864,1.2979 z"
         style="fill:#ffffff;fill-opacity:1;stroke:#000000;stroke-width:2.18045497;stroke-miterlimit:4;stroke-opacity:1;stroke-dasharray:none"
         inkscape:connector-curvature="0" />
      <path
         id="path2918-1"
         d="m -972.30631,-581.51229 c 1.3101,1.28485 2.0093,2.78889 1.5606,3.35729 -0.4487,0.56835 -1.8761,-0.0131 -3.1863,-1.29796 -1.3103,-1.28482 -2.0094,-2.78887 -1.5608,-3.35725 0.4487,-0.56839 1.8762,0.0131 3.1865,1.29792 z"
         style="fill:#ffffff;fill-opacity:1;stroke:#000000;stroke-width:2.18045497;stroke-miterlimit:4;stroke-opacity:1;stroke-dasharray:none"
         inkscape:connector-curvature="0" />
      <path
         id="path2920-1"
         d="m -940.98931,-645.34831 c 1.418,1.13439 2.2454,2.55242 1.8468,3.16515 -0.3987,0.61273 -1.8732,0.18936 -3.2913,-0.94509 -1.4181,-1.1344 -2.2454,-2.55243 -1.8467,-3.16516 0.3986,-0.61279 1.8731,-0.18936 3.2912,0.9451 z"
         style="fill:#ffffff;fill-opacity:1;stroke:#000000;stroke-width:2.18045497;stroke-miterlimit:4;stroke-opacity:1;stroke-dasharray:none"
         inkscape:connector-curvature="0" />
      <path
         id="path2922-3"
         d="m -938.83021,-649.83179 c 1.4913,1.01279 2.4113,2.35625 2.0531,2.99908 -0.3582,0.64277 -1.8592,0.34233 -3.3505,-0.67047 -1.4914,-1.01286 -2.4113,-2.35619 -2.0531,-2.99915 0.3581,-0.64264 1.8591,-0.34232 3.3505,0.67054 z"
         style="fill:#ffffff;fill-opacity:1;stroke:#000000;stroke-width:2.18045497;stroke-miterlimit:4;stroke-opacity:1;stroke-dasharray:none"
         inkscape:connector-curvature="0" />
      <path
         id="path2924-8"
         d="m -936.95611,-654.2814 c 1.5173,0.96487 2.4711,2.27811 2.129,2.93139 -0.342,0.65322 -1.8511,0.40019 -3.3683,-0.56468 -1.5173,-0.96494 -2.4711,-2.27817 -2.1291,-2.93139 0.342,-0.65322 1.8511,-0.40026 3.3684,0.56468 z"
         style="fill:#ffffff;fill-opacity:1;stroke:#000000;stroke-width:2.18045497;stroke-miterlimit:4;stroke-opacity:1;stroke-dasharray:none"
         inkscape:connector-curvature="0" />
      <path
         sodipodi:type="arc"
         style="fill:#000000;fill-opacity:1;stroke:none"
         id="path3360"
         sodipodi:cx="1143.4927"
         sodipodi:cy="-1104.5115"
         sodipodi:rx="28.284271"
         sodipodi:ry="30.304577"
         d="m 1171.7769,-1104.5115 a 28.284271,30.304577 0 1 1 -56.5685,0 28.284271,30.304577 0 1 1 56.5685,0 z"
         transform="matrix(0.25566507,0,0,0.26223527,-1268.1233,-684.09755)" />
      <path
         sodipodi:type="arc"
         style="fill:#000000;fill-opacity:1;stroke:none"
         id="path3360-6"
         sodipodi:cx="1143.4927"
         sodipodi:cy="-1104.5115"
         sodipodi:rx="28.284271"
         sodipodi:ry="30.304577"
         d="m 1171.7769,-1104.5115 a 28.284271,30.304577 0 1 1 -56.5685,0 28.284271,30.304577 0 1 1 56.5685,0 z"
         transform="matrix(0.25566507,0,0,0.26223527,-1308.495,-635.80086)" />
      <path
         sodipodi:type="arc"
         style="fill:#000000;fill-opacity:1;stroke:none"
         id="path3360-3"
         sodipodi:cx="1143.4927"
         sodipodi:cy="-1104.5115"
         sodipodi:rx="28.284271"
         sodipodi:ry="30.304577"
         d="m 1171.7769,-1104.5115 a 28.284271,30.304577 0 1 1 -56.5685,0 28.284271,30.304577 0 1 1 56.5685,0 z"
         transform="matrix(0.25566507,0,0,0.26223527,-1292.1137,-579.71804)" />
      <path
         sodipodi:type="arc"
         style="fill:#000000;fill-opacity:1;stroke:none"
         id="path3360-61"
         sodipodi:cx="1143.4927"
         sodipodi:cy="-1104.5115"
         sodipodi:rx="28.284271"
         sodipodi:ry="30.304577"
         d="m 1171.7769,-1104.5115 a 28.284271,30.304577 0 1 1 -56.5685,0 28.284271,30.304577 0 1 1 56.5685,0 z"
         transform="matrix(0.25566507,0,0,0.26223527,-1230.7483,-585.43254)" />
      <path
         sodipodi:type="arc"
         style="fill:#000000;fill-opacity:1;stroke:none"
         id="path3360-5"
         sodipodi:cx="1143.4927"
         sodipodi:cy="-1104.5115"
         sodipodi:rx="28.284271"
         sodipodi:ry="30.304577"
         d="m 1171.7769,-1104.5115 a 28.284271,30.304577 0 1 1 -56.5685,0 28.284271,30.304577 0 1 1 56.5685,0 z"
         transform="matrix(0.25566507,0,0,0.26223527,-1183.9575,-536.92764)" />
      <path
         sodipodi:type="arc"
         style="fill:#000000;fill-opacity:1;stroke:none"
         id="path3360-61-4"
         sodipodi:cx="1143.4927"
         sodipodi:cy="-1104.5115"
         sodipodi:rx="28.284271"
         sodipodi:ry="30.304577"
         d="m 1171.7769,-1104.5115 a 28.284271,30.304577 0 1 1 -56.5685,0 28.284271,30.304577 0 1 1 56.5685,0 z"
         transform="matrix(0.25566507,0,0,0.26223527,-1258.41,-541.82859)" />
      <path
         sodipodi:type="arc"
         style="fill:#000000;fill-opacity:1;stroke:none"
         id="path3360-61-2"
         sodipodi:cx="1143.4927"
         sodipodi:cy="-1104.5115"
         sodipodi:rx="28.284271"
         sodipodi:ry="30.304577"
         d="m 1171.7769,-1104.5115 a 28.284271,30.304577 0 1 1 -56.5685,0 28.284271,30.304577 0 1 1 56.5685,0 z"
         transform="matrix(0.25566507,0,0,0.26223527,-1290.361,-475.37633)" />
      <path
         sodipodi:type="arc"
         style="fill:#000000;fill-opacity:1;stroke:none"
         id="path3360-61-0"
         sodipodi:cx="1143.4927"
         sodipodi:cy="-1104.5115"
         sodipodi:rx="28.284271"
         sodipodi:ry="30.304577"
         d="m 1171.7769,-1104.5115 a 28.284271,30.304577 0 1 1 -56.5685,0 28.284271,30.304577 0 1 1 56.5685,0 z"
         transform="matrix(0.25566507,0,0,0.26223527,-1313.0878,-442.45353)" />
      <path
         sodipodi:type="arc"
         style="fill:#000000;fill-opacity:1;stroke:none"
         id="path3360-61-9"
         sodipodi:cx="1143.4927"
         sodipodi:cy="-1104.5115"
         sodipodi:rx="28.284271"
         sodipodi:ry="30.304577"
         d="m 1171.7769,-1104.5115 a 28.284271,30.304577 0 1 1 -56.5685,0 28.284271,30.304577 0 1 1 56.5685,0 z"
         transform="matrix(0.25566507,0,0,0.26223527,-1353.0631,-441.73502)" />
      <path
         sodipodi:type="arc"
         style="fill:#000000;fill-opacity:1;stroke:none"
         id="path3360-61-7"
         sodipodi:cx="1143.4927"
         sodipodi:cy="-1104.5115"
         sodipodi:rx="28.284271"
         sodipodi:ry="30.304577"
         d="m 1171.7769,-1104.5115 a 28.284271,30.304577 0 1 1 -56.5685,0 28.284271,30.304577 0 1 1 56.5685,0 z"
         transform="matrix(0.25566507,0,0,0.26223527,-1390.3357,-439.87165)" />
      <path
         sodipodi:type="arc"
         style="fill:#000000;fill-opacity:1;stroke:none"
         id="path3360-61-3"
         sodipodi:cx="1143.4927"
         sodipodi:cy="-1104.5115"
         sodipodi:rx="28.284271"
         sodipodi:ry="30.304577"
         d="m 1171.7769,-1104.5115 a 28.284271,30.304577 0 1 1 -56.5685,0 28.284271,30.304577 0 1 1 56.5685,0 z"
         transform="matrix(0.25566507,0,0,0.26223527,-1292.6668,-399.83367)" />
      <path
         sodipodi:type="arc"
         style="fill:#000000;fill-opacity:1;stroke:none"
         id="path3360-61-3-7"
         sodipodi:cx="1143.4927"
         sodipodi:cy="-1104.5115"
         sodipodi:rx="28.284271"
         sodipodi:ry="30.304577"
         d="m 1171.7769,-1104.5115 a 28.284271,30.304577 0 1 1 -56.5685,0 28.284271,30.304577 0 1 1 56.5685,0 z"
         transform="matrix(0.25566507,0,0,0.26223527,-1274.8529,-369.36103)" />
      <path
         sodipodi:type="arc"
         style="fill:#000000;fill-opacity:1;stroke:none"
         id="path3360-3-2"
         sodipodi:cx="1143.4927"
         sodipodi:cy="-1104.5115"
         sodipodi:rx="28.284271"
         sodipodi:ry="30.304577"
         d="m 1171.7769,-1104.5115 a 28.284271,30.304577 0 1 1 -56.5685,0 28.284271,30.304577 0 1 1 56.5685,0 z"
         transform="matrix(0.25566507,0,0,0.26223527,-1260.2146,-584.13498)" />
      <path
         style="fill:none;stroke:#000000;stroke-width:6.00000001;stroke-linecap:butt;stroke-linejoin:miter;stroke-opacity:1;stroke-miterlimit:4;stroke-dasharray:none"
         d="m 304.05592,209.697 74.24621,74.24621"
         id="path4341"
         inkscape:connector-curvature="0"
         transform="matrix(0.6300558,0,0,0.64624728,-1129.5223,-1010.5986)" />
      <path
         sodipodi:type="arc"
         style="fill:#000000;fill-opacity:1;stroke:none"
         id="path3360-61-4-6"
         sodipodi:cx="1143.4927"
         sodipodi:cy="-1104.5115"
         sodipodi:rx="28.284271"
         sodipodi:ry="30.304577"
         d="m 1171.7769,-1104.5115 a 28.284271,30.304577 0 1 1 -56.5685,0 28.284271,30.304577 0 1 1 56.5685,0 z"
         transform="matrix(0.25566507,0,0,0.26223527,-1274.8529,-509.06201)" />
      <path
         style="fill:none;stroke:#000000;stroke-width:3.60916138;stroke-linecap:butt;stroke-linejoin:miter;stroke-miterlimit:4;stroke-opacity:1;stroke-dasharray:none"
         d="m -1018.8878,-729.61734 22.67606,45.13439 17.63702,27.5496"
         id="path4361"
         inkscape:connector-curvature="0" />
    </g>
  </g>
</svg>
