<?xml version="1.0" encoding="UTF-8" standalone="no"?>
<!-- Created with Inkscape (http://www.inkscape.org/) -->

<svg
   xmlns:dc="http://purl.org/dc/elements/1.1/"
   xmlns:cc="http://creativecommons.org/ns#"
   xmlns:rdf="http://www.w3.org/1999/02/22-rdf-syntax-ns#"
   xmlns:svg="http://www.w3.org/2000/svg"
   xmlns="http://www.w3.org/2000/svg"
   xmlns:sodipodi="http://sodipodi.sourceforge.net/DTD/sodipodi-0.dtd"
   xmlns:inkscape="http://www.inkscape.org/namespaces/inkscape"
   width="744.09448819"
   height="1052.3622047"
   id="svg3201"
   version="1.1"
   inkscape:version="0.48.2 r9819"
   sodipodi:docname="SquareSolidBW.svg">
  <defs
     id="defs3203" />
  <sodipodi:namedview
     id="base"
     pagecolor="#ffffff"
     bordercolor="#666666"
     borderopacity="1.0"
     inkscape:pageopacity="0.0"
     inkscape:pageshadow="2"
     inkscape:zoom="0.7"
     inkscape:cx="341.51999"
     inkscape:cy="614.1463"
     inkscape:document-units="px"
     inkscape:current-layer="layer1"
     showgrid="false"
     inkscape:window-width="1366"
     inkscape:window-height="706"
     inkscape:window-x="-8"
     inkscape:window-y="-8"
     inkscape:window-maximized="1" />
  <metadata
     id="metadata3206">
    <rdf:RDF>
      <cc:Work
         rdf:about="">
        <dc:format>image/svg+xml</dc:format>
        <dc:type
           rdf:resource="http://purl.org/dc/dcmitype/StillImage" />
        <dc:title></dc:title>
      </cc:Work>
    </rdf:RDF>
  </metadata>
  <g
     inkscape:label="Layer 1"
     inkscape:groupmode="layer"
     id="layer1">
    <path
       sodipodi:type="arc"
       style="fill:#ffffff;stroke:#000000;stroke-width:2;stroke-miterlimit:4;stroke-opacity:1;stroke-dasharray:none"
       id="path4212"
       sodipodi:cx="108.5914"
       sodipodi:cy="212.92542"
       sodipodi:rx="72.225906"
       sodipodi:ry="46.467018"
       d="m 180.81731,212.92542 a 72.225906,46.467018 0 1 1 -144.451816,0 72.225906,46.467018 0 1 1 144.451816,0 z"
       transform="translate(329.76895,-10.061808)"
       inkscape:export-filename="C:\Users\jolens\Documents\GitHub\TPT\Worksheets\Math_03_OA_4_MultiplicationUnknowns\Fish.png"
       inkscape:export-xdpi="90"
       inkscape:export-ydpi="90" />
    <path
       sodipodi:type="arc"
       style="fill:#ffffff;stroke:#000000;stroke-width:2.32027984;stroke-miterlimit:4;stroke-opacity:1;stroke-dasharray:none"
       id="path4218"
       sodipodi:cx="158.08887"
       sodipodi:cy="395.25797"
       sodipodi:rx="22.728434"
       sodipodi:ry="48.992397"
       d="m 157.54033,444.23609 a 22.728434,48.992397 0 1 1 2.90802,-97.70581 l -2.35948,48.72769 z"
       sodipodi:start="1.594933"
       sodipodi:end="4.8163883"
       transform="matrix(-0.97803505,-0.05116628,-0.03701873,0.7577331,513.69745,-90.965749)"
       inkscape:export-filename="C:\Users\jolens\Documents\GitHub\TPT\Worksheets\Math_03_OA_4_MultiplicationUnknowns\Fish.png"
       inkscape:export-xdpi="90"
       inkscape:export-ydpi="90" />
    <path
       style="fill:none;stroke:#000000;stroke-width:1.43950188;stroke-linecap:butt;stroke-linejoin:miter;stroke-miterlimit:4;stroke-opacity:1;stroke-dasharray:none"
       d="m 484.51591,222.43012 c 1.34687,0.17443 2.75159,0.25619 4.04061,0.5233 0.44213,0.0916 0.58424,0.41298 1.01015,0.5233 0.30117,0.078 0.67344,0 1.01016,0 2.0203,0 4.04061,0 6.06091,0 0.33672,0 0.77206,0.12334 1.01015,0 0.2381,-0.12335 -0.23809,-0.39996 0,-0.5233 0.2381,-0.12335 0.77206,0.12334 1.01016,0 0.23809,-0.12335 -0.2381,-0.39996 0,-0.5233 0.47619,-0.24669 1.54411,0.24668 2.0203,0 0,-1.39547 -0.33672,0.17443 1.01015,-0.5233 0.2381,-0.12335 -0.23809,-0.39996 0,-0.5233 0.2381,-0.12335 0.77206,0.12334 1.01016,0 0.23809,-0.12335 -0.2381,-0.39996 0,-0.52331 0.23809,-0.12334 0.77205,0.12335 1.01015,0 0.23809,-0.12334 -0.2381,-0.39995 0,-0.5233 0.23809,-0.12334 0.77206,0.12335 1.01015,0 0.2381,-0.12334 -0.33672,-0.5233 0,-0.5233 0.33672,0 0,0.34887 0,0.5233"
       id="path4256"
       inkscape:connector-curvature="0"
       inkscape:export-filename="C:\Users\jolens\Documents\GitHub\TPT\Worksheets\Math_03_OA_4_MultiplicationUnknowns\Fish.png"
       inkscape:export-xdpi="90"
       inkscape:export-ydpi="90" />
    <path
       sodipodi:type="arc"
       style="fill:#000000;fill-opacity:1;stroke:#000000;stroke-width:2;stroke-miterlimit:4;stroke-opacity:1;stroke-dasharray:none"
       id="path4260"
       sodipodi:cx="303.55084"
       sodipodi:cy="387.17673"
       sodipodi:rx="2.5253813"
       sodipodi:ry="3.5355339"
       d="m 303.48989,390.71123 a 2.5253813,3.5355339 0 1 1 0.0609,0.001 l 0,-3.53553 z"
       sodipodi:start="1.594933"
       sodipodi:end="7.8539816"
       transform="translate(187.33744,-193.04084)"
       inkscape:export-filename="C:\Users\jolens\Documents\GitHub\TPT\Worksheets\Math_03_OA_4_MultiplicationUnknowns\Fish.png"
       inkscape:export-xdpi="90"
       inkscape:export-ydpi="90" />
    <path
       sodipodi:type="arc"
       style="fill:#ffffff;stroke:#000000;stroke-width:4.2270236;stroke-miterlimit:4;stroke-opacity:1;stroke-dasharray:none"
       id="path4218-3"
       sodipodi:cx="158.08887"
       sodipodi:cy="395.25797"
       sodipodi:rx="22.728434"
       sodipodi:ry="48.992397"
       d="m 157.54033,444.23609 a 22.728434,48.992397 0 1 1 2.90802,-97.70581 l -2.35948,48.72769 z"
       sodipodi:start="1.594933"
       sodipodi:end="4.8163883"
       transform="matrix(-0.88172797,0.10148574,2.6557446e-4,0.25386553,569.92813,85.642252)"
       inkscape:export-filename="C:\Users\jolens\Documents\GitHub\TPT\Worksheets\Math_03_OA_4_MultiplicationUnknowns\Fish.png"
       inkscape:export-xdpi="90"
       inkscape:export-ydpi="90" />
    <path
       sodipodi:type="arc"
       style="fill:#ffffff;stroke:#000000;stroke-width:3.3553741;stroke-miterlimit:4;stroke-opacity:1;stroke-dasharray:none"
       id="path4212-1"
       sodipodi:cx="108.5914"
       sodipodi:cy="212.92542"
       sodipodi:rx="72.225906"
       sodipodi:ry="46.467018"
       d="m 180.81731,212.92542 a 72.225906,46.467018 0 1 1 -144.451816,0 72.225906,46.467018 0 1 1 144.451816,0 z"
       transform="matrix(0.49387001,0,0,0.71939169,513.24161,-45.408918)"
       inkscape:export-filename="C:\Users\jolens\Documents\GitHub\TPT\Worksheets\Math_03_OA_4_MultiplicationUnknowns\Fish.png"
       inkscape:export-xdpi="90"
       inkscape:export-ydpi="90" />
    <path
       sodipodi:type="arc"
       style="fill:#ffffff;stroke:#000000;stroke-width:9.83802032;stroke-miterlimit:4;stroke-opacity:1;stroke-dasharray:none"
       id="path4212-1-6"
       sodipodi:cx="108.5914"
       sodipodi:cy="212.92542"
       sodipodi:rx="72.225906"
       sodipodi:ry="46.467018"
       d="m 180.81731,212.92542 a 72.225906,46.467018 0 1 1 -144.451816,0 72.225906,46.467018 0 1 1 144.451816,0 z"
       transform="matrix(0.16844026,0,0,0.24535712,513.04096,112.09362)"
       inkscape:export-filename="C:\Users\jolens\Documents\GitHub\TPT\Worksheets\Math_03_OA_4_MultiplicationUnknowns\Fish.png"
       inkscape:export-xdpi="90"
       inkscape:export-ydpi="90" />
    <path
       sodipodi:type="arc"
       style="fill:#ffffff;stroke:#000000;stroke-width:14.66999245;stroke-miterlimit:4;stroke-opacity:1;stroke-dasharray:none"
       id="path4212-1-6-8"
       sodipodi:cx="108.5914"
       sodipodi:cy="212.92542"
       sodipodi:rx="72.225906"
       sodipodi:ry="46.467018"
       d="m 180.81731,212.92542 a 72.225906,46.467018 0 1 1 -144.451816,0 72.225906,46.467018 0 1 1 144.451816,0 z"
       transform="matrix(0.11295975,0,0,0.16454189,578.12185,10.861502)"
       inkscape:export-filename="C:\Users\jolens\Documents\GitHub\TPT\Worksheets\Math_03_OA_4_MultiplicationUnknowns\Fish.png"
       inkscape:export-xdpi="90"
       inkscape:export-ydpi="90" />
  </g>
</svg>
