<?xml version="1.0" encoding="UTF-8" standalone="no"?>
<!-- Created with Inkscape (http://www.inkscape.org/) -->

<svg
   xmlns:dc="http://purl.org/dc/elements/1.1/"
   xmlns:cc="http://creativecommons.org/ns#"
   xmlns:rdf="http://www.w3.org/1999/02/22-rdf-syntax-ns#"
   xmlns:svg="http://www.w3.org/2000/svg"
   xmlns="http://www.w3.org/2000/svg"
   xmlns:sodipodi="http://sodipodi.sourceforge.net/DTD/sodipodi-0.dtd"
   xmlns:inkscape="http://www.inkscape.org/namespaces/inkscape"
   width="744.09448819"
   height="1052.3622047"
   id="svg2"
   version="1.1"
   inkscape:version="0.48.2 r9819"
   sodipodi:docname="Beach Ball.svg">
  <defs
     id="defs4" />
  <sodipodi:namedview
     id="base"
     pagecolor="#ffffff"
     bordercolor="#666666"
     borderopacity="1.0"
     inkscape:pageopacity="0.0"
     inkscape:pageshadow="2"
     inkscape:zoom="0.1802022"
     inkscape:cx="-1004.0555"
     inkscape:cy="912.5323"
     inkscape:document-units="px"
     inkscape:current-layer="layer1"
     showgrid="false"
     inkscape:window-width="1440"
     inkscape:window-height="850"
     inkscape:window-x="-8"
     inkscape:window-y="232"
     inkscape:window-maximized="1" />
  <metadata
     id="metadata7">
    <rdf:RDF>
      <cc:Work
         rdf:about="">
        <dc:format>image/svg+xml</dc:format>
        <dc:type
           rdf:resource="http://purl.org/dc/dcmitype/StillImage" />
        <dc:title></dc:title>
      </cc:Work>
    </rdf:RDF>
  </metadata>
  <g
     inkscape:label="Layer 1"
     inkscape:groupmode="layer"
     id="layer1">
    <g
       id="g3813"
       transform="translate(1526.0635,344.05796)">
      <path
         d="M -1114.2433,-4.6849805 C -1366.2512,-126.1521 -1431.3172,151.59996 -1420.9344,202.12284 m 307.5729,-206.8769805 c -8.559,-59.6167905 -54.9478,-90.1280105 -84.4824,-98.5606695 m 82.1613,98.4439795 C -1250.8346,20.451139 -1368.02,209.25881 -1281.3278,426.86026 m 166.3411,-430.1750205 c 16.1441,114.7799805 -6.7338,309.8660705 -40.7435,467.3178705 M -1115.916,-3.1288905 C -863.27487,146.46449 -960.24261,430.04816 -993.61648,425.25662 M -1114.9176,-4.1965405 C -961.09044,-35.951971 -858.45729,84.144709 -851.26939,199.89247 M -982.69797,-63.314761 c -90.80183,-15.84617 -131.22113,60.6267105 -131.22113,60.6267105 M -849.45565,178.11381 c 0,158.4834 -128.47617,286.95958 -286.95955,286.95958 -158.4834,0 -286.9596,-128.47618 -286.9596,-286.95958 0,-158.483383 128.4762,-286.95957 286.9596,-286.95957 158.48338,0 286.95955,128.476187 286.95955,286.95957 z"
         style="fill:none;stroke:#000000;stroke-width:5;stroke-linecap:butt;stroke-linejoin:miter;stroke-miterlimit:4;stroke-opacity:1;stroke-dasharray:none"
         id="path3795"
         inkscape:connector-curvature="0" />
      <path
         sodipodi:nodetypes="sscssssccscs"
         inkscape:connector-curvature="0"
         id="path3799"
         d="m -1179.2899,457.97505 c -29.82,-4.69786 -63.385,-9.3874 -86.9103,-26.96694 l -15.5503,-11.62014 -4.5822,-14.73512 c -15.3711,-49.42899 -21.2557,-88.58075 -19.514,-139.53772 1.8233,-53.34465 9.1378,-93.01022 31.0459,-136.08107 12.8112,-25.18651 19.2294,-37.20871 37.9252,-59.616478 28.4149,-34.056573 80.9627,-71.5318178 114.6538,-74.396048 6.2242,-1.1824673 3.9595,4.59089 9.1206,7.5559164 51.8722,29.8003716 5.937,177.3334696 -5.3653,268.1255096 -8.9646,72.01386 -29.9255,189.00632 -33.9514,189.84615 -1.1196,0.23354 -17.6195,-1.1164 -26.872,-2.57406 z"
         style="fill:#00ff00;fill-opacity:1;stroke:#000000;stroke-width:4;stroke-linecap:round;stroke-linejoin:miter;stroke-miterlimit:4;stroke-opacity:1;stroke-dasharray:none" />
      <path
         sodipodi:nodetypes="ssssssssssss"
         inkscape:connector-curvature="0"
         id="path3801"
         d="m -1150.9017,459.31947 c 0,-0.99751 2.2856,-13.06249 5.079,-26.81106 15.4633,-76.10639 27.6766,-160.58041 34.9291,-241.5888 3.5209,-39.32673 4.9749,-137.796786 2.4054,-162.897441 -1.2391,-12.104347 -5.7215,-28.80498928 -5.3984,-29.1280936 0.3231,-0.323104 17.2825,7.6029242 26.3113,13.8874416 49.5383,34.481072 87.3387,76.886722 111.19555,126.288813 12.36017,25.59506 19.75358,48.36641 26.11102,78.62876 6.43425,30.62798 3.53721,95.08931 -2.34723,122.86365 -9.76901,46.10938 -26.07567,73.72301 -40.14119,81.53284 -34.59355,19.20795 -67.16835,30.67972 -102.41955,36.06883 -21.1425,3.2322 -55.725,3.94903 -55.725,1.15506 z"
         style="fill:#ff2a2a;fill-opacity:1;stroke:#000000;stroke-width:4;stroke-linecap:round;stroke-linejoin:miter;stroke-miterlimit:4;stroke-opacity:1;stroke-dasharray:none" />
      <path
         sodipodi:nodetypes="cssscsssssccc"
         inkscape:connector-curvature="0"
         id="path3803"
         d="m -966.9304,400.92141 c 5.2678,-12.43264 13.75205,-39.95934 17.08885,-55.44388 5.55847,-25.79426 5.57639,-97.58301 0.0317,-127.22114 -15.7534,-84.20792 -63.56515,-155.656173 -139.66565,-208.7112653 -8.4297,-5.8770338 -22.7724,-12.441509 -21.6066,-13.1619294 4.5319,-2.8009388 52.4674,-2.5225035 69.7646,-0.2119232 27.3859,3.65824244 40.8284,7.6547034 63.89915,18.9971479 45.05733,22.151857 78.78647,56.623494 100.27821,102.48568 15.34742,32.75051 24.55209,73.61456 21.67472,96.2246 -8.03655,63.15015 -40.2727,126.06913 -87.10893,170.02046 -19.33212,18.14134 -38.29287,36.14374 -35.5056,29.56544 l 5.57475,-3.48422 z"
         style="fill:#ffff00;fill-opacity:1;stroke:#000000;stroke-width:4;stroke-linecap:round;stroke-linejoin:miter;stroke-miterlimit:4;stroke-opacity:1;stroke-dasharray:none" />
      <path
         sodipodi:nodetypes="ssccssssss"
         inkscape:connector-curvature="0"
         id="path3805"
         d="m -861.11729,158.53265 c -1.25975,-5.34239 -2.50269,-13.63992 -12.68641,-37.2989 -21.00147,-48.791 -54.83058,-82.941014 -101.15105,-105.786989 -55.30525,-26.666606 -72.22245,-20.9981726 -131.99645,-22.6657377 l 6.5946,-9.9233063 c 21.9009,-32.955622 57.9397,-49.040215 95.2389,-48.95878 20.29434,0.04431 21.67993,2.197536 33.75876,10.422889 17.78685,12.11235 52.39214,44.635737 66.13535,63.7233716 28.09747,39.0239694 49.80696,87.5357494 54.34478,133.4083824 4.88531,49.3854 1.9823,68.90535 -10.23848,17.07907 z"
         style="fill:#00ff00;fill-opacity:1;stroke:#000000;stroke-width:4;stroke-linecap:round;stroke-linejoin:miter;stroke-miterlimit:4;stroke-opacity:1;stroke-dasharray:none" />
      <path
         sodipodi:nodetypes="ssscssscsss"
         inkscape:connector-curvature="0"
         id="path3807"
         d="m -1119.1581,-24.954807 c -1.2836,-6.559988 -8.6221,-21.407876 -16.125,-32.312947 -9.5459,-13.874486 -21.8206,-27.29367 -35.8092,-37.107884 l -15.5455,-7.930102 14.5572,-3.49149 c 14.2988,-3.42953 77.907,-0.98377 95.8109,2.98551 21.1992,4.699848 48.551,17.313959 65.3679,24.862611 l 19.75946,8.869493 -24.30736,2.60178 c -33.1428,3.547492 -58.5371,16.96988 -83.1829,42.716094 -10.7302,11.209293 -13.5121,34.648885 -20.5255,-1.193065 z"
         style="fill:#ff0000;fill-opacity:1;stroke:#000000;stroke-width:4;stroke-linecap:round;stroke-linejoin:miter;stroke-miterlimit:4;stroke-opacity:1;stroke-dasharray:none" />
      <path
         sodipodi:nodetypes="csssssssssc"
         inkscape:connector-curvature="0"
         id="path3809"
         d="m -1420.4782,143.29427 c 8.834,-66.057757 19.2651,-74.200764 27.0267,-90.875966 27.1652,-58.3625352 77.3268,-106.121552 136.6373,-134.203465 22.7072,-10.751229 58.2675,-21.594059 65.1331,-19.868009 8.0034,2.012095 30.4914,16.682774 40.7579,26.589519 12.8206,12.371395 25.3534,33.035663 30.0236,47.88342 2.0614,6.553685 3.4726,16.508982 2.984,16.997581 -0.4886,0.4886005 -10.9955,-5.146489 -21.0673,-9.100514 -88.5866,-34.777636 -164.1772,-21.694951 -218.2366,37.770804 -19.5446,21.499317 -30.4896,40.377985 -46.7949,82.32368 -9.0137,23.18799 -16.3855,43.72608 -16.4638,42.48295 z"
         style="fill:#ffff00;fill-opacity:1;stroke:#000000;stroke-width:4;stroke-linecap:round;stroke-linejoin:miter;stroke-miterlimit:4;stroke-opacity:1;stroke-dasharray:none" />
      <path
         sodipodi:nodetypes="csscsssssssssc"
         inkscape:connector-curvature="0"
         id="path3811"
         d="m -1307.5501,407.9277 c -28.5352,-22.00118 -56.6288,-52.05159 -74.4081,-81.75479 -10.8453,-18.11886 -24.1658,-49.75257 -30.5536,-73.46047 -4.8286,-17.92096 -8.0595,-28.66861 -8.0747,-57.20369 -0.019,-36.62038 2.3144,-60.46506 15.6108,-94.89376 15.7878,-40.879711 35.1465,-72.058397 62.1552,-97.1529625 19.0044,-17.6575335 35.6587,-23.7589505 59.6004,-32.3129565 17.8417,-6.374549 21.1127,-7.046623 53.6956,-6.878845 27.6777,0.142519 38.4863,2.851307 52.3251,6.629668 34.7928,9.499344 70.9984,23.411329 56.6818,23.411329 -5.401,0 -40.5009,16.231896 -55.3798,24.842324 -89.9798,52.071299 -141.3723,167.155133 -131.0432,287.770073 3.1837,37.1761 9.7101,84.10108 20.4686,112.13722 1.8795,4.89797 -8.1548,-1.16905 -21.0781,-11.13314 z"
         style="fill:#0000ff;fill-opacity:1;stroke:#000000;stroke-width:4;stroke-linecap:round;stroke-linejoin:miter;stroke-miterlimit:4;stroke-opacity:1;stroke-dasharray:none" />
    </g>
  </g>
</svg>
