<?xml version="1.0" encoding="UTF-8" standalone="no"?>
<!-- Created with Inkscape (http://www.inkscape.org/) -->
<svg xmlns:dc="http://purl.org/dc/elements/1.1/" xmlns:cc="http://web.resource.org/cc/" xmlns:rdf="http://www.w3.org/1999/02/22-rdf-syntax-ns#" xmlns:svg="http://www.w3.org/2000/svg" xmlns="http://www.w3.org/2000/svg" xmlns:sodipodi="http://sodipodi.sourceforge.net/DTD/sodipodi-0.dtd" xmlns:inkscape="http://www.inkscape.org/namespaces/inkscape" width="651.25" height="482.63229" id="svg2" sodipodi:version="0.32" inkscape:version="0.45" version="1.0" sodipodi:docname="pot_of_gold.svg" inkscape:output_extension="org.inkscape.output.svg.inkscape" sodipodi:docbase="E:\Trish\Work\pictures" sodipodi:modified="true">
  <defs id="defs4"/>
  <sodipodi:namedview id="base" pagecolor="#ffffff" bordercolor="#666666" borderopacity="1.0" gridtolerance="10000" guidetolerance="10" objecttolerance="10" inkscape:pageopacity="0.0" inkscape:pageshadow="2" inkscape:zoom="0.70710678" inkscape:cx="659.10738" inkscape:cy="330.60964" inkscape:document-units="px" inkscape:current-layer="layer1" width="990px" height="765px" inkscape:window-width="1280" inkscape:window-height="978" inkscape:window-x="0" inkscape:window-y="17"/>
  <metadata id="metadata7">
    <rdf:RDF>
      <cc:Work rdf:about="">
        <dc:format>image/svg+xml</dc:format>
        <dc:type rdf:resource="http://purl.org/dc/dcmitype/StillImage"/>
      </cc:Work>
    </rdf:RDF>
  </metadata>
  <g inkscape:label="Layer 1" inkscape:groupmode="layer" id="layer1" transform="translate(-169.375,-141.18386)">
    <g id="g2209" transform="translate(10.59375,-0.6911405)">
      <path id="path2170" d="M 481.34375,141.875 C 329.90557,141.875 207,173.24281 207,211.875 C 207,221.10016 214.01812,229.9015 226.75,237.96875 C 184.15493,278.3251 158.78125,328.93738 158.78125,383.875 C 158.78125,439.56997 184.86869,490.84416 228.53125,531.46875 C 221.86614,550.94589 195.2091,613.61534 204.25,622.65625 C 213.97709,632.38334 285.86878,600.7791 299.15625,597.21875 C 303.2463,596.12283 313.7285,594.50721 326.03125,592.46875 C 372.92477,611.65951 426.9212,622.59375 484.40625,622.59375 C 542.46841,622.59375 596.99937,611.42552 644.21875,591.875 C 658.06516,594.20089 670.08808,596.01983 674.5625,597.21875 C 687.84995,600.7791 759.74166,632.38334 769.46875,622.65625 C 779.16911,612.95589 747.76628,541.44636 744.0625,527.875 C 785.44969,487.83758 810.03124,437.94694 810.03125,383.875 C 810.03125,327.83698 783.64936,276.30526 739.5,235.5625 C 749.9642,228.1564 755.6875,220.19736 755.6875,211.875 C 755.6875,173.24281 632.78192,141.87501 481.34375,141.875 z " style="fill:#000000;fill-opacity:1;stroke:none;stroke-width:5;stroke-linecap:square;stroke-linejoin:miter;stroke-miterlimit:4;stroke-dasharray:none;stroke-opacity:1"/>
      <path id="path2178" d="M 269.20565,423.28967 C 269.20565,430.25973 248.38843,435.91658 222.73863,435.91658 C 197.08884,435.91658 176.27161,430.25973 176.27161,423.28967 C 176.27161,416.31962 197.08884,410.66277 222.73863,410.66277 C 248.38843,410.66277 269.20565,416.31962 269.20565,423.28967 z " style="fill:#b3b3b3;fill-opacity:1;stroke:none;stroke-width:5;stroke-linecap:square;stroke-linejoin:miter;stroke-miterlimit:4;stroke-opacity:1" transform="matrix(5.0208696,0,0,3.2147059,-637.00384,-1154.4862)"/>
    </g>
  </g>
</svg>