<?xml version="1.0" encoding="UTF-8"?>
<!DOCTYPE svg PUBLIC "-//W3C//DTD SVG 1.1//EN" "http://www.w3.org/Graphics/SVG/1.1/DTD/svg11.dtd">
<svg version="1.1" id="Calque_1" xmlns="http://www.w3.org/2000/svg" xmlns:xlink="http://www.w3.org/1999/xlink" x="0px" y="0px" width="243px" height="148px" viewBox="0 0 243 148" enable-background="new 0 0 243 148" xml:space="preserve">
<g id="XMLID_2_">
	<g>
		<path fill="#DF8106" d="M13.113,75.885c-0.675,14.187,2.57,42.779,14.236,50.917s13.66-0.613,19.246-5.089    c1.88-1.511,3.87-3.08,5.269-5.181c0,0-1.57,0.284,0.854-1.509c1.902-4.1,1.536-10.107-4.832-20.425    c0,0,2.758-12.137-4.693-17.326c-2.21-0.442-2.02-1.122-2.02-1.122S13.788,61.698,13.113,75.885z"/>
		<path fill="#DF8106" d="M41.173,76.15c0,0-0.19,0.68,2.02,1.122C42.589,76.842,41.918,76.473,41.173,76.15z"/>
		<path fill="#FFFFFF" d="M57.258,77.181c-8.019,0.702-12.047,0.496-14.066,0.092c7.451,5.189,4.693,17.326,4.693,17.326    c6.368,10.317,6.734,16.325,4.832,20.425c1.487-1.099,4.475-2.986,10.267-6.198c-0.225-1.919-0.427-4.001-0.627-6.271    C60.864,85.523,58.859,80.916,57.258,77.181z"/>
		<path fill="#DF8106" d="M52.717,115.023c-2.424,1.793-0.854,1.509-0.854,1.509C52.18,116.06,52.47,115.557,52.717,115.023z"/>
		<path fill="#DF8106" d="M57.258,77.181c1.601,3.735,3.606,8.343,5.099,25.374c0.201,2.27,0.403,4.352,0.627,6.271    c2.93,25.716,7.848,21.279,20.351,24.327c13.432,3.272,23.922-11.395,29.508-15.871c5.586-4.47,5.586-4.47,5.586-4.47    s-9.223-45.312-14.494-54.093s-3.285-10.58-8.496-13.992c0,0-41.046-7.326-40.866,15.431    C54.658,71.06,55.786,73.753,57.258,77.181z"/>
		<path fill="#FFFFFF" d="M113.1,31.664c0,0,0.539,15.823-17.66,13.063c5.211,3.412,3.224,5.211,8.496,13.992    s14.494,54.093,14.494,54.093s13.932-7.242,20.23-6.943c-1.251-2.046-1.188-4.583-0.272-7.38    c-4.34-2.732-7.071-8.207-6.732-18.033c0.672-19.561,18.646-16.46,28.218-11.952c0.072-0.168,0.13-0.331,0.181-0.479    c1.859-5.917-4.342-8.421-4.342-8.421c-25.802-8.811-32.243-12.912-40.034-21.813c-1.688-1.924-2.464-3.999-2.535-6.125    L113.1,31.664z"/>
		<path fill="#DF8106" d="M129.88,11.607c-8.121,4.069-17.018,12.376-16.737,20.059c0.071,2.127,0.848,4.201,2.535,6.125    c7.791,8.9,14.232,13.002,40.034,21.813c0,0,6.201,2.504,4.342,8.421c-0.051,0.148-0.108,0.311-0.181,0.479    c2.063,0.966,3.742,2.008,4.762,2.896c5.767,5.016,9.007,3.255,9.007,3.255l4.01,15.378c-9.021-2.954-0.81,3.749-15.236,8.121    c-8.466,2.567-17.87,4.215-24.027,0.335c-0.915,2.797-0.979,5.334,0.272,7.38l7.889,0.376c13.789,2.241,33.397-4.731,33.397-4.731    c1.635-1.186,1.635-1.186,1.635-1.186l22.322-10.94c0,0-11.135,1.681-14.741-2.286c-3.6-3.959-12.598-20.816-11.57-28.989    c1.02-8.166,6.074-21.513,14.87-27.099c0,0-29.229-3.285-33.684-9.186C154.317,15.933,140.235,6.411,129.88,11.607z"/>
		<path fill="#DF8106" d="M159.873,68.503c-9.571-4.508-27.546-7.609-28.218,11.952c-0.338,9.826,2.393,15.301,6.732,18.033    C141.847,87.905,157.532,73.672,159.873,68.503z"/>
		<path fill="#DF8106" d="M138.388,98.488c6.157,3.88,15.562,2.232,24.027-0.335c14.427-4.372,6.216-11.075,15.236-8.121    l-4.01-15.378c0,0-3.24,1.761-9.007-3.255c-1.02-0.888-2.699-1.929-4.762-2.896C157.532,73.672,141.847,87.905,138.388,98.488z"/>
		<path fill="#DF8106" d="M146.549,106.244c0,0-1.815,18.1,5.759,24.924c7.581,6.817,26.664,10.745,28.98-4.626    c2.31-15.372-2.977-23.838-1.342-25.029C179.946,101.513,160.338,108.485,146.549,106.244z"/>
		<path fill="#DF8106" d="M233.657,60.377c0.169-7.927-5.743-17.857-27.219-24.273c0,0-21.181,19.216-5.392,40.348    c0,0,5.579,8.954,12.59,7.709c1.533-0.271,2.786-0.664,3.888-1.2l0.007,0.001c3.938-1.922,5.996-5.691,12.242-12.568    C231.825,68.131,233.574,64.534,233.657,60.377z M233.613,60.396c-0.719,0.325-6.567,2.931-9.65,3.795L233.613,60.396z     M202.459,50.535c0.188-3.951,2.945-7.026,6.152-6.874s5.653,3.476,5.465,7.427c-0.188,3.944-2.938,7.02-6.145,6.868    C204.725,57.803,202.271,54.479,202.459,50.535z"/>
		<path fill="#FFFFFF" d="M202.837,52.088c-0.073,1.546,1.069,2.856,2.544,2.926c0.737,0.035,1.403-0.242,1.913-0.706    c-2.066-0.148-3.652-1.795-3.561-3.713c0.008-0.179,0.031-0.357,0.075-0.527C203.247,50.551,202.876,51.272,202.837,52.088z"/>
		<path fill="#1B171B" d="M203.809,50.069c0.494-0.436,1.145-0.685,1.839-0.652c1.481,0.071,2.624,1.38,2.551,2.927    c-0.037,0.78-0.379,1.474-0.904,1.965c0.036,0.009,0.079,0.011,0.114,0.013c2.126,0.101,3.92-1.406,4.013-3.36    c0.093-1.961-1.549-3.632-3.675-3.733C205.82,47.137,204.162,48.371,203.809,50.069z"/>
		<path fill="#1B171B" d="M205.647,49.417c-0.694-0.033-1.345,0.216-1.839,0.652c-0.044,0.17-0.067,0.348-0.075,0.527    c-0.092,1.918,1.494,3.565,3.561,3.713c0.525-0.491,0.867-1.185,0.904-1.965C208.271,50.797,207.129,49.488,205.647,49.417z"/>
		<path fill="#FFFFFF" d="M205.381,55.015c-1.475-0.07-2.617-1.38-2.544-2.926c0.039-0.816,0.41-1.537,0.972-2.02    c0.354-1.698,2.012-2.932,3.938-2.84c2.126,0.101,3.768,1.772,3.675,3.733c-0.093,1.954-1.887,3.461-4.013,3.36    c-0.035-0.001-0.078-0.003-0.114-0.013C206.784,54.773,206.118,55.05,205.381,55.015z M208.611,43.661    c-3.207-0.152-5.964,2.923-6.152,6.874c-0.188,3.944,2.266,7.268,5.473,7.42c3.206,0.152,5.957-2.924,6.145-6.868    C214.265,47.137,211.818,43.813,208.611,43.661z"/>
		<path fill="#FFFFFF" d="M213.637,84.161c-7.011,1.245-12.59-7.709-12.59-7.709c-15.789-21.132,5.392-40.348,5.392-40.348    l-13.977-5.091c-8.796,5.586-13.851,18.934-14.87,27.099c-1.027,8.173,7.971,25.03,11.57,28.989    c3.606,3.967,14.741,2.286,14.741,2.286l13.621-6.426C216.423,83.497,215.17,83.89,213.637,84.161z"/>
		<path fill="#FFFFFF" d="M233.613,60.396l-9.65,3.795C227.046,63.327,232.895,60.721,233.613,60.396z"/>
	</g>
	<g>
		<path fill="none" stroke="#000000" d="M138.388,98.488c-0.915,2.797-0.979,5.334,0.272,7.38l7.889,0.376    c0,0-1.815,18.1,5.759,24.924c7.581,6.817,26.664,10.745,28.98-4.626c2.31-15.372-2.977-23.838-1.342-25.029    c1.635-1.186,1.635-1.186,1.635-1.186l22.322-10.94c0,0-11.135,1.681-14.741-2.286c-3.6-3.959-12.598-20.816-11.57-28.989    c1.02-8.166,6.074-21.513,14.87-27.099c0,0-29.229-3.285-33.684-9.186c-4.461-5.894-18.543-15.417-28.898-10.22    c-8.121,4.069-17.018,12.376-16.737,20.059c0.071,2.127,0.848,4.201,2.535,6.125c7.791,8.9,14.232,13.002,40.034,21.813    c0,0,6.201,2.504,4.342,8.421c-0.051,0.148-0.108,0.311-0.181,0.479"/>
		<path fill="none" stroke="#000000" d="M217.531,82.962c3.938-1.922,5.996-5.691,12.242-12.568    c2.052-2.263,3.801-5.86,3.884-10.017c0.169-7.927-5.743-17.857-27.219-24.273c0,0-21.181,19.216-5.392,40.348    c0,0,5.579,8.954,12.59,7.709c1.533-0.271,2.786-0.664,3.888-1.2"/>
		<path fill="none" stroke="#000000" d="M95.44,44.727c0,0-41.046-7.326-40.866,15.431c0.084,10.902,1.211,13.595,2.684,17.022    c1.601,3.735,3.606,8.343,5.099,25.374c0.201,2.27,0.403,4.352,0.627,6.271c2.93,25.716,7.848,21.279,20.351,24.327    c13.432,3.272,23.922-11.395,29.508-15.871c5.586-4.47,5.586-4.47,5.586-4.47s-9.223-45.312-14.494-54.093    S100.651,48.139,95.44,44.727z"/>
		<path fill="none" stroke="#000000" d="M41.173,76.15c0,0-27.385-14.453-28.06-0.266c-0.675,14.187,2.57,42.779,14.236,50.917    s13.66-0.613,19.246-5.089c1.88-1.511,3.87-3.08,5.269-5.181c0.316-0.473,0.606-0.976,0.854-1.509    c1.902-4.1,1.536-10.107-4.832-20.425c0,0,2.758-12.137-4.693-17.326C42.589,76.842,41.918,76.473,41.173,76.15z"/>
		<path fill="none" stroke="#000000" d="M202.459,50.535c-0.188,3.944,2.266,7.268,5.473,7.42c3.206,0.152,5.957-2.924,6.145-6.868    c0.188-3.951-2.258-7.274-5.465-7.427S202.647,46.584,202.459,50.535z"/>
		<path fill="none" stroke="#000000" d="M173.642,74.654c0,0-3.24,1.761-9.007-3.255c-1.02-0.888-2.699-1.929-4.762-2.896    c-9.571-4.508-27.546-7.609-28.218,11.952c-0.338,9.826,2.393,15.301,6.732,18.033c6.157,3.88,15.562,2.232,24.027-0.335    c14.427-4.372,6.216-11.075,15.236-8.121"/>
		<path fill="none" stroke="#000000" d="M203.809,50.069c-0.044,0.17-0.067,0.348-0.075,0.527c-0.092,1.918,1.494,3.565,3.561,3.713    c0.036,0.009,0.079,0.011,0.114,0.013c2.126,0.101,3.92-1.406,4.013-3.36c0.093-1.961-1.549-3.632-3.675-3.733    C205.82,47.137,204.162,48.371,203.809,50.069z"/>
		<line fill="none" stroke="#000000" x1="206.438" y1="36.104" x2="192.462" y2="31.013"/>
		<path fill="none" stroke="#000000" d="M113.1,31.664c0,0,0.539,15.823-17.66,13.063"/>
		<polyline fill="none" stroke="#000000" points="217.531,82.962 217.524,82.961 203.903,89.387   "/>
		<path fill="none" stroke="#000000" d="M118.43,112.812c0,0,13.932-7.242,20.23-6.943"/>
		<path fill="none" stroke="#000000" d="M41.173,76.15c0,0-0.19,0.68,2.02,1.122c2.019,0.404,6.047,0.61,14.066-0.092    c0.605-0.057,1.232-0.113,1.888-0.175"/>
		<path fill="none" stroke="#000000" d="M51.864,116.532c0,0-1.57,0.284,0.854-1.509c1.487-1.099,4.475-2.986,10.267-6.198    c0.626-0.35,1.275-0.714,1.967-1.09"/>
		<path fill="none" stroke="#000000" stroke-width="2" d="M233.613,60.396c-0.719,0.325-6.567,2.931-9.65,3.795"/>
		<polyline fill="none" stroke="#000000" stroke-width="2" points="233.613,60.396 233.657,60.377 233.687,60.364   "/>
		<path fill="none" stroke="#000000" stroke-width="2" d="M179.946,101.513c0,0-19.608,6.973-33.397,4.731"/>
	</g>
</g>
<link xmlns="" rel="stylesheet" href="resource://abduction/browser.css"/><abduction-overlay xmlns=""/></svg>