<?xml version="1.0" encoding="UTF-8" standalone="no"?>
<!-- Created with Inkscape (http://www.inkscape.org/) -->
<svg xmlns:dc="http://purl.org/dc/elements/1.1/" xmlns:cc="http://creativecommons.org/ns#" xmlns:rdf="http://www.w3.org/1999/02/22-rdf-syntax-ns#" xmlns:svg="http://www.w3.org/2000/svg" xmlns="http://www.w3.org/2000/svg" xmlns:sodipodi="http://sodipodi.sourceforge.net/DTD/sodipodi-0.dtd" xmlns:inkscape="http://www.inkscape.org/namespaces/inkscape" width="1019.9532" height="580.68286" id="svg2" version="1.1" inkscape:version="0.47 r22583" sodipodi:docname="dalmation.svg">
  <defs id="defs4">
    <inkscape:perspective sodipodi:type="inkscape:persp3d" inkscape:vp_x="0 : 526.18109 : 1" inkscape:vp_y="0 : 1000 : 0" inkscape:vp_z="744.09448 : 526.18109 : 1" inkscape:persp3d-origin="372.04724 : 350.78739 : 1" id="perspective10"/>
    <inkscape:perspective id="perspective3605" inkscape:persp3d-origin="0.5 : 0.33333333 : 1" inkscape:vp_z="1 : 0.5 : 1" inkscape:vp_y="0 : 1000 : 0" inkscape:vp_x="0 : 0.5 : 1" sodipodi:type="inkscape:persp3d"/>
    <inkscape:perspective id="perspective3605-5" inkscape:persp3d-origin="0.5 : 0.33333333 : 1" inkscape:vp_z="1 : 0.5 : 1" inkscape:vp_y="0 : 1000 : 0" inkscape:vp_x="0 : 0.5 : 1" sodipodi:type="inkscape:persp3d"/>
    <inkscape:perspective id="perspective3605-9" inkscape:persp3d-origin="0.5 : 0.33333333 : 1" inkscape:vp_z="1 : 0.5 : 1" inkscape:vp_y="0 : 1000 : 0" inkscape:vp_x="0 : 0.5 : 1" sodipodi:type="inkscape:persp3d"/>
    <inkscape:perspective id="perspective3655" inkscape:persp3d-origin="0.5 : 0.33333333 : 1" inkscape:vp_z="1 : 0.5 : 1" inkscape:vp_y="0 : 1000 : 0" inkscape:vp_x="0 : 0.5 : 1" sodipodi:type="inkscape:persp3d"/>
    <inkscape:perspective id="perspective3682" inkscape:persp3d-origin="0.5 : 0.33333333 : 1" inkscape:vp_z="1 : 0.5 : 1" inkscape:vp_y="0 : 1000 : 0" inkscape:vp_x="0 : 0.5 : 1" sodipodi:type="inkscape:persp3d"/>
    <inkscape:perspective id="perspective3718" inkscape:persp3d-origin="0.5 : 0.33333333 : 1" inkscape:vp_z="1 : 0.5 : 1" inkscape:vp_y="0 : 1000 : 0" inkscape:vp_x="0 : 0.5 : 1" sodipodi:type="inkscape:persp3d"/>
    <inkscape:perspective id="perspective3740" inkscape:persp3d-origin="0.5 : 0.33333333 : 1" inkscape:vp_z="1 : 0.5 : 1" inkscape:vp_y="0 : 1000 : 0" inkscape:vp_x="0 : 0.5 : 1" sodipodi:type="inkscape:persp3d"/>
    <inkscape:perspective id="perspective3762" inkscape:persp3d-origin="0.5 : 0.33333333 : 1" inkscape:vp_z="1 : 0.5 : 1" inkscape:vp_y="0 : 1000 : 0" inkscape:vp_x="0 : 0.5 : 1" sodipodi:type="inkscape:persp3d"/>
    <inkscape:perspective id="perspective3784" inkscape:persp3d-origin="0.5 : 0.33333333 : 1" inkscape:vp_z="1 : 0.5 : 1" inkscape:vp_y="0 : 1000 : 0" inkscape:vp_x="0 : 0.5 : 1" sodipodi:type="inkscape:persp3d"/>
    <inkscape:perspective id="perspective3808" inkscape:persp3d-origin="0.5 : 0.33333333 : 1" inkscape:vp_z="1 : 0.5 : 1" inkscape:vp_y="0 : 1000 : 0" inkscape:vp_x="0 : 0.5 : 1" sodipodi:type="inkscape:persp3d"/>
    <inkscape:perspective id="perspective3830" inkscape:persp3d-origin="0.5 : 0.33333333 : 1" inkscape:vp_z="1 : 0.5 : 1" inkscape:vp_y="0 : 1000 : 0" inkscape:vp_x="0 : 0.5 : 1" sodipodi:type="inkscape:persp3d"/>
    <inkscape:perspective id="perspective3864" inkscape:persp3d-origin="0.5 : 0.33333333 : 1" inkscape:vp_z="1 : 0.5 : 1" inkscape:vp_y="0 : 1000 : 0" inkscape:vp_x="0 : 0.5 : 1" sodipodi:type="inkscape:persp3d"/>
    <inkscape:perspective id="perspective3893" inkscape:persp3d-origin="0.5 : 0.33333333 : 1" inkscape:vp_z="1 : 0.5 : 1" inkscape:vp_y="0 : 1000 : 0" inkscape:vp_x="0 : 0.5 : 1" sodipodi:type="inkscape:persp3d"/>
    <inkscape:perspective id="perspective3936" inkscape:persp3d-origin="0.5 : 0.33333333 : 1" inkscape:vp_z="1 : 0.5 : 1" inkscape:vp_y="0 : 1000 : 0" inkscape:vp_x="0 : 0.5 : 1" sodipodi:type="inkscape:persp3d"/>
    <inkscape:perspective id="perspective3961" inkscape:persp3d-origin="0.5 : 0.33333333 : 1" inkscape:vp_z="1 : 0.5 : 1" inkscape:vp_y="0 : 1000 : 0" inkscape:vp_x="0 : 0.5 : 1" sodipodi:type="inkscape:persp3d"/>
    <inkscape:perspective id="perspective3984" inkscape:persp3d-origin="0.5 : 0.33333333 : 1" inkscape:vp_z="1 : 0.5 : 1" inkscape:vp_y="0 : 1000 : 0" inkscape:vp_x="0 : 0.5 : 1" sodipodi:type="inkscape:persp3d"/>
    <filter inkscape:collect="always" id="filter4018" color-interpolation-filters="sRGB">
      <feGaussianBlur inkscape:collect="always" stdDeviation="7.7247066" id="feGaussianBlur4020"/>
    </filter>
    <inkscape:perspective id="perspective4033" inkscape:persp3d-origin="0.5 : 0.33333333 : 1" inkscape:vp_z="1 : 0.5 : 1" inkscape:vp_y="0 : 1000 : 0" inkscape:vp_x="0 : 0.5 : 1" sodipodi:type="inkscape:persp3d"/>
    <inkscape:perspective id="perspective4055" inkscape:persp3d-origin="0.5 : 0.33333333 : 1" inkscape:vp_z="1 : 0.5 : 1" inkscape:vp_y="0 : 1000 : 0" inkscape:vp_x="0 : 0.5 : 1" sodipodi:type="inkscape:persp3d"/>
    <filter inkscape:collect="always" id="filter4101" x="-0.1632988" width="1.3265976" y="-0.056584921" height="1.1131698" color-interpolation-filters="sRGB">
      <feGaussianBlur inkscape:collect="always" stdDeviation="10.415904" id="feGaussianBlur4103"/>
    </filter>
    <inkscape:perspective id="perspective4119" inkscape:persp3d-origin="0.5 : 0.33333333 : 1" inkscape:vp_z="1 : 0.5 : 1" inkscape:vp_y="0 : 1000 : 0" inkscape:vp_x="0 : 0.5 : 1" sodipodi:type="inkscape:persp3d"/>
    <inkscape:perspective id="perspective4161" inkscape:persp3d-origin="0.5 : 0.33333333 : 1" inkscape:vp_z="1 : 0.5 : 1" inkscape:vp_y="0 : 1000 : 0" inkscape:vp_x="0 : 0.5 : 1" sodipodi:type="inkscape:persp3d"/>
    <inkscape:perspective id="perspective4184" inkscape:persp3d-origin="0.5 : 0.33333333 : 1" inkscape:vp_z="1 : 0.5 : 1" inkscape:vp_y="0 : 1000 : 0" inkscape:vp_x="0 : 0.5 : 1" sodipodi:type="inkscape:persp3d"/>
    <inkscape:perspective id="perspective4206" inkscape:persp3d-origin="0.5 : 0.33333333 : 1" inkscape:vp_z="1 : 0.5 : 1" inkscape:vp_y="0 : 1000 : 0" inkscape:vp_x="0 : 0.5 : 1" sodipodi:type="inkscape:persp3d"/>
    <inkscape:perspective id="perspective4228" inkscape:persp3d-origin="0.5 : 0.33333333 : 1" inkscape:vp_z="1 : 0.5 : 1" inkscape:vp_y="0 : 1000 : 0" inkscape:vp_x="0 : 0.5 : 1" sodipodi:type="inkscape:persp3d"/>
    <inkscape:perspective id="perspective4228-8" inkscape:persp3d-origin="0.5 : 0.33333333 : 1" inkscape:vp_z="1 : 0.5 : 1" inkscape:vp_y="0 : 1000 : 0" inkscape:vp_x="0 : 0.5 : 1" sodipodi:type="inkscape:persp3d"/>
    <inkscape:perspective id="perspective4259" inkscape:persp3d-origin="0.5 : 0.33333333 : 1" inkscape:vp_z="1 : 0.5 : 1" inkscape:vp_y="0 : 1000 : 0" inkscape:vp_x="0 : 0.5 : 1" sodipodi:type="inkscape:persp3d"/>
    <inkscape:perspective id="perspective4281" inkscape:persp3d-origin="0.5 : 0.33333333 : 1" inkscape:vp_z="1 : 0.5 : 1" inkscape:vp_y="0 : 1000 : 0" inkscape:vp_x="0 : 0.5 : 1" sodipodi:type="inkscape:persp3d"/>
    <inkscape:perspective id="perspective4309" inkscape:persp3d-origin="0.5 : 0.33333333 : 1" inkscape:vp_z="1 : 0.5 : 1" inkscape:vp_y="0 : 1000 : 0" inkscape:vp_x="0 : 0.5 : 1" sodipodi:type="inkscape:persp3d"/>
    <inkscape:perspective id="perspective4309-6" inkscape:persp3d-origin="0.5 : 0.33333333 : 1" inkscape:vp_z="1 : 0.5 : 1" inkscape:vp_y="0 : 1000 : 0" inkscape:vp_x="0 : 0.5 : 1" sodipodi:type="inkscape:persp3d"/>
    <inkscape:perspective id="perspective4309-3" inkscape:persp3d-origin="0.5 : 0.33333333 : 1" inkscape:vp_z="1 : 0.5 : 1" inkscape:vp_y="0 : 1000 : 0" inkscape:vp_x="0 : 0.5 : 1" sodipodi:type="inkscape:persp3d"/>
    <inkscape:perspective id="perspective4309-38" inkscape:persp3d-origin="0.5 : 0.33333333 : 1" inkscape:vp_z="1 : 0.5 : 1" inkscape:vp_y="0 : 1000 : 0" inkscape:vp_x="0 : 0.5 : 1" sodipodi:type="inkscape:persp3d"/>
    <inkscape:perspective id="perspective3783" inkscape:persp3d-origin="0.5 : 0.33333333 : 1" inkscape:vp_z="1 : 0.5 : 1" inkscape:vp_y="0 : 1000 : 0" inkscape:vp_x="0 : 0.5 : 1" sodipodi:type="inkscape:persp3d"/>
    <filter inkscape:collect="always" id="filter3821" color-interpolation-filters="sRGB">
      <feGaussianBlur inkscape:collect="always" stdDeviation="4.8123861" id="feGaussianBlur3823"/>
    </filter>
    <inkscape:perspective id="perspective3835" inkscape:persp3d-origin="0.5 : 0.33333333 : 1" inkscape:vp_z="1 : 0.5 : 1" inkscape:vp_y="0 : 1000 : 0" inkscape:vp_x="0 : 0.5 : 1" sodipodi:type="inkscape:persp3d"/>
    <inkscape:perspective id="perspective3874" inkscape:persp3d-origin="0.5 : 0.33333333 : 1" inkscape:vp_z="1 : 0.5 : 1" inkscape:vp_y="0 : 1000 : 0" inkscape:vp_x="0 : 0.5 : 1" sodipodi:type="inkscape:persp3d"/>
    <inkscape:perspective id="perspective3922" inkscape:persp3d-origin="0.5 : 0.33333333 : 1" inkscape:vp_z="1 : 0.5 : 1" inkscape:vp_y="0 : 1000 : 0" inkscape:vp_x="0 : 0.5 : 1" sodipodi:type="inkscape:persp3d"/>
    <inkscape:perspective id="perspective3922-2" inkscape:persp3d-origin="0.5 : 0.33333333 : 1" inkscape:vp_z="1 : 0.5 : 1" inkscape:vp_y="0 : 1000 : 0" inkscape:vp_x="0 : 0.5 : 1" sodipodi:type="inkscape:persp3d"/>
    <inkscape:perspective id="perspective3953" inkscape:persp3d-origin="0.5 : 0.33333333 : 1" inkscape:vp_z="1 : 0.5 : 1" inkscape:vp_y="0 : 1000 : 0" inkscape:vp_x="0 : 0.5 : 1" sodipodi:type="inkscape:persp3d"/>
    <inkscape:perspective id="perspective3978" inkscape:persp3d-origin="0.5 : 0.33333333 : 1" inkscape:vp_z="1 : 0.5 : 1" inkscape:vp_y="0 : 1000 : 0" inkscape:vp_x="0 : 0.5 : 1" sodipodi:type="inkscape:persp3d"/>
    <inkscape:perspective id="perspective4000" inkscape:persp3d-origin="0.5 : 0.33333333 : 1" inkscape:vp_z="1 : 0.5 : 1" inkscape:vp_y="0 : 1000 : 0" inkscape:vp_x="0 : 0.5 : 1" sodipodi:type="inkscape:persp3d"/>
  </defs>
  <sodipodi:namedview id="base" pagecolor="#ffffff" bordercolor="#666666" borderopacity="1.0" inkscape:pageopacity="0.0" inkscape:pageshadow="2" inkscape:zoom="0.24748737" inkscape:cx="725.27388" inkscape:cy="106.35962" inkscape:document-units="px" inkscape:current-layer="layer1" showgrid="false" inkscape:window-width="1022" inkscape:window-height="692" inkscape:window-x="0" inkscape:window-y="26" inkscape:window-maximized="1"/>
  <metadata id="metadata7">
    <rdf:RDF>
      <cc:Work rdf:about="">
        <dc:format>image/svg+xml</dc:format>
        <dc:type rdf:resource="http://purl.org/dc/dcmitype/StillImage"/>
        <dc:title/>
      </cc:Work>
    </rdf:RDF>
  </metadata>
  <g inkscape:label="Layer 1" inkscape:groupmode="layer" id="layer1" transform="translate(1412.3288,20.283301)">
    <g id="g4014" transform="translate(-1244.5079,-294.96454)">
      <path sodipodi:nodetypes="ccccccc" id="rect3669-9" d="m 144.75598,556.90724 c 2.46251,73.15155 1.30991,145.4072 -1.83064,217.15241 -8.36458,-3.6793 -46.89161,-8.54985 -55.25619,3.03046 -9.677463,19.98456 -5.323783,31.43832 1.01015,43.41723 l 70.5625,-2.0204 c -8.37192,-10.97284 6.4654,-44.29032 14.14213,-47.46315 6.14378,-77.24589 28.63033,-136.64854 25.2233,-208.05165" style="fill:#ffffff;fill-opacity:1;fill-rule:evenodd;stroke:#000000;stroke-width:7.19999981;stroke-miterlimit:4;stroke-opacity:1"/>
      <g id="g4105">
        <path style="fill:#ffffff;fill-opacity:1;fill-rule:evenodd;stroke:#000000;stroke-width:7.20069981;stroke-miterlimit:4;stroke-opacity:1;stroke-dasharray:none" d="m 426.6554,384.32891 c -5.54091,0.0306 -10.96338,0.9375 -15.5,0.9375 -18.1465,0 -73.3142,43.98769 -55.70089,145.70089 17.61331,101.71321 51.45367,115.53233 68.6398,174.11192 7.67608,29.60171 -4.92204,58.12499 2.90484,73.37469 -10.24183,-3.3266 -46.50972,-6.07662 -53.96875,4.25 -9.67746,19.98456 -5.33393,31.42738 1,43.40625 l 72.5625,-2 c -5.66718,-7.42785 -0.68281,-25.06328 5.5,-36.6875 l 0.1875,-0.0312 c 13.89663,-28.18776 17.72719,-85.38434 7.30775,-120.82344 -15.6745,-83.10014 37.87249,-104.35892 45.00533,-186.77074 7.13283,-82.41182 -61.31536,-95.55998 -77.93808,-95.46832 l 0,-5e-5 z" id="path3595-4-0-3-4" sodipodi:nodetypes="cszcccccccczcc"/>
      </g>
      <path sodipodi:nodetypes="cszcccccccczccc" id="path3595-4-0-3-4-8" d="m 428.40897,384.98435 c -5.5409,0.0306 -10.9633,0.9375 -15.5,0.9375 -18.1465,0 -73.3142,43.98769 -55.7009,145.70089 17.6133,101.71321 51.4537,115.53233 68.6399,174.11192 7.676,29.60171 -4.9221,58.12502 2.9048,73.37472 -10.2418,-3.3266 -46.5098,-6.0767 -53.9688,4.25 -9.6775,19.9845 -5.3339,31.4273 1,43.4062 l 72.5625,-2 c -5.6671,-7.4278 -0.6828,-25.0633 5.5,-36.6875 l 0.1875,-0.031 c 13.8967,-28.1877 17.7272,-85.38432 7.3078,-120.82342 -15.6745,-83.10014 37.8725,-104.35892 45.0053,-186.77074 7.1329,-82.41182 -61.3153,-95.55998 -77.9381,-95.46832 l 0,-5e-5 0,-2e-4 z" style="opacity:0.08695655;fill:#000000;fill-opacity:1;fill-rule:evenodd;stroke:#000000;stroke-width:7.20069981;stroke-miterlimit:4;stroke-opacity:1;stroke-dasharray:none;filter:url(#filter4101)"/>
      <path sodipodi:nodetypes="ccc" id="rect3853" d="m 574.41925,409.73203 c 79.27466,40.42146 185.54283,-79.43164 274.11297,-75.13818 -87.52441,2.90752 -186.12746,124.79693 -273.88261,101.40114" style="fill:#f2f2f2;fill-opacity:1;fill-rule:evenodd;stroke:#000000;stroke-width:7.19999981;stroke-miterlimit:4;stroke-opacity:1"/>
      <path sodipodi:nodetypes="ccccccc" id="rect3669-9-8" d="m 142.84514,558.41927 c 2.46251,73.15155 1.30991,145.4072 -1.83064,217.15241 -8.36458,-3.6793 -46.891609,-8.54985 -55.256189,3.03046 -9.677463,19.98456 -5.323783,31.43832 1.01015,43.41723 l 70.562499,-2.0204 c -8.37192,-10.97284 6.4654,-44.29032 14.14213,-47.46315 6.14378,-77.24589 28.63033,-136.64854 25.2233,-208.05165" style="opacity:0.13043476;fill:#000000;fill-opacity:1;fill-rule:evenodd;stroke:#000000;stroke-width:7.19999981;stroke-miterlimit:4;stroke-opacity:1;filter:url(#filter3821)"/>
      <path sodipodi:nodetypes="ccsssccsscsccccccccccczssc" id="path2816" d="m 21.875,278.28125 c -37.000002,0.0146 -53.27589,12.34375 -74,37.53125 -73.76728,4.03584 -112.43197,-23.06016 -112.09375,20.09375 0.35614,45.4438 64.99429,81.77812 144.34375,81.15625 21.0510819,-0.16498 41.02082,-2.88784 59,-7.6875 0.02229,-0.006 0.04024,-0.0256 0.0625,-0.0312 3.448476,0.065 6.827693,-0.0795 10.15625,-0.375 11.244594,57.10543 35.663943,117.98064 57.71875,136.34375 36.19631,30.1375 89.4056,60.7272 179.65625,52.375 57.04782,-5.27945 119.72517,-34.43748 170.5625,-69.1875 0.13583,0.83369 0.26052,1.65842 0.40625,2.5 17.61331,101.71321 51.43887,115.54541 68.625,174.125 7.67608,29.60171 -4.92063,58.1253 2.90625,73.375 -10.24183,-3.3266 -46.50972,-6.07662 -53.96875,4.25 -9.67746,19.98456 -5.33393,31.42738 1,43.40625 l 72.5625,-2 c -5.66718,-7.42785 -0.68281,-25.06328 5.5,-36.6875 l 0.1875,-0.0312 c 13.89663,-28.18776 17.73194,-85.3734 7.3125,-120.8125 -15.6745,-83.10014 37.86716,-104.36943 45,-186.78125 -2.45202,-81.67192 -45.45163,-99.21188 -114.62495,-98.96875 -44.5286,2.44977 -72.32725,-3.08691 -133.21875,6.14732 C 300.91613,386.8401 232.00535,422.8894 193.09365,420.12135 154.18196,417.35331 130.0852,370.98959 128.25,338.0625 126.4148,305.13541 79.917407,281.47679 34.0625,278.6875 29.763603,278.426 25.702586,278.27974 21.875,278.28125 z" style="fill:#ffffff;fill-opacity:1;fill-rule:evenodd;stroke:#000000;stroke-width:7.19999981;stroke-miterlimit:4;stroke-opacity:1"/>
      <path sodipodi:nodetypes="ccscc" id="path2987" d="m 390.69043,530.62193 c -0.0319,8.08921 -22.42322,11.6933 -29.13077,8.5934 0.97387,13.97574 -32.00617,14.24393 -33.95667,5.53338 -1.9505,-8.71056 25.38271,-17.63596 33.83875,-10.68281 10.60865,-15.83272 27.29819,-12.15453 29.24869,-3.44397 z" style="fill:#000000;fill-opacity:1;fill-rule:evenodd;stroke:#000000;stroke-width:7.19999981;stroke-linecap:round;stroke-miterlimit:4;stroke-opacity:1"/>
      <path sodipodi:nodetypes="ccccccc" id="rect3669" d="m 196.64314,564.50384 c 2.46251,73.15155 1.30991,145.4072 -1.83064,217.15241 -8.36458,-3.6793 -48.89161,-8.54985 -57.25619,3.03046 -9.67746,19.98456 -5.32378,31.43832 1.01015,43.41719 l 72.5625,-2.02031 c -8.37192,-10.97289 6.46541,-44.29037 14.14214,-47.4632 6.14378,-77.24589 28.63033,-136.64854 25.2233,-208.05165" style="fill:#ffffff;fill-opacity:1;fill-rule:evenodd;stroke:#000000;stroke-width:7.19999981;stroke-miterlimit:4;stroke-opacity:1"/>
      <path sodipodi:nodetypes="ccsssccccccscccsccscsssc" id="path2816-6" d="m 64.727627,404.26335 c 5.5737,28.30595 30.43392,57.63683 40.593753,82.03124 10.15982,24.39441 21.88003,37.90205 31.90624,46.25 35.78364,29.79391 75.68175,31.82841 165,23.5625 56.07766,-5.18967 96.21742,-21.61812 152.875,-44.59375 l 22.65625,-9.1875 4.9375,5.59375 c 0.1402,0.86048 2.23783,7.67661 2.375,8.46875 8.74523,50.50187 15.53905,88.68702 28.23661,111.98214 l 31.9687,74.5759 c 4.02866,15.53597 -4.92887,29.83268 -6.14286,42.59821 -1.21399,12.76554 -0.59269,22.65644 1.125,29.3125 l 2,7.75 -8.3125,-2.6875 -4.37495,-8.4375 c -1.65745,-7.80945 -0.52436,-16.83935 0.40625,-26.625 1.20585,-12.67999 2.33593,-26.68532 -1.28125,-40.71875 -0.01,-0.0327 -0.0212,-0.061 -0.0312,-0.0937 -8.43466,-28.69323 -20.91214,-46.42657 -33.8125,-70.09375 -12.66023,-23.22663 -25.45829,-52.10402 -34.3125,-101.46875 -50.36014,33.64085 -111.3384,61.56936 -167.65625,66.78125 -91.18305,8.43849 -145.67228,-22.7064 -182.28125,-53.1875 C 98.574077,536.06073 87.039877,515.95497 76.665177,491.04464 66.649397,466.9961 58.014227,438.52501 52.321427,410.66965" style="font-size:medium;font-style:normal;font-variant:normal;font-weight:normal;font-stretch:normal;text-indent:0;text-align:start;text-decoration:none;line-height:normal;letter-spacing:normal;word-spacing:normal;text-transform:none;direction:ltr;block-progression:tb;writing-mode:lr-tb;text-anchor:start;opacity:0.1778656;color:#000000;fill:#000000;fill-opacity:1;fill-rule:evenodd;stroke:none;stroke-width:7.19999981;marker:none;visibility:visible;display:inline;overflow:visible;filter:url(#filter4018);enable-background:accumulate;font-family:Bitstream Vera Sans;-inkscape-font-specification:Bitstream Vera Sans"/>
      <path sodipodi:nodetypes="csc" id="path3844" d="m 34.717848,379.8439 c -1.341087,12.76123 -44.7079364,18.66306 -96.862556,13.18208 -52.154612,-5.48097 -93.347142,-20.26921 -92.006052,-33.03044" style="fill:#ffffff;fill-opacity:1;fill-rule:evenodd;stroke:#000000;stroke-width:3;stroke-miterlimit:4;stroke-opacity:1;stroke-dasharray:none"/>
      <path transform="matrix(0.99840201,-0.05651058,0.05651058,0.99840201,244.92649,-45.07325)" d="m -240.36537,344.24524 c 0,8.36838 -11.78158,15.15229 -26.3149,15.15229 -14.53331,0 -26.31489,-6.78391 -26.31489,-15.15229 0,-8.36838 11.78158,-15.15229 26.31489,-15.15229 14.53332,0 26.3149,6.78391 26.3149,15.15229 z" sodipodi:ry="15.152288" sodipodi:rx="26.314896" sodipodi:cy="344.24524" sodipodi:cx="-266.68027" id="path3847" style="fill:#ffffff;fill-opacity:1;fill-rule:evenodd;stroke:#000000;stroke-width:7.19999981;stroke-miterlimit:4;stroke-opacity:1;stroke-dasharray:none" sodipodi:type="arc"/>
      <path transform="matrix(0.96877299,0.24794938,-0.24794938,0.96877299,428.80126,3.9301979)" d="m -319.20821,405.86456 c 0,7.81049 -6.33165,14.14214 -14.14213,14.14214 -7.81049,0 -14.14214,-6.33165 -14.14214,-14.14214 0,-7.81048 6.33165,-14.14213 14.14214,-14.14213 7.81048,0 14.14213,6.33165 14.14213,14.14213 z" sodipodi:ry="14.142136" sodipodi:rx="14.142136" sodipodi:cy="405.86456" sodipodi:cx="-333.35034" id="path3849" style="fill:#000000;fill-opacity:1;fill-rule:evenodd;stroke:#000000;stroke-width:7.19999981;stroke-miterlimit:4;stroke-opacity:1;stroke-dasharray:none" sodipodi:type="arc"/>
      <path transform="matrix(0.96877299,0.24794938,-0.24794938,0.96877299,335.09817,-151.43421)" d="m -206.07111,529.60822 c 0,3.0684 -2.48744,5.55583 -5.55584,5.55583 -3.06841,0 -5.55584,-2.48743 -5.55584,-5.55583 0,-3.06841 2.48743,-5.55584 5.55584,-5.55584 3.0684,0 5.55584,2.48743 5.55584,5.55584 z" sodipodi:ry="5.5558391" sodipodi:rx="5.5558391" sodipodi:cy="529.60822" sodipodi:cx="-211.62695" id="path3851" style="fill:#ffffff;fill-opacity:1;fill-rule:evenodd;stroke:#000000;stroke-width:1;stroke-miterlimit:4;stroke-opacity:1;stroke-dasharray:none" sodipodi:type="arc"/>
      <path sodipodi:nodetypes="ccccc" id="rect3951" d="M 122.84496,319.44249 C 109.8799,307.5027 100.99026,292.43269 73.487921,291.6585 58.88609,323.5872 62.688666,377.69288 70.7268,392.81998 c 0.127437,8.46597 5.134501,10.89259 12.879446,6.02792 14.772984,-17.97062 30.863284,-31.7494 39.238714,-79.40541 z" style="fill:#ffffff;fill-opacity:1;fill-rule:evenodd;stroke:#000000;stroke-width:7.19999981;stroke-miterlimit:4;stroke-opacity:1"/>
      <path sodipodi:nodetypes="cc" id="path4022" d="m 151.01401,825.22007 c -1.52269,-8.56553 -1.45391,-16.93213 0.83056,-25.02176" style="fill:none;stroke:#000000;stroke-width:7.19999981;stroke-linecap:round;stroke-miterlimit:0;stroke-opacity:1;stroke-dasharray:none"/>
      <path sodipodi:nodetypes="cc" id="path4022-7" d="m 101.78513,816.89863 c -1.52269,-8.56553 -1.45391,-16.93213 0.83056,-25.02177" style="fill:none;stroke:#000000;stroke-width:7.19999981;stroke-linecap:round;stroke-miterlimit:0;stroke-opacity:1;stroke-dasharray:none"/>
      <path sodipodi:nodetypes="csssc" id="path4108" d="m -511.13721,741.23518 c 0,11.15784 -21.16704,6.06092 -32.32488,6.06092 -11.15784,0 -18.18275,5.09692 -18.18275,-6.06092 0,-11.15783 7.0249,-16.16243 18.18274,-16.16243 11.15784,0 32.32489,5.0046 32.32489,16.16243 z" style="fill:#000000;fill-opacity:1;fill-rule:evenodd;stroke:#000000;stroke-width:7.19999981;stroke-linecap:round;stroke-miterlimit:4;stroke-opacity:1" transform="translate(708.57143,-248.57143)"/>
      <path sodipodi:nodetypes="ccc" id="path3591-7-7" d="m -160.94002,338.89079 c 0.18887,24.09877 58.70104,-22.16368 35.24308,-24.22597 -23.45795,-2.06228 -35.43195,0.1272 -35.24308,24.22597 z" style="fill:#000000;fill-opacity:1;fill-rule:evenodd;stroke:#000000;stroke-width:7.19999981;stroke-miterlimit:4;stroke-opacity:1;stroke-dasharray:none"/>
      <path sodipodi:nodetypes="csssc" id="path3851-9" d="m -153.60646,322.85678 c -1.59227,2.62292 -0.41846,4.8536 -3.04139,3.26132 -2.62293,-1.59228 -2.37584,-3.36064 -0.78356,-5.98357 1.59227,-2.62294 3.33932,-3.17414 5.96225,-1.58187 2.62293,1.59228 -0.54502,1.68118 -2.1373,4.30412 z" style="fill:#ffffff;fill-opacity:1;fill-rule:evenodd;stroke:#000000;stroke-width:1;stroke-miterlimit:4;stroke-opacity:1"/>
      <path sodipodi:nodetypes="cc" id="path4022-75" d="m 385.1315,822.68155 c -1.52269,-8.56553 -1.45391,-16.93213 0.83056,-25.02176" style="fill:none;stroke:#000000;stroke-width:7.19999981;stroke-linecap:round;stroke-miterlimit:0;stroke-opacity:1;stroke-dasharray:none"/>
      <path sodipodi:nodetypes="cc" id="path4022-75-3" d="m 486.69317,820.61243 c -1.52269,-8.56553 -1.45391,-16.93213 0.83056,-25.02176" style="fill:none;stroke:#000000;stroke-width:7.19999981;stroke-linecap:round;stroke-miterlimit:0;stroke-opacity:1;stroke-dasharray:none"/>
      <path sodipodi:nodetypes="csssc" id="path4108-8" d="m 235.46047,540.03517 c 0,-11.15784 21.16704,-6.06092 32.32488,-6.06092 11.15784,0 18.18275,-5.09692 18.18275,6.06092 0,11.15783 -7.0249,16.16243 -18.18274,16.16243 -11.15784,0 -32.32489,-5.0046 -32.32489,-16.16243 z" style="fill:#000000;fill-opacity:1;fill-rule:evenodd;stroke:#000000;stroke-width:7.19999981;stroke-linecap:round;stroke-miterlimit:4;stroke-opacity:1"/>
      <path sodipodi:nodetypes="csssc" id="path4108-3" d="m 284.90718,453.99594 c 0,11.15784 2.40439,25.34663 -8.75345,25.34663 -11.15784,0 -41.75418,-14.18879 -41.75418,-25.34663 0,-11.15783 16.31061,0.98043 27.46845,0.98043 11.15784,0 23.03918,-12.13826 23.03918,-0.98043 z" style="fill:#000000;fill-opacity:1;fill-rule:evenodd;stroke:#000000;stroke-width:7.19999981;stroke-linecap:round;stroke-miterlimit:4;stroke-opacity:1"/>
      <path sodipodi:nodetypes="csssc" id="path4108-3-1" d="m 428.25663,564.36027 c 11.15784,0 25.34663,-2.40439 25.34663,8.75345 0,11.15784 -14.18879,41.75418 -25.34663,41.75418 -11.15783,0 0.98043,-16.31061 0.98043,-27.46845 0,-11.15784 -12.13826,-23.03918 -0.98043,-23.03918 z" style="fill:#000000;fill-opacity:1;fill-rule:evenodd;stroke:#000000;stroke-width:7.19999981;stroke-linecap:round;stroke-miterlimit:4;stroke-opacity:1"/>
      <path sodipodi:nodetypes="csssc" id="path4295" d="m 438.03571,641.46936 c 0,1.97244 -7.08575,-2.73116 -5.89286,-0.35715 0.8856,1.76245 -1.24999,0.54387 -1.24999,-1.42857 0,-1.97245 2.13469,0.89286 4.10713,0.89286 1.97245,0 3.03572,-1.07959 3.03572,0.89286 z" style="fill:#000000;fill-opacity:1;fill-rule:evenodd;stroke:#000000;stroke-width:7.19999981;stroke-linecap:round;stroke-miterlimit:4;stroke-opacity:1"/>
      <path sodipodi:nodetypes="csssc" id="path4298" d="m 116.16755,324.54728 c 0,4.74208 -1.92211,8.5863 -4.29315,8.5863 -2.37104,0 0.25254,-3.33914 0.25254,-8.08122 0,-4.74208 -2.62358,-9.09138 -0.25254,-9.09138 2.37104,0 4.29315,3.84422 4.29315,8.5863 z" style="fill:#000000;fill-opacity:1;fill-rule:evenodd;stroke:#000000;stroke-width:7.19999981;stroke-linecap:round;stroke-miterlimit:4;stroke-opacity:1"/>
      <path sodipodi:nodetypes="csssc" id="path4298-9" d="m 75.139129,304.34423 c 0,4.74208 1.92211,8.5863 4.29315,8.5863 2.37104,0 -0.25254,-3.33914 -0.25254,-8.08122 0,-4.74208 2.62358,-9.09138 0.25254,-9.09138 -2.37104,0 -4.29315,3.84422 -4.29315,8.5863 z" style="fill:#000000;fill-opacity:1;fill-rule:evenodd;stroke:#000000;stroke-width:7.19999981;stroke-linecap:round;stroke-miterlimit:4;stroke-opacity:1"/>
      <path sodipodi:nodetypes="csssc" id="path4298-4" d="m 89.515736,304.34422 c 0,4.74208 -1.92211,8.5863 -4.29315,8.5863 -2.37104,0 0.25254,-3.33914 0.25254,-8.08122 0,-4.74208 -2.62358,-9.09138 -0.25254,-9.09138 2.37104,0 4.29315,3.84422 4.29315,8.5863 z" style="fill:#000000;fill-opacity:1;fill-rule:evenodd;stroke:#000000;stroke-width:7.19999981;stroke-linecap:round;stroke-miterlimit:4;stroke-opacity:1"/>
      <path sodipodi:nodetypes="csssc" id="path4298-3" d="m 87.308965,356.74507 c 1.680952,4.43415 1.246336,8.71009 -0.970741,9.55056 -2.217078,0.84048 -0.947503,-3.21183 -2.628454,-7.64598 -1.680952,-4.43416 -5.675891,-7.57104 -3.458814,-8.41152 2.217077,-0.84047 5.377058,2.07278 7.058009,6.50694 z" style="fill:#000000;fill-opacity:1;fill-rule:evenodd;stroke:#000000;stroke-width:7.19999981;stroke-linecap:round;stroke-miterlimit:4;stroke-opacity:1"/>
      <path sodipodi:nodetypes="csssc" id="path4298-6" d="m 79.795639,347.58735 c -1.798707,-4.3877 -1.478377,-8.67372 0.715477,-9.57307 2.193854,-0.89935 1.032893,3.1854 2.8316,7.5731 1.798707,4.38771 5.875951,7.41685 3.682097,8.3162 -2.193853,0.89936 -5.430467,-1.92852 -7.229174,-6.31623 z" style="fill:#000000;fill-opacity:1;fill-rule:evenodd;stroke:#000000;stroke-width:7.19999981;stroke-linecap:round;stroke-miterlimit:4;stroke-opacity:1"/>
      <path sodipodi:nodetypes="cc" id="path2990" d="M 42.44984,384.68973 C 33.96393,373.47767 24.769376,382.4214 24.769253,382.4216" style="fill:none;stroke:#000000;stroke-width:3;stroke-linecap:butt;stroke-linejoin:miter;stroke-miterlimit:4;stroke-opacity:1;stroke-dasharray:none"/>
      <path sodipodi:nodetypes="csssc" id="path3769" d="m 235.71429,597.36219 c 0,6.31182 -5.73532,22.14286 -9.28572,22.14286 -3.5504,0 -3.57143,-15.83104 -3.57143,-22.14286 0,-6.31183 2.87817,-11.42857 6.42857,-11.42857 3.55041,0 6.42858,5.11674 6.42858,11.42857 z" style="fill:#000000;fill-opacity:1;fill-rule:evenodd;stroke:#000000;stroke-width:3;stroke-linecap:round;stroke-miterlimit:4;stroke-opacity:1"/>
      <path sodipodi:nodetypes="csssc" id="path3772" d="m 187.14286,601.29077 c 0,2.56418 -10.99093,7.49999 -17.5,7.49999 -6.50907,0 -13.21429,5.77847 -13.21429,3.21429 0,-2.56418 6.70522,-12.5 13.21429,-12.5 6.50907,0 17.5,-0.77846 17.5,1.78572 z" style="fill:#000000;fill-opacity:1;fill-rule:evenodd;stroke:#000000;stroke-width:3;stroke-linecap:round;stroke-miterlimit:4;stroke-opacity:1"/>
      <path sodipodi:nodetypes="csssc" id="path3825" d="m -187.14285,578.79077 c 0,3.5504 -5.11675,6.42857 -11.42858,6.42857 -6.31182,0 -11.42857,-2.87817 -11.42857,-6.42857 0,-3.5504 17.26386,-9.35604 23.57568,-9.35604 6.31183,0 -0.71853,5.80564 -0.71853,9.35604 z" style="fill:#000000;fill-opacity:1;fill-rule:evenodd;stroke:#000000;stroke-width:3;stroke-linecap:round;stroke-miterlimit:4;stroke-opacity:1" transform="matrix(0.70108014,-0.71308249,0.71308249,0.70108014,-49.225371,102.84282)"/>
      <path sodipodi:nodetypes="csssc" id="path3825-3" d="m -186.58207,572.2293 c 0,3.5504 -5.67753,12.99004 -11.98936,12.99004 -6.31182,0 -11.42857,-2.87817 -11.42857,-6.42857 0,-3.5504 5.08246,-2.38811 11.39428,-2.38811 6.31183,0 12.02365,-7.72376 12.02365,-4.17336 z" style="fill:#000000;fill-opacity:1;fill-rule:evenodd;stroke:#000000;stroke-width:3;stroke-linecap:round;stroke-miterlimit:4;stroke-opacity:1" transform="matrix(-0.70108014,-0.71308249,-0.71308249,0.70108014,492.7968,134.27138)"/>
      <path id="path3850" d="m 207.07816,716.03906 c -1.41191,1.77531 -1.11947,4.34025 0.65585,5.75217 1.77531,1.41191 4.34025,1.11946 5.75216,-0.65585 1.41192,-1.77531 1.13892,-4.36471 -0.63639,-5.77663 -1.77531,-1.41191 -4.35971,-1.095 -5.77162,0.68031 z m 9.23155,-7.59119 c -2.48318,3.1223 -2.94997,6.87725 -1.02028,8.41194 1.92969,1.53469 5.50765,0.25407 7.99083,-2.86823 2.48318,-3.12231 2.92551,-6.8967 0.99582,-8.4314 -1.92969,-1.53469 -5.48319,-0.23462 -7.96637,2.88769 z" style="fill:#000000;fill-opacity:1;fill-rule:evenodd;stroke:#000000;stroke-width:3;stroke-linecap:round;stroke-miterlimit:4;stroke-opacity:1;stroke-dasharray:none"/>
      <path sodipodi:nodetypes="csssc" id="path3855" d="m 126.07143,665.93359 c 0,2.56418 -3.86074,7.5227 -9.38358,7.5227 -5.52285,0 -10.61642,-4.95852 -10.61642,-7.5227 0,-2.56418 4.47715,-4.64285 10,-4.64285 5.52284,0 10,2.07867 10,4.64285 z" style="fill:#000000;fill-opacity:1;fill-rule:evenodd;stroke:#000000;stroke-width:3;stroke-linecap:round;stroke-miterlimit:4;stroke-opacity:1" transform="matrix(0.8978897,0.44022051,-0.44022051,0.8978897,361.08114,-20.241197)"/>
      <path sodipodi:nodetypes="csssc" id="path3857" d="m 172.24534,661.18867 c -4.53439,3.3227 -10.27785,0.77775 -11.38541,-0.73371 -1.10756,-1.51146 4.83687,-1.10915 9.37125,-4.43185 4.53438,-3.3227 5.94163,-9.11215 7.04919,-7.6007 1.10757,1.51146 -0.50065,9.44357 -5.03503,12.76626 z" style="fill:#000000;fill-opacity:1;fill-rule:evenodd;stroke:#000000;stroke-width:3;stroke-linecap:round;stroke-miterlimit:4;stroke-opacity:1"/>
      <path sodipodi:nodetypes="csssc" id="path3860" d="m 217.63158,762.44844 c 0,2.23156 -2.9271,4.04061 -6.53785,4.04061 -3.61075,0 -6.53784,-1.80905 -6.53784,-4.04061 0,-2.23157 2.92709,-9.09137 6.53784,-9.09137 3.61075,0 6.53785,6.8598 6.53785,9.09137 z" style="fill:#000000;fill-opacity:1;fill-rule:evenodd;stroke:#000000;stroke-width:3;stroke-linecap:round;stroke-miterlimit:4;stroke-opacity:1"/>
      <path sodipodi:nodetypes="csssc" id="path3863" d="m 165.66502,711.43573 c 0,5.29997 -1.80905,9.59645 -4.04061,9.59645 -2.23157,0 -4.04061,-4.29648 -4.04061,-9.59645 0,-5.29998 12.92072,-21.71828 15.15229,-21.71828 2.23156,0 -7.07107,16.4183 -7.07107,21.71828 z" style="fill:#000000;fill-opacity:1;fill-rule:evenodd;stroke:#000000;stroke-width:3;stroke-linecap:round;stroke-miterlimit:4;stroke-opacity:1"/>
      <path sodipodi:nodetypes="csssc" id="path3860-3" d="m 166.14195,748.81135 c 0,-2.23156 -2.9271,-4.04061 -6.53785,-4.04061 -3.61075,0 -6.53784,1.80905 -6.53784,4.04061 0,2.23157 2.92709,9.09137 6.53784,9.09137 3.61075,0 6.53785,-6.8598 6.53785,-9.09137 z" style="fill:#000000;fill-opacity:1;fill-rule:evenodd;stroke:#000000;stroke-width:3;stroke-linecap:round;stroke-miterlimit:4;stroke-opacity:1"/>
      <path sodipodi:nodetypes="csssz" id="path3888" d="m 561.86661,435.14578 c 22.74255,-23.22673 -26.47453,-33.76925 -48.93094,-33.76925 -22.4564,0 -40.66092,7.09668 -40.66092,15.85087 0,8.7542 19.58286,3.44584 42.03926,3.44584 22.45641,0 24.81005,37.69926 47.5526,14.47254 z" style="fill:#000000;fill-opacity:1;fill-rule:evenodd;stroke:#000000;stroke-width:7.19999981;stroke-linecap:round;stroke-miterlimit:4;stroke-opacity:1;stroke-dasharray:none"/>
      <path sodipodi:nodetypes="czzzc" id="path3891" d="m -55.144937,363.0974 c -1.443688,2.49126 -17.982546,0.71768 -19.693501,-4.32156 -1.710949,-5.03925 3.289464,-0.98438 4.619457,-5.20137 1.329999,-4.217 -2.135303,-8.17991 4.84023,-4.13758 6.975533,4.04234 11.677508,11.16924 10.233814,13.66051 z" style="fill:#000000;fill-opacity:1;fill-rule:evenodd;stroke:#000000;stroke-width:3.71600509;stroke-linecap:round;stroke-miterlimit:4;stroke-opacity:1"/>
      <path sodipodi:nodetypes="csssc" id="path3894" d="m 383.23137,436.77041 c 0,5.48119 2.72649,21.83405 -8.60129,21.83405 -11.32778,0 -32.42025,-16.35286 -32.42025,-21.83405 0,-5.48118 9.18299,-9.92456 20.51077,-9.92456 11.32778,0 20.51077,4.44338 20.51077,9.92456 z" style="fill:#000000;fill-opacity:1;fill-rule:evenodd;stroke:#000000;stroke-width:7.19999981;stroke-linecap:round;stroke-miterlimit:4;stroke-opacity:1;stroke-dasharray:none"/>
      <path sodipodi:nodetypes="csssc" id="path3897" d="m 534.14419,498.27616 c 0,4.75166 4.73056,25.81093 -3.58485,25.81093 -8.31541,0 -26.52791,-21.05927 -26.52791,-25.81093 0,-4.75166 6.74098,-8.60365 15.05638,-8.60365 8.31541,0 15.05638,3.85199 15.05638,8.60365 z" style="fill:#000000;fill-opacity:1;fill-rule:evenodd;stroke:#000000;stroke-width:7.19999981;stroke-linecap:round;stroke-miterlimit:4;stroke-opacity:1;stroke-dasharray:none"/>
      <path sodipodi:nodetypes="csssc" id="path3900" d="m 544.63005,561.70578 c 0,4.1458 -16.88664,17.06054 -25.93203,17.06054 -9.04539,0 -6.82421,-12.91474 -6.82421,-17.06054 0,-4.14581 7.33273,-7.50664 16.37812,-7.50664 9.04538,0 16.37812,3.36083 16.37812,7.50664 z" style="fill:#000000;fill-opacity:1;fill-rule:evenodd;stroke:#000000;stroke-width:7.19999981;stroke-linecap:round;stroke-miterlimit:4;stroke-opacity:1;stroke-dasharray:none"/>
      <path sodipodi:nodetypes="csssc" id="path3903" d="m 445.54842,680.50111 c 0,3.0602 1.58805,6.09508 -0.55409,6.09508 -2.14214,0 -7.20328,-3.03488 -7.20328,-6.09508 0,-3.0602 1.73655,-5.54098 3.87869,-5.54098 2.14214,0 3.87868,2.48078 3.87868,5.54098 z" style="fill:#000000;fill-opacity:1;fill-rule:evenodd;stroke:#000000;stroke-width:7.19999981;stroke-linecap:round;stroke-miterlimit:4;stroke-opacity:1;stroke-dasharray:none"/>
      <path sodipodi:nodetypes="csssc" id="path3906" d="m 425.57535,479.11458 c 4.7552,6.29577 17.15498,8.52603 14.32188,10.66587 -2.83309,2.13984 -19.82623,3.37895 -24.58143,-2.91682 -4.7552,-6.29577 -6.31338,-13.13418 -3.48028,-15.27402 2.83309,-2.13984 8.98462,1.2292 13.73983,7.52497 z" style="fill:#000000;fill-opacity:1;fill-rule:evenodd;stroke:#000000;stroke-width:7.19999981;stroke-linecap:round;stroke-miterlimit:4;stroke-opacity:1"/>
      <path sodipodi:nodetypes="csssc" id="path3909" d="m 543.65222,632.42441 c -0.7336,3.06946 -9.03969,-9.50453 -17.09703,-11.43026 -8.05734,-1.92572 -13.99439,-5.97513 -13.26078,-9.04459 0.7336,-3.06946 7.86008,-3.99665 15.91742,-2.07092 8.05734,1.92572 15.174,19.47631 14.44039,22.54577 z" style="fill:#000000;fill-opacity:1;fill-rule:evenodd;stroke:#000000;stroke-width:7.19999981;stroke-linecap:round;stroke-miterlimit:4;stroke-opacity:1"/>
      <path id="path3850-9" d="m 544.38235,696.17545 c 0.66131,2.16977 2.93963,3.38372 5.10941,2.72242 2.16977,-0.66131 3.38371,-2.93964 2.72241,-5.1094 -0.6613,-2.16978 -2.94874,-3.41362 -5.11851,-2.75232 -2.16977,0.6613 -3.37461,2.96953 -2.71331,5.1393 z m -1.01598,-11.90863 c 1.16306,3.81605 3.99083,6.33026 6.34928,5.61145 2.35845,-0.71881 3.33313,-4.39193 2.17008,-8.20798 -1.16307,-3.81606 -4.02072,-6.32115 -6.37918,-5.60234 -2.35845,0.71881 -3.30324,4.38281 -2.14018,8.19887 z" style="fill:#000000;fill-opacity:1;fill-rule:evenodd;stroke:#000000;stroke-width:3;stroke-linecap:round;stroke-miterlimit:4;stroke-opacity:1;stroke-dasharray:none"/>
      <path sodipodi:nodetypes="csssc" id="path3860-5" d="m 449.05365,758.65654 c -1.04783,1.97026 -4.48162,2.19307 -7.66958,0.49765 -3.18795,-1.69542 -4.92287,-4.66705 -3.87504,-6.63731 1.04783,-1.97027 6.85318,-6.65243 10.04114,-4.95701 3.18795,1.69542 2.55131,9.1264 1.50348,11.09667 z" style="fill:#000000;fill-opacity:1;fill-rule:evenodd;stroke:#000000;stroke-width:3;stroke-linecap:round;stroke-miterlimit:4;stroke-opacity:1"/>
      <path sodipodi:nodetypes="csssc" id="path3967" d="m 449.51788,713.45598 c 0,3.0684 0.4374,12.62691 -1.51522,12.62691 -1.95263,0 -5.55584,-9.55851 -5.55584,-12.62691 0,-3.06841 1.58291,-5.55584 3.53553,-5.55584 1.95262,0 3.53553,2.48743 3.53553,5.55584 z" style="fill:#000000;fill-opacity:1;fill-rule:evenodd;stroke:#000000;stroke-width:7.19999981;stroke-linecap:round;stroke-miterlimit:4;stroke-opacity:1"/>
      <path sodipodi:nodetypes="csssc" id="path4295-3" d="m 553.57143,763.35328 c 0,1.97244 -7.08575,-2.73116 -5.89286,-0.35715 0.8856,1.76245 -1.24999,0.54387 -1.24999,-1.42857 0,-1.97245 2.13469,0.89286 4.10713,0.89286 1.97245,0 3.03572,-1.07959 3.03572,0.89286 z" style="fill:#000000;fill-opacity:1;fill-rule:evenodd;stroke:#000000;stroke-width:7.19999981;stroke-linecap:round;stroke-miterlimit:4;stroke-opacity:1"/>
      <path sodipodi:nodetypes="csssc" id="path3903-4" d="m 553.59549,726.92495 c 0,-3.0602 1.58805,-6.09508 -0.55409,-6.09508 -2.14214,0 -7.20328,3.03488 -7.20328,6.09508 0,3.0602 1.73655,5.54098 3.87869,5.54098 2.14214,0 3.87868,-2.48078 3.87868,-5.54098 z" style="fill:#000000;fill-opacity:1;fill-rule:evenodd;stroke:#000000;stroke-width:7.19999981;stroke-linecap:round;stroke-miterlimit:4;stroke-opacity:1;stroke-dasharray:none"/>
    </g>
  </g>
</svg>