<?xml version="1.0" encoding="UTF-8" standalone="no"?>
<!-- Created with Inkscape (http://www.inkscape.org/) -->

<svg
   xmlns:dc="http://purl.org/dc/elements/1.1/"
   xmlns:cc="http://creativecommons.org/ns#"
   xmlns:rdf="http://www.w3.org/1999/02/22-rdf-syntax-ns#"
   xmlns:svg="http://www.w3.org/2000/svg"
   xmlns="http://www.w3.org/2000/svg"
   xmlns:xlink="http://www.w3.org/1999/xlink"
   xmlns:sodipodi="http://sodipodi.sourceforge.net/DTD/sodipodi-0.dtd"
   xmlns:inkscape="http://www.inkscape.org/namespaces/inkscape"
   width="744.09448819"
   height="1052.3622047"
   id="svg2"
   version="1.1"
   inkscape:version="0.48.2 r9819"
   sodipodi:docname="Kids Logo.svg">
  <defs
     id="defs4">
    <linearGradient
       id="linearGradient4313">
      <stop
         style="stop-color:#f3ded2;stop-opacity:1;"
         offset="0"
         id="stop4315" />
      <stop
         style="stop-color:#f1a378;stop-opacity:1;"
         offset="1"
         id="stop4317" />
    </linearGradient>
    <linearGradient
       id="linearGradient4288">
      <stop
         style="stop-color:#fff8f8;stop-opacity:1;"
         offset="0"
         id="stop4290" />
      <stop
         style="stop-color:#000000;stop-opacity:1;"
         offset="1"
         id="stop4292" />
    </linearGradient>
    <radialGradient
       inkscape:collect="always"
       xlink:href="#linearGradient4288"
       id="radialGradient4294"
       cx="1210.1855"
       cy="527.90497"
       fx="1210.1855"
       fy="527.90497"
       r="18.06257"
       gradientTransform="matrix(0.92603355,0.04531327,-0.03321149,0.67871822,366.7164,-119.53836)"
       gradientUnits="userSpaceOnUse" />
    <radialGradient
       inkscape:collect="always"
       xlink:href="#linearGradient4288"
       id="radialGradient4298"
       gradientUnits="userSpaceOnUse"
       gradientTransform="matrix(0.92603355,0.04531327,-0.03321149,0.67871822,287.7164,-121.53836)"
       cx="1210.1855"
       cy="527.90497"
       fx="1210.1855"
       fy="527.90497"
       r="18.06257" />
    <radialGradient
       inkscape:collect="always"
       xlink:href="#linearGradient4313"
       id="radialGradient4319"
       cx="1001.6492"
       cy="148.62898"
       fx="1001.6492"
       fy="148.62898"
       r="21.596606"
       gradientTransform="matrix(0.74619463,0,0,0.53304274,672.59264,27.214977)"
       gradientUnits="userSpaceOnUse" />
  </defs>
  <sodipodi:namedview
     id="base"
     pagecolor="#ffffff"
     bordercolor="#666666"
     borderopacity="1.0"
     inkscape:pageopacity="0.0"
     inkscape:pageshadow="2"
     inkscape:zoom="0.62811075"
     inkscape:cx="452.24663"
     inkscape:cy="694.12335"
     inkscape:document-units="px"
     inkscape:current-layer="layer1"
     showgrid="false"
     inkscape:window-width="1440"
     inkscape:window-height="850"
     inkscape:window-x="-8"
     inkscape:window-y="272"
     inkscape:window-maximized="1" />
  <metadata
     id="metadata7">
    <rdf:RDF>
      <cc:Work
         rdf:about="">
        <dc:format>image/svg+xml</dc:format>
        <dc:type
           rdf:resource="http://purl.org/dc/dcmitype/StillImage" />
        <dc:title></dc:title>
      </cc:Work>
    </rdf:RDF>
  </metadata>
  <g
     inkscape:groupmode="layer"
     id="layer3"
     inkscape:label="Background" />
  <g
     inkscape:label="Boy"
     inkscape:groupmode="layer"
     id="layer1">
    <g
       id="g4475"
       transform="translate(-108.26117,1.592076)">
      <path
         inkscape:connector-curvature="0"
         id="path4361"
         d="m 425.3655,480.72602 43,37"
         style="fill:none;stroke:#000000;stroke-width:3;stroke-linecap:butt;stroke-linejoin:miter;stroke-miterlimit:4;stroke-opacity:1;stroke-dasharray:none" />
      <path
         style="fill:none;stroke:#000000;stroke-width:3;stroke-linecap:butt;stroke-linejoin:miter;stroke-miterlimit:4;stroke-opacity:1;stroke-dasharray:none"
         d="m 555.3655,480.72602 -43,37"
         id="path4363"
         inkscape:connector-curvature="0" />
      <path
         style="fill:none;stroke:#000000;stroke-width:3;stroke-linecap:butt;stroke-linejoin:miter;stroke-miterlimit:4;stroke-opacity:1;stroke-dasharray:none"
         d="m 468.7179,564.8627 0.2952,56.72664"
         id="path4371"
         inkscape:connector-curvature="0" />
      <path
         inkscape:connector-curvature="0"
         id="path4373"
         d="m 514.7179,563.8627 0.2952,56.72664"
         style="fill:none;stroke:#000000;stroke-width:3;stroke-linecap:butt;stroke-linejoin:miter;stroke-miterlimit:4;stroke-opacity:1;stroke-dasharray:none" />
      <path
         transform="matrix(1.2289731,0,0,1.7396149,-626.44501,224.71228)"
         inkscape:transform-center-y="-26.09422"
         inkscape:transform-center-x="-0.93352158"
         d="m 964,219.36218 -108.48076,2.6314 51.96152,-95.26279 z"
         inkscape:randomized="0"
         inkscape:rounded="0"
         inkscape:flatsided="true"
         sodipodi:arg2="1.5465443"
         sodipodi:arg1="0.49934672"
         sodipodi:r2="31.324909"
         sodipodi:r1="62.649818"
         sodipodi:cy="189.36218"
         sodipodi:cx="909"
         sodipodi:sides="3"
         id="path4323"
         style="fill:#ff0000;fill-opacity:1;stroke:#000000;stroke-width:2;stroke-linecap:round;stroke-linejoin:miter;stroke-miterlimit:4;stroke-opacity:1;stroke-dasharray:none"
         sodipodi:type="star" />
      <path
         transform="translate(-418.6345,272.36384)"
         d="m 965,130.86218 c 0,31.20409 -25.29591,56.5 -56.5,56.5 -31.20409,0 -56.5,-25.29591 -56.5,-56.5 0,-31.204086 25.29591,-56.499997 56.5,-56.499997 31.20409,0 56.5,25.295911 56.5,56.499997 z"
         sodipodi:ry="56.5"
         sodipodi:rx="56.5"
         sodipodi:cy="130.86218"
         sodipodi:cx="908.5"
         id="path4321"
         style="fill:#fbf5c0;fill-opacity:1;stroke:#000000;stroke-width:2;stroke-linecap:round;stroke-linejoin:miter;stroke-miterlimit:4;stroke-opacity:1;stroke-dasharray:none"
         sodipodi:type="arc" />
      <path
         transform="matrix(1.1643161,0,0,1.1643161,-412.29675,261.03738)"
         sodipodi:type="arc"
         style="fill:#000000;fill-opacity:1;stroke:#000000;stroke-width:2;stroke-linecap:round;stroke-linejoin:miter;stroke-miterlimit:4;stroke-opacity:1;stroke-dasharray:none"
         id="path4353"
         sodipodi:cx="787.66339"
         sodipodi:cy="116.08306"
         sodipodi:rx="3.8827534"
         sodipodi:ry="3.8827534"
         d="m 791.54614,116.08306 c 0,2.14439 -1.73836,3.88275 -3.88275,3.88275 -2.14438,0 -3.88275,-1.73836 -3.88275,-3.88275 0,-2.14438 1.73837,-3.88275 3.88275,-3.88275 2.14439,0 3.88275,1.73837 3.88275,3.88275 z" />
      <path
         sodipodi:nodetypes="cc"
         inkscape:connector-curvature="0"
         id="path4355"
         d="m 464.7588,419.64281 c 13.05,17.31326 30.4442,31.23781 50.8775,-0.26777"
         style="fill:none;stroke:#000000;stroke-width:2;stroke-linecap:butt;stroke-linejoin:miter;stroke-miterlimit:4;stroke-opacity:1;stroke-dasharray:none" />
      <path
         transform="translate(-429.6345,527.36384)"
         d="m 1005,-47.637817 c 0,7.731986 -6.71573,14 -15,14 -8.28427,0 -15,-6.268014 -15,-14 0,-7.731987 6.71573,-14 15,-14 8.28427,0 15,6.268013 15,14 z"
         sodipodi:ry="14"
         sodipodi:rx="15"
         sodipodi:cy="-47.637817"
         sodipodi:cx="990"
         id="path4357"
         style="fill:#fbf5c0;fill-opacity:1;stroke:#000000;stroke-width:2;stroke-linecap:round;stroke-linejoin:miter;stroke-miterlimit:4;stroke-opacity:1;stroke-dasharray:none"
         sodipodi:type="arc" />
      <path
         sodipodi:type="arc"
         style="fill:#fbf5c0;fill-opacity:1;stroke:#000000;stroke-width:2;stroke-linecap:round;stroke-linejoin:miter;stroke-miterlimit:4;stroke-opacity:1;stroke-dasharray:none"
         id="path4359"
         sodipodi:cx="990"
         sodipodi:cy="-47.637817"
         sodipodi:rx="15"
         sodipodi:ry="14"
         d="m 1005,-47.637817 c 0,7.731986 -6.71573,14 -15,14 -8.28427,0 -15,-6.268014 -15,-14 0,-7.731987 6.71573,-14 15,-14 8.28427,0 15,6.268013 15,14 z"
         transform="translate(-571.6345,522.36384)" />
      <path
         sodipodi:nodetypes="sssss"
         inkscape:connector-curvature="0"
         id="path4365"
         d="m 480.9784,624.24427 c 0,5.60691 1.0549,10.28807 -13.1415,10.15221 -15.0598,-0.14413 -13.1415,-4.5453 -13.1415,-10.15221 0,-5.60692 5.8837,-10.15222 13.1415,-10.15222 7.2578,0 13.1415,4.5453 13.1415,10.15222 z"
         style="fill:#3e2c18;fill-opacity:1;stroke:#000000;stroke-width:1.92175794;stroke-linecap:round;stroke-linejoin:miter;stroke-miterlimit:4;stroke-opacity:1" />
      <path
         style="fill:#3e2c18;fill-opacity:1;stroke:#000000;stroke-width:1.92175794;stroke-linecap:round;stroke-linejoin:miter;stroke-miterlimit:4;stroke-opacity:1"
         d="m 527.9784,624.24427 c 0,5.60691 1.0549,10.28807 -13.1415,10.15221 -15.0597,-0.14413 -13.1415,-4.5453 -13.1415,-10.15221 0,-5.60692 5.8837,-10.15222 13.1415,-10.15222 7.2578,0 13.1415,4.5453 13.1415,10.15222 z"
         id="path4369"
         inkscape:connector-curvature="0"
         sodipodi:nodetypes="sssss" />
      <path
         transform="matrix(0.98644151,-0.1641132,0.1641132,0.98644151,-342.30448,567.11337)"
         d="m 912,-44.137817 c 0,5.246705 -1.567,9.5 -3.5,9.5 -1.933,0 -3.5,-4.253295 -3.5,-9.5 0,-5.246706 1.567,-9.5 3.5,-9.5 1.933,0 3.5,4.253294 3.5,9.5 z"
         sodipodi:ry="9.5"
         sodipodi:rx="3.5"
         sodipodi:cy="-44.137817"
         sodipodi:cx="908.5"
         id="path4375"
         style="fill:#ed1127;fill-opacity:1;stroke:#000000;stroke-width:3;stroke-linecap:round;stroke-linejoin:miter;stroke-miterlimit:4;stroke-opacity:1;stroke-dasharray:none"
         sodipodi:type="arc" />
      <path
         sodipodi:nodetypes="scsscccscscscscccss"
         style="fill:#ffff00;fill-opacity:1;stroke:#000000;stroke-width:1.73997176;stroke-linecap:round;stroke-linejoin:miter;stroke-miterlimit:4;stroke-opacity:1;stroke-dasharray:none"
         d="m 495.9616,343.38209 c -2.1827,0.0537 -6.0692,0.33359 -8.875,0.96875 -2.0766,-0.24711 -4.196,-0.4031 -5.5938,-0.4375 -7.292,-0.17944 -15.5567,0.82779 -26.5625,7.03125 -9.1945,5.18247 -16.23253,11.17343 -19.78128,16.34375 -0.44882,-1.22294 -14.42914,-10.6934 -23.46875,-3.23289 -23.643,18.19833 -7.39841,77.13278 -0.75936,139.72968 6.5427,4.12026 4.0922,-83.83066 10.42696,-108.4333 5.69567,-22.12057 12.42473,-19.01453 13.17615,-7.75099 11.39238,-1.17715 23.07008,-6.60309 31.71878,-12.65625 8.4534,-5.91648 17.3368,-12.62471 22.75,-18.28125 5.449,5.54605 14.0492,12.01033 22.25,17.75 8.6487,6.05316 20.2952,11.44785 31.6875,12.625 0.7514,-11.26354 2.5183,-15.85823 15.161,8.24721 11.7999,22.49849 2.3956,112.5848 8.9383,108.46454 3.6617,-46.71792 31.8468,-116.07294 -2.713,-138.73723 -9.0396,-7.46051 -21.5625,0.52129 -22.0113,1.74423 -3.5487,-5.17032 -10.5868,-11.16128 -19.7812,-16.34375 -11.0059,-6.20346 -19.2705,-7.21069 -26.5625,-7.03125 z"
         id="path4383"
         inkscape:connector-curvature="0" />
      <path
         sodipodi:type="arc"
         style="fill:#ed1127;fill-opacity:1;stroke:#000000;stroke-width:3;stroke-linecap:round;stroke-linejoin:miter;stroke-miterlimit:4;stroke-opacity:1;stroke-dasharray:none"
         id="path4377"
         sodipodi:cx="908.5"
         sodipodi:cy="-44.137817"
         sodipodi:rx="3.5"
         sodipodi:ry="9.5"
         d="m 912,-44.137817 c 0,5.246705 -1.567,9.5 -3.5,9.5 -1.933,0 -3.5,-4.253295 -3.5,-9.5 0,-5.246706 1.567,-9.5 3.5,-9.5 1.933,0 3.5,4.253294 3.5,9.5 z"
         transform="matrix(0.98644151,-0.1641132,0.1641132,0.98644151,-342.30448,567.11337)" />
      <path
         transform="matrix(0.97923526,0.20272716,-0.20272716,0.97923526,-463.88257,233.52084)"
         d="m 912,-44.137817 c 0,5.246705 -1.567,9.5 -3.5,9.5 -1.933,0 -3.5,-4.253295 -3.5,-9.5 0,-5.246706 1.567,-9.5 3.5,-9.5 1.933,0 3.5,4.253294 3.5,9.5 z"
         sodipodi:ry="9.5"
         sodipodi:rx="3.5"
         sodipodi:cy="-44.137817"
         sodipodi:cx="908.5"
         id="path4379"
         style="fill:#ed1127;fill-opacity:1;stroke:#000000;stroke-width:3;stroke-linecap:round;stroke-linejoin:miter;stroke-miterlimit:4;stroke-opacity:1;stroke-dasharray:none"
         sodipodi:type="arc" />
      <path
         d="m 791.54614,116.08306 c 0,2.14439 -1.73836,3.88275 -3.88275,3.88275 -2.14438,0 -3.88275,-1.73836 -3.88275,-3.88275 0,-2.14438 1.73837,-3.88275 3.88275,-3.88275 2.14439,0 3.88275,1.73837 3.88275,3.88275 z"
         sodipodi:ry="3.8827534"
         sodipodi:rx="3.8827534"
         sodipodi:cy="116.08306"
         sodipodi:cx="787.66339"
         id="path4381"
         style="fill:#000000;fill-opacity:1;stroke:#000000;stroke-width:2;stroke-linecap:round;stroke-linejoin:miter;stroke-miterlimit:4;stroke-opacity:1;stroke-dasharray:none"
         sodipodi:type="arc"
         transform="matrix(1.1643161,0,0,1.1643161,-440.25453,260.79669)" />
    </g>
    <g
       id="g4494"
       transform="translate(-19.104911,6.368304)">
      <path
         style="fill:none;stroke:#000000;stroke-width:3;stroke-linecap:butt;stroke-linejoin:miter;stroke-miterlimit:4;stroke-opacity:1;stroke-dasharray:none"
         d="m 226.27958,494.45577 43,37"
         id="path4385"
         inkscape:connector-curvature="0" />
      <path
         inkscape:connector-curvature="0"
         id="path4387"
         d="m 312.87565,495.82642 -43,37"
         style="fill:none;stroke:#000000;stroke-width:3;stroke-linecap:butt;stroke-linejoin:miter;stroke-miterlimit:4;stroke-opacity:1;stroke-dasharray:none" />
      <path
         inkscape:connector-curvature="0"
         id="path4389"
         d="m 271.16879,560.19134 -23.79506,51.49558"
         style="fill:none;stroke:#000000;stroke-width:3;stroke-linecap:butt;stroke-linejoin:miter;stroke-miterlimit:4;stroke-opacity:1;stroke-dasharray:none" />
      <path
         style="fill:none;stroke:#000000;stroke-width:3;stroke-linecap:butt;stroke-linejoin:miter;stroke-miterlimit:4;stroke-opacity:1;stroke-dasharray:none"
         d="m 269.45587,560.03637 21.3736,52.54682"
         id="path4391"
         inkscape:connector-curvature="0" />
      <path
         inkscape:connector-curvature="0"
         id="path4430"
         d="m 270.06627,464.39375 -0.45688,95.94553"
         style="fill:none;stroke:#000000;stroke-width:3;stroke-linecap:butt;stroke-linejoin:miter;stroke-miterlimit:4;stroke-opacity:1;stroke-dasharray:none" />
      <path
         sodipodi:type="arc"
         style="fill:#fbf5c0;fill-opacity:1;stroke:#000000;stroke-width:2;stroke-linecap:round;stroke-linejoin:miter;stroke-miterlimit:4;stroke-opacity:1;stroke-dasharray:none"
         id="path4395"
         sodipodi:cx="908.5"
         sodipodi:cy="130.86218"
         sodipodi:rx="56.5"
         sodipodi:ry="56.5"
         d="m 965,130.86218 c 0,31.20409 -25.29591,56.5 -56.5,56.5 -31.20409,0 -56.5,-25.29591 -56.5,-56.5 0,-31.204086 25.29591,-56.499997 56.5,-56.499997 31.20409,0 56.5,25.295911 56.5,56.499997 z"
         transform="translate(-639.10771,294.95592)" />
      <path
         d="m 791.54614,116.08306 c 0,2.14439 -1.73836,3.88275 -3.88275,3.88275 -2.14438,0 -3.88275,-1.73836 -3.88275,-3.88275 0,-2.14438 1.73837,-3.88275 3.88275,-3.88275 2.14439,0 3.88275,1.73837 3.88275,3.88275 z"
         sodipodi:ry="3.8827534"
         sodipodi:rx="3.8827534"
         sodipodi:cy="116.08306"
         sodipodi:cx="787.66339"
         id="path4397"
         style="fill:#000000;fill-opacity:1;stroke:#000000;stroke-width:2;stroke-linecap:round;stroke-linejoin:miter;stroke-miterlimit:4;stroke-opacity:1;stroke-dasharray:none"
         sodipodi:type="arc"
         transform="matrix(1.1643161,0,0,1.1643161,-632.76996,283.62946)" />
      <path
         style="fill:none;stroke:#000000;stroke-width:2;stroke-linecap:butt;stroke-linejoin:miter;stroke-miterlimit:4;stroke-opacity:1;stroke-dasharray:none"
         d="m 244.28559,442.23489 c 13.05,17.31326 30.4442,31.23781 50.8775,-0.26777"
         id="path4399"
         inkscape:connector-curvature="0"
         sodipodi:nodetypes="cc" />
      <path
         sodipodi:type="arc"
         style="fill:#fbf5c0;fill-opacity:1;stroke:#000000;stroke-width:2;stroke-linecap:round;stroke-linejoin:miter;stroke-miterlimit:4;stroke-opacity:1;stroke-dasharray:none"
         id="path4401"
         sodipodi:cx="990"
         sodipodi:cy="-47.637817"
         sodipodi:rx="15"
         sodipodi:ry="14"
         d="m 1005,-47.637817 c 0,7.731986 -6.71573,14 -15,14 -8.28427,0 -15,-6.268014 -15,-14 0,-7.731987 6.71573,-14 15,-14 8.28427,0 15,6.268013 15,14 z"
         transform="translate(-672.12435,542.46424)" />
      <path
         transform="translate(-770.72042,536.09359)"
         d="m 1005,-47.637817 c 0,7.731986 -6.71573,14 -15,14 -8.28427,0 -15,-6.268014 -15,-14 0,-7.731987 6.71573,-14 15,-14 8.28427,0 15,6.268013 15,14 z"
         sodipodi:ry="14"
         sodipodi:rx="15"
         sodipodi:cy="-47.637817"
         sodipodi:cx="990"
         id="path4403"
         style="fill:#fbf5c0;fill-opacity:1;stroke:#000000;stroke-width:2;stroke-linecap:round;stroke-linejoin:miter;stroke-miterlimit:4;stroke-opacity:1;stroke-dasharray:none"
         sodipodi:type="arc" />
      <path
         style="fill:#800000;fill-opacity:1;stroke:#000000;stroke-width:1.92175794;stroke-linecap:round;stroke-linejoin:miter;stroke-miterlimit:4;stroke-opacity:1"
         d="m 257.67766,621.52621 c 0,5.60691 1.0549,10.28807 -13.1415,10.15221 -15.0598,-0.14413 -13.1415,-4.5453 -13.1415,-10.15221 0,-5.60692 5.8837,-10.15222 13.1415,-10.15222 7.2578,0 13.1415,4.5453 13.1415,10.15222 z"
         id="path4405"
         inkscape:connector-curvature="0"
         sodipodi:nodetypes="sssss" />
      <path
         sodipodi:nodetypes="sssss"
         inkscape:connector-curvature="0"
         id="path4407"
         d="m 304.22078,621.06933 c 0,5.60691 1.0549,10.28807 -13.1415,10.15221 -15.0597,-0.14413 -13.1415,-4.5453 -13.1415,-10.15221 0,-5.60692 5.8837,-10.15222 13.1415,-10.15222 7.2578,0 13.1415,4.5453 13.1415,10.15222 z"
         style="fill:#800000;fill-opacity:1;stroke:#000000;stroke-width:1.92175794;stroke-linecap:round;stroke-linejoin:miter;stroke-miterlimit:4;stroke-opacity:1" />
      <path
         transform="matrix(1.1643161,0,0,1.1643161,-660.72774,283.38877)"
         sodipodi:type="arc"
         style="fill:#000000;fill-opacity:1;stroke:#000000;stroke-width:2;stroke-linecap:round;stroke-linejoin:miter;stroke-miterlimit:4;stroke-opacity:1;stroke-dasharray:none"
         id="path4417"
         sodipodi:cx="787.66339"
         sodipodi:cy="116.08306"
         sodipodi:rx="3.8827534"
         sodipodi:ry="3.8827534"
         d="m 791.54614,116.08306 c 0,2.14439 -1.73836,3.88275 -3.88275,3.88275 -2.14438,0 -3.88275,-1.73836 -3.88275,-3.88275 0,-2.14438 1.73837,-3.88275 3.88275,-3.88275 2.14439,0 3.88275,1.73837 3.88275,3.88275 z" />
      <path
         inkscape:connector-curvature="0"
         id="path4419"
         d="m 257.76596,357.9657 c -28.5863,3.44008 -49.42603,18.7931 -46.54683,34.29192 1.18177,6.36155 -0.0174,13.105 2.68284,18.06847 l 104.74826,-12.60543 c 2.78155,-4.9886 -2.5137,-10.39919 -3.91096,-17.92068 -2.87919,-15.49882 -28.387,-25.27436 -56.97331,-21.83428 z"
         style="fill:#ed1127;fill-opacity:1;stroke:#000000;stroke-width:2.51917481;stroke-linecap:round;stroke-linejoin:miter;stroke-miterlimit:4;stroke-opacity:1" />
      <path
         sodipodi:nodetypes="cccc"
         inkscape:connector-curvature="0"
         id="path4427"
         d="m 154.75751,418.4685 57.56284,-17.34077 1.1284,9.49322 z"
         inkscape:transform-center-y="-9.8790341"
         inkscape:transform-center-x="-0.5779321"
         style="fill:#ed1127;fill-opacity:1;stroke:#000000;stroke-width:2.14707947;stroke-linecap:round;stroke-linejoin:miter;stroke-miterlimit:4;stroke-opacity:1" />
    </g>
    <g
       id="g4511"
       transform="translate(-369.3616,22.289063)">
      <path
         transform="matrix(0.58816947,-0.32399035,0.30875355,0.56050871,191.36185,523.36047)"
         d="m 997.43493,482.1832 c 0,5.59224 -11.93277,10.12565 -26.65258,10.12565 -14.71981,0 -26.65258,-4.53341 -26.65258,-10.12565 0,-5.59225 11.93277,-10.12566 26.65258,-10.12566 14.71981,0 26.65258,4.53341 26.65258,10.12566 z"
         sodipodi:ry="10.125652"
         sodipodi:rx="26.652578"
         sodipodi:cy="482.1832"
         sodipodi:cx="970.78235"
         id="path4452"
         style="fill:#bf7e30;fill-opacity:1;stroke:#000000;stroke-width:3;stroke-linecap:round;stroke-linejoin:miter;stroke-miterlimit:4;stroke-opacity:1;stroke-dasharray:none"
         sodipodi:type="arc" />
      <path
         sodipodi:nodetypes="cccc"
         inkscape:connector-curvature="0"
         id="path4472"
         d="m 917.33253,562.69887 -33.70449,36.33261 -8.58556,-5.81588 z"
         inkscape:transform-center-y="1.3678938"
         inkscape:transform-center-x="10.051626"
         style="fill:#bf7e30;fill-opacity:1;stroke:#000000;stroke-width:3;stroke-linecap:round;stroke-linejoin:miter;stroke-miterlimit:4;stroke-opacity:1" />
      <path
         transform="matrix(0.63992091,0,0,0.63992091,292.73508,168.44013)"
         d="m 968,557.36218 c 0,38.65994 -27.75835,70 -62,70 -34.24165,0 -62,-31.34006 -62,-70 0,-38.65993 27.75835,-70 62,-70 34.24165,0 62,31.34007 62,70 z"
         sodipodi:ry="70"
         sodipodi:rx="62"
         sodipodi:cy="557.36218"
         sodipodi:cx="906"
         id="path4432"
         style="fill:#bf7e30;fill-opacity:1;stroke:#000000;stroke-width:3;stroke-linecap:round;stroke-linejoin:miter;stroke-miterlimit:4;stroke-opacity:1;stroke-dasharray:none"
         sodipodi:type="arc" />
      <path
         transform="matrix(0.95809777,-0.16394459,0.16482224,0.952996,-142.35293,257.10655)"
         d="m 994,451.36218 c 0,3.866 -4.70101,7 -10.5,7 -5.79899,0 -10.5,-3.134 -10.5,-7 0,-3.86599 4.70101,-7 10.5,-7 5.79899,0 10.5,3.13401 10.5,7 z"
         sodipodi:ry="7"
         sodipodi:rx="10.5"
         sodipodi:cy="451.36218"
         sodipodi:cx="983.5"
         id="path4436"
         style="fill:#666666;fill-opacity:1;stroke:#000000;stroke-width:3;stroke-linecap:round;stroke-linejoin:miter;stroke-miterlimit:4;stroke-opacity:1;stroke-dasharray:none"
         sodipodi:type="arc" />
      <path
         sodipodi:nodetypes="cc"
         inkscape:connector-curvature="0"
         id="path4438"
         d="m 875.43297,533.79374 c 1.38035,3.5197 -0.89316,12.61373 -0.90411,12.65751"
         style="fill:none;stroke:#000000;stroke-width:1.91976273;stroke-linecap:butt;stroke-linejoin:miter;stroke-miterlimit:4;stroke-opacity:1;stroke-dasharray:none" />
      <path
         transform="matrix(0.63992091,0,0,0.63992091,292.73508,168.44013)"
         d="m 871.27165,577.27124 c 0,0.64279 -0.57319,1.16387 -1.28026,1.16387 -0.70706,0 -1.28025,-0.52108 -1.28025,-1.16387 0,-0.64279 0.57319,-1.16387 1.28025,-1.16387 0.70707,0 1.28026,0.52108 1.28026,1.16387 z"
         sodipodi:ry="1.1638681"
         sodipodi:rx="1.2802548"
         sodipodi:cy="577.27124"
         sodipodi:cx="869.99139"
         id="path4440"
         style="fill:#666666;fill-opacity:1;stroke:#000000;stroke-width:3;stroke-linecap:round;stroke-linejoin:miter;stroke-miterlimit:4;stroke-opacity:1;stroke-dasharray:none"
         sodipodi:type="arc" />
      <path
         transform="matrix(0.63992091,0,0,0.63992091,299.43813,181.39936)"
         sodipodi:type="arc"
         style="fill:#666666;fill-opacity:1;stroke:#000000;stroke-width:3;stroke-linecap:round;stroke-linejoin:miter;stroke-miterlimit:4;stroke-opacity:1;stroke-dasharray:none"
         id="path4442"
         sodipodi:cx="869.99139"
         sodipodi:cy="577.27124"
         sodipodi:rx="1.2802548"
         sodipodi:ry="1.1638681"
         d="m 871.27165,577.27124 c 0,0.64279 -0.57319,1.16387 -1.28026,1.16387 -0.70706,0 -1.28025,-0.52108 -1.28025,-1.16387 0,-0.64279 0.57319,-1.16387 1.28025,-1.16387 0.70707,0 1.28026,0.52108 1.28026,1.16387 z" />
      <path
         transform="matrix(0.63992091,0,0,0.63992091,336.52835,175.44109)"
         d="m 871.27165,577.27124 c 0,0.64279 -0.57319,1.16387 -1.28026,1.16387 -0.70706,0 -1.28025,-0.52108 -1.28025,-1.16387 0,-0.64279 0.57319,-1.16387 1.28025,-1.16387 0.70707,0 1.28026,0.52108 1.28026,1.16387 z"
         sodipodi:ry="1.1638681"
         sodipodi:rx="1.2802548"
         sodipodi:cy="577.27124"
         sodipodi:cx="869.99139"
         id="path4444"
         style="fill:#666666;fill-opacity:1;stroke:#000000;stroke-width:3;stroke-linecap:round;stroke-linejoin:miter;stroke-miterlimit:4;stroke-opacity:1;stroke-dasharray:none"
         sodipodi:type="arc" />
      <path
         transform="matrix(0.63992091,0,0,0.63992091,339.8054,164.86516)"
         sodipodi:type="arc"
         style="fill:#666666;fill-opacity:1;stroke:#000000;stroke-width:3;stroke-linecap:round;stroke-linejoin:miter;stroke-miterlimit:4;stroke-opacity:1;stroke-dasharray:none"
         id="path4446"
         sodipodi:cx="869.99139"
         sodipodi:cy="577.27124"
         sodipodi:rx="1.2802548"
         sodipodi:ry="1.1638681"
         d="m 871.27165,577.27124 c 0,0.64279 -0.57319,1.16387 -1.28026,1.16387 -0.70706,0 -1.28025,-0.52108 -1.28025,-1.16387 0,-0.64279 0.57319,-1.16387 1.28025,-1.16387 0.70707,0 1.28026,0.52108 1.28026,1.16387 z" />
      <path
         transform="matrix(0.62992235,-0.11267919,0.11267919,0.62992235,233.55249,282.25784)"
         d="m 932.95663,525.82825 c 0,3.85672 -1.14638,6.98321 -2.56051,6.98321 -1.41413,0 -2.56051,-3.12649 -2.56051,-6.98321 0,-3.85672 1.14638,-6.98321 2.56051,-6.98321 1.41413,0 2.56051,3.12649 2.56051,6.98321 z"
         sodipodi:ry="6.9832087"
         sodipodi:rx="2.5605097"
         sodipodi:cy="525.82825"
         sodipodi:cx="930.39612"
         id="path4448"
         style="fill:#000000;fill-opacity:1;stroke:#000000;stroke-width:3;stroke-linecap:round;stroke-linejoin:miter;stroke-miterlimit:4;stroke-opacity:1;stroke-dasharray:none"
         sodipodi:type="arc" />
      <path
         transform="matrix(0.63992091,0,0,0.63992091,271.13636,171.41926)"
         sodipodi:type="arc"
         style="fill:#000000;fill-opacity:1;stroke:#000000;stroke-width:3;stroke-linecap:round;stroke-linejoin:miter;stroke-miterlimit:4;stroke-opacity:1;stroke-dasharray:none"
         id="path4450"
         sodipodi:cx="930.39612"
         sodipodi:cy="525.82825"
         sodipodi:rx="2.5605097"
         sodipodi:ry="6.9832087"
         d="m 932.95663,525.82825 c 0,3.85672 -1.14638,6.98321 -2.56051,6.98321 -1.41413,0 -2.56051,-3.12649 -2.56051,-6.98321 0,-3.85672 1.14638,-6.98321 2.56051,-6.98321 1.41413,0 2.56051,3.12649 2.56051,6.98321 z" />
      <path
         sodipodi:type="arc"
         style="fill:#bf7e30;fill-opacity:1;stroke:#000000;stroke-width:3;stroke-linecap:round;stroke-linejoin:miter;stroke-miterlimit:4;stroke-opacity:1;stroke-dasharray:none"
         id="path4454"
         sodipodi:cx="970.78235"
         sodipodi:cy="482.1832"
         sodipodi:rx="26.652578"
         sodipodi:ry="10.125652"
         d="m 997.43493,482.1832 c 0,5.59224 -11.93277,10.12565 -26.65258,10.12565 -14.71981,0 -26.65258,-4.53341 -26.65258,-10.12565 0,-5.59225 11.93277,-10.12566 26.65258,-10.12566 14.71981,0 26.65258,4.53341 26.65258,10.12566 z"
         transform="matrix(0.66275424,-0.10802729,0.10294692,0.63158586,138.62366,289.74965)" />
      <path
         inkscape:connector-curvature="0"
         id="path4456"
         d="m 875,570.36218 c 0,26 0,26 0,26"
         style="fill:none;stroke:#000000;stroke-width:3;stroke-linecap:butt;stroke-linejoin:miter;stroke-miterlimit:4;stroke-opacity:1;stroke-dasharray:none" />
      <path
         inkscape:connector-curvature="0"
         id="path4458"
         d="m 875,597.36218 c 83,17 83,17 83,17"
         style="fill:none;stroke:#000000;stroke-width:3;stroke-linecap:butt;stroke-linejoin:miter;stroke-miterlimit:4;stroke-opacity:1;stroke-dasharray:none" />
      <path
         transform="matrix(0.18933031,0,0,0.1605497,782.96674,513.87785)"
         sodipodi:type="arc"
         style="fill:#bf7e30;fill-opacity:1;stroke:#000000;stroke-width:17.20705032;stroke-linecap:round;stroke-linejoin:miter;stroke-miterlimit:4;stroke-opacity:1;stroke-dasharray:none"
         id="path4434"
         sodipodi:cx="906"
         sodipodi:cy="557.36218"
         sodipodi:rx="62"
         sodipodi:ry="70"
         d="m 968,557.36218 c 0,38.65994 -27.75835,70 -62,70 -34.24165,0 -62,-31.34006 -62,-70 0,-38.65993 27.75835,-70 62,-70 34.24165,0 62,31.34007 62,70 z" />
      <path
         style="fill:none;stroke:#000000;stroke-width:3;stroke-linecap:butt;stroke-linejoin:miter;stroke-miterlimit:4;stroke-opacity:1;stroke-dasharray:none"
         d="m 876,596.36218 c -83,17 -83,17 -83,17"
         id="path4460"
         inkscape:connector-curvature="0" />
      <path
         inkscape:connector-curvature="0"
         id="path4462"
         d="m 874.46345,571.72435 c -28.9269,41.27566 -28.9269,41.27566 -28.9269,41.27566"
         style="fill:none;stroke:#000000;stroke-width:3;stroke-linecap:butt;stroke-linejoin:miter;stroke-miterlimit:4;stroke-opacity:1;stroke-dasharray:none" />
      <path
         style="fill:none;stroke:#000000;stroke-width:3;stroke-linecap:butt;stroke-linejoin:miter;stroke-miterlimit:4;stroke-opacity:1;stroke-dasharray:none"
         d="m 873.53655,570.72435 c 28.9269,41.27566 28.9269,41.27566 28.9269,41.27566"
         id="path4464"
         inkscape:connector-curvature="0" />
      <path
         d="m 968,557.36218 c 0,38.65994 -27.75835,70 -62,70 -34.24165,0 -62,-31.34006 -62,-70 0,-38.65993 27.75835,-70 62,-70 34.24165,0 62,31.34007 62,70 z"
         sodipodi:ry="70"
         sodipodi:rx="62"
         sodipodi:cy="557.36218"
         sodipodi:cx="906"
         id="path4466"
         style="fill:#bf7e30;fill-opacity:1;stroke:#000000;stroke-width:17.20705032;stroke-linecap:round;stroke-linejoin:miter;stroke-miterlimit:4;stroke-opacity:1;stroke-dasharray:none"
         sodipodi:type="arc"
         transform="matrix(0.18933031,0,0,0.1605497,618.96674,513.87785)" />
      <path
         transform="matrix(0.18933031,0,0,0.1605497,678.96674,514.87785)"
         sodipodi:type="arc"
         style="fill:#bf7e30;fill-opacity:1;stroke:#000000;stroke-width:17.20705032;stroke-linecap:round;stroke-linejoin:miter;stroke-miterlimit:4;stroke-opacity:1;stroke-dasharray:none"
         id="path4468"
         sodipodi:cx="906"
         sodipodi:cy="557.36218"
         sodipodi:rx="62"
         sodipodi:ry="70"
         d="m 968,557.36218 c 0,38.65994 -27.75835,70 -62,70 -34.24165,0 -62,-31.34006 -62,-70 0,-38.65993 27.75835,-70 62,-70 34.24165,0 62,31.34007 62,70 z" />
      <path
         d="m 968,557.36218 c 0,38.65994 -27.75835,70 -62,70 -34.24165,0 -62,-31.34006 -62,-70 0,-38.65993 27.75835,-70 62,-70 34.24165,0 62,31.34007 62,70 z"
         sodipodi:ry="70"
         sodipodi:rx="62"
         sodipodi:cy="557.36218"
         sodipodi:cx="906"
         id="path4470"
         style="fill:#bf7e30;fill-opacity:1;stroke:#000000;stroke-width:17.20705032;stroke-linecap:round;stroke-linejoin:miter;stroke-miterlimit:4;stroke-opacity:1;stroke-dasharray:none"
         sodipodi:type="arc"
         transform="matrix(0.18933031,0,0,0.1605497,726.96674,516.87785)" />
    </g>
  </g>
  <g
     inkscape:groupmode="layer"
     id="layer2"
     inkscape:label="Outline" />
</svg>
