<?xml version="1.0" encoding="UTF-8" standalone="no"?>
<!-- Created with Inkscape (http://www.inkscape.org/) -->

<svg
   xmlns:dc="http://purl.org/dc/elements/1.1/"
   xmlns:cc="http://creativecommons.org/ns#"
   xmlns:rdf="http://www.w3.org/1999/02/22-rdf-syntax-ns#"
   xmlns:svg="http://www.w3.org/2000/svg"
   xmlns="http://www.w3.org/2000/svg"
   xmlns:sodipodi="http://sodipodi.sourceforge.net/DTD/sodipodi-0.dtd"
   xmlns:inkscape="http://www.inkscape.org/namespaces/inkscape"
   width="651.25"
   height="482.63229"
   id="svg2"
   sodipodi:version="0.32"
   inkscape:version="0.48.2 r9819"
   version="1.0"
   sodipodi:docname="Pot of Gold.svg"
   inkscape:output_extension="org.inkscape.output.svg.inkscape"
   sodipodi:modified="true">
  <defs
     id="defs4" />
  <sodipodi:namedview
     id="base"
     pagecolor="#ffffff"
     bordercolor="#666666"
     borderopacity="1.0"
     gridtolerance="10000"
     guidetolerance="10"
     objecttolerance="10"
     inkscape:pageopacity="0.0"
     inkscape:pageshadow="2"
     inkscape:zoom="0.70710678"
     inkscape:cx="128.17772"
     inkscape:cy="330.60964"
     inkscape:document-units="px"
     inkscape:current-layer="layer2"
     width="990px"
     height="765px"
     inkscape:window-width="1280"
     inkscape:window-height="876"
     inkscape:window-x="0"
     inkscape:window-y="17"
     showgrid="false"
     inkscape:window-maximized="1" />
  <metadata
     id="metadata7">
    <rdf:RDF>
      <cc:Work
         rdf:about="">
        <dc:format>image/svg+xml</dc:format>
        <dc:type
           rdf:resource="http://purl.org/dc/dcmitype/StillImage" />
        <dc:title></dc:title>
      </cc:Work>
    </rdf:RDF>
  </metadata>
  <g
     inkscape:label="Layer 1"
     inkscape:groupmode="layer"
     id="layer1"
     transform="translate(-169.375,-141.18386)">
    <g
       id="g2209"
       transform="translate(10.59375,-0.6911405)">
      <path
         id="path2170"
         d="M 481.34375,141.875 C 329.90557,141.875 207,173.24281 207,211.875 C 207,221.10016 214.01812,229.9015 226.75,237.96875 C 184.15493,278.3251 158.78125,328.93738 158.78125,383.875 C 158.78125,439.56997 184.86869,490.84416 228.53125,531.46875 C 221.86614,550.94589 195.2091,613.61534 204.25,622.65625 C 213.97709,632.38334 285.86878,600.7791 299.15625,597.21875 C 303.2463,596.12283 313.7285,594.50721 326.03125,592.46875 C 372.92477,611.65951 426.9212,622.59375 484.40625,622.59375 C 542.46841,622.59375 596.99937,611.42552 644.21875,591.875 C 658.06516,594.20089 670.08808,596.01983 674.5625,597.21875 C 687.84995,600.7791 759.74166,632.38334 769.46875,622.65625 C 779.16911,612.95589 747.76628,541.44636 744.0625,527.875 C 785.44969,487.83758 810.03124,437.94694 810.03125,383.875 C 810.03125,327.83698 783.64936,276.30526 739.5,235.5625 C 749.9642,228.1564 755.6875,220.19736 755.6875,211.875 C 755.6875,173.24281 632.78192,141.87501 481.34375,141.875 z "
         style="fill:#000000;fill-opacity:1;stroke:none;stroke-width:5;stroke-linecap:square;stroke-linejoin:miter;stroke-miterlimit:4;stroke-dasharray:none;stroke-opacity:1" />
      <path
         id="path2178"
         d="M 269.20565,423.28967 C 269.20565,430.25973 248.38843,435.91658 222.73863,435.91658 C 197.08884,435.91658 176.27161,430.25973 176.27161,423.28967 C 176.27161,416.31962 197.08884,410.66277 222.73863,410.66277 C 248.38843,410.66277 269.20565,416.31962 269.20565,423.28967 z "
         style="fill:#b3b3b3;fill-opacity:1;stroke:none;stroke-width:5;stroke-linecap:square;stroke-linejoin:miter;stroke-miterlimit:4;stroke-opacity:1"
         transform="matrix(5.0208696,0,0,3.2147059,-637.00384,-1154.4862)" />
    </g>
  </g>
  <g
     inkscape:groupmode="layer"
     id="layer2"
     inkscape:label="coins">
    <path
       sodipodi:type="arc"
       style="fill:#ffff00;fill-opacity:1;stroke:#000000;stroke-width:4.13872337;stroke-miterlimit:4;stroke-opacity:1;stroke-dasharray:none"
       id="path3002"
       sodipodi:cx="-283.5498"
       sodipodi:cy="-103.55923"
       sodipodi:rx="50.204582"
       sodipodi:ry="41.719299"
       d="m -233.34522,-103.55923 a 50.204582,41.719299 0 1 1 -100.40917,0 50.204582,41.719299 0 1 1 100.40917,0 z"
       transform="matrix(0.99331984,-0.11539363,0.06063055,0.52191381,451.27618,64.848131)" />
    <path
       sodipodi:type="arc"
       style="fill:#ffff00;fill-opacity:1;stroke:#000000;stroke-width:4.13872337;stroke-miterlimit:4;stroke-opacity:1;stroke-dasharray:none"
       id="path3002-1"
       sodipodi:cx="-283.5498"
       sodipodi:cy="-103.55923"
       sodipodi:rx="50.204582"
       sodipodi:ry="41.719299"
       d="m -233.34522,-103.55923 a 50.204582,41.719299 0 1 1 -100.40917,0 50.204582,41.719299 0 1 1 100.40917,0 z"
       transform="matrix(0.99331984,-0.11539363,0.06063055,0.52191381,425.11321,89.596868)" />
    <path
       sodipodi:type="arc"
       style="fill:#ffff00;fill-opacity:1;stroke:#000000;stroke-width:4.13872337;stroke-miterlimit:4;stroke-opacity:1;stroke-dasharray:none"
       id="path3002-4"
       sodipodi:cx="-283.5498"
       sodipodi:cy="-103.55923"
       sodipodi:rx="50.204582"
       sodipodi:ry="41.719299"
       d="m -233.34522,-103.55923 a 50.204582,41.719299 0 1 1 -100.40917,0 50.204582,41.719299 0 1 1 100.40917,0 z"
       transform="matrix(0.99331984,-0.11539363,0.06063055,0.52191381,529.76501,44.342034)" />
    <path
       sodipodi:type="arc"
       style="fill:#ffff00;fill-opacity:1;stroke:#000000;stroke-width:4.13872337;stroke-miterlimit:4;stroke-opacity:1;stroke-dasharray:none"
       id="path3002-0"
       sodipodi:cx="-283.5498"
       sodipodi:cy="-103.55923"
       sodipodi:rx="50.204582"
       sodipodi:ry="41.719299"
       d="m -233.34522,-103.55923 a 50.204582,41.719299 0 1 1 -100.40917,0 50.204582,41.719299 0 1 1 100.40917,0 z"
       transform="matrix(0.99331984,-0.11539363,0.06063055,0.52191381,580.6767,49.998888)" />
    <path
       sodipodi:type="arc"
       style="fill:#ffff00;fill-opacity:1;stroke:#000000;stroke-width:4.13872337;stroke-miterlimit:4;stroke-opacity:1;stroke-dasharray:none"
       id="path3002-9"
       sodipodi:cx="-283.5498"
       sodipodi:cy="-103.55923"
       sodipodi:rx="50.204582"
       sodipodi:ry="41.719299"
       d="m -233.34522,-103.55923 a 50.204582,41.719299 0 1 1 -100.40917,0 50.204582,41.719299 0 1 1 100.40917,0 z"
       transform="matrix(0.99331984,-0.11539363,0.06063055,0.52191381,570.77721,98.082149)" />
    <path
       sodipodi:type="arc"
       style="fill:#ffff00;fill-opacity:1;stroke:#000000;stroke-width:4.13872337;stroke-miterlimit:4;stroke-opacity:1;stroke-dasharray:none"
       id="path3002-48"
       sodipodi:cx="-283.5498"
       sodipodi:cy="-103.55923"
       sodipodi:rx="50.204582"
       sodipodi:ry="41.719299"
       d="m -233.34522,-103.55923 a 50.204582,41.719299 0 1 1 -100.40917,0 50.204582,41.719299 0 1 1 100.40917,0 z"
       transform="matrix(0.99331984,-0.11539363,0.06063055,0.52191381,454.8117,82.5258)" />
    <path
       sodipodi:type="arc"
       style="fill:#ecec11;fill-opacity:1;stroke:#000000;stroke-width:4.13872337000000010;stroke-miterlimit:4;stroke-opacity:1;stroke-dasharray:none"
       id="path3002-8"
       sodipodi:cx="-283.5498"
       sodipodi:cy="-103.55923"
       sodipodi:rx="50.204582"
       sodipodi:ry="41.719299"
       d="m -233.34522,-103.55923 a 50.204582,41.719299 0 1 1 -100.40917,0 50.204582,41.719299 0 1 1 100.40917,0 z"
       transform="matrix(0.99331984,-0.11539363,0.06063055,0.52191381,512.79445,107.98164)" />
    <path
       sodipodi:type="arc"
       style="fill:#ffff00;fill-opacity:1;stroke:#000000;stroke-width:4.13872337;stroke-miterlimit:4;stroke-opacity:1;stroke-dasharray:none"
       id="path3002-7"
       sodipodi:cx="-283.5498"
       sodipodi:cy="-103.55923"
       sodipodi:rx="50.204582"
       sodipodi:ry="41.719299"
       d="m -233.34522,-103.55923 a 50.204582,41.719299 0 1 1 -100.40917,0 50.204582,41.719299 0 1 1 100.40917,0 z"
       transform="matrix(0.99331984,-0.11539363,0.06063055,0.52191381,512.79445,79.697373)" />
    <path
       sodipodi:type="arc"
       style="fill:#ffff00;fill-opacity:1;stroke:#000000;stroke-width:4.13872337;stroke-miterlimit:4;stroke-opacity:1;stroke-dasharray:none"
       id="path3002-2"
       sodipodi:cx="-283.5498"
       sodipodi:cy="-103.55923"
       sodipodi:rx="50.204582"
       sodipodi:ry="41.719299"
       d="m -233.34522,-103.55923 a 50.204582,41.719299 0 1 1 -100.40917,0 50.204582,41.719299 0 1 1 100.40917,0 z"
       transform="matrix(0.99331984,-0.11539363,0.06063055,0.52191381,621.6889,120.70957)"
       inkscape:transform-center-x="207.88939"
       inkscape:transform-center-y="-337.99704" />
    <path
       sodipodi:type="arc"
       style="fill:#f9f909;fill-opacity:1;stroke:#000000;stroke-width:4.13872337000000010;stroke-miterlimit:4;stroke-opacity:1;stroke-dasharray:none"
       id="path3002-1-4"
       sodipodi:cx="-283.5498"
       sodipodi:cy="-103.55923"
       sodipodi:rx="50.204582"
       sodipodi:ry="41.719299"
       d="m -233.34522,-103.55923 a 50.204582,41.719299 0 1 1 -100.40917,0 50.204582,41.719299 0 1 1 100.40917,0 z"
       transform="matrix(0.96969511,-0.23680063,0.08811543,0.43302208,558.43946,-35.376161)" />
    <path
       sodipodi:type="arc"
       style="fill:#ffff00;fill-opacity:1;stroke:#000000;stroke-width:4.13872337;stroke-miterlimit:4;stroke-opacity:1;stroke-dasharray:none"
       id="path3002-1-4-5"
       sodipodi:cx="-283.5498"
       sodipodi:cy="-103.55923"
       sodipodi:rx="50.204582"
       sodipodi:ry="41.719299"
       d="m -233.34522,-103.55923 a 50.204582,41.719299 0 1 1 -100.40917,0 50.204582,41.719299 0 1 1 100.40917,0 z"
       transform="matrix(0.99387766,0.09268414,-0.05805204,0.43806667,742.49246,98.901939)" />
    <path
       sodipodi:type="arc"
       style="fill:#ffff00;fill-opacity:1;stroke:#000000;stroke-width:4.13872337;stroke-miterlimit:4;stroke-opacity:1;stroke-dasharray:none"
       id="path3002-1-4-51"
       sodipodi:cx="-283.5498"
       sodipodi:cy="-103.55923"
       sodipodi:rx="50.204582"
       sodipodi:ry="41.719299"
       d="m -233.34522,-103.55923 a 50.204582,41.719299 0 1 1 -100.40917,0 50.204582,41.719299 0 1 1 100.40917,0 z"
       transform="matrix(0.99387766,0.09268414,-0.05805204,0.43806667,636.42645,100.31615)" />
    <path
       sodipodi:type="arc"
       style="fill:#ecec0b;fill-opacity:1;stroke:#000000;stroke-width:4.13872337000000010;stroke-miterlimit:4;stroke-opacity:1;stroke-dasharray:none"
       id="path3002-1-4-7"
       sodipodi:cx="-283.5498"
       sodipodi:cy="-103.55923"
       sodipodi:rx="50.204582"
       sodipodi:ry="41.719299"
       d="m -233.34522,-103.55923 a 50.204582,41.719299 0 1 1 -100.40917,0 50.204582,41.719299 0 1 1 100.40917,0 z"
       transform="matrix(0.99387766,0.09268414,-0.05805204,0.43806667,695.82342,118.70093)" />
    <path
       sodipodi:type="arc"
       style="fill:#ffff00;fill-opacity:1;stroke:#000000;stroke-width:4.13872337;stroke-miterlimit:4;stroke-opacity:1;stroke-dasharray:none"
       id="path3002-1-4-1"
       sodipodi:cx="-283.5498"
       sodipodi:cy="-103.55923"
       sodipodi:rx="50.204582"
       sodipodi:ry="41.719299"
       d="m -233.34522,-103.55923 a 50.204582,41.719299 0 1 1 -100.40917,0 50.204582,41.719299 0 1 1 100.40917,0 z"
       transform="matrix(0.99387766,0.09268414,-0.05805204,0.43806667,742.49246,152.64205)" />
    <path
       sodipodi:type="arc"
       style="fill:#ffff00;fill-opacity:1;stroke:#000000;stroke-width:4.13872337;stroke-miterlimit:4;stroke-opacity:1;stroke-dasharray:none"
       id="path3002-1-4-15"
       sodipodi:cx="-283.5498"
       sodipodi:cy="-103.55923"
       sodipodi:rx="50.204582"
       sodipodi:ry="41.719299"
       d="m -233.34522,-103.55923 a 50.204582,41.719299 0 1 1 -100.40917,0 50.204582,41.719299 0 1 1 100.40917,0 z"
       transform="matrix(0.99387766,0.09268414,-0.05805204,0.43806667,782.09044,132.84306)" />
    <path
       sodipodi:type="arc"
       style="fill:#ffff00;fill-opacity:1;stroke:#000000;stroke-width:4.13872337;stroke-miterlimit:4;stroke-opacity:1;stroke-dasharray:none"
       id="path3002-1-4-2"
       sodipodi:cx="-283.5498"
       sodipodi:cy="-103.55923"
       sodipodi:rx="50.204582"
       sodipodi:ry="41.719299"
       d="m -233.34522,-103.55923 a 50.204582,41.719299 0 1 1 -100.40917,0 50.204582,41.719299 0 1 1 100.40917,0 z"
       transform="matrix(0.99387766,0.09268414,-0.05805204,0.43806667,623.69852,135.67149)" />
    <path
       sodipodi:type="arc"
       style="fill:#ffff00;fill-opacity:1;stroke:#000000;stroke-width:4.13872337;stroke-miterlimit:4;stroke-opacity:1;stroke-dasharray:none"
       id="path3002-1-4-76"
       sodipodi:cx="-283.5498"
       sodipodi:cy="-103.55923"
       sodipodi:rx="50.204582"
       sodipodi:ry="41.719299"
       d="m -233.34522,-103.55923 a 50.204582,41.719299 0 1 1 -100.40917,0 50.204582,41.719299 0 1 1 100.40917,0 z"
       transform="matrix(0.99387766,0.09268414,-0.05805204,0.43806667,677.43864,155.47048)" />
    <path
       sodipodi:type="arc"
       style="fill:#ffff00;fill-opacity:1;stroke:#000000;stroke-width:4.13872337;stroke-miterlimit:4;stroke-opacity:1;stroke-dasharray:none"
       id="path3002-1-4-14"
       sodipodi:cx="-283.5498"
       sodipodi:cy="-103.55923"
       sodipodi:rx="50.204582"
       sodipodi:ry="41.719299"
       d="m -233.34522,-103.55923 a 50.204582,41.719299 0 1 1 -100.40917,0 50.204582,41.719299 0 1 1 100.40917,0 z"
       transform="matrix(0.99791477,-0.02343622,-0.00675371,0.44184481,673.99628,45.154098)" />
    <path
       sodipodi:type="arc"
       style="fill:#ffff00;fill-opacity:1;stroke:#000000;stroke-width:4.13872337;stroke-miterlimit:4;stroke-opacity:1;stroke-dasharray:none"
       id="path3002-1-4-23"
       sodipodi:cx="-283.5498"
       sodipodi:cy="-103.55923"
       sodipodi:rx="50.204582"
       sodipodi:ry="41.719299"
       d="m -233.34522,-103.55923 a 50.204582,41.719299 0 1 1 -100.40917,0 50.204582,41.719299 0 1 1 100.40917,0 z"
       transform="matrix(0.99791477,-0.02343622,-0.00675371,0.44184481,613.1851,46.568312)" />
    <path
       sodipodi:type="arc"
       style="fill:#ffff00;fill-opacity:1;stroke:#000000;stroke-width:4.13872337;stroke-miterlimit:4;stroke-opacity:1;stroke-dasharray:none"
       id="path3002-1-4-22"
       sodipodi:cx="-283.5498"
       sodipodi:cy="-103.55923"
       sodipodi:rx="50.204582"
       sodipodi:ry="41.719299"
       d="m -233.34522,-103.55923 a 50.204582,41.719299 0 1 1 -100.40917,0 50.204582,41.719299 0 1 1 100.40917,0 z"
       transform="matrix(0.99791477,-0.02343622,-0.00675371,0.44184481,597.62875,84.752078)" />
  </g>
</svg>
