<?xml version="1.0" encoding="UTF-8" standalone="no"?>
<!-- Created with Inkscape (http://www.inkscape.org/) -->

<svg
   xmlns:dc="http://purl.org/dc/elements/1.1/"
   xmlns:cc="http://creativecommons.org/ns#"
   xmlns:rdf="http://www.w3.org/1999/02/22-rdf-syntax-ns#"
   xmlns:svg="http://www.w3.org/2000/svg"
   xmlns="http://www.w3.org/2000/svg"
   xmlns:sodipodi="http://sodipodi.sourceforge.net/DTD/sodipodi-0.dtd"
   xmlns:inkscape="http://www.inkscape.org/namespaces/inkscape"
   id="svg2"
   version="1.1"
   inkscape:version="0.48.2 r9819"
   width="257.66882"
   height="244.16757"
   sodipodi:docname="Rabbit Dot to Dot.svg">
  <title
     id="title2841">Direct Action Rabbit</title>
  <metadata
     id="metadata8">
    <rdf:RDF>
      <cc:Work
         rdf:about="">
        <dc:format>image/svg+xml</dc:format>
        <dc:type
           rdf:resource="http://purl.org/dc/dcmitype/StillImage" />
        <dc:title>Direct Action Rabbit</dc:title>
        <cc:license
           rdf:resource="http://creativecommons.org/licenses/publicdomain/" />
      </cc:Work>
      <cc:License
         rdf:about="http://creativecommons.org/licenses/publicdomain/">
        <cc:permits
           rdf:resource="http://creativecommons.org/ns#Reproduction" />
        <cc:permits
           rdf:resource="http://creativecommons.org/ns#Distribution" />
        <cc:permits
           rdf:resource="http://creativecommons.org/ns#DerivativeWorks" />
      </cc:License>
    </rdf:RDF>
  </metadata>
  <defs
     id="defs6">
    <inkscape:perspective
       sodipodi:type="inkscape:persp3d"
       inkscape:vp_x="0 : 0.5 : 1"
       inkscape:vp_y="0 : 1000 : 0"
       inkscape:vp_z="1 : 0.5 : 1"
       inkscape:persp3d-origin="0.5 : 0.33333333 : 1"
       id="perspective10" />
  </defs>
  <sodipodi:namedview
     pagecolor="#ffffff"
     bordercolor="#666666"
     borderopacity="1"
     objecttolerance="10"
     gridtolerance="10"
     guidetolerance="10"
     inkscape:pageopacity="0"
     inkscape:pageshadow="2"
     inkscape:window-width="1366"
     inkscape:window-height="706"
     id="namedview4"
     showgrid="false"
     inkscape:zoom="1.5658006"
     inkscape:cx="147.66009"
     inkscape:cy="137.24891"
     inkscape:window-x="-8"
     inkscape:window-y="-8"
     inkscape:window-maximized="1"
     inkscape:current-layer="layer4" />
  <g
     inkscape:groupmode="layer"
     id="layer2"
     inkscape:label="Background Rabbit"
     style="display:none">
    <path
       style="fill:#000000"
       d="m 49.560417,243.49741 c 0.64568,-1.04473 10.58932,-32.16044 10.58932,-33.13617 0,-0.38266 -3.62951,-0.65358 -8.06558,-0.60205 l -8.06558,0.0937 -3.93442,-4.21128 c -3.26575,-3.49556 -3.93442,-4.91393 -3.93442,-8.34571 0,-4.93559 2.37005,-9.33496 5.89397,-10.94056 1.40989,-0.64239 8.05662,-1.65503 14.77052,-2.25032 l 12.20709,-1.08234 4.46696,-14.0849 c 2.45683,-7.74669 4.73851,-15.01064 5.07041,-16.14211 0.49719,-1.69496 -0.67431,-2.93847 -6.65275,-7.06169 C 56.400407,135.0401 1.5723571,96.058764 0.18544708,94.742544 -1.0660729,93.554814 3.4515771,93.352894 31.276457,93.352894 c 17.90541,0 39.37684,-0.29526 47.71429,-0.65613 l 15.158989,-0.65613 0,-2.97076 c 0,-1.63392 -1.76726,-6.17616 -3.92724,-10.09387 -2.15998,-3.91771 -5.17421,-10.72311 -6.69828,-15.123108 -2.480159,-7.160237 -2.776469,-9.4171 -2.822759,-21.5 -0.03834,-10.0081 0.33627,-14.322412 1.448279,-16.679518 l 1.5,-3.179517 4,1.370706 c 5.57126,1.909142 12.686004,10.115288 18.054604,20.824202 3.98676,7.952522 4.51823,8.602348 5.31607,6.5 1.11601,-2.940721 13.56052,-41.8585882 15.22649,-47.6179692 0.68126,-2.355153 1.54962,-3.93015297 1.92969,-3.49999997 0.38008,0.430153 1.92769,4.23641097 3.43915,8.45835197 1.51146,4.2219412 3.86872,8.7219412 5.23837,10.0000002 5.1621,4.816919 7.64257,12.007015 9.31042,26.988019 0.82257,7.388567 2.56789,13.981905 7.41184,27.999993 l 6.33592,18.33573 49.36873,-0.36643 c 32.57634,-0.2418 49.02858,-0.0298 48.36872,0.62332 -0.55,0.54437 -13.6,10.324366 -29,21.733336 -45.72002,33.87132 -48.46417,35.9656 -48.49392,37.00977 -0.0413,1.45065 8.19294,25.84174 9.06579,26.85413 0.40502,0.46978 5.84441,-1.66772 12.08754,-4.75 7.2814,-3.59487 12.60412,-5.60063 14.84587,-5.59436 4.26608,0.0119 12.73301,3.86742 15.60941,7.10788 5.73837,6.46469 9.47813,16.88235 6.06046,16.88235 -0.72866,0 -4.57542,-1.10559 -8.54834,-2.45687 -8.61377,-2.92973 -11.30109,-2.34254 -13.86262,3.02905 -1.66682,3.49535 -1.65819,3.66664 0.25535,5.06841 1.08925,0.79794 5.24296,2.39959 9.23046,3.55924 8.36874,2.43379 9.23684,4.20179 4,8.14647 -3.65845,2.75575 -9.41088,4.85123 -18.25,6.64804 -3.3,0.67083 -6.55239,1.37852 -7.22753,1.57266 -0.86192,0.24785 0.0895,4.15407 3.19448,13.11518 2.4321,7.01921 4.32063,12.86358 4.19673,12.98748 -0.1239,0.1239 -11.38502,-7.62609 -25.0247,-17.2222 -13.63969,-9.5961 -25.21333,-17.44746 -25.7192,-17.44746 -0.50588,0 -0.91978,0.64234 -0.91978,1.42742 0,0.78508 -1.13728,2.322 -2.52729,3.41538 l -2.52728,1.98797 2.52728,3.72416 c 1.74219,2.56726 2.52729,5.07157 2.52729,8.06156 0,6.34708 -2.30192,7.52437 -15.10348,7.72445 l -10.17696,0.15906 -2.46871,-3.06415 -2.4687,-3.06415 -2.81415,2.81415 c -2.62473,2.62473 -3.36225,2.81415 -10.95682,2.81415 -13.64512,0 -16.692664,-3.49511 -12.02153,-13.78704 l 1.94573,-4.28703 -2.46769,-0.93821 c -1.76081,-0.66946 -2.46769,-1.69209 -2.46769,-3.56996 0,-1.91567 -0.403714,-2.47682 -1.483754,-2.06237 -0.81607,0.31316 -12.03704,8.2363 -24.935489,17.60699 -21.97614,15.96561 -25.49038,18.31843 -24.17008,16.18214 z M 121.46192,231.4243 c 4.44831,-1.69124 6.15148,-10.60775 2.68782,-14.07141 -5.5945,-5.5945 -20,0.9426 -20,9.07584 0,3.37682 1.11326,4.17433 7,5.01461 6.87764,0.98171 7.68393,0.98022 10.31218,-0.019 l 0,-4e-5 z m 33.43782,-1.33116 c 2.34301,-1.84655 1.41184,-6.59303 -2.03029,-10.34903 -5.62508,-6.13803 -16.93256,-6.60901 -19.57238,-0.81524 -1.30887,2.87267 -1.49189,8.33349 -0.34006,10.14642 1.82962,2.87972 18.59361,3.65735 21.94273,1.01785 z m -12.75,-18.33033 c 6.325,-0.36026 12.0625,-1.10497 12.75,-1.65491 1.80765,-1.44597 1.50801,-8.13981 -0.75,-16.75501 -3.13682,-11.96818 -3.17838,-11.86428 4.5,-11.24794 3.575,0.28697 6.49832,0.12265 6.49626,-0.36515 -0.008,-1.91114 -3.99379,-7.28064 -7.16112,-9.64731 -5.78981,-4.32624 -9.94376,-5.13007 -17.15921,-3.32051 -7.34055,1.84094 -20.95076,2.06121 -28.8864,0.46751 -4.41559,-0.88678 -6.12115,-0.83589 -8.37945,0.25 -3.43745,1.65288 -7.410084,7.2881 -7.410084,10.51128 0,2.77782 2.4467,3.16323 3.875314,0.61045 2.25913,-4.03684 2.73584,-0.12724 2.10232,17.24167 -0.48884,13.40262 0.0373,14.2898 8.78323,14.8098 6.76873,0.40244 10.01803,0.30884 31.23914,-0.89988 z m 80.75,-3.38662 c 2.8875,-1.24827 5.25,-2.63184 5.25,-3.0746 0,-1.17602 -10.5958,-4.9487 -13.89873,-4.9487 -2.50658,0 -3.06408,0.62814 -4.96403,5.593 -1.17717,3.07615 -1.91343,5.96011 -1.63613,6.40879 0.63104,1.02105 8.33117,-0.98794 15.24889,-3.97849 z m -13.56291,-9.77264 c 6.5808,-16.61393 6.85754,-16.81502 18.44819,-13.40499 4.18698,1.23183 7.82157,2.03081 8.07687,1.77552 1.22539,-1.2254 -5.48117,-10.15294 -9.5797,-12.75215 -7.17282,-4.54887 -11.33549,-4.05404 -26.51251,3.15163 -15.7381,7.47206 -21.4168,8.97933 -33.83004,8.97933 -10.95501,0 -10.50036,-0.41121 -8.72061,7.88748 l 1.06929,4.98592 5.68071,0.6487 c 9.91347,1.13204 22.31343,4.41792 28.89016,7.65563 3.50063,1.72335 6.59964,3.51337 6.88669,3.97782 0.28704,0.46445 1.33705,0.84445 2.33336,0.84445 1.39672,0 3.05839,-3.14799 7.25759,-13.74934 z m -16.28106,6.28525 c -1.97668,-0.72775 -5.06677,-2.08479 -6.86687,-3.01566 -2.94045,-1.52057 -3.21747,-2.03405 -2.72719,-5.05527 0.88686,-5.46507 3.60788,-10.22805 6.21728,-10.88297 2.56789,-0.64449 9.8657,1.78114 12.72075,4.2281 0.9625,0.82493 1.75,2.31808 1.75,3.31813 0,2.13178 -4.04633,11.03846 -5.5,12.10645 -1.23872,0.91007 -1.21647,0.91285 -5.59397,-0.69878 z m 0.59397,-5.07202 c -1.65,-0.75553 -3.675,-1.35743 -4.5,-1.33757 -0.825,0.0199 -0.15,0.65427 1.5,1.40979 1.65,0.75553 3.675,1.35743 4.5,1.33757 0.825,-0.0199 0.15,-0.65427 -1.5,-1.40979 z m 2.95,-3.39313 c -0.5225,-0.51108 -2.3,-1.19014 -3.95,-1.50903 -2.80757,-0.5426 -2.7755,-0.48787 0.5,0.85316 4.30339,1.76187 4.64761,1.82731 3.45,0.65587 z m 2.11086,-3.97229 c -0.58577,-0.94779 -6.56086,-3.29597 -6.56086,-2.57839 0,0.53155 5.2368,3.38682 6.30902,3.43988 0.44496,0.022 0.55828,-0.36565 0.25184,-0.86149 z M 76.002827,204.9686 c 16.028169,-0.99931 21.572949,-1.67848 22.234689,-2.7235 0.48488,-0.76572 0.88849,-4.36464 0.89691,-7.99761 l 0.0153,-6.60539 -6.75,-0.6375 c -14.190319,-1.34018 -42.588509,0.006 -48.636199,2.30503 -5.22018,1.9847 -5.39876,10.42821 -0.33489,15.83369 1.82508,1.9482 2.82369,2.20572 6.68339,1.7235 2.49573,-0.31181 14.14659,-1.16601 25.8908,-1.89822 z M 137.9419,166.77605 c 16.67372,-3.41104 27.17817,-14.80237 30.28086,-32.83745 1.48775,-8.64787 0.6652,-19.12841 -1.96855,-25.08245 -2.47876,-5.60365 -11.4903,-15.225566 -19.87991,-21.226456 -5.84393,-4.18002 -6.2382,-4.70485 -5.73383,-7.63273 4.04262,-23.46736 3.03596,-45.315763 -2.50795,-54.431983 -2.86586,-4.712529 -4.66725,-4.058855 -7.95132,2.885314 -4.28539,9.06145 -5.38241,17.695088 -4.78566,37.663461 0.58449,19.558248 1.29733,17.951918 -8.20429,18.487718 -3.958,0.2232 -4.60558,-0.0489 -5.7688,-2.42395 -0.72067,-1.47146 -2.01683,-7.77146 -2.88037,-14 -1.93714,-13.972321 -5.98261,-24.881843 -12.245414,-33.022505 -5.36096,-6.968407 -9.45677,-9.892286 -11.28968,-8.059375 -0.68737,0.687375 -1.37395,5.495758 -1.6405,11.489146 -0.70658,15.887141 2.75233,29.253004 10.82647,41.835454 4.61115,7.18585 4.79446,10.08718 0.94448,14.94819 -7.57144,9.559716 -12.60025,31.114616 -10.09213,43.257726 1.55759,7.54109 4.82062,13.28864 10.5344,18.55542 10.853424,10.00433 24.856214,13.17577 42.362194,9.59447 z m -11.29049,-10.42046 c -0.9248,-1.49635 0.35813,-3.0027 2.55735,-3.0027 2.49639,0 2.49731,1.6319 0.002,2.96752 -1.28965,0.6902 -2.14691,0.70199 -2.55902,0.0352 l -3.3e-4,-2e-5 z M 97.284216,135.62871 c -1.34406,-2.4017 0.39959,-5.27582 3.200704,-5.27582 2.68424,0 4.66482,1.73781 4.66482,4.09301 0,3.11427 -6.257974,4.05534 -7.865524,1.18281 z m 49.532194,-4.94249 c -0.36667,-0.36666 -0.66667,-1.66852 -0.66667,-2.89301 0,-2.28167 1.70506,-3.44032 5.06274,-3.44032 2.42182,0 3.85865,4.80258 1.82261,6.09202 -1.64497,1.04178 -5.27727,1.18273 -6.21868,0.24131 z"
       id="path2818"
       sodipodi:nodetypes="cscccsscccsssscccssscccssssssscccsssssssssssssssssssscccscccccscccsssccssscccsssccssssssssssssccssssccssssscccsssccssssssccsssccssccssccscccsssccsssssssssssssssssccsscccssccsssc"
       inkscape:connector-curvature="0" />
  </g>
  <g
     inkscape:groupmode="layer"
     id="layer1"
     inkscape:label="Traced"
     style="display:none">
    <path
       style="fill:none;stroke:#000000;stroke-width:3;stroke-linecap:round;stroke-linejoin:miter;stroke-miterlimit:4;stroke-opacity:1;stroke-dasharray:none"
       d="m 86.59375,24.15625 c -6.51408,14.919922 -1.37832,37.596645 0.90625,44.8125 2.28457,7.215853 4.78951,13.72883 9.125,23.28125 1.039191,1.117898 1.548355,2.248825 1.8125,3.34375 -8.303159,7.95576 -13.46875,19.20539 -13.46875,31.6875 0,24.10784 19.32393,43.65625 43.15625,43.65625 23.83232,0 43.15625,-19.54841 43.15625,-43.65625 0,-18.03071 -10.8306,-33.498907 -26.25,-40.15625 1.19963,-7.400571 1.82916,-13.177203 2.1875,-19.28125 0.44357,-7.555863 -0.14813,-30.822845 -10.125,-43.6875 -7.25386,7.691691 -11.01306,26.391496 -11.46875,38.40625 -0.38968,10.274382 1.0025,16.592703 -1.59375,21.28125 -1.20313,0.113977 -2.39013,0.288163 -3.5625,0.5 -0.528,-1.027587 -1.90833,-2.24705 -4.375,-3.75 -5.88104,-3.58332 -5.54676,-10.495875 -8.9375,-22.03125 C 103.76551,47.027126 95.513622,29.832209 86.59375,24.15625 z"
       id="path3004"
       inkscape:connector-curvature="0" />
  </g>
  <g
     style="display:none"
     inkscape:label="Traced copy"
     id="g3841"
     inkscape:groupmode="layer">
    <path
       style="fill:none;stroke:#000000;stroke-width:3;stroke-linecap:round;stroke-linejoin:miter;stroke-miterlimit:4;stroke-opacity:1;stroke-dasharray:none"
       d="m 144.21875,85.65625 -47.90625,7.5625 c 0.03776,0.128144 0.0943,0.247752 0.125,0.375 -8.303159,7.95576 -13.46875,19.20539 -13.46875,31.6875 0,24.10784 19.32393,43.65625 43.15625,43.65625 23.83232,0 43.15625,-19.54841 43.15625,-43.65625 0,-17.56685 -10.27383,-32.70128 -25.0625,-39.625 z"
       id="path3843"
       inkscape:connector-curvature="0" />
    <path
       sodipodi:type="arc"
       style="fill:none;stroke:#000000;stroke-width:3;stroke-linecap:round;stroke-linejoin:miter;stroke-miterlimit:4;stroke-opacity:1;stroke-dasharray:none"
       id="path3853"
       sodipodi:cx="164.04167"
       sodipodi:cy="163.89667"
       sodipodi:rx="37.82103"
       sodipodi:ry="37.82103"
       d="m 201.8627,163.89667 a 37.82103,37.82103 0 1 1 -20.01202,-33.3657"
       transform="matrix(0.42938648,-1.0598854,1.0598854,0.42938648,-118.46235,229.03195)"
       sodipodi:start="0"
       sodipodi:end="5.2026722"
       sodipodi:open="true" />
  </g>
  <g
     inkscape:groupmode="layer"
     id="layer3"
     inkscape:label="Eyes and Lines"
     style="display:inline">
    <path
       sodipodi:type="arc"
       style="fill:none;stroke:#000000;stroke-width:3;stroke-linecap:round;stroke-linejoin:miter;stroke-miterlimit:4;stroke-opacity:1;stroke-dasharray:none"
       id="path3800"
       sodipodi:cx="104.41943"
       sodipodi:cy="120.90794"
       sodipodi:rx="2.8739293"
       sodipodi:ry="2.5546036"
       d="m 107.29336,120.90794 a 2.8739293,2.5546036 0 1 1 -5.74786,0 2.8739293,2.5546036 0 1 1 5.74786,0 z"
       transform="translate(-2,12)" />
    <path
       transform="translate(45.98205,6.739832)"
       sodipodi:type="arc"
       style="fill:none;stroke:#000000;stroke-width:3;stroke-linecap:round;stroke-linejoin:miter;stroke-miterlimit:4;stroke-opacity:1;stroke-dasharray:none;display:inline"
       id="path3800-7"
       sodipodi:cx="104.41943"
       sodipodi:cy="120.90794"
       sodipodi:rx="2.8739293"
       sodipodi:ry="2.5546036"
       d="m 107.29336,120.90794 a 2.8739293,2.5546036 0 1 1 -5.74786,0 2.8739293,2.5546036 0 1 1 5.74786,0 z" />
    <path
       sodipodi:type="arc"
       style="fill:#ffffff;fill-opacity:1;stroke:#000000;stroke-width:4.3846879;stroke-linecap:round;stroke-linejoin:miter;stroke-miterlimit:4;stroke-opacity:1;stroke-dasharray:none"
       id="path3977"
       sodipodi:cx="195.99197"
       sodipodi:cy="194.71799"
       sodipodi:rx="8.5802937"
       sodipodi:ry="12.644643"
       d="m 204.57227,194.71799 a 8.5802937,12.644643 0 1 1 -17.16059,0 8.5802937,12.644643 0 1 1 17.16059,0 z"
       transform="matrix(0.79205014,0,0,0.59103401,-55.501469,83.407236)" />
    <path
       style="fill:#ffffff;stroke:#000000;stroke-width:2.38111615;stroke-linecap:round;stroke-linejoin:miter;stroke-miterlimit:4;stroke-opacity:1"
       d="m 121.53447,170.69984 11.70577,0 c 11.46056,0 17.8614,7.27516 20.68693,16.31201 2.74339,8.77412 -3.58288,15.1879 -15.03587,15.5163 l -22.20059,0.63657 c -16.30503,0.46752 -15.84317,-7.11602 -15.84317,-16.15287 0,-9.03685 9.22637,-16.31201 20.68693,-16.31201 z"
       inkscape:connector-curvature="0"
       sodipodi:nodetypes="sssssss"
       id="path19" />
    <path
       style="fill:#ffffff;stroke:#000000;stroke-width:3;stroke-linecap:round;stroke-linejoin:miter;stroke-miterlimit:4;stroke-opacity:1"
       d="m 138.97819,199.23393 8.80608,-0.2258 c 5.06456,-0.12986 6.43522,2.27219 9.14479,9.14478 1.85819,4.71314 0.20693,8.25047 -4.85464,8.4674 l -15.8058,0.67739 c -5.06157,0.21692 -8.32205,-5.44326 -6.20943,-10.04798 1.80638,-3.93722 3.85444,-7.88593 8.919,-8.01579 z"
       id="rect3824"
       inkscape:connector-curvature="0"
       sodipodi:nodetypes="sssssss" />
    <path
       style="fill:#ffffff;stroke:#000000;stroke-width:3;stroke-linecap:round;stroke-linejoin:miter;stroke-miterlimit:4;stroke-opacity:1"
       d="m 120.6886,197.20175 c 5.06621,0 7.3384,2.498 7.3384,7.56421 l 0,4.51594 c 0,5.06621 -0.24283,8.07282 -5.30623,8.2416 l -13.54784,0.4516 c -5.0634,0.16878 -7.42218,-3.90818 -5.75782,-8.6932 l 1.80638,-5.19333 c 1.77157,-7.11843 8.69009,-6.66102 15.46711,-6.88682 z"
       id="rect3826"
       inkscape:connector-curvature="0"
       sodipodi:nodetypes="cssssscc" />
    <rect
       style="fill:#ffffff;stroke:#000000;stroke-width:3;stroke-linecap:round;stroke-linejoin:miter;stroke-miterlimit:4;stroke-opacity:1;stroke-dasharray:none"
       id="rect3828"
       width="16.483196"
       height="14.225224"
       x="144.96181"
       y="168.29971"
       ry="7.1126118" />
    <rect
       style="fill:#ffffff;stroke:#000000;stroke-width:3;stroke-linecap:round;stroke-linejoin:miter;stroke-miterlimit:4;stroke-opacity:1;stroke-dasharray:none"
       id="rect3830"
       width="16.483196"
       height="12.644643"
       x="98.221779"
       y="171.91248"
       ry="6.3223214" />
    <path
       sodipodi:type="arc"
       style="fill:none;stroke:#000000;stroke-width:3;stroke-linecap:round;stroke-linejoin:miter;stroke-miterlimit:4;stroke-opacity:1;stroke-dasharray:none;display:inline"
       id="path3853-4"
       sodipodi:cx="164.04167"
       sodipodi:cy="163.89667"
       sodipodi:rx="37.82103"
       sodipodi:ry="37.82103"
       d="m 201.8627,163.89667 a 37.82103,37.82103 0 1 1 -20.01202,-33.3657"
       transform="matrix(0.42938648,-1.0598854,1.0598854,0.42938648,-116.99583,231.43097)"
       sodipodi:start="0"
       sodipodi:end="5.2026722"
       sodipodi:open="true" />
    <path
       sodipodi:type="arc"
       style="fill:#ffffff;fill-opacity:1;stroke:#000000;stroke-width:3;stroke-linecap:round;stroke-linejoin:miter;stroke-miterlimit:4;stroke-opacity:1;stroke-dasharray:none"
       id="path3975"
       sodipodi:cx="196.33066"
       sodipodi:cy="201.4919"
       sodipodi:rx="6.2094231"
       sodipodi:ry="5.8707271"
       d="m 202.54008,201.4919 a 6.2094231,5.8707271 0 0 1 -11.43038,3.17797"
       sodipodi:start="0"
       sodipodi:end="2.5695793"
       sodipodi:open="true"
       transform="matrix(0.98496096,-0.17277704,0.17277704,0.98496096,-98.36028,-10.918789)" />
  </g>
  <g
     inkscape:groupmode="layer"
     id="layer4"
     inkscape:label="Dots">
    <path
       transform="matrix(1.3807405,0,0,1.3807405,39.954837,-38.929068)"
       sodipodi:type="arc"
       style="fill:#ffffff;fill-opacity:1;stroke:#000000;stroke-width:3;stroke-linecap:round;stroke-linejoin:miter;stroke-miterlimit:4;stroke-opacity:1;stroke-dasharray:none"
       id="path3881-0"
       sodipodi:cx="43.353062"
       sodipodi:cy="96.383308"
       sodipodi:rx="0.90318882"
       sodipodi:ry="1.0160874"
       d="m 44.256251,96.383308 a 0.90318882,1.0160874 0 1 1 -1.806378,0 0.90318882,1.0160874 0 1 1 1.806378,0 z" />
    <path
       transform="matrix(1.3807405,0,0,1.3807405,81.921177,-47.298195)"
       sodipodi:type="arc"
       style="fill:#ffffff;fill-opacity:1;stroke:#000000;stroke-width:3;stroke-linecap:round;stroke-linejoin:miter;stroke-miterlimit:4;stroke-opacity:1;stroke-dasharray:none"
       id="path3881-0-1"
       sodipodi:cx="43.353062"
       sodipodi:cy="96.383308"
       sodipodi:rx="0.90318882"
       sodipodi:ry="1.0160874"
       d="m 44.256251,96.383308 a 0.90318882,1.0160874 0 1 1 -1.806378,0 0.90318882,1.0160874 0 1 1 1.806378,0 z" />
    <path
       transform="matrix(1.3807405,0,0,1.3807405,91.56785,-74.15526)"
       sodipodi:type="arc"
       style="fill:#ffffff;fill-opacity:1;stroke:#000000;stroke-width:3;stroke-linecap:round;stroke-linejoin:miter;stroke-miterlimit:4;stroke-opacity:1;stroke-dasharray:none"
       id="path3881-0-1-7"
       sodipodi:cx="43.353062"
       sodipodi:cy="96.383308"
       sodipodi:rx="0.90318882"
       sodipodi:ry="1.0160874"
       d="m 44.256251,96.383308 a 0.90318882,1.0160874 0 1 1 -1.806378,0 0.90318882,1.0160874 0 1 1 1.806378,0 z" />
    <path
       transform="matrix(1.3807405,0,0,1.3807405,82.79484,-115.07924)"
       sodipodi:type="arc"
       style="fill:#ffffff;fill-opacity:1;stroke:#000000;stroke-width:3;stroke-linecap:round;stroke-linejoin:miter;stroke-miterlimit:4;stroke-opacity:1;stroke-dasharray:none"
       id="path3881-0-1-4"
       sodipodi:cx="43.353062"
       sodipodi:cy="96.383308"
       sodipodi:rx="0.90318882"
       sodipodi:ry="1.0160874"
       d="m 44.256251,96.383308 a 0.90318882,1.0160874 0 1 1 -1.806378,0 0.90318882,1.0160874 0 1 1 1.806378,0 z" />
    <path
       transform="matrix(1.3807405,0,0,1.3807405,65.232206,-90.087807)"
       sodipodi:type="arc"
       style="fill:#ffffff;fill-opacity:1;stroke:#000000;stroke-width:3;stroke-linecap:round;stroke-linejoin:miter;stroke-miterlimit:4;stroke-opacity:1;stroke-dasharray:none"
       id="path3881-0-1-0"
       sodipodi:cx="43.353062"
       sodipodi:cy="96.383308"
       sodipodi:rx="0.90318882"
       sodipodi:ry="1.0160874"
       d="m 44.256251,96.383308 a 0.90318882,1.0160874 0 1 1 -1.806378,0 0.90318882,1.0160874 0 1 1 1.806378,0 z" />
    <path
       transform="matrix(1.3807405,0,0,1.3807405,66.896016,-48.709864)"
       sodipodi:type="arc"
       style="fill:#ffffff;fill-opacity:1;stroke:#000000;stroke-width:3;stroke-linecap:round;stroke-linejoin:miter;stroke-miterlimit:4;stroke-opacity:1;stroke-dasharray:none"
       id="path3881-0-1-9"
       sodipodi:cx="43.353062"
       sodipodi:cy="96.383308"
       sodipodi:rx="0.90318882"
       sodipodi:ry="1.0160874"
       d="m 44.256251,96.383308 a 0.90318882,1.0160874 0 1 1 -1.806378,0 0.90318882,1.0160874 0 1 1 1.806378,0 z" />
    <path
       transform="matrix(1.3807405,0,0,1.3807405,19.33339,-110.52464)"
       sodipodi:type="arc"
       style="fill:#ffffff;fill-opacity:1;stroke:#000000;stroke-width:3;stroke-linecap:round;stroke-linejoin:miter;stroke-miterlimit:4;stroke-opacity:1;stroke-dasharray:none"
       id="path3881-0-1-8"
       sodipodi:cx="43.353062"
       sodipodi:cy="96.383308"
       sodipodi:rx="0.90318882"
       sodipodi:ry="1.0160874"
       d="m 44.256251,96.383308 a 0.90318882,1.0160874 0 1 1 -1.806378,0 0.90318882,1.0160874 0 1 1 1.806378,0 z" />
    <path
       transform="matrix(1.3807405,0,0,1.3807405,44.879425,-96.474314)"
       sodipodi:type="arc"
       style="fill:#ffffff;fill-opacity:1;stroke:#000000;stroke-width:3;stroke-linecap:round;stroke-linejoin:miter;stroke-miterlimit:4;stroke-opacity:1;stroke-dasharray:none"
       id="path3881-0-1-2"
       sodipodi:cx="43.353062"
       sodipodi:cy="96.383308"
       sodipodi:rx="0.90318882"
       sodipodi:ry="1.0160874"
       d="m 44.256251,96.383308 a 0.90318882,1.0160874 0 1 1 -1.806378,0 0.90318882,1.0160874 0 1 1 1.806378,0 z" />
    <path
       transform="matrix(1.3807405,0,0,1.3807405,20.742419,-67.035331)"
       sodipodi:type="arc"
       style="fill:#ffffff;fill-opacity:1;stroke:#000000;stroke-width:3;stroke-linecap:round;stroke-linejoin:miter;stroke-miterlimit:4;stroke-opacity:1;stroke-dasharray:none"
       id="path3881-0-1-45"
       sodipodi:cx="43.353062"
       sodipodi:cy="96.383308"
       sodipodi:rx="0.90318882"
       sodipodi:ry="1.0160874"
       d="m 44.256251,96.383308 a 0.90318882,1.0160874 0 1 1 -1.806378,0 0.90318882,1.0160874 0 1 1 1.806378,0 z" />
    <path
       transform="matrix(1.3807405,0,0,1.3807405,50.62728,-45.382242)"
       sodipodi:type="arc"
       style="fill:#ffffff;fill-opacity:1;stroke:#000000;stroke-width:3;stroke-linecap:round;stroke-linejoin:miter;stroke-miterlimit:4;stroke-opacity:1;stroke-dasharray:none"
       id="path3881-0-1-5"
       sodipodi:cx="43.353062"
       sodipodi:cy="96.383308"
       sodipodi:rx="0.90318882"
       sodipodi:ry="1.0160874"
       d="m 44.256251,96.383308 a 0.90318882,1.0160874 0 1 1 -1.806378,0 0.90318882,1.0160874 0 1 1 1.806378,0 z" />
    <path
       transform="matrix(1.3807405,0,0,1.3807405,47.434027,-67.735024)"
       sodipodi:type="arc"
       style="fill:#ffffff;fill-opacity:1;stroke:#000000;stroke-width:3;stroke-linecap:round;stroke-linejoin:miter;stroke-miterlimit:4;stroke-opacity:1;stroke-dasharray:none"
       id="path3881-0-1-1"
       sodipodi:cx="43.353062"
       sodipodi:cy="96.383308"
       sodipodi:rx="0.90318882"
       sodipodi:ry="1.0160874"
       d="m 44.256251,96.383308 a 0.90318882,1.0160874 0 1 1 -1.806378,0 0.90318882,1.0160874 0 1 1 1.806378,0 z" />
  </g>
</svg>
