<?xml version="1.0" encoding="UTF-8" standalone="no"?>
<!-- Created with Inkscape (http://www.inkscape.org/) -->
<svg
   xmlns:dc="http://purl.org/dc/elements/1.1/"
   xmlns:cc="http://creativecommons.org/ns#"
   xmlns:rdf="http://www.w3.org/1999/02/22-rdf-syntax-ns#"
   xmlns:svg="http://www.w3.org/2000/svg"
   xmlns="http://www.w3.org/2000/svg"
   xmlns:sodipodi="http://sodipodi.sourceforge.net/DTD/sodipodi-0.dtd"
   xmlns:inkscape="http://www.inkscape.org/namespaces/inkscape"
   width="217.09546"
   height="258.05435"
   id="svg2555"
   sodipodi:version="0.32"
   inkscape:version="0.46"
   version="1.0"
   sodipodi:docname="restrant table.svg"
   inkscape:output_extension="org.inkscape.output.svg.inkscape">
  <defs
     id="defs2557">
    <inkscape:perspective
       sodipodi:type="inkscape:persp3d"
       inkscape:vp_x="0 : 526.18109 : 1"
       inkscape:vp_y="0 : 1000 : 0"
       inkscape:vp_z="744.09448 : 526.18109 : 1"
       inkscape:persp3d-origin="372.04724 : 350.78739 : 1"
       id="perspective2563" />
  </defs>
  <sodipodi:namedview
     id="base"
     pagecolor="#ffffff"
     bordercolor="#666666"
     borderopacity="1.0"
     gridtolerance="10000"
     guidetolerance="10"
     objecttolerance="10"
     inkscape:pageopacity="0.0"
     inkscape:pageshadow="2"
     inkscape:zoom="1.4"
     inkscape:cx="115.35998"
     inkscape:cy="125.16311"
     inkscape:document-units="px"
     inkscape:current-layer="layer1"
     showgrid="false"
     inkscape:window-width="640"
     inkscape:window-height="650"
     inkscape:window-x="440"
     inkscape:window-y="155" />
  <metadata
     id="metadata2560">
    <rdf:RDF>
      <cc:Work
         rdf:about="">
        <dc:format>image/svg+xml</dc:format>
        <dc:type
           rdf:resource="http://purl.org/dc/dcmitype/StillImage" />
        <cc:license
           rdf:resource="http://creativecommons.org/licenses/publicdomain/" />
        <dc:contributor>
          <cc:Agent>
            <dc:title></dc:title>
          </cc:Agent>
        </dc:contributor>
        <dc:title>Table with wine</dc:title>
        <dc:description>Table with wine and menu

black and white trace
FROM: The Complete Book of Cheese 
by Robert Carlton Brown
Gutenberg EText-No.   14293</dc:description>
        <dc:subject>
          <rdf:Bag>
            <rdf:li>table</rdf:li>
            <rdf:li>restrant</rdf:li>
            <rdf:li>wine</rdf:li>
            <rdf:li>menu</rdf:li>
            <rdf:li>black and white</rdf:li>
            <rdf:li>tablecloth</rdf:li>
            <rdf:li>dinner</rdf:li>
          </rdf:Bag>
        </dc:subject>
      </cc:Work>
      <cc:License
         rdf:about="http://creativecommons.org/licenses/publicdomain/">
        <cc:permits
           rdf:resource="http://creativecommons.org/ns#Reproduction" />
        <cc:permits
           rdf:resource="http://creativecommons.org/ns#Distribution" />
        <cc:permits
           rdf:resource="http://creativecommons.org/ns#DerivativeWorks" />
      </cc:License>
    </rdf:RDF>
  </metadata>
  <g
     inkscape:label="Layer 1"
     inkscape:groupmode="layer"
     id="layer1"
     transform="translate(-225.73798,-174.76357)">
    <path
       style="fill:#000000"
       d="M 124.5,270.28244 C 119.54027,270.8406 115.8066,267.69925 115.92068,262.76367 C 115.11272,260.70879 111.05017,263.13094 109.058,262.69618 C 100.40224,264.16888 91.635452,263.58974 82.974735,262.52431 C 79.278883,261.16559 75.919111,268.1341 74.176503,262.35898 C 66.863386,264.37044 63.130219,254.19968 69.290245,250.45629 C 73.327624,248.97643 71.392437,258.25581 76.949894,254.44567 C 84.683355,250.44141 85.056885,240.90521 88.438957,233.88874 C 90.697998,228.43227 98.198913,226.46211 97.087938,220.39404 C 102.67136,217.48555 109.58477,220.40042 115.69715,220.1149 C 121.32142,221.06652 125.07881,216.86131 131.07924,218.50345 C 136.94978,218.3678 142.74236,219.77838 147.65445,223.04726 C 156.51798,227.68322 167.63408,226.95646 176.44013,222.52189 C 180.27269,218.46798 191.39907,223.43634 185.7772,227.9296 C 183.14837,220.92246 176.03279,226.36905 171.20515,228.23538 C 160.78426,232.07669 149.69282,227.86139 140.57265,222.67405 C 135.2341,221.13245 142.07506,227.84844 144.68418,227.09696 C 149.87118,230.00928 153.42371,235.32648 152.88431,241.41961 C 153.58728,246.35002 152.4533,254.96184 159.37248,255.34858 C 162.99891,256.6839 164.40305,259.20938 165.59249,254.88419 C 168.4914,255.80443 166.6244,261.73 170.07338,260.81859 C 176.3177,260.68023 182.67886,259.46588 188.8455,260.54764 C 186.71175,265.01871 179.58658,261.05276 175.50264,263.08258 C 173.92997,263.3912 169.5252,263.91298 173.52314,263.80234 C 176.92791,264.07535 180.69317,263.32113 183.77769,264.87765 C 179.24143,267.68519 172.35739,265.69495 166.94464,265.7998 C 161.70035,265.24084 170.16082,262.58655 164.86824,263.67962 C 159.14246,264.33634 151.62572,265.71707 148.02505,259.90319 C 142.53499,252.46625 141.7305,243.02985 140.75086,234.16885 C 140.18443,228.40789 135.32557,223.25111 129.21907,224.24838 C 127.12994,224.2913 124.35515,223.62004 125.15235,226.66938 C 124.57092,234.87723 124.73979,243.31634 122.22603,251.17857 C 121.52936,256.84395 124.98686,262.17318 125.06357,266.91779 C 130.74277,268.09295 137.14493,266.17187 142.41809,268.59055 C 139.80285,272.28087 132.58878,269.8979 128.1236,270.4797 C 126.9148,270.43797 125.70416,270.40149 124.5,270.28244 z M 115.72438,256 C 116.34185,250.15808 115.43757,244.06957 117.05663,238.39475 C 120.92286,236.85026 115.22698,232.80372 117.10883,229.27761 C 116.14463,221.25159 107.80608,227.26952 104.26354,230.05268 C 98.574652,234.21609 95.141883,240.55663 92.79475,247.04901 C 90.677202,251.82522 86.723654,255.30766 83.117043,258.93558 C 93.909846,259.1949 104.70281,259.55102 115.5,259.5 C 115.57479,258.33333 115.64959,257.16667 115.72438,256 z M 73.5,258 C 71.439201,254.13831 67.811248,260.99021 73.5,258 z M 86.955498,251.69966 C 90.403808,244.986 76.22408,258.96402 81.927482,255.86677 C 83.740702,254.67387 85.595481,253.41597 86.955498,251.69966 z M 150.75,237.48177 C 150.59198,231.15208 147.27596,237.67628 149.875,240 C 150.7821,239.61224 150.64473,238.26691 150.75,237.48177 z M 81.270836,240.39583 C 84.95483,239.27071 82.8255,242.20848 81.270836,240.39583 z M 86.306023,227.90602 C 81.044536,225.10346 73.504023,228.47293 69.304256,223.51211 C 64.179862,220.70423 61.894293,212.71777 54.672811,216.38597 C 50.071659,220.32541 43.57188,218.4382 38.08378,217.625 C 33.721867,215.97671 29.947007,212.40666 31.648632,207.48333 C 25.291416,207.82492 23.035371,201.78739 19.002192,198.77041 C 24.469941,193.16415 26.684161,185.20023 30.306066,178.36754 C 32.765841,173.51368 35.106921,168.57705 36.239953,163.22269 C 41.40218,152.12954 45.052045,140.33094 48.317057,128.54525 C 49.654234,122.12085 57.553769,123.37266 62.500276,122.35678 C 67.70472,120.85253 75.151818,123.57153 78.791613,119.5 C 81.42181,110.57078 80.120176,101.0883 81.075597,91.922279 C 80.591263,86.492461 83.44779,82.308811 85.745679,77.25266 C 91.763161,68.790625 92.145084,58.08315 92.988159,48.121591 C 92.565043,43.772068 87.596624,39.423265 93.620495,36.936647 C 94.011599,34.139332 93.562118,31.309544 93.5,28.5 C 96.207567,29.057644 101.26244,27.972491 101.70368,31.491529 C 99.541796,36.48972 104.11063,41.150558 101.53243,46.404956 C 101.56294,54.037755 101.34734,61.891877 103.36981,69.300725 C 104.98825,74.547681 109.49408,79.079373 109.59804,84.542945 C 107.51526,83.815862 105.0478,80.66751 106.14798,85.881043 C 105.30962,89.026824 108.75923,91.784669 108.29929,87.118359 C 103.79581,83.210701 115.4949,86.719012 110.70129,89.982551 C 111.91707,92.792064 111.9901,95.926146 108.63837,97.5 C 111.23463,100.32023 109.81609,105.0256 110.09562,108.61522 C 112.3897,112.5758 107.35201,122.45345 115.39168,119.58039 C 121.56149,118.44698 128.8598,119.16926 133.71698,114.54342 C 138.0738,110.85482 137.1129,103.05495 137.51732,97.606477 C 132.22385,97.5431 129.29801,93.123583 126.90552,89.311538 C 122.57737,87.883477 112.35179,90.590502 114.11149,83.101292 C 115.66452,70.150326 118.03553,57.307887 119.77888,44.38125 C 121.95166,35.56734 122.26832,26.291595 124.22256,17.380079 C 123.75149,9.014319 132.94018,14.495186 137.85075,13.577972 C 150.80968,14.370614 163.8113,13.906759 176.76734,14.415851 C 181.96065,14.188512 178.19673,17.609446 178.39809,19.568359 C 183.00933,21.176376 178.98611,29.9882 177.61406,33.856728 C 176.59972,41.304575 176.78184,48.921191 175.09212,56.308388 C 174.16156,63.052141 171.72195,69.451805 170.11635,76 C 168.46642,81.159665 172.46851,92.704668 164.65331,92.506055 C 159.20599,93.119814 153.28831,91.631208 148.15694,93.684053 C 143.32616,95.256554 138.56733,97.863909 139.90462,104 C 139.24077,109.48777 140.0248,114.58858 143.6841,118.68558 C 148.99113,120.79056 155.1071,119.41766 160.74075,120.11022 C 167.12609,120.27637 173.47673,121.16743 179.80748,121.76905 C 182.73338,118.3318 182.35908,111.07189 177.9645,108.50495 C 171.71858,106.19918 169.04152,99.709281 170.69719,93.475216 C 171.49899,88.271154 171.08719,79.500134 178.60843,79.892221 C 185.13913,79.240981 192.13354,78.252571 198.10869,81.684713 C 200.52574,82.154451 201.59485,83.511585 201,85.964152 C 200.71716,91.450862 201.8799,97.252096 199.75294,102.44116 C 197.7409,108.99026 189.38381,107.04868 186.71539,112.21579 C 182.90512,114.41447 185.88139,119.1019 186.88421,121.57156 C 193.60915,121.45681 200.21442,123.56882 206.92105,124.14515 C 212.13017,125.48268 218.56661,123.81802 222.74785,127.80501 C 225.8386,133.04289 224.55353,139.59686 225.66121,145.40098 C 226.99925,156.19223 227.12164,167.21392 229.83374,177.78143 C 231.32169,183.02485 232.9248,188.32526 235.72737,193.0089 C 238.24596,199.67949 226.9958,199.42401 229.62552,205.57781 C 231.18911,213.40167 220.9631,211.48809 217.29262,215.07986 C 211.50419,216.05372 214.04046,224.85289 207.57141,224.06567 C 202.29679,229.54202 195.42335,227.68541 190.47776,222.72535 C 187.58637,222.00079 185.36883,216.02049 190.01312,219.05052 C 194.83259,221.51006 201.59741,226.89231 206.1423,221.0115 C 207.44147,219.46974 209.84306,218.36322 209.06325,216.00068 C 208.94309,207.63983 208.08746,199.23527 208.75499,190.90475 C 210.70673,198.50987 209.93436,206.86144 211.35741,214.69069 C 215.56084,210.27583 222.43861,210.79303 226.55808,206.84053 C 224.22217,197.92242 224.44097,188.51796 222.67277,179.45988 C 221.79763,170.49849 220.03083,161.51558 220.34485,152.50727 C 223.39639,154.94182 222.24061,163.67532 223.85642,168.50141 C 225.63481,177.94538 226.06861,187.75712 229.30577,196.85502 C 234.0489,198.20646 230.7072,188.98765 229.57445,186.12101 C 226.33769,173.98868 224.93842,161.51063 223.36095,149.09263 C 222.2419,143.09792 221.21896,137.0389 220.69352,130.99444 C 216.00285,128.71216 210.05654,129.04993 204.82615,128.77786 C 195.6608,131.02184 186.07524,130.85856 176.70506,130.22853 C 169.97077,128.02329 180.83497,126.72909 183.14161,127.26446 C 188.83346,126.45653 194.34151,128.92372 199.95003,127.75402 C 202.76361,126.32423 193.00428,125.63001 190.97278,124.76269 C 185.37685,123.97038 180.22617,125.71413 174.48491,124.26907 C 167.12347,124.17435 159.75787,123.63613 152.44263,123.07471 C 153.90504,128.79351 161.56345,124.69036 165.42908,126.88525 C 161.88844,129.67841 154.44366,128.40329 149.38177,129.10594 C 136.73178,129.70524 124.00469,129.42547 111.42058,130.9549 C 106.52824,132.34919 115.9884,131.62423 117.50662,133.21662 C 142.31063,134.44423 167.16559,133.67096 191.98672,134.22489 C 198.64009,134.02657 205.27247,132.86364 211.88828,132.6455 C 212.72306,137.91138 202.9852,134.95263 199.19668,136.3308 C 187.63548,137.56842 175.97715,136.56614 164.37055,136.84334 C 148.1648,136.69028 131.95174,137.15651 115.75438,136.82728 C 103.16764,136.40445 90.635718,135.11958 78.115228,133.91886 C 73.662733,135.90823 71.394875,129.66703 76.5,130 C 82.24973,129.09639 77.120771,122.35437 72.940779,124.88097 C 66.67643,125.61683 60.289655,125.94849 54.166064,127.49757 C 50.014461,131.13748 51.537748,137.89519 48.118511,142.28833 C 43.8131,153.85656 39.443252,165.41008 34.150183,176.57632 C 31.148104,183.94459 27.865702,191.19291 23.955059,198.12814 C 25.835069,200.6506 28.399531,205.76142 32.020754,202.9186 C 34.727664,197.2351 35.488584,190.71192 37.204224,184.64114 C 38.953849,178.3151 39.522731,171.67353 41.56364,165.45902 C 44.786368,165.39487 41.003197,173.63933 41.29537,176.58465 C 40.274018,184.97039 36.22249,192.75367 36.529311,201.32239 C 34.116522,206.39569 34.453351,215.26343 42.347562,214.53322 C 49.306444,215.18658 56.340284,209.85122 63.067162,213.16419 C 68.16247,216.42737 71.887344,222.53109 78.526211,222.81641 C 81.596732,224.45246 90.801637,223.24236 89.938281,227.54388 C 89.121154,229.08331 87.440006,229.50825 86.306023,227.90602 z M 119.8,127.8 C 124.93241,121.09759 113.78409,120.94404 110.61516,123.62343 C 108.78463,128.33473 117.35782,129.75171 119.8,127.8 z M 90,125.93358 C 87.885521,119.93489 79.976112,129.98753 88.436085,127.90779 C 89.457119,127.9354 90.16922,126.87384 90,125.93358 z M 94,126 C 91.498523,118.63404 91.612807,133.21413 94,126 z M 125.48992,125.9837 C 120.97965,123.41859 124.11404,130.0001 125.48992,125.9837 z M 138.26579,123.90838 C 135.56418,120.4582 128.89882,123.15791 125,121.79318 C 127.16158,125.19347 137.12793,128.42583 138.26579,123.90842 L 138.26579,123.90838 z M 144.20422,125 C 145.50946,120.79139 136.92816,122.02444 140.85625,125.7686 C 141.98811,125.5719 143.02874,125.00143 144.20422,125 z M 92.232002,120.01365 C 93.977936,119.61548 97.316624,120.82446 97.971678,119.32555 C 97.9451,110.66581 98.497881,101.94431 97.664645,93.331311 C 94.010516,92.090625 82.081902,93.731094 86.394287,87.452364 C 88.846402,84.673475 87.394686,79.224428 85.17127,84.905664 C 83.422595,87.772339 82.255914,91.069855 84.339344,93.231874 C 81.884583,99.902119 82.469174,107.25621 82.035678,114.28624 C 81.95537,116.61981 81.875062,118.95337 81.794754,121.28694 C 85.161602,120.19573 88.71689,120.04093 92.232002,120.01365 z M 137,118 C 133.53798,113.91627 132.78614,121.93488 137,118 z M 106.3245,106.77829 C 104.96047,105.21538 107.06612,97.654713 104.4379,96.095829 C 103.91867,99.557704 96.611561,101.3457 102.02115,103.58181 C 99.811792,99.85381 105.85627,100.84894 103.14138,104.20254 C 102.39075,107.97994 104.03748,111.74059 104.47639,115.5 C 104.86905,112.57683 104.48071,109.25526 106.3245,106.77829 z M 185.77083,110.1875 C 183.26348,105.88367 182.10319,115.26398 185.77083,110.1875 L 185.77083,110.1875 z M 195.52985,102.85537 C 198.91236,98.891663 198.35996,93.353476 199.13933,88.5 C 192.22953,88.334378 185.25168,88.938871 178.39952,87.944039 C 172.96471,81.724467 173.50984,92.86394 173.31786,96.535245 C 172.78791,103.06634 179.88522,106.55257 185.561,105.89291 C 188.99886,105.74063 192.87749,105.26939 195.52985,102.85537 z M 144.82233,91.933708 C 147.24736,90.308779 139.53606,92.722542 137.8592,92 C 134.2783,91.064473 131.63896,94.164671 136.80842,93.75826 C 139.53483,93.610795 142.3901,93.259352 144.82233,91.933708 z M 144.83902,86.703644 C 148.23656,85.568005 150.80062,90.536353 155.10907,88.983997 C 158.6669,89.01452 162.22497,88.994026 165.78291,89 C 169.0863,67.058208 171.49031,44.985 175.06351,23.086193 C 178.53396,16.176395 169.18312,17.377755 165.05705,17.424378 C 157.33161,18.26248 149.53953,18.356342 141.84934,17.090788 C 137.14379,17.280054 130.09087,15.071845 127.07526,19.589419 C 122.15688,39.328235 120.71253,59.682628 117.31455,79.691999 C 114.96484,85.591777 119.269,86.699425 124.20848,85.943739 C 128.10074,88.548213 132.43572,82.633146 134.58029,87.747186 C 137.66129,89.561679 141.7396,87.684778 144.83902,86.703644 z M 142.16667,73 C 146.12635,68.229861 144.93202,77.478176 142.16667,73 z M 134,71.5 C 136.49826,66.142926 135.95517,76.652024 134,71.5 z M 145.24953,66.75 C 147.41782,62.249636 151.4016,68.826599 146.10633,67.907792 C 145.60079,67.836806 145.00165,67.323406 145.24953,66.75 z M 129,65.468613 C 129.38753,59.870377 143.21043,66.591539 134.50346,66.978685 C 132.90387,66.771906 129.51646,67.636276 129,65.468613 z M 141.34009,63.211014 C 136.33824,63.5452 130.03364,61.317852 127.14008,58.73127 C 128.54851,50.884604 136.56641,52.68673 142.04629,54.405451 C 147.25758,56.105347 152.77785,56.052399 158.14833,56.680636 C 165.11837,59.360057 149.68703,59.35809 156.76796,62.264917 C 154.12813,65.507692 146.62754,62.547231 142.19078,63.241423 L 141.34009,63.211013 L 141.34009,63.211014 z M 151,60.118759 C 146.95549,57.43 141.66438,56.937792 136.92632,55.969637 C 134.20963,54.440539 127.86969,57.018455 133.35771,58.762238 C 139.06325,59.867823 145.09282,60.720649 150.79822,60.374028 L 151,60.11876 L 151,60.118759 z M 142.5,47.958523 C 137.3913,46.332125 129.25348,45.914792 129.0517,38.869012 C 127.94743,36.191402 132.33533,27.649494 132.43245,34.135638 C 129.05152,40.613298 136.95654,44.746302 142.36292,45.081994 C 149.6817,46.627555 159.21145,44.014574 161.43123,36.045003 C 162.8517,30.163038 156.06961,26.751984 151.43628,25.315324 C 145.99258,24.98401 139.00363,24.296231 135.51822,29.464795 C 130.35749,33.046619 135.20751,23.467663 138.61076,24.01674 C 147.63151,19.367038 160.33865,23.278665 164.58455,32.596047 C 166.55529,39.602539 159.40864,45.042921 153.62194,47.203201 C 150.10324,48.502915 146.14823,49.060922 142.5,47.958523 z M 143,39 C 145.69252,34.970015 145.35666,42.893393 143,39 z M 155,33.559017 C 157.25697,29.861482 157.92643,35.465286 155,33.559017 z M 102,85.940987 C 99.919227,80.939505 101.17086,91.656327 102,85.940983 L 102,85.940987 z M 98.547333,85.923409 C 99.614899,81.800748 91.814061,80.980164 95.715468,84.440625 C 95.871228,86.224337 96.915001,88.295245 98.547333,85.923409 z M 92.5,85 C 88.04239,81.532917 91.096196,88.642171 92.5,85 z M 194.67902,84.65432 C 192.77912,80.503086 183.26889,81.546848 179.26889,83.629761 C 181.63419,87.403867 189.59432,85.018678 193.96927,84.938505 L 194.67901,84.65432 L 194.67902,84.65432 z M 93.29007,79.904778 C 94.221371,78.617838 93.711875,70.197315 91.607777,74.213176 C 88.120434,76.767621 87.553936,85.7767 93.29007,79.904778 z M 102,71.440987 C 99.250089,69.431617 99.555449,75.161388 102,71.440987 z M 95.369713,64.75 C 95.869975,61.252216 96.780605,56.382257 95.110751,53.55 C 94.156859,56.674159 92.046989,66.116503 94.718044,66.339062 L 95.074931,65.623633 L 95.369714,64.75 L 95.369713,64.75 z M 101.02981,61.055695 C 99.904208,57.934107 96.231952,57.421439 99.183135,61.268561 C 99.821605,62.94144 102.78806,64.015182 101.02981,61.055695 z M 173,61 C 170.13371,57.379792 172.0394,64.149718 173,61 z M 98.862213,48.249397 C 98.350052,45.85304 101.30173,39.740482 97.776562,43.907943 C 91.651552,43.277584 96.614207,55.878878 98.920377,49.002075 L 98.862212,48.249399 L 98.862213,48.249397 z M 99,39.964817 C 96.343737,36.150702 89.838233,42.766851 96.271515,42.183102 C 97.352612,41.862584 98.841101,41.256121 99,39.964817 z M 98,33.440983 C 96.018065,29.846716 96.115861,38.247877 98,33.440983 L 98,33.440983 z M 192.43686,214.25 C 192.62258,211.83645 190.04041,204.35323 190.03041,210.75 C 190.51542,213.73556 188.19808,216.96858 188.38672,211.80987 C 187.91299,205.08481 188.09894,198.29993 187.87159,191.58666 C 190.64984,190.724 189.86105,197.25707 190.4807,199.68877 C 190.7675,203.53165 190.71982,198.49389 190.81006,197.11789 C 190.45488,194.14863 191.81654,187.95838 192.52373,194.22691 C 193.61124,202.28332 193.30979,210.51945 194.72006,218.51336 C 193.16457,220.24624 192.70465,215.10357 192.43686,214.25 z M 187.9913,159.75 C 188.61528,156.26829 185.65169,149.2791 187.97885,147.65775 C 189.50913,151.55308 191.37382,159.06932 188.69478,161.82246 C 188.13671,161.29511 188.01401,160.47529 187.9913,159.75 z M 119,132.05902 C 121.68719,128.33017 120.91724,134.42271 119,132.05902 z"
       id="path2889"
       transform="translate(206.73579,162.11024)"
       sodipodi:nodetypes="ccccccccccccccccccccccccccccccccccccccccccccccccccccccccccccccccccccccccccccccccccccccccccccccccccccccccccccccccccccccccccccccccccccccccccccccccccccccccccccccccccccccccccccccccccccccccccccccccccccccccccccccccccccccccccccccccccccccccccccccccccccccccccccccccccccccccccccccccccccccccccccccccccccccccccccccccccccccccc" />
  </g>
</svg>
