<?xml version="1.0" encoding="UTF-8" standalone="no"?>
<!-- Created with Inkscape (http://www.inkscape.org/) -->

<svg
   xmlns:dc="http://purl.org/dc/elements/1.1/"
   xmlns:cc="http://creativecommons.org/ns#"
   xmlns:rdf="http://www.w3.org/1999/02/22-rdf-syntax-ns#"
   xmlns:svg="http://www.w3.org/2000/svg"
   xmlns="http://www.w3.org/2000/svg"
   xmlns:xlink="http://www.w3.org/1999/xlink"
   xmlns:sodipodi="http://sodipodi.sourceforge.net/DTD/sodipodi-0.dtd"
   xmlns:inkscape="http://www.inkscape.org/namespaces/inkscape"
   width="744.09448819"
   height="1052.3622047"
   id="svg4262"
   version="1.1"
   inkscape:version="0.48.1 "
   sodipodi:docname="New document 3">
  <defs
     id="defs4264">
    <linearGradient
       id="linearGradient5154">
      <stop
         style="stop-color:#ff6600;stop-opacity:1;"
         offset="0"
         id="stop5156" />
      <stop
         style="stop-color:#ffbf94;stop-opacity:1;"
         offset="1"
         id="stop5158" />
    </linearGradient>
    <linearGradient
       id="linearGradient5146">
      <stop
         style="stop-color:#ffb380;stop-opacity:1;"
         offset="0"
         id="stop5148" />
      <stop
         style="stop-color:#ffffff;stop-opacity:1;"
         offset="1"
         id="stop5150" />
    </linearGradient>
    <filter
       inkscape:collect="always"
       id="filter4974"
       x="-0.18717633"
       width="1.3743527"
       y="-0.31913625"
       height="1.6382725">
      <feGaussianBlur
         inkscape:collect="always"
         stdDeviation="0.90944613"
         id="feGaussianBlur4976" />
    </filter>
    <filter
       inkscape:collect="always"
       id="filter4978"
       x="-0.15529408"
       width="1.3105882"
       y="-0.080151953"
       height="1.1603039">
      <feGaussianBlur
         inkscape:collect="always"
         stdDeviation="0.90944613"
         id="feGaussianBlur4980" />
    </filter>
    <filter
       inkscape:collect="always"
       id="filter4982"
       x="-0.10373669"
       width="1.2074734"
       y="-0.051924771"
       height="1.1038495">
      <feGaussianBlur
         inkscape:collect="always"
         stdDeviation="0.90944613"
         id="feGaussianBlur4984" />
    </filter>
    <filter
       inkscape:collect="always"
       id="filter4986">
      <feGaussianBlur
         inkscape:collect="always"
         stdDeviation="0.90944613"
         id="feGaussianBlur4988" />
    </filter>
    <filter
       inkscape:collect="always"
       id="filter4990">
      <feGaussianBlur
         inkscape:collect="always"
         stdDeviation="0.90944613"
         id="feGaussianBlur4992" />
    </filter>
    <filter
       inkscape:collect="always"
       id="filter4994">
      <feGaussianBlur
         inkscape:collect="always"
         stdDeviation="0.90944613"
         id="feGaussianBlur4996" />
    </filter>
    <filter
       inkscape:collect="always"
       id="filter5042">
      <feGaussianBlur
         inkscape:collect="always"
         stdDeviation="1.232588"
         id="feGaussianBlur5044" />
    </filter>
    <filter
       inkscape:collect="always"
       id="filter5046"
       x="-0.15668342"
       width="1.3133668"
       y="-0.010898827"
       height="1.0217977">
      <feGaussianBlur
         inkscape:collect="always"
         stdDeviation="1.232588"
         id="feGaussianBlur5048" />
    </filter>
    <filter
       inkscape:collect="always"
       id="filter5050"
       x="-0.59466797"
       width="2.1893359"
       y="-0.011178103"
       height="1.0223562">
      <feGaussianBlur
         inkscape:collect="always"
         stdDeviation="1.232588"
         id="feGaussianBlur5052" />
    </filter>
    <filter
       inkscape:collect="always"
       id="filter5054"
       x="-0.23183637"
       width="1.4636727"
       y="-0.012656405"
       height="1.0253128">
      <feGaussianBlur
         inkscape:collect="always"
         stdDeviation="1.232588"
         id="feGaussianBlur5056" />
    </filter>
    <filter
       inkscape:collect="always"
       id="filter5058"
       x="-0.11171286"
       width="1.2234257"
       y="-0.011590021"
       height="1.02318">
      <feGaussianBlur
         inkscape:collect="always"
         stdDeviation="1.232588"
         id="feGaussianBlur5060" />
    </filter>
    <filter
       inkscape:collect="always"
       id="filter5062"
       x="-0.17912368"
       width="1.3582474"
       y="-0.017994883"
       height="1.0359898">
      <feGaussianBlur
         inkscape:collect="always"
         stdDeviation="1.232588"
         id="feGaussianBlur5064" />
    </filter>
    <filter
       inkscape:collect="always"
       id="filter5066"
       x="-0.26754196"
       width="1.5350839"
       y="-0.015698503"
       height="1.031397">
      <feGaussianBlur
         inkscape:collect="always"
         stdDeviation="1.232588"
         id="feGaussianBlur5068" />
    </filter>
    <filter
       inkscape:collect="always"
       id="filter5070"
       x="-3.8677517"
       width="8.7355035"
       y="-0.019717684"
       height="1.0394354">
      <feGaussianBlur
         inkscape:collect="always"
         stdDeviation="1.232588"
         id="feGaussianBlur5072" />
    </filter>
    <filter
       inkscape:collect="always"
       id="filter5074"
       x="-0.20342964"
       width="1.4068593"
       y="-0.011960353"
       height="1.0239207">
      <feGaussianBlur
         inkscape:collect="always"
         stdDeviation="1.232588"
         id="feGaussianBlur5076" />
    </filter>
    <filter
       inkscape:collect="always"
       id="filter5078"
       x="-0.1115335"
       width="1.223067"
       y="-0.012024185"
       height="1.0240484">
      <feGaussianBlur
         inkscape:collect="always"
         stdDeviation="1.232588"
         id="feGaussianBlur5080" />
    </filter>
    <filter
       inkscape:collect="always"
       id="filter5082"
       x="-0.9411224"
       width="2.8822448"
       y="-0.032773003"
       height="1.065546">
      <feGaussianBlur
         inkscape:collect="always"
         stdDeviation="1.232588"
         id="feGaussianBlur5084" />
    </filter>
    <linearGradient
       inkscape:collect="always"
       xlink:href="#linearGradient5146"
       id="linearGradient5189"
       gradientUnits="userSpaceOnUse"
       x1="640.71429"
       y1="377.36218"
       x2="605"
       y2="475.57648" />
    <linearGradient
       inkscape:collect="always"
       xlink:href="#linearGradient5154"
       id="linearGradient5191"
       gradientUnits="userSpaceOnUse"
       x1="600.35712"
       y1="365.57648"
       x2="635.71429"
       y2="334.86218" />
  </defs>
  <sodipodi:namedview
     id="base"
     pagecolor="#ffffff"
     bordercolor="#666666"
     borderopacity="1.0"
     inkscape:pageopacity="0.0"
     inkscape:pageshadow="2"
     inkscape:zoom="0.49497475"
     inkscape:cx="330.55774"
     inkscape:cy="441.43496"
     inkscape:document-units="px"
     inkscape:current-layer="layer1"
     showgrid="false"
     inkscape:window-width="1440"
     inkscape:window-height="837"
     inkscape:window-x="-4"
     inkscape:window-y="-4"
     inkscape:window-maximized="1" />
  <metadata
     id="metadata4267">
    <rdf:RDF>
      <cc:Work
         rdf:about="">
        <dc:format>image/svg+xml</dc:format>
        <dc:type
           rdf:resource="http://purl.org/dc/dcmitype/StillImage" />
        <dc:title></dc:title>
      </cc:Work>
    </rdf:RDF>
  </metadata>
  <g
     inkscape:label="Layer 1"
     inkscape:groupmode="layer"
     id="layer1">
    <path
       style="fill:#aa4400;fill-opacity:1;fill-rule:nonzero;stroke:none"
       id="path4270"
       d="m 184.35392,187.24006 c 1.55158,0.29504 3.083,0.62279 4.62759,0.92967 2.26065,0.43185 4.53095,0.84593 6.8016,1.25978 3.64356,0.67937 7.28135,1.36887 10.92455,2.04894 4.65784,0.82633 9.32376,1.63726 13.97414,2.47778 5.27519,0.97761 10.64885,1.75688 16.04541,2.47332 6.72728,0.92205 13.54174,1.60131 20.36646,2.22959 8.36844,0.75718 16.78348,1.32223 25.20462,1.8413 9.84082,0.55942 19.69056,1.06702 29.53919,1.57872 10.10908,0.5259 20.22785,0.98587 30.35028,1.41648 10.05875,0.41227 20.11922,0.81542 30.1892,1.12494 9.75157,0.34491 19.5151,0.40213 29.2796,0.29099 11.19344,-0.16533 22.33437,-0.82522 33.44146,-1.60503 12.09081,-0.86163 24.138,-1.92712 36.12625,-3.1763 12.60616,-1.25116 25.09271,-2.84862 37.5496,-4.5154 14.03776,-1.8176 27.73424,-4.3584 41.38074,-6.95975 14.92993,-2.90295 29.55569,-6.28677 44.09875,-9.77407 17.05121,-4.18759 33.66895,-8.93163 50.33893,-13.59473 8.19999,-2.32709 16.39648,-4.65822 24.59877,-6.9826 0,0 -5.9828,9.09812 -5.9828,9.09812 l 0,0 c -8.20116,2.32125 -16.39625,4.6496 -24.59892,6.9691 -16.70326,4.66912 -33.3583,9.41561 -50.44802,13.60165 -14.58304,3.48765 -29.25101,6.86899 -44.22608,9.76195 -13.69515,2.60357 -27.45057,5.12456 -41.53545,6.94352 -12.48531,1.66707 -25.00361,3.25535 -37.63696,4.50895 -12.02119,1.23501 -24.0964,2.30025 -36.21686,3.15649 -11.16514,0.77435 -22.36364,1.43243 -33.6144,1.5861 -9.8034,0.10401 -19.60519,0.0328 -29.3946,-0.31801 -10.07899,-0.31831 -20.14934,-0.7202 -30.21753,-1.13578 -10.13115,-0.43174 -20.25838,-0.89461 -30.37606,-1.42206 -9.85931,-0.51263 -19.72044,-1.0163 -29.57213,-1.57554 -8.45255,-0.51891 -16.89862,-1.0861 -25.29777,-1.8465 -6.86447,-0.63235 -13.71797,-1.31689 -20.48614,-2.24012 -5.43834,-0.72445 -10.85303,-1.51273 -16.17042,-2.49706 -4.65739,-0.8385 -9.33043,-1.64725 -13.9936,-2.47466 -3.64245,-0.67565 -7.27926,-1.36138 -10.92572,-2.02973 -2.28874,-0.41234 -4.57611,-0.82708 -6.85235,-1.26206 -1.53905,-0.30666 -3.06904,-0.62791 -4.61805,-0.91771 0,0 7.32672,-8.97028 7.32672,-8.97028 z"
       inkscape:connector-curvature="0"
       inkscape:export-filename="E:\cristi\diplome 2010-2011\grad hat.png"
       inkscape:export-xdpi="200"
       inkscape:export-ydpi="200" />
    <path
       style="fill:#aa4400;fill-opacity:1;fill-rule:nonzero;stroke:none"
       id="path4272"
       d="m 188.98228,187.63626 c 1.08929,1.30128 1.58659,2.71747 2.0314,4.12871 0.86808,3.20754 1.28925,6.44825 1.71565,9.68312 0.59717,4.69063 0.98615,9.38885 1.35586,14.08693 0.5895,5.77782 0.40401,11.56346 -0.0962,17.3397 -0.46149,6.86458 -2.27154,13.6406 -4.61755,20.36331 -2.89748,8.04909 -7.38056,15.85095 -12.31222,23.54841 -7.78117,11.53584 -17.45755,22.61662 -27.95958,33.40005 -8.43737,8.61101 -17.95424,16.84004 -27.58393,25.01529 -9.12017,7.64394 -18.16415,15.31793 -27.234405,22.98155 0,0 5.179171,-9.29305 5.179171,-9.29305 l 0,0 c 9.061144,-7.65774 18.118774,-15.31681 27.217244,-22.95981 9.60641,-8.17946 19.06802,-16.42482 27.44981,-25.04917 1.33212,-1.38032 2.68796,-2.75309 3.99633,-4.14095 1.29704,-1.37586 3.40595,-5.69787 3.81952,-4.14978 0.44022,1.64782 -2.3319,3.0554 -3.7214,4.51709 -1.2642,1.32988 2.26348,-2.73841 3.34486,-4.12098 1.05711,-1.35155 2.07551,-2.71329 3.06995,-4.0806 0.98103,-1.34887 1.90403,-2.71156 2.85604,-4.06735 4.97814,-7.66412 9.53762,-15.42704 12.50781,-23.44529 2.40432,-6.68641 4.32373,-13.42453 4.80462,-20.26168 0.55447,-5.75234 0.79974,-11.51737 0.22115,-17.27378 -0.36655,-4.68556 -0.75265,-9.37119 -1.33623,-14.04974 -0.41296,-3.20782 -0.83007,-6.41899 -1.61043,-9.60547 -0.37011,-1.34791 -0.74539,-2.7015 -1.66064,-3.96956 0,0 8.5631,-8.59695 8.5631,-8.59695 z"
       inkscape:connector-curvature="0"
       inkscape:export-filename="E:\cristi\diplome 2010-2011\grad hat.png"
       inkscape:export-xdpi="200"
       inkscape:export-ydpi="200" />
    <path
       style="fill:#aa4400;fill-opacity:1;fill-rule:nonzero;stroke:none"
       id="path4274"
       d="m 663.12074,171.8983 c -1.68043,1.56082 -3.40845,3.1046 -5.10332,4.66036 -3.16286,2.7833 -6.19781,5.60899 -8.9869,8.52288 -4.14884,4.38016 -8.42554,8.71911 -12.55516,13.10534 -5.48339,5.78239 -10.75843,11.62979 -15.76745,17.5537 1.57727,-1.82359 2.97462,-3.70287 4.73181,-5.47082 1.04102,-1.04738 -1.73743,2.19705 -2.57716,3.303 -3.5587,4.68701 -6.66719,9.45972 -9.62633,14.28155 -4.84738,8.03709 -8.61937,16.26577 -12.16312,24.52009 -3.79205,8.93849 -6.92277,17.96106 -9.50863,27.04001 -2.51844,9.32944 -3.84003,18.74482 -4.83639,28.16313 -0.84281,9.28792 -0.98004,18.58908 -0.88403,27.8873 0.10235,8.83231 0.76328,17.65729 1.54279,26.47688 0.52625,5.56941 0.24917,2.80381 0.82999,8.29681 0,0 -8.98274,8.28267 -8.98274,8.28267 l 0,0 c -0.58846,-5.50146 -0.30888,-2.73209 -0.83738,-8.3082 -0.79458,-8.83008 -1.47047,-17.66579 -1.59774,-26.50885 -0.11228,-9.3114 -0.004,-18.6252 0.796,-27.92763 0.95607,-9.43418 2.24322,-18.86511 4.69073,-28.21506 2.52839,-9.09195 5.62921,-18.12498 9.38659,-27.076 3.50845,-8.26332 7.22759,-16.50354 12.01011,-24.5575 6.12743,-10.14259 13.28625,-20.03997 21.99076,-29.55426 5.06039,-5.92025 10.34807,-11.77436 15.84847,-17.56261 4.15993,-4.39157 8.41903,-8.75145 12.59489,-13.13798 2.86625,-2.90177 5.94346,-5.72617 9.08373,-8.53137 1.71194,-1.56046 3.42761,-3.11957 5.09669,-4.69547 0,0 -5.17621,9.45203 -5.17621,9.45203 z"
       inkscape:connector-curvature="0"
       inkscape:export-filename="E:\cristi\diplome 2010-2011\grad hat.png"
       inkscape:export-xdpi="200"
       inkscape:export-ydpi="200" />
    <path
       style="fill:#aa4400;fill-opacity:1;fill-rule:nonzero;stroke:none"
       id="path4276"
       d="m 108.43716,351.92481 c 2.20186,-0.58863 4.51783,-1.01228 6.79645,-1.48679 4.22451,-0.87554 8.45247,-1.74531 12.69077,-2.5981 5.66236,-1.11076 11.46662,-1.94379 17.29312,-2.70809 7.62291,-0.98125 15.35775,-1.61857 23.09562,-2.20564 9.89405,-0.70476 19.81882,-1.25375 29.74343,-1.79171 10.41282,-0.5636 20.83955,-1.03294 31.27288,-1.44875 12.32754,-0.4782 24.66801,-0.83344 37.00989,-1.16077 14.29593,-0.36673 28.59724,-0.65717 42.89867,-0.9414 14.15725,-0.31647 28.32045,-0.50992 42.48836,-0.50964 13.94036,0.0252 27.86632,0.40765 41.77743,0.89799 13.44348,0.49887 26.85601,1.23059 40.23617,2.1268 12.12417,0.84391 24.17136,1.98987 36.126,3.42335 10.69058,1.30703 21.2542,2.92104 31.70155,4.76507 9.3636,1.67278 18.57297,3.61213 27.7085,5.6578 8.32989,1.8566 16.41033,4.04093 24.4424,6.28452 7.51162,2.12307 14.99547,4.27827 22.46747,6.44731 4.61776,1.36719 2.32161,0.68739 6.88845,2.03939 0,0 -7.50764,8.83971 -7.50764,8.83971 l 0,0 c -4.56115,-1.35297 -2.27002,-0.67318 -6.8734,-2.03935 -7.46124,-2.17004 -14.93425,-4.32633 -22.4374,-6.44783 -7.99061,-2.23229 -16.02751,-4.40813 -24.31412,-6.25601 -9.09468,-2.03906 -18.26271,-3.97298 -27.58643,-5.63782 -10.39715,-1.83447 -20.9103,-3.43967 -31.54947,-4.73952 -11.90593,-1.42328 -23.90356,-2.56292 -35.97723,-3.40133 -13.34966,-0.89128 -26.73104,-1.6227 -40.14405,-2.11478 -13.87976,-0.48368 -27.77463,-0.85744 -41.68305,-0.87343 -14.14856,0.007 -28.29232,0.20147 -42.43041,0.51579 -14.29865,0.28416 -28.597,0.57888 -42.88914,0.95903 -12.33576,0.33808 -24.67039,0.70006 -36.99097,1.1931 -10.4224,0.42674 -20.8389,0.90098 -31.24172,1.46666 -9.90879,0.53978 -19.81848,1.08935 -29.69173,1.8193 -7.69711,0.60269 -15.38957,1.26043 -22.96559,2.26557 -5.77443,0.77846 -11.52595,1.62772 -17.12607,2.76314 -4.23463,0.86579 -8.47077,1.72911 -12.69053,2.61888 -2.24187,0.46536 -4.50379,0.91686 -6.62322,1.55215 0,0 6.08501,-9.2746 6.08501,-9.2746 z"
       inkscape:connector-curvature="0"
       inkscape:export-filename="E:\cristi\diplome 2010-2011\grad hat.png"
       inkscape:export-xdpi="200"
       inkscape:export-ydpi="200" />
    <path
       style="fill:#aa4400;fill-opacity:1;fill-rule:nonzero;stroke:none"
       id="path4280"
       d="m 216.07733,355.90632 c 11.71093,-26.60619 6.83264,-15.14545 5.35774,-8.36067 -0.79716,3.71625 -1.27784,7.48865 -1.71711,11.26067 -0.58061,5.23474 -0.98975,10.48632 -1.37358,15.7385 -0.45073,6.36296 -0.78436,12.73336 -1.10251,19.10407 -0.49372,7.01445 -0.48217,14.03225 -0.17948,21.05234 0.29355,7.36921 1.28977,14.67326 2.58785,21.92443 1.52972,8.0703 3.8321,15.959 6.1797,23.82062 2.05043,6.60319 4.06595,13.21719 6.12315,19.81824 0,0 -8.69457,14.66355 -8.69457,14.66355 l 0,0 c -2.06778,-6.60479 -4.05965,-13.23313 -6.13511,-19.83562 -2.38027,-7.89442 -4.73096,-15.80985 -6.34846,-23.90357 -1.37122,-7.28477 -2.44472,-14.62478 -2.78917,-22.03862 -0.34515,-7.04401 -0.48414,-14.0888 0.0368,-21.13115 0.30967,-6.37188 0.63423,-12.74336 1.06028,-19.10872 0.36876,-5.25731 0.76142,-10.51388 1.30452,-15.75659 0.40442,-3.78882 0.84025,-7.57923 1.56473,-11.32276 1.67499,-8.40386 3.68883,-13.84185 9.16433,-22.34936 0,0 -5.03923,16.42464 -5.03923,16.42464 z"
       inkscape:connector-curvature="0"
       inkscape:export-filename="E:\cristi\diplome 2010-2011\grad hat.png"
       inkscape:export-xdpi="200"
       inkscape:export-ydpi="200" />
    <path
       style="fill:#aa4400;fill-opacity:1;fill-rule:nonzero;stroke:none"
       id="path4282"
       d="m 548.76687,361.90636 c 1.08204,2.07185 2.45327,4.11438 3.79566,6.16099 2.48484,3.95724 4.04136,7.99352 5.48191,12.02898 1.89696,5.56801 3.21914,11.16364 4.44426,16.76071 1.48324,6.87306 2.68706,13.75258 3.09367,20.64987 0.37911,8.12651 -1.99115,16.20184 -5.01962,24.21957 -2.95947,7.24402 -6.86559,14.41806 -10.87522,21.57793 0,0 -23.55566,14.17661 -23.55566,14.17661 l 0,0 c 4.07911,-7.13813 7.9974,-14.29481 11.11889,-21.51186 3.14834,-7.95589 5.76485,-15.96442 5.60661,-24.03926 -0.26235,-6.87197 -1.3957,-13.72374 -2.88121,-20.57035 -1.19065,-5.57264 -2.478,-11.14352 -4.28962,-16.69019 -1.36031,-3.98868 -2.82848,-7.97721 -5.11953,-11.90021 -1.27011,-2.04706 -2.9369,-4.05751 -3.86,-6.13685 0,0 22.05986,-14.72594 22.05986,-14.72594 z"
       inkscape:connector-curvature="0"
       inkscape:export-filename="E:\cristi\diplome 2010-2011\grad hat.png"
       inkscape:export-xdpi="200"
       inkscape:export-ydpi="200" />
    <path
       style="fill:#aa4400;fill-opacity:1;fill-rule:nonzero;stroke:none"
       id="path4294"
       d="m 231.80153,474.98157 c 3.51354,0.66191 6.9327,1.75783 10.35961,2.76226 7.15409,2.2135 14.32703,4.35508 21.54869,6.33759 8.23056,2.22836 16.53196,4.18112 24.84705,6.06472 8.36314,1.91029 16.79206,3.49973 25.25049,4.92042 9.55167,1.55654 19.15068,2.79571 28.75473,3.97676 9.4283,1.1212 18.85869,2.23247 28.30767,3.16584 9.09407,0.95112 18.23126,1.3541 27.37032,1.47677 9.51063,-0.0188 19.01699,-0.51002 28.51051,-1.05057 8.56159,-0.4068 17.09466,-1.16097 25.61533,-2.07032 7.44747,-0.78809 14.82854,-2.05601 22.1512,-3.60838 6.60924,-1.34656 12.99269,-3.53594 19.26634,-5.97596 5.75447,-2.28535 11.2934,-5.05798 16.69184,-8.07927 4.97645,-2.77396 9.69763,-5.96636 14.32097,-9.28689 0.72074,-0.54104 1.44148,-1.08208 2.16222,-1.62314 0,0 -5.77541,16.09264 -5.77541,16.09264 l 0,0 c -0.7315,0.53659 -1.46301,1.07315 -2.1945,1.60973 -4.68563,3.29669 -9.46691,6.46267 -14.49959,9.2114 -5.47705,2.98555 -11.0846,5.73767 -16.90986,7.98445 -6.36456,2.39793 -12.82867,4.55088 -19.51595,5.86536 -7.37608,1.51567 -14.80676,2.75714 -22.30149,3.52361 -8.54404,0.89496 -17.10223,1.60995 -25.68499,2.01804 -9.53051,0.52047 -19.07263,1.01508 -28.61957,1.00078 -9.18438,-0.14676 -18.36593,-0.55826 -27.504,-1.53056 -9.45837,-0.95015 -18.89918,-2.06617 -28.3376,-3.19565 -9.62898,-1.18684 -19.2527,-2.433 -28.82966,-3.99236 -8.49043,-1.42598 -16.95082,-3.02321 -25.34379,-4.94884 -8.33777,-1.89573 -16.6612,-3.86277 -24.91549,-6.09809 -7.23231,-1.98408 -14.41858,-4.11956 -21.59582,-6.29357 -3.38238,-0.96834 -6.75881,-2.02249 -10.23094,-2.62329 0,0 7.10169,-15.63348 7.10169,-15.63348 z"
       inkscape:connector-curvature="0"
       inkscape:export-filename="E:\cristi\diplome 2010-2011\grad hat.png"
       inkscape:export-xdpi="200"
       inkscape:export-ydpi="200" />
    <path
       style="fill:#aa4400;fill-opacity:1;fill-rule:nonzero;stroke:none"
       id="path4364"
       d="m 379.7617,276.00967 c 3.20305,0.007 6.40613,0.0102 9.60922,0.0126 5.85292,0.004 11.70585,0.006 17.55879,0.007 7.34537,0.0135 14.69149,-0.026 22.03564,0.0391 8.13329,0.0654 16.24896,0.31658 24.35729,0.58357 8.11223,0.28486 16.1954,0.70814 24.26819,1.15115 36.89325,0.52193 53.29339,2.48396 85.53104,21.12953 4.80505,2.82093 9.46925,5.69505 14.03201,8.60285 4.15122,2.66794 8.15367,5.37795 12.09743,8.10278 3.60112,2.46734 7.09098,4.96265 10.47904,7.47727 3.10577,2.31247 5.88189,4.67584 8.63674,7.03676 2.64177,2.2039 5.08068,4.42679 7.4326,6.65523 l -9.70443,3.68613 0,0 c -2.31641,-2.21054 -4.71876,-4.4167 -7.34024,-6.60195 -2.70968,-2.33263 -5.44067,-4.66808 -8.49139,-6.95458 -3.35657,-2.50101 -6.82238,-4.98164 -10.39768,-7.43446 -3.91148,-2.70841 -7.88406,-5.40143 -12.00248,-8.05341 -4.52433,-2.88771 -9.15308,-5.74084 -13.91816,-8.54254 -17.75229,-11.43429 -38.77421,-14.96804 -60.35453,-16.85094 -7.62671,-0.59152 -15.2848,-1.10437 -22.96737,-1.54213 -8.04637,-0.43922 -16.10233,-0.86131 -24.18906,-1.13699 -8.07888,-0.2645 -16.16584,-0.50772 -24.2697,-0.56451 -7.33827,-0.052 -14.67778,-0.0169 -22.01682,-0.0236 -5.85777,0.002 -11.71556,0.003 -17.57334,0.007 -3.21154,0.003 -6.42308,0.006 -9.63461,0.0126 l 6.82182,-6.79909 z"
       inkscape:connector-curvature="0"
       inkscape:export-filename="E:\cristi\diplome 2010-2011\grad hat.png"
       inkscape:export-xdpi="200"
       inkscape:export-ydpi="200"
       sodipodi:nodetypes="cccccccccccccccccccccccccccc" />
    <g
       id="g5162"
       transform="matrix(0.86004932,0,0,1.0178849,80.996379,3.7123036)"
       inkscape:export-filename="E:\cristi\diplome 2010-2011\grad hat.png"
       inkscape:export-xdpi="200"
       inkscape:export-ydpi="200">
      <path
         inkscape:connector-curvature="0"
         d="m 595.82527,373.22587 c -0.26303,-0.68069 -0.41969,-1.3915 -0.56118,-2.10524 -0.25343,-1.39791 -0.40551,-2.81144 -0.55216,-4.22371 -0.17892,-1.80796 -0.33007,-3.61876 -0.41056,-5.43386 -0.075,-1.92058 0.0413,-3.84091 0.17564,-5.75602 0.12413,-1.81362 0.36222,-3.61447 0.72842,-5.39448 0.36554,-1.76766 1.0315,-3.44364 1.76453,-5.08552 1.21611,-2.70568 2.48848,-5.37167 4.21734,-7.78114 0.95826,-1.33109 2.13853,-2.46898 3.36978,-3.54252 1.21607,-1.04074 2.52099,-1.96752 3.86826,-2.82887 1.28515,-0.82513 2.66466,-1.46894 4.09434,-1.99622 1.40492,-0.50316 2.86269,-0.81042 4.32985,-1.06177 1.42324,-0.24004 2.86378,-0.33078 4.30493,-0.35864 1.37123,-0.0528 2.73511,0.0653 4.08761,0.28136 1.30254,0.201 2.56248,0.57349 3.80375,1.00672 1.20574,0.41689 2.35248,0.97869 3.47855,1.57341 1.09725,0.59649 2.11114,1.32623 3.07914,2.11157 1.02195,0.82048 1.9314,1.76651 2.80856,2.73685 0.87643,0.98704 1.70359,2.01488 2.48803,3.07604 0.75237,1.0375 1.42514,2.12851 2.06222,3.2395 0.62489,1.12074 1.16262,2.28625 1.66905,3.46427 0.50901,1.18902 0.93445,2.41087 1.34564,3.63636 0.40111,1.21365 0.7534,2.44245 1.08565,3.67647 0.31961,1.19737 0.6037,2.40372 0.87549,3.61271 0.25852,1.1556 0.4881,2.31731 0.70712,3.48095 0.20974,1.12012 0.39489,2.24458 0.57127,3.37037 0.17004,1.09132 0.31938,2.18568 0.46148,3.28094 0.1458,1.03363 0.22394,2.07425 0.2838,3.11578 0.007,0.16442 0.0137,0.32883 0.0205,0.49325 0,0 -2.05408,3.26166 -2.05408,3.26166 l 0,0 c -0.005,-0.16314 -0.009,-0.32627 -0.0136,-0.48941 -0.0547,-1.03652 -0.11574,-2.07351 -0.25909,-3.10239 -0.13928,-1.09361 -0.28569,-2.18636 -0.45256,-3.27616 -0.17304,-1.1239 -0.35476,-2.24651 -0.56083,-3.3649 -0.21515,-1.1615 -0.44075,-2.32115 -0.6951,-3.4748 -0.26729,-1.20642 -0.54686,-2.41024 -0.86126,-3.60539 -0.326,-1.22987 -0.67189,-2.45456 -1.06544,-3.66477 -0.40375,-1.21943 -0.81992,-2.43603 -1.31869,-3.62057 -0.49428,-1.16996 -1.0216,-2.32656 -1.63088,-3.44189 -0.62437,-1.10336 -1.28423,-2.18688 -2.02276,-3.21842 -0.77227,-1.05587 -1.58808,-2.07771 -2.45469,-3.05817 -0.85906,-0.96069 -1.75164,-1.89701 -2.75608,-2.70841 -0.94583,-0.77298 -1.93738,-1.49052 -3.01184,-2.07664 -1.1083,-0.58677 -2.23724,-1.14091 -3.4254,-1.54938 -1.22064,-0.42361 -2.46013,-0.78499 -3.74086,-0.97834 -1.33249,-0.20523 -2.67529,-0.30955 -4.02466,-0.2548 -1.42367,0.035 -2.8463,0.133 -4.25086,0.37965 -1.44622,0.25686 -2.88224,0.5756 -4.26265,1.08816 -1.40384,0.54078 -2.75596,1.1987 -4.01705,2.02424 -1.32831,0.86999 -2.61869,1.79844 -3.81363,2.84684 -1.20751,1.0825 -2.35608,2.23383 -3.28494,3.57095 -0.47139,0.68098 -0.92116,1.36488 -1.32678,2.08779 -0.13793,0.24583 -0.51992,0.99999 -0.40237,0.74378 0.40888,-0.8912 2.00047,-4.11952 0.8871,-1.8574 -0.74802,1.62698 -1.44397,3.28422 -1.83308,5.03958 -0.39188,1.76801 -0.642,3.56023 -0.77368,5.36691 -0.14307,1.907 -0.26887,3.81957 -0.2123,5.73301 0.0658,1.80977 0.21845,3.61435 0.39324,5.41665 0.14252,1.40285 0.29134,2.80643 0.52913,4.19696 0.12946,0.69684 0.25986,1.39594 0.51705,2.05937 0,0 -1.95837,3.33773 -1.95837,3.33773 z"
         id="path4368"
         style="fill:#aa4400;fill-opacity:1;fill-rule:nonzero;stroke:none" />
      <path
         sodipodi:nodetypes="cccccccccccccccccccccccccccccccccccc"
         inkscape:connector-curvature="0"
         d="m 597.77508,368.45757 c 0.47212,0.14152 0.93981,0.29714 1.40973,0.44574 0.79162,0.24911 1.59063,0.47361 2.39404,0.68137 0.92204,0.23601 1.85424,0.42908 2.7876,0.61413 0.99556,0.19453 1.99764,0.35247 3.00145,0.4974 1.16898,0.1633 2.34297,0.28662 3.51744,0.4024 1.28318,0.12547 2.56846,0.22777 3.85403,0.32519 1.3345,0.0984 2.66999,0.18262 4.00571,0.26256 1.29962,0.0771 2.59972,0.14579 3.89996,0.21153 1.26508,0.0639 2.53058,0.11905 3.7962,0.171 1.2261,0.0637 2.45376,0.0526 3.6808,0.0364 1.15992,-0.005 2.31775,-0.0658 3.47119,-0.18599 1.11656,-0.12368 2.21597,-0.35917 3.30686,-0.62176 1.00633,-0.22822 1.98784,-0.5482 2.96723,-0.86969 0.88904,-0.29638 1.74776,-0.66999 2.60138,-1.05412 0.80681,-0.3407 3.15354,-1.23738 3.92937,-1.64186 0.73523,-0.39906 1.46737,-0.80406 2.20835,-1.19239 l -1.35804,3.61061 0,0 c -0.73834,0.39414 -3.04557,1.28132 -3.78406,1.67521 -0.78076,0.40626 -1.56643,0.80393 -2.37682,1.14859 -0.86389,0.38438 -1.73872,0.74494 -2.6385,1.03786 -0.98818,0.32118 -1.98167,0.6289 -2.99653,0.85586 -1.10693,0.25618 -2.22144,0.4874 -3.35343,0.60138 -1.16415,0.11202 -2.33213,0.16782 -3.50185,0.17207 -1.23325,0.0144 -2.46696,0.018 -3.69914,-0.046 -1.26674,-0.0524 -2.53336,-0.10786 -3.79955,-0.17259 -1.30116,-0.0666 -2.60217,-0.13612 -3.90271,-0.21405 -1.33766,-0.0807 -2.67505,-0.16589 -4.01152,-0.26455 -1.28836,-0.0983 -2.57646,-0.20122 -3.86242,-0.32768 -1.18032,-0.1168 -2.36014,-0.24127 -3.53487,-0.40622 -1.0103,-0.1468 -2.0188,-0.30692 -3.02067,-0.50407 -0.94022,-0.18769 -1.87923,-0.38358 -2.80801,-0.62246 -0.80985,-0.21022 -1.6155,-0.43644 -2.41444,-0.68511 -0.45444,-0.14296 -0.90643,-0.29475 -1.36675,-0.41818 z"
         id="path4372"
         style="fill:#aa4400;fill-opacity:1;fill-rule:nonzero;stroke:none" />
      <path
         inkscape:connector-curvature="0"
         d="m 596.45623,370.6155 c -0.28046,0.62697 -0.49254,1.28227 -0.71797,1.93038 -0.46843,1.37383 -0.89593,2.76098 -1.30577,4.15325 -0.52159,1.79748 -1.02412,3.60009 -1.47857,5.41574 -0.51216,2.12309 -0.96645,4.25965 -1.39002,6.40201 -0.46276,2.43765 -0.85685,4.88784 -1.24411,7.33843 -0.40002,2.54844 -0.73978,5.10573 -1.06355,7.6648 -0.32803,2.60201 -0.60311,5.21017 -0.86145,7.81989 -0.26591,2.70658 -0.48742,5.4172 -0.69576,8.12872 -0.21449,2.82298 -0.39377,5.64842 -0.56183,8.47449 -0.16796,2.85993 -0.31185,5.72119 -0.45212,8.58259 -0.14611,2.73967 -0.22769,5.48183 -0.24458,8.2252 -0.0233,2.61624 0.0674,5.2311 0.18674,7.8441 0.11561,2.5268 0.34431,5.04549 0.59936,7.56132 0.27412,2.52761 0.63914,5.04428 0.99931,7.56075 0.34854,2.35145 0.7155,4.69996 1.1374,7.03942 0.3695,2.07939 0.78871,4.14905 1.23709,6.21271 0,0 -1.98475,3.28123 -1.98475,3.28123 l 0,0 c -0.45306,-2.06705 -0.87571,-4.14044 -1.24604,-6.22407 -0.4278,-2.34282 -0.79568,-4.6954 -1.14698,-7.05084 -0.36291,-2.5195 -0.72666,-5.03968 -1.01248,-7.5693 -0.25809,-2.51989 -0.4973,-5.04188 -0.61687,-7.57294 -0.12471,-2.61704 -0.22086,-5.23619 -0.20204,-7.85674 0.01,-2.74692 0.0851,-5.49279 0.23149,-8.23601 0.14024,-2.86246 0.28381,-5.72479 0.44967,-8.5859 0.1662,-2.82659 0.34308,-5.65259 0.55511,-8.47617 0.20601,-2.71243 0.42472,-5.42401 0.68767,-8.1316 0.25553,-2.61112 0.52688,-5.22079 0.85194,-7.82431 0.32081,-2.56087 0.65789,-5.11994 1.05324,-7.67053 0.38388,-2.45183 0.77834,-4.90257 1.22997,-7.34294 0.41576,-2.14424 0.86898,-4.28121 1.37073,-6.40707 0.4447,-1.81792 0.94334,-3.62116 1.46197,-5.41933 0.40203,-1.39216 0.82698,-2.77734 1.28297,-4.15284 0.22136,-0.64729 0.43954,-1.29662 0.68153,-1.9361 0,0 2.2087,-3.17834 2.2087,-3.17834 z"
         id="path4376"
         style="fill:#aa4400;fill-opacity:1;fill-rule:nonzero;stroke:none" />
      <path
         inkscape:connector-curvature="0"
         d="m 650.12581,369.07294 c 0.35201,0.65306 0.6383,1.33942 0.92791,2.02169 0.59188,1.41708 1.09822,2.86788 1.62728,4.30909 0.699,1.91714 1.37929,3.84096 2.06903,5.76143 0.75162,2.08405 1.47594,4.17774 2.22079,6.26418 0.76866,2.20044 1.53093,4.40317 2.25891,6.61745 0.73079,2.23473 1.3699,4.49742 1.97793,6.76811 0.59882,2.26233 1.11591,4.54499 1.60201,6.83382 0.4944,2.34641 0.90431,4.70917 1.29375,7.07487 0.3886,2.39315 0.72273,4.79462 1.04383,7.1976 0.30653,2.2837 0.57856,4.57174 0.84244,6.86068 0.2513,2.19453 0.47127,4.39244 0.68064,6.5913 0.20238,2.20831 0.39248,4.41774 0.52423,6.63146 0.10985,2.14162 0.12776,4.28647 0.10268,6.4303 -0.0124,2.08249 -0.12656,4.16189 -0.26608,6.2391 -0.1363,2.07109 -0.36101,4.13505 -0.59951,6.19644 -0.24352,2.00867 -0.53498,4.01097 -0.83591,6.01169 -0.28416,1.88496 -0.64067,3.7581 -1.00793,5.62835 -0.34292,1.70269 -0.70258,3.40205 -1.0712,5.09936 -0.32756,1.555 -0.67566,3.10534 -1.04116,4.65184 -0.22814,0.95562 -0.4445,1.91398 -0.66899,2.87046 0,0 -2.13575,3.19827 -2.13575,3.19827 l 0,0 c 0.22917,-0.95595 0.44192,-1.91564 0.67001,-2.87186 0.36744,-1.54614 0.72517,-3.09444 1.04872,-4.65048 0.37032,-1.69689 0.73147,-3.39582 1.07855,-5.09762 0.37443,-1.86744 0.73072,-3.73941 1.02462,-5.62139 0.30194,-1.99916 0.59784,-3.9993 0.84725,-6.00584 0.24366,-2.05797 0.47212,-4.1189 0.61503,-6.18666 0.14582,-2.07332 0.26765,-4.14913 0.28436,-6.22816 0.0312,-2.13933 0.0213,-4.27949 -0.079,-6.41718 -0.12282,-2.21149 -0.31161,-4.41818 -0.51226,-6.62387 -0.20718,-2.19779 -0.42487,-4.39464 -0.67365,-6.58817 -0.26152,-2.28857 -0.53091,-4.57628 -0.83496,-6.85966 -0.31807,-2.40102 -0.64911,-4.80055 -1.03376,-7.19195 -0.38539,-2.36205 -0.79056,-4.7213 -1.27952,-7.0645 -0.48067,-2.28515 -0.99261,-4.56411 -1.58499,-6.82324 -0.60211,-2.26697 -1.23465,-4.52617 -1.9592,-6.75756 -0.72331,-2.2127 -1.48605,-4.41205 -2.25111,-6.61062 -0.7467,-2.08513 -1.47014,-4.17846 -2.22151,-6.26195 -0.6886,-1.91853 -1.37196,-3.83891 -2.06951,-5.75422 -0.53019,-1.43259 -1.0339,-2.8761 -1.61813,-4.28789 -0.28287,-0.66625 -0.56884,-1.33122 -0.88991,-1.98001 0,0 1.89405,-3.37466 1.89405,-3.37466 z"
         id="path4378"
         style="fill:#aa4400;fill-opacity:1;fill-rule:nonzero;stroke:none" />
      <path
         sodipodi:nodetypes="cccccccccccccccccccccccccscccccccccccccccccccccccccccccccccccccccccccccccccccccccccccccccccccccccccccccc"
         inkscape:connector-curvature="0"
         d="m 592.26334,479.30795 c 0.34856,-0.33156 0.74059,-0.55665 1.21845,-0.61917 0.52181,-0.0489 1.17873,0.39315 1.63456,0.62199 0.47025,0.26698 0.91135,0.58006 1.37349,0.86034 0.41459,0.24996 0.87083,0.33023 1.3471,0.3126 0.45952,-0.0425 0.9038,-0.16451 1.32765,-0.34355 0.45565,-0.19137 0.8453,-0.49605 1.23358,-0.79507 0.42929,-0.40003 0.85254,-0.80853 1.25148,-1.23917 0.42094,-0.46347 0.7621,-0.98935 1.14867,-1.48024 0.3555,-0.46867 0.82663,-0.63044 1.39447,-0.62568 0.56801,0.0447 1.07666,0.29353 1.57282,0.55376 0.56979,0.31831 1.10813,0.68812 1.61557,1.09775 0.65812,0.5538 1.25402,1.17596 1.85196,1.79278 0.59542,0.64099 1.19761,1.27532 1.90084,1.79891 0.48223,0.35301 1.00262,0.40989 1.57643,0.34208 0.47542,-0.0939 0.89643,-0.32573 1.29215,-0.59579 0.43831,-0.33412 0.90224,-0.48499 1.44895,-0.46308 0.66416,0.0593 1.22271,0.42754 1.75847,0.79354 0.74633,0.51899 1.40172,1.15257 2.05384,1.78213 0.70859,0.70977 1.40137,1.43432 2.13369,2.11993 0.51572,0.49513 1.08531,0.88675 1.78611,1.04535 0.49312,0.0997 0.95886,-0.0335 1.41189,-0.21977 0.43921,-0.19246 0.81143,-0.49066 1.15729,-0.81695 0.41585,-0.34298 0.75887,-0.75416 1.05959,-1.19874 0.38533,-0.59538 0.7208,-1.22282 1.04502,-1.85322 0.79298,-1.61823 -0.89137,1.82887 -1.34028,2.74173 -0.0564,0.11467 0.10927,-0.23105 0.16232,-0.34731 0.16106,-0.35296 0.309,-0.71079 0.45446,-1.07038 0.29075,-0.74951 0.60844,-1.48713 0.95261,-2.21351 1.02604,-1.71954 1.6079,-3.87113 2.92889,-5.45834 0.40813,-0.50513 0.95997,-0.7796 1.59929,-0.82808 0.64578,-0.009 1.21704,0.24956 1.76779,0.55844 0.60171,0.38501 1.14997,0.84538 1.6629,1.34074 0.56161,0.52499 1.05821,1.11084 1.56124,1.69038 0.40283,0.46878 0.8701,0.87063 1.40577,1.17811 0.40161,0.20474 0.84089,0.30541 1.28954,0.31621 0.44445,-0.0223 0.76474,-0.30354 1.081,-0.58526 0.3796,-0.38867 0.71218,-0.81626 1.12084,-1.17695 0.47767,-0.36943 1.02336,-0.31518 1.57149,-0.16987 0.66713,0.22712 1.26973,0.60228 1.85979,0.98041 0.66481,0.42052 1.2749,0.91615 1.87814,1.41866 0.53512,0.46844 1.10783,0.87619 1.75661,1.16834 0.4861,0.2005 1.00706,0.22874 1.5248,0.25371 0.5724,-0.009 1.12351,0.11422 1.66758,0.27826 0.62971,0.22161 1.22231,0.52949 1.80114,0.85882 0.67421,0.39745 1.31228,0.85072 1.94484,1.31033 0.51238,0.39336 1.07286,0.70302 1.67672,0.92847 0.42943,0.16489 0.86657,0.17917 1.31393,0.10189 0.39322,-0.0802 0.73191,-0.28201 1.04666,-0.52208 0.33651,-0.26208 0.55253,-0.6258 0.74863,-0.9966 0.76451,-1.69169 -2.31382,4.98459 -1.24613,2.46782 l 2.18884,-3.18704 0,0 c -0.52073,1.54029 -1.32493,2.98642 -2.10267,4.4061 -0.24384,0.37042 -0.52795,0.7064 -0.90974,0.94249 -0.37518,0.22739 -0.77397,0.40481 -1.21456,0.45625 -0.50803,0.0475 -1.0062,0.005 -1.48631,-0.18171 -0.63331,-0.24299 -1.22704,-0.56428 -1.76716,-0.97766 -0.62093,-0.45141 -1.24478,-0.90016 -1.90718,-1.28987 -0.55291,-0.31489 -1.11884,-0.61085 -1.72219,-0.81835 -0.51875,-0.15053 -1.04314,-0.24518 -1.58591,-0.2397 -0.56419,-0.0337 -1.1279,-0.0918 -1.65411,-0.3157 -0.67885,-0.30904 -1.28683,-0.72593 -1.848,-1.21799 -0.59107,-0.49242 -1.18445,-0.98378 -1.83625,-1.3957 -0.55341,-0.35611 -1.11764,-0.71582 -1.74693,-0.92234 -0.47622,-0.10745 -0.86282,-0.0562 -1.21342,0.31481 -0.38274,0.38991 -0.7206,0.82599 -1.15043,1.16706 -0.40423,0.29485 -0.82947,0.51063 -1.34532,0.48166 -0.50483,-0.0434 -0.99822,-0.15668 -1.45038,-0.3936 -0.57342,-0.32658 -1.08382,-0.74355 -1.51894,-1.24146 -0.49756,-0.57118 -0.97907,-1.15747 -1.53437,-1.67512 -0.48244,-0.47961 -1.00463,-0.91874 -1.57369,-1.29315 -0.47836,-0.27093 -0.9751,-0.50716 -1.54052,-0.45253 -0.56262,0.12157 -0.98253,0.46531 -1.31688,0.92913 -0.89804,1.25676 -2.43732,4.57579 0.48411,-1.3706 -0.34633,0.72308 -0.68701,1.4478 -0.97345,2.19742 -0.73563,1.90549 -1.66418,3.72792 -2.60441,5.54068 -0.33752,0.62927 -0.67715,1.26154 -1.10002,1.83873 -0.33877,0.43109 -0.71687,0.82492 -1.14121,1.17345 -0.39139,0.31838 -0.81062,0.60074 -1.29126,0.76736 -0.52982,0.17059 -1.06863,0.26065 -1.62064,0.12875 -0.75602,-0.19779 -1.39594,-0.59623 -1.95968,-1.13878 -0.73593,-0.68509 -1.43305,-1.40843 -2.13929,-2.12374 -0.63579,-0.61551 -1.27241,-1.23824 -1.99871,-1.74814 -0.46904,-0.32287 -0.95626,-0.6707 -1.54711,-0.68927 -0.47864,0.035 -0.86174,0.27464 -1.25152,0.54188 -0.45449,0.2616 -0.9344,0.47645 -1.46295,0.52778 -0.65973,0.0352 -1.27414,-0.073 -1.82592,-0.464 -0.72453,-0.53014 -1.35102,-1.1694 -1.95606,-1.83066 -0.588,-0.60592 -1.17074,-1.21998 -1.81421,-1.76819 -0.48321,-0.39881 -1.00144,-0.75224 -1.54726,-1.06049 -0.43578,-0.22851 -0.88368,-0.46247 -1.38808,-0.46682 -0.4867,0.0564 -0.80255,0.34831 -1.07953,0.74143 -0.37874,0.50259 -0.74279,1.0189 -1.18742,1.46725 -0.41854,0.42547 -0.83934,0.85443 -1.3127,1.21947 -0.41596,0.30212 -0.84631,0.5858 -1.33473,0.75849 -0.46998,0.16115 -0.95666,0.27846 -1.45582,0.2906 -0.54228,-0.0126 -1.06618,-0.12359 -1.53859,-0.40315 -0.45455,-0.27367 -1.07001,-0.82103 -1.52847,-1.08823 -0.38311,-0.19261 -0.77755,-0.36514 -1.21482,-0.27164 -0.39881,0.13183 -0.721,0.3923 -1.00362,0.69949 -0.13994,0.16051 -0.26972,0.32236 -0.38799,0.49979 -5.85312,1.43727 2.57506,-5.15019 1.36161,-2.89768 -4.58762,4.30564 -2.39933,1.25469 0.27123,-1.26143 z"
         id="path4380"
         style="fill:#aa4400;fill-opacity:1;fill-rule:nonzero;stroke:none" />
      <path
         inkscape:connector-curvature="0"
         id="path4382"
         d="m 620.00559,483.54858 c -3.57896,-3.25485 -4.18546,-3.52023 -6.15379,-2.69261 -0.89232,0.3752 -1.70823,0.68217 -1.81312,0.68217 -0.10489,0 -1.48732,-1.19201 -3.07206,-2.6489 -4.04518,-3.71886 -4.87057,-3.83091 -7.69876,-1.04525 -2.41948,2.3831 -3.90865,2.78172 -5.60337,1.4999 -1.29696,-0.98098 -2.68127,-0.88935 -3.90291,0.25832 l -1.03168,0.96922 -0.8262,-4.4796 c -2.92391,-15.85319 -3.60763,-26.03694 -2.82427,-42.06619 1.19485,-24.44887 3.49837,-42.31592 7.17087,-55.62012 1.67467,-6.06676 1.72103,-6.1096 5.57171,-5.14878 4.56638,1.1394 8.83945,1.647 19.04592,2.26248 12.84685,0.7747 17.00261,0.18234 25.06608,-3.57292 3.62779,-1.6895 3.75248,-1.71284 3.75248,-0.70219 0,0.57496 0.43275,1.93932 0.96167,3.03192 1.84246,3.80602 8.82327,24.26793 10.41152,30.51788 4.92695,19.3882 7.0064,44.83896 4.91678,60.17764 -1.10623,8.1202 -3.53195,19.5522 -4.24182,19.99091 -0.7149,0.44185 -1.60242,0.13062 -3.8864,-1.36284 -0.97029,-0.63445 -2.83881,-1.43703 -4.15226,-1.78352 -1.31346,-0.34648 -3.53996,-1.42231 -4.94779,-2.39072 -2.96244,-2.0378 -3.344,-2.09822 -5.00411,-0.79238 -1.70529,1.34139 -2.33355,1.22796 -4.25166,-0.7676 -2.1438,-2.23035 -4.13221,-3.26097 -5.58709,-2.89581 -0.87324,0.21916 -1.69159,1.39986 -3.38977,4.89068 -2.20076,4.52393 -3.47993,6.03559 -5.10732,6.03559 -0.4519,0 -1.98309,-1.05628 -3.40265,-2.34728 z"
         style="fill:#ffb380;fill-opacity:1;fill-rule:nonzero;stroke:none" />
      <path
         inkscape:connector-curvature="0"
         id="path4384"
         d="m 620.08419,483.19722 c -3.37814,-2.8127 -4.31424,-3.1819 -6.42501,-2.53409 -1.62684,0.49929 -1.79185,0.42485 -4.89695,-2.20929 -1.76735,-1.49929 -3.66949,-2.72598 -4.22696,-2.72598 -0.55748,0 -2.13,0.88889 -3.4945,1.97532 -2.09621,1.66902 -2.7076,1.92481 -3.94285,1.64951 -2.07333,-0.46207 -4.71669,-0.49219 -5.63164,-0.0642 -0.67733,0.31687 -0.94831,-0.70928 -2.05218,-7.77123 -0.69949,-4.47496 -1.49222,-10.2521 -1.76162,-12.83808 -1.37741,-13.22158 0.2817,-44.28373 3.39538,-63.56911 1.22434,-7.58325 3.56128,-17.7174 4.66158,-20.21496 0.89634,-2.03461 1.05578,-2.0662 5.49474,-1.08853 5.26773,1.16021 20.95076,2.3145 27.35678,2.0135 6.34093,-0.29795 8.81197,-0.8465 14.21328,-3.15528 1.95859,-0.83719 3.81062,-1.51691 4.11562,-1.51049 0.30499,0.006 1.02567,1.36821 1.60151,3.0262 0.57583,1.65797 2.46765,6.95074 4.20404,11.7617 8.29281,22.97666 11.6025,41.2916 11.63148,64.3656 0.0132,10.53447 -0.1088,12.32203 -1.30572,19.12554 -1.32593,7.53683 -2.99708,14.93847 -3.48238,15.42378 -0.14314,0.14314 -1.83351,-0.52017 -3.75637,-1.47401 -1.92286,-0.95384 -4.04083,-1.89356 -4.70659,-2.08826 -0.66577,-0.1947 -2.43735,-1.09116 -3.93687,-1.99213 -2.98827,-1.7955 -4.05652,-1.97037 -5.47635,-0.89646 -1.23631,0.9351 -2.41723,0.90004 -3.23751,-0.0961 -1.34861,-1.63779 -4.48146,-3.55071 -5.8151,-3.55071 -1.48326,0 -2.41964,1.168 -4.9679,6.19675 -1.50715,2.97422 -2.85277,4.45545 -4.04753,4.45545 -0.46792,0 -2.0476,-0.9965 -3.51038,-2.21445 z"
         style="fill:url(#linearGradient5189);fill-opacity:1;fill-rule:nonzero;stroke:none" />
      <path
         transform="matrix(0.3389335,0,0,0.3389335,462.71632,180.07515)"
         inkscape:connector-curvature="0"
         d="m 420.32465,587.77291 c -0.69655,4.36441 -0.789,8.81089 -0.98644,13.21952 -0.43145,11.05985 -0.6617,22.12634 -0.90232,33.19161 -0.32371,12.31599 -0.42678,24.63504 -0.48278,36.95458 -0.007,1.9051 -0.0137,3.8102 -0.0206,5.7153 0,0 -0.75114,1.18265 -0.75114,1.18265 l 0,0 c 0.007,-1.90532 0.0139,-3.81065 0.0208,-5.71597 0.0564,-12.32056 0.15824,-24.64067 0.48191,-36.95769 0.23968,-11.06234 0.4684,-22.12585 0.89303,-33.18299 0.19422,-4.40967 0.2959,-8.85056 0.95347,-13.22113 0,0 0.79399,-1.18588 0.79399,-1.18588 z"
         id="path4386"
         style="fill:#000000;fill-opacity:1;fill-rule:nonzero;stroke:none;filter:url(#filter5082)" />
      <path
         transform="matrix(0.3389335,0,0,0.3389335,462.71632,180.07515)"
         inkscape:connector-curvature="0"
         d="m 461.81099,606.28645 c -0.0148,1.63374 -0.13183,3.26526 -0.24384,4.89473 -0.22068,2.94656 -0.52563,5.88362 -0.87667,8.81709 -0.44817,3.90015 -1.0067,7.78594 -1.47075,11.68421 -0.58954,5.05111 -1.02155,10.11843 -1.42386,15.18727 -0.47084,6.04659 -0.82617,12.10118 -1.15458,18.1569 -0.34995,6.89582 -0.70402,13.79228 -0.88449,20.69488 -0.20631,7.74728 0.26576,15.48765 0.81176,23.21131 0.58447,8.15266 1.53533,16.27138 2.49738,24.38605 0.97165,8.03033 2.11778,16.03865 3.34454,24.0336 1.21035,7.77339 2.60135,15.51636 4.05709,23.24701 1.45932,7.57271 3.04861,15.12002 4.65607,22.66249 1.66323,7.4733 3.20284,14.97306 4.8028,22.45993 1.61551,7.29532 3.24598,14.58703 4.81119,21.89339 0.24535,1.16192 0.49069,2.32383 0.73604,3.48574 0,0 -0.73131,1.20716 -0.73131,1.20716 l 0,0 c -0.24517,-1.16193 -0.49035,-2.32387 -0.73552,-3.48581 -1.56422,-7.30679 -3.19355,-14.59894 -4.81084,-21.89408 -1.60058,-7.48685 -3.13842,-14.98709 -4.80268,-22.46027 -1.6084,-7.54307 -3.19772,-15.09117 -4.65889,-22.66431 -1.45693,-7.73161 -2.84897,-15.47557 -4.06093,-23.2499 -1.22824,-7.99593 -2.37488,-16.00539 -3.3483,-24.03671 -0.96268,-8.11583 -1.91642,-16.23543 -2.50329,-24.38915 -0.54877,-7.72543 -1.02553,-15.4676 -0.82432,-23.21693 0.17641,-6.90287 0.53196,-13.79947 0.88017,-20.69553 0.32721,-6.05566 0.68123,-12.1102 1.15032,-18.15681 0.40084,-5.06907 0.83098,-10.13665 1.41785,-15.18817 0.46142,-3.89781 1.02025,-7.7827 1.4691,-11.68195 0.35133,-2.93167 0.66013,-5.86637 0.88138,-8.81117 0.11207,-1.62657 0.23023,-3.2551 0.24974,-4.88577 0,0 0.76484,-1.2052 0.76484,-1.2052 z"
         id="path4388"
         style="fill:#000000;fill-opacity:1;fill-rule:nonzero;stroke:none;filter:url(#filter5078)" />
      <path
         transform="matrix(0.3389335,0,0,0.3389335,462.71632,180.07515)"
         inkscape:connector-curvature="0"
         d="m 528.99478,606.45117 c 0.31642,1.88768 0.62834,3.77355 0.86588,5.6742 0.57027,4.09277 1.07645,8.19391 1.60486,12.29218 0.85492,6.13546 1.7883,12.2595 2.65141,18.39376 0.99416,7.1378 1.80387,14.29915 2.56977,21.46444 0.78721,7.4618 1.45499,14.9354 2.0867,22.41173 0.63268,7.51216 1.17397,15.03149 1.68495,22.55277 0.50528,7.5022 0.93855,15.00899 1.36043,22.51627 0.45163,7.33751 0.71833,14.68322 0.89599,22.03182 0.13207,7.22371 0.0835,14.44951 -0.1659,21.66984 -0.2315,7.01216 -0.7005,14.01287 -1.22602,21.0082 -0.46739,6.51034 -1.17919,12.99923 -1.85429,19.4903 -0.62801,5.91112 -1.34018,11.81163 -2.13224,17.70282 -0.7584,5.50566 -1.597,10.99974 -2.59856,16.46653 -0.15965,0.82625 -0.3193,1.65249 -0.47895,2.47873 0,0 -0.78167,1.18119 -0.78167,1.18119 l 0,0 c 0.16012,-0.82614 0.32024,-1.65227 0.48036,-2.47841 1.00573,-5.46552 1.84504,-10.95894 2.60492,-16.46387 0.79318,-5.89077 1.50769,-11.79065 2.13642,-17.70144 0.67537,-6.49086 1.38947,-12.97934 1.85848,-19.48937 0.52763,-6.99443 0.9978,-13.99436 1.23119,-21.0057 0.25285,-7.2189 0.30262,-14.44331 0.17314,-21.66575 -0.17639,-7.34781 -0.44025,-14.69281 -0.89212,-22.0295 -0.42131,-7.50711 -0.85403,-15.01374 -1.35879,-22.51578 -0.5104,-7.52084 -1.05107,-15.03974 -1.68301,-22.55149 -0.63097,-7.47567 -1.29795,-14.94861 -2.08422,-22.40978 -0.76492,-7.16403 -1.5735,-14.32413 -2.56655,-21.46072 -0.86249,-6.13366 -1.79615,-12.25696 -2.65487,-18.3912 -0.52963,-4.09676 -1.03437,-8.19674 -1.60844,-12.28763 -0.23528,-1.90002 -0.53861,-3.78639 -0.86911,-5.67077 0,0 0.75024,-1.21337 0.75024,-1.21337 z"
         id="path4390"
         style="fill:#000000;fill-opacity:1;fill-rule:nonzero;stroke:none;filter:url(#filter5074)" />
      <path
         transform="matrix(0.3389335,0,0,0.3389335,462.71632,180.07515)"
         inkscape:connector-curvature="0"
         d="m 501.81099,673.4293 c -8.9e-4,1.78031 -10e-4,3.56062 -10e-4,5.34093 -5.6e-4,3.69634 -7.8e-4,7.39269 -9.8e-4,11.08903 -1.8e-4,4.71678 -3.6e-4,9.43356 -5.4e-4,14.15035 -2e-4,5.56937 -4.4e-4,11.13874 -4.8e-4,16.70811 -6e-5,5.90692 -7e-5,11.81383 -7e-5,17.72074 10e-6,5.95312 -4e-5,11.90623 -3e-5,17.85934 0,5.95047 2e-5,11.90094 3e-5,17.85141 2e-5,5.87809 5e-5,11.75619 3e-5,17.63428 3e-5,5.73334 8e-5,11.46668 2e-4,17.20003 9e-5,4.42613 1.8e-4,8.85226 2.8e-4,13.27839 0,0 -0.75883,1.19572 -0.75883,1.19572 l 0,0 c 9e-5,-4.42642 1.8e-4,-8.85285 2.8e-4,-13.27927 1.1e-4,-5.73355 1.6e-4,-11.4671 1.9e-4,-17.20064 -2e-5,-5.87813 10e-6,-11.75626 4e-5,-17.6344 10e-6,-5.95049 2e-5,-11.90099 3e-5,-17.85149 0,-5.95308 -5e-5,-11.90616 -4e-5,-17.85924 1e-5,-5.90684 0,-11.81369 -6e-5,-17.72053 -5e-5,-5.56887 -2.8e-4,-11.13774 -4.8e-4,-16.7066 -1.8e-4,-4.71622 -3.7e-4,-9.43243 -5.4e-4,-14.14865 -2.1e-4,-3.69531 -4.3e-4,-7.39062 -9.8e-4,-11.08593 -3.1e-4,-1.77879 -5.6e-4,-3.55759 -0.001,-5.33638 0,0 0.76484,-1.2052 0.76484,-1.2052 z"
         id="path4392"
         style="fill:#000000;fill-opacity:1;fill-rule:nonzero;stroke:none;filter:url(#filter5070)" />
      <path
         transform="matrix(0.3389335,0,0,0.3389335,462.71632,180.07515)"
         inkscape:connector-curvature="0"
         d="m 395.26257,674.93018 c 0.11908,-0.23562 0.126,-0.57948 0.35724,-0.70684 0.0378,-0.0208 -0.11159,0.2201 -0.64226,1.48552 -0.45064,1.07457 -0.84616,2.16233 -1.2294,3.26245 -1.01524,3.02172 -1.68059,6.14262 -2.28927,9.26662 -0.76391,4.09768 -1.33292,8.22778 -1.8607,12.36138 -0.61001,4.8268 -1.07064,9.6705 -1.50175,14.51599 -0.4783,5.49581 -0.85932,10.99939 -1.21217,16.50446 -0.3791,5.99019 -0.68653,11.98455 -0.9783,17.97952 -0.34281,6.1619 -0.39295,12.33422 -0.46057,18.5037 -0.126,6.23423 -0.0347,12.46775 0.0875,18.70096 0.1452,6.17168 0.38491,12.33933 0.78468,18.49974 0.37985,6.27677 1.02506,12.53219 1.74118,18.77812 0.71551,5.91126 1.54108,11.80716 2.44887,17.69164 0.82381,5.49202 1.81509,10.95674 2.75968,16.42877 0.15654,0.86524 0.31308,1.73048 0.46962,2.59572 0,0 -0.73712,1.20884 -0.73712,1.20884 l 0,0 c -0.15682,-0.86553 -0.31364,-1.73105 -0.47046,-2.59658 -0.94413,-5.47288 -1.93688,-10.93812 -2.76137,-16.43081 -0.90868,-5.88583 -1.73612,-11.78288 -2.45297,-17.69546 -0.71812,-6.24709 -1.36551,-12.50375 -1.7471,-18.78179 -0.40272,-6.16149 -0.64372,-12.33024 -0.79011,-18.50316 -0.12292,-6.23398 -0.21771,-12.46828 -0.0911,-18.70331 0.0671,-6.1703 0.11427,-12.34356 0.45594,-18.50635 0.29125,-5.99511 0.59791,-11.98961 0.97602,-17.97997 0.35161,-5.50528 0.73192,-11.00903 1.20842,-16.50511 0.42965,-4.84595 0.88857,-9.69015 1.49633,-14.51756 0.52558,-4.13459 1.09289,-8.26555 1.85194,-12.36482 0.6042,-3.12632 1.26524,-6.24939 2.27098,-9.27561 0.77574,-2.24755 1.64582,-4.46263 2.7374,-6.57854 0,0 -0.42113,1.36248 -0.42113,1.36248 z"
         id="path4394"
         style="fill:#000000;fill-opacity:1;fill-rule:nonzero;stroke:none;filter:url(#filter5066)" />
      <path
         transform="matrix(0.3389335,0,0,0.3389335,462.71632,180.07515)"
         inkscape:connector-curvature="0"
         d="m 426.20389,696.59257 c 0.51469,1.97544 1.14466,3.91887 1.74364,5.86986 0.9261,3.03657 1.89714,6.0591 2.81582,9.09791 1.12404,3.46491 2.16496,6.9553 3.12346,10.46938 1.03473,3.89135 1.86186,7.83299 2.6259,11.785 0.82905,4.42467 1.49846,8.87686 2.12145,13.3345 0.65872,4.78289 1.20637,9.57976 1.71237,14.38087 0.55229,5.02625 0.96921,10.06436 1.25885,15.11218 0.27304,4.98457 0.35343,9.97699 0.37531,14.96812 0.005,4.80789 -0.26507,9.60918 -0.53228,14.40774 -0.25262,4.59194 -0.60843,9.1775 -0.93222,13.76482 -0.30404,4.30876 -0.58493,8.61911 -0.84948,12.93046 -0.25754,4.26444 -0.47788,8.53099 -0.68813,12.79799 -0.2012,4.11306 -0.38189,8.22709 -0.55529,12.34141 -0.0271,0.64549 -0.0543,1.29098 -0.0814,1.93647 0,0 -0.7655,1.19509 -0.7655,1.19509 l 0,0 c 0.0272,-0.64558 0.0544,-1.29117 0.0816,-1.93675 0.17325,-4.11467 0.3538,-8.22903 0.55475,-12.34245 0.20992,-4.26728 0.42988,-8.53411 0.68667,-12.79886 0.26402,-4.31179 0.54487,-8.62253 0.84872,-12.93171 0.32369,-4.58715 0.6801,-9.1725 0.9343,-13.76418 0.26785,-4.79716 0.54101,-9.59691 0.5396,-14.40343 -0.0202,-4.9899 -0.098,-9.98112 -0.36869,-14.96459 -0.28625,-5.04662 -0.70149,-10.08345 -1.25325,-15.10834 -0.50493,-4.80003 -1.05139,-9.59584 -1.70869,-14.37772 -0.62134,-4.45599 -1.28937,-8.90647 -2.11572,-13.32973 -0.76148,-3.94973 -1.58638,-7.88901 -2.61733,-11.77852 -0.95607,-3.51355 -1.9939,-7.00379 -3.12056,-10.46667 -0.91731,-3.03867 -1.88931,-6.06032 -2.81612,-9.09611 -0.60001,-1.95295 -1.22854,-3.89853 -1.75582,-5.87279 0,0 0.73806,-1.21995 0.73806,-1.21995 z"
         id="path4396"
         style="fill:#000000;fill-opacity:1;fill-rule:nonzero;stroke:none;filter:url(#filter5062)" />
      <path
         transform="matrix(0.3389335,0,0,0.3389335,462.71632,180.07515)"
         inkscape:connector-curvature="0"
         d="m 451.66288,592.23213 c -0.70951,2.08351 -1.40386,4.17202 -2.07628,6.26782 -1.29191,3.9728 -2.45389,7.98725 -3.63933,11.99293 -1.53957,5.01963 -2.82149,10.11042 -4.01721,15.22103 -1.31146,5.70613 -2.34522,11.46985 -3.32547,17.24039 -1.05318,6.23285 -1.89761,12.49758 -2.68613,18.76851 -0.82872,6.79601 -1.51792,13.60784 -2.16845,20.42287 -0.65447,6.90206 -1.21285,13.81266 -1.7501,20.72467 -0.51823,6.73504 -0.97463,13.47464 -1.41279,20.2153 -0.41428,6.38161 -0.7877,12.76573 -1.14052,19.151 -0.34008,6.16366 -0.63706,12.32958 -0.92096,18.49604 -0.27633,6.0344 -0.51618,12.07037 -0.74366,18.10678 -0.2197,5.89521 -0.4128,11.79137 -0.60024,17.68769 -0.17382,5.5224 -0.33263,11.04526 -0.48448,16.56831 -0.1421,5.18518 -0.27036,10.37072 -0.39124,15.55644 -0.11742,5.04361 -0.21882,10.08757 -0.31597,15.13161 -0.0155,0.83059 -0.0309,1.66118 -0.0464,2.49177 0,0 -0.76126,1.19463 -0.76126,1.19463 l 0,0 c 0.0154,-0.83062 0.0309,-1.66123 0.0463,-2.49184 0.0971,-5.04422 0.1983,-10.08837 0.31564,-15.13216 0.12069,-5.186 0.24899,-10.37182 0.39107,-15.55727 0.15185,-5.52342 0.31069,-11.04664 0.48446,-16.56942 0.1875,-5.89664 0.3805,-11.79312 0.59988,-17.68867 0.22721,-6.03667 0.46676,-12.07291 0.74278,-18.10758 0.28362,-6.16683 0.58036,-12.33312 0.92013,-18.49715 0.35246,-6.38575 0.72557,-12.77034 1.13981,-19.15242 0.43768,-6.74115 0.89417,-13.48121 1.41159,-20.21676 0.53679,-6.91249 1.09455,-13.82358 1.74812,-20.72616 0.64946,-6.81549 1.33802,-13.62773 2.16439,-20.42438 0.78691,-6.27163 1.62917,-12.53714 2.68037,-18.77084 0.97849,-5.77153 2.00968,-11.53639 3.31748,-17.24407 1.19314,-5.11155 2.47029,-10.20403 4.00945,-15.22419 1.18365,-4.00518 2.34597,-8.01861 3.63444,-11.99142 0.67037,-2.09537 1.36666,-4.18199 2.06831,-6.26699 0,0 0.80623,-1.17647 0.80623,-1.17647 z"
         id="path4398"
         style="fill:#000000;fill-opacity:1;fill-rule:nonzero;stroke:none;filter:url(#filter5058)" />
      <path
         transform="matrix(0.3389335,0,0,0.3389335,462.71632,180.07515)"
         inkscape:connector-curvature="0"
         d="m 391.93479,597.8716 c 0.69361,1.91658 0.97753,3.94468 1.26242,5.95286 0.56072,4.18504 0.98638,8.38684 1.45993,12.58237 0.59097,5.40889 1.20367,10.8154 1.76418,16.22757 0.62679,6.09504 1.12304,12.20226 1.58403,18.31172 0.48818,6.53078 0.89489,13.06717 1.2826,19.60455 0.39355,6.6418 0.72734,13.28686 1.03555,19.9331 0.3272,7.15572 0.58959,14.31415 0.8359,21.47304 0.25179,7.43277 0.46757,14.86668 0.67502,22.30079 0.20012,7.20904 0.37844,14.41865 0.54508,21.62853 0.1692,7.38882 0.30841,14.77826 0.43984,22.16783 0.12597,7.21275 0.24206,14.42566 0.35559,21.63861 0.0851,6.35688 0.2901,12.71141 0.47333,19.06602 0.11193,3.88278 0.21831,7.76572 0.32339,11.64869 0,0 -0.75489,1.19666 -0.75489,1.19666 l 0,0 c -0.10484,-3.88316 -0.21096,-7.76628 -0.32274,-11.64925 -0.18295,-6.35553 -0.38843,-12.71096 -0.4738,-19.06875 -0.11308,-7.21334 -0.22868,-14.42664 -0.35451,-21.63977 -0.13131,-7.3892 -0.2706,-14.77827 -0.43966,-22.16672 -0.16648,-7.20988 -0.34448,-14.4195 -0.54426,-21.62855 -0.20712,-7.43397 -0.4226,-14.86774 -0.67421,-22.30037 -0.24612,-7.15818 -0.50835,-14.3159 -0.83523,-21.47093 -0.3079,-6.64576 -0.6413,-13.29036 -1.03428,-19.9317 -0.38718,-6.53686 -0.79338,-13.07272 -1.28089,-19.603 -0.46032,-6.10827 -0.95576,-12.21431 -1.58158,-18.30821 -0.55978,-5.41147 -1.17304,-10.81711 -1.76407,-16.22521 -0.47462,-4.19336 -0.90015,-8.39309 -1.45907,-12.5763 -0.28064,-2.00057 -0.5564,-4.02281 -1.24072,-5.93393 0,0 0.72305,-1.22965 0.72305,-1.22965 z"
         id="path4400"
         style="fill:#000000;fill-opacity:1;fill-rule:nonzero;stroke:none;filter:url(#filter5054)" />
      <path
         transform="matrix(0.3389335,0,0,0.3389335,462.71632,180.07515)"
         inkscape:connector-curvature="0"
         d="m 478.95354,583.67094 c -6.5e-4,2.18303 -10e-4,4.36605 -10e-4,6.54908 -7.3e-4,4.7681 -10e-4,9.53621 -0.002,14.30432 -0.0303,6.87134 0.0243,13.74207 0.0992,20.61291 0.0968,8.37468 0.17593,16.74955 0.24856,25.12447 0.0784,9.24291 0.14439,18.48592 0.20751,27.72895 0.0303,9.19293 -0.12643,18.38529 -0.24737,27.57716 -0.11707,8.8199 -0.22616,17.6399 -0.3318,26.45995 -0.0799,8.15137 -0.17854,16.30216 -0.3945,24.45117 -0.275,7.7801 -0.62408,15.55735 -0.94319,23.33573 -0.29356,7.20798 -0.56838,14.4167 -0.83644,21.62567 -0.24105,6.51541 -0.46394,13.03148 -0.6769,19.54787 -0.19338,5.95803 -0.37255,11.9165 -0.54642,17.87513 -0.0802,2.75257 -0.15635,5.50524 -0.23235,8.25792 0,0 -0.76178,1.19307 -0.76178,1.19307 l 0,0 c 0.0761,-2.75291 0.15231,-5.50582 0.23255,-8.25862 0.174,-5.95913 0.35335,-11.9181 0.54679,-17.87664 0.2129,-6.51688 0.43597,-13.03343 0.67707,-19.54933 0.26831,-7.20958 0.54344,-14.41891 0.83699,-21.62751 0.31918,-7.77829 0.6676,-15.55547 0.94537,-23.33538 0.21777,-8.14896 0.31701,-16.29973 0.39689,-24.4511 0.10593,-8.82051 0.2154,-17.64097 0.33249,-26.46134 0.12102,-9.19145 0.2781,-18.38339 0.2499,-27.5759 -0.063,-9.24278 -0.12882,-18.48555 -0.20766,-27.72822 -0.073,-8.37385 -0.15265,-16.74764 -0.25022,-25.12125 -0.0758,-6.87003 -0.13243,-13.73995 -0.10254,-20.61051 -4.2e-4,-4.76629 -0.001,-9.53258 -0.002,-14.29888 -3.3e-4,-2.1815 -8.1e-4,-4.363 -0.001,-6.5445 0,0 0.76422,-1.20422 0.76422,-1.20422 z"
         id="path4402"
         style="fill:#000000;fill-opacity:1;fill-rule:nonzero;stroke:none;filter:url(#filter5050)" />
      <path
         transform="matrix(0.3389335,0,0,0.3389335,462.71632,180.07515)"
         inkscape:connector-curvature="0"
         d="m 514.66789,595.05119 c 0.0298,2.44577 0.38971,4.87923 0.69312,7.30291 0.71814,5.20118 1.23232,10.42638 1.69676,15.65528 0.60662,7.01564 1.04873,14.0439 1.46328,21.07304 0.43683,8.06082 1.16073,16.10078 1.90087,24.13805 0.81754,8.24271 1.63198,16.48557 2.39681,24.73337 0.70393,7.9649 1.44537,15.92641 2.14813,23.89142 0.69153,7.82708 1.29502,15.66149 1.86442,23.49828 0.56451,7.86719 1.04656,15.73996 1.5086,23.61373 0.43801,7.58025 0.83404,15.16282 1.2182,22.74596 0.34985,6.91502 0.67236,13.83136 0.98366,20.7482 0.28287,6.29835 0.54187,12.59772 0.79425,18.89735 0.23335,5.77854 0.44385,11.55796 0.64127,17.33783 0.18733,5.50661 0.35507,11.01385 0.5178,16.52124 0.0978,3.3564 0.19149,6.71291 0.28866,10.06933 0,0 -0.7559,1.19875 -0.7559,1.19875 l 0,0 c -0.0968,-3.35682 -0.1902,-6.71373 -0.2878,-10.07052 -0.16237,-5.50753 -0.32978,-11.01492 -0.51677,-16.52167 -0.19711,-5.77994 -0.4073,-11.55942 -0.64014,-17.33804 -0.25191,-6.29993 -0.51045,-12.5996 -0.79288,-18.89824 -0.31079,-6.91716 -0.63281,-13.83382 -0.98212,-20.74914 -0.38358,-7.58329 -0.77905,-15.16602 -1.21659,-22.74641 -0.46148,-7.87343 -0.94299,-15.74585 -1.50693,-23.6127 -0.56878,-7.83646 -1.17158,-15.67054 -1.86247,-23.49729 -0.70223,-7.96508 -1.44425,-15.92656 -2.1473,-23.89156 -0.76414,-8.24804 -1.57753,-16.49117 -2.39657,-24.73391 -0.74084,-8.03759 -1.46807,-16.07767 -1.90587,-24.13883 -0.41416,-7.02744 -0.85581,-14.054 -1.46149,-21.068 -0.46351,-5.22631 -0.97506,-10.44923 -1.69554,-15.64743 -0.3058,-2.42511 -0.66712,-4.85994 -0.71181,-7.30659 0,0 0.76435,-1.20441 0.76435,-1.20441 z"
         id="path4404"
         style="fill:#000000;fill-opacity:1;fill-rule:nonzero;stroke:none;filter:url(#filter5046)" />
      <path
         transform="matrix(0.3389335,0,0,0.3389335,462.71632,180.07515)"
         inkscape:connector-curvature="0"
         d="m 540.46601,583.639 c 0.47828,1.85902 1.08839,3.6814 1.6404,5.51953 1.14512,3.65458 2.35673,7.28788 3.49908,10.94343 1.44696,4.82204 2.97101,9.61981 4.48482,14.42108 1.7956,5.79064 3.67336,11.55548 5.43695,17.35595 2.08186,6.69816 3.94355,13.45899 5.64415,20.263 1.88452,7.63465 3.37835,15.35662 4.7955,23.08912 1.49186,8.29631 2.71364,16.6373 3.87666,24.98495 1.1636,8.4401 2.1672,16.90092 3.12975,25.36591 0.91883,8.18801 1.76924,16.3838 2.50314,24.59047 0.6779,8.00361 1.02725,16.0291 1.19524,24.05804 0.17065,7.59658 0.0231,15.19437 -0.1787,22.78851 -0.16179,7.05616 -0.52544,14.10569 -1.02086,21.1457 -0.45536,6.55256 -1.04247,13.09419 -1.69102,19.63008 -0.5387,5.93109 -1.2542,11.84244 -1.98148,17.75259 -0.71644,5.31324 -1.41055,10.62986 -2.16535,15.93782 -0.57322,3.9662 -1.13135,7.93396 -1.80032,11.88531 0,0 -0.77956,1.1839 -0.77956,1.1839 l 0,0 c 0.6726,-3.95064 1.23069,-7.91821 1.80416,-11.88425 0.75734,-5.30769 1.44845,-10.62482 2.16845,-15.93767 0.72767,-5.91 1.44684,-11.82085 1.98501,-17.75193 0.64972,-6.53553 1.23924,-13.0767 1.69512,-19.629 0.4984,-7.03908 0.86376,-14.08787 1.02666,-21.14329 0.20318,-7.59332 0.35404,-15.19031 0.18514,-22.78617 -0.16487,-8.02729 -0.51193,-16.05112 -1.18687,-24.05326 -0.73169,-8.20639 -1.58225,-16.4017 -2.49984,-24.58935 -0.96156,-8.46444 -1.96415,-16.92471 -3.12658,-25.36429 -1.16171,-8.34625 -2.38213,-16.68585 -3.87207,-24.98089 -1.41529,-7.73036 -2.90695,-15.45024 -4.7887,-23.08305 -1.69819,-6.80228 -3.5574,-13.56147 -5.63931,-20.25728 -1.7619,-5.80011 -3.64126,-11.56356 -5.43677,-17.35335 -1.51391,-4.80072 -3.04072,-9.59712 -4.48649,-14.41902 -1.14115,-3.65542 -2.35303,-7.28807 -3.50248,-10.94077 -0.55256,-1.84015 -1.15991,-3.66478 -1.65293,-5.52194 0,0 0.7391,-1.21988 0.7391,-1.21988 z"
         id="path4406"
         style="fill:#000000;fill-opacity:1;fill-rule:nonzero;stroke:none;filter:url(#filter5042)" />
      <path
         inkscape:connector-curvature="0"
         id="path4408"
         d="m 621.97303,371.55004 c -12.10498,-0.48013 -21.77604,-1.89266 -23.87975,-3.48783 -1.68041,-1.27419 -1.73971,-16.63601 -0.0856,-22.16758 1.62889,-5.44714 7.67065,-11.07684 14.09076,-13.12974 4.20359,-1.34414 11.43587,-1.47772 14.65621,-0.2707 9.86053,3.69585 16.24255,13.16105 19.20328,28.48047 0.43748,2.26359 0.89643,4.58933 1.01988,5.16832 0.20049,0.94024 -0.31441,1.26341 -4.81942,3.02478 -6.19501,2.42213 -9.46135,2.80762 -20.18539,2.38228 l 0,0 z"
         style="fill:url(#linearGradient5191);fill-opacity:1;fill-rule:nonzero;stroke:none" />
      <path
         transform="matrix(0.3389335,0,0,0.3389335,462.71632,180.07515)"
         inkscape:connector-curvature="0"
         d="m 462.23226,468.57369 c -0.84951,-0.3812 -1.75838,-0.58882 -2.66384,-0.78657 -1.28672,-0.27758 -2.58758,-0.46465 -3.89783,-0.58159 -1.50109,-0.0989 -3.0024,-0.0107 -4.49014,0.19392 -1.66463,0.26261 -3.26218,0.77602 -4.80768,1.43498 -1.76363,0.79003 -3.30251,1.95725 -4.80965,3.14719 -1.67277,1.35143 -3.08028,2.98774 -4.46119,4.6261 -1.51841,1.78689 -2.7162,3.80683 -3.8617,5.84372 -0.91635,1.65198 -1.73851,3.7591 -2.52707,5.85913 -1.01401,2.78605 -1.79813,5.64784 -2.54289,8.51528 -0.76531,3.00446 -1.43113,6.03288 -2.05105,9.07027 -0.63673,3.12968 -1.16295,6.27986 -1.65625,9.43481 -0.50666,3.24722 -0.93099,6.50629 -1.33682,9.76738 -0.39835,3.22256 -0.74713,6.4509 -1.07901,9.68089 0,0 -0.77355,1.1918 -0.77355,1.1918 l 0,0 c 0.33113,-3.23058 0.67914,-6.45952 1.07658,-9.68271 0.40487,-3.26182 0.82775,-6.5217 1.33306,-9.76975 0.49175,-3.15596 1.01564,-6.30731 1.65061,-9.43813 0.61745,-3.03878 1.28236,-6.06826 2.04477,-9.07433 0.74152,-2.86951 1.52337,-5.73309 2.53011,-8.52293 1.07155,-2.87393 2.27243,-5.69978 3.75562,-8.38979 1.15237,-2.03632 2.36028,-4.05255 3.8873,-5.83594 1.38818,-1.63827 2.80376,-3.27288 4.48865,-4.61727 1.51751,-1.18972 3.06854,-2.35348 4.84534,-3.13448 1.55762,-0.65486 3.16815,-1.16345 4.84301,-1.42128 1.49803,-0.1996 3.00931,-0.28611 4.51969,-0.18173 1.31578,0.11944 2.6222,0.30948 3.91442,0.5884 0.91533,0.20082 1.83362,0.41288 2.69228,0.7988 0,0 -0.62277,1.28383 -0.62277,1.28383 z"
         id="path4410"
         style="fill:#000000;fill-opacity:1;fill-rule:nonzero;stroke:none;filter:url(#filter4994)" />
      <path
         transform="matrix(0.3389335,0,0,0.3389335,462.71632,180.07515)"
         inkscape:connector-curvature="0"
         d="m 465.0545,491.73325 c 2.01494,0.23453 3.98685,0.72492 5.95407,1.20431 2.48065,0.57036 4.92804,1.26276 7.35877,2.01474 2.68136,0.8366 5.23235,2.01229 7.75626,3.2312 2.59714,1.2735 5.08584,2.74165 7.52188,4.2966 2.34259,1.50178 4.55317,3.19285 6.73871,4.91139 2.0778,1.6287 3.96594,3.47255 5.76269,5.40152 1.76391,1.88549 3.25414,3.99316 4.66948,6.14531 1.43875,2.21423 2.64622,4.56616 3.7705,6.95198 1.17355,2.51829 2.14225,5.12328 3.04382,7.74896 0.61586,1.82058 1.16055,3.6637 1.69527,5.50932 0,0 -0.72763,1.22129 -0.72763,1.22129 l 0,0 c -0.53295,-1.84434 -1.07588,-3.68618 -1.68938,-5.50574 -0.8972,-2.62277 -1.86203,-5.22479 -3.03057,-7.74079 -1.11832,-2.38226 -2.32087,-4.73034 -3.75311,-6.94185 -1.40873,-2.14774 -2.89135,-4.25197 -4.64846,-6.13385 -1.79003,-1.92562 -3.67147,-3.7663 -5.74302,-5.39161 -2.18134,-1.71646 -4.38786,-3.40529 -6.72613,-4.9053 -2.43113,-1.55226 -4.91444,-3.01851 -7.50669,-4.28936 -2.51768,-1.21557 -5.0623,-2.3882 -7.73743,-3.22118 -2.4281,-0.75089 -4.87313,-1.44113 -7.351,-2.01083 -1.95899,-0.47677 -3.92329,-0.96617 -5.931,-1.19001 0,0 0.57297,-1.3061 0.57297,-1.3061 z"
         id="path4412"
         style="fill:#000000;fill-opacity:1;fill-rule:nonzero;stroke:none;filter:url(#filter4990)" />
      <path
         transform="matrix(0.3389335,0,0,0.3389335,462.71632,180.07515)"
         inkscape:connector-curvature="0"
         d="m 487.96827,474.66664 c 1.6659,0.33102 3.29838,0.78468 4.90866,1.32117 2.03068,0.6664 4.01665,1.46474 5.95399,2.36546 2.18001,0.97525 4.2069,2.23469 6.15985,3.59978 2.03039,1.35733 3.90687,2.90895 5.65664,4.60838 1.78485,1.783 3.26384,3.81996 4.63017,5.93098 1.4585,2.33406 2.63241,4.82701 3.73784,7.34251 1.15836,2.63941 2.12481,5.35365 3.01598,8.09275 0,0 -0.72357,1.22348 -0.72357,1.22348 l 0,0 c -0.88749,-2.7364 -1.84914,-5.44837 -3.00396,-8.08532 -1.09999,-2.51085 -2.26783,-4.99939 -3.71831,-7.33078 -1.35773,-2.10489 -2.82662,-4.13677 -4.60213,-5.91533 -1.74238,-1.69644 -3.61171,-3.24499 -5.63625,-4.59793 -1.94543,-1.36144 -3.96509,-2.61673 -6.13777,-3.58819 -1.93259,-0.89823 -3.91385,-1.69378 -5.93964,-2.35788 -1.60443,-0.53332 -3.2311,-0.98428 -4.89127,-1.31079 0,0 0.58977,-1.29829 0.58977,-1.29829 z"
         id="path4414"
         style="fill:#000000;fill-opacity:1;fill-rule:nonzero;stroke:none;filter:url(#filter4986)" />
      <path
         transform="matrix(0.3389335,0,0,0.3389335,462.71632,180.07515)"
         inkscape:connector-curvature="0"
         d="m 469.36365,480.2117 c -0.95099,0.15526 -1.85282,0.50321 -2.73844,0.87156 -1.22054,0.51667 -2.33174,1.21303 -3.39559,1.99548 -1.35436,0.99803 -2.42141,2.28055 -3.38472,3.64479 -1.19174,1.78118 -2.20321,3.67317 -3.1641,5.58605 0.0423,-0.081 0.16375,-0.32662 0.12705,-0.24293 -0.78403,1.78746 -1.55493,3.55748 -2.21611,5.39583 -0.89862,2.52328 -1.56477,5.11912 -2.18965,7.72096 -0.68183,2.87209 -1.23587,5.77184 -1.76586,8.67505 -0.35476,1.95663 -0.67222,3.91965 -0.98346,5.88357 0,0 -0.78036,1.18803 -0.78036,1.18803 l 0,0 c 0.31037,-1.96453 0.62697,-3.92814 0.98071,-5.88542 0.52843,-2.90438 1.08029,-5.80543 1.7592,-8.67908 0.62141,-2.60395 1.28343,-5.20221 2.17626,-7.7288 0.93771,-2.63137 2.03054,-5.20228 3.31007,-7.68764 0.96638,-1.91201 1.98151,-3.80466 3.18498,-5.58024 0.97818,-1.36174 2.06201,-2.63893 3.42838,-3.63126 1.07399,-0.78013 2.19947,-1.46943 3.42782,-1.98395 0.89698,-0.36659 1.81003,-0.7134 2.77307,-0.85886 0,0 -0.54925,1.31686 -0.54925,1.31686 z"
         id="path4416"
         style="fill:#000000;fill-opacity:1;fill-rule:nonzero;stroke:none;filter:url(#filter4982)" />
      <path
         transform="matrix(0.3389335,0,0,0.3389335,462.71632,180.07515)"
         inkscape:connector-curvature="0"
         d="m 473.47757,519.13843 c 0.90545,0.86311 1.70955,1.82618 2.50114,2.79268 1.02633,1.34121 1.97231,2.74513 2.90595,4.15229 1.07121,1.75856 2.04949,3.57333 2.99018,5.40457 1.12977,2.29871 2.05408,4.68726 2.91828,7.09573 0.76677,2.16423 1.43412,4.36126 2.07743,6.56469 0,0 -0.72754,1.2217 -0.72754,1.2217 l 0,0 c -0.64107,-2.20184 -1.30614,-4.39732 -2.0701,-6.56025 -0.85991,-2.40461 -1.77977,-4.78912 -2.9029,-7.0854 -0.93657,-1.82819 -1.91405,-3.63779 -2.97688,-5.39597 -0.92885,-1.40504 -1.87586,-2.8029 -2.89369,-4.14486 -0.78601,-0.96251 -1.58604,-1.92025 -2.48397,-2.78144 0,0 0.6621,-1.26374 0.6621,-1.26374 z"
         id="path4418"
         style="fill:#000000;fill-opacity:1;fill-rule:nonzero;stroke:none;filter:url(#filter4978)" />
      <path
         transform="matrix(0.3389335,0,0,0.3389335,462.71632,180.07515)"
         inkscape:connector-curvature="0"
         d="m 466.48915,541.5363 c -0.85615,-0.12188 -1.7223,-0.0824 -2.58058,-0.0116 -1.12676,0.13078 -2.20896,0.5006 -3.25482,0.92575 -1.21686,0.55796 -2.29629,1.36712 -3.3024,2.24083 -0.73684,0.68717 -1.34571,1.48903 -1.93928,2.29825 0,0 0.44141,-1.35472 0.44141,-1.35472 l 0,0 c 0.602,-0.80815 1.21941,-1.60909 1.96959,-2.2884 1.02109,-0.87069 2.11279,-1.67963 3.34647,-2.22495 1.06036,-0.4208 2.15436,-0.79047 3.29489,-0.91025 0.86799,-0.0687 1.74356,-0.10158 2.60868,0.0233 0,0 -0.58396,1.30184 -0.58396,1.30184 z"
         id="path4420"
         style="fill:#000000;fill-opacity:1;fill-rule:nonzero;stroke:none;filter:url(#filter4974)" />
    </g>
  </g>
</svg>
