<?xml version="1.0" encoding="UTF-8" standalone="no"?>
<!-- Created with Inkscape (http://www.inkscape.org/) -->

<svg
   xmlns:dc="http://purl.org/dc/elements/1.1/"
   xmlns:cc="http://creativecommons.org/ns#"
   xmlns:rdf="http://www.w3.org/1999/02/22-rdf-syntax-ns#"
   xmlns:svg="http://www.w3.org/2000/svg"
   xmlns="http://www.w3.org/2000/svg"
   xmlns:sodipodi="http://sodipodi.sourceforge.net/DTD/sodipodi-0.dtd"
   xmlns:inkscape="http://www.inkscape.org/namespaces/inkscape"
   width="156.40175"
   height="197.94727"
   id="svg2882"
   version="1.1"
   inkscape:version="0.48.2 r9819"
   sodipodi:docname="Table.svg">
  <defs
     id="defs2884">
    <inkscape:perspective
       sodipodi:type="inkscape:persp3d"
       inkscape:vp_x="0 : 526.18109 : 1"
       inkscape:vp_y="0 : 1000 : 0"
       inkscape:vp_z="744.09448 : 526.18109 : 1"
       inkscape:persp3d-origin="372.04724 : 350.78739 : 1"
       id="perspective2890" />
    <inkscape:perspective
       id="perspective2900"
       inkscape:persp3d-origin="0.5 : 0.33333333 : 1"
       inkscape:vp_z="1 : 0.5 : 1"
       inkscape:vp_y="0 : 1000 : 0"
       inkscape:vp_x="0 : 0.5 : 1"
       sodipodi:type="inkscape:persp3d" />
    <inkscape:perspective
       id="perspective2922"
       inkscape:persp3d-origin="0.5 : 0.33333333 : 1"
       inkscape:vp_z="1 : 0.5 : 1"
       inkscape:vp_y="0 : 1000 : 0"
       inkscape:vp_x="0 : 0.5 : 1"
       sodipodi:type="inkscape:persp3d" />
  </defs>
  <sodipodi:namedview
     id="base"
     pagecolor="#ffffff"
     bordercolor="#666666"
     borderopacity="1.0"
     inkscape:pageopacity="0.0"
     inkscape:pageshadow="2"
     inkscape:zoom="1.4"
     inkscape:cx="-73.560616"
     inkscape:cy="77.35903"
     inkscape:document-units="px"
     inkscape:current-layer="layer1"
     showgrid="false"
     inkscape:window-width="1366"
     inkscape:window-height="706"
     inkscape:window-x="-8"
     inkscape:window-y="-8"
     inkscape:window-maximized="1" />
  <metadata
     id="metadata2887">
    <rdf:RDF>
      <cc:Work
         rdf:about="">
        <dc:format>image/svg+xml</dc:format>
        <dc:type
           rdf:resource="http://purl.org/dc/dcmitype/StillImage" />
        <dc:title />
      </cc:Work>
    </rdf:RDF>
  </metadata>
  <g
     inkscape:label="Layer 1"
     inkscape:groupmode="layer"
     id="layer1"
     transform="translate(-66.32449,-576.30232)">
    <path
       style="fill:#000000"
       d="m 56.000964,342.07874 c -5.3e-4,-0.78169 0.716429,-2.21397 1.593243,-3.18284 1.120018,-1.2376 1.393829,-2.67389 0.920544,-4.82874 -0.720806,-3.28181 -1.456016,-3.72589 -3.230567,-1.95134 -0.613699,0.61369 -2.166199,1.63746 -3.45,2.27503 -1.283801,0.63757 -2.477982,2.16045 -2.653735,3.38418 -0.23008,1.602 -1.00005,2.22497 -2.75,2.22497 -3.461077,0 -3.156471,-3.10351 0.740195,-7.54157 l 3.170645,-3.61117 -2.920645,-2.39265 C 45.81429,325.13865 43.7125,323.79269 42.75,323.46359 41.7875,323.13449 41,322.44191 41,321.92454 c 0,-1.8199 -9.484289,-0.64398 -14.329145,1.77662 -2.65603,1.32701 -5.35603,2.22066 -6,1.9859 -0.64397,-0.23477 0.741645,-1.20926 3.079145,-2.16553 2.3375,-0.95628 4.25,-2.13983 4.25,-2.63011 0,-1.1537 -0.0079,-1.15274 -5,0.60858 -2.338299,0.825 -5.882376,1.46423 -7.875727,1.4205 -3.030086,-0.0665 -2.605653,-0.30086 2.58885,-1.42967 9.80857,-2.1315 10.548463,-3.11574 2.809233,-3.73697 -3.688774,-0.2961 -7.227847,-1.10308 -7.864608,-1.79329 -0.907395,-0.98356 -0.743145,-1.10788 0.759568,-0.57493 1.054523,0.374 4.542023,0.95434 7.75,1.28964 6.666582,0.69679 6.514818,0.97964 4.346479,-8.10073 -0.77823,-3.259 -1.195163,-6.28109 -0.926519,-6.71577 0.268644,-0.43467 1.996345,-0.0713 3.839335,0.80761 3.427534,1.63448 11.199121,1.15508 10.100183,-0.62304 -0.290832,-0.47057 -1.428338,-0.62035 -2.52779,-0.33284 C 34.899552,301.99802 34,301.96002 34,301.62605 c 0,-0.33396 1.849918,-5.44895 4.11093,-11.36663 2.261011,-5.91768 6.283603,-16.74009 8.939093,-24.04981 3.080446,-8.47948 5.650647,-13.95639 7.100317,-15.13026 1.321247,-1.06989 4.590148,-2.05625 7.810907,-2.35688 4.695581,-0.4383 29.610901,-5.78748 33.924872,-7.28349 1.108174,-0.38429 1.01826,-0.88716 -0.448404,-2.5078 -2.100363,-2.32088 -2.676713,-4.66544 -1.348648,-5.48623 C 94.59008,233.13531 95,233.80852 95,234.94098 c 0,3.47857 1.755559,2.27855 2.19688,-1.50168 0.419638,-3.59451 -0.541297,-5.51534 -1.598629,-3.19553 -0.76597,1.68055 0.40135,-8.6341 1.363754,-12.05038 0.635095,-2.25443 0.868391,-1.71552 1.431452,3.30661 0.369983,3.3 1.156338,8.52641 1.747453,11.61425 0.7782,4.0651 0.76907,6.18543 -0.0331,7.68426 -1.617588,3.02248 -1.365375,4.20149 0.89877,4.20149 1.10364,0 2.98479,1.125 4.18034,2.5 2.2344,2.56978 7.32247,3.47175 8.00661,1.41933 0.19812,-0.59437 1.88947,-1.39343 3.75856,-1.7757 1.86909,-0.38227 3.58199,-1.24597 3.80645,-1.91933 0.29991,-0.89974 -1.80104,-1.22792 -7.92524,-1.23795 -8.60745,-0.0141 -13.124214,-0.70667 -12.3871,-1.89935 0.23305,-0.37708 4.55319,-0.29704 9.6003,0.17788 5.04711,0.47492 9.80137,0.62373 10.56502,0.33069 1.99715,-0.76638 1.7133,-3.59435 -0.36155,-3.60216 -5.70252,-0.0215 -10.7357,-8.22555 -9.54559,-15.55932 0.51444,-3.17011 3.50402,-5.55899 5.03762,-4.0254 0.32522,0.32522 0.0397,0.59131 -0.63438,0.59131 -0.67413,0 -0.94757,0.45 -0.60765,1 0.73147,1.18354 12.12222,1.21718 15,0.0443 1.87826,-0.76552 1.84783,-0.85185 -0.5,-1.4184 -1.375,-0.3318 -4.75,-0.75225 -7.5,-0.93434 -3.33246,-0.22065 -2.31231,-0.39118 3.05887,-0.51131 10.34404,-0.23136 12.06628,0.80955 10.54484,6.37322 -1.51286,5.5323 -4.63713,10.27177 -8.0699,12.24191 -3.22017,1.84812 -4.63958,5.1782 -2.74621,6.44291 0.66682,0.44542 6.59348,0.72168 13.17035,0.61393 l 11.95795,-0.19592 1.24695,2.92185 c 0.68582,1.60702 1.26724,4.82488 1.29205,7.1508 0.0248,2.32592 1.14144,7.50092 2.48141,11.5 3.72028,11.10298 7.56369,24.77293 7.56369,26.90197 0,1.53499 -0.48789,1.78473 -2.5,1.27972 -1.84026,-0.46187 -2.5,-0.22882 -2.5,0.88313 0,0.83082 -1.35,1.98119 -3,2.55639 l -3,1.0458 0,12.05202 0,12.05202 9.05902,0 c 6.2269,0 8.85053,0.33733 8.39215,1.07901 -0.43081,0.69707 -2.48701,0.83403 -5.80902,0.38692 -2.87899,-0.38748 -4.77538,-0.31222 -4.30882,0.171 0.84339,0.87348 1.33146,1.01293 4.33334,1.23807 0.91666,0.0688 1.39861,0.39306 1.07098,0.72068 -0.32762,0.32763 -4.51742,0.269 -9.31066,-0.13027 l -8.71498,-0.72595 0.64298,-10.50875 c 0.50963,-8.32918 1.00615,-10.78442 2.394,-11.83792 0.96305,-0.73105 1.52601,-1.37693 1.25101,-1.4353 -3.90437,-0.82861 -5.76637,-0.64924 -10.23527,0.98597 -2.8956,1.05953 -7.10787,2.40437 -9.36059,2.98852 -2.25273,0.58416 -4.50273,1.89908 -5,2.92206 C 124.35778,310.00657 114.37265,319 113.02912,319 c -0.49727,0 -0.96878,2.8125 -1.04781,6.25 -0.079,3.4375 -0.21965,7.825 -0.3125,9.75 l -0.16881,3.5 6.5,0.3028 c 3.575,0.16655 6.93044,0.73199 7.45654,1.25654 0.6068,0.60503 -5.2121,0.76906 -15.91522,0.44865 C 92.27001,339.99095 85.562019,339 99.333333,339 L 107,339 l 0,-10.30887 c 0,-7.51611 -0.39775,-10.83474 -1.4682,-12.25 -2.3074,-3.05066 -1.92386,-5.23908 0.4682,-2.6715 1.1,1.18071 2,2.62413 2,3.20761 0,0.64999 1.06508,0.80629 2.75,0.40355 4.19305,-1.00223 4.80062,-1.63296 2.42097,-2.51325 -3.05928,-1.1317 -2.70171,-2.78073 0.55418,-2.5558 2.47359,0.17088 2.73071,-0.13484 2.78527,-3.31174 0.0331,-1.925 -0.51819,-7.1 -1.22501,-11.5 -1.44423,-8.99047 -2.78721,-27.28325 -1.94339,-26.47084 0.3023,0.29103 1.2867,7.49103 2.18755,16 0.90086,8.50896 1.93774,17.72084 2.30418,20.47084 l 0.66625,5 4.47517,-4.75 c 2.46134,-2.6125 5.37077,-4.75 6.46539,-4.75 2.44969,0 22.56743,-6.83683 24.35495,-8.2768 0.71253,-0.574 1.01891,-1.75903 0.68085,-2.63341 -1.41408,-3.65748 -2.43362,-11.77165 -3.47991,-27.69546 -0.61053,-9.29188 -1.48318,-17.27052 -1.93922,-17.7303 C 148.02042,245.61872 123,244.83337 123,245.84614 c 0,1.35243 7.41198,2.73407 13.73623,2.56053 3.42992,-0.0941 5.99087,0.22588 5.69098,0.71111 C 142.12733,249.603 139.29852,250 136.14098,250 c -3.25957,0 -6.28117,0.54029 -6.99076,1.25 -1.4655,1.46575 -41.09009,2.03832 -43.314311,0.62589 -1.730093,-1.09866 3.427003,-5.61702 7.4349,-6.51406 1.523946,-0.34108 3.013003,-1.01203 3.309017,-1.49099 0.296015,-0.47896 0.39915,-0.87047 0.229191,-0.87002 -0.952737,0.003 -16.401786,3.38154 -22.809017,4.9888 -4.125,1.03475 -9.525,2.16701 -12,2.51612 -5.457066,0.76975 -8.626271,2.67542 -9.50863,5.71762 -1.117923,3.85438 -11.639418,32.02661 -13.621126,36.47178 C 36.49792,298.01649 36.503716,300 38.891592,300 c 1.183709,0 2.126404,-0.93557 2.519052,-2.5 0.83533,-3.32822 2.131628,-3.15537 3.74965,0.5 1.978637,4.47005 4.433381,3.88688 5.261576,-1.25 0.376864,-2.3375 0.69057,-4.925 0.697123,-5.75 0.01134,-1.42788 2.357059,-14.98024 3.418436,-19.75 0.275371,-1.2375 0.990247,-2.25 1.588612,-2.25 0.637156,0 0.79678,0.7251 0.385244,1.75 -0.386481,0.9625 -1.535458,6.7 -2.553283,12.75 -1.017825,6.05 -2.156008,12.4625 -2.529296,14.25 -0.665999,3.18915 -0.611494,3.25 2.91111,3.25 2.698056,0 3.888593,-0.55827 4.792555,-2.24734 0.727822,-1.35994 1.364995,-1.76056 1.613658,-1.01457 0.226006,0.67801 -0.573485,2.61522 -1.776646,4.30491 -1.203161,1.68968 -1.971626,3.28809 -1.707701,3.55202 0.801663,0.80166 6.068534,-1.81806 8.988318,-4.47076 1.5125,-1.37414 2.75,-1.96425 2.75,-1.31135 0,0.6529 -0.45,1.18709 -1,1.18709 -0.55,0 -1,0.45 -1,1 0,0.55 1.4625,1.00542 3.25,1.01205 1.7875,0.007 5.208433,1.13162 7.602074,2.5 2.39364,1.36837 5.607279,2.48795 7.14142,2.48795 2.323164,0 3.058188,-0.6719 4.397926,-4.02024 C 90.276139,301.76863 91,299.03905 91,297.91402 c 0,-1.12503 0.477811,-2.9383 1.061802,-4.0295 C 93.621079,290.97099 91.221549,286 88.255889,286 86.516274,286 86,286.57214 86,288.5 c 0,2.66325 -1.815617,3.28438 -3.8,1.3 -3.632906,-3.63291 0.683395,-8.8 7.351027,-8.8 4.313508,0 4.63287,0.19571 6.119215,3.75 1.840524,4.40124 1.256752,14.78714 -1.155692,20.56093 -0.945657,2.26328 -1.131808,3.80758 -0.505618,4.19459 1.519696,0.93922 1.177141,2.49448 -0.549425,2.49448 -2.028087,0 -7.522,4.08987 -6.882932,5.1239 0.273923,0.44322 0.527609,3.2812 0.563746,6.30664 0.04181,3.50069 0.474118,5.42237 1.188951,5.28512 0.617785,-0.11861 1.289548,0.90934 1.492805,2.28434 0.203258,1.375 0.847369,3.08157 1.43136,3.79238 0.750779,0.91382 0.742401,1.61178 -0.0286,2.38278 -1.598558,1.59856 -4.020166,0.29668 -4.397272,-2.36401 -0.25394,-1.79169 -1.058048,-2.38158 -3.577565,-2.62451 -2.080944,-0.20064 -3.25,0.13075 -3.25,0.92126 0,0.67904 -0.769607,2.08502 -1.710237,3.12441 -2.353078,2.60012 -0.513425,3.58185 5.781713,3.0854 C 87.053322,339.08255 89,339.33803 89,339.96452 c 0,0.56951 -0.5625,1.10062 -1.25,1.18023 -0.6875,0.0796 2.8,0.68237 7.75,1.33944 8.51604,1.13045 7.69605,1.18988 -15.249036,1.10525 -20.24851,-0.0747 -24.249195,-0.32391 -24.25,-1.5107 z M 68.581787,341 C 72.169696,341 73,340.66173 73,339.2 c 0,-0.99 0.491688,-2.29169 1.092641,-2.89264 1.596688,-1.59669 -0.576634,-5.13975 -3.621506,-5.90396 -4.679401,-1.17446 -7.153117,0.21028 -7.73899,4.33212 -0.294293,2.07046 -0.882542,4.6301 -1.30722,5.68809 -0.627085,1.56223 -0.442368,1.79706 0.983254,1.25 C 63.373647,341.30312 66.151771,341 68.581787,341 z M 111,328.94098 C 111,328.42344 110.55,328 110,328 c -0.55,0 -1,0.70156 -1,1.55902 0,0.85746 0.45,1.2809 1,0.94098 0.55,-0.33992 1,-1.04148 1,-1.55902 z m 0,-4.5 C 111,324.19844 110.55,324 110,324 c -0.55,0 -1,0.47656 -1,1.05902 0,0.58246 0.45,0.7809 1,0.44098 0.55,-0.33992 1,-0.81648 1,-1.05902 z m 37.60417,-8.17015 c -0.3323,-0.33229 -0.56864,0.25834 -0.52522,1.3125 0.048,1.16495 0.28494,1.4019 0.60416,0.60417 0.28887,-0.72188 0.25335,-1.58438 -0.0789,-1.91667 l -4e-5,0 z m -87.803427,-1.15622 c 0.360022,-1.09336 -0.361384,-1.24363 -3.422279,-0.7129 -2.783856,0.4827 -3.455123,0.38411 -2.378464,-0.3493 0.825,-0.56198 2.5125,-1.02868 3.75,-1.0371 1.326528,-0.009 2.25,-0.63096 2.25,-1.51531 0,-0.825 0.675,-1.5 1.5,-1.5 2.21096,0 1.824134,-1.68197 -0.528307,-2.29715 -2.731569,-0.71432 -11.685355,4.22961 -9.811322,5.41743 1.030421,0.65311 0.935701,0.85263 -0.410371,0.86441 -2.016631,0.0176 -2.34862,1.59574 -0.5,2.37674 2.419099,1.022 9.090439,0.15108 9.550743,-1.24682 z M 36.832297,312.6323 c 0.399625,-2.07509 -1.404007,-4.39392 -2.53667,-3.26126 -0.405738,0.40574 -0.07574,1.20227 0.733333,1.77008 1.152115,0.80855 0.983234,0.92546 -0.77896,0.53925 -1.38856,-0.30433 -2.25,-0.0185 -2.25,0.74658 0,3.12756 4.234873,3.30752 4.832297,0.20535 z M 76.024829,311.73522 83.5,310.34158 77.882947,307.74516 C 67.800941,303.08486 66,303.44515 66,310.12244 c 0,4.03779 0.269941,4.89842 1.274829,4.06444 0.701155,-0.58191 4.638655,-1.68516 8.75,-2.45166 z m 73.432461,0.19568 C 148.60006,310.54386 148,310.80249 148,312.55902 c 0,0.85746 0.45734,1.27636 1.01631,0.9309 0.55897,-0.34546 0.75742,-1.04702 0.44098,-1.55902 z M 47,310.5 C 48.019571,309.27149 47.951235,309 46.622445,309 45.7301,309 45,308.55 45,308 c 0,-0.55 -0.45,-1 -1,-1 -1.117168,0 -1.370703,3.29596 -0.333333,4.33333 1.034852,1.03486 1.97871,0.79889 3.333333,-0.83333 z m 5.418213,-0.10699 c 2.296076,-0.88109 1.943356,-2.30032 -0.418213,-1.68276 -1.1,0.28766 -2,0.92053 -2,1.40638 0,1.04547 0.318997,1.08193 2.418213,0.27638 z M 150,308.44098 C 150,308.19844 149.55,308 149,308 c -0.55,0 -1,0.47656 -1,1.05902 0,0.58246 0.45,0.7809 1,0.44098 0.55,-0.33992 1,-0.81648 1,-1.05902 z M 54.5,305 c 1.766793,-1.95228 1.746633,-2 -0.845012,-2 C 51.666667,303 51,303.5022 51,305 c 0,1.1 0.380256,2 0.845012,2 0.464757,0 1.659502,-0.9 2.654988,-2 z M 49,303.44098 c 0,-0.85746 -0.45734,-1.27636 -1.016312,-0.9309 -0.558971,0.34546 -0.757414,1.04702 -0.440983,1.55902 C 48.399945,305.45614 49,305.19751 49,303.44098 z M 159.46841,288.25 C 157.88232,280.59378 153.4055,266 152.64295,266 c -0.77836,0 -0.61037,2.23696 0.93869,12.5 1.62852,10.78953 2.24495,12.5 4.5048,12.5 1.60053,0 1.84917,-0.49477 1.38197,-2.75 z M 126,249.88337 c 0,-0.65783 -0.90311,-0.88046 -2.19796,-0.54185 -1.20888,0.31613 -2.76229,0.10643 -3.45202,-0.46599 -0.68972,-0.57242 -2.17564,-0.74826 -3.30203,-0.39076 C 113.2085,249.70337 114.98805,251 120.5,251 c 3.38298,0 5.5,-0.42981 5.5,-1.11663 z m -23.4309,-0.99517 c 1.53815,-2.48878 -6.358423,-3.86223 -11.0691,-1.92525 -2.312478,0.95087 -1.068355,1.67999 4,2.34422 5.62604,0.73732 6.38217,0.6925 7.0691,-0.41897 z m -3.964936,-12.61737 c -0.332292,-0.33229 -0.568638,0.25834 -0.525217,1.3125 0.04798,1.16495 0.284941,1.4019 0.604167,0.60417 0.288871,-0.72188 0.253344,-1.58438 -0.07895,-1.91667 z m 27.256906,-0.84784 c 3.11592,-1.84061 7.06087,-7.48917 7.40168,-10.59805 0.23055,-2.10304 -0.0594,-2.1609 -10.26275,-2.04746 -9.65616,0.10736 -10.52497,0.27628 -10.81068,2.10194 -0.3301,2.10931 2.03812,7.4644 4.58626,10.37058 1.906,2.17382 5.57994,2.24378 9.08549,0.17299 z M 119,320 c -2.53997,-0.53464 -1.1685,-0.74037 5,-0.75004 5.84121,-0.009 7.5616,0.22545 5.5,0.75004 -3.71285,0.94476 -6.01163,0.94476 -10.5,0 z m -9.38853,-11.27417 c -0.46421,-0.97579 -0.45834,-5.70079 0.013,-10.5 0.77504,-7.89113 0.88682,-8.22362 1.16852,-3.47583 0.48728,8.21264 -0.17824,16.08479 -1.18153,13.97583 z M 110.15789,281 c 0,-1.375 0.22698,-1.9375 0.50439,-1.25 0.27741,0.6875 0.27741,1.8125 0,2.5 -0.27741,0.6875 -0.50439,0.125 -0.50439,-1.25 z m 1.2164,-13.46701 c -0.30962,-0.80686 -0.36997,-2.04436 -0.1341,-2.75 0.23587,-0.70564 0.66592,-0.0455 0.95566,1.46701 0.56574,2.95322 0.099,3.68204 -0.82156,1.28299 z M 121,258.98585 c 0,-0.89316 5.86521,-2.45397 6.57065,-1.74853 0.23521,0.2352 -1.14697,0.9109 -3.0715,1.50156 C 122.57462,259.32954 121,259.44067 121,258.98585 z m 23.75,-10.64813 c 0.6875,-0.27741 1.8125,-0.27741 2.5,0 0.6875,0.27741 0.125,0.50439 -1.25,0.50439 -1.375,0 -1.9375,-0.22698 -1.25,-0.50439 z M 86.149482,214.30263 c -0.590025,-1.05432 -0.59825,-2.62228 -0.02171,-4.13869 1.24554,-3.27602 0.547894,-3.70687 -3.82777,-2.36394 -2.034062,0.62427 -3.789934,1.03716 -3.901939,0.91752 C 78.286057,208.59788 77.686421,204.225 77.065536,199 75.792039,188.28299 72.238538,165.937 71.382319,163.26142 70.534008,160.61054 68.919886,156.81494 67.378179,153.84571 66.620181,152.38585 66,150.96374 66,150.68548 c 0,-0.27827 3.9375,-0.78476 8.75,-1.12553 4.8125,-0.34078 11.225,-1.04102 14.25,-1.55609 4.735764,-0.80637 11.96927,-1.61117 20.83274,-2.31787 1.91236,-0.15247 2.64939,0.63983 4.08975,4.39644 0.96635,2.52034 2.00021,7.69534 2.29746,11.5 L 116.7604,168.5 115.25339,162 c -2.39075,-10.3118 -4.37161,-15.16861 -5.94092,-14.56641 -0.7586,0.2911 -4.62674,0.78992 -8.59587,1.10848 -3.96913,0.31857 -9.661747,1.00193 -12.650259,1.51857 C 85.077828,150.57729 80.277132,151 77.398128,151 c -7.644589,0 -8.671489,0.56534 -6.988651,3.8475 1.724567,3.36354 3.998003,14.40684 6.571193,31.91981 3.122308,21.25025 2.4085,19.55125 7.870395,18.73304 4.452632,-0.66703 6.546872,-2.04746 5.550927,-3.65893 -0.256323,-0.41474 -1.188033,-0.47702 -2.070467,-0.1384 -1.09329,0.41954 -1.454762,0.16669 -1.134642,-0.79367 0.258381,-0.77514 1.332284,-1.40935 2.38645,-1.40935 1.356366,0 2.01063,0.81907 2.238095,2.80187 0.306871,2.67499 0.533312,2.78821 5,2.5 4.272752,-0.27569 4.706022,-0.54041 4.994992,-3.05187 0.17403,-1.5125 0.89913,-2.75 1.61133,-2.75 0.84201,0 1.12776,0.87438 0.817,2.5 -0.52556,2.74928 0.6415,3.07275 6.70847,1.85936 4.29942,-0.85989 4.90294,-2.86761 5.20021,-17.29955 0.13662,-6.6329 0.60799,-12.05981 1.04749,-12.05981 1.20063,0 0.96112,22.47084 -0.29258,27.44973 -1.08946,4.32663 -1.09954,4.33431 -5,3.81115 -3.34887,-0.44918 -3.90615,-0.25486 -3.89303,1.35745 0.008,1.03492 0.41679,2.51586 0.90748,3.29099 2.10263,3.32142 -2.42316,6.95987 -6.17279,4.96252 -1.2375,-0.65919 -2.74715,-1.87276 -3.354786,-2.69683 -0.95393,-1.29372 -1.581286,-1.13487 -4.594391,1.16334 -4.002186,3.05261 -7.278297,3.41777 -8.651341,0.96428 z M 92,213.11663 c 0,-0.92173 -4.119601,-2.33036 -4.806465,-1.6435 -0.216593,0.2166 -0.09719,0.87375 0.265346,1.46034 C 88.252051,214.21684 92,214.36802 92,213.11663 z m 15.66729,-1.78267 c -0.77906,-0.77906 -3.63373,0.91133 -3.07252,1.81938 0.34777,0.5627 1.16277,0.46285 2.01842,-0.24728 0.78933,-0.65508 1.26367,-1.36253 1.0541,-1.5721 z M 95.418213,210.39301 C 97.392749,209.63531 97.514301,206 95.5651,206 c -0.789196,0 -2.638106,0.45746 -4.108691,1.01657 -2.218175,0.84335 -2.464004,1.26935 -1.442655,2.5 1.320898,1.59159 2.881358,1.84465 5.404459,0.87644 z m 9.477507,-0.3074 C 107.20956,208.62049 105.37239,206 102.03138,206 c -3.343676,0 -3.504635,0.2472 -1.9962,3.06574 1.1192,2.09123 2.65847,2.41421 4.86054,1.01987 z m -3.73261,-37.62892 C 100.7984,171.88287 98.475,170.80144 96,170.05351 c -2.475,-0.74792 -5.290041,-2.24392 -6.255647,-3.32444 -1.286851,-1.44 -2.096872,-1.68139 -3.033539,-0.90403 -0.751956,0.62407 -1.848891,0.70766 -2.665281,0.2031 -1.158536,-0.71601 -1.098585,-1.29823 0.363441,-3.52956 0.962957,-1.46966 2.022375,-2.40056 2.354262,-2.06868 0.331887,0.33189 0.07093,1.13593 -0.579903,1.78677 C 84.309838,164.09016 84.806211,165.17408 87,164 c 1.355992,-0.7257 2,-0.73703 2,-0.0352 0,0.56935 0.45,1.03518 1,1.03518 0.55,0 1,-0.675 1,-1.5 0,-1.72094 0.863129,-1.872 2.995129,-0.52417 1.281848,0.81037 1.210695,1.15318 -0.498792,2.40319 -1.939589,1.41826 -1.917751,1.47711 0.801441,2.15958 3.402387,0.85395 4.43566,0.0501 2.670091,-2.07732 -1.167376,-1.4066 -0.984605,-1.50705 1.607499,-0.88349 3.501012,0.84222 4.368842,1.53737 2.674632,2.14245 C 99.83029,167.22728 99.528491,170 100.89301,170 c 0.49116,0 1.15203,-0.675 1.46862,-1.5 0.31658,-0.825 1.4983,-1.5 2.62604,-1.5 1.70245,0 1.94101,0.43597 1.40568,2.56889 -0.62655,2.49639 -0.53536,2.55153 3.23095,1.95353 3.86477,-0.61364 3.86828,-0.6111 1.24554,0.90025 -2.88598,1.66304 -8.6585,1.68327 -9.70673,0.034 l 0,2e-5 z M 76.5,163 c -0.339919,-0.55 0.29995,-1 1.421931,-1 1.32244,0 2.253014,-0.84885 2.645675,-2.41334 0.360834,-1.43768 1.581376,-2.65822 3.019052,-3.01905 C 86.385518,155.86514 86.870968,153 84.19113,153 c -2.421011,0 -4.915764,2.04459 -5.490769,4.5 -0.354674,1.51454 -0.496515,1.34103 -0.58436,-0.71482 C 77.988491,153.80103 80.291254,152 84.234259,152 c 3.937976,0 5.096736,2.01877 2.652288,4.62077 -1.154699,1.22912 -2.726549,1.99412 -3.493,1.70001 C 82.502378,157.9788 82,158.4735 82,159.69301 82,163.05279 78.01389,165.44953 76.5,163 z"
       id="path3081"
       transform="translate(54.224185,430.63384)"
       sodipodi:nodetypes="csssssscccsssssssssssssssssssssssssssssssssssssssssssssssssssssscccssssscccccssssscccssssssscccsscccsssssssssscccssssssssssssssssssssssssssssssssssssssssssssssssssssssssssssssssssccssssssccsssccsssccsscccsssssssssccssssccccssccssccssssccssccsssccsssccssccsssccssssccssccssccssssccssccssccssccssccssccssccssssssssssscccssssssssssssssssssssssssssccssccssccsssccssccssssssssssssssssssssssscccssssssssssc" />
    <rect
       style="fill:#ffffff;stroke:none"
       id="rect2994"
       width="36.25"
       height="23.571428"
       x="130.50307"
       y="582.24963"
       ry="0" />
    <rect
       style="fill:#ffffff;fill-opacity:1;stroke:none"
       id="rect3002"
       width="28.928572"
       height="24.285715"
       x="98.035713"
       y="71.340126"
       transform="translate(66.32449,576.30232)" />
    <rect
       style="fill:#ffffff;fill-opacity:1;stroke:none"
       id="rect3004"
       width="3.9285715"
       height="1.4285715"
       x="108.39286"
       y="95.447266"
       transform="translate(66.32449,576.30232)" />
    <rect
       style="fill:none;stroke:#ffffff;stroke-width:1"
       id="rect3006"
       width="6.2211699"
       height="1.7871811"
       x="294.46106"
       y="635.40765"
       transform="matrix(0.98756084,0.15723734,-0.18380652,0.98296244,0,0)" />
    <text
       xml:space="preserve"
       style="font-size:18px;font-style:normal;font-variant:normal;font-weight:normal;font-stretch:normal;line-height:125%;letter-spacing:0px;word-spacing:0px;fill:#000000;fill-opacity:1;stroke:none;font-family:A Little Pot;-inkscape-font-specification:A Little Pot"
       x="81.064743"
       y="17.635036"
       id="text3008"
       sodipodi:linespacing="125%"
       transform="translate(66.32449,576.30232)"><tspan
         sodipodi:role="line"
         id="tspan3010"
         x="81.064743"
         y="17.635036">multiplication</tspan></text>
  </g>
</svg>
