<?xml version="1.0" encoding="UTF-8" standalone="no"?>
<!-- Created with Inkscape (http://www.inkscape.org/) -->
<svg
   xmlns:dc="http://purl.org/dc/elements/1.1/"
   xmlns:cc="http://web.resource.org/cc/"
   xmlns:rdf="http://www.w3.org/1999/02/22-rdf-syntax-ns#"
   xmlns:svg="http://www.w3.org/2000/svg"
   xmlns="http://www.w3.org/2000/svg"
   xmlns:sodipodi="http://sodipodi.sourceforge.net/DTD/sodipodi-0.dtd"
   xmlns:inkscape="http://www.inkscape.org/namespaces/inkscape"
   width="136.86809"
   height="132.92601"
   id="svg2"
   sodipodi:version="0.32"
   inkscape:version="0.45"
   sodipodi:docname="clipart.svg"
   inkscape:output_extension="org.inkscape.output.svg.inkscape"
   sodipodi:docbase="/media/My Book/PAO/téléthon"
   version="1.0">
  <defs
     id="defs4" />
  <sodipodi:namedview
     id="base"
     pagecolor="#ffffff"
     bordercolor="#666666"
     borderopacity="1.0"
     inkscape:pageopacity="0.0"
     inkscape:pageshadow="2"
     inkscape:zoom="2.3786509"
     inkscape:cx="128.13007"
     inkscape:cy="57.965404"
     inkscape:document-units="px"
     inkscape:current-layer="layer1"
     inkscape:window-width="1280"
     inkscape:window-height="742"
     inkscape:window-x="5"
     inkscape:window-y="38"
     width="14cm"
     height="11cm"
     units="cm" />
  <metadata
     id="metadata7">
    <rdf:RDF>
      <cc:Work
         rdf:about="">
        <dc:format>image/svg+xml</dc:format>
        <dc:type
           rdf:resource="http://purl.org/dc/dcmitype/StillImage" />
        <dc:title>bike rider</dc:title>
        <dc:creator>
          <cc:Agent>
            <dc:title>Steren Giannini</dc:title>
          </cc:Agent>
        </dc:creator>
        <dc:subject>
          <rdf:Bag>
            <rdf:li>bike bicycle</rdf:li>
          </rdf:Bag>
        </dc:subject>
        <cc:license
           rdf:resource="http://web.resource.org/cc/PublicDomain" />
      </cc:Work>
      <cc:License
         rdf:about="http://web.resource.org/cc/PublicDomain">
        <cc:permits
           rdf:resource="http://web.resource.org/cc/Reproduction" />
        <cc:permits
           rdf:resource="http://web.resource.org/cc/Distribution" />
        <cc:permits
           rdf:resource="http://web.resource.org/cc/DerivativeWorks" />
      </cc:License>
    </rdf:RDF>
  </metadata>
  <g
     inkscape:label="Calque 1"
     inkscape:groupmode="layer"
     id="layer1"
     transform="translate(-238.13834,-103.36358)">
    <path
       style="fill:#000000"
       d="M 356.63834,236.28754 C 355.26334,236.25185 352.45651,235.60488 350.40094,234.84983 C 348.34537,234.09477 344.71653,232.13742 342.33685,230.50016 L 338.01015,227.52331 L 334.26161,222.94871 L 330.51307,218.37411 L 326.87269,210.61884 L 323.23232,202.86358 L 323.18533,193.36358 L 323.13834,183.86359 L 324.88834,180.45995 C 325.85084,178.58795 326.63834,176.57902 326.63834,175.99566 L 326.63834,174.935 L 325.25086,176.3993 C 324.48775,177.20466 321.83044,182.57437 319.34573,188.33198 L 314.82808,198.80038 L 317.72121,201.75954 L 320.61433,204.7187 L 321.2073,207.87947 C 321.53343,209.6179 321.69286,211.6755 321.56158,212.45191 C 321.43031,213.22833 321.69199,214.71615 322.1431,215.75819 L 322.9633,217.6528 L 321.05082,219.0666 L 319.13834,220.4804 L 316.63834,219.87723 C 315.26334,219.54549 312.45514,218.90542 310.3979,218.45484 L 306.65745,217.63562 L 305.76337,218.7496 C 305.27162,219.36229 304.5465,221.3719 304.15199,223.2154 L 303.4347,226.56722 L 299.5923,230.40962 L 295.74989,234.25203 L 292.22113,234.91403 L 288.69237,235.57602 L 283.62756,234.36099 L 278.56275,233.14596 L 272.766,228.87864 L 266.96926,224.61132 L 262.87024,218.47299 L 258.77122,212.33466 L 256.53216,206.59912 L 254.29311,200.86358 L 254.01454,192.36358 L 253.73596,183.86359 L 255.93715,179.65892 L 258.13834,175.45426 L 260.96292,173.27767 L 263.78749,171.10109 L 267.99308,170.62706 L 272.19867,170.15303 L 275.96242,171.72563 L 279.72618,173.29823 L 280.15608,172.0809 C 280.39253,171.41137 281.04376,168.75245 281.60326,166.17218 L 282.62054,161.48079 L 282.02245,159.92219 C 281.6935,159.06496 281.03537,158.36359 280.55994,158.36359 L 279.69552,158.36359 L 278.67541,155.11359 L 277.6553,151.86359 L 278.00815,154.61359 L 278.36099,157.36359 L 277.24967,157.34714 C 276.63844,157.33809 274.38065,156.32559 272.23236,155.09714 L 268.32637,152.86359 L 266.23236,150.04026 L 264.13834,147.21692 L 264.13834,140.20964 L 264.13834,133.20236 L 266.09293,131.77313 L 268.04752,130.3439 L 270.09293,132.78336 C 271.2179,134.12505 273.71334,136.1528 275.63834,137.28946 L 279.13834,139.35611 L 281.06265,139.35985 L 282.98697,139.36359 L 280.78877,141.70346 L 278.59058,144.04333 L 277.68813,147.18997 L 276.78568,150.33662 L 277.73679,150.92443 L 278.68789,151.51225 L 278.54469,150.68792 C 278.46594,150.23453 278.45478,149.03109 278.51992,148.01359 L 278.63834,146.16359 L 281.91736,142.88457 L 285.19638,139.60555 L 282.08926,138.482 L 278.98214,137.35845 L 276.75599,134.98882 L 274.52984,132.6192 L 276.12195,132.00825 L 277.71405,131.3973 L 278.29953,132.92304 L 278.88501,134.44878 L 282.72184,136.40618 C 284.83209,137.48275 286.82668,138.36359 287.15426,138.36359 C 287.48184,138.36359 286.48727,137.27687 284.9441,135.94866 L 282.13834,133.53373 L 282.88221,132.78812 L 283.62608,132.04251 L 285.76511,133.95305 L 287.90414,135.86359 L 287.09803,133.36359 C 286.65468,131.98859 286.36816,129.81089 286.46133,128.52426 C 286.55449,127.23762 286.88399,125.77512 287.19355,125.27425 C 287.5031,124.77338 288.16856,124.36358 288.67236,124.36358 L 289.58834,124.36358 L 289.05893,127.11358 L 288.52951,129.86359 L 289.9077,135.86359 L 291.28589,141.86359 L 295.46211,142.17108 L 299.63834,142.47858 L 299.63834,136.4801 L 299.63834,130.48162 L 300.56634,129.90808 L 301.49435,129.33454 L 302.1387,131.36473 L 302.78306,133.39491 L 305.34556,131.37925 L 307.90806,129.36359 L 309.92818,129.36359 L 311.94831,129.36359 L 310.34598,127.59302 C 309.46469,126.61921 308.2596,124.70671 307.66799,123.34302 L 306.59234,120.86358 L 307.13439,123.61358 L 307.67644,126.36358 L 306.89794,126.36358 C 306.46976,126.36358 305.54679,125.44664 304.8469,124.32594 L 303.57437,122.28829 L 300.81936,123.91572 L 298.06435,125.54315 L 294.60134,124.03494 L 291.13834,122.52673 L 294.34129,122.44516 L 297.54423,122.36358 L 300.09129,121.20307 C 301.49216,120.56478 302.63834,119.70159 302.63834,119.28485 C 302.63834,118.86812 302.91148,117.81535 303.24533,116.94537 L 303.85232,115.36358 L 300.30434,115.36358 L 296.75637,115.36358 L 296.13834,114.36358 L 295.5203,113.36358 L 299.57932,113.36358 L 303.63834,113.36358 L 303.63834,110.55214 L 303.63834,107.7407 L 305.67729,105.55214 L 307.71625,103.36358 L 311.72695,103.36358 L 315.73766,103.36358 L 318.63631,104.86253 L 321.53495,106.36148 L 324.08665,109.70692 L 326.63834,113.05236 L 326.63834,114.8433 L 326.63834,116.63424 L 324.13834,118.95116 L 321.63834,121.26808 L 321.63834,123.81583 L 321.63834,126.36358 L 320.37888,126.36358 L 319.11943,126.36358 L 317.889,128.33382 L 316.65857,130.30405 L 318.51047,131.29515 L 320.36236,132.28625 L 322.52862,129.98038 L 324.69488,127.6745 L 324.01943,125.76904 L 323.34398,123.86358 L 324.51457,124.93699 C 325.15839,125.52737 325.86492,126.94384 326.08463,128.08471 C 326.30434,129.22557 327.62557,131.96721 329.0207,134.17724 C 330.41583,136.38726 332.05525,138.50322 332.66387,138.87936 C 333.27248,139.25551 335.11958,141.4257 336.76853,143.70201 L 339.76663,147.84076 L 343.95249,149.85217 L 348.13834,151.86359 L 350.55101,156.27265 L 352.96368,160.68172 L 350.71694,162.50102 L 348.4702,164.32032 L 344.37225,164.04591 L 340.27431,163.7715 L 339.87299,162.56755 L 339.47167,161.36359 L 340.76741,161.36359 L 342.06316,161.36359 L 337.13834,156.36359 C 334.42969,153.61359 331.83762,151.36359 331.37818,151.36359 C 330.91874,151.36359 329.4624,152.5294 328.14186,153.95429 L 325.74088,156.54499 L 324.7587,155.93798 L 323.77653,155.33096 L 323.15707,156.33327 L 322.53761,157.33558 L 325.2484,162.09958 C 326.73933,164.71977 329.06534,167.94375 330.41731,169.26397 L 332.87544,171.66436 L 338.50689,171.84605 L 344.13834,172.02773 L 349.09615,174.40346 L 354.05396,176.7792 L 359.73814,182.46339 L 365.42233,188.14757 L 369.08697,195.56245 L 372.7516,202.97734 L 373.87901,209.55913 L 375.00643,216.14093 L 373.79393,221.55893 L 372.58144,226.97693 L 369.56579,230.63542 L 366.55015,234.29392 L 362.84424,235.32317 C 360.806,235.88926 358.01334,236.32323 356.63834,236.28754 z M 357.00219,233.2875 L 359.86603,233.36358 L 363.65998,231.23126 L 367.45393,229.09894 L 369.29613,224.99848 L 371.13834,220.89801 L 371.02891,213.88079 L 370.91949,206.86358 L 368.67929,201.03935 L 366.4391,195.21512 L 361.78044,189.03935 L 357.12178,182.86359 L 352.2841,179.62498 L 347.44642,176.38637 L 343.63297,175.24383 L 339.81953,174.10129 L 337.28671,174.73698 L 334.75389,175.37269 L 341.26092,186.11814 C 344.83978,192.02812 348.86378,198.0132 350.20314,199.41829 C 351.5425,200.82339 352.63834,202.28589 352.63834,202.6683 C 352.63834,203.0507 352.17422,203.36358 351.60696,203.36358 L 350.57557,203.36358 L 349.9623,201.61358 C 349.62501,200.65108 348.13229,198.51358 346.64515,196.86358 C 345.15801,195.21358 341.7356,190.30151 339.0398,185.94789 C 336.344,181.59426 333.81958,177.54803 333.42998,176.95625 L 332.72162,175.8803 L 331.57787,177.02405 L 330.43412,178.1678 L 335.11465,188.65373 L 339.79519,199.13966 L 342.71676,201.93871 L 345.63834,204.73776 L 345.63834,206.17636 L 345.63834,207.61496 L 342.38457,204.06267 L 339.1308,200.51038 L 334.17445,190.43698 C 331.44847,184.89662 328.89756,180.36359 328.50578,180.36359 C 328.11399,180.36359 327.25415,181.99767 326.595,183.99488 L 325.39657,187.62618 L 325.84204,195.32145 L 326.28751,203.01673 L 329.33654,209.44015 C 331.01351,212.97304 333.81194,217.79909 335.55528,220.16472 L 338.72498,224.46586 L 343.2476,227.66472 C 345.73505,229.42409 349.20305,231.39184 350.95428,232.0375 C 352.70551,232.68316 355.42707,233.24566 357.00219,233.2875 z M 288.48721,232.27763 L 290.83608,232.36358 L 294.3121,230.7141 L 297.78812,229.06462 L 299.24785,226.8368 C 300.05069,225.61149 301.1343,223.12106 301.65585,221.30251 C 302.17741,219.48395 302.49933,217.89704 302.37124,217.77604 C 302.24314,217.65504 297.86334,217.24111 292.63834,216.85619 C 287.41334,216.47128 282.76438,215.92888 282.30731,215.65087 L 281.47628,215.14539 L 282.07636,212.75449 L 282.67644,210.36358 L 282.04898,207.86358 L 281.42152,205.36358 L 277.42152,205.36358 L 273.42152,205.36358 L 274.09648,202.67432 C 274.46771,201.19522 275.86872,194.59744 277.20982,188.01258 C 278.55093,181.42773 279.53348,175.9547 279.39327,175.85031 C 279.25306,175.74591 277.60869,175.14369 275.73912,174.51203 C 273.86954,173.88038 271.12359,173.36358 269.637,173.36358 L 266.9341,173.36358 L 263.63783,175.61359 L 260.34156,177.86359 L 258.42316,181.36359 L 256.50477,184.86359 L 256.91743,192.86358 L 257.3301,200.86358 L 259.97153,207.25476 L 262.61296,213.64594 L 266.70721,218.95286 L 270.80147,224.25977 L 275.67244,227.38546 C 278.35148,229.1046 281.80228,230.88928 283.34088,231.35142 C 284.87948,231.81356 287.19533,232.23035 288.48721,232.27763 z M 301.9487,216.22371 L 302.75907,216.36358 L 302.4487,212.63587 L 302.13834,208.90815 L 298.13834,208.26857 C 295.93834,207.91679 292.03371,207.35738 289.46139,207.02542 L 284.78445,206.42187 L 284.11023,209.49156 L 283.43601,212.56125 L 284.45085,213.5761 L 285.4657,214.59094 L 293.30202,215.33739 C 297.61199,215.74794 301.503,216.14678 301.9487,216.22371 z M 307.90996,216.36358 L 309.94831,216.36358 L 308.40462,214.61358 L 306.86093,212.86358 L 306.16826,209.60485 L 305.47559,206.34613 L 304.75957,206.78865 L 304.04355,207.23118 L 304.21777,209.54738 C 304.31359,210.82129 304.7249,212.87608 305.13179,214.11358 L 305.8716,216.36358 L 307.90996,216.36358 z M 319.29333,212.36358 C 319.48308,212.36358 319.63834,211.23858 319.63834,209.86358 L 319.63834,207.36358 L 317.63834,207.36358 L 315.63834,207.36358 L 315.63834,208.03484 C 315.63834,208.40403 316.38308,209.52903 317.29333,210.53484 C 318.20357,211.54065 319.10357,212.36358 319.29333,212.36358 z M 298.63834,206.15496 L 301.13834,206.18158 L 293.76543,204.22882 L 286.39253,202.27605 L 285.84877,202.81982 L 285.305,203.36358 L 285.87392,203.9325 C 286.18682,204.2454 288.62432,204.86747 291.29059,205.31488 C 293.95685,205.76228 297.26334,206.14032 298.63834,206.15496 z M 314.38834,206.34827 C 315.35084,206.33985 316.71147,205.96921 317.41197,205.52464 L 318.68561,204.71633 L 316.60092,202.82972 L 314.51624,200.9431 L 313.5926,202.40334 C 313.0846,203.20647 312.66207,204.42608 312.65365,205.11358 L 312.63834,206.36358 L 314.38834,206.34827 z M 304.02171,205.36358 C 304.23256,205.36358 304.6274,204.51339 304.89914,203.47428 L 305.3932,201.58497 L 304.53108,200.22427 L 303.66896,198.86358 L 303.65365,202.11358 C 303.64523,203.90108 303.81085,205.36358 304.02171,205.36358 z M 280.1908,204.36358 C 280.28441,204.36358 280.15544,203.2883 279.90421,201.97407 L 279.44743,199.58457 L 280.94869,197.22407 L 282.44994,194.86358 L 283.13787,186.73053 L 283.8258,178.59747 L 282.80406,177.96601 L 281.78233,177.33454 L 281.28902,179.09907 C 281.0177,180.06955 279.80397,185.55343 278.59185,191.28546 L 276.38798,201.70734 L 278.20429,203.03546 C 279.20326,203.76593 280.09719,204.36358 280.1908,204.36358 z M 309.28535,202.83165 C 310.02949,201.81396 310.63834,200.61732 310.63834,200.17245 L 310.63834,199.36358 L 308.77701,199.36358 L 306.91568,199.36358 L 307.42402,202.02277 L 307.93236,204.68197 L 309.28535,202.83165 z M 298.88834,203.24758 L 300.63834,203.36358 L 300.63834,202.02186 L 300.63834,200.68015 L 296.77232,199.52186 C 294.64601,198.88481 291.27101,198.36358 289.27232,198.36358 L 285.63834,198.36358 L 285.63834,199.32503 L 285.63834,200.28649 L 289.38834,201.24913 C 291.45084,201.77859 294.03834,202.41873 295.13834,202.67168 C 296.23834,202.92462 297.92584,203.18378 298.88834,203.24758 z M 289.52479,197.36358 L 295.63834,197.36358 L 295.63834,196.37612 L 295.63834,195.38866 L 291.56083,192.81465 L 287.48332,190.24063 L 288.11977,186.47348 L 288.75623,182.70632 L 287.29252,181.49154 L 285.8288,180.27677 L 285.26033,184.07018 C 284.94768,186.15655 284.40373,190.00108 284.05156,192.61358 L 283.41125,197.36358 L 289.52479,197.36358 z M 311.24802,197.36358 L 312.25771,197.36358 L 316.45409,188.17634 L 320.65047,178.98912 L 319.39441,178.19167 C 318.70357,177.75307 317.30269,177.38732 316.28135,177.3789 L 314.42436,177.36359 L 315.00221,175.85774 L 315.58006,174.35187 L 311.8592,172.0273 C 309.81273,170.74879 305.27865,168.18857 301.78348,166.33794 L 295.42863,162.97316 L 294.05113,160.87083 L 292.67362,158.76849 L 291.25776,150.31604 L 289.8419,141.86359 L 289.74012,144.28167 C 289.68414,145.61162 290.13901,149.57481 290.75093,153.08876 L 291.86353,159.47776 L 294.16841,162.17067 L 296.47329,164.86358 L 304.5321,169.36358 L 312.5909,173.86358 L 312.61462,184.41359 L 312.63834,194.96358 L 311.43834,196.16358 L 310.23834,197.36358 L 311.24802,197.36358 z M 302.44475,189.36358 C 302.62535,189.36358 302.51304,188.54416 302.19518,187.54267 L 301.61724,185.72174 L 302.46967,179.48862 L 303.3221,173.25549 L 301.23022,171.77914 L 299.13834,170.30279 L 297.84787,174.77066 L 296.5574,179.23855 L 297.31109,183.54615 L 299.71374,186.45487 C 301.03519,188.05465 302.26415,189.36358 302.44475,189.36358 z M 289.44397,175.32983 L 289.7496,171.43999 L 288.46909,169.15178 L 287.18858,166.86358 L 286.58309,171.86358 L 285.97761,176.86359 L 287.55797,178.04162 L 289.13834,179.21965 L 289.44397,175.32983 z M 283.37358,175.36359 L 284.36649,175.36359 L 285.00241,170.724 C 285.35217,168.17224 285.62465,165.13474 285.60793,163.974 L 285.57752,161.86359 L 284.66851,163.41653 C 284.16856,164.27066 283.44927,167.30816 283.07009,170.16653 L 282.38068,175.36359 L 283.37358,175.36359 z M 329.63834,174.36358 L 330.63834,174.36358 L 330.63834,173.30456 L 330.63834,172.24554 L 329.63834,172.86358 C 329.08834,173.20349 328.63834,173.68005 328.63834,173.92259 C 328.63834,174.16513 329.08834,174.36358 329.63834,174.36358 z M 321.38834,169.35153 L 322.63834,169.36358 L 322.63834,168.40903 C 322.63834,167.88403 321.49288,166.30903 320.09288,164.90903 L 317.54743,162.36359 L 313.79288,162.36359 L 310.03834,162.36359 L 308.83834,161.16359 C 308.17834,160.50359 307.63834,159.64641 307.63834,159.25874 L 307.63834,158.5539 L 311.67793,159.09572 L 315.71753,159.63755 L 317.17192,157.75057 L 318.62632,155.86359 L 318.11888,153.63589 L 317.61143,151.4082 L 320.48639,151.9832 L 323.36134,152.55819 L 326.4565,150.95762 L 329.55166,149.35705 L 326.345,144.14192 C 324.58134,141.2736 321.45084,137.22507 319.38834,135.14519 L 315.63834,131.36359 L 312.28622,131.36359 L 308.9341,131.36359 L 305.548,133.64548 L 302.1619,135.92738 L 301.53072,139.81045 L 300.89954,143.69353 L 301.68299,146.27856 L 302.46643,148.86359 L 302.55238,146.99114 L 302.63834,145.1187 L 304.25556,146.46087 L 305.87279,147.80305 L 305.33965,152.96865 L 304.80651,158.13425 L 307.97243,161.18026 C 309.71368,162.85556 313.16334,165.37673 315.63834,166.78287 C 318.11334,168.18901 320.70084,169.34491 321.38834,169.35153 z M 289.19735,163.36358 C 289.4399,163.36358 289.63834,162.91359 289.63834,162.36359 L 289.63834,161.36359 L 288.57932,161.36359 L 287.5203,161.36359 L 288.13834,162.36359 C 288.47826,162.91359 288.95481,163.36358 289.19735,163.36358 z M 302.30062,155.61359 L 302.80501,154.36359 L 302.30062,153.11359 L 301.79623,151.86359 L 301.79623,154.36359 L 301.79623,156.86359 L 302.30062,155.61359 z M 346.88834,156.24758 C 347.30084,156.31138 347.63834,155.92396 347.63834,155.38664 C 347.63834,154.84932 346.4993,153.66336 345.10713,152.75118 C 343.71497,151.839 342.35437,151.31422 342.08359,151.585 C 341.81281,151.85578 341.86517,152.79112 342.19995,153.66353 L 342.80863,155.24973 L 344.47348,155.69066 C 345.38915,155.93317 346.47584,156.18378 346.88834,156.24758 z M 302.13834,151.36359 C 302.41334,151.36359 302.63834,151.13859 302.63834,150.86359 C 302.63834,150.58859 302.41334,150.36359 302.13834,150.36359 C 301.86334,150.36359 301.63834,150.58859 301.63834,150.86359 C 301.63834,151.13859 301.86334,151.36359 302.13834,151.36359 z M 287.63834,141.36359 L 288.97167,141.36359 L 288.305,140.69692 L 287.63834,140.03025 L 286.97167,140.69692 L 286.305,141.36359 L 287.63834,141.36359 z M 307.13834,118.36358 C 307.41334,118.36358 307.63834,118.13858 307.63834,117.86358 C 307.63834,117.58858 307.41334,117.36358 307.13834,117.36358 C 306.86334,117.36358 306.63834,117.58858 306.63834,117.86358 C 306.63834,118.13858 306.86334,118.36358 307.13834,118.36358 z M 319.53029,113.09517 L 319.92224,112.01187 L 316.29498,108.68772 L 312.66771,105.36358 L 310.40302,105.40778 L 308.13834,105.45197 L 311.84158,107.40768 L 315.54482,109.36338 L 317.34158,111.77092 L 319.13834,114.17847 L 319.53029,113.09517 z M 312.54333,113.32762 L 314.13834,113.29166 L 311.17742,110.87187 C 309.54891,109.54099 308.01417,108.65442 307.76688,108.9017 C 307.51959,109.14899 308.13425,110.25408 309.13279,111.35745 L 310.94831,113.36358 L 312.54333,113.32762 z M 254.88834,235.13691 C 251.17584,235.03999 245.88834,234.67204 243.13834,234.31924 L 238.13834,233.67779 L 249.88834,233.52068 L 261.63834,233.36358 L 261.63834,234.33835 L 261.63834,235.31312 L 254.88834,235.13691 z M 340.13834,235.11397 C 336.28834,235.12111 331.78834,234.83034 330.13834,234.46782 L 327.13834,233.80869 L 328.63834,233.22653 L 330.13834,232.64438 L 338.63834,233.87268 L 347.13834,235.10098 L 340.13834,235.11397 z M 269.13834,233.0283 C 265.28834,232.93771 260.00084,232.72642 257.38834,232.55879 L 252.63834,232.254 L 252.63834,231.30879 L 252.63834,230.36358 L 254.38834,230.41882 C 255.35084,230.44921 260.63834,231.08583 266.13834,231.83355 L 276.13834,233.19303 L 269.13834,233.0283 z M 270.70718,130.36359 C 270.30265,130.36359 269.71257,130.10449 269.39589,129.78781 L 268.82012,129.21203 L 270.79025,125.52106 L 272.76038,121.83009 L 275.94936,119.9669 C 277.7033,118.94214 281.27584,117.52791 283.88834,116.82416 L 288.63834,115.54461 L 288.63834,116.25321 C 288.63834,116.64294 286.95084,117.54904 284.88834,118.26677 C 282.82584,118.9845 279.39184,120.75199 277.25724,122.19451 L 273.37614,124.81729 L 272.40941,127.59044 C 271.87771,129.11567 271.11171,130.36359 270.70718,130.36359 z "
       id="path2211"
       sodipodi:nodetypes="cscccccccccccccccccsccccccccccccccccccccccccccccccccccccccccccccccccccccccccccccccccccccccccccccscccccccsscccccccccccccccccccccccccccccccccscccccccccccccccccccccccccccccccccccssscccccccccccccccsccccccccccccccccccccccccccccccccccccccccccccsscccsscccccccccccccsccccccccsccccccssscccccccccssscccccccccccccsccccccccccccccccccccccccccccccccsccccccccscccccccccccccccccccccccccccccccccccccccccccccccccsccccccccccccccccccccccccccccccccccccccccccccccccccccccccccccccccccccccccccccccscccccccccccccccccccccccccccccccccccccccsccccccccccccccccssscccccssscccccccccssscccccccccccccccscccccccccccccccccccccccccccccccccccccscccc" />
  </g>
</svg>
