<?xml version="1.0" encoding="UTF-8"?>
<!DOCTYPE svg PUBLIC "-//W3C//DTD SVG 1.1//EN" "http://www.w3.org/Graphics/SVG/1.1/DTD/svg11.dtd">
<svg version="1.1" xmlns="http://www.w3.org/2000/svg" xmlns:xlink="http://www.w3.org/1999/xlink" x="0px" y="0px" width="800" height="600" viewBox="0, 0, 800, 600">
  <g id="Layer 4">
    <g>
      <path d="M283.429,418.964 C314.896,459.226 260.738,524.701 216.438,476.74 C166.412,422.581 247.31,372.749 283.429,418.964 z" fill="#2B2B2B"/>
      <path d="M270.265,431.186 L271.677,433.09 L273.932,436.702 L275.668,440.278 L276.978,443.882 L278.229,449.423 L278.572,456.619 L277.631,463.141 L275.744,468.796 L274.134,471.833 L273.219,473.144 L272.155,474.495 L271.189,475.487 L270.322,476.198 L269.492,476.739 L268.587,477.221 L267.475,477.719 L266.04,478.247 L264.215,478.758 L262.001,479.168 L259.414,479.385 L256.505,479.324 L253.323,478.908 L249.923,478.075 L246.349,476.772 L242.644,474.954 L238.846,472.582 L234.991,469.622 L231.106,466.041 L229.228,464.076 L229.349,464.207 L227.101,461.674 L223.342,456.849 L220.365,452.199 L218.067,447.685 L216.412,443.345 L215.352,439.217 L214.837,435.349 L214.805,431.8 L215.176,428.635 L215.854,425.924 L216.717,423.736 L217.63,422.11 L218.473,421.023 L219.193,420.355 L219.85,419.904 L220.599,419.46 L221.633,418.886 L223.082,418.161 L224.996,417.342 L227.355,416.526 L230.108,415.808 L233.182,415.269 L238.484,414.92 L243.865,415.331 L247.402,416.031 L251.156,417.144 L254.899,418.684 L258.582,420.671 L262.17,423.127 L265.625,426.074 L268.911,429.529 L270.406,431.367 L270.406,431.367 C273.575,435.219 281.973,432.79 289.166,425.94 C296.358,419.09 299.62,410.414 296.452,406.561 C296.452,406.561 296.452,406.561 296.452,406.561 L294.496,404.205 L290.52,400.103 L286.285,396.567 L281.819,393.582 L277.148,391.136 L272.301,389.217 L267.296,387.812 L261.966,386.901 L253.989,386.524 L246.054,387.239 L240.479,388.382 L234.798,390.085 L229.003,392.396 L223.107,395.377 L217.153,399.089 L211.258,403.558 L205.614,408.729 L200.479,414.429 L196.073,420.417 L192.521,426.457 L189.832,432.395 L187.953,438.173 L186.81,443.8 L186.349,449.307 L186.536,454.734 L187.356,460.111 L188.812,465.462 L190.917,470.804 L193.688,476.14 L197.153,481.476 L201.275,486.737 L203.526,489.274 L203.526,489.274 C203.566,489.318 203.606,489.362 203.648,489.405 L203.648,489.405 L205.936,491.771 L210.454,495.881 L215.065,499.359 L219.761,502.222 L224.544,504.488 L229.415,506.167 L234.383,507.267 L239.458,507.785 L244.659,507.708 L250.001,507.013 L255.498,505.663 L261.133,503.618 L266.871,500.845 L272.611,497.346 L278.203,493.188 L283.476,488.497 L288.286,483.432 L292.536,478.157 L296.192,472.8 L299.465,467.014 L303.064,458.784 L305.937,448.526 L307.001,438.488 L306.315,428.886 L304.634,421.915 L302.896,417.313 L300.666,412.853 L298.006,408.648 L296.593,406.741 C293.607,402.716 285.294,404.926 278.024,411.676 C270.754,418.426 267.28,427.161 270.265,431.186 L270.265,431.186" fill="#000000"/>
      <path d="M279.041,423.038 L280.453,424.942 L282.844,428.752 L284.744,432.623 L286.197,436.559 L287.591,442.578 L288.049,450.575 L287.067,458.269 L284.851,465.459 L282.577,470.227 L280.876,473.031 L278.948,475.716 L276.888,478.136 L274.706,480.298 L272.395,482.222 L269.929,483.929 L267.274,485.428 L264.404,486.704 L261.31,487.726 L258.001,488.449 L254.497,488.826 L250.823,488.811 L247.01,488.361 L243.086,487.439 L239.08,486.01 L235.016,484.043 L230.919,481.508 L226.812,478.375 L222.716,474.618 L220.701,472.519 L220.741,472.562 L218.493,470.028 L214.613,465.058 L211.472,460.18 L209.017,455.392 L207.212,450.717 L206.02,446.181 L205.403,441.811 L205.319,437.636 L205.721,433.69 L206.553,430.007 L207.755,426.622 L209.26,423.559 L211.007,420.821 L212.956,418.379 L215.104,416.179 L217.485,414.16 L220.14,412.287 L223.091,410.566 L226.332,409.027 L229.837,407.712 L233.565,406.666 L237.473,405.925 L243.652,405.455 L249.899,405.855 L254.033,406.625 L258.205,407.835 L262.315,409.501 L266.328,411.642 L270.208,414.274 L273.924,417.417 L277.44,421.088 L279.088,423.098 L279.088,423.098 C280.145,424.382 282.944,423.572 285.342,421.289 C287.739,419.005 288.826,416.113 287.77,414.829 C287.77,414.829 287.77,414.829 287.77,414.829 L285.968,412.646 L282.222,408.76 L278.247,405.42 L274.073,402.611 L269.732,400.319 L265.253,398.526 L260.665,397.218 L255.932,396.378 L248.82,395.989 L241.763,396.582 L237.022,397.524 L232.316,398.899 L227.667,400.712 L223.097,402.972 L218.646,405.689 L214.371,408.859 L210.36,412.454 L206.717,416.405 L203.54,420.619 L200.89,425.008 L198.794,429.508 L197.253,434.09 L196.265,438.745 L195.834,443.471 L195.969,448.272 L196.688,453.147 L198.012,458.09 L199.967,463.098 L202.58,468.16 L205.883,473.267 L209.883,478.382 L212.134,480.919 L212.134,480.919 C212.147,480.933 212.161,480.948 212.174,480.962 L212.174,480.962 L214.326,483.194 L218.633,487.128 L222.992,490.433 L227.389,493.133 L231.812,495.249 L236.252,496.803 L240.697,497.814 L245.14,498.298 L249.577,498.267 L254,497.731 L258.403,496.695 L262.769,495.161 L267.073,493.136 L271.27,490.638 L275.299,487.705 L279.092,484.397 L282.588,480.783 L285.743,476.936 L288.535,472.914 L291.022,468.62 L293.958,462.121 L296.502,453.398 L297.525,444.533 L296.953,435.731 L295.416,429.237 L293.82,424.968 L291.755,420.803 L289.23,416.796 L287.817,414.889 C286.821,413.548 284.05,414.285 281.627,416.535 C279.203,418.785 278.046,421.697 279.041,423.038 L279.041,423.038" fill="#151515"/>
    </g>
    <g>
      <path d="M200.553,303.088 C183.553,290.088 147.95,296.301 144.42,317.479 C139.42,347.479 153.42,351.479 170.42,374.479" fill="url(#Gradient_1)"/>
      <path d="M202.575,300.884 L200.929,299.721 L197.273,297.685 L193.265,296.088 L189.001,294.938 L184.554,294.228 L179.995,293.951 L175.392,294.101 L170.811,294.677 L166.314,295.677 L161.958,297.112 L157.787,298.999 L153.844,301.382 L150.183,304.321 L146.938,307.849 L144.353,311.866 L142.637,316.167 L142.095,318.501 L142.095,318.501 C142.085,318.548 142.076,318.595 142.069,318.641 L142.069,318.641 L141.656,321.377 L141.139,326.525 L141.036,331.2 L141.331,335.43 L142.002,339.275 L143.023,342.794 L145.145,347.576 L148.949,353.432 L153.68,359.178 L159.127,365.337 L163.569,370.552 L166.657,374.435 L168.23,376.521 L168.23,376.521 C168.732,377.188 170.12,376.814 171.329,375.686 C172.539,374.559 173.113,373.104 172.611,372.438 L171.014,370.32 L167.893,366.397 L163.433,361.162 L158.02,355.043 L153.391,349.436 L149.711,343.81 L147.676,339.262 L146.707,335.972 L146.067,332.382 L145.778,328.419 L145.865,324.012 L146.358,319.057 L146.771,316.318 L146.745,316.458 L147.05,314.909 L148.081,311.976 L149.523,309.479 L151.438,307.227 L153.92,305.13 L156.956,303.234 L160.451,301.614 L164.299,300.322 L168.396,299.392 L172.651,298.843 L176.976,298.689 L181.29,298.94 L185.512,299.603 L189.566,300.683 L193.373,302.185 L196.884,304.13 L198.531,305.293 C199.215,305.776 200.675,305.18 201.792,303.962 C202.909,302.745 203.26,301.366 202.575,300.884 L202.575,300.884" fill="#000000"/>
    </g>
    <g>
      <path d="M573.323,461.594 L226.75,458.94 C203.963,458.94 198.416,456.87 151.248,459.801 C145.579,455.266 145.108,410.589 150.293,405.404 C154.53,401.167 171.756,405.654 174.151,398.466 C176.438,391.608 170.102,377.436 166.517,370.265 C162.999,363.231 135.978,309.289 176.06,290.202 C197.508,280.887 275.888,296.776 298.016,299.696 C307.02,300.884 316.358,287.759 329.511,292.417 C378.015,309.595 434.142,304.616 460.734,302.304 C488.929,297.605 560.729,254.542 593.101,270.728 C643.326,295.841 610.968,352.259 621.841,374.004 C633.391,397.105 636.156,386.625 636.156,438.899 C636.156,447.08 632.179,456.157 624.704,459.894 C611.595,466.448 585.764,452.923 573.323,461.594 z" fill="url(#Gradient_2)"/>
      <path d="M574.758,459.222 L228.185,456.568 L228.185,456.568 C228.183,456.568 228.182,456.568 228.18,456.568 L228.18,456.568 L224.096,456.545 L216.816,456.397 L210.113,456.178 L203.28,455.972 L195.63,455.862 L188.943,455.892 L183.873,455.986 L178.221,456.15 L171.896,456.396 L164.813,456.733 L156.885,457.171 L152.574,457.432 L153.381,457.691 L152.865,457.152 L152.044,455.589 L151.29,453.243 L150.622,450.197 L150.065,446.592 L149.627,442.556 L149.199,435.951 L149.069,426.773 L149.303,420.148 L149.617,416.081 L150.057,412.422 L150.617,409.32 L151.278,406.943 L151.941,405.589 L151.824,405.935 L150.708,407.023 L151.647,406.327 L153.136,406.049 L156.022,405.722 L159.653,405.513 L163.498,405.273 L167.224,404.762 L170.664,403.666 L173.463,401.861 L175.568,399.432 L176.318,397.939 L176.318,397.939 C176.381,397.787 176.431,397.638 176.465,397.496 L176.465,397.496 L176.795,396.129 L176.974,392.569 L176.476,388.726 L175.491,384.738 L173.423,378.722 L171.039,373.075 L169.495,369.789 L168.786,368.352 L168.786,368.352 C168.785,368.35 168.785,368.349 168.784,368.348 L168.784,368.348 L168.389,367.554 L167.254,365.21 L165.773,361.955 L164.074,357.905 L162.29,353.182 L160.554,347.907 L158.999,342.201 L157.756,336.19 L156.957,330 L156.73,323.762 L157.2,317.619 L158.476,311.728 L160.638,306.273 L163.702,301.449 L166.501,298.413 L168.633,296.597 L171.212,294.771 L174.196,293.04 L175.773,292.258 L175.484,292.388 L176.53,291.97 L178.638,291.322 L182.454,290.546 L188.607,289.898 L195.749,289.679 L203.695,289.846 L212.255,290.35 L225.871,291.618 L244.556,293.975 L258.233,295.996 L266.884,297.36 L274.967,298.673 L282.317,299.878 L288.767,300.92 L294.155,301.742 L296.407,302.055 L296.407,302.055 C296.45,302.061 296.494,302.065 296.539,302.067 L296.539,302.067 L298.231,302.13 L302.082,301.399 L306.133,299.762 L310.058,297.766 L313.839,295.893 L317.568,294.485 L321.411,293.798 L324.447,293.92 L326.609,294.379 L327.725,294.737 L327.707,294.731 L332.274,296.277 L341.555,299.01 L350.944,301.28 L360.375,303.118 L374.468,305.146 L388.357,306.413 L397.417,306.895 L406.235,307.128 L414.766,307.15 L422.956,306.997 L430.75,306.706 L438.094,306.314 L444.932,305.857 L451.21,305.371 L456.87,304.894 L459.453,304.67 L459.453,304.67 C459.523,304.664 459.596,304.653 459.671,304.638 L459.671,304.638 L462.438,304.089 L468.847,302.347 L476.086,299.911 L483.986,296.946 L492.438,293.597 L501.33,290.005 L515.244,284.47 L529.487,279.184 L538.941,276.043 L548.252,273.359 L557.284,271.279 L565.915,269.939 L574.025,269.477 L579.673,269.785 L583.207,270.33 L586.572,271.169 L589.732,272.32 L591.206,273.006 L591.17,272.988 L593.464,274.188 L597.66,276.696 L601.396,279.358 L604.706,282.168 L607.616,285.114 L610.149,288.185 L613.303,293.011 L616.401,299.771 L618.404,306.803 L619.503,314.036 L619.882,321.381 L619.488,332.446 L618.479,343.237 L617.765,350.147 L617.229,356.737 L617.06,362.904 L617.451,368.552 L618.604,373.576 L619.55,375.87 L619.55,375.87 C619.559,375.89 619.568,375.91 619.578,375.929 L619.578,375.929 L620.635,377.999 L622.609,381.638 L624.393,384.704 L625.989,387.329 L628.044,390.737 L630.194,395.027 L631.399,398.636 L632.041,401.505 L632.575,404.952 L633.002,409.107 L633.328,414.111 L633.56,420.104 L633.707,427.226 L633.776,435.614 L633.784,440.324 L633.787,440.226 L633.602,443.323 L632.676,447.684 L631.692,450.295 L630.427,452.699 L628.962,454.728 L627.365,456.324 L625.618,457.537 L624.823,457.928 L625.169,457.755 L623.904,458.311 L621.562,458.959 L618.911,459.302 L615.924,459.384 L610.995,459.077 L603.982,458.146 L596.777,457.061 L589.681,456.313 L584.569,456.276 L581.272,456.633 L578.112,457.395 L575.011,458.697 L573.259,459.736 L573.259,459.736 C571.95,460.55 570.917,462.042 570.953,463.068 C570.988,464.094 572.079,464.266 573.388,463.452 L574.045,462.992 L576.196,462.016 L578.8,461.355 L581.704,461.019 L586.544,461.042 L593.531,461.776 L600.778,462.867 L607.973,463.815 L613.173,464.126 L616.543,464.011 L619.845,463.527 L622.973,462.591 L624.24,462.033 L624.24,462.033 C624.354,461.983 624.469,461.925 624.585,461.86 L624.585,461.86 L626.511,460.728 L629.709,458.216 L632.383,455.304 L634.505,452.19 L636.133,448.963 L637.336,445.597 L638.339,440.67 L638.525,437.571 L638.525,437.571 C638.527,437.538 638.528,437.505 638.528,437.473 L638.528,437.473 L638.52,432.744 L638.45,424.318 L638.301,417.145 L638.065,411.078 L637.731,405.976 L637.288,401.696 L636.726,398.099 L636.028,395.03 L634.727,391.189 L632.515,386.788 L630.457,383.375 L628.877,380.777 L627.117,377.753 L625.162,374.15 L624.105,372.08 L624.132,372.139 L623.286,370.156 L622.188,365.506 L621.802,360.142 L621.961,354.157 L622.49,347.646 L623.207,340.699 L624.23,329.711 L624.621,318.385 L624.217,310.784 L623.059,303.283 L620.959,295.985 L617.743,289.012 L614.488,284.048 L611.865,280.878 L608.858,277.842 L605.446,274.953 L601.605,272.222 L597.328,269.668 L595.033,268.468 L595.033,268.468 C595.021,268.462 595.009,268.456 594.997,268.45 L594.997,268.45 L593.379,267.705 L590.023,266.496 L586.457,265.616 L582.673,265.046 L576.686,264.739 L568.217,265.24 L559.272,266.64 L549.974,268.79 L540.446,271.541 L530.792,274.753 L516.407,280.093 L502.46,285.642 L493.609,289.217 L485.269,292.524 L477.568,295.417 L470.643,297.757 L464.566,299.42 L461.797,299.97 L462.015,299.939 L459.441,300.162 L453.804,300.638 L447.563,301.121 L440.77,301.575 L433.48,301.965 L425.745,302.254 L417.62,302.406 L409.16,302.385 L400.418,302.155 L391.459,301.681 L377.698,300.429 L363.719,298.42 L354.383,296.602 L345.091,294.359 L335.885,291.65 L331.315,290.103 L331.315,290.103 C331.309,290.101 331.303,290.099 331.297,290.097 L331.297,290.097 L329.969,289.684 L327.371,289.178 L323.573,289.123 L318.815,290.076 L314.455,291.761 L310.577,293.682 L307.19,295.429 L304.196,296.734 L301.187,297.388 L299.494,297.325 L299.625,297.337 L297.406,297.028 L292.038,296.209 L285.594,295.168 L278.241,293.963 L270.146,292.648 L261.473,291.28 L247.744,289.252 L228.977,286.887 L215.271,285.611 L206.603,285.103 L198.498,284.937 L191.097,285.174 L184.547,285.885 L180.242,286.788 L177.683,287.598 L176.636,288.016 L176.636,288.016 C176.541,288.054 176.444,288.098 176.347,288.147 L176.347,288.147 L174.265,289.205 L170.502,291.445 L167.07,293.953 L163.895,296.806 L159.98,301.331 L156.244,307.479 L153.822,313.79 L152.466,320.221 L151.989,326.717 L152.235,333.195 L153.063,339.558 L154.337,345.697 L155.922,351.501 L157.684,356.853 L159.492,361.637 L161.212,365.734 L162.711,369.025 L163.854,371.388 L164.25,372.183 L164.248,372.179 L164.943,373.588 L166.459,376.811 L168.799,382.341 L170.817,388.19 L171.756,391.935 L172.233,395.294 L172.169,398.068 L171.838,399.437 L171.985,398.994 L172.2,398.781 L172.756,398.533 L172.182,399.16 L169.595,400.052 L166.144,400.536 L162.312,400.775 L158.421,401.009 L154.59,401.564 L150.819,403.087 L149.879,403.785 L149.879,403.785 C149.467,404.09 149.082,404.466 148.762,404.873 L148.762,404.873 L147.707,406.418 L146.69,408.732 L145.934,411.526 L145.339,414.863 L144.884,418.677 L144.562,422.883 L144.326,429.662 L144.462,438.982 L144.899,445.701 L145.352,449.848 L145.935,453.594 L146.656,456.835 L147.537,459.476 L148.598,461.369 L149.115,461.91 L149.115,461.91 C149.297,462.101 149.575,462.19 149.921,462.169 L149.921,462.169 L154.215,461.91 L162.117,461.472 L169.172,461.137 L175.465,460.892 L181.084,460.729 L186.11,460.635 L192.741,460.605 L200.345,460.714 L207.17,460.92 L213.909,461.139 L221.233,461.289 L225.319,461.311 L225.314,461.311 L571.889,463.965 C572.933,463.973 574.421,462.917 575.213,461.608 C576.005,460.298 575.801,459.23 574.758,459.222 L574.758,459.222" fill="#000000"/>
    </g>
    <g>
      <path d="M150.293,405.404 L192.653,420.883 C192.653,420.883 193.653,477.883 193.653,477.883 C193.653,477.883 151.248,459.801 151.248,459.801 L150.293,405.404 z" fill="#808080"/>
      <path d="M148.467,407.71 L190.827,423.189 L190.282,422.333 L190.285,422.495 L190.306,423.741 L190.347,426.071 L190.404,429.321 L190.475,433.322 L190.555,437.907 L190.689,445.516 L190.875,456.147 L191.009,463.756 L191.089,468.341 L191.159,472.342 L191.216,475.592 L191.257,477.923 L191.279,479.168 L191.282,479.332 L195.524,475.594 L195.402,475.542 L194.476,475.147 L192.742,474.408 L190.324,473.377 L187.348,472.108 L183.937,470.653 L178.276,468.24 L170.367,464.867 L164.706,462.453 L161.295,460.998 L158.318,459.729 L155.901,458.698 L154.167,457.959 L153.24,457.564 L153.119,457.512 L153.619,458.351 L152.665,403.955 L152.665,403.955 C152.647,402.918 151.571,402.726 150.261,403.526 C148.951,404.326 147.904,405.816 147.922,406.853 L148.876,461.25 L148.876,461.25 C148.883,461.659 149.059,461.954 149.377,462.089 L149.377,462.089 L149.498,462.141 L150.425,462.536 L152.159,463.276 L154.576,464.307 L157.553,465.576 L160.964,467.03 L166.625,469.444 L174.534,472.817 L180.195,475.23 L183.606,476.685 L186.583,477.954 L189,478.985 L190.734,479.725 L191.661,480.12 L191.783,480.172 L191.783,480.172 C192.239,480.366 192.943,480.214 193.685,479.761 C194.995,478.961 196.043,477.471 196.025,476.434 L196.025,476.434 L196.022,476.271 L196,475.025 L195.959,472.694 L195.902,469.445 L195.832,465.444 L195.751,460.859 L195.618,453.25 L195.431,442.618 L195.298,435.01 L195.218,430.424 L195.147,426.424 L195.09,423.174 L195.049,420.843 L195.028,419.598 L195.025,419.433 L195.025,419.433 C195.017,419.005 194.825,418.703 194.48,418.577 L194.48,418.577 L152.119,403.098 C151.283,402.792 149.788,403.578 148.78,404.852 C147.771,406.125 147.631,407.405 148.467,407.71 L148.467,407.71" fill="#000000"/>
    </g>
    <g>
      <path d="M543.61,421.964 C575.077,462.226 520.919,527.701 476.619,479.74 C426.593,425.581 507.491,375.749 543.61,421.964 z" fill="#2B2B2B"/>
      <path d="M530.446,434.186 L531.858,436.09 L534.113,439.702 L535.849,443.278 L537.159,446.882 L538.41,452.423 L538.753,459.619 L537.812,466.141 L535.925,471.796 L534.315,474.833 L533.4,476.144 L532.336,477.495 L531.37,478.487 L530.503,479.198 L529.672,479.739 L528.768,480.221 L527.656,480.719 L526.221,481.247 L524.396,481.758 L522.182,482.168 L519.595,482.385 L516.686,482.324 L513.504,481.908 L510.104,481.075 L506.53,479.772 L502.825,477.954 L499.027,475.582 L495.172,472.622 L491.287,469.041 L489.409,467.076 L489.53,467.207 L487.282,464.674 L483.523,459.849 L480.545,455.199 L478.248,450.685 L476.593,446.345 L475.533,442.217 L475.018,438.349 L474.985,434.8 L475.357,431.635 L476.034,428.924 L476.898,426.736 L477.811,425.11 L478.654,424.023 L479.374,423.355 L480.03,422.904 L480.78,422.46 L481.814,421.886 L483.262,421.161 L485.177,420.342 L487.536,419.526 L490.288,418.808 L493.363,418.269 L498.665,417.92 L504.046,418.331 L507.583,419.031 L511.337,420.144 L515.08,421.684 L518.763,423.671 L522.351,426.127 L525.806,429.074 L529.092,432.529 L530.587,434.367 L530.587,434.367 C533.755,438.219 542.154,435.79 549.347,428.94 C556.539,422.09 559.801,413.414 556.633,409.561 C556.633,409.561 556.633,409.561 556.633,409.561 L554.677,407.205 L550.701,403.103 L546.466,399.567 L542,396.582 L537.328,394.136 L532.482,392.217 L527.477,390.812 L522.147,389.901 L514.17,389.524 L506.235,390.239 L500.66,391.382 L494.979,393.085 L489.184,395.396 L483.288,398.377 L477.334,402.089 L471.438,406.558 L465.795,411.729 L460.66,417.429 L456.254,423.417 L452.702,429.457 L450.013,435.395 L448.133,441.173 L446.991,446.8 L446.53,452.307 L446.717,457.734 L447.537,463.111 L448.993,468.462 L451.098,473.804 L453.869,479.14 L457.334,484.476 L461.456,489.737 L463.707,492.274 L463.707,492.274 C463.747,492.318 463.787,492.362 463.829,492.405 L463.829,492.405 L466.117,494.771 L470.635,498.881 L475.246,502.359 L479.942,505.222 L484.725,507.488 L489.596,509.167 L494.564,510.267 L499.639,510.785 L504.84,510.708 L510.182,510.013 L515.679,508.663 L521.314,506.618 L527.052,503.845 L532.792,500.346 L538.383,496.188 L543.657,491.497 L548.467,486.432 L552.717,481.157 L556.373,475.8 L559.646,470.014 L563.245,461.784 L566.118,451.526 L567.182,441.488 L566.495,431.886 L564.815,424.915 L563.077,420.313 L560.847,415.853 L558.187,411.648 L556.774,409.741 C553.788,405.716 545.475,407.926 538.205,414.676 C530.934,421.426 527.461,430.161 530.446,434.186 L530.446,434.186" fill="#000000"/>
      <path d="M539.222,426.038 L540.634,427.942 L543.024,431.752 L544.925,435.623 L546.377,439.559 L547.772,445.578 L548.229,453.575 L547.247,461.269 L545.032,468.459 L542.758,473.227 L541.057,476.031 L539.129,478.716 L537.069,481.136 L534.887,483.298 L532.576,485.222 L530.11,486.929 L527.455,488.428 L524.585,489.704 L521.491,490.726 L518.182,491.449 L514.677,491.826 L511.004,491.811 L507.191,491.361 L503.267,490.439 L499.261,489.01 L495.197,487.043 L491.1,484.508 L486.993,481.375 L482.897,477.618 L480.882,475.519 L480.922,475.562 L478.673,473.028 L474.794,468.058 L471.653,463.18 L469.198,458.392 L467.392,453.717 L466.201,449.181 L465.584,444.811 L465.5,440.636 L465.902,436.69 L466.734,433.007 L467.936,429.622 L469.441,426.559 L471.187,423.821 L473.136,421.379 L475.285,419.179 L477.666,417.16 L480.321,415.287 L483.272,413.566 L486.513,412.027 L490.018,410.712 L493.746,409.666 L497.654,408.925 L503.833,408.455 L510.08,408.855 L514.214,409.625 L518.386,410.835 L522.496,412.501 L526.509,414.642 L530.389,417.274 L534.104,420.417 L537.621,424.088 L539.269,426.098 L539.269,426.098 C540.325,427.382 543.125,426.572 545.522,424.289 C547.92,422.005 549.007,419.113 547.951,417.829 C547.951,417.829 547.951,417.829 547.951,417.829 L546.149,415.646 L542.403,411.76 L538.427,408.42 L534.253,405.611 L529.913,403.319 L525.434,401.526 L520.845,400.218 L516.113,399.378 L509.001,398.989 L501.944,399.582 L497.203,400.524 L492.497,401.899 L487.848,403.712 L483.278,405.972 L478.827,408.689 L474.552,411.859 L470.54,415.454 L466.898,419.405 L463.721,423.619 L461.071,428.008 L458.975,432.508 L457.434,437.09 L456.446,441.745 L456.015,446.471 L456.15,451.272 L456.869,456.147 L458.193,461.09 L460.147,466.098 L462.761,471.16 L466.064,476.267 L470.064,481.382 L472.315,483.919 L472.315,483.919 C472.328,483.933 472.342,483.948 472.355,483.962 L472.355,483.962 L474.507,486.194 L478.814,490.128 L483.173,493.433 L487.57,496.133 L491.993,498.249 L496.432,499.803 L500.877,500.814 L505.321,501.298 L509.758,501.267 L514.181,500.731 L518.584,499.695 L522.95,498.161 L527.254,496.136 L531.451,493.638 L535.48,490.705 L539.273,487.397 L542.768,483.783 L545.924,479.936 L548.716,475.914 L551.203,471.62 L554.139,465.121 L556.683,456.398 L557.706,447.533 L557.134,438.731 L555.596,432.237 L554.001,427.968 L551.936,423.803 L549.411,419.796 L547.998,417.889 C547.002,416.548 544.231,417.285 541.808,419.535 C539.384,421.785 538.227,424.697 539.222,426.038 L539.222,426.038" fill="#151515"/>
    </g>
    <g>
      <g>
        <path d="M451.233,331.908 C456.961,321.189 474.566,260.272 477.988,256.771 C479.251,255.479 508.633,255.988 510.225,256.965 C515.017,259.906 520.973,320.528 520.973,331.908" fill="#441D00"/>
        <path d="M453.296,331.605 L453.867,330.458 L455.288,327.165 L456.891,323 L458.65,318.113 L460.544,312.626 L462.539,306.688 L465.642,297.266 L469.79,284.556 L472.743,275.605 L474.561,270.217 L476.216,265.474 L477.663,261.548 L478.852,258.622 L479.69,256.962 L479.626,257.16 L477.936,258.699 L478.134,258.583 L478.056,258.77 L480.041,258.588 L484.345,258.417 L489.701,258.369 L495.419,258.435 L500.829,258.598 L505.264,258.843 L507.53,259.069 L508.33,259.225 L508.377,259.263 L508.111,259.093 L508.563,259.534 L509.333,261.147 L510.21,263.948 L511.123,267.773 L512.038,272.429 L512.936,277.746 L514.229,286.61 L515.788,299.24 L516.787,308.629 L517.353,314.555 L517.826,320.035 L518.196,324.906 L518.453,329.01 L518.586,332.184 L518.602,333.352 L518.602,333.352 C518.616,334.392 519.69,334.587 521,333.79 C522.309,332.992 523.359,331.503 523.345,330.464 L523.326,329.217 L523.191,325.985 L522.932,321.844 L522.559,316.946 L522.084,311.444 L521.515,305.49 L520.511,296.06 L518.945,283.376 L517.644,274.459 L516.735,269.083 L515.802,264.34 L514.849,260.373 L513.863,257.304 L512.793,255.279 L512.34,254.837 L512.34,254.837 C512.266,254.765 512.176,254.708 512.073,254.667 L512.073,254.667 L511.662,254.525 L510.652,254.339 L508.27,254.104 L503.766,253.856 L498.301,253.691 L492.52,253.626 L487.064,253.676 L482.551,253.862 L480.021,254.137 L478.241,254.726 L478.041,254.842 L478.041,254.842 C477.413,255.208 476.805,255.761 476.351,256.381 L476.351,256.381 L475.564,257.565 L474.494,259.739 L473.227,262.865 L471.743,266.894 L470.069,271.695 L468.237,277.122 L465.279,286.091 L461.135,298.786 L458.044,308.173 L456.065,314.065 L454.198,319.475 L452.486,324.235 L450.983,328.153 L449.741,331.062 L449.169,332.211 C448.523,333.511 448.924,334.428 450.064,334.261 C451.203,334.093 452.651,332.904 453.296,331.605 L453.296,331.605" fill="#000000"/>
      </g>
      <g>
        <path d="M479.114,250.863 C480.223,233.052 479.053,222.7 479.904,217.477 C480.733,212.388 506.137,211.306 510.519,209.811 C522.887,205.594 514.372,246.74 511.163,250.023 z" fill="#441D00"/>
        <path d="M481.483,249.529 L481.666,246.277 L481.896,240.254 L481.989,234.883 L481.993,230.153 L481.959,226.038 L481.939,222.516 L481.982,219.571 L482.135,217.198 L482.26,216.28 L482.166,216.69 L482.314,216.225 L482.232,216.737 L482.112,217.143 L483.045,216.801 L485.676,216.016 L490.25,215.057 L495.366,214.255 L500.446,213.583 L504.938,212.994 L508.329,212.434 L509.595,212.113 L509.549,212.125 L510.647,211.86 L511.892,212.116 L512.84,213.026 L513.661,214.634 L514.25,216.912 L514.572,219.746 L514.582,224.783 L513.865,232.206 L512.584,239.505 L511.442,244.281 L510.676,246.876 L509.958,248.85 L509.406,249.927 L509.578,249.562 L512.545,247.652 L480.497,248.492 L480.497,248.492 C479.433,248.52 477.951,249.604 477.187,250.913 C476.424,252.223 476.667,253.262 477.731,253.235 L509.781,252.394 L509.781,252.394 C510.685,252.37 511.919,251.576 512.748,250.484 L512.748,250.484 L513.551,249.286 L514.41,247.49 L515.237,245.181 L516.072,242.327 L517.27,237.279 L518.593,229.677 L519.325,221.927 L519.297,216.579 L518.913,213.421 L518.162,210.735 L516.934,208.653 L515.045,207.389 L512.589,207.233 L511.489,207.498 L511.489,207.498 C511.474,207.501 511.459,207.505 511.443,207.509 L511.443,207.509 L510.595,207.741 L507.337,208.281 L502.841,208.87 L497.663,209.557 L492.32,210.4 L487.303,211.475 L483.952,212.532 L481.725,213.594 L479.263,215.559 L477.79,217.798 L477.642,218.265 L477.642,218.265 C477.596,218.407 477.565,218.545 477.548,218.675 L477.548,218.675 L477.399,219.837 L477.239,222.372 L477.195,225.379 L477.216,228.908 L477.249,232.996 L477.246,237.676 L477.155,242.979 L476.927,248.944 L476.745,252.198 C476.685,253.281 477.697,253.561 479.005,252.824 C480.314,252.087 481.423,250.612 481.483,249.529 L481.483,249.529" fill="#000000"/>
      </g>
      <g>
        <path d="M473.35,343.571 C479.77,331.828 493.755,261.773 497.591,257.937 C499.006,256.522 508.441,255.895 510.225,256.965 C515.596,260.187 520.973,310.694 520.973,323.161" fill="#6E2F00"/>
        <path d="M475.421,343.253 L476.044,341.986 L477.532,338.243 L479.098,333.512 L480.743,327.954 L482.461,321.703 L484.235,314.924 L486.944,304.156 L490.523,289.608 L493.066,279.354 L494.645,273.18 L496.1,267.748 L497.401,263.252 L498.511,259.903 L499.348,258.006 L499.282,258.252 L497.942,259.603 L498.297,259.347 L498.503,259.436 L500.665,259.062 L504.511,258.796 L507.037,258.907 L508.135,259.133 L508.351,259.253 L508.142,259.122 L508.645,259.56 L509.498,261.026 L510.422,263.455 L511.367,266.737 L512.298,270.718 L513.199,275.259 L514.473,282.843 L515.977,293.708 L517.199,304.51 L517.892,311.964 L518.232,316.388 L518.467,320.232 L518.587,323.363 L518.602,324.602 L518.602,324.602 C518.614,325.643 519.686,325.841 520.996,325.045 C522.306,324.249 523.357,322.761 523.345,321.72 L523.328,320.404 L523.205,317.212 L522.968,313.325 L522.624,308.859 L521.925,301.355 L520.696,290.491 L519.181,279.559 L517.896,271.909 L516.979,267.295 L516.021,263.212 L515.023,259.772 L513.965,257.07 L512.812,255.247 L512.308,254.808 L512.308,254.808 C512.247,254.755 512.177,254.712 512.099,254.678 L512.099,254.678 L511.475,254.435 L509.999,254.165 L507.122,254.062 L502.815,254.389 L499.755,255.024 L497.595,256.015 L497.239,256.272 L497.239,256.272 C496.73,256.638 496.26,257.112 495.899,257.622 L495.899,257.622 L495.055,258.968 L494.007,261.415 L492.833,264.969 L491.504,269.566 L490.035,275.054 L488.447,281.263 L485.901,291.527 L482.329,306.049 L479.631,316.772 L477.874,323.488 L476.184,329.64 L474.593,335.029 L473.148,339.424 L471.902,342.621 L471.278,343.89 C471.278,343.89 471.278,343.89 471.278,343.89 C470.64,345.188 471.051,346.097 472.195,345.921 C473.338,345.746 474.783,344.551 475.421,343.253 L475.421,343.253" fill="#000000"/>
      </g>
      <g>
        <path d="M498.852,251.466 C500.095,231.954 498.547,223.672 499.5,217.95 C500.429,212.375 502.364,211.812 507.275,210.175 C521.136,205.555 514.76,246.426 511.163,250.023 z" fill="#994200"/>
        <path d="M501.221,250.133 L501.423,246.605 L501.662,240.254 L501.733,234.795 L501.695,230.144 L501.613,226.202 L501.549,222.877 L501.564,220.081 L501.718,217.735 L501.855,216.762 L501.838,216.865 L502.025,215.878 L502.436,214.409 L503.12,213.204 L503.655,213.232 L505.063,212.908 L506.535,212.422 L506.311,212.487 L507.551,212.185 L509.146,212.376 L510.409,213.264 L511.514,214.846 L512.384,217.083 L512.987,219.873 L513.328,223.09 L513.427,226.606 L513.182,232.184 L512.288,239.472 L511.347,244.247 L510.663,246.847 L509.983,248.834 L509.43,249.912 L509.617,249.512 L512.388,247.663 L500.078,249.106 L500.078,249.106 C498.957,249.237 497.499,250.4 496.822,251.703 C496.145,253.006 496.505,253.957 497.626,253.826 L509.938,252.383 L509.938,252.383 C510.815,252.28 511.933,251.534 512.709,250.534 L512.709,250.534 L513.586,249.247 L514.475,247.36 L515.267,244.998 L516.017,242.109 L517.006,237.04 L517.923,229.474 L518.169,223.674 L518.056,219.947 L517.674,216.477 L516.976,213.378 L515.9,210.768 L514.348,208.787 L512.173,207.638 L509.482,207.56 L508.24,207.863 L508.24,207.863 C508.167,207.881 508.092,207.902 508.016,207.928 L508.016,207.928 L506.076,208.593 L502.149,210.537 L499.028,213.74 L497.848,216.196 L497.349,218.046 L497.162,219.035 L497.162,219.035 C497.155,219.07 497.15,219.105 497.145,219.139 L497.145,219.139 L496.981,220.375 L496.821,222.91 L496.806,225.78 L496.871,229.109 L496.952,233.013 L496.989,237.602 L496.921,242.981 L496.685,249.268 L496.483,252.798 C496.483,252.798 496.483,252.798 496.483,252.798 C496.422,253.882 497.432,254.164 498.741,253.428 C500.049,252.692 501.16,251.217 501.221,250.133 L501.221,250.133" fill="#000000"/>
      </g>
    </g>
    <g>
      <g>
        <path d="M490.121,332.509 C496.015,321.479 514.129,258.802 517.65,255.199 C518.95,253.87 549.181,254.394 550.819,255.399 C555.749,258.426 561.878,320.799 561.878,332.509" fill="#441D00"/>
        <path d="M492.185,332.206 L492.772,331.025 L494.231,327.642 L495.879,323.361 L497.689,318.334 L499.637,312.69 L501.69,306.58 L504.882,296.887 L509.15,283.81 L512.188,274.6 L514.059,269.055 L515.762,264.174 L517.251,260.133 L518.476,257.12 L519.341,255.405 L519.288,255.589 L517.598,257.128 L517.802,257.009 L517.749,257.189 L518.932,257.066 L520.74,256.946 L524.221,256.825 L529.742,256.775 L535.627,256.843 L541.194,257.011 L545.758,257.263 L548.091,257.496 L548.917,257.657 L548.971,257.697 L548.705,257.527 L549.169,257.981 L549.966,259.646 L550.87,262.532 L551.811,266.47 L552.752,271.262 L553.676,276.733 L555.006,285.854 L556.61,298.85 L557.639,308.511 L558.221,314.609 L558.708,320.247 L559.089,325.259 L559.353,329.482 L559.489,332.75 L559.506,333.953 L559.506,333.953 C559.521,334.992 560.594,335.188 561.904,334.39 C563.214,333.593 564.264,332.104 564.249,331.065 L564.23,329.782 L564.091,326.458 L563.824,322.198 L563.441,317.159 L562.952,311.498 L562.367,305.372 L561.334,295.67 L559.723,282.621 L558.385,273.446 L557.449,267.916 L556.489,263.037 L555.51,258.958 L554.496,255.803 L553.4,253.726 L552.934,253.271 L552.934,253.271 C552.859,253.199 552.77,253.142 552.667,253.101 L552.667,253.101 L552.249,252.957 L551.213,252.765 L548.764,252.524 L544.13,252.269 L538.508,252.099 L532.561,252.032 L526.957,252.083 L523.369,252.21 L521.386,252.347 L519.714,252.557 L517.908,253.151 L517.703,253.271 L517.703,253.271 C517.075,253.636 516.467,254.19 516.013,254.809 L516.013,254.809 L515.215,256.008 L514.118,258.237 L512.815,261.451 L511.289,265.595 L509.566,270.533 L507.682,276.117 L504.639,285.345 L500.375,298.407 L497.195,308.066 L495.158,314.129 L493.237,319.697 L491.474,324.595 L489.927,328.63 L488.646,331.629 L488.058,332.812 C487.412,334.111 487.813,335.028 488.952,334.861 C490.092,334.694 491.539,333.505 492.185,332.206 L492.185,332.206" fill="#000000"/>
      </g>
      <g>
        <path d="M518.809,249.121 C519.949,230.796 518.746,220.144 519.621,214.77 C520.474,209.534 546.612,208.42 551.121,206.882 C563.846,202.543 555.086,244.878 551.784,248.257 z" fill="#441D00"/>
        <path d="M521.178,247.787 L521.365,244.441 L521.603,238.244 L521.698,232.72 L521.702,227.853 L521.667,223.62 L521.646,219.996 L521.69,216.965 L521.849,214.521 L521.977,213.572 L521.883,213.983 L522.036,213.505 L521.974,213.991 L521.888,214.375 L522.866,214.013 L525.583,213.201 L530.296,212.212 L535.563,211.387 L540.792,210.695 L545.413,210.089 L548.901,209.514 L550.197,209.184 L550.151,209.196 L551.281,208.923 L552.579,209.186 L553.568,210.127 L554.419,211.788 L555.027,214.138 L555.359,217.059 L555.37,222.246 L554.632,229.888 L553.313,237.403 L552.137,242.321 L551.348,244.994 L550.609,247.03 L550.036,248.149 L550.199,247.796 L553.166,245.885 L520.191,246.75 L520.191,246.75 C519.127,246.778 517.646,247.861 516.882,249.171 C516.118,250.481 516.362,251.52 517.426,251.492 L550.402,250.628 L550.402,250.628 C551.306,250.604 552.54,249.809 553.368,248.718 L553.368,248.718 L554.181,247.508 L555.06,245.67 L555.909,243.299 L556.768,240.366 L558,235.176 L559.36,227.359 L560.114,219.389 L560.085,213.892 L559.691,210.647 L558.92,207.889 L557.662,205.754 L555.733,204.459 L553.223,204.296 L552.091,204.569 L552.091,204.569 C552.076,204.573 552.061,204.577 552.045,204.581 L552.045,204.581 L551.167,204.82 L547.813,205.376 L543.186,205.982 L537.861,206.689 L532.367,207.556 L527.211,208.66 L523.774,209.744 L521.5,210.826 L519.005,212.814 L517.512,215.078 L517.359,215.558 L517.359,215.558 C517.314,215.7 517.282,215.838 517.265,215.968 L517.265,215.968 L517.112,217.16 L516.947,219.766 L516.903,222.859 L516.924,226.49 L516.958,230.696 L516.955,235.512 L516.862,240.969 L516.627,247.108 L516.439,250.455 C516.379,251.538 517.391,251.819 518.7,251.082 C520.008,250.345 521.118,248.87 521.178,247.787 L521.178,247.787" fill="#000000"/>
      </g>
      <g>
        <path d="M512.878,344.509 C519.483,332.426 533.872,260.346 537.819,256.399 C539.275,254.943 548.983,254.298 550.819,255.399 C556.345,258.715 561.878,310.681 561.878,323.509" fill="#6E2F00"/>
        <path d="M514.949,344.19 L515.59,342.886 L517.118,339.043 L518.727,334.181 L520.418,328.465 L522.186,322.034 L524.01,315.06 L526.798,303.982 L530.48,289.014 L533.097,278.463 L534.722,272.11 L536.219,266.52 L537.558,261.892 L538.701,258.444 L539.566,256.484 L539.51,256.715 L538.171,258.065 L538.536,257.802 L538.776,257.878 L541.013,257.489 L544.977,257.215 L547.581,257.328 L548.717,257.562 L548.945,257.687 L548.736,257.556 L549.253,258.007 L550.135,259.52 L551.088,262.023 L552.061,265.403 L553.019,269.5 L553.947,274.174 L555.257,281.978 L556.805,293.158 L558.062,304.273 L558.775,311.943 L559.126,316.496 L559.367,320.452 L559.491,323.673 L559.506,324.95 L559.506,324.95 C559.518,325.99 560.59,326.188 561.9,325.393 C563.21,324.597 564.262,323.108 564.249,322.068 L564.232,320.715 L564.105,317.431 L563.861,313.432 L563.507,308.838 L562.789,301.117 L561.524,289.941 L559.966,278.693 L558.643,270.824 L557.7,266.077 L556.715,261.878 L555.689,258.34 L554.602,255.564 L553.42,253.693 L552.902,253.242 L552.902,253.242 C552.841,253.189 552.771,253.146 552.693,253.112 L552.693,253.112 L552.056,252.864 L550.544,252.587 L547.588,252.48 L543.163,252.816 L540.028,253.466 L537.834,254.47 L537.467,254.734 L537.467,254.734 C536.958,255.1 536.488,255.574 536.128,256.084 L536.128,256.084 L535.272,257.446 L534.197,259.956 L532.99,263.609 L531.623,268.338 L530.111,273.984 L528.478,280.372 L525.858,290.932 L522.183,305.875 L519.407,316.908 L517.599,323.819 L515.86,330.151 L514.222,335.698 L512.734,340.225 L511.448,343.522 L510.806,344.827 C510.806,344.827 510.806,344.827 510.806,344.827 C510.168,346.125 510.578,347.035 511.722,346.859 C512.866,346.683 514.311,345.488 514.949,344.19 L514.949,344.19" fill="#000000"/>
      </g>
      <g>
        <path d="M539.117,249.741 C540.395,229.665 538.803,221.144 539.784,215.257 C540.74,209.52 542.731,208.941 547.784,207.257 C562.045,202.503 555.485,244.556 551.784,248.257 z" fill="#994200"/>
        <path d="M541.486,248.409 L541.694,244.778 L541.94,238.245 L542.012,232.629 L541.974,227.844 L541.89,223.789 L541.823,220.368 L541.839,217.49 L541.997,215.074 L542.139,214.068 L542.122,214.172 L542.314,213.156 L542.738,211.639 L543.449,210.381 L544.037,210.363 L545.522,210.006 L547.044,209.503 L546.819,209.569 L548.095,209.258 L549.752,209.452 L551.064,210.37 L552.209,212.003 L553.106,214.311 L553.728,217.186 L554.079,220.499 L554.182,224.121 L553.93,229.863 L553.01,237.366 L552.04,242.282 L551.336,244.962 L550.635,247.011 L550.06,248.132 L550.238,247.746 L553.009,245.897 L540.343,247.381 L540.343,247.381 C539.222,247.512 537.764,248.675 537.087,249.978 C536.41,251.282 536.77,252.232 537.891,252.101 L550.559,250.616 L550.559,250.616 C551.436,250.513 552.553,249.768 553.33,248.768 L553.33,248.768 L554.217,247.467 L555.126,245.538 L555.94,243.113 L556.71,240.145 L557.727,234.934 L558.67,227.153 L558.924,221.188 L558.807,217.357 L558.415,213.79 L557.699,210.606 L556.595,207.926 L555.004,205.893 L552.779,204.715 L550.026,204.633 L548.748,204.945 L548.748,204.945 C548.675,204.962 548.6,204.984 548.524,205.01 L548.524,205.01 L546.535,205.691 L542.531,207.668 L539.357,210.917 L538.15,213.426 L537.638,215.324 L537.446,216.342 L537.446,216.342 C537.439,216.377 537.433,216.411 537.429,216.445 L537.429,216.445 L537.26,217.713 L537.096,220.319 L537.081,223.271 L537.147,226.696 L537.231,230.714 L537.269,235.436 L537.199,240.971 L536.956,247.441 L536.748,251.073 C536.748,251.073 536.748,251.073 536.748,251.073 C536.687,252.157 537.697,252.439 539.006,251.703 C540.314,250.967 541.425,249.492 541.486,248.409 L541.486,248.409" fill="#000000"/>
      </g>
    </g>
    <path d="M414.558,307.688 L415.47,307.248 L417.838,305.739 L420.309,303.526 L422.366,300.945 L424.378,297.126 L425.849,291.859 L426.31,286.339 L425.952,280.636 L424.879,274.822 L423.151,269.03 L420.815,263.423 L417.917,258.173 L414.496,253.456 L410.589,249.451 L406.222,246.341 L401.41,244.316 L396.136,243.586 L391.754,244.053 L388.57,244.968 L386.834,245.663 L386.834,245.663 C386.733,245.705 386.63,245.751 386.527,245.802 L386.527,245.802 L385.39,246.364 L382.766,248.001 L380.124,250.217 L377.813,252.839 L375.409,256.855 L373.644,262.366 L373.155,267.978 L373.667,273.631 L375.014,279.307 L377.092,284.904 L379.815,290.289 L383.103,295.314 L386.879,299.823 L391.07,303.659 L395.61,306.66 L400.444,308.663 L405.55,309.486 L410.96,308.899 L414.064,307.893 L414.064,307.893 C415.729,307.316 417.506,305.511 418.032,303.863 C418.559,302.215 417.636,301.347 415.971,301.925 L414.208,302.608 L409.888,303.201 L405.402,302.547 L400.947,300.743 L396.661,297.938 L392.654,294.295 L389.022,289.98 L385.855,285.164 L383.237,280.019 L381.251,274.727 L379.975,269.48 L379.467,264.507 L379.723,260.116 L380.631,256.576 L381.594,254.625 L382.215,253.738 L383.079,252.867 L384.555,251.88 L385.696,251.317 L385.39,251.456 L386.359,251.035 L388.499,250.344 L391.872,249.881 L396.443,250.428 L400.827,252.218 L404.917,255.092 L408.634,258.872 L411.915,263.369 L414.705,268.395 L416.953,273.756 L418.611,279.255 L419.636,284.684 L419.998,289.809 L419.709,294.33 L418.868,297.95 L418.066,299.816 L417.711,300.472 L417.329,301.001 L416.391,301.689 L415.477,302.13 C413.749,302.964 412.143,304.884 411.889,306.419 C411.635,307.953 412.83,308.522 414.558,307.688 L414.558,307.688" fill="#000000"/>
    <path d="M424.289,280.261 L402.329,273.118 L402.329,273.118 C401.186,272.747 399.189,273.829 397.868,275.535 C396.547,277.242 396.402,278.926 397.544,279.298 C397.544,279.298 397.544,279.298 397.544,279.298 L419.506,286.441 C419.506,286.441 419.506,286.441 419.506,286.441 C420.648,286.812 422.645,285.73 423.966,284.023 C425.287,282.317 425.432,280.632 424.289,280.261 L424.289,280.261" fill="#000000"/>
    <path d="M396.907,277.299 L390.747,297.406 L390.747,297.406 C390.244,299.045 391.193,299.887 392.865,299.285 C394.538,298.684 396.301,296.867 396.804,295.227 L402.965,275.118 C403.467,273.479 402.518,272.638 400.845,273.24 C399.172,273.842 397.409,275.659 396.907,277.299 L396.907,277.299" fill="#000000"/>
    <path d="M399.84,273.91 L365.186,295.263 L365.186,295.263 C362.567,296.877 360.486,299.858 360.539,301.922 C360.591,303.985 362.757,304.35 365.376,302.737 L400.033,281.382 C400.033,281.382 400.033,281.382 400.033,281.382 C402.652,279.768 404.732,276.787 404.679,274.724 C404.625,272.66 402.459,272.296 399.84,273.91 L399.84,273.91" fill="#000000"/>
    <g>
      <path d="M322.328,290.63 C351.5,266.167 348.431,285.768 360.833,302.304" fill="#151515"/>
      <path d="M322.957,292.082 L325.598,289.917 L330.175,286.464 L333.968,284.017 L337.083,282.45 L339.609,281.645 L341.686,281.469 L343.477,281.827 L345.094,282.688 L346.59,284.038 L347.998,285.848 L350.044,289.311 L352.911,294.915 L356.431,301.135 L358.624,304.32 L358.624,304.32 C359.1,305.01 360.475,304.668 361.695,303.555 C362.916,302.442 363.519,300.98 363.043,300.289 L360.925,297.224 L357.438,291.065 L354.522,285.373 L352.36,281.739 L350.763,279.73 L348.931,278.154 L346.758,277.118 L344.155,276.748 L341.096,277.15 L337.603,278.367 L333.678,280.404 L329.269,283.282 L324.342,287.012 L321.699,289.178 C320.436,290.214 319.694,291.703 320.041,292.505 C320.389,293.307 321.694,293.118 322.957,292.082 L322.957,292.082" fill="#000000"/>
    </g>
  </g>
  <g id="Layer 3" opacity="0.63">
    <path d="M587.667,203.374 C587.667,203.374 597.202,219.775 600.5,236.717 C605.226,260.996 602.561,297.391 602,294.717 C601.047,290.178 554.5,334.217 531.5,335.717 C508.5,337.217 372,306.054 372,306.054 L321.828,291.347 L346.333,231 L364.333,212.333 z" fill="url(#Gradient_3)"/>
  </g>
  <g id="Layer 1">
    <g>
      <path d="M365.281,212.773 C365.281,212.773 365.281,212.773 365.281,212.773 C365.281,212.773 365.281,212.773 365.281,212.773 C347.5,203.874 563.155,177.106 609.5,194.371 C668,217.5 667.737,278.871 677.5,298.5 C669.797,309.617 600.167,292.833 600.167,292.833 C600.167,292.833 614.378,201.451 577.5,201.308 z" fill="#FFE755"/>
      <path d="M363.859,215.145 L363.858,215.145 L363.858,215.145 L363.859,215.145 L363.858,215.145 L363.858,215.145 L363.858,215.145 C364.905,215.145 366.392,214.084 367.178,212.774 C367.773,211.783 367.812,210.897 367.277,210.551 L367.277,210.551 L366.614,210.121 L366.585,209.586 L366.474,211.222 L367.067,211.32 L369.832,210.355 L373.889,209.201 L378.994,207.971 L385.026,206.697 L391.892,205.397 L399.509,204.087 L407.801,202.777 L416.692,201.481 L426.105,200.21 L435.966,198.975 L451.439,197.216 L472.943,195.106 L494.899,193.347 L516.72,192.03 L532.636,191.388 L542.893,191.145 L552.787,191.063 L562.239,191.154 L571.175,191.428 L579.519,191.897 L587.197,192.572 L594.133,193.463 L600.25,194.579 L605.47,195.929 L607.695,196.685 L607.64,196.665 L610.339,197.776 L615.451,200.145 L620.228,202.71 L624.695,205.46 L630.851,209.908 L638.085,216.353 L644.296,223.274 L649.593,230.562 L654.076,238.102 L657.846,245.779 L661.001,253.478 L663.642,261.084 L665.868,268.482 L667.78,275.558 L669.477,282.195 L671.061,288.283 L672.635,293.708 L674.304,298.361 L675.219,300.388 L676.027,297.897 L675.622,298.397 L675.384,298.44 L674.185,298.829 L670.851,299.518 L666.216,299.892 L660.657,299.881 L654.454,299.519 L644.417,298.448 L630.758,296.372 L621.166,294.617 L615.44,293.474 L610.474,292.429 L606.462,291.549 L603.6,290.897 L602.324,290.599 L601.933,290.506 L601.884,290.494 L602.517,291.677 L602.527,291.612 L602.605,291.084 L602.749,290.069 L602.947,288.6 L603.317,285.625 L603.885,280.385 L604.451,273.932 L604.92,266.536 L605.195,258.463 L605.18,249.98 L604.779,241.352 L603.893,232.845 L602.424,224.724 L600.272,217.255 L598.141,212.224 L596.444,209.204 L594.521,206.514 L592.349,204.172 L589.912,202.214 L587.192,200.677 L584.172,199.601 L580.834,199.027 L578.986,198.938 L578.986,198.938 C578.938,198.936 578.888,198.936 578.837,198.939 L578.837,198.939 L366.619,210.404 L366.619,210.404 C365.537,210.462 364.061,211.57 363.323,212.878 C362.584,214.187 362.862,215.201 363.944,215.143 C363.944,215.143 363.944,215.143 363.944,215.143 L576.163,203.678 L576.014,203.679 L577.549,203.735 L580.54,204.221 L583.286,205.173 L585.793,206.567 L588.068,208.375 L590.118,210.567 L591.948,213.112 L593.562,215.963 L595.618,220.78 L597.72,228.038 L599.164,235.979 L600.038,244.333 L600.437,252.831 L600.454,261.202 L600.184,269.178 L599.721,276.489 L599.162,282.868 L598.6,288.049 L598.236,290.985 L598.042,292.425 L597.902,293.415 L597.827,293.923 L597.816,293.99 L597.816,293.99 C597.72,294.618 597.953,295.053 598.449,295.172 L598.449,295.172 L598.502,295.185 L598.901,295.28 L600.189,295.581 L603.067,296.236 L607.097,297.12 L612.087,298.17 L617.847,299.319 L627.508,301.086 L641.276,303.176 L651.44,304.258 L657.807,304.625 L663.649,304.623 L668.86,304.157 L673.433,303.027 L676.661,301.328 L678.566,299.605 L678.973,299.103 L678.973,299.103 C679.725,298.175 680.044,297.192 679.781,296.612 L679.781,296.612 L678.92,294.719 L677.289,290.181 L675.73,284.81 L674.148,278.731 L672.443,272.066 L670.516,264.936 L668.265,257.461 L665.589,249.76 L662.385,241.954 L658.553,234.16 L653.99,226.499 L648.594,219.09 L642.265,212.051 L634.91,205.509 L628.658,200.997 L624.108,198.199 L619.242,195.59 L614.06,193.19 L611.36,192.078 L611.36,192.078 C611.342,192.071 611.324,192.064 611.305,192.058 L611.305,192.058 L608.94,191.259 L603.567,189.876 L597.327,188.741 L590.29,187.839 L582.528,187.158 L574.112,186.686 L565.115,186.41 L555.608,186.32 L545.665,186.402 L535.355,186.647 L519.373,187.293 L497.484,188.614 L475.464,190.379 L453.904,192.495 L438.388,194.259 L428.489,195.499 L419.034,196.776 L410.097,198.079 L401.747,199.398 L394.059,200.722 L387.1,202.04 L380.936,203.344 L375.622,204.629 L371.185,205.906 L367.528,207.266 L363.918,209.558 L361.971,213.235 L362.62,214.565 L363.285,214.996 L366.705,210.402 L366.705,210.402 L366.704,210.402 L366.705,210.402 L366.705,210.402 L366.704,210.402 C365.656,210.402 364.169,211.464 363.383,212.774 C362.598,214.084 362.81,215.145 363.859,215.145 L363.859,215.145" fill="#000000"/>
    </g>
    <g>
      <path d="M239.828,312.109 C222.828,299.109 187.225,305.321 183.695,326.5 C178.695,356.5 192.695,360.5 209.695,383.5" fill="url(#Gradient_4)"/>
      <path d="M241.85,309.904 L240.204,308.742 L236.548,306.706 L232.54,305.109 L228.276,303.959 L223.829,303.249 L219.27,302.972 L214.667,303.122 L210.086,303.697 L205.589,304.698 L201.233,306.132 L197.062,308.02 L193.119,310.402 L189.458,313.341 L186.213,316.87 L183.628,320.887 L181.912,325.188 L181.37,327.522 L181.37,327.522 C181.36,327.569 181.351,327.615 181.344,327.661 L181.344,327.661 L180.931,330.398 L180.414,335.546 L180.311,340.22 L180.606,344.45 L181.277,348.295 L182.298,351.814 L184.42,356.597 L188.224,362.452 L192.955,368.198 L198.402,374.357 L202.844,379.572 L205.933,383.456 L207.505,385.542 L207.505,385.542 C208.007,386.208 209.395,385.835 210.604,384.707 C211.814,383.579 212.388,382.125 211.886,381.458 L210.289,379.341 L207.168,375.418 L202.708,370.182 L197.295,364.063 L192.666,358.456 L188.986,352.83 L186.951,348.283 L185.982,344.992 L185.342,341.402 L185.053,337.439 L185.14,333.032 L185.633,328.077 L186.046,325.339 L186.021,325.478 L186.326,323.929 L187.356,320.996 L188.799,318.5 L190.713,316.247 L193.195,314.151 L196.231,312.255 L199.726,310.634 L203.574,309.342 L207.671,308.412 L211.926,307.864 L216.252,307.71 L220.565,307.961 L224.787,308.623 L228.841,309.703 L232.648,311.205 L236.159,313.151 L237.806,314.313 C238.49,314.796 239.95,314.201 241.067,312.983 C242.184,311.765 242.535,310.387 241.85,309.904 L241.85,309.904" fill="#000000"/>
    </g>
    <g>
      <path d="M688.5,329.5 C708.5,348.5 691.5,380.23 699.423,414.23 C699.423,414.23 666.613,396.629 667.066,394.93 C667.52,393.23 688.5,329.5 688.5,329.5 z" fill="#6E0000"/>
      <path d="M686.372,331.614 L688.14,333.432 L691.012,337.215 L693.144,341.236 L694.652,345.505 L695.628,350.015 L696.161,354.76 L696.318,362.326 L695.78,373.129 L695.039,384.659 L694.815,396.808 L695.432,406.253 L696.394,412.672 L697.077,415.919 L701.362,411.975 L701.269,411.924 L700.553,411.539 L699.214,410.815 L697.348,409.801 L695.052,408.546 L692.423,407.1 L688.066,404.679 L681.995,401.239 L676.337,397.919 L672.836,395.747 L671.045,394.548 L669.804,393.609 L669.25,393.022 L669.401,393.195 L669.35,394.072 L669.386,393.948 L669.529,393.489 L669.962,392.136 L670.882,389.296 L672.132,385.458 L673.652,380.808 L675.379,375.531 L678.227,366.848 L682.182,354.802 L685.002,346.222 L686.698,341.065 L688.176,336.572 L689.375,332.928 L690.234,330.317 L690.619,329.147 L690.738,328.786 L690.753,328.74 L690.753,328.74 C691.162,327.499 690.484,326.834 689.24,327.253 C687.995,327.673 686.655,329.02 686.247,330.26 L686.232,330.306 L686.113,330.667 L685.728,331.837 L684.868,334.448 L683.669,338.093 L682.191,342.587 L680.495,347.745 L677.674,356.326 L673.718,368.375 L670.87,377.061 L669.141,382.34 L667.62,386.995 L666.366,390.843 L665.44,393.703 L664.993,395.1 L664.819,395.662 L664.783,395.787 L664.783,395.787 C664.686,396.121 664.669,396.421 664.732,396.665 L664.732,396.665 L664.989,397.247 L665.719,397.989 L667.032,398.979 L668.869,400.207 L672.403,402.4 L678.082,405.732 L684.166,409.179 L688.529,411.603 L691.162,413.052 L693.461,414.308 L695.33,415.323 L696.671,416.049 L697.389,416.435 L697.483,416.486 L697.483,416.486 C698,416.763 698.886,416.535 699.774,415.896 C701.069,414.964 701.962,413.462 701.768,412.542 L701.768,412.542 L701.109,409.427 L700.169,403.22 L699.558,394.019 L699.775,382.02 L700.52,370.44 L701.061,359.417 L700.887,351.603 L700.316,346.624 L699.271,341.869 L697.658,337.361 L695.389,333.126 L692.397,329.204 L690.628,327.386 C690.628,327.386 690.628,327.386 690.628,327.386 C690.051,326.792 688.629,327.257 687.454,328.425 C686.278,329.593 685.794,331.02 686.372,331.614 L686.372,331.614" fill="#000000"/>
    </g>
    <g>
      <path d="M635.929,479.762 L272.769,476.981 C248.892,476.981 243.079,474.812 193.653,477.883 C187.713,473.131 187.22,426.316 192.653,420.883 C197.093,416.444 215.143,421.145 217.653,413.613 C220.049,406.427 213.41,391.576 209.653,384.063 C205.968,376.691 177.653,320.168 219.653,300.168 C242.128,290.407 272.703,300.211 295.891,303.27 C305.325,304.515 316.871,287.881 330.653,292.762 C381.478,310.762 504.828,335.184 532.692,332.762 C562.237,327.838 622.731,262.801 656.653,279.762 C709.282,306.076 675.375,365.194 686.768,387.981 C698.871,412.186 701.769,401.205 701.769,455.981 C701.769,464.553 697.601,474.064 689.769,477.981 C676.032,484.849 648.965,470.676 635.929,479.762 z" fill="#FFE755"/>
      <path d="M637.363,477.39 L274.204,474.609 L274.204,474.609 C274.202,474.609 274.201,474.609 274.199,474.609 L274.199,474.609 L269.92,474.585 L262.29,474.429 L255.265,474.2 L248.106,473.985 L240.091,473.869 L233.085,473.901 L227.774,473.999 L221.852,474.171 L215.225,474.428 L207.803,474.781 L199.496,475.241 L194.98,475.514 L195.786,475.774 L195.246,475.208 L194.38,473.562 L193.587,471.097 L192.886,467.901 L192.301,464.12 L191.842,459.888 L191.394,452.965 L191.257,443.344 L191.502,436.398 L191.832,432.133 L192.293,428.295 L192.88,425.039 L193.575,422.539 L194.278,421.096 L194.184,421.413 L193.379,422.254 L193.833,421.865 L194.126,421.819 L195.563,421.485 L198.714,421.103 L202.525,420.884 L206.553,420.632 L210.451,420.097 L214.035,418.953 L216.915,417.091 L219.057,414.61 L219.82,413.086 L219.82,413.086 C219.883,412.934 219.932,412.785 219.967,412.643 L219.967,412.643 L220.313,411.21 L220.497,407.499 L219.976,403.484 L218.945,399.311 L216.779,393.01 L214.282,387.096 L212.664,383.654 L211.922,382.149 L211.922,382.149 C211.922,382.148 211.921,382.146 211.92,382.145 L211.92,382.145 L211.506,381.313 L210.317,378.856 L208.764,375.444 L206.984,371.2 L205.114,366.25 L203.295,360.72 L201.664,354.739 L200.361,348.437 L199.523,341.946 L199.285,335.405 L199.777,328.959 L201.117,322.773 L203.388,317.036 L205.667,313.243 L207.418,311.007 L209.476,308.84 L211.834,306.806 L214.556,304.876 L217.701,303.05 L219.366,302.224 L219.087,302.35 L221.216,301.492 L225.384,300.18 L229.7,299.251 L234.21,298.651 L241.277,298.316 L251.017,298.758 L260.925,299.948 L270.821,301.584 L280.511,303.363 L289.811,304.977 L294.273,305.629 L294.273,305.629 C294.326,305.636 294.382,305.641 294.44,305.642 L294.44,305.642 L296.233,305.675 L300.485,304.649 L305.045,302.47 L309.483,299.842 L313.783,297.341 L317.995,295.392 L322.22,294.325 L325.455,294.295 L327.717,294.719 L328.874,295.084 L328.845,295.074 L333.817,296.78 L344.936,300.286 L357.386,303.87 L370.917,307.48 L385.282,311.07 L400.239,314.59 L423.24,319.632 L446.192,324.247 L461.059,327.004 L475.286,329.448 L488.631,331.532 L497.917,332.829 L503.708,333.555 L509.139,334.164 L514.182,334.649 L518.81,335.004 L522.994,335.224 L526.708,335.3 L529.929,335.227 L531.379,335.13 L531.379,335.13 C531.457,335.124 531.538,335.114 531.621,335.097 L531.621,335.097 L533.028,334.823 L536.144,333.983 L541.131,332.12 L548.255,328.672 L555.842,324.332 L563.771,319.348 L571.974,313.931 L584.632,305.447 L597.495,297.138 L606.001,292.064 L614.397,287.571 L622.578,283.871 L630.463,281.153 L636.1,279.882 L639.719,279.433 L643.272,279.324 L646.715,279.588 L650.04,280.251 L653.239,281.34 L654.762,282.041 L654.722,282.022 L657.125,283.279 L661.525,285.908 L665.441,288.699 L668.913,291.646 L671.964,294.735 L674.621,297.955 L677.928,303.016 L681.177,310.104 L683.278,317.479 L684.432,325.064 L684.829,332.767 L684.416,344.368 L683.358,355.679 L682.61,362.922 L682.049,369.825 L681.872,376.283 L682.282,382.194 L683.488,387.45 L684.478,389.846 L684.478,389.846 C684.486,389.866 684.495,389.886 684.505,389.905 L684.505,389.905 L685.613,392.074 L687.681,395.886 L689.549,399.099 L691.221,401.848 L693.375,405.42 L695.629,409.918 L696.895,413.704 L697.569,416.715 L698.129,420.332 L698.576,424.688 L698.918,429.934 L699.162,436.215 L699.316,443.679 L699.388,452.47 L699.397,457.406 L699.398,457.357 L699.349,458.973 L698.973,462.08 L698.248,465.071 L697.197,467.89 L695.863,470.429 L694.312,472.582 L692.612,474.285 L690.747,475.587 L689.888,476.014 L690.233,475.841 L688.908,476.424 L686.435,477.11 L683.642,477.473 L680.502,477.56 L675.331,477.238 L667.978,476.262 L660.427,475.125 L652.995,474.342 L647.644,474.303 L644.199,474.676 L640.901,475.473 L637.674,476.829 L635.864,477.904 L635.864,477.904 C634.555,478.718 633.522,480.21 633.558,481.236 C633.594,482.262 634.684,482.434 635.993,481.62 L636.708,481.124 L638.984,480.094 L641.726,479.398 L644.779,479.046 L649.857,479.07 L657.181,479.84 L664.774,480.983 L672.309,481.976 L677.752,482.302 L681.273,482.182 L684.718,481.678 L687.977,480.704 L689.304,480.12 L689.304,480.12 C689.418,480.07 689.533,480.012 689.65,479.947 L689.65,479.947 L691.641,478.778 L694.957,476.177 L697.733,473.157 L699.941,469.921 L701.638,466.558 L702.878,463.115 L703.692,459.637 L704.091,456.222 L704.14,454.604 L704.14,454.604 C704.14,454.587 704.14,454.571 704.14,454.555 L704.14,454.555 L704.132,449.6 L704.058,440.772 L703.903,433.256 L703.655,426.901 L703.305,421.557 L702.842,417.075 L702.253,413.309 L701.523,410.098 L700.162,406.08 L697.846,401.471 L695.69,397.894 L694.034,395.171 L692.189,392.001 L690.14,388.226 L689.032,386.056 L689.06,386.115 L688.17,384.03 L687.018,379.148 L686.614,373.521 L686.781,367.245 L687.335,360.42 L688.087,353.142 L689.158,341.633 L689.568,329.771 L689.145,321.813 L687.933,313.959 L685.735,306.318 L682.368,299.016 L678.96,293.818 L676.213,290.499 L673.065,287.32 L669.492,284.294 L665.47,281.434 L660.989,278.759 L658.585,277.502 L658.585,277.502 C658.572,277.495 658.558,277.488 658.545,277.482 L658.545,277.482 L656.848,276.712 L653.388,275.554 L649.772,274.852 L646.016,274.582 L642.133,274.718 L638.099,275.241 L631.896,276.676 L623.433,279.625 L614.778,283.56 L606.021,288.258 L597.223,293.512 L584.217,301.916 L571.616,310.362 L563.599,315.659 L556.001,320.444 L548.923,324.514 L542.409,327.698 L537.946,329.392 L535.172,330.152 L533.763,330.426 L534.005,330.394 L532.704,330.484 L529.616,330.557 L525.993,330.484 L521.875,330.269 L517.297,329.918 L512.293,329.437 L506.895,328.832 L501.138,328.11 L491.89,326.819 L478.58,324.741 L464.383,322.302 L449.549,319.552 L426.634,314.945 L403.665,309.91 L388.737,306.397 L374.403,302.816 L360.911,299.216 L348.508,295.646 L337.434,292.155 L332.462,290.449 L332.462,290.449 C332.452,290.446 332.443,290.443 332.433,290.44 L332.433,290.44 L331.018,290.013 L328.216,289.553 L324.051,289.726 L318.772,291.182 L313.892,293.481 L309.51,296.031 L305.671,298.333 L302.357,300.04 L299.136,300.932 L297.341,300.899 L297.508,300.912 L293.109,300.271 L283.831,298.66 L274.101,296.875 L264.099,295.223 L253.994,294.018 L243.971,293.576 L236.596,293.94 L231.745,294.6 L226.966,295.654 L222.351,297.127 L220.22,297.986 L220.22,297.986 C220.128,298.023 220.034,298.065 219.94,298.112 L219.94,298.112 L217.77,299.214 L213.846,301.549 L210.27,304.161 L207.066,307.018 L204.266,310.061 L201.826,313.322 L198.994,318.242 L196.462,324.835 L195.043,331.561 L194.543,338.359 L194.801,345.142 L195.668,351.805 L197.002,358.235 L198.662,364.314 L200.508,369.92 L202.402,374.932 L204.203,379.224 L205.774,382.672 L206.971,385.147 L207.386,385.98 L207.384,385.976 L208.113,387.453 L209.702,390.832 L212.155,396.629 L214.271,402.762 L215.256,406.693 L215.756,410.224 L215.686,413.15 L215.34,414.584 L215.487,414.141 L215.689,413.959 L216.208,413.763 L215.553,414.447 L212.822,415.388 L209.199,415.895 L205.184,416.146 L201.112,416.39 L197.225,416.933 L194.347,417.896 L192.384,419.121 L191.927,419.512 L191.927,419.512 C191.632,419.765 191.359,420.05 191.122,420.352 L191.122,420.352 L190.044,421.925 L188.987,424.328 L188.197,427.245 L187.574,430.736 L187.098,434.729 L186.761,439.133 L186.514,446.233 L186.656,455.996 L187.114,463.033 L187.588,467.376 L188.199,471.298 L188.953,474.689 L189.873,477.45 L190.979,479.426 L191.52,479.992 L191.52,479.992 C191.703,480.183 191.981,480.272 192.327,480.252 L192.327,480.252 L196.826,479.979 L205.107,479.521 L212.5,479.169 L219.095,478.913 L224.984,478.742 L230.252,478.644 L237.201,478.612 L245.17,478.727 L252.323,478.942 L259.383,479.172 L267.057,479.329 L271.338,479.352 L271.333,479.352 L634.495,482.133 C635.538,482.141 637.026,481.085 637.818,479.776 C638.61,478.466 638.406,477.398 637.363,477.39 L637.363,477.39" fill="#000000"/>
    </g>
    <path d="M229.764,474.156 C233.246,451.209 236.479,412.236 254.559,394.156 C280.996,367.72 350.888,359.668 376.963,390.156 C401.764,419.156 391.862,467.571 391.862,473.156" fill="#EECC00"/>
    <path d="M495.518,474.156 C499,451.209 502.233,412.236 520.313,394.156 C546.75,367.72 616.642,359.668 642.716,390.156 C667.518,419.156 657.616,467.571 657.616,473.156" fill="#EECC00"/>
  </g>
  <g id="Layer 2">
    <g>
      <path d="M624.858,424.568 C662.754,473.056 597.531,551.91 544.179,494.15 C483.932,428.924 581.359,368.91 624.858,424.568 z" fill="#2B2B2B"/>
      <path d="M611.695,436.79 L613.395,439.084 L616.153,443.494 L618.293,447.891 L619.914,452.333 L621.043,456.78 L621.707,461.196 L621.936,465.534 L621.765,469.755 L621.232,473.807 L620.38,477.642 L619.258,481.211 L617.927,484.453 L616.452,487.326 L614.909,489.784 L613.363,491.819 L611.864,493.452 L610.417,494.753 L608.963,495.829 L607.395,496.784 L605.583,497.691 L603.415,498.556 L600.83,499.328 L597.826,499.917 L594.43,500.229 L590.692,500.169 L586.666,499.658 L582.411,498.627 L577.974,497.019 L573.402,494.784 L568.737,491.877 L564.016,488.26 L559.273,483.893 L556.969,481.485 L557.09,481.616 L554.383,478.565 L549.819,472.71 L546.183,467.04 L543.367,461.52 L541.328,456.191 L540.011,451.094 L539.36,446.282 L539.305,441.815 L539.762,437.764 L540.625,434.202 L541.769,431.2 L543.05,428.801 L544.342,426.986 L545.586,425.638 L546.834,424.558 L548.236,423.541 L549.978,422.452 L552.183,421.273 L554.895,420.066 L558.088,418.931 L561.701,417.965 L565.66,417.254 L569.886,416.867 L574.313,416.859 L578.871,417.275 L583.502,418.153 L588.152,419.523 L592.772,421.416 L597.308,423.856 L601.719,426.869 L605.96,430.478 L609.988,434.705 L611.836,436.971 L611.836,436.971 C615.004,440.823 623.403,438.394 630.595,431.544 C637.787,424.694 641.049,416.018 637.881,412.165 C637.881,412.165 637.881,412.165 637.881,412.165 L635.573,409.381 L630.855,404.506 L625.835,400.308 L620.545,396.768 L615.02,393.868 L609.297,391.596 L603.396,389.934 L597.35,388.872 L591.178,388.4 L584.903,388.516 L578.532,389.224 L572.074,390.539 L565.53,392.49 L558.902,395.121 L552.208,398.49 L545.499,402.655 L538.895,407.639 L532.598,413.384 L526.872,419.712 L521.942,426.38 L517.94,433.148 L514.884,439.858 L512.724,446.451 L511.396,452.929 L510.85,459.323 L511.059,465.666 L512.015,471.987 L513.728,478.307 L516.217,484.639 L519.507,490.981 L523.63,497.336 L528.557,503.628 L531.268,506.683 L531.268,506.683 C531.307,506.728 531.348,506.771 531.389,506.814 L531.389,506.814 L534.103,509.622 L539.48,514.518 L544.955,518.654 L550.519,522.052 L556.169,524.735 L561.903,526.719 L567.726,528.016 L573.644,528.629 L579.674,528.551 L585.826,527.763 L592.11,526.233 L598.508,523.927 L604.98,520.816 L611.419,516.91 L617.674,512.278 L623.571,507.051 L628.961,501.396 L633.744,495.482 L637.882,489.439 L641.383,483.349 L644.27,477.266 L646.577,471.204 L648.326,465.183 L649.537,459.203 L650.216,453.276 L650.366,447.415 L649.981,441.63 L649.053,435.941 L647.571,430.366 L645.521,424.926 L642.887,419.644 L639.724,414.641 L638.022,412.345 C635.037,408.32 626.723,410.53 619.453,417.28 C612.183,424.03 608.709,432.765 611.695,436.79 L611.695,436.79" fill="#000000"/>
      <path d="M620.471,428.642 L622.171,430.936 L625.064,435.544 L627.369,440.236 L629.133,445.01 L630.379,449.834 L631.131,454.673 L631.413,459.494 L631.249,464.261 L630.667,468.938 L629.695,473.49 L628.364,477.875 L626.708,482.058 L624.763,486 L622.566,489.67 L620.156,493.041 L617.563,496.101 L614.801,498.853 L611.867,501.312 L608.737,503.493 L605.382,505.399 L601.779,507.013 L597.923,508.296 L593.826,509.199 L589.512,509.669 L585.01,509.656 L580.353,509.11 L575.574,507.991 L570.705,506.258 L565.774,503.873 L560.81,500.803 L555.838,497.012 L550.884,492.47 L548.442,489.928 L548.483,489.972 L545.774,486.92 L541.089,480.919 L537.291,475.02 L534.318,469.226 L532.128,463.563 L530.679,458.058 L529.926,452.743 L529.82,447.652 L530.306,442.819 L531.325,438.285 L532.807,434.086 L534.68,430.25 L536.875,426.784 L539.348,423.662 L542.088,420.833 L545.123,418.24 L548.485,415.853 L552.192,413.678 L556.231,411.751 L560.569,410.117 L565.159,408.823 L569.95,407.911 L574.892,407.417 L579.935,407.373 L585.03,407.807 L590.134,408.746 L595.2,410.214 L600.188,412.233 L605.054,414.827 L609.758,418.015 L614.258,421.821 L618.517,426.264 L620.518,428.702 L620.518,428.702 C621.574,429.986 624.374,429.176 626.771,426.893 C629.168,424.609 630.255,421.717 629.199,420.433 C629.199,420.433 629.199,420.433 629.199,420.433 L627.045,417.822 L622.557,413.163 L617.796,409.161 L612.799,405.797 L607.605,403.051 L602.248,400.905 L596.765,399.34 L591.191,398.34 L585.557,397.886 L579.898,397.966 L574.241,398.568 L568.616,399.681 L563.048,401.304 L557.566,403.436 L552.199,406.085 L546.991,409.254 L542.008,412.941 L537.344,417.108 L533.109,421.688 L529.409,426.582 L526.31,431.699 L523.846,436.972 L522.024,442.368 L520.851,447.874 L520.335,453.486 L520.492,459.204 L521.347,465.023 L522.928,470.936 L525.267,476.932 L528.399,483.001 L532.359,489.127 L537.165,495.273 L539.876,498.328 L539.876,498.328 C539.889,498.342 539.902,498.357 539.916,498.371 L539.916,498.371 L542.493,501.046 L547.659,505.765 L552.882,509.728 L558.147,512.963 L563.438,515.496 L568.74,517.355 L574.04,518.563 L579.327,519.142 L584.592,519.11 L589.825,518.481 L595.016,517.265 L600.144,515.47 L605.181,513.108 L610.078,510.202 L614.77,506.795 L619.187,502.951 L623.263,498.748 L626.951,494.26 L630.225,489.553 L633.072,484.675 L635.489,479.661 L637.47,474.54 L639.011,469.335 L640.102,464.071 L640.733,458.769 L640.889,453.455 L640.556,448.152 L639.716,442.888 L638.352,437.688 L636.445,432.581 L633.975,427.595 L630.948,422.789 L629.246,420.493 C628.251,419.152 625.479,419.889 623.056,422.139 C620.633,424.389 619.475,427.301 620.471,428.642 L620.471,428.642" fill="#151515"/>
    </g>
    <g>
      <path d="M359.104,424.568 C397,473.056 331.777,551.91 278.425,494.15 C218.178,428.924 315.605,368.91 359.104,424.568 z" fill="#2B2B2B"/>
      <path d="M345.941,436.79 L347.641,439.084 L350.399,443.494 L352.539,447.891 L354.16,452.333 L355.289,456.78 L355.953,461.196 L356.182,465.534 L356.012,469.755 L355.478,473.807 L354.626,477.642 L353.504,481.211 L352.173,484.453 L350.698,487.326 L349.155,489.784 L347.609,491.819 L346.11,493.452 L344.663,494.753 L343.209,495.829 L341.641,496.784 L339.829,497.691 L337.661,498.556 L335.076,499.328 L332.072,499.917 L328.676,500.229 L324.938,500.169 L320.912,499.658 L316.657,498.627 L312.22,497.019 L307.648,494.784 L302.983,491.877 L298.262,488.26 L293.519,483.893 L291.215,481.485 L291.336,481.616 L288.629,478.565 L284.065,472.71 L280.429,467.04 L277.614,461.52 L275.574,456.191 L274.258,451.094 L273.606,446.282 L273.551,441.815 L274.008,437.764 L274.871,434.202 L276.015,431.2 L277.296,428.801 L278.588,426.986 L279.832,425.638 L281.08,424.558 L282.482,423.541 L284.224,422.452 L286.429,421.273 L289.141,420.066 L292.334,418.931 L295.947,417.965 L299.906,417.254 L304.132,416.867 L308.559,416.859 L313.117,417.275 L317.748,418.153 L322.398,419.523 L327.018,421.416 L331.554,423.856 L335.965,426.869 L340.206,430.478 L344.234,434.705 L346.082,436.971 L346.082,436.971 C349.25,440.823 357.649,438.394 364.841,431.544 C372.033,424.694 375.295,416.018 372.127,412.165 C372.127,412.165 372.127,412.165 372.127,412.165 L369.819,409.381 L365.101,404.506 L360.081,400.308 L354.791,396.768 L349.267,393.868 L343.543,391.596 L337.642,389.934 L331.596,388.872 L325.424,388.4 L319.149,388.516 L312.778,389.224 L306.32,390.539 L299.776,392.49 L293.148,395.121 L286.454,398.49 L279.745,402.655 L273.141,407.639 L266.844,413.384 L261.118,419.712 L256.188,426.38 L252.187,433.148 L249.13,439.858 L246.97,446.451 L245.642,452.929 L245.096,459.323 L245.305,465.666 L246.261,471.987 L247.974,478.307 L250.463,484.639 L253.753,490.981 L257.876,497.336 L262.803,503.628 L265.514,506.683 L265.514,506.683 C265.553,506.728 265.594,506.771 265.635,506.814 L265.635,506.814 L268.349,509.622 L273.726,514.518 L279.201,518.654 L284.765,522.052 L290.415,524.735 L296.149,526.719 L301.973,528.016 L307.89,528.629 L313.92,528.551 L320.072,527.763 L326.356,526.233 L332.755,523.927 L339.226,520.816 L345.665,516.91 L351.92,512.278 L357.817,507.051 L363.207,501.396 L367.99,495.482 L372.128,489.439 L375.629,483.349 L378.516,477.266 L380.823,471.204 L382.572,465.183 L383.783,459.203 L384.462,453.276 L384.612,447.415 L384.227,441.63 L383.299,435.941 L381.817,430.366 L379.767,424.926 L377.133,419.644 L373.97,414.641 L372.268,412.345 C369.283,408.32 360.969,410.53 353.699,417.28 C346.429,424.03 342.955,432.765 345.941,436.79 L345.941,436.79" fill="#000000"/>
      <path d="M354.717,428.642 L356.417,430.936 L359.31,435.544 L361.615,440.236 L363.379,445.01 L364.625,449.834 L365.377,454.673 L365.659,459.494 L365.495,464.261 L364.913,468.938 L363.941,473.49 L362.61,477.875 L360.954,482.058 L359.009,486 L356.812,489.67 L354.402,493.041 L351.809,496.101 L349.047,498.853 L346.113,501.312 L342.983,503.493 L339.628,505.399 L336.025,507.013 L332.169,508.296 L328.073,509.199 L323.758,509.669 L319.256,509.656 L314.599,509.11 L309.82,507.991 L304.952,506.258 L300.02,503.873 L295.056,500.803 L290.084,497.012 L285.13,492.47 L282.689,489.928 L282.729,489.972 L280.02,486.92 L275.336,480.919 L271.537,475.02 L268.564,469.226 L266.374,463.563 L264.925,458.058 L264.172,452.743 L264.066,447.652 L264.553,442.819 L265.571,438.285 L267.053,434.086 L268.926,430.25 L271.121,426.784 L273.594,423.662 L276.334,420.833 L279.369,418.24 L282.731,415.853 L286.438,413.678 L290.477,411.751 L294.816,410.117 L299.405,408.823 L304.196,407.911 L309.138,407.417 L314.181,407.373 L319.276,407.807 L324.38,408.746 L329.446,410.214 L334.434,412.233 L339.301,414.827 L344.004,418.015 L348.505,421.821 L352.763,426.264 L354.764,428.702 L354.764,428.702 C355.82,429.986 358.62,429.176 361.017,426.893 C363.414,424.609 364.501,421.717 363.445,420.433 C363.445,420.433 363.445,420.433 363.445,420.433 L361.291,417.822 L356.803,413.163 L352.042,409.161 L347.045,405.797 L341.851,403.051 L336.494,400.905 L331.011,399.34 L325.437,398.34 L319.803,397.886 L314.144,397.966 L308.487,398.568 L302.862,399.681 L297.295,401.304 L291.812,403.436 L286.445,406.085 L281.237,409.254 L276.254,412.941 L271.59,417.108 L267.355,421.688 L263.655,426.582 L260.556,431.699 L258.092,436.972 L256.271,442.368 L255.097,447.874 L254.581,453.486 L254.738,459.204 L255.594,465.023 L257.174,470.936 L259.513,476.932 L262.645,483.001 L266.605,489.127 L271.411,495.273 L274.122,498.328 L274.122,498.328 C274.135,498.342 274.148,498.357 274.162,498.371 L274.162,498.371 L276.739,501.046 L281.905,505.765 L287.128,509.728 L292.393,512.963 L297.684,515.496 L302.986,517.355 L308.286,518.563 L313.573,519.142 L318.838,519.11 L324.071,518.481 L329.262,517.265 L334.39,515.47 L339.427,513.108 L344.324,510.202 L349.016,506.795 L353.433,502.951 L357.509,498.748 L361.197,494.26 L364.471,489.553 L367.319,484.675 L369.735,479.661 L371.716,474.54 L373.257,469.335 L374.348,464.071 L374.979,458.769 L375.135,453.455 L374.802,448.152 L373.962,442.888 L372.598,437.688 L370.691,432.581 L368.222,427.595 L365.194,422.789 L363.492,420.493 C362.497,419.152 359.725,419.889 357.302,422.139 C354.879,424.389 353.721,427.301 354.717,428.642 L354.717,428.642" fill="#151515"/>
    </g>
    <path d="M503.454,445.276 L493.311,444.732 L472.794,444.328 L462.525,444.644 L462.525,444.644 C461.458,444.676 459.977,445.765 459.217,447.074 C458.458,448.383 458.708,449.418 459.775,449.386 C459.775,449.386 459.775,449.386 459.775,449.386 L469.889,449.071 L490.31,449.471 L500.453,450.015 C500.453,450.015 500.453,450.015 500.453,450.015 C501.468,450.069 502.962,449.052 503.79,447.744 C504.619,446.435 504.468,445.33 503.454,445.276 L503.454,445.276" fill="#6A6A6A"/>
    <path d="M503.042,438.52 L491.602,438.371 L468.606,437.472 L445.502,436.459 L422.419,436.153 L410.904,436.525 L410.904,436.525 C409.836,436.559 408.356,437.649 407.598,438.958 C406.839,440.268 407.091,441.301 408.159,441.267 L419.533,440.896 L442.527,441.199 L465.645,442.213 L488.716,443.114 L500.158,443.263 C501.197,443.276 502.686,442.225 503.483,440.915 C504.279,439.606 504.082,438.533 503.042,438.52 L503.042,438.52" fill="#6A6A6A"/>
    <path d="M504.031,452.056 L490.607,452.011 L463.618,451.321 L436.512,450.516 L409.441,450.421 L395.946,450.897 L395.946,450.897 C394.876,450.935 393.396,452.027 392.641,453.336 C391.885,454.646 392.14,455.676 393.21,455.639 L406.583,455.164 L433.577,455.259 L460.695,456.063 L487.75,456.754 L501.175,456.799 C502.221,456.803 503.708,455.743 504.497,454.434 C505.285,453.124 505.077,452.059 504.031,452.056 L504.031,452.056" fill="#6A6A6A"/>
    <path d="M503.038,431.709 L492.895,431.165 L472.378,430.761 L462.109,431.077 L462.109,431.077 C461.042,431.109 459.561,432.197 458.801,433.507 C458.042,434.816 458.292,435.851 459.359,435.819 C459.359,435.819 459.359,435.819 459.359,435.819 L469.473,435.503 L489.894,435.904 L500.037,436.448 C500.037,436.448 500.037,436.448 500.037,436.448 C501.052,436.502 502.546,435.485 503.374,434.177 C504.203,432.868 504.052,431.763 503.038,431.709 L503.038,431.709" fill="#6A6A6A"/>
    <path d="M504.243,460.353 L494.1,459.809 L473.584,459.405 L463.314,459.721 L463.314,459.721 C462.247,459.754 460.766,460.842 460.007,462.151 C459.247,463.46 459.497,464.495 460.564,464.463 C460.564,464.463 460.564,464.463 460.564,464.463 L470.678,464.148 L491.099,464.548 L501.243,465.092 C501.243,465.092 501.243,465.092 501.243,465.092 C502.257,465.146 503.751,464.129 504.58,462.821 C505.408,461.512 505.258,460.407 504.243,460.353 L504.243,460.353" fill="#6A6A6A"/>
    <path d="M504.521,467.148 L490.123,467.154 L461.172,466.567 L432.099,465.865 L403.067,465.872 L388.599,466.4 L388.599,466.4 C387.529,466.439 386.049,467.532 385.294,468.841 C384.54,470.15 384.796,471.18 385.867,471.141 L400.221,470.616 L429.181,470.608 L458.264,471.309 L487.277,471.897 L501.677,471.892 C502.725,471.891 504.212,470.829 504.997,469.519 C505.782,468.209 505.569,467.148 504.521,467.148 L504.521,467.148" fill="#6A6A6A"/>
    <path d="M365.964,208.882 L364.254,209.605 L359.604,212.763 L354.908,217.474 L350.675,222.97 L346.715,229.074 L342.935,235.674 L337.591,246.144 L332.656,256.872 L329.661,263.84 L326.969,270.394 L324.611,276.36 L322.632,281.54 L321.077,285.732 L320.215,288.11 L319.797,289.282 L319.512,290.091 L319.365,290.512 L319.343,290.574 L319.343,290.574 C318.766,292.239 319.635,293.161 321.284,292.633 C322.932,292.105 324.736,290.328 325.313,288.663 C325.313,288.663 325.313,288.663 325.313,288.663 L325.328,288.62 L325.466,288.224 L325.741,287.444 L326.146,286.31 L326.986,283.991 L328.511,279.878 L330.453,274.793 L332.766,268.938 L335.4,262.523 L338.295,255.779 L343.044,245.435 L348.127,235.448 L351.554,229.428 L354.9,224.2 L357.975,220.059 L360.499,217.235 L362.887,215.365 L364.598,214.641 C364.598,214.641 364.598,214.641 364.598,214.641 C366.304,213.92 367.992,212.046 368.369,210.455 C368.746,208.865 367.669,208.16 365.964,208.882 L365.964,208.882" fill="#000000"/>
  </g>
  <defs>
    <linearGradient id="Gradient_1" gradientUnits="userSpaceOnUse" x1="171.973" y1="296.317" x2="171.973" y2="374.479">
      <stop offset="0" stop-color="#0080FF"/>
      <stop offset="1" stop-color="#163182"/>
    </linearGradient>
    <linearGradient id="Gradient_2" gradientUnits="userSpaceOnUse" x1="-636.156" y1="364.433" x2="-146.683" y2="364.433" gradientTransform="matrix(-1, 0, 0, 1, 0, 0)">
      <stop offset="0" stop-color="#2B2B2B"/>
      <stop offset="0.995" stop-color="#FFE755"/>
    </linearGradient>
    <linearGradient id="Gradient_3" gradientUnits="userSpaceOnUse" x1="462.542" y1="203.374" x2="462.542" y2="335.77">
      <stop offset="0" stop-color="#0080FF"/>
      <stop offset="1" stop-color="#163182"/>
    </linearGradient>
    <linearGradient id="Gradient_4" gradientUnits="userSpaceOnUse" x1="211.248" y1="305.337" x2="211.248" y2="383.5">
      <stop offset="0" stop-color="#0080FF"/>
      <stop offset="1" stop-color="#163182"/>
    </linearGradient>
  </defs>
</svg>
