<?xml version="1.0" encoding="UTF-8" standalone="no"?>
<!-- Created with Inkscape (http://www.inkscape.org/) -->

<svg
   xmlns:dc="http://purl.org/dc/elements/1.1/"
   xmlns:cc="http://creativecommons.org/ns#"
   xmlns:rdf="http://www.w3.org/1999/02/22-rdf-syntax-ns#"
   xmlns:svg="http://www.w3.org/2000/svg"
   xmlns="http://www.w3.org/2000/svg"
   xmlns:xlink="http://www.w3.org/1999/xlink"
   xmlns:sodipodi="http://sodipodi.sourceforge.net/DTD/sodipodi-0.dtd"
   xmlns:inkscape="http://www.inkscape.org/namespaces/inkscape"
   version="1.0"
   width="250"
   height="300"
   id="svg2"
   sodipodi:version="0.32"
   inkscape:version="0.48.2 r9819"
   sodipodi:docname="Chicken.svg"
   inkscape:output_extension="org.inkscape.output.svg.inkscape">
  <metadata
     id="metadata2492">
    <rdf:RDF>
      <cc:Work
         rdf:about="">
        <dc:format>image/svg+xml</dc:format>
        <dc:type
           rdf:resource="http://purl.org/dc/dcmitype/StillImage" />
      </cc:Work>
    </rdf:RDF>
  </metadata>
  <sodipodi:namedview
     inkscape:window-height="701"
     inkscape:window-width="1224"
     inkscape:pageshadow="2"
     inkscape:pageopacity="0.0"
     guidetolerance="10.0"
     gridtolerance="10.0"
     objecttolerance="10.0"
     borderopacity="1.0"
     bordercolor="#666666"
     pagecolor="#ffffff"
     id="base"
     showgrid="false"
     inkscape:zoom="1.5336405"
     inkscape:cx="218.90785"
     inkscape:cy="114.99229"
     inkscape:window-x="52"
     inkscape:window-y="-4"
     inkscape:current-layer="svg2"
     inkscape:window-maximized="0" />
  <defs
     id="defs4">
    <inkscape:perspective
       sodipodi:type="inkscape:persp3d"
       inkscape:vp_x="0 : 127.13264 : 1"
       inkscape:vp_y="0 : 1000 : 0"
       inkscape:vp_z="224.65625 : 127.13264 : 1"
       inkscape:persp3d-origin="112.32812 : 84.755096 : 1"
       id="perspective2494" />
    <linearGradient
       gradientUnits="userSpaceOnUse"
       y2="16.656706"
       x2="-785.38751"
       y1="16.878105"
       x1="-776.61304"
       id="linearGradient3825"
       xlink:href="#linearGradient3819"
       inkscape:collect="always" />
    <radialGradient
       gradientUnits="userSpaceOnUse"
       gradientTransform="matrix(0.517926,2.4443536e-8,-3.9212833e-8,0.4489316,-208.63166,-91.522765)"
       r="100.02526"
       fy="-155.89888"
       fx="-411.91803"
       cy="-155.89888"
       cx="-411.91803"
       id="radialGradient3793"
       xlink:href="#linearGradient3787"
       inkscape:collect="always" />
    <radialGradient
       gradientUnits="userSpaceOnUse"
       gradientTransform="matrix(0.2121045,-0.4430781,1.0102174,0.4835979,-531.22787,-450.2596)"
       r="115.36326"
       fy="-94.644592"
       fx="-813.12628"
       cy="-94.644592"
       cx="-813.12628"
       id="radialGradient3783"
       xlink:href="#linearGradient3777"
       inkscape:collect="always" />
    <inkscape:perspective
       id="perspective2915"
       inkscape:persp3d-origin="372.04724 : 350.78739 : 1"
       inkscape:vp_z="744.09448 : 526.18109 : 1"
       inkscape:vp_y="0 : 1000 : 0"
       inkscape:vp_x="0 : 526.18109 : 1"
       sodipodi:type="inkscape:persp3d" />
    <linearGradient
       id="linearGradient3777"
       inkscape:collect="always">
      <stop
         id="stop3779"
         offset="0"
         style="stop-color:#e9c6af;stop-opacity:1" />
      <stop
         id="stop3781"
         offset="1"
         style="stop-color:#ffb380;stop-opacity:0;" />
    </linearGradient>
    <linearGradient
       id="linearGradient3787"
       inkscape:collect="always">
      <stop
         id="stop3789"
         offset="0"
         style="stop-color:#e9c6af;stop-opacity:1;" />
      <stop
         id="stop3791"
         offset="1"
         style="stop-color:#e9c6af;stop-opacity:0;" />
    </linearGradient>
    <linearGradient
       id="linearGradient3805">
      <stop
         id="stop3807"
         offset="0"
         style="stop-color:#ffffff;stop-opacity:1;" />
      <stop
         id="stop3809"
         offset="1"
         style="stop-color:#000000;stop-opacity:1" />
    </linearGradient>
    <linearGradient
       id="linearGradient3819"
       inkscape:collect="always">
      <stop
         id="stop3821"
         offset="0"
         style="stop-color:#ffffff;stop-opacity:1;" />
      <stop
         id="stop3823"
         offset="1"
         style="stop-color:#ffffff;stop-opacity:0;" />
    </linearGradient>
    <inkscape:perspective
       id="perspective2791"
       inkscape:persp3d-origin="372.04724 : 350.78739 : 1"
       inkscape:vp_z="744.09448 : 526.18109 : 1"
       inkscape:vp_y="0 : 1000 : 0"
       inkscape:vp_x="0 : 526.18109 : 1"
       sodipodi:type="inkscape:persp3d" />
    <linearGradient
       y2="501.29077"
       x2="320.22107"
       y1="215.21931"
       x1="-60.221073"
       gradientUnits="userSpaceOnUse"
       id="linearGradient3222"
       xlink:href="#linearGradient3161"
       inkscape:collect="always" />
    <linearGradient
       y2="537.005"
       x2="393.21429"
       y1="180.93361"
       x1="-133.21428"
       gradientUnits="userSpaceOnUse"
       id="linearGradient3220"
       xlink:href="#linearGradient3169"
       inkscape:collect="always" />
    <linearGradient
       y2="602.7193"
       x2="393.21429"
       y1="544.86218"
       x1="-133.21428"
       gradientTransform="matrix(1.17318,0,0,1.22714,-28.2282,-58.9006)"
       gradientUnits="userSpaceOnUse"
       id="linearGradient3218"
       xlink:href="#linearGradient3169"
       inkscape:collect="always" />
    <linearGradient
       id="linearGradient3161">
      <stop
         id="stop3163"
         offset="0"
         style="stop-color: rgb(0, 190, 255); stop-opacity: 1;" />
      <stop
         id="stop3165"
         offset="1"
         style="stop-color: rgb(0, 116, 255); stop-opacity: 1;" />
    </linearGradient>
    <linearGradient
       id="linearGradient3169">
      <stop
         id="stop3171"
         offset="0"
         style="stop-color: rgb(212, 212, 212); stop-opacity: 1;" />
      <stop
         id="stop3173"
         offset="1"
         style="stop-color: rgb(159, 150, 150); stop-opacity: 1;" />
    </linearGradient>
    <linearGradient
       id="linearGradient3274">
      <stop
         id="stop3276"
         offset="0"
         style="stop-color: rgb(255, 0, 0); stop-opacity: 1;" />
      <stop
         id="stop3278"
         offset="1"
         style="stop-color: rgb(255, 98, 98); stop-opacity: 1;" />
    </linearGradient>
    <inkscape:perspective
       id="perspective32"
       inkscape:persp3d-origin="372.04724 : 350.78739 : 1"
       inkscape:vp_z="744.09448 : 526.18109 : 1"
       inkscape:vp_y="0 : 1000 : 0"
       inkscape:vp_x="0 : 526.18109 : 1"
       sodipodi:type="inkscape:persp3d" />
  </defs>
  <g
     inkscape:label="Layer 1"
     id="g2927"
     transform="translate(-374.99947,-33.286432)" />
  <path
     inkscape:connector-curvature="0"
     style="fill:#ff7400;fill-opacity:1;fill-rule:evenodd;stroke:#000000;stroke-width:2.37056303;stroke-linecap:round;stroke-linejoin:miter;stroke-miterlimit:4;stroke-opacity:1;stroke-dasharray:none"
     d="m 72.316665,218.58256 c -4.926375,0.49604 -4.217014,6.59816 -3.996094,10.20601 -0.06305,9.56326 0.02234,19.12638 0.137069,28.6889 -7.778979,-1.02067 -15.548536,-3.13513 -23.30648,-3.78286 -4.349955,0.52688 -5.238773,7.49272 -0.533154,8.25121 3.016654,1.06483 13.716528,1.24603 11.615358,2.8078 -6.65486,3.03209 -14.03561,4.91671 -20.399718,8.33767 -3.419595,3.3531 1.327559,9.34399 5.45553,6.71661 8.15183,-3.10235 16.224631,-6.40721 24.35036,-9.58549 -0.769934,4.42298 -4.679016,8.56046 -3.859025,13.10037 1.768582,4.58864 9.426092,3.6052 9.571398,-1.70101 2.0434,-5.29963 3.895703,-10.67712 5.89009,-15.99465 7.291345,-3.24069 15.194352,-5.48272 22.265559,-8.98746 3.539662,-2.73105 0.593352,-8.85191 -3.808249,-7.36262 -6.027018,2.16162 -11.962239,4.68189 -17.898767,7.00718 -0.165693,-11.18841 -0.161757,-22.40622 -0.126941,-33.53797 -0.347343,-2.57578 -2.805788,-4.38074 -5.356936,-4.16369 z"
     id="path3943" />
  <g
     id="g3979"
     transform="matrix(0.69484522,0.42098298,-0.42098298,0.69484522,37.454448,-50.338773)"
     style="fill:#d24e11;fill-opacity:1">
    <path
       inkscape:connector-curvature="0"
       id="path3977"
       d="m 280.85,64.552053 c -2.41537,-10.609481 -7.00586,-14.96543 -9.66647,-15.060665 -6.35997,-0.915967 -11.61658,2.494727 -17.19415,4.548466 -2.93165,1.932934 -6.84714,3.233757 -6.06246,14.207615 1.37137,10.235518 5.09918,21.738962 8.52494,31.839161 7.11223,20.52569 17.15891,36.95256 23.60263,36.10454 8.36761,-0.53761 9.46638,-24.17291 5.15314,-50.363353 C 284.09668,78.92259 282.6277,71.739177 280.85,64.552053 z"
       style="fill:#d24e11;fill-opacity:1;fill-rule:nonzero;stroke:#000000;stroke-width:4.13691044;stroke-linecap:round;stroke-linejoin:round;stroke-miterlimit:4;stroke-opacity:1" />
    <path
       inkscape:connector-curvature="0"
       style="fill:#d24e11;fill-opacity:1;fill-rule:nonzero;stroke:#000000;stroke-width:4.13691044;stroke-linecap:round;stroke-linejoin:round;stroke-miterlimit:4;stroke-opacity:1"
       d="m 304.51499,66.941338 c 0.43728,-10.87216 -2.85727,-16.2752 -5.40082,-17.06152 -5.90049,-2.54409 -11.86507,-0.62351 -17.78533,-0.09662 -3.33452,1.10082 -7.4538,1.33467 -9.56035,12.13299 -1.34749,10.23869 -0.75113,22.31636 -0.0801,32.96059 1.5088,21.670512 6.92009,40.150112 13.36181,41.013212 8.21792,1.66486 15.44711,-20.86453 18.11872,-47.272972 0.72973,-6.95585 1.18643,-14.27369 1.34609,-21.67568 z"
       id="path3971" />
    <path
       inkscape:connector-curvature="0"
       id="path3975"
       d="m 326.79174,71.712852 c 2.69305,-10.542417 0.59661,-16.513333 -1.72727,-17.812379 -5.24089,-3.7177 -11.47473,-3.082078 -17.37484,-3.800321 -3.4907,0.381865 -7.56829,-0.247727 -11.87859,9.874655 -3.45129,9.733196 -5.38457,21.670038 -6.94616,32.220456 -3.03967,21.509257 -1.59763,40.710767 4.52286,42.897147 7.69065,3.34064 19.45549,-17.18796 27.57102,-42.460106 2.16307,-6.651129 4.13452,-13.713193 5.83298,-20.919452 z"
       style="fill:#d24e11;fill-opacity:1;fill-rule:nonzero;stroke:#000000;stroke-width:4.13691044;stroke-linecap:round;stroke-linejoin:round;stroke-miterlimit:4;stroke-opacity:1" />
  </g>
  <path
     inkscape:connector-curvature="0"
     style="fill:#ff7400;fill-opacity:1;fill-rule:evenodd;stroke:#000000;stroke-width:2.37056303;stroke-linecap:round;stroke-linejoin:miter;stroke-miterlimit:4;stroke-opacity:1;stroke-dasharray:none"
     d="m 145.0796,218.02402 c -5.56048,0.73754 -4.64188,7.44856 -4.21447,11.47552 -0.36402,8.70422 -0.0407,17.49075 -0.27927,26.22614 -6.62117,-2.10641 -12.95835,-6.24963 -19.87905,-7.08334 -5.24743,0.62872 -3.80914,8.68911 0.99014,8.70819 6.41572,2.98453 14.10274,4.72379 19.73147,8.47921 2.77766,6.20371 3.91183,13.42293 7.68792,19.04173 3.45967,2.90337 9.8396,-1.44718 7.13412,-5.61082 -0.97444,-3.94408 -6.58539,-12.65015 0.98374,-7.82486 7.48998,2.60688 14.67445,6.50923 22.34812,8.35802 5.0144,0.0543 5.53152,-8.13534 0.45699,-8.50509 -6.46555,-2.56422 -12.93112,-5.12844 -19.39667,-7.69266 4.95646,-1.55731 11.19387,-0.3932 15.46148,-3.57976 2.97699,-3.34801 -1.77806,-8.53174 -5.56004,-6.60096 -6.87177,1.16786 -13.74355,2.33573 -20.61532,3.50359 -0.0653,-12.10282 0.6532,-24.38024 -0.22849,-36.38147 -0.80392,-1.69909 -2.77072,-2.69934 -4.62067,-2.51344 z"
     id="path3492" />
  <path
     inkscape:connector-curvature="0"
     d="m 197.86314,163.97484 c 0.0146,49.15848 -39.83206,89.01707 -88.99054,89.01707 -49.158477,0 -89.005182,-39.85859 -88.990532,-89.01707 -0.01465,-49.15848 39.832055,-89.017064 88.990532,-89.017064 49.15848,0 89.00518,39.858584 88.99054,89.017064 z"
     id="path3885"
     style="fill:#ffffff;fill-opacity:1;fill-rule:nonzero;stroke:#000000;stroke-width:3.24970531000000000;stroke-linecap:round;stroke-linejoin:round;stroke-miterlimit:4;stroke-opacity:1;stroke-dasharray:none" />
  <path
     inkscape:connector-curvature="0"
     d="m 192.48302,133.44316 c 0.0624,1.36619 0.10155,2.7568 0.10155,4.1383 0,49.12277 -39.86328,88.98607 -88.98606,88.98607 -38.397034,0 -71.161399,-24.3722 -83.629136,-58.46931 2.155781,47.21187 41.168589,84.87316 88.909906,84.87316 49.12278,0 88.98606,-39.8633 88.98606,-88.98607 0,-10.7258 -1.89957,-21.01749 -5.38232,-30.54215 z"
     id="path3887"
     style="fill:#000000;fill-opacity:0.31372549;fill-rule:nonzero;stroke:none" />
  <path
     inkscape:connector-curvature="0"
     style="fill:#ff0000;fill-rule:evenodd;stroke:#000000;stroke-width:2.19355106;stroke-linecap:round;stroke-linejoin:round;stroke-miterlimit:4;stroke-opacity:1;stroke-dasharray:none"
     d="m 112.88047,39.554279 -4.00394,38.111061 c 8.60141,-8.492949 17.70991,-16.372691 29.75379,-19.718188 33.58241,-9.328343 -9.49082,-39.95085 -25.74985,-18.392873 z"
     id="path4090"
     sodipodi:nodetypes="ccss" />
  <path
     inkscape:connector-curvature="0"
     sodipodi:nodetypes="ccss"
     id="path4092"
     d="m 100.23735,31.954505 7.22407,45.410651 C 113.119,64.705767 119.4316,52.588743 129.81995,44.750433 158.78616,22.894634 109.34333,1.6570959 100.23735,31.954505 z"
     style="fill:#ff0000;fill-rule:evenodd;stroke:#000000;stroke-width:2.3885684;stroke-linecap:round;stroke-linejoin:round;stroke-miterlimit:4;stroke-opacity:1;stroke-dasharray:none" />
  <path
     inkscape:connector-curvature="0"
     style="fill:#ffffff;fill-opacity:1;fill-rule:nonzero;stroke:#000000;stroke-width:2.20631503999999980;stroke-linecap:round;stroke-linejoin:round;stroke-miterlimit:4;stroke-opacity:1;stroke-dasharray:none"
     id="path3984"
     d="m 167.66589,108.6853 c 0.01,33.37506 -27.04309,60.43616 -60.41814,60.43616 -33.375054,0 -60.428086,-27.0611 -60.41814,-60.43616 -0.0099,-33.37505 27.043086,-60.436149 60.41814,-60.436149 33.37505,0 60.42809,27.061099 60.41814,60.436149 z" />
  <g
     id="g4080"
     transform="matrix(1.1268589,0,0,1.1268589,-12.179886,35.161552)">
    <path
       inkscape:connector-curvature="0"
       d="m 142.81901,56.166743 c 0.003,8.480287 -6.87139,15.35625 -15.35167,15.35625 -8.48029,0 -15.3542,-6.875963 -15.35168,-15.35625 -0.003,-8.480281 6.87139,-15.356244 15.35168,-15.356244 8.48028,0 15.3542,6.875963 15.35167,15.356244 z"
       id="path4014"
       style="fill:#ffffff;fill-opacity:1;fill-rule:nonzero;stroke:#000000;stroke-width:2.70958376;stroke-linecap:round;stroke-linejoin:round;stroke-miterlimit:4;stroke-opacity:1;stroke-dasharray:none" />
    <path
       inkscape:connector-curvature="0"
       d="m 129.17308,58.876327 c 8.4e-4,2.82676 -2.29046,5.11875 -5.11722,5.11875 -2.82676,0 -5.11807,-2.29199 -5.11722,-5.11875 -8.5e-4,-2.82676 2.29046,-5.118743 5.11722,-5.118743 2.82676,0 5.11806,2.291983 5.11722,5.118743 z"
       id="path4016"
       style="fill:#000000;fill-opacity:1;fill-rule:nonzero;stroke:none" />
  </g>
  <g
     id="g4084"
     transform="matrix(1.1268589,0,0,1.1268589,-19.202783,35.161552)">
    <path
       inkscape:connector-curvature="0"
       d="m 107.09843,56.166743 c 0.003,8.480287 -6.8714,15.35625 -15.351677,15.35625 -8.480287,0 -15.354204,-6.875963 -15.351677,-15.35625 -0.0025,-8.480281 6.87139,-15.356244 15.351677,-15.356244 8.480277,0 15.354197,6.875963 15.351677,15.356244 z"
       id="path4012"
       style="fill:#ffffff;fill-opacity:1;fill-rule:nonzero;stroke:#000000;stroke-width:2.70958376;stroke-linecap:round;stroke-linejoin:round;stroke-miterlimit:4;stroke-opacity:1;stroke-dasharray:none" />
    <path
       inkscape:connector-curvature="0"
       d="m 100.70189,58.876327 c 8.4e-4,2.82676 -2.290461,5.11875 -5.117221,5.11875 -2.82676,0 -5.118066,-2.29199 -5.117219,-5.11875 -8.47e-4,-2.82676 2.290459,-5.118743 5.117219,-5.118743 2.82676,0 5.118061,2.291983 5.117221,5.118743 z"
       id="path4018"
       style="fill:#000000;fill-opacity:1;fill-rule:nonzero;stroke:none" />
  </g>
  <path
     inkscape:connector-curvature="0"
     style="fill:#000000;fill-opacity:0.31372549;fill-rule:nonzero;stroke:none"
     id="path4022"
     d="m 166.34273,88.200668 -1.41794,2.158007 c 0.18821,2.498601 0.25996,5.039188 0.25996,7.616497 0,36.700948 -36.59899,67.160168 -61.89288,63.166978 -21.06158,-3.32502 -46.203299,-15.97468 -57.520895,-42.65321 5.75932,32.69713 43.236225,56.92949 61.160275,56.74004 39.73856,-0.41563 61.89286,-28.54422 61.89286,-65.24513 0,-7.62994 -0.81324,-14.956981 -2.48138,-21.783182 z"
     sodipodi:nodetypes="ccsscssc" />
  <path
     inkscape:connector-curvature="0"
     sodipodi:nodetypes="cccc"
     id="path3454"
     d="m 90.215866,138.16329 14.974764,35.27381 16.46362,-31.67087 c -5.7026,-14.39137 -22.985143,-16.21174 -31.438384,-3.60294 z"
     style="fill:#ff0000;fill-rule:evenodd;stroke:#000000;stroke-width:2.19355106;stroke-linecap:round;stroke-linejoin:round;stroke-miterlimit:4;stroke-opacity:1;stroke-dasharray:none" />
  <path
     inkscape:connector-curvature="0"
     style="fill:#ffce00;fill-opacity:1;fill-rule:evenodd;stroke:#000000;stroke-width:2.51767349;stroke-linecap:round;stroke-linejoin:round;stroke-miterlimit:4;stroke-opacity:1;stroke-dasharray:none"
     d="m 86.41391,127.82658 10.326925,40.9706 26.477225,-29.5365 C 119.4912,122.64372 99.224544,116.52773 86.41391,127.82658 z"
     id="path4088"
     sodipodi:nodetypes="cccc" />
  <path
     inkscape:connector-curvature="0"
     style="fill:#ff0000;fill-rule:evenodd;stroke:#000000;stroke-width:2.48743653;stroke-linecap:round;stroke-linejoin:round;stroke-miterlimit:4;stroke-opacity:1;stroke-dasharray:none"
     d="m 84.35576,27.818649 22.18972,50.145279 c 1.03706,-14.682447 2.87462,-28.818101 9.99958,-38.54012 19.8668,-27.108212 -33.882282,-46.3378607 -32.1893,-11.605159 z"
     id="path4094"
     sodipodi:nodetypes="ccss" />
</svg>
