<?xml version="1.0" encoding="UTF-8" standalone="no"?>
<!-- Created with Inkscape (http://www.inkscape.org/) -->

<svg
   xmlns:dc="http://purl.org/dc/elements/1.1/"
   xmlns:cc="http://creativecommons.org/ns#"
   xmlns:rdf="http://www.w3.org/1999/02/22-rdf-syntax-ns#"
   xmlns:svg="http://www.w3.org/2000/svg"
   xmlns="http://www.w3.org/2000/svg"
   xmlns:xlink="http://www.w3.org/1999/xlink"
   xmlns:sodipodi="http://sodipodi.sourceforge.net/DTD/sodipodi-0.dtd"
   xmlns:inkscape="http://www.inkscape.org/namespaces/inkscape"
   id="svg2"
   version="1.1"
   inkscape:version="0.48.1 r9760"
   width="500"
   height="500"
   sodipodi:docname="Food3.jpg">
  <metadata
     id="metadata8">
    <rdf:RDF>
      <cc:Work
         rdf:about="">
        <dc:format>image/svg+xml</dc:format>
        <dc:type
           rdf:resource="http://purl.org/dc/dcmitype/StillImage" />
        <dc:title></dc:title>
      </cc:Work>
    </rdf:RDF>
  </metadata>
  <defs
     id="defs6">
    <linearGradient
       inkscape:collect="always"
       id="linearGradient4658">
      <stop
         style="stop-color:#000000;stop-opacity:1;"
         offset="0"
         id="stop4660" />
      <stop
         style="stop-color:#000000;stop-opacity:0;"
         offset="1"
         id="stop4662" />
    </linearGradient>
    <linearGradient
       inkscape:collect="always"
       id="linearGradient4640">
      <stop
         style="stop-color:#ffffff;stop-opacity:1;"
         offset="0"
         id="stop4642" />
      <stop
         style="stop-color:#ffffff;stop-opacity:0;"
         offset="1"
         id="stop4644" />
    </linearGradient>
    <linearGradient
       id="linearGradient3919">
      <stop
         style="stop-color:#af2a2c;stop-opacity:1;"
         offset="0"
         id="stop3921" />
      <stop
         style="stop-color:#dd8f9f;stop-opacity:1"
         offset="1"
         id="stop3923" />
    </linearGradient>
    <linearGradient
       inkscape:collect="always"
       id="linearGradient3893">
      <stop
         style="stop-color:#803300;stop-opacity:1;"
         offset="0"
         id="stop3895" />
      <stop
         style="stop-color:#803300;stop-opacity:0;"
         offset="1"
         id="stop3897" />
    </linearGradient>
    <linearGradient
       inkscape:collect="always"
       id="linearGradient3034">
      <stop
         style="stop-color:#ff9025;stop-opacity:1;"
         offset="0"
         id="stop3036" />
      <stop
         style="stop-color:#ec7a1a;stop-opacity:1"
         offset="1"
         id="stop3038" />
    </linearGradient>
    <linearGradient
       id="linearGradient3024">
      <stop
         style="stop-color:#ffffff;stop-opacity:0;"
         offset="0"
         id="stop3026" />
      <stop
         id="stop3032"
         offset="0.5"
         style="stop-color:#ffb380;stop-opacity:1" />
      <stop
         style="stop-color:#ffffff;stop-opacity:0;"
         offset="1"
         id="stop3028" />
    </linearGradient>
    <linearGradient
       inkscape:collect="always"
       id="linearGradient3012">
      <stop
         id="stop3016"
         offset="0"
         style="stop-color:#552200;stop-opacity:1" />
      <stop
         id="stop3014"
         offset="1"
         style="stop-color:#a56039;stop-opacity:1;" />
    </linearGradient>
    <linearGradient
       inkscape:collect="always"
       id="linearGradient3004">
      <stop
         style="stop-color:#2b1100;stop-opacity:1;"
         offset="0"
         id="stop3006" />
      <stop
         style="stop-color:#2b1100;stop-opacity:0;"
         offset="1"
         id="stop3008" />
    </linearGradient>
    <radialGradient
       inkscape:collect="always"
       xlink:href="#linearGradient3004"
       id="radialGradient3010"
       cx="652.91302"
       cy="120.32396"
       fx="652.91302"
       fy="120.32396"
       r="22.391203"
       gradientTransform="matrix(1.6239415,-0.00748691,-3.6078244e-4,0.62909629,-408.90145,40.076443)"
       gradientUnits="userSpaceOnUse" />
    <radialGradient
       inkscape:collect="always"
       xlink:href="#linearGradient3012"
       id="radialGradient3018"
       cx="656.02954"
       cy="98.785294"
       fx="656.02954"
       fy="98.785294"
       r="167.5903"
       gradientTransform="matrix(1,0,0,0.67256772,-994.16332,39.443762)"
       gradientUnits="userSpaceOnUse" />
    <linearGradient
       inkscape:collect="always"
       xlink:href="#linearGradient3024"
       id="linearGradient3030"
       x1="22.687576"
       y1="223.71141"
       x2="321.87988"
       y2="223.71141"
       gradientUnits="userSpaceOnUse"
       gradientTransform="translate(-493.22524,6.2487078)" />
    <radialGradient
       inkscape:collect="always"
       xlink:href="#linearGradient3034"
       id="radialGradient3040"
       cx="666.42767"
       cy="218.74985"
       fx="666.42767"
       fy="218.74985"
       r="170.19107"
       gradientTransform="matrix(1.0940127,-4.805035e-8,0,1.5117575,-1056.8161,-130.81515)"
       gradientUnits="userSpaceOnUse" />
    <filter
       inkscape:collect="always"
       id="filter3874"
       x="-0.077556774"
       width="1.1551135"
       y="-0.12595168"
       height="1.2519034"
       color-interpolation-filters="sRGB">
      <feGaussianBlur
         inkscape:collect="always"
         stdDeviation="9.3531651"
         id="feGaussianBlur3876" />
    </filter>
    <filter
       inkscape:collect="always"
       id="filter3882"
       color-interpolation-filters="sRGB">
      <feGaussianBlur
         inkscape:collect="always"
         stdDeviation="1.8430738"
         id="feGaussianBlur3884" />
    </filter>
    <linearGradient
       inkscape:collect="always"
       xlink:href="#linearGradient3893"
       id="linearGradient3899"
       x1="-340.61539"
       y1="282.47845"
       x2="-340.7106"
       y2="35.042233"
       gradientUnits="userSpaceOnUse" />
    <filter
       inkscape:collect="always"
       id="filter3905"
       color-interpolation-filters="sRGB">
      <feGaussianBlur
         inkscape:collect="always"
         stdDeviation="0.70577645"
         id="feGaussianBlur3907" />
    </filter>
    <linearGradient
       inkscape:collect="always"
       xlink:href="#linearGradient3919"
       id="linearGradient3934"
       x1="-275.97131"
       y1="118.14851"
       x2="-258.44919"
       y2="95.31958"
       gradientUnits="userSpaceOnUse" />
    <linearGradient
       inkscape:collect="always"
       xlink:href="#linearGradient3919"
       id="linearGradient3944"
       x1="-298.81757"
       y1="191.96951"
       x2="-267.56213"
       y2="179.65086"
       gradientUnits="userSpaceOnUse"
       gradientTransform="matrix(1,0,0,0.95649046,7.3641728,6.2459788)" />
    <linearGradient
       inkscape:collect="always"
       xlink:href="#linearGradient3919"
       id="linearGradient3954"
       x1="85.529564"
       y1="121.76687"
       x2="116.4623"
       y2="99.896385"
       gradientUnits="userSpaceOnUse"
       gradientTransform="translate(-499.89662,8.3316104)"
       spreadMethod="reflect" />
    <linearGradient
       inkscape:collect="always"
       xlink:href="#linearGradient3919"
       id="linearGradient3964"
       x1="-385.02652"
       y1="74.621971"
       x2="-320.73206"
       y2="31.075005"
       gradientUnits="userSpaceOnUse"
       spreadMethod="reflect"
       gradientTransform="matrix(0.96555075,0,0,0.98162443,-13.49679,1.5759109)" />
    <linearGradient
       inkscape:collect="always"
       xlink:href="#linearGradient3919"
       id="linearGradient3974"
       x1="-287.70276"
       y1="41.444099"
       x2="-252.79613"
       y2="85.629135"
       gradientUnits="userSpaceOnUse" />
    <filter
       inkscape:collect="always"
       id="filter3996"
       color-interpolation-filters="sRGB">
      <feGaussianBlur
         inkscape:collect="always"
         stdDeviation="1.980313"
         id="feGaussianBlur3998" />
    </filter>
    <filter
       inkscape:collect="always"
       id="filter4142"
       x="-0.26850566"
       width="1.5370113"
       y="-0.40086764"
       height="1.8017353"
       color-interpolation-filters="sRGB">
      <feGaussianBlur
         inkscape:collect="always"
         stdDeviation="3.6929356"
         id="feGaussianBlur4144" />
    </filter>
    <filter
       inkscape:collect="always"
       id="filter4178"
       x="-0.13976707"
       width="1.2795341"
       y="-0.073107049"
       height="1.1462141"
       color-interpolation-filters="sRGB">
      <feGaussianBlur
         inkscape:collect="always"
         stdDeviation="2.9749298"
         id="feGaussianBlur4180" />
    </filter>
    <filter
       inkscape:collect="always"
       id="filter4274"
       x="-0.23239724"
       width="1.4647945"
       y="-0.2869288"
       height="1.5738575"
       color-interpolation-filters="sRGB">
      <feGaussianBlur
         inkscape:collect="always"
         stdDeviation="2.7285032"
         id="feGaussianBlur4276" />
    </filter>
    <filter
       inkscape:collect="always"
       id="filter4398"
       x="-0.32107672"
       width="1.6421534"
       y="-0.30342236"
       height="1.6068447"
       color-interpolation-filters="sRGB">
      <feGaussianBlur
         inkscape:collect="always"
         stdDeviation="2.323224"
         id="feGaussianBlur4400" />
    </filter>
    <filter
       inkscape:collect="always"
       id="filter4468"
       x="-0.19590066"
       width="1.3918014"
       y="-0.19057278"
       height="1.3811456"
       color-interpolation-filters="sRGB">
      <feGaussianBlur
         inkscape:collect="always"
         stdDeviation="1.5356972"
         id="feGaussianBlur4470" />
    </filter>
    <filter
       inkscape:collect="always"
       id="filter4600"
       x="-0.53215927"
       width="2.0643184"
       y="-0.25853226"
       height="1.5170645"
       color-interpolation-filters="sRGB">
      <feGaussianBlur
         inkscape:collect="always"
         stdDeviation="3.5147112"
         id="feGaussianBlur4602" />
    </filter>
    <filter
       inkscape:collect="always"
       id="filter4636"
       x="-0.055652671"
       width="1.1113054"
       y="-0.10194524"
       height="1.2038904"
       color-interpolation-filters="sRGB">
      <feGaussianBlur
         inkscape:collect="always"
         stdDeviation="2.5503373"
         id="feGaussianBlur4638" />
    </filter>
    <linearGradient
       inkscape:collect="always"
       xlink:href="#linearGradient4640"
       id="linearGradient4646"
       x1="-203.94548"
       y1="12.805704"
       x2="-328.42133"
       y2="132.1053"
       gradientUnits="userSpaceOnUse" />
    <radialGradient
       inkscape:collect="always"
       xlink:href="#linearGradient4658"
       id="radialGradient4664"
       cx="-610.48993"
       cy="384.46259"
       fx="-610.48993"
       fy="384.46259"
       r="203.98758"
       gradientTransform="matrix(1,0,0,0.57761736,0,162.39032)"
       gradientUnits="userSpaceOnUse" />
    <radialGradient
       inkscape:collect="always"
       xlink:href="#linearGradient4658"
       id="radialGradient4688"
       gradientUnits="userSpaceOnUse"
       gradientTransform="matrix(1,0,0,0.57761736,0,162.39032)"
       cx="-610.48993"
       cy="384.46259"
       fx="-610.48993"
       fy="384.46259"
       r="203.98758" />
    <radialGradient
       inkscape:collect="always"
       xlink:href="#linearGradient3034"
       id="radialGradient4690"
       gradientUnits="userSpaceOnUse"
       gradientTransform="matrix(1.0940127,-4.805035e-8,0,1.5117575,-1056.8161,-130.81515)"
       cx="666.42767"
       cy="218.74985"
       fx="666.42767"
       fy="218.74985"
       r="170.19107" />
    <radialGradient
       inkscape:collect="always"
       xlink:href="#linearGradient3004"
       id="radialGradient4692"
       gradientUnits="userSpaceOnUse"
       gradientTransform="matrix(1.6239415,-0.00748691,-3.6078244e-4,0.62909629,-408.90145,40.076443)"
       cx="652.91302"
       cy="120.32396"
       fx="652.91302"
       fy="120.32396"
       r="22.391203" />
    <linearGradient
       inkscape:collect="always"
       xlink:href="#linearGradient3893"
       id="linearGradient4694"
       gradientUnits="userSpaceOnUse"
       x1="-340.61539"
       y1="282.47845"
       x2="-340.7106"
       y2="35.042233" />
    <radialGradient
       inkscape:collect="always"
       xlink:href="#linearGradient3012"
       id="radialGradient4696"
       gradientUnits="userSpaceOnUse"
       gradientTransform="matrix(1,0,0,0.67256772,-994.16332,39.443762)"
       cx="656.02954"
       cy="98.785294"
       fx="656.02954"
       fy="98.785294"
       r="167.5903" />
    <linearGradient
       inkscape:collect="always"
       xlink:href="#linearGradient3024"
       id="linearGradient4698"
       gradientUnits="userSpaceOnUse"
       gradientTransform="translate(-493.22524,6.2487078)"
       x1="22.687576"
       y1="223.71141"
       x2="321.87988"
       y2="223.71141" />
    <linearGradient
       inkscape:collect="always"
       xlink:href="#linearGradient3919"
       id="linearGradient4700"
       gradientUnits="userSpaceOnUse"
       x1="-275.97131"
       y1="118.14851"
       x2="-258.44919"
       y2="95.31958" />
    <linearGradient
       inkscape:collect="always"
       xlink:href="#linearGradient3919"
       id="linearGradient4702"
       gradientUnits="userSpaceOnUse"
       gradientTransform="matrix(0.96555075,0,0,0.98162443,-13.49679,1.5759109)"
       spreadMethod="reflect"
       x1="-385.02652"
       y1="74.621971"
       x2="-320.73206"
       y2="31.075005" />
    <linearGradient
       inkscape:collect="always"
       xlink:href="#linearGradient3919"
       id="linearGradient4704"
       gradientUnits="userSpaceOnUse"
       x1="-287.70276"
       y1="41.444099"
       x2="-252.79613"
       y2="85.629135" />
    <linearGradient
       inkscape:collect="always"
       xlink:href="#linearGradient3919"
       id="linearGradient4706"
       gradientUnits="userSpaceOnUse"
       gradientTransform="matrix(1,0,0,0.95649046,7.3641728,6.2459788)"
       x1="-298.81757"
       y1="191.96951"
       x2="-267.56213"
       y2="179.65086" />
    <linearGradient
       inkscape:collect="always"
       xlink:href="#linearGradient3919"
       id="linearGradient4708"
       gradientUnits="userSpaceOnUse"
       gradientTransform="translate(-499.89662,8.3316104)"
       spreadMethod="reflect"
       x1="85.529564"
       y1="121.76687"
       x2="116.4623"
       y2="99.896385" />
    <linearGradient
       inkscape:collect="always"
       xlink:href="#linearGradient4640"
       id="linearGradient4710"
       gradientUnits="userSpaceOnUse"
       x1="-203.94548"
       y1="12.805704"
       x2="-328.42133"
       y2="132.1053" />
  </defs>
  <sodipodi:namedview
     pagecolor="#ffffff"
     bordercolor="#666666"
     borderopacity="1"
     objecttolerance="10"
     gridtolerance="10"
     guidetolerance="10"
     inkscape:pageopacity="0"
     inkscape:pageshadow="2"
     inkscape:window-width="1280"
     inkscape:window-height="969"
     id="namedview4"
     showgrid="false"
     inkscape:zoom="0.67896289"
     inkscape:cx="-226.18963"
     inkscape:cy="95.245762"
     inkscape:window-x="0"
     inkscape:window-y="26"
     inkscape:window-maximized="1"
     inkscape:current-layer="svg2" />
  <g
     id="g4666"
     transform="matrix(1.0938628,0,0,1.0938628,609.99809,91.977738)">
    <path
       transform="translate(278.36573,-188.52282)"
       d="m -406.50235,384.46259 c 0,65.07392 -91.32835,117.82676 -203.98758,117.82676 -112.65923,0 -203.98758,-52.75284 -203.98758,-117.82676 0,-65.07393 91.32835,-117.82677 203.98758,-117.82677 112.65923,0 203.98758,52.75284 203.98758,117.82677 z"
       sodipodi:ry="117.82677"
       sodipodi:rx="203.98758"
       sodipodi:cy="384.46259"
       sodipodi:cx="-610.48993"
       id="path4648"
       style="opacity:0.8428094;fill:url(#radialGradient4688);fill-opacity:1;stroke:none"
       sodipodi:type="arc" />
    <path
       sodipodi:nodetypes="caaassaaaaccc"
       inkscape:connector-curvature="0"
       id="path2987"
       d="m -494.13599,99.469105 c 0,0 -7.73616,26.373965 -6.62775,39.766535 0.74912,9.05153 6.32095,17.04758 8.837,25.7746 3.56278,12.35764 0.68964,27.60615 8.83701,37.55728 36.9492,45.12948 72.45529,74.702 159.06614,72.90532 56.09006,-1.16355 87.53203,-7.64184 141.39211,-64.06831 10.39432,-10.88961 17.25522,-26.22967 18.41044,-41.23936 0.21478,-2.79056 -2.45188,-5.31231 -2.20926,-8.10059 0.3998,-4.59465 5.46265,-7.92706 5.89134,-12.5191 0.63642,-6.81723 -5.17776,-13.03642 -5.15492,-19.88326 0.022,-6.60483 5.10059,-19.14685 5.10059,-19.14685 L -403.55666,44.974226 z"
       style="fill:url(#radialGradient4690);fill-opacity:1;stroke:none" />
    <path
       transform="matrix(1.6131154,0,0,1.816176,-1398.0795,-82.699436)"
       d="m 683.19205,103.72271 c 0,4.31383 -10.02489,7.81088 -22.39121,7.81088 -12.36632,0 -22.3912,-3.49705 -22.3912,-7.81088 0,-4.313833 10.02488,-7.810885 22.3912,-7.810885 12.36632,0 22.39121,3.497052 22.39121,7.810885 z"
       sodipodi:ry="7.810885"
       sodipodi:rx="22.391203"
       sodipodi:cy="103.72271"
       sodipodi:cx="660.80084"
       id="path2994"
       style="opacity:0.63210701;fill:url(#radialGradient4692);fill-opacity:1;stroke:none"
       sodipodi:type="arc" />
    <path
       inkscape:connector-curvature="0"
       id="path3887"
       d="m -308.0625,6.75 c -1.95529,0.014502 -3.84335,0.09528 -5.59375,0.28125 -25.51942,2.7112958 -38.30729,0.2826618 -57.5625,1.96875 -10.85479,0.9505038 -22.00415,1.425848 -32.625,4.625 -7.8828,2.374407 -15.05654,6.565899 -22.09375,10.5 -7.42562,4.151243 -14.43324,8.976028 -21.34375,13.84375 -4.07104,2.867618 -8.24897,5.73541 -12,9.15625 -7.52222,6.860077 -15.35672,13.878522 -20.84375,22.6875 -2.89259,4.64382 -7.08064,9.923271 -10,15.375 -2.91936,5.451729 -4.61361,11.227498 -2.125,16.6875 0.85106,1.86724 2.56123,2.86229 4.4375,3.34375 1.87627,0.48146 3.98686,0.54444 6.03125,0.625 2.04439,0.0806 4.04434,0.18356 5.5625,0.59375 1.51816,0.41019 2.47255,1.02431 2.96875,2.25 0.46605,1.1512 -0.003,2.32917 -1,3.78125 -0.99698,1.45208 -2.43575,2.97061 -3.4375,4.5625 -2.36918,3.76485 -6.58648,7.59524 -10.28125,11.3125 -3.69477,3.71726 -7.00237,7.28545 -7.21875,11.15625 -1.03753,18.56009 8.75678,36.23877 20.78125,49.28125 10.95867,11.88645 26.87918,23.63235 43.375,22.53125 2.81021,-0.18758 4.79686,-2.08897 6.59375,-3.9375 1.79689,-1.84853 3.46486,-3.69668 5.375,-4.375 1.88281,-0.66862 4.02762,-1.41381 6,-1.71875 1.97238,-0.30494 3.70232,-0.16764 5.03125,0.78125 1.39714,0.99759 1.76996,2.0193 1.78125,3.3125 0.0113,1.2932 -0.45668,2.86164 -1.0625,4.46875 -0.60582,1.60711 -1.32707,3.22501 -1.625,4.84375 -0.29793,1.61874 -0.0952,3.3804 1.25,4.625 5.70125,5.27502 13.51812,7.44249 21.75,8.71875 8.23188,1.27626 16.92155,1.66909 24.53125,3.21875 24.07943,4.90363 52.01207,4.25572 71.25,-6.5 0.76959,-0.43027 1.34651,-1.13507 1.46875,-1.9375 0.12224,-0.80243 -0.13716,-1.57206 -0.53125,-2.28125 -0.78818,-1.41839 -2.20019,-2.81892 -3.875,-4.34375 -3.34962,-3.04966 -7.7637,-6.45629 -9.65625,-8.96875 -2.19706,-2.9167 -5.36214,-5.44368 -7.84375,-8.0625 -2.48161,-2.61882 -4.17729,-5.20384 -3.875,-8.21875 0.17366,-1.73202 1.28276,-3.23453 2.9375,-4.5625 1.65474,-1.32797 3.80346,-2.41039 5.6875,-3.3125 1.31302,-0.62869 2.90446,-0.6825 4.6875,-0.6875 1.78304,-0.005 3.73586,0.0497 5.59375,-0.71875 1.27669,-0.52806 2.02472,-1.59914 2.71875,-2.375 0.69403,-0.77586 1.2283,-1.20159 1.78125,-1.21875 4.34813,-0.1349 8.13846,1.47915 11.78125,4.09375 3.64279,2.6146 7.07186,6.22639 10.53125,9.96875 6.91878,7.48472 13.97141,15.57889 23.65625,16.625 4.3176,0.46637 8.336,-1.04877 12.125,-3 3.789,-1.95123 7.39983,-4.37524 11,-5.90625 6.25191,-2.65869 13.97657,-3.82153 19.28125,-8.96875 2.65465,-2.57586 3.91602,-5.97837 5.0625,-9.3125 1.14648,-3.33413 2.19428,-6.61454 4.15625,-9.09375 2.91955,-3.68925 8.02432,-5.65964 11.65625,-9.65625 8.385,-9.22696 17.25164,-19.167 21.28125,-31.25 2.64918,-7.9437 3.34644,-16.98473 1.125,-25.125 -3.21215,-11.770632 -13.38306,-20.039644 -19.40625,-29.875 -10.93954,-17.863332 -25.58618,-32.275279 -42.75,-42.90625 -12.79056,-7.922254 -28.52023,-13.563338 -42.875,-18.875 -11.73995,-4.344105 -29.91868,-8.1329068 -43.625,-8.03125 z m 0,2 c 13.32044,-0.098795 31.47687,3.665501 42.9375,7.90625 14.36785,5.316502 29.97334,10.928696 42.5,18.6875 16.90872,10.472971 31.31927,24.687462 42.09375,42.28125 6.27609,10.24831 16.19955,18.363438 19.1875,29.3125 2.0941,7.67365 1.44299,16.39346 -1.09375,24 -3.85421,11.55708 -12.46917,21.2845 -20.84375,30.5 -3.19329,3.51393 -8.37181,5.51246 -11.75,9.78125 -2.27124,2.87002 -3.36621,6.39029 -4.5,9.6875 -1.13379,3.29721 -2.32144,6.3567 -4.5625,8.53125 -4.70096,4.56142 -12.0784,5.79646 -18.65625,8.59375 -3.84302,1.63428 -7.50392,4.05665 -11.15625,5.9375 -3.65233,1.88085 -7.24485,3.18349 -10.96875,2.78125 -8.67603,-0.93714 -15.46744,-8.46237 -22.40625,-15.96875 -3.4694,-3.75319 -6.94522,-7.47427 -10.8125,-10.25 -3.86728,-2.77573 -8.14999,-4.62019 -13.03125,-4.46875 -1.47077,0.0456 -2.43332,1.06315 -3.1875,1.90625 -0.75418,0.8431 -1.40572,1.5667 -2,1.8125 -1.36001,0.56252 -3.0446,0.58871 -4.84375,0.59375 -1.79915,0.005 -3.7347,-1.7e-4 -5.5625,0.875 -1.92152,0.92006 -4.18011,2.08308 -6.0625,3.59375 -1.88239,1.51067 -3.44023,3.44 -3.6875,5.90625 -0.38768,3.86657 1.78691,7.01709 4.40625,9.78125 2.61934,2.76416 5.75467,5.26759 7.71875,7.875 2.24133,2.97547 6.66241,6.29665 9.90625,9.25 1.62192,1.47667 2.9231,2.86181 3.46875,3.84375 0.27282,0.49097 0.33629,0.84381 0.3125,1 -0.0238,0.15619 -0.0645,0.27401 -0.46875,0.5 -18.54301,10.3672 -46.12963,11.14811 -69.875,6.3125 -7.83428,-1.5954 -16.54433,-1.99718 -24.625,-3.25 -8.08067,-1.25282 -15.45791,-3.34889 -20.6875,-8.1875 -0.77638,-0.71834 -0.89146,-1.53452 -0.65625,-2.8125 0.23521,-1.27798 0.90569,-2.87178 1.53125,-4.53125 0.62556,-1.65947 1.20303,-3.4082 1.1875,-5.1875 -0.0155,-1.7793 -0.78067,-3.58935 -2.625,-4.90625 -1.9175,-1.36914 -4.255,-1.47209 -6.5,-1.125 -2.245,0.34709 -4.46749,1.14621 -6.34375,1.8125 -2.58759,0.9189 -4.37753,3.04605 -6.125,4.84375 -1.74747,1.7977 -3.36039,3.21345 -5.3125,3.34375 -15.45414,1.03156 -31.03506,-10.25028 -41.78125,-21.90625 -11.78069,-12.77806 -21.24417,-29.99672 -20.25,-47.78125 0.151,-2.70127 3.01406,-6.17939 6.65625,-9.84375 3.64219,-3.66436 7.92813,-7.55088 10.53125,-11.6875 0.82659,-1.31354 2.27265,-2.84893 3.40625,-4.5 1.1336,-1.65107 2.00963,-3.62548 1.1875,-5.65625 -0.77016,-1.9024 -2.46224,-2.93758 -4.3125,-3.4375 -1.85026,-0.49992 -3.92182,-0.57559 -5.96875,-0.65625 -2.04693,-0.0807 -4.06622,-0.16251 -5.625,-0.5625 -1.55878,-0.39999 -2.57644,-1.01522 -3.125,-2.21875 -2.12533,-4.662983 -0.73241,-9.718183 2.0625,-14.9375 2.79491,-5.219317 6.94824,-10.450991 9.9375,-15.25 5.28493,-8.484522 12.9683,-15.381283 20.5,-22.25 3.61697,-3.298574 7.73116,-6.156372 11.8125,-9.03125 6.89831,-4.859126 13.83865,-9.627895 21.15625,-13.71875 7.05867,-3.946097 14.1075,-8.029297 21.6875,-10.3125 10.30181,-3.10305 21.33687,-3.606888 32.25,-4.5625 19.01043,-1.664654 31.88021,0.76317 57.59375,-1.96875 1.66676,-0.1770843 3.46933,-0.267116 5.375,-0.28125 z m -22.09375,76.1875 c -7.92861,0.03293 -16.44915,0.331108 -23.875,3.75 -4.47574,2.060649 -9.1292,5.201978 -11.40625,9.84375 -0.80959,1.65036 -1.47888,3.63672 -1.6875,5.65625 -0.20862,2.01953 0.0457,4.11466 1.28125,5.78125 2.79159,3.76564 7.2486,5.13572 11.90625,5.71875 4.65765,0.58303 9.63782,0.42742 13.78125,0.9375 7.32456,0.90169 14.78116,0.82051 22.09375,0 3.79077,-0.42534 8.40017,-0.24999 11.9375,-2.8125 2.80616,-2.03284 3.88844,-5.46332 5,-8.25 0.56357,-1.41288 1.42801,-3.04314 2,-4.75 0.57199,-1.706858 0.87572,-3.585764 0.0937,-5.375 -1.1039,-2.525837 -3.32684,-4.09192 -5.75,-5.21875 -2.42316,-1.12683 -5.11791,-1.845033 -7.34375,-2.625 -5.77875,-2.024952 -11.99124,-2.681332 -18.03125,-2.65625 z m 0,2 c 5.88995,-0.02446 11.89491,0.61095 17.375,2.53125 2.32558,0.814914 4.95011,1.536589 7.15625,2.5625 2.20614,1.025911 3.92254,2.325432 4.75,4.21875 0.49975,1.143481 0.37386,2.448863 -0.125,3.9375 -0.49886,1.48864 -1.34652,3.06508 -1.96875,4.625 -1.13834,2.8538 -2.23207,5.84526 -4.34375,7.375 -2.80535,2.03225 -6.97628,1.98952 -10.96875,2.4375 -7.17679,0.80527 -14.47848,0.87977 -21.625,0 -4.38025,-0.53923 -9.34844,-0.38262 -13.78125,-0.9375 -4.43281,-0.55488 -8.23963,-1.77286 -10.5625,-4.90625 -0.83448,-1.12566 -1.08242,-2.66962 -0.90625,-4.375 0.17617,-1.70538 0.81002,-3.52977 1.53125,-5 1.95171,-3.97857 6.19152,-6.951381 10.4375,-8.90625 6.93485,-3.192838 15.15036,-3.529768 23.03125,-3.5625 z"
       style="font-size:medium;font-style:normal;font-variant:normal;font-weight:normal;font-stretch:normal;text-indent:0;text-align:start;text-decoration:none;line-height:normal;letter-spacing:normal;word-spacing:normal;text-transform:none;direction:ltr;block-progression:tb;writing-mode:lr-tb;text-anchor:start;baseline-shift:baseline;color:#000000;fill:url(#linearGradient4694);fill-opacity:1;stroke:none;stroke-width:2;marker:none;visibility:visible;display:inline;overflow:visible;filter:url(#filter3905);enable-background:accumulate;font-family:Sans;-inkscape-font-specification:Sans" />
    <path
       inkscape:connector-curvature="0"
       id="path2989"
       d="m -308.06957,7.75 c -1.93048,0.014318 -3.76017,0.099723 -5.46875,0.28125 -25.61648,2.721608 -38.46093,0.2933789 -57.59375,1.96875 -10.88396,0.953058 -21.97617,1.442649 -32.4375,4.59375 -7.7314,2.328805 -14.82706,6.466151 -21.875,10.40625 -7.37161,4.121049 -14.34559,8.917826 -21.25,13.78125 -4.07619,2.871248 -8.22225,5.734043 -11.90625,9.09375 -7.52696,6.864397 -15.30152,13.822 -20.6875,22.46875 -5.88185,9.442829 -16.67644,21.002015 -12.0625,31.125 2.79924,6.14155 16.49853,0.58757 19.03125,6.84375 1.28818,3.18197 -2.70291,6.34457 -4.53125,9.25 -4.9723,7.90147 -16.97637,15.42793 -17.34375,22 -1.01585,18.17231 8.62867,35.62098 20.53125,48.53125 10.85243,11.77121 26.58752,23.28508 42.5625,22.21875 4.76232,-0.31788 7.22102,-6.65278 11.71875,-8.25 3.75907,-1.33491 8.69107,-3.13053 11.9375,-0.8125 6.48294,4.62898 -3.80561,13.41787 0.4375,17.34375 10.93084,10.11363 30.36852,8.54244 45.8125,11.6875 23.9124,4.86962 51.67203,4.15521 70.5625,-6.40625 4.69521,-2.62503 -8.77237,-10.57457 -12.90625,-16.0625 -4.16114,-5.52411 -12.62747,-10.08727 -11.9375,-16.96875 0.42093,-4.19827 5.38194,-6.86533 9.1875,-8.6875 3.14082,-1.50386 7.12585,-0.10653 10.34375,-1.4375 1.87097,-0.77386 2.82003,-3.59345 4.84375,-3.65625 18.45879,-0.57267 27.76413,28.70425 46.125,30.6875 8.0415,0.86861 15.18181,-5.64721 22.625,-8.8125 6.41488,-2.72799 13.96593,-3.92693 18.96875,-8.78125 4.89571,-4.75041 4.89179,-12.96327 9.125,-18.3125 3.14887,-3.97902 8.30614,-5.96348 11.71875,-9.71875 8.37979,-9.22123 17.12059,-19.05496 21.0625,-30.875 2.59296,-7.77512 3.25152,-16.65554 1.09375,-24.5625 -3.10005,-11.359847 -13.13161,-19.551917 -19.28125,-29.59375 C -190.52033,59.36519 -205.06455,45.051971 -222.10082,34.5 -234.75943,26.659471 -250.42701,21.032832 -264.78832,15.71875 -276.38861,11.426323 -294.55619,7.6497742 -308.06957,7.75 z m -22.09375,78.1875 c 5.96498,-0.02477 12.08933,0.621124 17.71875,2.59375 4.55142,1.594881 10.56864,2.893345 12.5,7.3125 1.28172,2.932717 -0.90795,6.37095 -2.09375,9.34375 -1.12495,2.82024 -2.22858,6.03121 -4.6875,7.8125 -3.17134,2.29738 -7.54588,2.18834 -11.4375,2.625 -7.24469,0.81289 -14.63946,0.89073 -21.875,0 -8.52368,-1.04931 -19.88554,0.64903 -25,-6.25 -2.06998,-2.79225 -1.03082,-7.28566 0.5,-10.40625 2.11438,-4.310171 6.57664,-7.367241 10.9375,-9.375 7.18035,-3.305865 15.53275,-3.623419 23.4375,-3.65625 z"
       style="fill:url(#radialGradient4696);fill-opacity:1;stroke:none" />
    <path
       sodipodi:nodetypes="aaaaaaasaaaasaaaaaaasaaaaaaaa"
       inkscape:connector-curvature="0"
       id="path3022"
       d="m -464.58533,212.03365 c 9.47252,11.23125 20.63757,22.36893 34.36789,27.59846 6.33443,2.41263 13.87326,-1.08834 20.3083,1.04145 5.94139,1.96641 9.89843,7.88268 15.62177,10.41451 10.47184,4.63242 22.10465,6.05349 33.32645,8.33161 8.78146,1.78271 17.5991,3.94693 26.55701,4.16581 4.88646,0.1194 9.69596,-1.3754 14.58031,-1.56218 11.45285,-0.43796 19.84443,5.35742 34.3679,1.04145 6.3357,-1.8828 12.90143,-2.90673 19.26684,-4.68653 10.5207,-2.94165 21.58591,-4.78805 31.24354,-9.89379 8.19632,-4.33318 14.32761,-11.79309 21.87048,-17.18394 9.08737,-6.4947 19.75117,-10.8269 28.11919,-18.2254 5.26131,-4.65173 14.51451,-14.499 13.53886,-16.14249 -3.98232,-6.70823 -13.07141,8.52847 -19.78757,12.49741 -9.89871,5.84968 -20.8014,10.04278 -30.20209,16.66322 -6.43484,4.53174 -10.67074,12.09081 -17.70467,15.62177 -9.03605,4.536 -20.02818,3.24179 -29.68137,6.24871 -7.72518,2.40635 -14.45835,7.77968 -22.3912,9.37306 -3.40353,0.68363 -7.15268,1.18819 -10.41451,0 -5.32489,-1.93969 -7.68529,-9.01757 -13.01814,-10.93524 -19.76431,-7.10716 3.10255,13.27786 -63.00781,0.52073 -6.74227,-1.30104 -14.93022,-0.87443 -19.78757,-5.72799 -3.96348,-3.96037 -0.57874,-12.33201 -4.68654,-16.14249 -2.47084,-2.29201 -6.53197,-2.32077 -9.89378,-2.0829 -4.05316,0.28678 -7.39288,4.12473 -11.45597,4.1658 -8.0685,0.0816 -15.69723,-4.19763 -22.91193,-7.81088 -7.14592,-3.57881 -13.44631,-8.67466 -19.78757,-13.53887 -1.26975,-0.97399 -2.40542,-4.13635 -3.64508,-3.12435 -2.7687,2.26025 2.90295,6.64092 5.20726,9.37306 z"
       style="fill:url(#linearGradient4698);stroke:none;filter:url(#filter3882)" />
    <path
       sodipodi:nodetypes="sssssssscssccscssscscssscssscscscsssssscsssscsssssssscccccsc"
       inkscape:connector-curvature="0"
       id="path3044"
       d="m 686.28125,31.21875 c -1.34859,0.01 -2.45987,0.04769 -3.1875,0.125 -27.8934,2.963518 -41.76951,0.607286 -58.03125,2.03125 -11.56823,1.012976 -20.96838,1.663604 -27.6875,3.6875 -4.17988,1.259037 -9.91911,4.325439 -17.21875,8.40625 -6.10463,3.41275 -12.42623,7.737404 -19.1875,12.5 -4.19709,2.95641 -7.48227,5.324386 -9.59375,7.25 -7.63809,6.965749 -13.57827,12.690145 -16.59375,17.53125 -1.13857,1.827885 -1.52151,2.357023 -2.5625,3.90625 4.47257,2.87249 9.03358,7.060113 11.375,12.84375 4.8207,11.90775 -0.8322,22.9269 -3.5,26.8125 -2.6678,3.8856 -4.07789,5.5622 -2.9375,3.75 -5.17472,8.22314 -10.40176,12.3453 -13.46875,15.40625 1.20683,8.39892 6.46492,18.47795 14.0625,26.71875 6.0311,6.5417 13.68479,11.34549 18.9375,13.46875 2.2529,-1.89787 5.45261,-3.98387 10.25,-5.6875 1.80263,-0.64014 5.09987,-2.0546 10.40625,-2.875 5.30638,-0.8204 14.47336,-1.02573 23,5.0625 6.50683,4.64603 11.29273,14.5567 11.84375,21.75 6.36996,0.96752 15.2128,1.28645 25.46875,3.375 7.49783,1.52689 15.49507,2.22142 23.15625,2.15625 -3.33562,-5.13891 -6.3523,-12.12534 -5.46875,-20.9375 1.07392,-10.71107 7.56122,-17.62526 12,-21.1875 4.43878,-3.56224 8.06379,-5.19089 10.40625,-6.3125 4.58664,-2.19614 8.0643,-2.75289 10.84375,-2.9375 3.17471,-2.17719 7.66052,-4.24853 13.75,-4.4375 10.86798,-0.33717 20.42432,4.07115 26.8125,8.65625 6.38818,4.5851 10.63691,9.37517 14.21875,13.25 3.84377,4.15819 6.59943,6.42323 8.03125,7.65625 2.28671,-1.32583 5.65751,-3.47878 11.21875,-5.84375 5.89325,-2.50616 9.37011,-3.98867 11.0625,-4.53125 0.98773,-3.07368 2.4145,-8.71015 7.8125,-15.53125 8.52832,-10.77668 14.48224,-12.84368 12.75,-10.9375 8.2576,-9.08677 14.3028,-16.84861 16.1875,-22.5 1.27413,-3.82054 1.38292,-8.53496 0.71875,-10.96875 C 810.68594,111.15159 803.6159,104.22924 794.5,89.34375 785.57914,74.776752 773.76295,63.136235 759.71875,54.4375 c -9.56335,-5.92338 -23.98526,-11.347895 -38.5,-16.71875 -8.32407,-3.080135 -25.9503,-6.566656 -34.9375,-6.5 z m -22.375,31.25 c 7.72503,-0.03208 16.4301,0.737381 25.5625,3.9375 1.10594,0.387537 4.51487,1.177418 9.375,3.4375 4.86013,2.260082 12.66689,6.965162 16.875,16.59375 3.95112,9.040608 2.01818,17.37392 0.625,21.53125 -1.39318,4.15733 -2.53253,6.14449 -2.4375,5.90625 -0.81091,2.03293 -2.11396,4.44268 -12.71875,12.125 -11.75693,8.51695 -21.03679,6.76631 -22.5625,6.9375 -8.83761,0.99162 -18.05125,1.11655 -27.375,-0.0312 -1.48403,-0.18269 -6.63001,-0.0384 -13.8125,-0.9375 -7.18249,-0.89908 -19.10136,-3.75955 -27.15625,-14.625 -5.73857,-7.74091 -6.16679,-9.92154 -5.59375,-15.46875 0.57304,-5.547211 2.07319,-9.577005 3.875,-13.25 5.93036,-12.089059 15.13176,-17.095258 22.1875,-20.34375 12.93934,-5.957328 24.69189,-5.777345 33.15625,-5.8125 z m -141.375,84.625 c -0.63086,1.18793 -0.45045,1.4643 0,0 z m 161.6875,14.6875 c -1.94267,1.43246 -2.04866,2.22007 -1.125,1.1875 0.20504,-0.22922 0.72735,-0.75728 1.125,-1.1875 z"
       style="opacity:0.2;fill:#ffffff;fill-opacity:1;stroke:none;filter:url(#filter3874)"
       transform="translate(-994.16332,0)" />
    <path
       id="path3927"
       d="m -273.09375,88.96875 c -5.80749,0.11158 -11.66148,1.139084 -17.0625,3.125 -2.74785,1.010365 -6.41113,3.421737 -9.40625,5.5625 0.055,2.47516 -1.52089,5.15497 -2.46875,7.53125 -0.37385,0.93724 -0.76783,1.91826 -1.1875,2.875 2.24029,-0.58122 11.49288,-2.87262 16.75,-2.6875 6.30717,0.22209 12.86857,1.37907 18.40625,4.40625 7.46446,4.08046 11.15757,13.20373 18.40625,17.65625 4.43211,2.72244 9.55503,5.41609 14.75,5.15625 4.05822,-0.20298 8.06939,-2.37457 11.03125,-5.15625 2.24201,-2.10563 4.23438,-5.0247 4.4375,-8.09375 0.22579,-3.41157 -1.65984,-6.80961 -3.6875,-9.5625 -3.52405,-4.7845 -8.75044,-8.27816 -14,-11.0625 -9.32738,-4.947206 -19.67146,-8.620264 -30.1875,-9.5625 -1.91053,-0.171183 -3.84542,-0.224693 -5.78125,-0.1875 z"
       style="fill:url(#linearGradient4700);fill-opacity:1;stroke:none"
       inkscape:connector-curvature="0" />
    <path
       sodipodi:nodetypes="aaaaaaaaaaaaaaaaaaaaaaaaaaaaa"
       inkscape:connector-curvature="0"
       id="path3956"
       d="m -372.57616,106.39029 c 3.0979,2.73821 9.25412,5.20907 12.08783,2.18539 5.37707,-5.73757 -2.39184,-15.81079 -4.97734,-23.31078 -4.05937,-11.775344 -24.97349,-24.678789 -16.35411,-33.509255 2.24853,-2.303599 6.32246,2.028476 8.53258,4.370774 8.69811,9.218321 12.68549,22.519908 15.64306,34.966176 1.78594,7.515754 -4.2269,17.628615 1.07703,23.170015 4.47535,4.67572 14.22784,5.58348 19.19831,1.45693 3.50731,-2.91182 2.42449,-9.15304 1.71661,-13.70002 -0.9661,-6.205736 -11.62473,-12.028872 -7.90778,-17.048471 3.06028,-4.132808 10.62591,5.000701 15.06881,2.479237 2.70809,-1.536913 3.97174,-5.613848 3.55524,-8.741544 -0.57043,-4.283619 -6.67794,-6.036948 -7.82154,-10.198469 -1.09945,-4.000887 2.07136,-8.280618 1.42211,-12.383854 -2.17536,-13.748018 -10.37013,-25.883367 -17.32395,-37.880027 -1.91911,-3.310825 -3.42123,-7.36814 -6.67917,-9.3169129 -3.3651,-2.0128736 -7.78562,-2.1777624 -11.62505,-1.4569241 -3.40208,0.6387269 -7.65621,1.7824708 -9.16788,4.94614 -2.33305,4.882694 -0.01,11.451208 2.8442,16.026167 4.21425,6.754843 16.09459,6.481577 19.1983,13.840778 0.66474,1.576167 0.792,4.339659 -0.71105,5.099234 -7.80424,3.943942 -15.46481,-8.24191 -22.75355,-13.112316 -3.97043,-2.653079 -7.0493,-6.759305 -11.37676,-8.741545 -6.61976,-3.032248 -15.2706,-8.449146 -21.33145,-4.370772 -2.83643,1.908648 -2.03399,6.72329 -2.13315,10.198469 -0.091,3.192443 0.15323,6.552721 1.4221,9.470006 2.7422,6.304655 8.57235,10.651029 12.79886,16.026164 5.50348,6.999129 12.17799,13.221406 16.35412,21.125399 4.63827,8.778686 1.86624,21.889172 9.24362,28.410011 z"
       style="fill:url(#linearGradient4702);fill-opacity:1;stroke:none" />
    <path
       sodipodi:nodetypes="accaaaaaaaaaaaaaaaa"
       inkscape:connector-curvature="0"
       id="path3966"
       d="m -318.86868,97.996271 c -0.49238,6.438569 -2.94567,19.146849 -2.94567,19.146849 l 6.62776,5.15492 c 0,0 2.22763,-18.23295 5.89133,-26.511021 2.06726,-4.670932 4.98195,-9.168027 8.83701,-12.519094 7.29144,-6.338185 16.65436,-10.06825 25.77461,-13.255511 7.08955,-2.477591 14.98899,-1.981232 22.09251,-4.418504 5.71102,-1.959494 11.39754,-4.442669 16.20118,-8.10059 2.62743,-2.000765 4.09088,-5.249764 6.62776,-7.364172 2.87831,-2.398983 5.90077,-5.148756 9.57342,-5.891339 6.32929,-1.279736 15.19142,8.049805 19.14685,2.945669 3.43539,-4.433066 -2.00828,-12.284426 -6.62775,-15.464762 -5.05875,-3.482771 -12.42625,-2.118533 -18.41043,-0.736418 -7.06279,1.631231 -12.5076,7.400503 -19.14685,10.309842 -6.89692,3.022253 -13.95489,5.97719 -21.3561,7.364173 -6.27772,1.176443 -13.39992,-2.050447 -19.14685,0.736417 -9.8703,4.786416 -13.04859,17.87453 -21.3561,25.038188 -3.50757,3.024621 -9.53744,3.313209 -11.78268,7.364173 -2.61794,4.723413 0.41178,10.816509 0,16.20118 z"
       style="fill:url(#linearGradient4704);fill-opacity:1;stroke:none" />
    <path
       sodipodi:nodetypes="saaaaaaaaassaaas"
       inkscape:connector-curvature="0"
       id="path3936"
       d="m -359.30506,114.16463 c 4.68788,1.22333 26.48733,6.22395 37.49225,13.44786 12.06327,7.91865 21.34631,19.54729 29.16063,31.37836 5.23442,7.92504 8.41748,16.98745 11.45597,25.8996 7.07491,20.75131 17.08751,41.9711 15.62177,63.75285 -0.38103,5.66229 -7.73797,10.44591 -6.24871,15.93821 1.14383,4.21833 5.87369,8.11006 10.41451,8.46717 3.02612,0.23799 6.27381,-1.97803 7.81089,-4.48262 2.81319,-4.58393 -0.43078,-10.70137 0.52073,-15.93822 1.06205,-5.84523 4.7003,-11.08348 5.72798,-16.93434 2.8764,-16.37612 5.85958,-33.33693 1.04145,-49.80691 -2.57628,-8.80658 -1.06783,-21.84842 -7.81089,-26.39766 -16.57797,-11.18442 -15.41988,-14.81289 -23.43265,-21.91505 -6.94655,-6.15712 -12.96152,-13.72523 -21.34975,-17.93048 -10.77593,-5.40227 -23.26509,-7.76576 -35.40935,-8.46718 -8.38118,-0.48408 -33.09522,0.87457 -24.99483,2.98841 z"
       style="fill:url(#linearGradient4706);fill-opacity:1;stroke:none" />
    <path
       sodipodi:nodetypes="aaaaaaassaaaaaaaaaaaaaaaa"
       inkscape:connector-curvature="0"
       id="path3946"
       d="m -360.71375,185.86095 c 2.04264,10.00359 -1.29775,22.28064 5.15492,30.19311 2.76161,3.38637 7.85848,5.11122 12.21406,4.76054 5.44423,-0.43832 11.5456,-3.49828 14.11828,-8.31628 5.0959,-9.54339 1.62624,-22.16322 -1.86722,-32.40236 -6.06718,-17.78257 -20.6043,-31.45313 -31.8293,-46.52064 -7.92455,-10.63725 -15.68315,-21.52564 -25.03818,-30.92953 -9.84214,-9.89353 -21.11865,-15.681159 -32.40237,-26.511018 -2.01925,-1.938036 1.76874,-6.812212 4.02413,-5.154921 6.78819,4.988068 17.63339,13.515069 26.16898,20.619684 8.28853,6.898971 14.41288,17.054325 24.30177,21.356105 2.26219,0.98408 5.8541,2.68721 7.36418,0.73641 3.0425,-3.93045 -2.87503,-9.57521 -5.15492,-13.991925 -2.59215,-5.021636 -5.39609,-10.185892 -9.57343,-13.991928 -3.73632,-3.404221 -9.061,-4.543723 -13.25551,-7.364173 -11.8988,-8.000927 -20.5366,-20.885529 -33.53316,-26.942405 -8.49738,-3.960094 -18.31889,-6.854268 -27.58948,-5.459955 -3.58404,0.539047 -6.98708,2.615862 -9.57342,5.154921 -3.21568,3.15689 -7.1346,7.304995 -6.62776,11.782676 0.41044,3.626054 4.71319,5.592797 7.36417,8.10059 11.02876,10.433051 23.75856,18.913852 35.34803,28.720274 10.48886,8.875135 21.76098,17.014065 30.92953,27.247435 7.40743,8.26771 13.82073,17.50796 19.14685,27.24744 2.79955,5.11933 4.84207,10.64633 6.62776,16.20118 1.62172,5.04477 2.62195,10.27288 3.68209,15.46477 z"
       style="fill:url(#linearGradient4708);fill-opacity:1;stroke:none" />
    <path
       d="m -357.3125,106.1875 c -0.48196,-0.0683 0.6542,0.40149 0.28125,0.1875 -0.0507,-0.0232 -0.24711,-0.17747 -0.28125,-0.1875 z m 41.71875,16.03125 c 12.55021,8.77318 21.97432,20.63456 29.6875,32.3125 5.95911,9.02224 9.31647,18.74781 12.375,27.71875 5.98707,17.56058 14.98394,36.70851 16.09375,57.625 0.93083,-2.15543 1.87041,-4.14428 2.125,-5.59375 2.87601,-16.37388 5.36434,-31.95398 1.21875,-46.125 -1.70935,-5.84311 -1.87664,-11.49637 -2.5625,-15.78125 -0.68586,-4.28488 -1.82795,-6.04018 -2,-6.15625 -8.69963,-5.86926 -13.31986,-10.25458 -16.5,-13.90625 -3.18014,-3.65167 -4.43435,-5.72096 -7.78125,-8.6875 -7.66859,-6.7971 -13.28811,-13.55756 -19.59375,-16.71875 -4.01036,-2.01051 -8.46172,-3.50394 -13.0625,-4.6875 z m 54.5,136.59375 c -0.53292,0.76569 -1.142,1.71981 -1.53125,2.3125 -0.64095,0.97594 -0.82175,1.38815 -0.96875,1.65625 0.47024,0.40948 1.71499,1.48058 2.40625,1.90625 0.21175,-0.174 0.68798,-0.34454 0.6875,-0.34375 -0.15609,0.25434 0.12929,-0.20078 -0.15625,-2.53125 -0.0973,-0.79379 -0.28553,-1.92184 -0.4375,-3 z"
       id="path3978"
       style="opacity:0.40133781;fill:#ffffff;fill-opacity:1;stroke:none;filter:url(#filter3996)"
       inkscape:original="M -342.875 111.15625 C -352.98193 111.43324 -365.38779 112.57087 -359.3125 114.15625 C -354.62462 115.37958 -332.81742 120.40109 -321.8125 127.625 C -309.74923 135.54365 -300.47057 147.16893 -292.65625 159 C -287.42183 166.92504 -284.22599 175.96285 -281.1875 184.875 C -274.11259 205.62631 -264.09676 226.8745 -265.5625 248.65625 C -265.94353 254.31854 -273.30176 259.10145 -271.8125 264.59375 C -270.66867 268.81208 -265.94707 272.70539 -261.40625 273.0625 C -258.38013 273.30049 -255.13083 271.06709 -253.59375 268.5625 C -250.78056 263.97857 -254.01401 257.86185 -253.0625 252.625 C -252.00045 246.77977 -248.37143 241.53836 -247.34375 235.6875 C -244.46735 219.31138 -241.49437 202.34498 -246.3125 185.875 C -248.88878 177.06842 -247.38194 164.04924 -254.125 159.5 C -270.70297 148.31558 -269.54973 144.66466 -277.5625 137.5625 C -284.50905 131.40538 -290.51802 123.8615 -298.90625 119.65625 C -309.68218 114.25398 -322.16824 111.88892 -334.3125 111.1875 C -336.40779 111.06648 -339.50602 111.06392 -342.875 111.15625 z "
       inkscape:radius="-8.0944576"
       sodipodi:type="inkscape:offset" />
    <path
       inkscape:connector-curvature="0"
       id="path4000"
       d="m -257.125,102.1875 c -3.65665,0.38337 2.16079,1.84713 2.96875,2.875 6.40273,3.64671 7.90675,11.73618 12.59375,16.65625 4.5821,3.81912 14.8935,3.76249 16.25,-2.9375 -0.35557,-6.61729 -8.515,-6.01076 -12.60566,-8.93068 -5.99422,-3.13533 -12.02079,-8.05028 -19.20684,-7.66307 z"
       style="opacity:0.8795987;fill:#ffffff;stroke:none;filter:url(#filter4142)" />
    <path
       inkscape:connector-curvature="0"
       id="path4146"
       d="m -384.3125,121.21875 c 13.0539,19.73535 28.60222,39.19541 32.44002,63.20053 1.95448,7.38849 1.83344,15.0039 -1.22127,22.04947 -2.10959,8.03125 10.83784,12.89499 14.9375,5.65625 8.88466,-10.51947 4.22663,-25.82192 -2,-36.53125 -13.01309,-20.17442 -28.68506,-38.64512 -43.5625,-57.59375 -0.19792,1.07292 -0.39583,2.14583 -0.59375,3.21875 z"
       style="opacity:0.58193982;fill:#ffffff;stroke:none;filter:url(#filter4178)" />
    <path
       sodipodi:nodetypes="ccccccc"
       inkscape:connector-curvature="0"
       id="path4182"
       d="m -450.34375,51.71875 c -7.05911,1.553344 -6.66328,11.550103 -2.25,15.875 2.31005,3.144925 17.89312,15.347794 21.18484,12.743257 -2.10233,-2.872903 -18.47255,-15.36152 -15.05984,-19.368257 4.82128,-5.100053 19.52996,5.671671 24.41309,2.053002 1.94983,-3.672938 -1.686,-8.248569 -5.71875,-6.71875 -4.95456,-5.77106 -17.60725,-5.044604 -22.56934,-4.584252 z"
       style="opacity:0.21739131;fill:#ffffff;stroke:none;filter:url(#filter4274)" />
    <path
       sodipodi:nodetypes="aaaaaaa"
       inkscape:connector-curvature="0"
       id="path4280"
       d="m -365.26297,12.571866 c -2.14472,-0.722503 -5.35038,-0.395353 -6.62776,1.472835 -1.82236,2.665226 -0.48782,7.00823 1.47284,9.573425 1.46813,1.920803 4.44137,1.913862 6.62775,2.945669 2.48197,1.1713 5.09738,5.229247 7.36418,3.682086 2.23943,-1.528481 0.31057,-5.599565 -0.73642,-8.10059 -1.61422,-3.856001 -4.13909,-8.238892 -8.10059,-9.573425 z"
       style="opacity:0.5852843;fill:#ffffff;stroke:none;filter:url(#filter4398)" />
    <path
       transform="matrix(1.1687396,0,0,1.1102779,69.526168,-1.9715327)"
       sodipodi:nodetypes="aaaaaaa"
       inkscape:connector-curvature="0"
       id="path4402"
       d="m -396.92891,25.09096 c -2.90464,-1.646378 -6.82322,-4.838778 -9.57343,-2.945669 -3.03972,2.092395 -1.60257,7.45909 -0.73641,11.046259 0.67191,2.782704 1.74537,6.339832 4.4185,7.364173 3.11772,1.194705 6.92631,-0.910897 9.57342,-2.945669 1.83604,-1.411319 4.00453,-3.598113 3.68209,-5.891338 -0.45983,-3.270324 -4.4911,-4.999275 -7.36417,-6.627756 z"
       style="opacity:0.25418061;fill:#f9f9f9;stroke:none;filter:url(#filter4468)" />
    <path
       inkscape:connector-curvature="0"
       id="path4472"
       d="m -342.875,46.75 c -4.22764,3.284122 -3.45138,10.505163 -0.65625,14.59375 2.40861,4.137672 -0.55028,8.766041 -4.8125,9.875 -2.76088,0.696519 -2.28128,4.200887 0.90625,3.78125 4.7302,-0.237333 8.4627,5.646546 12.9375,4.09375 1.40149,-3.69557 -5.02701,-5.813368 -5.25,-9.65625 -0.55926,-6.140745 3.348,-12.019592 0.59375,-18.09375 -0.5235,-1.781141 -1.23219,-4.912488 -3.71875,-4.59375 z"
       style="opacity:0.87290973;fill:#ffffff;stroke:none;filter:url(#filter4600)" />
    <path
       inkscape:connector-curvature="0"
       id="path4604"
       d="m -217.3125,34.40625 c -16.65085,1.887933 -28.75092,16.512516 -45.40625,18.6875 -8.68085,2.137544 -20.0764,-2.72788 -26.34989,5.47032 -7.11116,8.239098 -10.90878,21.234602 -22.77511,23.74843 -4.38508,2.269254 -3.06523,8.244641 -2.125,12.0625 7.92322,-19.892536 29.92643,-28.721152 49.76303,-31.502522 12.14974,-1.609225 24.08454,-6.469205 31.51822,-16.559978 5.90148,-7.690973 17.45054,-9.26924 25.26576,-3.60803 1.79825,1.69773 3.4746,0.910697 1.79674,-1.20447 -2.01252,-4.430668 -6.65837,-7.69479 -11.6875,-7.09375 z"
       style="opacity:0.8428094;fill:url(#linearGradient4710);fill-opacity:1;stroke:none;filter:url(#filter4636)" />
  </g>
</svg>
