<?xml version="1.0" encoding="UTF-8" standalone="no"?>
<!-- Created with Inkscape (http://www.inkscape.org/) -->

<svg
   xmlns:dc="http://purl.org/dc/elements/1.1/"
   xmlns:cc="http://creativecommons.org/ns#"
   xmlns:rdf="http://www.w3.org/1999/02/22-rdf-syntax-ns#"
   xmlns:svg="http://www.w3.org/2000/svg"
   xmlns="http://www.w3.org/2000/svg"
   xmlns:xlink="http://www.w3.org/1999/xlink"
   xmlns:sodipodi="http://sodipodi.sourceforge.net/DTD/sodipodi-0.dtd"
   xmlns:inkscape="http://www.inkscape.org/namespaces/inkscape"
   width="385.92007"
   height="809.32483"
   id="svg2"
   version="1.1"
   inkscape:version="0.48.1 "
   sodipodi:docname="sunflower2.svg">
  <defs
     id="defs4">
    <linearGradient
       inkscape:collect="always"
       id="linearGradient3917">
      <stop
         style="stop-color:#002b00;stop-opacity:1;"
         offset="0"
         id="stop3919" />
      <stop
         style="stop-color:#002b00;stop-opacity:0;"
         offset="1"
         id="stop3921" />
    </linearGradient>
    <linearGradient
       inkscape:collect="always"
       id="linearGradient3888">
      <stop
         style="stop-color:#a02c89;stop-opacity:1;"
         offset="0"
         id="stop3890" />
      <stop
         style="stop-color:#a02c89;stop-opacity:0;"
         offset="1"
         id="stop3892" />
    </linearGradient>
    <linearGradient
       inkscape:collect="always"
       id="linearGradient3870">
      <stop
         style="stop-color:#d400aa;stop-opacity:1;"
         offset="0"
         id="stop3872" />
      <stop
         style="stop-color:#d400aa;stop-opacity:0;"
         offset="1"
         id="stop3874" />
    </linearGradient>
    <linearGradient
       inkscape:collect="always"
       id="linearGradient3802">
      <stop
         style="stop-color:#ff7f2a;stop-opacity:1;"
         offset="0"
         id="stop3804" />
      <stop
         style="stop-color:#ff7f2a;stop-opacity:0;"
         offset="1"
         id="stop3806" />
    </linearGradient>
    <linearGradient
       inkscape:collect="always"
       id="linearGradient3006">
      <stop
         style="stop-color:#000000;stop-opacity:1;"
         offset="0"
         id="stop3008" />
      <stop
         style="stop-color:#000000;stop-opacity:0;"
         offset="1"
         id="stop3010" />
    </linearGradient>
    <radialGradient
       inkscape:collect="always"
       xlink:href="#linearGradient3006"
       id="radialGradient3012"
       cx="376.44116"
       cy="393.19766"
       fx="376.44116"
       fy="393.19766"
       r="180.0574"
       gradientTransform="matrix(-0.22300512,1.3101552,-0.98103074,-0.16698263,846.12846,-34.367298)"
       gradientUnits="userSpaceOnUse" />
    <radialGradient
       inkscape:collect="always"
       xlink:href="#linearGradient3802"
       id="radialGradient3808"
       cx="368.07581"
       cy="374.7681"
       fx="368.07581"
       fy="374.7681"
       r="72.778625"
       gradientUnits="userSpaceOnUse"
       gradientTransform="matrix(-0.11131413,1.2365919,-1.4825872,-0.13345787,964.67423,-30.37571)" />
    <radialGradient
       inkscape:collect="always"
       xlink:href="#linearGradient3006"
       id="radialGradient3814"
       gradientUnits="userSpaceOnUse"
       gradientTransform="matrix(-0.22300512,1.3101552,-0.98103074,-0.16698263,1132.2237,323.67007)"
       cx="376.44116"
       cy="393.19766"
       fx="376.44116"
       fy="393.19766"
       r="180.0574" />
    <radialGradient
       inkscape:collect="always"
       xlink:href="#linearGradient3006"
       id="radialGradient3819"
       gradientUnits="userSpaceOnUse"
       gradientTransform="matrix(-0.22300512,1.3101552,-0.98103074,-0.16698263,1132.2237,323.67007)"
       cx="376.44116"
       cy="393.19766"
       fx="376.44116"
       fy="393.19766"
       r="180.0574" />
    <filter
       inkscape:collect="always"
       id="filter3864"
       color-interpolation-filters="sRGB">
      <feGaussianBlur
         inkscape:collect="always"
         stdDeviation="5.3760937"
         id="feGaussianBlur3866" />
    </filter>
    <radialGradient
       inkscape:collect="always"
       xlink:href="#linearGradient3870"
       id="radialGradient3876"
       cx="380.67783"
       cy="358.25024"
       fx="380.67783"
       fy="358.25024"
       r="72.778625"
       gradientUnits="userSpaceOnUse"
       gradientTransform="matrix(-0.09804516,1.6837713,-1.6385065,-0.09540824,1004.9967,-248.54409)" />
    <radialGradient
       inkscape:collect="always"
       xlink:href="#linearGradient3888"
       id="radialGradient3894"
       cx="424.96024"
       cy="304.07935"
       fx="424.96024"
       fy="304.07935"
       r="180.0574"
       gradientTransform="matrix(-0.14908734,1.7133019,-1.5561181,-0.13540959,961.4998,-382.41086)"
       gradientUnits="userSpaceOnUse" />
    <radialGradient
       inkscape:collect="always"
       xlink:href="#linearGradient3917"
       id="radialGradient3923"
       cx="483.51776"
       cy="698.39331"
       fx="483.51776"
       fy="698.39331"
       r="111.75927"
       gradientTransform="matrix(1.5569134,2.2006369,-2.0445666,1.4464962,1158.6341,-1420.0992)"
       gradientUnits="userSpaceOnUse" />
    <radialGradient
       inkscape:collect="always"
       xlink:href="#linearGradient3917"
       id="radialGradient3031"
       gradientUnits="userSpaceOnUse"
       gradientTransform="matrix(1.5569134,2.2006369,-2.0445666,1.4464962,1158.6341,-1420.0992)"
       cx="483.51776"
       cy="698.39331"
       fx="483.51776"
       fy="698.39331"
       r="111.75927" />
    <radialGradient
       inkscape:collect="always"
       xlink:href="#linearGradient3917"
       id="radialGradient3033"
       gradientUnits="userSpaceOnUse"
       gradientTransform="matrix(1.5569134,2.2006369,-2.0445666,1.4464962,1158.6341,-1420.0992)"
       cx="483.51776"
       cy="698.39331"
       fx="483.51776"
       fy="698.39331"
       r="111.75927" />
    <radialGradient
       inkscape:collect="always"
       xlink:href="#linearGradient3917"
       id="radialGradient3035"
       gradientUnits="userSpaceOnUse"
       gradientTransform="matrix(1.5569134,2.2006369,-2.0445666,1.4464962,1158.6341,-1420.0992)"
       cx="483.51776"
       cy="698.39331"
       fx="483.51776"
       fy="698.39331"
       r="111.75927" />
  </defs>
  <sodipodi:namedview
     id="base"
     pagecolor="#ffffff"
     bordercolor="#666666"
     borderopacity="1.0"
     inkscape:pageopacity="0.0"
     inkscape:pageshadow="2"
     inkscape:zoom="0.59770297"
     inkscape:cx="-106.53284"
     inkscape:cy="481.50811"
     inkscape:document-units="px"
     inkscape:current-layer="layer1"
     showgrid="false"
     inkscape:window-width="1440"
     inkscape:window-height="848"
     inkscape:window-x="-8"
     inkscape:window-y="-8"
     inkscape:window-maximized="1"
     fit-margin-top="0"
     fit-margin-left="0"
     fit-margin-right="0"
     fit-margin-bottom="0" />
  <metadata
     id="metadata7">
    <rdf:RDF>
      <cc:Work
         rdf:about="">
        <dc:format>image/svg+xml</dc:format>
        <dc:type
           rdf:resource="http://purl.org/dc/dcmitype/StillImage" />
        <dc:title />
      </cc:Work>
    </rdf:RDF>
  </metadata>
  <g
     inkscape:label="Layer 1"
     inkscape:groupmode="layer"
     id="layer1"
     transform="translate(-217.58088,-198.36435)">
    <g
       id="g3896">
      <path
         sodipodi:nodetypes="cscsc"
         inkscape:connector-curvature="0"
         id="path3810"
         d="m 408.22953,448.38325 c 0,0 69.87037,151.74233 66.92287,259.32614 -3.34614,122.13424 -102.05738,299.47981 -102.05738,299.47981 0,0 138.86496,-189.05707 112.09581,-366.40269 -26.76915,-177.34561 -76.9613,-192.40326 -76.9613,-192.40326 z"
         style="fill:#44aa00;stroke:#44aa00;stroke-width:1px;stroke-linecap:butt;stroke-linejoin:miter;stroke-opacity:1" />
      <path
         sodipodi:nodetypes="cscsc"
         inkscape:connector-curvature="0"
         id="path3823"
         d="m 476.82547,712.7286 c 0,0 21.74994,-41.8268 43.49987,-53.5383 21.74993,-11.7115 70.26902,-21.74993 70.26902,-21.74993 0,0 -13.38457,50.19215 -38.48065,73.61516 -25.09608,23.42301 -75.28824,1.67307 -75.28824,1.67307 z"
         style="fill:#44aa00;stroke:#44aa00;stroke-width:1px;stroke-linecap:butt;stroke-linejoin:miter;stroke-opacity:1" />
      <path
         style="fill:#44aa00;stroke:#44aa00;stroke-width:1px;stroke-linecap:butt;stroke-linejoin:miter;stroke-opacity:1"
         d="m 481.8447,662.53644 c 0,0 -21.74994,-41.8268 -43.49987,-53.5383 -21.74993,-11.7115 -70.26902,-21.74993 -70.26902,-21.74993 0,0 13.38457,50.19215 38.48065,73.61516 25.09608,23.42301 75.28824,1.67307 75.28824,1.67307 z"
         id="path3827"
         inkscape:connector-curvature="0"
         sodipodi:nodetypes="cscsc" />
    </g>
    <g
       id="g3901"
       style="fill:url(#radialGradient3923);fill-opacity:1">
      <path
         style="fill:url(#radialGradient3031);fill-opacity:1;stroke:#44aa00;stroke-width:1px;stroke-linecap:butt;stroke-linejoin:miter;stroke-opacity:1"
         d="m 408.22953,448.38325 c 0,0 69.87037,151.74233 66.92287,259.32614 -3.34614,122.13424 -102.05738,299.47981 -102.05738,299.47981 0,0 138.86496,-189.05707 112.09581,-366.40269 -26.76915,-177.34561 -76.9613,-192.40326 -76.9613,-192.40326 z"
         id="path3903"
         inkscape:connector-curvature="0"
         sodipodi:nodetypes="cscsc" />
      <path
         style="fill:url(#radialGradient3033);fill-opacity:1;stroke:#44aa00;stroke-width:1px;stroke-linecap:butt;stroke-linejoin:miter;stroke-opacity:1"
         d="m 476.82547,712.7286 c 0,0 21.74994,-41.8268 43.49987,-53.5383 21.74993,-11.7115 70.26902,-21.74993 70.26902,-21.74993 0,0 -13.38457,50.19215 -38.48065,73.61516 -25.09608,23.42301 -75.28824,1.67307 -75.28824,1.67307 z"
         id="path3905"
         inkscape:connector-curvature="0"
         sodipodi:nodetypes="cscsc" />
      <path
         sodipodi:nodetypes="cscsc"
         inkscape:connector-curvature="0"
         id="path3907"
         d="m 481.8447,662.53644 c 0,0 -21.74994,-41.8268 -43.49987,-53.5383 -21.74993,-11.7115 -70.26902,-21.74993 -70.26902,-21.74993 0,0 13.38457,50.19215 38.48065,73.61516 25.09608,23.42301 75.28824,1.67307 75.28824,1.67307 z"
         style="fill:url(#radialGradient3035);fill-opacity:1;stroke:#44aa00;stroke-width:1px;stroke-linecap:butt;stroke-linejoin:miter;stroke-opacity:1" />
    </g>
    <path
       inkscape:connector-curvature="0"
       id="path3842"
       d="m 423.68154,211.68376 c 0,0 -47.138,28.87054 -53.53125,48.84375 -7.43342,23.22278 21.75,69.75 21.75,69.75 l 28.4375,2.3125 c 0,0 32.63943,-44.5816 31.78125,-68.59375 -0.66601,-18.6352 -28.4375,-52.3125 -28.4375,-52.3125 z m -130.5,43.125 c 0,0 -12.96538,53.75614 -3.375,72.40625 11.1507,21.68446 64.6875,33.96875 64.6875,33.96875 l 21.75,-18.4375 c 0,0 -8.39338,-54.61626 -25.96875,-71 -13.63975,-12.71499 -57.09375,-16.9375 -57.09375,-16.9375 z m 201.21875,6.5625 c -11.10936,0.10364 -21.62033,1.37117 -27.8125,5.0625 -20.94435,12.48549 -29.875,66.6875 -29.875,66.6875 l 19.78125,20.5625 c 0,0 53.99792,-11.77782 69.25,-30.34375 11.83674,-14.40853 13.3125,-58.0625 13.3125,-58.0625 0,0 -23.44747,-4.1041 -44.65625,-3.90625 z m 37.09375,75.65625 c -24.41787,-0.44468 -62.5,29.21875 -62.5,29.21875 l 0.5625,28.53125 c 0,0 47.66744,27.94524 71.46875,24.65625 18.47157,-2.5525 49.15625,-33.59375 49.15625,-33.59375 0,0 -33.48139,-43.97783 -54,-48.3125 -1.49106,-0.31499 -3.05964,-0.47035 -4.6875,-0.5 z m -247.34375,18.09375 c -0.78941,-3.2e-4 -1.56415,0.0325 -2.3125,0.0937 -18.58488,1.52178 -50.9375,30.8125 -50.9375,30.8125 0,0 30.97282,45.78148 51.21875,51.25 23.53989,6.35824 68.6875,-24.9375 68.6875,-24.9375 l 1,-28.5 c 0,0 -43.1846,-28.7088 -67.65625,-28.71875 z m 186.46875,56.28125 -18.5625,21.65625 c 0,0 16.98153,52.58671 36.9375,65.96875 15.4873,10.38545 59.0625,7.625 59.0625,7.625 0,0 4.24522,-55.11125 -8.1875,-72 -14.45549,-19.63651 -69.25,-23.25 -69.25,-23.25 z m -104.5,18.59375 c 0,0 -53.45282,13.98558 -67.9375,33.15625 -11.24117,14.87783 -10.9375,58.53125 -10.9375,58.53125 0,0 54.78162,7.36809 72.34375,-4.09375 20.41945,-13.32667 27.15625,-67.84375 27.15625,-67.84375 l -20.625,-19.75 z m 74.78125,16.65625 -28.34375,3.40625 c 0,0 -23.1241,50.17125 -17.5,73.53125 4.3647,18.12907 38.3125,45.625 38.3125,45.625 0,0 40.43219,-37.68481 42.71875,-58.53125 2.65858,-24.23811 -35.1875,-64.03125 -35.1875,-64.03125 z"
       style="fill:#782167;stroke:#ffff00;stroke-width:0.83357835px;stroke-linecap:butt;stroke-linejoin:miter;stroke-opacity:1;filter:url(#filter3864)" />
    <path
       style="fill:#ff0066;stroke:#ffff00;stroke-width:0.83357835px;stroke-linecap:butt;stroke-linejoin:miter;stroke-opacity:1"
       d="m 423.68154,211.68376 c 0,0 -47.138,28.87054 -53.53125,48.84375 -7.43342,23.22278 21.75,69.75 21.75,69.75 l 28.4375,2.3125 c 0,0 32.63943,-44.5816 31.78125,-68.59375 -0.66601,-18.6352 -28.4375,-52.3125 -28.4375,-52.3125 z m -130.5,43.125 c 0,0 -12.96538,53.75614 -3.375,72.40625 11.1507,21.68446 64.6875,33.96875 64.6875,33.96875 l 21.75,-18.4375 c 0,0 -8.39338,-54.61626 -25.96875,-71 -13.63975,-12.71499 -57.09375,-16.9375 -57.09375,-16.9375 z m 201.21875,6.5625 c -11.10936,0.10364 -21.62033,1.37117 -27.8125,5.0625 -20.94435,12.48549 -29.875,66.6875 -29.875,66.6875 l 19.78125,20.5625 c 0,0 53.99792,-11.77782 69.25,-30.34375 11.83674,-14.40853 13.3125,-58.0625 13.3125,-58.0625 0,0 -23.44747,-4.1041 -44.65625,-3.90625 z m 37.09375,75.65625 c -24.41787,-0.44468 -62.5,29.21875 -62.5,29.21875 l 0.5625,28.53125 c 0,0 47.66744,27.94524 71.46875,24.65625 18.47157,-2.5525 49.15625,-33.59375 49.15625,-33.59375 0,0 -33.48139,-43.97783 -54,-48.3125 -1.49106,-0.31499 -3.05964,-0.47035 -4.6875,-0.5 z m -247.34375,18.09375 c -0.78941,-3.2e-4 -1.56415,0.0325 -2.3125,0.0937 -18.58488,1.52178 -50.9375,30.8125 -50.9375,30.8125 0,0 30.97282,45.78148 51.21875,51.25 23.53989,6.35824 68.6875,-24.9375 68.6875,-24.9375 l 1,-28.5 c 0,0 -43.1846,-28.7088 -67.65625,-28.71875 z m 186.46875,56.28125 -18.5625,21.65625 c 0,0 16.98153,52.58671 36.9375,65.96875 15.4873,10.38545 59.0625,7.625 59.0625,7.625 0,0 4.24522,-55.11125 -8.1875,-72 -14.45549,-19.63651 -69.25,-23.25 -69.25,-23.25 z m -104.5,18.59375 c 0,0 -53.45282,13.98558 -67.9375,33.15625 -11.24117,14.87783 -10.9375,58.53125 -10.9375,58.53125 0,0 54.78162,7.36809 72.34375,-4.09375 20.41945,-13.32667 27.15625,-67.84375 27.15625,-67.84375 l -20.625,-19.75 z m 74.78125,16.65625 -28.34375,3.40625 c 0,0 -23.1241,50.17125 -17.5,73.53125 4.3647,18.12907 38.3125,45.625 38.3125,45.625 0,0 40.43219,-37.68481 42.71875,-58.53125 2.65858,-24.23811 -35.1875,-64.03125 -35.1875,-64.03125 z"
       id="path2985"
       inkscape:connector-curvature="0" />
    <path
       inkscape:connector-curvature="0"
       id="path3886"
       d="m 423.68154,211.68376 c 0,0 -47.138,28.87054 -53.53125,48.84375 -7.43342,23.22278 21.75,69.75 21.75,69.75 l 28.4375,2.3125 c 0,0 32.63943,-44.5816 31.78125,-68.59375 -0.66601,-18.6352 -28.4375,-52.3125 -28.4375,-52.3125 z m -130.5,43.125 c 0,0 -12.96538,53.75614 -3.375,72.40625 11.1507,21.68446 64.6875,33.96875 64.6875,33.96875 l 21.75,-18.4375 c 0,0 -8.39338,-54.61626 -25.96875,-71 -13.63975,-12.71499 -57.09375,-16.9375 -57.09375,-16.9375 z m 201.21875,6.5625 c -11.10936,0.10364 -21.62033,1.37117 -27.8125,5.0625 -20.94435,12.48549 -29.875,66.6875 -29.875,66.6875 l 19.78125,20.5625 c 0,0 53.99792,-11.77782 69.25,-30.34375 11.83674,-14.40853 13.3125,-58.0625 13.3125,-58.0625 0,0 -23.44747,-4.1041 -44.65625,-3.90625 z m 37.09375,75.65625 c -24.41787,-0.44468 -62.5,29.21875 -62.5,29.21875 l 0.5625,28.53125 c 0,0 47.66744,27.94524 71.46875,24.65625 18.47157,-2.5525 49.15625,-33.59375 49.15625,-33.59375 0,0 -33.48139,-43.97783 -54,-48.3125 -1.49106,-0.31499 -3.05964,-0.47035 -4.6875,-0.5 z m -247.34375,18.09375 c -0.78941,-3.2e-4 -1.56415,0.0325 -2.3125,0.0937 -18.58488,1.52178 -50.9375,30.8125 -50.9375,30.8125 0,0 30.97282,45.78148 51.21875,51.25 23.53989,6.35824 68.6875,-24.9375 68.6875,-24.9375 l 1,-28.5 c 0,0 -43.1846,-28.7088 -67.65625,-28.71875 z m 186.46875,56.28125 -18.5625,21.65625 c 0,0 16.98153,52.58671 36.9375,65.96875 15.4873,10.38545 59.0625,7.625 59.0625,7.625 0,0 4.24522,-55.11125 -8.1875,-72 -14.45549,-19.63651 -69.25,-23.25 -69.25,-23.25 z m -104.5,18.59375 c 0,0 -53.45282,13.98558 -67.9375,33.15625 -11.24117,14.87783 -10.9375,58.53125 -10.9375,58.53125 0,0 54.78162,7.36809 72.34375,-4.09375 20.41945,-13.32667 27.15625,-67.84375 27.15625,-67.84375 l -20.625,-19.75 z m 74.78125,16.65625 -28.34375,3.40625 c 0,0 -23.1241,50.17125 -17.5,73.53125 4.3647,18.12907 38.3125,45.625 38.3125,45.625 0,0 40.43219,-37.68481 42.71875,-58.53125 2.65858,-24.23811 -35.1875,-64.03125 -35.1875,-64.03125 z"
       style="opacity:0.84134617;fill:url(#radialGradient3894);fill-opacity:1;stroke:#ffff00;stroke-width:0.83357835px;stroke-linecap:butt;stroke-linejoin:miter;stroke-opacity:1" />
    <g
       id="g3831"
       transform="translate(49.289354,12.306165)"
       style="fill:#a02c5a;stroke:#800033">
      <path
         inkscape:connector-curvature="0"
         id="path3014"
         d="m 406.41459,343.1216 c 14.89494,-31.04557 28.72595,-33.74518 28.72595,-33.74518"
         style="fill:#a02c5a;stroke:#800033;stroke-width:11.31599998;stroke-linecap:round;stroke-linejoin:round;stroke-miterlimit:4;stroke-opacity:1;stroke-dasharray:none" />
      <path
         inkscape:transform-center-y="0.88588961"
         inkscape:transform-center-x="-72.12836"
         style="fill:#a02c5a;stroke:#800033;stroke-width:11.31599998;stroke-linecap:round;stroke-linejoin:round;stroke-miterlimit:4;stroke-opacity:1;stroke-dasharray:none"
         d="m 420.56426,381.32823 c 33.03847,-9.70287 44.29902,-1.23029 44.29902,-1.23029"
         id="path3784"
         inkscape:connector-curvature="0" />
      <path
         inkscape:connector-curvature="0"
         id="path3786"
         d="m 405.08755,414.416 c 30.84012,15.31577 33.35138,29.18221 33.35138,29.18221"
         style="fill:#a02c5a;stroke:#800033;stroke-width:11.31599998;stroke-linecap:round;stroke-linejoin:round;stroke-miterlimit:4;stroke-opacity:1;stroke-dasharray:none"
         inkscape:transform-center-x="-51.17783"
         inkscape:transform-center-y="50.892868" />
      <path
         inkscape:transform-center-y="71.298988"
         inkscape:transform-center-x="-11.803678"
         style="fill:#a02c5a;stroke:#800033;stroke-width:11.31599998;stroke-linecap:round;stroke-linejoin:round;stroke-miterlimit:4;stroke-opacity:1;stroke-dasharray:none"
         d="m 376.96713,427.78807 c 15.8288,30.57997 9.66056,43.25031 9.66056,43.25031"
         id="path3788"
         inkscape:connector-curvature="0" />
      <path
         inkscape:connector-curvature="0"
         id="path3790"
         d="m 341.088,418.58792 c -9.51352,33.09348 -22.70133,38.06002 -22.70133,38.06002"
         style="fill:#a02c5a;stroke:#800033;stroke-width:11.31599998;stroke-linecap:round;stroke-linejoin:round;stroke-miterlimit:4;stroke-opacity:1;stroke-dasharray:none"
         inkscape:transform-center-x="40.848075"
         inkscape:transform-center-y="59.503693" />
      <path
         inkscape:transform-center-y="59.503693"
         inkscape:transform-center-x="40.848075"
         style="fill:#a02c5a;stroke:#800033;stroke-width:11.31599998;stroke-linecap:round;stroke-linejoin:round;stroke-miterlimit:4;stroke-opacity:1;stroke-dasharray:none"
         d="m 341.088,418.58792 c -9.51352,33.09348 -22.70133,38.06002 -22.70133,38.06002"
         id="path3792"
         inkscape:connector-curvature="0" />
      <path
         inkscape:connector-curvature="0"
         id="path3794"
         d="m 320.90306,384.42934 c -30.60116,15.78778 -43.26322,9.60255 -43.26322,9.60255"
         style="fill:#a02c5a;stroke:#800033;stroke-width:11.31599998;stroke-linecap:round;stroke-linejoin:round;stroke-miterlimit:4;stroke-opacity:1;stroke-dasharray:none"
         inkscape:transform-center-x="71.31396"
         inkscape:transform-center-y="11.713257" />
      <path
         inkscape:transform-center-y="-41.852702"
         inkscape:transform-center-x="58.801415"
         style="fill:#a02c5a;stroke:#800033;stroke-width:11.31599998;stroke-linecap:round;stroke-linejoin:round;stroke-miterlimit:4;stroke-opacity:1;stroke-dasharray:none"
         d="M 330.6185,347.93374 C 297.69136,337.85958 292.94949,324.58933 292.94949,324.58933"
         id="path3796"
         inkscape:connector-curvature="0" />
      <path
         inkscape:connector-curvature="0"
         id="path3798"
         d="m 364.02608,328.46354 c -15.93806,-30.52316 -9.81517,-43.21548 -9.81517,-43.21548"
         style="fill:#a02c5a;stroke:#800033;stroke-width:11.31599998;stroke-linecap:round;stroke-linejoin:round;stroke-miterlimit:4;stroke-opacity:1;stroke-dasharray:none"
         inkscape:transform-center-x="12.044877"
         inkscape:transform-center-y="-71.258437" />
    </g>
    <path
       inkscape:connector-curvature="0"
       id="path3825"
       d="m 547.23635,667.41379 c -14.89494,31.04557 -28.72595,33.74518 -28.72595,33.74518"
       style="fill:none;stroke:#000000;stroke-width:5.91599989;stroke-linecap:round;stroke-linejoin:round;stroke-miterlimit:4;stroke-opacity:1;stroke-dasharray:none" />
    <path
       style="fill:none;stroke:#000000;stroke-width:5.91599989;stroke-linecap:round;stroke-linejoin:round;stroke-miterlimit:4;stroke-opacity:1;stroke-dasharray:none"
       d="m 411.43382,617.22163 c 14.89494,31.04557 28.72595,33.74518 28.72595,33.74518"
       id="path3829"
       inkscape:connector-curvature="0" />
    <path
       sodipodi:type="arc"
       style="fill:#e9afc6;fill-opacity:1"
       id="path3001"
       sodipodi:cx="363.89313"
       sodipodi:cy="367.23926"
       sodipodi:rx="72.778625"
       sodipodi:ry="72.778625"
       d="m 436.67175,367.23926 c 0,40.19452 -32.5841,72.77862 -72.77862,72.77862 -40.19453,0 -72.77863,-32.5841 -72.77863,-72.77862 0,-40.19453 32.5841,-72.77863 72.77863,-72.77863 40.19452,0 72.77862,32.5841 72.77862,72.77863 z"
       transform="translate(54.320858,23.210127)" />
    <path
       transform="translate(54.320858,23.210127)"
       d="m 436.67175,367.23926 c 0,40.19452 -32.5841,72.77862 -72.77862,72.77862 -40.19453,0 -72.77863,-32.5841 -72.77863,-72.77862 0,-40.19453 32.5841,-72.77863 72.77863,-72.77863 40.19452,0 72.77862,32.5841 72.77862,72.77863 z"
       sodipodi:ry="72.778625"
       sodipodi:rx="72.778625"
       sodipodi:cy="367.23926"
       sodipodi:cx="363.89313"
       id="path3868"
       style="fill:url(#radialGradient3876);fill-opacity:1"
       sodipodi:type="arc" />
  </g>
</svg>
