<?xml version="1.0" encoding="UTF-8" standalone="no"?>
<!-- Generator: Adobe Illustrator 10.0, SVG Export Plug-In . SVG Version: 3.0.0 Build 77)  -->

<svg
   xmlns:i="http://ns.adobe.com/AdobeIllustrator/10.0/"
   xmlns:dc="http://purl.org/dc/elements/1.1/"
   xmlns:cc="http://creativecommons.org/ns#"
   xmlns:rdf="http://www.w3.org/1999/02/22-rdf-syntax-ns#"
   xmlns:svg="http://www.w3.org/2000/svg"
   xmlns="http://www.w3.org/2000/svg"
   xmlns:sodipodi="http://sodipodi.sourceforge.net/DTD/sodipodi-0.dtd"
   xmlns:inkscape="http://www.inkscape.org/namespaces/inkscape"
   enable-background="new 0 0 147.068 421.138"
   height="421.138"
   i:pageBounds="0 792 612 0"
   i:rulerOrigin="0 0"
   i:viewOrigin="232 606"
   overflow="visible"
   space="preserve"
   viewBox="0 0 147.068 421.138"
   width="147.068"
   id="svg2"
   version="1.1"
   inkscape:version="0.48.2 r9819"
   sodipodi:docname="IceCream.eps">
  <defs
     id="defs119" />
  <sodipodi:namedview
     pagecolor="#ffffff"
     bordercolor="#666666"
     borderopacity="1"
     objecttolerance="10"
     gridtolerance="10"
     guidetolerance="10"
     inkscape:pageopacity="0"
     inkscape:pageshadow="2"
     inkscape:window-width="640"
     inkscape:window-height="480"
     id="namedview117"
     showgrid="false"
     inkscape:zoom="0.56038638"
     inkscape:cx="73.533997"
     inkscape:cy="210.569"
     inkscape:window-x="0"
     inkscape:window-y="0"
     inkscape:window-maximized="0"
     inkscape:current-layer="Layer_1" />
  <metadata
     id="metadata4">
    <rdf:RDF>
      <cc:Work
         rdf:about="">
        <dc:title></dc:title>
        <dc:description>Ice Cream Cone (4 Scoop)</dc:description>
        <dc:subject>
          <rdf:Bag>
            <rdf:li>food</rdf:li>
            <rdf:li>icecream</rdf:li>
            <rdf:li>festive</rdf:li>
            <rdf:li>menu</rdf:li>
          </rdf:Bag>
        </dc:subject>
        <dc:publisher>
          <cc:Agent
             rdf:about="http://www.openclipart.org/">
            <dc:title>Open Clip Art Project</dc:title>
          </cc:Agent>
        </dc:publisher>
        <dc:creator>
          <cc:Agent
             rdf:about="http://web.resource.org/cc/PublicDomain">
            <dc:title>Gerald G.</dc:title>
          </cc:Agent>
        </dc:creator>
        <dc:rights>
          <cc:Agent
             rdf:about="http://web.resource.org/cc/PublicDomain">
            <dc:title>Public Domain</dc:title>
          </cc:Agent>
        </dc:rights>
        <dc:date>2005/05/30</dc:date>
        <dc:format>image/svg+xml</dc:format>
        <dc:type
           rdf:resource="http://purl.org/dc/dcmitype/StillImage" />
        <cc:license
           rdf:resource="http://web.resource.org/cc/PublicDomain" />
        <dc:language>en</dc:language>
      </cc:Work>
      <cc:License
         rdf:about="http://web.resource.org/cc/PublicDomain">
        <cc:permits
           rdf:resource="http://web.resource.org/cc/Reproduction" />
        <cc:permits
           rdf:resource="http://web.resource.org/cc/Distribution" />
        <cc:permits
           rdf:resource="http://web.resource.org/cc/DerivativeWorks" />
      </cc:License>
    </rdf:RDF>
  </metadata>
  <g
     i:dimmedPercent="50"
     i:layer="yes"
     i:rgbTrio="#4F008000FFFF"
     id="Layer_1">
    <path
       style="fill:#ffffff;fill-rule:evenodd"
       inkscape:connector-curvature="0"
       id="path9"
       i:knockout="Off"
       d="m 31.881244,258.23681 c 10.933161,2.92953 18.208313,11.26839 16.240101,18.61386 -1.968213,7.34547 -12.438725,10.92939 -23.371271,8.00003 C 13.817527,281.92133 6.5417611,273.5823 8.5099737,266.23683 10.478184,258.89136 20.948697,255.30743 31.881244,258.23681"
       clip-rule="evenodd" />
    <path
       style="fill:#a16121;fill-rule:evenodd;stroke:#000000;stroke-width:0.02288432;stroke-miterlimit:10"
       inkscape:connector-curvature="0"
       id="path11"
       stroke-miterlimit="10"
       i:knockout="Off"
       d="M 20.427656,414.57015 84.555053,301.94678 20.981177,284.6516 20.427656,414.57015 z"
       clip-rule="evenodd" />
    <path
       style="fill:#804000;fill-rule:evenodd"
       inkscape:connector-curvature="0"
       id="path13"
       i:knockout="Off"
       d="m 47.684277,308.2493 c 0.601075,-3.39268 1.550212,-5.69706 2.847836,-7.26838 1.297624,-1.57131 3.936541,-3.02015 4.973182,-1.93754 0.987932,0.99916 0.02416,6.18999 1.065286,8.3169 1.052355,2.08255 4.531155,2.54151 5.073137,4.3208 0.491516,1.79077 -2.152586,3.87789 -2.264333,6.24014 -0.13243,2.2626 1.375828,5.0359 1.338711,7.20558 -0.163041,2.11158 -1.829408,2.49495 -2.038647,5.40033 -0.170594,2.84467 0.791291,8.36194 0.77782,11.50931 -0.05732,3.04085 -0.50656,5.33637 -1.236716,6.82349 l -6.459156,10.75474 c 0.20087,-4.02113 0.582913,-7.92264 1.105092,-11.90506 0.507585,-4.1048 1.808185,-8.16293 2.01614,-11.94525 0.0694,-3.79575 -0.757056,-7.78482 -1.073966,-10.40408 -0.3049,-2.66408 0.401285,-2.73546 -0.584357,-5.51154 -1.051311,-2.88711 -2.846789,-6.70806 -5.540029,-11.59944 z"
       clip-rule="evenodd" />
    <path
       style="fill:#ffc080;fill-rule:evenodd"
       inkscape:connector-curvature="0"
       id="path15"
       i:knockout="Off"
       d="m 37.265889,289.39414 c -0.470575,5.20452 -1.545284,12.66371 -3.448776,22.86226 -1.903491,10.19857 -5.532982,27.63443 -7.735678,37.80019 -2.183504,10.00575 -3.971319,17.29688 -5.322901,22.0758 l -0.0084,4.45242 c 1.980343,-4.20769 4.198143,-10.98152 6.70078,-20.49833 2.532252,-9.62732 6.243701,-25.33542 8.279507,-36.46989 2.053576,-11.20077 3.244535,-20.95058 3.844904,-29.91098 -0.752364,-0.10749 -1.528224,-0.22061 -2.309394,-0.31147 z"
       clip-rule="evenodd" />
    <path
       style="fill:#ffc080;fill-rule:evenodd"
       inkscape:connector-curvature="0"
       id="path17"
       i:knockout="Off"
       d="m 29.367903,286.6856 c -0.832639,10.88825 -1.880287,20.36847 -3.255477,28.86064 -1.413642,8.45885 -2.95371,15.53273 -4.90974,21.59488 l 0.264374,5.73313 c 2.715944,-6.68774 4.883138,-14.42213 6.661986,-23.80185 1.762503,-9.40714 2.988261,-19.90576 3.813503,-32.00426 -0.841395,-0.13135 -1.70506,-0.268 -2.574646,-0.38254 z"
       clip-rule="evenodd" />
    <path
       style="fill:#ffc080;fill-rule:evenodd"
       inkscape:connector-curvature="0"
       id="path19"
       i:knockout="Off"
       d="m 46.727765,295.19889 c -2.118417,12.41537 -4.532439,24.254 -7.384642,36.40167 -2.894824,12.04149 -6.371402,25.01625 -9.518099,35.52203 -3.150869,10.43293 -6.184751,19.19141 -9.214184,26.69543 l -0.21864,4.08743 c 3.32504,-6.92728 6.675473,-15.36402 10.187524,-25.81862 3.489946,-10.46053 7.415863,-23.07865 10.660139,-36.42429 3.223758,-13.44593 6.050319,-27.70837 8.663789,-43.47441 -1.049901,0.99802 -2.099353,1.99683 -3.175887,3.01076 z"
       clip-rule="evenodd" />
    <path
       style="fill:#ffc080;fill-rule:evenodd"
       inkscape:connector-curvature="0"
       id="path21"
       i:knockout="Off"
       d="m 50.943015,326.06132 c -0.366762,3.31396 -1.792854,8.90146 -4.32658,17.29644 -2.582434,8.31151 -7.291058,22.25918 -10.794011,32.50301 -3.462469,10.18358 -6.783589,19.48108 -9.968032,28.27095 l 5.595854,-8.59387 -1.65e-4,6.1e-4 c 7.236673,-18.69633 12.66593,-33.56507 16.29454,-45.33886 3.601196,-11.75746 5.435823,-19.84222 5.439576,-24.72169 0.24485,-1.35589 0.256385,-2.37154 -0.07751,-2.98222 -0.344151,-0.6608 -0.94531,-0.89296 -1.868206,-0.80857 -0.101186,1.44111 -0.209687,2.9046 -0.29547,4.3742 z"
       clip-rule="evenodd" />
    <path
       style="fill:#ffc080;fill-rule:evenodd"
       inkscape:connector-curvature="0"
       id="path23"
       i:knockout="Off"
       d="m 49.023154,315.45427 c -4.067901,-0.0239 -8.358553,-1.07813 -13.112932,-3.22864 -4.758714,-2.22277 -9.768235,-5.36628 -15.229159,-9.74294 l 0.287868,3.34658 c 2.43397,2.1454 5.415389,4.10451 8.831483,5.94447 3.422182,1.81725 8.223943,3.79094 11.751741,4.94878 3.501029,1.0809 6.457541,1.54141 9.11094,1.54165 -0.533666,-0.92614 -1.08993,-1.85636 -1.639941,-2.8099 z"
       clip-rule="evenodd" />
    <path
       style="fill:#ffc080;fill-rule:evenodd"
       inkscape:connector-curvature="0"
       id="path25"
       i:knockout="Off"
       d="m 20.900511,313.86542 c 5.091019,2.92778 10.257874,5.30728 15.849478,7.5163 5.586489,2.13722 11.225901,3.81414 17.313916,5.23153 l 0.05412,2.09936 c -4.969616,-0.90516 -10.116805,-2.47387 -15.749867,-4.52815 -5.637235,-2.12714 -11.48791,-4.78398 -17.794516,-8.03813 0.106875,-0.75252 0.214361,-1.50488 0.32687,-2.28092 z"
       clip-rule="evenodd" />
    <path
       style="fill:#ffc080;fill-rule:evenodd"
       inkscape:connector-curvature="0"
       id="path27"
       i:knockout="Off"
       d="m 20.798173,324.23861 c 4.671458,2.45998 9.658564,4.62614 15.228488,6.47397 5.603874,1.80955 11.368993,3.28257 17.827125,4.46811 l -0.444218,1.65785 c -4.751295,-0.65647 -9.806603,-1.77478 -15.406307,-3.51147 -5.609632,-1.78805 -11.589023,-4.05293 -18.090826,-6.93229 0.284039,-0.70637 0.573836,-1.43424 0.885738,-2.15617 z"
       clip-rule="evenodd" />
    <path
       style="fill:#ffc080;fill-rule:evenodd"
       inkscape:connector-curvature="0"
       id="path29"
       i:knockout="Off"
       d="m 20.152457,333.28228 c 1.701937,1.78276 5.105188,3.4054 10.233021,5.13477 5.177965,1.71912 11.836364,3.21828 20.417955,4.8787 l -0.255347,2.01643 c -9.474486,-1.42517 -16.693816,-2.86206 -21.748417,-4.33424 -5.114661,-1.51328 -7.86937,-3.08061 -8.552909,-4.68525 -0.01756,-1.00042 -0.05616,-2.00581 -0.0943,-3.01041 z"
       clip-rule="evenodd" />
    <path
       style="fill:#ffc080;fill-rule:evenodd"
       inkscape:connector-curvature="0"
       id="path31"
       i:knockout="Off"
       d="m 20.951768,344.79735 c 2.162387,1.47903 5.358025,2.90389 9.80654,4.42756 4.488388,1.46326 9.904004,2.91437 16.666838,4.46585 l -0.669287,2.49783 c -3.369841,0.021 -7.164741,-0.75891 -11.608919,-2.21033 -4.476376,-1.50808 -9.313416,-3.7038 -14.864296,-6.68372 0.219148,-0.81787 0.444217,-1.65784 0.669124,-2.49719 z"
       clip-rule="evenodd" />
    <path
       style="fill:#ffc080;fill-rule:evenodd"
       inkscape:connector-curvature="0"
       id="path33"
       i:knockout="Off"
       d="m 20.516637,357.47356 c 1.29306,1.00983 3.226987,2.19205 5.938077,3.39166 2.69908,1.24443 6.585884,2.8308 10.247731,3.93045 3.613302,1.01557 7.365579,1.6893 11.321558,2.13332 l -1.15099,2.0851 1.64e-4,-6.1e-4 c -4.443252,-0.47982 -8.793132,-1.31302 -13.266146,-2.65437 -4.528261,-1.40288 -8.873502,-3.13513 -13.431689,-5.39892 0.118859,-1.15339 0.238167,-2.306 0.341295,-3.48663 z"
       clip-rule="evenodd" />
    <path
       style="fill:#ffc080;fill-rule:evenodd"
       inkscape:connector-curvature="0"
       id="path35"
       i:knockout="Off"
       d="m 20.69608,371.21604 c 1.91706,1.86409 4.512866,3.3171 8.028488,4.52038 3.456011,1.16296 7.654102,2.02723 12.708225,2.52857 l -2.13295,2.38993 c -5.16031,-0.45873 -9.23982,-1.14907 -12.238531,-2.07103 -3.030459,-0.97786 -4.965165,-2.15962 -5.867003,-3.65693 -0.101736,-1.21183 -0.09063,-1.87222 -0.102473,-1.82801 0.05002,-0.009 0.08729,2.06152 0.102473,1.82801 -0.07757,-0.32942 -0.251542,-1.53693 -0.498229,-3.71092 z"
       clip-rule="evenodd" />
    <path
       style="fill:#ffc080;fill-rule:evenodd"
       inkscape:connector-curvature="0"
       id="path37"
       i:knockout="Off"
       d="m 21.046373,387.68079 c 1.212578,0.51444 2.824623,1.04116 4.924555,1.60383 2.122039,0.5686 4.533023,1.11985 7.564521,1.7426 l -1.55823,2.54393 c -3.4811,-0.62476 -6.062833,-1.24612 -7.857803,-1.7975 -1.810822,-0.58063 -2.744877,-1.16194 -2.825359,-1.65733 -0.06963,-0.80114 -0.161538,-1.60759 -0.247684,-2.43553 z"
       clip-rule="evenodd" />
    <path
       style="fill:#ffc080;fill-rule:evenodd"
       inkscape:connector-curvature="0"
       id="path39"
       i:knockout="Off"
       d="m 20.900238,289.46301 c 1.060169,0.99481 3.65581,2.44844 8.00622,4.51507 4.3786,2.04983 10.186488,4.60109 17.843813,7.76572 l -0.19367,2.93325 c -5.625554,-2.17073 -10.425895,-4.23815 -14.730931,-6.03201 -4.29928,-1.81535 -7.839661,-3.54516 -10.862634,-4.99549 -0.01014,-1.37683 -0.03647,-2.78169 -0.0628,-4.18654 z"
       clip-rule="evenodd" />
    <path
       style="fill:#ffc080;fill-rule:evenodd"
       inkscape:connector-curvature="0"
       id="path41"
       i:knockout="Off"
       d="m 49.707408,304.14719 c 2.264735,0.29885 5.791508,0.2251 10.886781,-0.39972 5.073002,-0.63013 11.430673,-1.72221 19.339852,-3.29949 l 2.450422,0.84612 c -6.042702,1.50815 -11.697361,2.71753 -17.341171,3.62115 -5.638217,0.88275 -10.959484,1.37594 -16.18618,1.60951 0.279988,-0.77721 0.564835,-1.57748 0.850296,-2.37757 z"
       clip-rule="evenodd" />
    <path
       style="fill:#ffc080;fill-rule:evenodd"
       inkscape:connector-curvature="0"
       id="path43"
       i:knockout="Off"
       d="m 50.476783,312.85862 c 0.336643,0.77726 2.913302,0.7102 7.818894,-0.17933 4.961484,-0.92127 11.918419,-2.65829 21.427034,-5.25087 l -1.854953,3.03235 c -9.14497,2.12209 -15.769907,3.59269 -20.16437,4.42898 -4.409252,0.80798 -6.365726,0.94777 -6.068845,0.45873 -0.375541,-0.81138 -0.766037,-1.65046 -1.15776,-2.48986 z"
       clip-rule="evenodd" />
    <path
       style="fill:#ffc080;fill-rule:evenodd"
       inkscape:connector-curvature="0"
       id="path45"
       i:knockout="Off"
       d="m 54.344651,339.98012 c 2.100783,-0.14784 3.988032,-0.47136 5.881367,-0.8176 1.816435,-0.41291 3.552294,-0.96717 5.182766,-1.57273 l -3.395037,3.82862 c -2.363715,0.59861 -4.267309,0.89471 -5.692946,1.17542 -1.452077,0.20255 -2.467889,0.19163 -2.982217,0.0775 0.331871,-0.88243 0.669664,-1.78697 1.006067,-2.69122 z"
       clip-rule="evenodd" />
    <path
       style="fill:#ffc080;fill-rule:evenodd"
       inkscape:connector-curvature="0"
       id="path47"
       i:knockout="Off"
       d="m 55.856439,294.37547 c 0.26264,4.85542 0.761752,10.15458 1.344426,16.11449 0.666592,5.91198 1.293507,14.18248 2.255655,19.34511 0.879814,5.11621 1.817387,8.77902 2.942169,11.21265 l 1.944695,-2.74836 c -1.885352,-6.04966 -3.278933,-12.60592 -4.22296,-19.87225 -0.915103,-7.28094 -1.427585,-15.09435 -1.401197,-23.59255 -0.953311,-0.16068 -1.905395,-0.32102 -2.862785,-0.45909 z"
       clip-rule="evenodd" />
    <path
       style="fill:#ffc080;fill-rule:evenodd"
       inkscape:connector-curvature="0"
       id="path49"
       i:knockout="Off"
       d="m 65.20764,296.78635 c -0.210475,0.96233 -0.0775,4.26806 0.31099,9.89164 0.398589,5.67434 1.011949,13.46738 2.008725,23.80339 l 1.955809,-3.40874 c -1.167374,-7.49136 -1.898693,-13.51545 -2.105116,-18.40384 -0.244704,-4.92234 0.03058,-8.42536 0.802858,-10.77712 -0.992341,-0.36132 -1.986234,-0.72174 -2.973266,-1.10533 z"
       clip-rule="evenodd" />
    <path
       style="fill:#ffc080;fill-rule:evenodd"
       inkscape:connector-curvature="0"
       id="path51"
       i:knockout="Off"
       d="m 54.791988,322.30694 c 0.495396,-0.0805 2.396078,-0.54255 5.945357,-1.32167 3.572028,-0.86647 8.432253,-2.02876 15.065312,-3.61565 l -1.855111,3.03297 c -5.871374,1.22238 -10.463616,2.26628 -13.751361,3.04441 -3.332406,0.76549 -5.339274,1.27019 -6.132722,1.57877 0.242674,-0.90567 0.485677,-1.81258 0.728517,-2.71886 z"
       clip-rule="evenodd" />
    <path
       style="fill:#ffc080;fill-rule:evenodd"
       inkscape:connector-curvature="0"
       id="path53"
       i:knockout="Off"
       d="m 54.334079,331.70826 c 1.301845,-0.17238 3.186345,-0.66248 5.961374,-1.29303 2.742668,-0.68659 6.067367,-1.69109 10.283838,-2.83566 l -2.331575,3.30805 c -3.25425,0.73906 -6.045461,1.34158 -8.509441,1.9607 -2.452132,0.57492 -4.459,1.07962 -6.132706,1.57883 0.242838,-0.90629 0.485513,-1.81196 0.728517,-2.71886 z"
       clip-rule="evenodd" />
    <path
       style="fill:#ffc080;fill-rule:evenodd"
       inkscape:connector-curvature="0"
       id="path55"
       i:knockout="Off"
       d="m 73.824511,298.66879 c 0.105535,2.96603 0.155556,6.22517 0.305232,9.91314 0.104683,3.67655 0.266584,7.58166 0.414626,11.98058 l 2.499858,-4.73185 c -0.71242,-0.87794 -0.983231,-2.60826 -1.055069,-5.25793 -0.04812,-2.7381 0.227115,-6.24112 0.808949,-10.79984 -0.993453,-0.35965 -1.985788,-0.72097 -2.973596,-1.1041 z"
       clip-rule="evenodd" />
    <path
       style="fill-rule:evenodd;stroke:#000000;stroke-width:0.02288432;stroke-miterlimit:10"
       inkscape:connector-curvature="0"
       id="path57"
       stroke-miterlimit="10"
       i:knockout="Off"
       d="m 19.253111,283.76212 0.537398,5.33311 -0.515241,3.24918 0.768785,1.81703 -0.112369,7.66966 c -0.470658,1.57968 -0.679971,2.80294 -0.60425,3.58136 0.03151,0.76657 0.368579,1.18857 0.946472,1.15388 l -0.06054,6.23837 c -0.522689,0.71284 -0.803388,1.22992 -0.977902,1.70437 -0.17276,0.3795 -0.180435,0.49656 -0.07034,0.88144 0.05563,0.3229 0.276249,0.73738 0.573442,1.21977 l 0.18219,6.65878 c -0.72163,0.65953 -1.090582,1.15231 -1.154574,1.65637 -0.12438,0.4642 0.378102,0.62253 0.614904,1.06505 0.226543,0.39238 0.372179,0.64463 0.614904,1.06504 l -0.101146,5.68257 c -0.440937,0.14244 -0.776262,0.59818 -0.869702,1.21215 -0.121631,0.63079 0.09672,1.84951 0.218069,2.54605 0.09524,0.61715 0.233368,0.98585 0.390849,1.19389 l 0.37753,7.25601 c -0.302803,0.51116 -0.443366,0.94733 -0.557489,1.46166 -0.130303,0.4863 -0.138239,0.958 -0.02381,1.41511 0.08799,0.37896 0.373767,0.5503 0.703747,0.73348 l -0.57424,8.06712 c 0.04364,-0.60494 0.04364,-0.60494 0,0 -0.07567,0.54766 -0.520478,2.56138 -0.385953,3.47401 0.07413,0.87276 0.374077,1.52173 0.923517,1.85849 L 19.586,370.58428 c -0.848075,0.24724 -1.217026,0.74002 -1.107353,1.48016 0.08757,0.73421 0.659685,1.69368 1.693151,2.96498 l -0.559138,11.45906 c -0.492648,0.24707 -0.721628,0.65955 -0.734325,1.41427 -0.06716,0.69275 0.127752,1.64526 0.496331,2.83383 0.113386,-1.1305 0.229978,-0.15094 0.107122,2.8717 -0.07898,3.03572 -0.734812,11.6726 -0.660907,15.19876 -0.02894,3.37948 -0.126309,4.53862 0.576465,5.36661 0.663873,0.79386 1.051505,2.79306 3.455934,-0.51917 2.400454,-3.47914 7.641135,-14.37018 10.672354,-19.6704 2.920695,-5.32983 5.158333,-9.35079 6.826375,-12.12524 0.73755,-0.27686 1.358751,-0.91526 1.751987,-1.85232 0.416927,-1.02548 0.626239,-2.24875 0.699015,-3.93505 1.806732,-3.11766 3.085687,-5.23823 4.085267,-6.58143 0.916471,-1.38915 1.187411,-0.62949 1.59304,-1.35001 0.462297,-0.75272 0.722905,-1.72532 0.982351,-2.95884 2.467806,-3.81646 4.815828,-7.45115 6.933489,-11.19624 2.133871,-3.81052 4.852068,-9.26634 5.848712,-11.13154 0.959419,-1.89821 0.959419,-1.89821 0,0 0.402831,0.17902 0.964355,-0.23912 1.621517,-1.36542 0.630887,-1.20507 1.796161,-4.13924 2.292835,-5.2855 0.436117,-1.18553 0.548651,-1.60551 0.402591,-1.5025 l 2.313243,-3.85855 c 0.558607,-0.58409 1.351479,-1.5095 2.176802,-2.73289 0.855886,-1.33497 2.308926,-3.57473 2.94574,-4.8019 0.604445,-1.28323 0.805827,-2.03478 0.675208,-2.51992 l 11.272513,-19.69978 -1.657842,-0.44421 c -1.04971,1.35344 -2.413082,3.52379 -4.065909,6.42077 -1.696599,2.88591 -2.801238,5.14928 -5.961983,10.93535 -3.316256,5.74506 -8.098763,14.13042 -13.245088,23.43637 -5.251374,9.25346 -12.505949,23.06518 -17.454518,31.80748 -4.914948,8.70525 -8.185242,14.36719 -11.828893,20.09626 -3.741999,5.65401 -8.247956,13.80549 -9.970785,13.60381 -1.663764,-0.42211 -0.0067,-6.8717 -0.06537,-15.58289 -0.172128,-8.90679 -0.861664,-25.34332 -0.756726,-36.52199 0.07241,-11.23411 1.379163,-17.96775 1.384525,-29.8358 -0.07138,-11.93534 -0.552201,-25.2604 -1.566742,-40.83767 -0.48708,-0.12986 -0.995484,-0.26608 -1.503888,-0.40231 z"
       clip-rule="evenodd" />
    <path
       style="fill-rule:evenodd;stroke:#000000;stroke-width:0.02288432;stroke-miterlimit:10"
       inkscape:connector-curvature="0"
       id="path59"
       stroke-miterlimit="10"
       i:knockout="Off"
       d="m 21.132446,297.43822 4.165996,-2.46181 c -1.847996,-1.67976 -3.256653,-3.40763 -4.402965,-5.23039 -1.156407,-1.8735 -1.09173,-4.06014 -2.319361,-5.66777 -1.332084,-1.65998 -5.05702,-1.63999 -5.049871,-4.05395 0.05311,-2.49709 3.256091,-8.43834 5.385866,-10.63959 2.10175,-2.18506 4.752708,-1.37997 7.105428,-2.64489 2.31602,-1.39321 2.737398,-3.67315 6.570811,-5.51268 3.758429,-2.00176 8.730085,-6.49774 16.074838,-5.88014 7.372777,0.60142 21.633278,5.55971 27.779709,9.76533 6.040235,4.24824 7.198201,10.97894 8.518213,15.33651 1.283309,4.22929 0.916708,7.54265 -0.946648,10.07589 2.989068,2.8147 4.986615,5.1742 5.945246,7.25531 0.937488,1.9807 -0.497639,3.18348 -0.288978,4.96889 0.158531,1.79565 1.446829,3.0885 1.281776,5.6497 -0.201928,2.43351 -0.928112,7.61693 -2.56914,9.14361 -1.767751,1.46905 -4.445268,1.9125 -7.623868,-0.19486 -3.237408,-2.24158 -6.935305,-6.47817 -11.401104,-12.88627 -4.870546,3.76494 -8.558326,5.85671 -11.152796,6.60671 -2.580259,0.61101 -2.140978,-2.70591 -4.414097,-2.53383 -2.406525,0.13699 -6.101625,2.70064 -9.388233,3.38364 -3.351336,0.57089 -6.951631,-0.22797 -10.046383,0.26953 -3.110934,0.46947 -6.733249,3.28953 -8.115154,2.61125 -1.370057,-0.72248 -1.418799,-3.1047 -0.0815,-7.03455 -3.436466,-0.96818 -5.537136,-2.14704 -6.390003,-3.91551 -0.837013,-1.73923 -0.39062,-3.84728 1.362218,-6.41013 z"
       clip-rule="evenodd" />
    <path
       style="fill:#f0d4a8;fill-rule:evenodd;stroke:#000000;stroke-width:0.02288432;stroke-miterlimit:10"
       inkscape:connector-curvature="0"
       id="path61"
       stroke-miterlimit="10"
       i:knockout="Off"
       d="m 26.653265,294.6063 c -1.574072,-1.46421 -2.938352,-3.18084 -4.181755,-5.17176 -1.275603,-2.04759 -1.936336,-5.32889 -3.161234,-6.76995 -1.295383,-1.53168 -4.035561,-0.32385 -4.340314,-2.01587 -0.264552,-1.75366 1.202887,-6.16919 2.657256,-8.14866 1.360025,-1.98105 3.955471,-2.82555 5.623685,-3.6579 1.631514,-0.96065 2.478573,-0.49676 4.269581,-1.69897 1.776414,-1.32457 3.16648,-3.7714 6.261348,-5.59559 3.018292,-1.8921 7.619558,-4.82891 11.846404,-5.30736 4.220922,-0.45635 8.896405,1.10444 13.159411,2.43624 4.170251,1.23588 8.741869,3.36112 11.930616,4.90259 3.129323,1.4071 4.905013,1.40906 6.957635,3.83069 2.001883,2.43174 4.152342,7.58044 5.271932,10.65234 1.165391,2.98942 1.779021,5.12025 1.415288,7.27348 -0.474259,2.12362 -2.040736,4.16782 -4.207531,5.26933 -2.235837,0.91716 -7.851676,0.47853 -8.911792,0.80979 -1.028085,0.38855 0.415961,1.01174 2.564703,1.30386 2.073918,0.12925 7.429365,-1.11291 9.900935,-0.16635 2.426126,0.93437 3.983468,4.05251 4.698406,5.80772 0.621564,1.65912 -0.756543,2.73504 -0.665489,4.252 0.08238,1.3725 1.161056,2.91718 1.309321,4.66271 0.09222,1.77789 0.350766,4.26371 -0.478156,6.03104 -0.761355,1.69197 -2.172796,4.74907 -4.349744,4.11771 -2.312855,-0.73818 -6.815378,-5.6879 -9.283033,-8.14967 -2.52135,-2.52419 -4.189528,-4.70067 -5.398367,-6.72972 -5.069485,3.71165 -8.742504,5.92517 -11.263316,6.57711 -2.452134,0.57491 -0.978297,-2.89191 -3.590658,-2.6916 -2.75075,0.18625 -8.8573,3.17053 -12.406416,3.94902 -3.591736,0.67233 -6.224928,-0.19908 -8.699165,0.36991 -2.462558,0.52539 -5.125116,3.38874 -6.081109,2.8009 -1.042989,-0.70525 -0.996064,-2.82559 0.0286,-6.64968 -2.907543,-0.73169 -4.846396,-1.63027 -5.969705,-2.83153 -1.177939,-1.26263 -1.507643,-2.77314 -0.681726,-4.35239 0.859255,-1.61771 2.762185,-3.24007 5.774391,-5.10944 z"
       clip-rule="evenodd" />
    <path
       style="fill:#e0c699;fill-rule:evenodd"
       inkscape:connector-curvature="0"
       id="path63"
       i:knockout="Off"
       d="m 22.163973,278.0269 c 1.129116,2.50586 3.417276,8.37851 5.87558,11.4057 2.353539,2.9761 2.736173,5.969 8.478712,6.46528 5.828208,0.3534 20.803824,-2.22016 25.953088,-3.75383 5.000622,-1.59785 6.001589,-5.33352 4.10451,-5.4154 -1.963397,-0.0996 -10.41542,4.38776 -15.58134,4.92258 -5.274694,0.41023 -10.483402,0.83948 -15.463899,-2.05869 -4.94496,-3.03079 -11.87125,-13.34458 -14.085928,-15.33581 -2.194159,-1.89095 -0.440618,1.1139 0.719277,3.77017 z"
       clip-rule="evenodd" />
    <path
       style="fill:#e0c699;fill-rule:evenodd"
       inkscape:connector-curvature="0"
       id="path65"
       i:knockout="Off"
       d="m 31.844455,305.11788 c 1.708088,-0.89274 6.272425,-1.30444 8.195947,-1.14442 1.868889,0.0987 0.731071,2.39987 3.361791,1.77738 2.615803,-0.74361 10.078778,-5.165 12.337727,-5.81471 2.192801,-0.66811 -0.823004,1.74521 0.871798,1.96308 1.700888,0.19514 9.450409,-1.13998 9.132396,-0.75136 -0.421999,0.33707 -7.238914,1.37717 -11.303821,2.7519 -4.084811,1.27464 -9.878984,4.5078 -12.847032,5.06293 -3.004748,0.42685 -2.990089,-2.10356 -5.00504,-2.09922 -2.049064,0.0432 -6.295804,2.36431 -7.075388,2.17911 -0.781552,-0.35222 0.508675,-3.1338 2.331622,-3.92469 z"
       clip-rule="evenodd" />
    <path
       style="fill:#e0c699;fill-rule:evenodd"
       inkscape:connector-curvature="0"
       id="path67"
       i:knockout="Off"
       d="m 71.153859,283.525 c 1.73263,-1.69167 6.645138,-4.28448 8.634358,-4.10685 1.839436,0.20857 2.467973,3.43321 2.473357,5.09306 -0.04316,1.57577 -0.856071,3.37174 -2.875212,4.2759 -2.178213,0.79046 -8.11009,1.35696 -9.545484,0.5222 -1.332936,-0.94945 -0.413723,-4.11473 1.312981,-5.78431 z"
       clip-rule="evenodd" />
    <path
       style="fill-rule:evenodd;stroke:#000000;stroke-width:0.02288432;stroke-miterlimit:10"
       inkscape:connector-curvature="0"
       id="path69"
       stroke-miterlimit="10"
       i:knockout="Off"
       d="m 47.498495,276.40475 c -2.809065,-2.95602 -5.51163,-4.9832 -8.439266,-6.17042 -2.93948,-1.143 -6.078131,0.31408 -8.881812,-0.98207 -2.862482,-1.43036 -5.541356,-3.54597 -7.983625,-7.5172 -2.5291,-4.08925 -7.769947,-13.61976 -6.669562,-16.66542 1.12841,-3.06185 5.607503,-3.68594 13.502006,-1.76014 -1.905411,-4.20644 -1.060761,-7.88923 2.622796,-11.37994 3.701326,-3.55701 10.891489,-9.25911 19.224712,-9.32432 8.287424,0.0173 22.786744,4.9685 30.050667,9.07079 7.166836,3.93414 10.163081,10.61249 12.863705,14.77141 2.667651,4.10269 3.68381,7.3838 3.136277,9.86686 2.873464,0.15395 4.588527,0.82673 5.122097,2.1069 0.54542,1.23595 -0.17908,3.05561 -1.97295,5.41794 3.69441,3.45383 4.23886,6.72701 1.94122,9.99678 -2.424324,3.21214 -7.648663,6.2663 -16.053802,9.24999 -2.132183,-1.94543 -5.117036,-3.3612 -9.1077,-4.38311 -4.028951,-1.05587 -10.953716,-1.56092 -14.703671,-1.71282 -3.705744,-0.14006 -5.134532,0.68537 -7.549116,0.67806 -2.502642,-0.12568 -4.788509,-0.52495 -7.101976,-1.26329 z"
       clip-rule="evenodd" />
    <path
       style="fill:#ffabbc;fill-rule:evenodd;stroke:#000000;stroke-width:0.02288432;stroke-miterlimit:10"
       inkscape:connector-curvature="0"
       id="path71"
       stroke-miterlimit="10"
       i:knockout="Off"
       d="m 30.764135,244.60437 c -1.856357,-0.85278 -3.869459,-1.29742 -5.950887,-1.31023 -2.218391,-0.12059 -5.398389,0.16453 -6.684903,1.07546 -1.24664,0.85054 -1.793757,1.03563 -0.633128,4.30807 1.182735,3.27836 4.714871,11.75873 7.511663,15.1142 2.709961,3.23744 6.06637,3.35497 8.619814,4.34715 2.472537,0.85205 3.736945,-0.0648 6.197212,1.1867 2.450008,1.20139 5.742933,5.09255 8.503992,6.28253 2.658044,1.04389 4.769512,0.59093 7.733961,0.57973 2.976294,-0.0554 6.237075,-0.8164 10.13956,-0.52886 3.870737,0.23164 9.63929,1.16135 13.056396,2.29018 3.356724,1.08896 5.674652,2.51556 7.043433,4.30382 5.0281,-1.87478 8.835066,-3.79246 11.533026,-5.81778 2.739066,-2.08536 4.250456,-4.19169 4.512346,-6.23007 0.18965,-2.03405 -0.95333,-4.04611 -3.364208,-5.92406 0.897733,-1.22833 1.465058,-2.28459 1.637248,-3.28089 0.18403,-1.04049 0.17505,-2.15641 -0.54213,-2.75133 -0.743004,-0.67292 -2.87274,-1.48049 -3.942118,-0.93784 -1.135698,0.52491 -1.654588,2.99194 -2.795467,4.15513 -1.249814,1.03922 -4.349439,3.14644 -4.108194,2.33449 0.254684,-0.9505 4.767644,-5.2377 5.763742,-7.36365 0.917934,-2.09951 1.288832,-2.33181 0.02098,-5.20653 -1.335695,-3.05874 -4.236308,-8.85857 -7.479532,-12.40474 -3.227033,-3.51815 -5.8893,-5.96098 -11.608773,-8.48856 -5.872613,-2.66337 -15.552285,-7.0339 -22.64289,-6.92004 -7.0685,0.11979 -15.392968,3.9543 -19.184298,7.58197 -3.817158,3.54967 -4.818978,7.99587 -3.336842,13.60515 z"
       clip-rule="evenodd" />
    <path
       style="fill:#edbac4;fill-rule:evenodd"
       inkscape:connector-curvature="0"
       id="path73"
       i:knockout="Off"
       d="m 48.46044,272.01894 c -2.228534,-1.49741 -7.496786,-9.06885 -9.547323,-10.25797 -2.10067,-1.17885 -1.211331,3.37132 -2.763412,3.23974 -1.610884,-0.26579 -4.406629,-2.03364 -6.532038,-4.7117 -2.140005,-2.80043 -6.254793,-10.96307 -5.934221,-11.54055 0.364784,-0.56561 5.975597,7.76097 7.929895,8.07141 1.835104,0.13634 -0.157532,-8.78441 3.230273,-6.57362 3.386221,2.30514 14.652287,16.31678 17.009311,20.07563 2.255599,3.51846 -1.252366,3.17079 -3.392485,1.69706 z"
       clip-rule="evenodd" />
    <path
       style="fill:#edbac4;fill-rule:evenodd"
       inkscape:connector-curvature="0"
       id="path75"
       i:knockout="Off"
       d="m 68.366631,237.69306 c 2.200309,-0.78454 9.680871,-0.32009 13.405854,0.98601 3.608534,1.29859 6.473664,4.22223 8.413555,6.70842 1.881105,2.352 3.402181,4.98657 3.079054,7.6956 -0.361413,2.67507 -4.27352,6.223 -5.204887,8.46106 -0.95781,2.15989 2.43645,2.66663 -0.47565,4.5161 -2.993016,1.70934 -16.325188,6.90288 -17.083403,6.10742 -0.76316,-0.86784 11.111687,-8.48935 12.684508,-10.91092 1.484411,-2.44524 -4.18717,-1.88008 -3.459932,-3.53316 0.700801,-1.73123 7.732403,-4.27745 7.772089,-6.63598 -0.04126,-2.49866 -4.380035,-6.29102 -7.532439,-7.60952 -3.164864,-1.27448 -9.137355,0.67894 -11.088657,-0.17559 -1.974943,-1.02672 -2.660265,-4.83516 -0.510092,-5.60944 z"
       clip-rule="evenodd" />
    <path
       style="fill:#edbac4;fill-rule:evenodd"
       inkscape:connector-curvature="0"
       id="path77"
       i:knockout="Off"
       d="m 96.735763,264.8875 c 1.572166,0.5871 4.243737,5.11728 3.302107,7.30522 -1.100705,2.07422 -6.1468,4.726 -9.268419,5.5006 -3.10977,0.73038 -7.955431,-0.28372 -8.97023,-1.00576 -1.001367,-0.86061 0.977593,-2.67582 3.03935,-3.4738 2.011017,-0.78788 8.068396,-0.49153 9.040681,-1.20236 0.863356,-0.83479 -3.824587,-2.35153 -3.371515,-3.50947 0.498872,-1.24044 4.545329,-4.23116 6.228026,-3.61443 z"
       clip-rule="evenodd" />
    <path
       style="fill:#edbac4;fill-rule:evenodd"
       inkscape:connector-curvature="0"
       id="path79"
       i:knockout="Off"
       d="m 50.979496,241.39732 c -3.060803,0.4592 -13.733849,3.33274 -12.926242,3.50174 0.91972,0.10429 15.74769,-2.27191 17.999294,-2.80579 2.086611,-0.62547 -2.066719,-1.21714 -5.073054,-0.69596 z"
       clip-rule="evenodd" />
    <path
       style="fill:#edbac4;fill-rule:evenodd"
       inkscape:connector-curvature="0"
       id="path81"
       i:knockout="Off"
       d="m 60.038229,246.05161 c -2.735157,0.57016 -11.816678,3.87013 -11.047353,4.00521 0.832888,-0.0137 14.054735,-2.93878 15.986617,-3.6057 1.816051,-0.67428 -2.32489,-1.04941 -4.939264,-0.39951 z"
       clip-rule="evenodd" />
    <path
       style="fill:#edbac4;fill-rule:evenodd"
       inkscape:connector-curvature="0"
       id="path83"
       i:knockout="Off"
       d="m 70.132888,251.52838 c -2.054866,0.68137 -10.014352,6.2484 -9.706288,6.78108 0.427072,0.35135 10.002405,-2.93477 11.73143,-4.0825 1.52948,-1.20121 -0.02161,-3.37001 -2.025142,-2.69858 z"
       clip-rule="evenodd" />
    <path
       style="fill-rule:evenodd;stroke:#000000;stroke-width:0.02288432;stroke-miterlimit:10"
       inkscape:connector-curvature="0"
       id="path85"
       stroke-miterlimit="10"
       i:knockout="Off"
       d="m 55.435209,241.83309 c -2.7767,-2.89995 -5.561761,-4.97293 -8.467292,-6.15422 -2.915788,-1.23142 -6.0959,0.38039 -8.875888,-1.00417 -2.884589,-1.43629 -5.497149,-3.53413 -7.961521,-7.51128 -2.506996,-4.08333 -7.814156,-13.6316 -6.691668,-16.67135 1.150516,-3.05593 5.585399,-3.69186 13.524111,-1.75422 -1.905411,-4.20644 -1.060761,-7.88923 2.622796,-11.37994 3.695403,-3.53491 10.909255,-9.32542 19.230633,-9.34642 8.293349,-0.005 22.774899,5.0127 30.044747,9.0929 7.166836,3.93413 10.163075,10.61249 12.863093,14.77123 2.66826,4.10286 3.6838,7.3838 3.13689,9.86703 2.87285,0.1538 4.58791,0.82656 5.12147,2.10674 0.54543,1.23596 -0.15635,3.06171 -1.99443,5.41217 3.67169,3.44776 4.30455,6.74462 1.96334,10.00272 -2.42434,3.21214 -7.64929,6.26613 -16.053822,9.24999 -2.176388,-1.95728 -5.139743,-3.36729 -9.129797,-4.38904 -4.028957,-1.05586 -10.975824,-1.56684 -14.681572,-1.7069 -3.728463,-0.14614 -5.090933,0.69705 -7.527619,0.68382 -2.502033,-0.12551 -4.787899,-0.52478 -7.123471,-1.26906 z"
       clip-rule="evenodd" />
    <path
       style="fill:#a16121;fill-rule:evenodd;stroke:#000000;stroke-width:0.02288432;stroke-miterlimit:10"
       inkscape:connector-curvature="0"
       id="path87"
       stroke-miterlimit="10"
       i:knockout="Off"
       d="m 38.722955,210.03865 c -1.922671,-0.87055 -3.82525,-1.28558 -5.972992,-1.31616 -2.230237,-0.0764 -5.404311,0.18664 -6.690825,1.09757 -1.228873,0.78423 -1.805603,1.07984 -0.627205,4.28597 1.182734,3.27835 4.71487,11.75872 7.511663,15.11419 2.709961,3.23744 6.066368,3.35496 8.619814,4.34716 2.394377,0.87847 3.781155,-0.053 6.191289,1.2088 2.500139,1.19113 5.742932,5.09255 8.532018,6.26634 2.680146,1.04982 4.725306,0.57908 7.711859,0.57381 2.976288,-0.0554 6.237075,-0.81639 10.139558,-0.52886 3.89284,0.23757 9.59508,1.1495 13.033678,2.28409 3.334615,1.08304 5.72009,2.52774 7.066152,4.30992 5.083537,-1.90731 8.840376,-3.81474 11.561056,-5.83396 2.6877,-2.07544 4.23427,-4.21973 4.48431,-6.2139 0.17347,-2.06207 -0.92689,-3.96794 -3.34209,-5.91813 0.86378,-1.19005 1.39281,-2.28026 1.58711,-3.27062 0.18341,-1.04068 0.19715,-2.1505 -0.49792,-2.7395 -0.7377,-0.69519 -2.83349,-1.54105 -3.95238,-0.98796 -1.12977,0.50279 -1.66643,3.03614 -2.80139,4.17722 -1.25043,1.03906 -4.349444,3.14644 -4.108193,2.3345 0.25469,-0.95051 4.767033,-5.23787 5.763743,-7.36365 0.99548,-2.12612 1.23216,-2.29961 0.0371,-5.1785 -1.29802,-3.02496 -4.312879,-8.92648 -7.51781,-12.4387 -3.227039,-3.51814 -5.889306,-5.96098 -11.608773,-8.48856 -5.823101,-2.6738 -15.570056,-6.96759 -22.626714,-6.89201 -7.068499,0.11979 -15.392966,3.9543 -19.184296,7.58197 -3.728739,3.57336 -4.891215,8.0002 -3.308814,13.58897 z"
       clip-rule="evenodd" />
    <path
       style="fill:#804000;fill-rule:evenodd"
       inkscape:connector-curvature="0"
       id="path89"
       i:knockout="Off"
       d="m 56.397156,237.4473 c -2.228536,-1.49742 -7.496786,-9.06886 -9.547323,-10.25797 -2.100671,-1.17885 -1.211333,3.37131 -2.763412,3.23973 -1.610884,-0.26578 -4.406631,-2.03365 -6.53204,-4.71171 -2.140003,-2.80041 -6.254792,-10.96306 -5.934219,-11.54053 0.364783,-0.56562 5.975598,7.76097 7.929895,8.0714 1.835104,0.13634 -0.157533,-8.78441 3.230273,-6.57361 3.386221,2.30514 14.652287,16.31677 17.009312,20.07563 2.255597,3.51845 -1.252368,3.17078 -3.392486,1.69706 z"
       clip-rule="evenodd" />
    <path
       style="fill:#804000;fill-rule:evenodd"
       inkscape:connector-curvature="0"
       id="path91"
       i:knockout="Off"
       d="m 76.303964,203.12158 c 2.199699,-0.78471 9.680864,-0.32009 13.405231,0.98584 3.608546,1.29859 6.473664,4.22223 8.414184,6.70859 1.880481,2.35182 3.407481,4.9643 3.073121,7.71771 -0.36142,2.67507 -4.279442,6.24509 -5.198966,8.43894 -0.957811,2.15991 2.436462,2.66663 -0.475651,4.51611 -2.993632,1.70916 -16.325181,6.90288 -17.084013,6.10726 -0.76255,-0.86769 11.112298,-8.4892 12.684514,-10.91092 1.461323,-2.35666 -4.175327,-1.92429 -3.46524,-3.5109 0.69426,-1.7093 7.750165,-4.34376 7.777391,-6.65824 -0.05308,-2.45447 -4.379424,-6.29086 -7.538364,-7.58743 -3.158939,-1.29657 -9.142662,0.70122 -11.082128,-0.19753 -1.975547,-1.02687 -2.660258,-4.83515 -0.510079,-5.60943 z"
       clip-rule="evenodd" />
    <path
       style="fill:#804000;fill-rule:evenodd"
       inkscape:connector-curvature="0"
       id="path93"
       i:knockout="Off"
       d="m 104.67248,230.31584 c 1.56032,0.63133 4.2615,5.05099 3.30211,7.30522 -1.1007,2.07423 -6.14681,4.72602 -9.269046,5.50044 -3.109764,0.73038 -7.954808,-0.28354 -8.969607,-1.00559 -0.979875,-0.85485 0.932766,-2.68783 3.017248,-3.47971 2.033119,-0.78195 8.068385,-0.49154 9.062175,-1.19661 0.86989,-0.85673 -3.835828,-2.30715 -3.377436,-3.48737 0.492941,-1.21833 4.558396,-4.27503 6.234556,-3.63638 z"
       clip-rule="evenodd" />
    <path
       style="fill:#804000;fill-rule:evenodd"
       inkscape:connector-curvature="0"
       id="path95"
       i:knockout="Off"
       d="m 58.916827,206.82584 c -3.060804,0.45921 -13.733851,3.33274 -12.926242,3.50175 0.919721,0.10429 15.74769,-2.27191 17.999292,-2.80579 2.086004,-0.62564 -2.067331,-1.21731 -5.07305,-0.69596 z"
       clip-rule="evenodd" />
    <path
       style="fill:#804000;fill-rule:evenodd"
       inkscape:connector-curvature="0"
       id="path97"
       i:knockout="Off"
       d="m 67.974941,211.47996 c -2.779365,0.55832 -11.838776,3.86422 -11.069457,3.99928 0.877098,-0.002 14.076838,-2.93284 16.008727,-3.59977 1.815432,-0.67445 -2.324895,-1.0494 -4.93927,-0.39951 z"
       clip-rule="evenodd" />
    <path
       style="fill:#804000;fill-rule:evenodd"
       inkscape:connector-curvature="0"
       id="path99"
       i:knockout="Off"
       d="m 78.063069,216.97868 c -2.060174,0.70363 -10.001899,6.20435 -9.700366,6.75898 0.338656,0.32765 10.046613,-2.92294 11.709934,-4.08828 1.607643,-1.22764 -0.07769,-3.33763 -2.009568,-2.6707 z"
       clip-rule="evenodd" />
    <path
       style="fill-rule:evenodd;stroke:#000000;stroke-width:0.02288432;stroke-miterlimit:10"
       inkscape:connector-curvature="0"
       id="path101"
       stroke-miterlimit="10"
       i:knockout="Off"
       d="m 64.34348,205.93444 c -2.809064,-2.95601 -5.51163,-4.98319 -8.439267,-6.17041 -2.939483,-1.143 -6.078132,0.31408 -8.881812,-0.98207 -2.878664,-1.45839 -5.497147,-3.53412 -7.955598,-7.53338 -2.501073,-4.10544 -7.826001,-13.58739 -6.697591,-16.64924 1.150516,-3.05593 5.585404,-3.69186 13.524109,-1.75422 -1.883301,-4.20052 -1.038656,-7.88331 2.622799,-11.37994 3.729354,-3.5732 10.825173,-9.27688 19.20853,-9.35234 8.287424,0.0173 22.786742,4.96849 30.050665,9.07079 7.154985,3.97834 10.135045,10.62867 12.879275,14.79926 2.66234,4.12496 3.69566,7.33959 3.1428,9.84492 2.9009,0.13762 4.53188,0.85894 5.09347,2.12292 0.5448,1.23579 -0.17908,3.05561 -1.97356,5.41778 3.62217,3.45817 4.29552,6.69481 1.94776,9.97485 -2.40223,3.21805 -7.66546,6.2381 -16.03763,9.27801 -2.17639,-1.95727 -5.139749,-3.36729 -9.129803,-4.38904 -4.02895,-1.05586 -10.975818,-1.56685 -14.681572,-1.7069 -3.705741,-0.14005 -5.13514,0.68521 -7.549723,0.6779 -2.501415,-0.12535 -4.78728,-0.52462 -7.122852,-1.26889 z"
       clip-rule="evenodd" />
    <path
       style="fill:#80ff80;fill-rule:evenodd;stroke:#000000;stroke-width:0.02288432;stroke-miterlimit:10"
       inkscape:connector-curvature="0"
       id="path103"
       stroke-miterlimit="10"
       i:knockout="Off"
       d="m 47.631222,174.13999 c -1.856359,-0.85278 -3.869459,-1.29742 -5.950888,-1.31023 -2.196287,-0.11466 -5.442595,0.15269 -6.707005,1.06954 -1.246641,0.85055 -1.793758,1.03563 -0.633128,4.30807 1.19458,3.23415 4.720793,11.73662 7.517585,15.09209 2.715885,3.21534 6.054525,3.39918 8.613891,4.36926 2.41807,0.79006 3.763387,0.0134 6.197211,1.1867 2.494214,1.21323 5.742937,5.09256 8.526096,6.28844 2.658047,1.04391 4.769514,0.59093 7.733962,0.57974 2.998399,-0.0495 6.192256,-0.82841 10.117458,-0.53479 3.870738,0.23165 9.639285,1.16135 13.055787,2.29002 3.356711,1.08896 5.675259,2.51573 7.044039,4.30399 5.08354,-1.90731 8.84038,-3.81473 11.56106,-5.83396 2.73251,-2.06343 4.25637,-4.21381 4.50579,-6.20814 0.19619,-2.05599 -0.97109,-3.97979 -3.36357,-5.92389 0.91967,-1.22179 1.42083,-2.29643 1.61513,-3.2868 0.20614,-1.03458 0.15294,-2.16234 -0.52002,-2.74542 -0.74955,-0.65098 -2.8609,-1.52471 -3.9362,-0.95994 -1.17398,0.49095 -1.68854,3.03023 -2.8235,4.17131 -1.27252,1.03313 -4.30523,3.15828 -4.08608,2.34041 0.25469,-0.95049 4.76703,-5.23786 5.76374,-7.36365 0.91794,-2.09951 1.28822,-2.33197 0.021,-5.20653 -1.3142,-3.05298 -4.28053,-8.87042 -7.50164,-12.41067 -3.20334,-3.60656 -5.901151,-5.91677 -11.602844,-8.51065 -5.867306,-2.68565 -15.570673,-6.96776 -22.64943,-6.89811 -7.0464,0.12571 -15.370867,3.96023 -19.162196,7.5879 -3.81654,3.54983 -4.818364,7.99603 -3.336228,13.60531 z"
       clip-rule="evenodd" />
    <path
       style="fill:#00c200;fill-rule:evenodd"
       inkscape:connector-curvature="0"
       id="path105"
       i:knockout="Off"
       d="m 65.305422,201.54864 c -2.234454,-1.47531 -7.484936,-9.11306 -9.541396,-10.28007 -2.09475,-1.20096 -1.229107,3.43763 -2.769339,3.26184 -1.63299,-0.27172 -4.368342,-1.9997 -6.504012,-4.72789 -2.151847,-2.75621 -6.238607,-10.93504 -5.962246,-11.52436 0.298467,-0.58339 6.019809,7.77282 7.929897,8.0714 1.8351,0.13634 -0.157532,-8.78441 3.230274,-6.57361 3.386221,2.30514 14.652284,16.31677 17.009307,20.07563 2.2556,3.51845 -1.25237,3.17078 -3.392485,1.69706 z"
       clip-rule="evenodd" />
    <path
       style="fill:#00c200;fill-rule:evenodd"
       inkscape:connector-curvature="0"
       id="path107"
       i:knockout="Off"
       d="m 85.240261,167.20674 c 2.199699,-0.78471 9.686172,-0.34236 13.399306,1.00795 3.630653,1.30451 6.429453,4.21038 8.391463,6.70251 1.9253,2.36382 3.40156,4.98639 3.10115,7.70151 -0.36141,2.67508 -4.27352,6.223 -5.2049,8.46106 -0.95779,2.15989 2.43647,2.66663 -0.47563,4.5161 -3.03784,1.69732 -16.325193,6.90288 -17.106126,6.10134 -0.717729,-0.85568 11.134406,-8.48328 12.706616,-10.905 1.4844,-2.44524 -4.18717,-1.88008 -3.459315,-3.53299 0.700184,-1.73141 7.732405,-4.27746 7.771465,-6.63615 0.0251,-2.4809 -4.423628,-6.3027 -7.532445,-7.60953 -3.175111,-1.3246 -9.155109,0.74526 -11.110142,-0.18135 -1.991121,-1.05473 -2.610129,-4.84541 -0.481442,-5.62545 z"
       clip-rule="evenodd" />
    <path
       style="fill:#00c200;fill-rule:evenodd"
       inkscape:connector-curvature="0"
       id="path109"
       i:knockout="Off"
       d="m 113.58074,194.41719 c 1.56626,0.60921 4.25558,5.07309 3.30803,7.28311 -1.06833,2.13029 -6.15271,4.74812 -9.25285,5.52847 -3.1599,0.74065 -7.942968,-0.32775 -8.985801,-1.03362 -1.013203,-0.8164 0.9776,-2.67581 3.032821,-3.45185 2.01163,-0.78772 8.06901,-0.49138 9.04068,-1.20237 0.90818,-0.82278 -3.80125,-2.34527 -3.3494,-3.50355 0.54308,-1.22859 4.50234,-4.24267 6.20652,-3.62019 z"
       clip-rule="evenodd" />
    <path
       style="fill:#00c200;fill-rule:evenodd"
       inkscape:connector-curvature="0"
       id="path111"
       i:knockout="Off"
       d="m 67.852503,170.91084 c -3.054877,0.4371 -13.745694,3.37695 -12.93216,3.52386 0.919722,0.10429 15.747689,-2.27192 17.999296,-2.8058 2.080694,-0.60337 -2.048948,-1.28345 -5.067129,-0.71806 z"
       clip-rule="evenodd" />
    <path
       style="fill:#00c200;fill-rule:evenodd"
       inkscape:connector-curvature="0"
       id="path113"
       i:knockout="Off"
       d="m 76.883211,175.58131 c -2.729242,0.54805 -11.834442,3.93645 -11.047353,4.0052 0.883026,-0.024 14.076837,-2.93284 16.014643,-3.62188 1.815439,-0.67445 -2.296861,-1.06559 -4.96729,-0.38332 z"
       clip-rule="evenodd" />
    <path
       style="fill:#00c200;fill-rule:evenodd"
       inkscape:connector-curvature="0"
       id="path115"
       i:knockout="Off"
       d="m 86.99936,181.06384 c -2.054256,0.68153 -10.013735,6.24856 -9.706285,6.78108 0.332732,0.34976 10.058456,-2.96713 11.714632,-4.1107 1.608864,-1.22732 -0.07646,-3.33731 -2.008347,-2.67038 z"
       clip-rule="evenodd" />
  </g>
</svg>
