<?xml version="1.0" encoding="UTF-8" standalone="no"?>
<!-- Created with Inkscape (http://www.inkscape.org/) -->

<svg
   xmlns:dc="http://purl.org/dc/elements/1.1/"
   xmlns:cc="http://creativecommons.org/ns#"
   xmlns:rdf="http://www.w3.org/1999/02/22-rdf-syntax-ns#"
   xmlns:svg="http://www.w3.org/2000/svg"
   xmlns="http://www.w3.org/2000/svg"
   xmlns:xlink="http://www.w3.org/1999/xlink"
   xmlns:sodipodi="http://sodipodi.sourceforge.net/DTD/sodipodi-0.dtd"
   xmlns:inkscape="http://www.inkscape.org/namespaces/inkscape"
   height="579.28156"
   id="svg3058"
   inkscape:version="0.48.2 r9819"
   sodipodi:docname="Ladybug.svg"
   sodipodi:version="0.32"
   width="618.28796"
   inkscape:output_extension="org.inkscape.output.svg.inkscape"
   version="1.0">
  <metadata
     id="metadata3">
    <rdf:RDF>
      <cc:Work
         rdf:about="">
        <dc:title>ladybug</dc:title>
        <dc:description>A ladybug</dc:description>
        <dc:subject>
          <rdf:Bag>
            <rdf:li />
            <rdf:li>beatle</rdf:li>
            <rdf:li>insect</rdf:li>
            <rdf:li>animal</rdf:li>
            <rdf:li>ladybug</rdf:li>
          </rdf:Bag>
        </dc:subject>
        <dc:publisher>
          <cc:Agent
             rdf:about="http://www.openclipart.org">
            <dc:title>Andreas Nilsson</dc:title>
          </cc:Agent>
        </dc:publisher>
        <dc:creator>
          <cc:Agent>
            <dc:title>Andreas Nilsson</dc:title>
          </cc:Agent>
        </dc:creator>
        <dc:rights>
          <cc:Agent>
            <dc:title>Andreas Nilsson</dc:title>
          </cc:Agent>
        </dc:rights>
        <dc:date />
        <dc:format>image/svg+xml</dc:format>
        <dc:type
           rdf:resource="http://purl.org/dc/dcmitype/StillImage" />
        <cc:license
           rdf:resource="http://web.resource.org/cc/PublicDomain" />
        <dc:language>en</dc:language>
      </cc:Work>
      <cc:License
         rdf:about="http://web.resource.org/cc/PublicDomain">
        <cc:permits
           rdf:resource="http://web.resource.org/cc/Reproduction" />
        <cc:permits
           rdf:resource="http://web.resource.org/cc/Distribution" />
        <cc:permits
           rdf:resource="http://web.resource.org/cc/DerivativeWorks" />
      </cc:License>
    </rdf:RDF>
  </metadata>
  <defs
     id="defs3060">
    <inkscape:perspective
       sodipodi:type="inkscape:persp3d"
       inkscape:vp_x="0 : 526.18109 : 1"
       inkscape:vp_y="0 : 1000 : 0"
       inkscape:vp_z="744.09448 : 526.18109 : 1"
       inkscape:persp3d-origin="372.04724 : 350.78739 : 1"
       id="perspective39" />
    <linearGradient
       id="linearGradient877">
      <stop
         id="stop878"
         offset="0.0000000"
         style="stop-color:#ededed;stop-opacity:1.0000000;" />
      <stop
         id="stop881"
         offset="0.33916029"
         style="stop-color:#ce3d3d;stop-opacity:1.0000000;" />
      <stop
         id="stop879"
         offset="1.0000000"
         style="stop-color:#650000;stop-opacity:1.0000000;" />
    </linearGradient>
    <radialGradient
       cx="241.70901"
       cy="318.12914"
       fx="175.75905"
       fy="271.26106"
       id="radialGradient880"
       r="102.19911"
       xlink:href="#linearGradient877"
       gradientTransform="scale(0.8874119,1.1268724)"
       gradientUnits="userSpaceOnUse" />
    <linearGradient
       id="linearGradient984">
      <stop
         id="stop985"
         offset="0.0000000"
         style="stop-color:#ededed;stop-opacity:0.60483873;" />
      <stop
         id="stop987"
         offset="1.0000000"
         style="stop-color:#000000;stop-opacity:0.0000000;" />
    </linearGradient>
    <linearGradient
       id="linearGradient1142"
       x1="838.06275"
       x2="850.77528"
       xlink:href="#linearGradient984"
       y1="540.85453"
       y2="554.90984"
       gradientTransform="scale(0.6828226,1.4645093)"
       gradientUnits="userSpaceOnUse" />
    <linearGradient
       inkscape:collect="always"
       xlink:href="#linearGradient984"
       id="linearGradient3018"
       gradientUnits="userSpaceOnUse"
       gradientTransform="matrix(2.3747327,0,0,5.0932968,-1863.6994,-2409.0254)"
       x1="838.06275"
       y1="540.85453"
       x2="850.77528"
       y2="554.90984" />
  </defs>
  <sodipodi:namedview
     bordercolor="#666666"
     borderopacity="1.0"
     id="base"
     inkscape:cx="99.253701"
     inkscape:cy="278.59507"
     inkscape:pageopacity="0.0"
     inkscape:pageshadow="2"
     inkscape:window-height="719"
     inkscape:window-width="768"
     inkscape:window-x="238"
     inkscape:window-y="7"
     inkscape:zoom="0.86831672"
     pagecolor="#ffffff"
     showgrid="false"
     inkscape:current-layer="svg3058"
     inkscape:window-maximized="0" />
  <path
     inkscape:connector-curvature="0"
     style="fill-opacity:0.15322577;fill-rule:evenodd;stroke-width:4.55000019"
     id="path3033"
     d="m 146.88982,30.510555 c -6.96746,0.309178 -12.50651,5.89052 -12.75003,12.860589 -0.24344,6.970103 4.89041,12.987598 11.81933,13.782105 2.69858,0.361728 7.97231,3.221747 13.56401,9.185996 5.59161,5.964214 11.28302,14.344086 16.1503,22.823702 8.42338,14.674963 13.5294,27.233573 14.97009,30.881733 -15.17383,12.94246 -29.31352,27.93575 -42.22767,44.64451 -1.2831,-1.0062 -19.0815,-14.93622 -41.64422,-28.13332 -11.693159,-6.83944 -24.447187,-13.40706 -37.140527,-17.69211 -9.520005,-3.21389 -19.167646,-5.58374 -28.814731,-4.48162 -3.21566,0.36732 -6.426381,1.17828 -9.630078,2.4079 -4.71606,1.51003 -8.201634,5.47652 -9.07474,10.35082 -0.873071,4.87437 1.007872,9.85137 4.90661,12.90441 3.898773,3.0531 9.167042,3.70853 13.689909,1.69234 2.56736,-0.98541 10.430776,-0.89857 20.331533,2.44383 9.900756,3.34232 21.522894,9.20449 32.264065,15.4871 21.482379,12.56525 39.529889,26.65403 39.529889,26.65403 0.0536,0.0483 0.14815,0.0139 0.20241,0.0612 -1.23657,1.91642 -2.58583,3.7012 -3.78835,5.65615 -8.70109,14.14519 -16.01849,28.69245 -22.13388,43.34982 -1.81786,-0.74675 -3.76498,-1.23852 -5.84907,-1.10803 -0.76292,0.0456 -1.520567,0.15581 -2.264611,0.33039 0,0 -32.200004,6.75486 -60.133804,26.01599 -13.966917,9.63081 -27.395398,22.77383 -34.2441259,40.74424 -6.8487278,17.97048 -6.1101088,40.19189 5.5269489,64.04767 3.250577,6.65032 11.309238,9.37168 17.959417,6.12127 6.650144,-3.25068 9.373589,-11.2427 6.123011,-17.89274 -9.151008,-18.75935 -8.793175,-31.80858 -4.601605,-42.80666 4.191501,-10.99811 13.279492,-20.54604 24.426942,-28.23264 17.332784,-11.95139 34.62839,-17.24956 43.125326,-19.59094 -28.151129,92.09276 -7.000952,185.43361 57.780051,233.12917 -0.0313,-0.0139 0.91787,0.83711 0.82417,0.77959 0.51507,0.34221 1.04662,0.55808 1.56304,0.89254 2.70365,1.91333 5.26701,3.97289 8.11761,5.72627 69.07885,42.49215 161.40118,24.91679 233.12249,-36.37927 1.16454,10.18931 1.9185,22.9825 0.18884,35.63981 -1.83319,13.416 -6.29321,25.86846 -14.2192,34.56958 -7.92594,8.70109 -19.36866,14.87094 -40.23905,15.16336 -7.38434,0.0946 -13.29378,6.15755 -13.19915,13.54196 0.0946,7.38438 6.15751,13.29386 13.54186,13.19905 26.54031,-0.37178 46.70622,-9.71236 59.65689,-23.92947 12.95059,-14.21691 18.61158,-32.12412 20.90847,-48.93349 4.19101,-30.67029 -2.05213,-56.96722 -3.25844,-61.83676 12.91122,-13.78864 24.9177,-29.0268 35.57293,-45.86386 4.34536,2.08189 20.09619,9.69838 38.31571,21.47128 10.45147,6.75386 20.9124,14.48588 28.36067,21.81545 7.4482,7.3294 11.09559,14.26872 11.37389,17.00448 0.74001,7.348 7.29653,12.70471 14.64447,11.96484 7.34789,-0.74008 12.70471,-7.2966 11.9647,-14.64464 -1.38918,-13.65572 -9.7035,-23.97399 -19.25254,-33.37064 -9.54901,-9.39668 -21.15773,-17.89156 -32.53548,-25.24342 -18.37995,-11.87679 -33.25715,-19.29417 -39.47591,-22.30878 14.25349,-27.44545 23.715,-55.78761 28.76639,-83.79392 1.34668,0.26049 2.62544,0.72672 4.02808,0.55669 0,2.5e-4 18.75531,-1.73901 39.24098,-0.55666 10.24287,0.59116 20.85283,1.96587 29.07832,4.3406 8.22546,2.37476 13.37207,5.92936 14.80201,8.01446 2.66453,4.03089 7.31709,6.29617 12.1364,5.94894 4.81928,-0.34743 9.09665,-3.29579 11.15569,-7.66702 2.05908,-4.37096 1.55869,-9.47045 -1.24238,-13.40748 -7.14667,-10.42135 -18.19928,-15.31912 -29.47426,-18.57412 -11.27502,-3.2551 -23.4542,-4.65287 -34.92366,-5.3148 -11.46942,-0.6619 -22.27059,-0.55916 -30.23451,-0.22884 -6.74506,0.27996 -9.79942,0.59276 -11.08176,0.70954 C 509.17788,191.32079 482.98313,123.23583 427.5955,86.7018 l 0.25597,-0.4084 -8.30131,-5.119175 -0.25631,0.408366 C 357.70896,46.344991 278.84825,57.047002 212.50901,103.11835 209.41028,95.958082 205.01077,86.503808 198.91085,75.876709 193.4031,66.2812 186.83493,56.355473 179.00886,48.00784 c -7.8261,-8.347598 -17.17562,-15.716538 -29.50765,-17.369475 -0.86427,-0.127984 -1.73905,-0.170761 -2.61174,-0.127984 z" />
  <path
     inkscape:connector-curvature="0"
     style="fill-opacity:0.15322577;fill-rule:evenodd;stroke-width:4.55000019"
     id="path3034"
     d="m 146.63768,21.275349 c -6.9675,0.309178 -12.50651,5.890554 -12.75003,12.860623 -0.24345,6.970104 4.8904,12.987598 11.81933,13.782106 2.69858,0.361693 7.97231,3.221781 13.56398,9.18596 5.59167,5.96425 11.28301,14.344087 16.15032,22.823737 8.42335,14.674932 13.52941,27.233575 14.97006,30.881705 -15.17382,12.94249 -29.31352,27.93574 -42.22766,44.64454 -1.28304,-1.0062 -19.0815,-14.93629 -41.64423,-28.13336 -11.693155,-6.83941 -24.447183,-13.40706 -37.140524,-17.69214 -9.51997,-3.21389 -19.167611,-5.58368 -28.814696,-4.48163 -3.215625,0.36737 -6.426381,1.17832 -9.630078,2.40801 -4.71606,1.51 -8.201668,5.47645 -9.074705,10.35082 -0.873106,4.8743 1.007837,9.8513 4.906575,12.90438 3.898773,3.05307 9.167007,3.70853 13.689874,1.6923 2.567395,-0.98544 10.430846,-0.89853 20.331568,2.44383 9.900757,3.34236 21.522894,9.20453 32.264065,15.48714 21.482411,12.56518 39.529891,26.65396 39.529891,26.65396 0.0536,0.0483 0.14815,0.0139 0.20241,0.0612 -1.23658,1.91642 -2.58583,3.70124 -3.78836,5.65619 -8.70111,14.14515 -16.01855,28.69241 -22.13384,43.34985 -1.81785,-0.74683 -3.76501,-1.23859 -5.84913,-1.10807 -0.76293,0.0456 -1.520573,0.15581 -2.264618,0.3304 0,0 -32.200039,6.75482 -60.133768,26.01599 -13.966917,9.63077 -27.395434,22.77383 -34.2441614,40.74427 -6.8487279,17.97048 -6.1101089,40.19189 5.5269483,64.04767 3.2506121,6.65032 11.3092381,9.37168 17.9594521,6.12124 6.650179,-3.25058 9.373589,-11.24261 6.122977,-17.89271 -9.151009,-18.75929 -8.793141,-31.80855 -4.601605,-42.80666 4.191501,-10.99811 13.279526,-20.54604 24.426941,-28.23272 17.33275,-11.95134 34.628425,-17.24956 43.125361,-19.59089 -28.151163,92.09283 -7.000952,185.43367 57.780013,233.1292 -0.0313,-0.0139 0.91794,0.83714 0.82421,0.77962 0.51507,0.34222 1.04665,0.55809 1.563,0.89255 2.70373,1.91332 5.26702,3.97285 8.11765,5.72626 69.07885,42.49212 161.40122,24.91679 233.12245,-36.3793 1.16451,10.18935 1.91857,22.98254 0.18885,35.63981 -1.8332,13.41603 -6.29322,25.8685 -14.2192,34.56962 -7.92598,8.70108 -19.36867,14.87094 -40.23902,15.16328 -7.38438,0.095 -13.29382,6.15762 -13.19922,13.542 0.0946,7.38435 6.15754,13.29385 13.54186,13.19905 26.5403,-0.37174 46.70629,-9.71229 59.65689,-23.92941 12.95063,-14.2169 18.61161,-32.12415 20.9085,-48.93352 4.19098,-30.67025 -2.05212,-56.96725 -3.25851,-61.83675 12.9113,-13.78861 24.91773,-29.02681 35.573,-45.86387 4.34536,2.08186 20.09616,9.69835 38.31565,21.47129 10.45153,6.75381 20.91246,14.48584 28.3607,21.81544 7.4482,7.3294 11.09559,14.26869 11.37392,17.00452 0.74001,7.348 7.29653,12.70468 14.64443,11.96484 7.34794,-0.74012 12.70472,-7.29667 11.96474,-14.64468 -1.38918,-13.65575 -9.70349,-23.97402 -19.25257,-33.3707 -9.54901,-9.39661 -21.15769,-17.8915 -32.53548,-25.24343 -18.37995,-11.87671 -33.25712,-19.29414 -39.47588,-22.30871 14.25353,-27.44548 23.71497,-55.78761 28.76639,-83.79392 1.34665,0.26049 2.62541,0.72669 4.02805,0.55666 3e-5,2.8e-4 18.75538,-1.73901 39.24102,-0.55666 10.24283,0.59116 20.85279,1.96587 29.07824,4.34063 8.22553,2.37476 13.37211,5.92933 14.80208,8.01442 2.66453,4.0309 7.31712,6.29618 12.13637,5.94899 4.81928,-0.34744 9.09669,-3.29583 11.15569,-7.66703 2.05908,-4.37095 1.55876,-9.47051 -1.24238,-13.40751 -7.14664,-10.42135 -18.19921,-15.31913 -29.47426,-18.57419 -11.27498,-3.25503 -23.45413,-4.65283 -34.92362,-5.3148 -11.46947,-0.6619 -22.27063,-0.55913 -30.23455,-0.22884 -6.74502,0.27996 -9.79942,0.59276 -11.08172,0.70954 5.98835,-74.11195 -20.2064,-142.19688 -75.59403,-178.730907 l 0.25632,-0.408435 -8.30135,-5.119174 -0.25596,0.408435 C 357.45741,37.10975 278.5967,47.811761 212.25746,93.883111 c -3.0987,-7.160236 -7.49824,-16.61458 -13.5982,-27.241644 -5.50775,-9.595473 -12.07585,-19.521236 -19.90198,-27.868868 -7.8261,-8.347598 -17.17563,-15.716503 -29.50762,-17.369441 -0.86434,-0.127983 -1.73905,-0.17076 -2.61174,-0.127983 z" />
  <path
     inkscape:connector-curvature="0"
     style="fill-opacity:0.15322577;fill-rule:evenodd;stroke-width:4.55000019"
     id="path3035"
     d="m 149.57038,11.955875 c -6.96749,0.309178 -12.50651,5.890519 -12.75002,12.860588 -0.24345,6.970104 4.8904,12.987598 11.81933,13.782106 2.69857,0.361693 7.9723,3.221746 13.56397,9.18603 5.59164,5.96418 11.28305,14.344052 16.15033,22.823702 8.42338,14.674897 13.52944,27.233541 14.97009,30.881699 -15.17382,12.94246 -29.31352,27.93579 -42.22766,44.64451 -1.28311,-1.0062 -19.0815,-14.93622 -41.64423,-28.13332 -11.693156,-6.83944 -24.447219,-13.40703 -37.140524,-17.69215 -9.51997,-3.213851 -19.167646,-5.583705 -28.814731,-4.481585 -3.21566,0.367327 -6.426381,1.17832 -9.630113,2.407937 -4.716025,1.509999 -8.201633,5.476488 -9.074705,10.350818 -0.873071,4.87434 1.007872,9.85134 4.90661,12.90441 3.898738,3.05311 9.167007,3.70854 13.689874,1.69234 2.567395,-0.98544 10.430846,-0.8986 20.331568,2.4438 9.900756,3.34235 21.522894,9.20449 32.264065,15.48714 21.482376,12.56514 39.529886,26.65399 39.529886,26.65399 0.0536,0.0483 0.14816,0.0139 0.20241,0.0612 -1.23657,1.91639 -2.58583,3.7012 -3.78835,5.65608 -8.70112,14.14526 -16.01852,28.69249 -22.13388,43.34989 -1.81785,-0.74682 -3.76495,-1.23855 -5.8491,-1.10803 -0.76293,0.0456 -1.52057,0.15581 -2.26458,0.33039 0,0 -32.200002,6.75483 -60.133836,26.01603 -13.966883,9.63077 -27.395399,22.77379 -34.2441266,40.74431 -6.8487279,17.97047 -6.1101089,40.19185 5.5269836,64.04763 3.250577,6.65028 11.309203,9.37164 17.959417,6.12127 6.650144,-3.25064 9.373589,-11.2427 6.122977,-17.89274 -9.151009,-18.75932 -8.793107,-31.80858 -4.60164,-42.80669 4.19157,-10.99811 13.279561,-20.54601 24.427011,-28.23269 17.332714,-11.95134 34.62839,-17.24956 43.125291,-19.59089 -28.151128,92.09279 -7.000883,185.43364 57.780083,233.12923 -0.0313,-0.0139 0.91787,0.83711 0.82418,0.77956 0.51503,0.34221 1.04661,0.55815 1.563,0.89258 2.70372,1.91332 5.26705,3.97285 8.11764,5.72629 69.07886,42.49205 161.40126,24.91676 233.12249,-36.37933 1.16455,10.18938 1.91857,22.98257 0.18884,35.63981 -1.83322,13.41607 -6.29321,25.8685 -14.21923,34.56958 -7.92595,8.70112 -19.36866,14.87094 -40.23901,15.16332 -7.38435,0.095 -13.29382,6.15762 -13.19919,13.542 0.0946,7.38438 6.15751,13.29386 13.54189,13.19908 26.54027,-0.37177 46.70623,-9.71236 59.65682,-23.9295 12.95063,-14.21684 18.61161,-32.12412 20.90857,-48.93346 4.19095,-30.67025 -2.05219,-56.96725 -3.25854,-61.83675 12.91123,-13.78865 24.9177,-29.02681 35.57297,-45.8639 4.34543,2.08186 20.09619,9.69838 38.31568,21.47132 10.45157,6.75385 20.91246,14.48584 28.36066,21.81545 7.44824,7.32939 11.09563,14.26868 11.37396,17.00447 0.74001,7.34804 7.29653,12.70472 14.64443,11.96481 7.3479,-0.74008 12.70472,-7.2966 11.96471,-14.64464 -1.38915,-13.65572 -9.7035,-23.97399 -19.25251,-33.37064 -9.54904,-9.39664 -21.15779,-17.89156 -32.53551,-25.24343 -18.37995,-11.87674 -33.25712,-19.2942 -39.47591,-22.30877 14.25352,-27.44545 23.71496,-55.78758 28.76635,-83.79392 1.34672,0.26049 2.62544,0.72669 4.02812,0.55669 0,2.4e-4 18.75531,-1.73901 39.24102,-0.55666 10.24283,0.5912 20.85279,1.96587 29.07828,4.3406 8.22542,2.37476 13.37203,5.92936 14.80201,8.01442 2.6646,4.03093 7.31708,6.29621 12.13644,5.94898 4.81924,-0.34743 9.09661,-3.29579 11.15569,-7.66699 2.059,-4.37099 1.55869,-9.47051 -1.24245,-13.40747 -7.14664,-10.42142 -18.19922,-15.31913 -29.47427,-18.57419 -11.27498,-3.2551 -23.45412,-4.65294 -34.92362,-5.31484 -11.46946,-0.66186 -22.27059,-0.55913 -30.23451,-0.22884 -6.74506,0.27996 -9.79942,0.59279 -11.08176,0.70958 5.98835,-74.11192 -20.20633,-142.19692 -75.59396,-178.730946 l 0.25597,-0.4084 -8.30134,-5.11914 -0.25597,0.408331 C 360.38983,27.790345 281.52916,38.492321 215.18989,84.563707 212.09115,77.403436 207.69164,67.949162 201.59173,57.322063 196.08397,47.726554 189.5158,37.800827 181.68974,29.453229 173.8636,21.105596 164.51412,13.736691 152.18209,12.083719 c -0.86431,-0.127984 -1.73905,-0.170761 -2.61174,-0.127984 z" />
  <path
     inkscape:connector-curvature="0"
     style="fill:none;stroke:#000000;stroke-width:26.74024582;stroke-linecap:round;stroke-linejoin:round"
     id="path3036"
     d="m 415.43253,413.85249 c 0,0 30.89005,120.23603 -63.93123,121.56521" />
  <path
     inkscape:connector-curvature="0"
     style="fill:none;stroke:#000000;stroke-width:26.74024582;stroke-linecap:round;stroke-linejoin:round"
     id="path3037"
     d="m 466.92771,354.36319 c 0,0 85.64962,40.03084 88.9846,72.81428" />
  <path
     inkscape:connector-curvature="0"
     style="fill:none;stroke:#000000;stroke-width:26.74024582;stroke-linecap:round;stroke-linejoin:round"
     sodipodi:nodetypes="cc"
     id="path3038"
     d="m 509.49203,248.38879 c 0,0 78.27261,-7.49435 95.42587,17.51916" />
  <path
     inkscape:connector-curvature="0"
     style="fill:none;stroke:#000000;stroke-width:26.74024582;stroke-linecap:round;stroke-linejoin:round"
     id="path3039"
     d="m 108.88847,217.156 c 0,0 -121.245466,26.65355 -79.669403,111.88426" />
  <path
     inkscape:connector-curvature="0"
     style="fill:none;stroke:#000000;stroke-width:26.74024582;stroke-linecap:round;stroke-linejoin:round"
     id="path3040"
     d="m 148.08977,145.32689 c 0,0 -74.355155,-58.392042 -105.119481,-46.584015" />
  <path
     inkscape:connector-curvature="0"
     style="fill:none;stroke:#000000;stroke-width:26.74024582;stroke-linecap:round;stroke-linejoin:round"
     sodipodi:nodetypes="cc"
     id="path3041"
     d="m 211.31143,87.685292 c 0,0 -26.46961,-70.285798 -56.53082,-74.315128" />
  <path
     transform="matrix(1.822095,1.120814,-1.120814,1.822095,312.51287,-630.39484)"
     style="fill:url(#radialGradient880);fill-rule:evenodd;stroke-width:1.71744992;stroke:#000000;stroke-miterlimit:4;stroke-dasharray:none"
     sodipodi:type="arc"
     sodipodi:ry="115.16535"
     sodipodi:rx="90.692711"
     sodipodi:cy="358.49094"
     sodipodi:cx="214.49547"
     id="path3042"
     d="m 305.18818,358.49094 a 90.692711,115.16535 0 1 1 -181.38542,0 90.692711,115.16535 0 1 1 181.38542,0 z" />
  <path
     inkscape:connector-curvature="0"
     style="fill:none;stroke:#000000;stroke-width:9.73344994"
     id="path3043"
     d="M 430.69824,53.251207 202.23397,424.66224" />
  <path
     transform="matrix(1.822095,1.120814,-1.120814,1.822095,323.36157,-602.43284)"
     style="fill-rule:evenodd;stroke-width:1pt"
     sodipodi:type="arc"
     sodipodi:ry="16.555019"
     sodipodi:rx="16.555019"
     sodipodi:cy="349.13376"
     sodipodi:cx="256.96268"
     id="path3044"
     d="m 273.5177,349.13376 a 16.555019,16.555019 0 1 1 -33.11004,0 16.555019,16.555019 0 1 1 33.11004,0 z" />
  <path
     transform="matrix(1.822095,1.120814,-1.120814,1.822095,335.73567,-654.50324)"
     style="fill-rule:evenodd;stroke-width:1pt"
     sodipodi:type="arc"
     sodipodi:ry="13.315993"
     sodipodi:rx="13.315993"
     sodipodi:cy="411.39502"
     sodipodi:cx="235.00929"
     id="path3045"
     d="m 248.32529,411.39502 a 13.315993,13.315993 0 1 1 -26.63199,0 13.315993,13.315993 0 1 1 26.63199,0 z" />
  <path
     transform="matrix(2.575703,1.584379,-1.584379,2.575703,294.60517,-941.77614)"
     style="fill-rule:evenodd;stroke-width:1pt"
     sodipodi:type="arc"
     sodipodi:ry="12.59621"
     sodipodi:rx="12.59621"
     sodipodi:cy="288.31204"
     sodipodi:cx="236.44887"
     id="path3046"
     d="m 249.04508,288.31204 a 12.59621,12.59621 0 1 1 -25.19242,0 12.59621,12.59621 0 1 1 25.19242,0 z" />
  <path
     transform="matrix(-1.822095,-1.120814,-1.120814,1.822095,1077.8476,-135.09622)"
     style="fill-rule:evenodd;stroke-width:1pt"
     sodipodi:type="arc"
     sodipodi:ry="16.555019"
     sodipodi:rx="16.555019"
     sodipodi:cy="349.13376"
     sodipodi:cx="256.96268"
     id="path3048"
     d="m 273.5177,349.13376 a 16.555019,16.555019 0 1 1 -33.11004,0 16.555019,16.555019 0 1 1 33.11004,0 z" />
  <path
     transform="matrix(-1.822095,-1.120814,-1.120814,1.822095,1105.7046,-179.32294)"
     style="fill-rule:evenodd;stroke-width:1pt"
     sodipodi:type="arc"
     sodipodi:ry="13.315993"
     sodipodi:rx="13.315993"
     sodipodi:cy="411.39502"
     sodipodi:cx="235.00929"
     id="path3049"
     d="m 248.32529,411.39502 a 13.315993,13.315993 0 1 1 -26.63199,0 13.315993,13.315993 0 1 1 26.63199,0 z" />
  <path
     transform="matrix(-2.600563,-1.599671,-1.599671,2.600563,1567.8066,-144.81046)"
     style="fill-rule:evenodd;stroke-width:1pt"
     sodipodi:type="arc"
     sodipodi:ry="12.956102"
     sodipodi:rx="12.956102"
     sodipodi:cy="311.70502"
     sodipodi:cx="282.87491"
     id="path3051"
     d="m 295.83101,311.70502 a 12.956102,12.956102 0 1 1 -25.9122,0 12.956102,12.956102 0 1 1 25.9122,0 z" />
  <path
     inkscape:connector-curvature="0"
     style="fill-opacity:0.75;fill-rule:evenodd;stroke:#000000;stroke-width:2.13921986pt"
     sodipodi:nodetypes="cccc"
     id="path3052"
     d="M 99.775021,250.40767 C 95.030999,262.097 310.42148,452.60421 393.76158,443.30216 c 4.08133,1.87267 -126.58315,95.06887 -230.97636,23.17041 5.24608,3.22696 -95.850887,-58.34892 -63.010199,-216.0649 z" />
  <path
     inkscape:connector-curvature="0"
     style="fill:url(#linearGradient3018);fill-opacity:1;fill-rule:evenodd;stroke-width:3.75;stroke-linecap:round;stroke-linejoin:round"
     sodipodi:nodetypes="ccccc"
     id="path3053"
     d="m 112.60709,284.69836 c -14.943174,7.99863 -5.25822,83.5576 34.31306,143.11945 7.78777,7.36622 23.15249,14.52159 29.06513,-9.10973 -45.90546,-51.08452 -46.32704,-66.23849 -47.59182,-111.70035 -0.42158,-15.15393 -0.6324,-22.73095 -15.78637,-22.30937 z" />
  <path
     inkscape:connector-curvature="0"
     style="fill:#ffffff;fill-opacity:1;fill-rule:evenodd;stroke:none"
     sodipodi:nodetypes="ccccccc"
     id="path3054"
     d="m 92.013679,322.47334 27.281881,0.22641 -7.00168,25.00495 22.94939,18.35704 1.87858,21.54543 -34.03584,-3.96854 c 0,0 -13.307212,-39.87861 -11.072331,-61.16515 z" />
  <path
     inkscape:connector-curvature="0"
     style="fill:#ffffff;fill-opacity:1;fill-rule:evenodd;stroke:none"
     sodipodi:nodetypes="ccccccc"
     id="path3055"
     d="m 330.29641,482.43061 -11.38568,-13.54461 -20.96846,3.53611 -25.70636,-14.24226 -20.6405,6.45768 16.61614,29.96819 c 0,0 42.10014,-4.24548 62.08486,-12.17511 z" />
  <path
     transform="matrix(2.575703,1.584379,-1.584379,2.575703,160.26897,-1019.6674)"
     style="fill-rule:evenodd;stroke-width:1pt"
     sodipodi:type="arc"
     sodipodi:ry="12.59621"
     sodipodi:rx="12.59621"
     sodipodi:cy="288.31204"
     sodipodi:cx="236.44887"
     id="path3057"
     d="m 249.04508,288.31204 a 12.59621,12.59621 0 1 1 -25.19242,0 12.59621,12.59621 0 1 1 25.19242,0 z" />
</svg>
