<?xml version="1.0" encoding="UTF-8" standalone="no"?>
<!-- Created with Inkscape (http://www.inkscape.org/) -->

<svg
   xmlns:dc="http://purl.org/dc/elements/1.1/"
   xmlns:cc="http://creativecommons.org/ns#"
   xmlns:rdf="http://www.w3.org/1999/02/22-rdf-syntax-ns#"
   xmlns:svg="http://www.w3.org/2000/svg"
   xmlns="http://www.w3.org/2000/svg"
   xmlns:sodipodi="http://sodipodi.sourceforge.net/DTD/sodipodi-0.dtd"
   xmlns:inkscape="http://www.inkscape.org/namespaces/inkscape"
   width="690.95416"
   height="860.63617"
   id="svg2"
   inkscape:label="Pozadí"
   sodipodi:version="0.32"
   inkscape:version="0.48.2 r9819"
   sodipodi:docname="Parrot.svg"
   version="1.0">
  <defs
     id="defs3" />
  <sodipodi:namedview
     id="base"
     pagecolor="#ffffff"
     bordercolor="#666666"
     borderopacity="1.0"
     inkscape:pageopacity="0.0"
     inkscape:pageshadow="2"
     inkscape:zoom="0.39944763"
     inkscape:cx="86.026534"
     inkscape:cy="286.00693"
     inkscape:document-units="px"
     inkscape:current-layer="layer1"
     showguides="true"
     inkscape:guide-bbox="true"
     inkscape:window-width="1024"
     inkscape:window-height="712"
     inkscape:window-x="-4"
     inkscape:window-y="-4"
     showgrid="false"
     inkscape:window-maximized="0" />
  <metadata
     id="metadata6">
    <rdf:RDF>
      <cc:Work
         rdf:about="">
        <dc:format>image/svg+xml</dc:format>
        <dc:type
           rdf:resource="http://purl.org/dc/dcmitype/StillImage" />
        <dc:title>papousek</dc:title>
        <dc:publisher>
          <cc:Agent>
            <dc:title>ZS a MS Machovo nam.</dc:title>
          </cc:Agent>
        </dc:publisher>
        <dc:creator>
          <cc:Agent>
            <dc:title>Krauskopf Tom</dc:title>
          </cc:Agent>
        </dc:creator>
        <dc:language>cz</dc:language>
        <dc:subject>
          <rdf:Bag>
            <rdf:li>papousek</rdf:li>
            <rdf:li>parrot</rdf:li>
          </rdf:Bag>
        </dc:subject>
        <cc:license
           rdf:resource="http://web.resource.org/cc/PublicDomain" />
      </cc:Work>
      <cc:License
         rdf:about="http://web.resource.org/cc/PublicDomain">
        <cc:permits
           rdf:resource="http://web.resource.org/cc/Reproduction" />
        <cc:permits
           rdf:resource="http://web.resource.org/cc/Distribution" />
        <cc:permits
           rdf:resource="http://web.resource.org/cc/DerivativeWorks" />
      </cc:License>
    </rdf:RDF>
  </metadata>
  <g
     inkscape:label="Vrstva 1"
     inkscape:groupmode="layer"
     id="layer1"
     transform="translate(-24.74319,-119.6456)">
    <path
       inkscape:connector-curvature="0"
       style="fill:#11110f;fill-opacity:1;fill-rule:evenodd;stroke:#000000;stroke-width:0.93022959999999999px;stroke-linecap:butt;stroke-linejoin:miter;stroke-opacity:1"
       d="m 557.16959,619.99149 13.78099,-0.51117 24.06263,3.64316 -15.71478,-14.83325 -8.33838,-5.85064 -3.20707,1.72078 -26.93954,-27.53241 -25.6566,-26.15576 -8.97985,-1.03248 -3.84854,-11.35712 -4.48993,-6.88309 -3.84845,1.03246 -10.90408,-6.53894 4.48993,16.51944 24.69453,21.3376 32.07084,21.68176 14.11115,16.51945 -1.28285,18.24021 z"
       id="path1962"
       sodipodi:nodetypes="cccccccccccccccccc" />
    <path
       inkscape:connector-curvature="0"
       style="fill:#493a25;fill-opacity:1;fill-rule:evenodd;stroke:#000000;stroke-width:6;stroke-linecap:butt;stroke-linejoin:miter;stroke-opacity:1;stroke-miterlimit:4;stroke-dasharray:none"
       d="m 25.191827,586.45701 20.373988,0.92742 35.432958,-6.49197 84.153197,12.05653 45.17704,-10.20168 77.95258,4.63712 52.26361,11.1291 140.84597,17.62108 84.15328,1.85485 149.70427,12.98395 -0.88586,206.8158 -70.86592,-25.96793 -112.49958,-20.4033 -107.18474,-18.54855 -71.75178,-7.41938 -64.66512,-12.98392 -25.68887,-3.70969 -66.43685,-16.6937 -51.37775,-15.76622 -56.692769,-1.85485 -38.090379,20.40338 -23.917275,-0.92747 0,-147.46057 z"
       id="path1964" />
    <path
       inkscape:connector-curvature="0"
       style="fill:#599d43;fill-opacity:1;fill-rule:evenodd;stroke:#000000;stroke-width:6;stroke-linecap:butt;stroke-linejoin:miter;stroke-opacity:1;stroke-miterlimit:4;stroke-dasharray:none"
       d="m 397.40888,248.85383 -87.6921,100.99144 49.48334,146.24085 117.13165,49.83994 12.52743,-0.98369 -6.57691,-19.01787 12.52743,7.21368 2.50546,-1.63947 5.63737,8.19735 3.75822,9.50894 8.76921,2.29526 51.36258,52.13519 4.07137,-0.65578 12.52743,7.86945 -11.5879,-20.00155 13.7802,11.14841 -11.90105,-33.77311 3.13184,0 -4.3846,-14.75525 -6.26368,-34.4289 -9.08244,-25.57575 -8.14283,-17.0505 -7.20329,-22.6247 -6.57691,-26.23155 -8.14282,-20.00155 -6.26367,-19.67366 -5.95061,-15.73893 -21.60979,-37.37994 -5.32414,-9.50893 8.76921,2.95104 -5.01099,-11.14841 -29.43955,-29.18259 -8.45598,-11.80419 -34.1373,-17.70629 -22.23618,-9.50894 z"
       id="path1966" />
    <path
       inkscape:connector-curvature="0"
       style="fill:#66bf2a;fill-opacity:1;fill-rule:evenodd;stroke:#000000;stroke-width:0.89727628000000004px;stroke-linecap:butt;stroke-linejoin:miter;stroke-opacity:1"
       d="m 195.40382,121.07793 15.65935,-0.98368 27.56031,0.32789 36.01646,15.73893 27.24716,20.98523 38.20868,35.74047 45.09882,40.331 3.44507,7.21367 8.76921,7.54157 7.51644,29.51049 -2.50545,15.73892 -3.13192,11.4763 -6.57691,15.73893 -0.62638,10.16472 3.44507,8.52525 4.3846,15.08315 6.26376,22.2968 2.81869,10.16473 -0.62639,10.82051 -7.51652,11.4763 -10.0219,2.95105 -12.84066,-0.98369 -13.15382,2.62316 34.13731,25.24786 11.5879,24.59207 1.56591,12.45999 14.71974,19.01786 12.84066,10.82052 26.93393,33.7731 9.3956,5.24632 14.71973,-0.98369 23.80218,20.00155 30.37908,20.98523 14.09335,15.73893 -1.25277,17.7063 -72.03274,-1.31159 -12.52752,-15.08313 -14.09335,-7.54157 -20.04387,-2.62316 -22.23626,4.91842 -20.67026,-8.85315 -9.39559,-6.22998 -20.04387,0.32789 -18.79119,5.90209 c 0,0 -11.5879,2.62316 -12.84067,2.95106 -1.25268,0.32789 -8.45597,-2.95106 -8.45597,-2.95106 0,0 -12.84067,-2.29526 -15.65936,-1.96736 -2.8186,0.3279 -15.97241,-8.19736 -15.97241,-8.19736 l -10.64837,-10.49262 -16.91203,-13.44366 -21.92303,-19.01787 -17.53842,-24.59207 1.87907,8.52525 -15.03288,-22.62471 2.1923,9.18104 -10.96151,-25.90365 -1.25277,9.83683 -5.95052,-38.36362 -2.19231,-31.14997 -5.32413,-19.67365 -9.3956,-6.22999 -5.01099,-10.49262 -1.25277,-23.93628 -5.95052,-12.13209 -1.87907,-28.19891 -7.82967,-24.59207 -13.15382,-34.7568 14.09335,23.44444 15.50274,19.67367 10.02198,6.88578 13.15381,12.78787 7.35982,3.44289 -0.78291,-1.63947 -1.72254,-11.8042 22.86256,0.16395 23.64556,-8.3613 6.26367,-6.88578 2.34892,-13.60762 -3.75822,-20.1655 1.56592,-9.18104 -8.29944,-15.24708 4.22807,-13.44367 10.96151,-14.09945 5.16752,-15.08314 5.95053,-18.19813 -0.78292,-17.21445 4.69776,-3.27894 -13.7802,-13.77156 -20.82688,-12.62393 -20.20049,-5.41025 -29.12631,-4.75447 z"
       id="path1952" />
    <path
       inkscape:connector-curvature="0"
       style="fill:#365da2;fill-opacity:1;fill-rule:evenodd;stroke:#000000;stroke-width:6;stroke-linecap:butt;stroke-linejoin:miter;stroke-opacity:1;stroke-miterlimit:4;stroke-dasharray:none"
       d="m 274.63994,161.40893 -5.63737,-3.27895 -8.14283,-5.90209 -5.01099,-3.93474 -4.3846,0 -6.26376,2.62315 -3.75822,7.21368 -5.01099,10.49262 -7.51644,9.18104 -8.76921,8.52525 -15.03288,7.86946 -10.64837,2.62315 -12.52743,0 -12.52743,1.96737 -15.03297,3.93474 -17.53842,7.21367 -11.27466,10.49261 -12.52743,-3.93472 -8.14291,-11.8042 -2.50545,-19.01787 6.26376,-16.39472 28.18669,-22.29681 30.69224,-17.70628 27.5604,-7.86947 29.43946,4.59052 20.04396,5.24631 21.29664,13.11577 13.15382,13.11577 -4.38461,3.93474 z"
       id="path1932" />
    <path
       inkscape:connector-curvature="0"
       style="fill:#dfe3e8;fill-opacity:1;fill-rule:evenodd;stroke:#000000;stroke-width:6;stroke-linecap:butt;stroke-linejoin:miter;stroke-opacity:1;stroke-miterlimit:4;stroke-dasharray:none"
       d="m 125.87652,219.7741 4.07146,10.16473 13.7802,16.06682 3.13183,13.11577 13.46697,23.28049 -3.75822,-11.1484 -6.26368,-15.73892 -3.44507,-13.44367 -3.13183,-21.64103 9.70874,-4.59052 9.70874,-2.29526 19.41758,4.26263 27.87354,2.29526 14.40659,10.82051 11.58781,14.42735 19.73072,19.01787 0.93962,-9.83683 -7.82968,-15.41103 4.38461,-13.44366 10.64836,-14.75525 5.01091,-13.77156 5.95061,-19.34576 -0.62639,-17.05051 -4.85437,-2.4592 -13.7802,-9.83683 -4.22807,-0.81974 -5.79391,2.95105 -10.17851,18.85392 -8.14291,9.50894 -7.82959,8.03341 -14.5632,7.21367 -11.11805,2.45921 -11.74451,0.16394 -13.46696,1.96737 -14.09344,3.60684 -18.63457,7.21368 -10.33513,10.16471 z"
       id="path1934" />
    <path
       inkscape:connector-curvature="0"
       style="fill:#362918;fill-opacity:1;fill-rule:evenodd;stroke:#000000;stroke-width:0.89727628000000004px;stroke-linecap:butt;stroke-linejoin:miter;stroke-opacity:1"
       d="m 181.53978,209.92242 3.76471,-2.78227 -0.44293,-4.63713 -4.42907,-0.46371 -3.54328,0.92742 -0.88587,3.01413 5.53644,3.94156 z"
       id="path1936" />
    <path
       inkscape:connector-curvature="0"
       style="fill:#362918;fill-opacity:1;fill-rule:evenodd;stroke:#000000;stroke-width:0.89727628000000004px;stroke-linecap:butt;stroke-linejoin:miter;stroke-opacity:1"
       d="m 135.03403,213.86398 1.99307,3.47784 -0.66436,3.94156 -4.65057,-1.15928 0.66435,-3.47785 2.65751,-2.78227 z"
       id="path1938" />
    <path
       inkscape:connector-curvature="0"
       style="fill:#432644;fill-opacity:1;fill-rule:evenodd;stroke:#000000;stroke-width:0.89727628000000004px;stroke-linecap:butt;stroke-linejoin:miter;stroke-opacity:1"
       d="m 259.71369,186.73679 5.53644,-2.78227 2.436,-10.66539 -3.54328,-10.43353 -4.20765,-6.26012 -5.31493,-2.31857 -7.5295,1.85486 -2.87893,7.18754 -0.44294,11.59281 6.42222,9.50611 9.52257,2.31856 z"
       id="path1940" />
    <path
       inkscape:connector-curvature="0"
       style="fill:#14111a;fill-opacity:1;fill-rule:evenodd;stroke:#000000;stroke-width:0.89727628000000004px;stroke-linecap:butt;stroke-linejoin:miter;stroke-opacity:1"
       d="m 256.17041,159.60961 3.10044,3.01413 3.32178,6.49198 -0.66436,6.26011 -4.42906,1.623 -4.20773,-1.85485 -3.76471,-5.79641 0.22142,-5.7964 2.21457,-5.3327 4.20765,1.39114 z"
       id="path1942" />
    <path
       inkscape:connector-curvature="0"
       style="fill:#fefdf9;fill-opacity:1;fill-rule:evenodd;stroke:#000000;stroke-width:0.89727628000000004px;stroke-linecap:butt;stroke-linejoin:miter;stroke-opacity:1"
       d="m 251.93391,158.62182 -1.87906,4.59052 0.93953,1.96737 2.03569,0.32789 1.72253,-0.98368 1.72254,-2.29526 -1.25277,-2.7871 -3.28846,-0.81974 z"
       id="path1944" />
    <path
       inkscape:connector-curvature="0"
       style="fill:#47444b;fill-opacity:1;fill-rule:evenodd;stroke:#000000;stroke-width:0.89727628000000004px;stroke-linecap:butt;stroke-linejoin:miter;stroke-opacity:1"
       d="m 219.20599,227.64357 -0.31323,7.86946 -1.56592,12.13209 0.31324,8.85314 -4.69784,6.23 -3.44499,5.90209 -3.75831,18.03419 -1.87906,21.96892 2.1923,16.06682 1.25277,1.63947 -7.20329,-3.60684 -14.09344,-13.11577 -9.08236,-6.88578 -16.28565,-20.32945 -10.1786,-26.06759 -3.91483,-14.59129 -2.97522,-21.14919 9.55212,-4.75447 10.02198,-2.62315 20.04396,4.75447 27.56031,1.96737 8.45606,7.70551 z"
       id="path1946" />
    <path
       inkscape:connector-curvature="0"
       style="fill:#47444b;fill-opacity:1;fill-rule:evenodd;stroke:#000000;stroke-width:0.89727628000000004px;stroke-linecap:butt;stroke-linejoin:miter;stroke-opacity:1"
       d="m 205.89556,284.36928 9.86536,-4.26263 6.89015,-12.13209 3.28845,-10.98445 2.8186,-16.88656 0.31324,-4.26263 6.5769,8.03341 1.4093,2.13132 19.10434,18.19813 3.33037,19.44893 -2.21457,13.44767 -5.75787,6.49197 -11.51572,5.10084 -11.95858,3.7097 -23.47438,0 -1.02451,-4.09732 2.34892,-23.93629 z"
       id="path1948" />
    <path
       inkscape:connector-curvature="0"
       style="fill:#111217;fill-opacity:1;fill-rule:evenodd;stroke:#000000;stroke-width:0.89727628000000004px;stroke-linecap:butt;stroke-linejoin:miter;stroke-opacity:1"
       d="m 219.20599,226.98778 -0.783,13.77156 -1.09615,6.72184 0.46977,8.85314 -4.85437,6.22999 -3.60161,5.57421 -3.60169,16.06682 10.33522,-4.09869 6.57691,-11.64024 3.28845,-11.14841 2.34883,-13.44367 0.93962,-8.3613 -4.54122,-5.2463 -5.48076,-3.27895 z"
       id="path1950" />
    <path
       inkscape:connector-curvature="0"
       style="fill:#202625;fill-opacity:1;fill-rule:evenodd;stroke:#000000;stroke-width:6;stroke-linecap:butt;stroke-linejoin:miter;stroke-opacity:1;stroke-miterlimit:4;stroke-dasharray:none"
       d="m 199.69915,624.94515 -2.65751,-10.66539 -2.65742,-5.10084 23.4743,-21.79449 54.92112,-30.14131 15.94479,13.44766 6.2008,6.49198 7.97244,4.63712 -5.31493,4.17341 -7.97244,-0.46371 -3.54329,-4.63712 -24.36016,10.66539 -22.58852,11.59281 -12.40151,3.24599 -16.38781,12.98395 -6.64364,6.49197 -3.98622,-0.92742 z"
       id="path1954" />
    <path
       inkscape:connector-curvature="0"
       style="fill:#141011;fill-opacity:1;fill-rule:evenodd;stroke:#000000;stroke-width:0.89727628000000004px;stroke-linecap:butt;stroke-linejoin:miter;stroke-opacity:1"
       d="m 197.92751,619.84431 -4.65058,5.79641 -1.77164,5.33269 -0.44293,4.63713 1.10728,8.81054 2.436,6.49197 -3.32186,-1.15928 -4.20764,-4.86898 -2.87894,-4.86898 -1.32871,-8.34683 1.55022,-8.81054 10.62986,-12.05652 1.99307,3.47784 0.88587,5.56455 z"
       id="path1956" />
    <path
       inkscape:connector-curvature="0"
       style="fill:#202625;fill-opacity:1;fill-rule:evenodd;stroke:#000000;stroke-width:6;stroke-linecap:butt;stroke-linejoin:miter;stroke-opacity:1;stroke-miterlimit:4;stroke-dasharray:none"
       d="m 484.49152,616.59832 -18.15937,-1.85485 -26.1318,-4.17341 -18.15937,-2.31856 -24.36016,-3.24599 -32.33261,0.46371 -37.2046,5.10084 -28.78923,17.15737 -10.18701,9.73796 -7.52951,-20.86707 18.6023,-10.66539 25.68887,-10.20167 9.30115,-5.56455 30.11803,-8.81054 21.70274,-0.46371 11.0728,7.4194 19.04514,8.81054 22.58852,-5.56455 19.9311,3.24598 13.28737,7.4194 11.51564,14.37509 z"
       id="path1958"
       sodipodi:nodetypes="ccccccccccccccccccccc" />
    <path
       inkscape:connector-curvature="0"
       style="fill:#141011;fill-opacity:1;fill-rule:evenodd;stroke:#000000;stroke-width:0.89727628000000004px;stroke-linecap:butt;stroke-linejoin:miter;stroke-opacity:1"
       d="m 285.40266,627.95928 -3.54338,3.7097 -2.21449,7.4194 -1.77164,6.95569 1.32871,6.49198 5.97929,10.20167 -4.42907,-2.55042 -4.87208,-5.33269 -3.32187,-7.4194 -0.88578,-13.44766 2.87894,-7.88312 7.30799,-6.95569 3.54338,8.81054 z"
       id="path1960" />
    <path
       inkscape:connector-curvature="0"
       style="fill:#fd3c4b;fill-opacity:1;fill-rule:evenodd;stroke:#000000;stroke-width:6;stroke-linecap:butt;stroke-linejoin:miter;stroke-opacity:1;stroke-miterlimit:4;stroke-dasharray:none"
       d="m 401.1671,298.46873 7.20329,7.54158 10.0219,12.45997 3.44507,3.93474 -14.71974,-1.63948 3.13184,11.4763 5.95052,9.83683 4.69784,2.62316 2.81869,12.13209 5.63729,7.21367 3.13192,11.80419 -4.69784,8.19737 -10.02189,5.2463 -8.45606,-1.31158 -11.90105,-40.98678 -5.32422,-17.05051 0.31323,-9.18104 5.95052,-15.08313 2.81869,-7.21368 z"
       id="path1968" />
    <path
       inkscape:connector-curvature="0"
       style="fill:#9d581d;fill-opacity:1;fill-rule:evenodd;stroke:#000000;stroke-width:0.89727628000000004px;stroke-linecap:butt;stroke-linejoin:miter;stroke-opacity:1"
       d="m 398.03527,438.47959 9.08235,15.73893 9.70875,20.65734 12.52743,17.05051 12.52752,11.4763 -7.51653,-16.72262 -10.02189,-18.36208 -12.52752,-22.2968 -7.20321,-10.82052 -6.5769,3.27894 z"
       id="path1970" />
    <path
       inkscape:connector-curvature="0"
       style="fill:#161a1b;fill-opacity:1;fill-rule:evenodd;stroke:#000000;stroke-width:0.89727628000000004px;stroke-linecap:butt;stroke-linejoin:miter;stroke-opacity:1"
       d="m 404.61217,434.87276 11.90105,19.34576 13.15381,22.9526 9.3956,19.01787 7.82959,15.41103 4.07145,9.18104 15.34612,19.01787 9.3956,5.24631 -4.38461,-9.18104 -8.45606,-20.98523 -10.96151,-24.26419 -15.65927,-23.60838 -19.10434,-31.14996 -3.75822,-3.93473 -8.76921,2.95105 z"
       id="path1972"
       sodipodi:nodetypes="ccccccccccccccc" />
    <path
       inkscape:connector-curvature="0"
       style="fill:#373c38;fill-opacity:1;fill-rule:evenodd;stroke:#000000;stroke-width:0.89727628000000004px;stroke-linecap:butt;stroke-linejoin:miter;stroke-opacity:1"
       d="m 523.30966,528.32263 2.50545,-15.41103 1.25277,-18.03419 0.31323,-18.36208 -4.3846,-17.70629 -5.63738,-9.50894 0.62639,10.49263 0,13.77156 -1.25277,10.49261 0,12.13209 7.20329,34.4289 -0.62638,-2.29526 z"
       id="path1974" />
    <path
       inkscape:connector-curvature="0"
       style="fill:#4f5128;fill-opacity:1;fill-rule:evenodd;stroke:#000000;stroke-width:6;stroke-linecap:butt;stroke-linejoin:miter;stroke-opacity:1;stroke-miterlimit:4;stroke-dasharray:none"
       d="m 508.27669,794.90071 -1.25268,19.6736 9.39559,-12.45996 10.64828,27.54312 8.76921,30.82204 22.54941,10.49264 5.63737,21.641 12.52743,19.01788 10.64828,17.05057 21.92302,20.98519 7.51653,14.42736 -6.89014,-38.69156 -13.15382,-47.87252 -22.54941,-78.69464 -51.98887,-9.18104 -14.4065,-3.27891 0.6263,8.52523 z"
       id="path1976"
       sodipodi:nodetypes="ccccccccccccccccc" />
    <path
       inkscape:connector-curvature="0"
       style="fill:#599d43;fill-opacity:1;fill-rule:evenodd;stroke:#000000;stroke-width:6;stroke-linecap:butt;stroke-linejoin:miter;stroke-opacity:1;stroke-miterlimit:4;stroke-dasharray:none"
       d="m 615.69951,952.94571 10.33522,26.88741 -1.87916,-37.70791 -3.13183,-16.72262 -28.18679,-114.763 -1.87906,-8.52524 -16.28574,-2.62312 18.1648,63.61148 8.76921,34.10096 8.14283,31.80578 5.95052,23.93626 z"
       id="path1978"
       sodipodi:nodetypes="ccccccccccc" />
    <path
       inkscape:connector-curvature="0"
       id="path2071"
       d="m 195.40382,121.07793 15.65935,-0.98368 27.56031,0.32789 36.01646,15.73893 27.24716,20.98523 38.20868,35.74047 45.09882,40.331 3.44507,7.21367 8.76921,7.54157 7.51644,29.51049 -2.50545,15.73892 -3.13192,11.4763 -6.57691,15.73893 -0.62638,10.16472 3.44507,8.52525 4.3846,15.08315 6.26376,22.2968 2.81869,10.16473 -0.62639,10.82051 -7.51652,11.4763 -10.0219,2.95105 -12.84066,-0.98369 -13.15382,2.62316 34.13731,25.24786 11.5879,24.59207 1.56591,12.45999 14.71974,19.01786 12.84066,10.82052 26.93393,33.7731 9.3956,5.24632 14.71973,-0.98369 23.80218,20.00155 30.37908,20.98523 14.09335,15.73893 -1.25277,17.7063 -72.03274,-1.31159 -12.52752,-15.08313 -14.09335,-7.54157 -20.04387,-2.62316 -22.23626,4.91842 -20.67026,-8.85315 -9.39559,-6.22998 -20.04387,0.32789 -18.79119,5.90209 c 0,0 -11.5879,2.62316 -12.84067,2.95106 -1.25268,0.32789 -8.45597,-2.95106 -8.45597,-2.95106 0,0 -12.84067,-2.29526 -15.65936,-1.96736 -2.8186,0.3279 -15.97241,-8.19736 -15.97241,-8.19736 l -10.64837,-10.49262 -16.91203,-13.44366 -21.92303,-19.01787 -17.53842,-24.59207 1.87907,8.52525 -15.03288,-22.62471 2.1923,9.18104 -10.96151,-25.90365 -1.25277,9.83683 -5.95052,-38.36362 -2.19231,-31.14997 -5.32413,-19.67365 -9.3956,-6.22999 -5.01099,-10.49262 -1.25277,-23.93628 -5.95052,-12.13209 -1.87907,-28.19891 -7.82967,-24.59207 -13.15382,-34.7568 14.09335,23.44444 15.50274,19.67367 10.02198,6.88578 13.15381,12.78787 7.35982,3.44289 -0.78291,-1.63947 -1.72254,-11.8042 22.86256,0.16395 23.64556,-8.3613 6.26367,-6.88578 2.34892,-13.60762 -3.75822,-20.1655 1.56592,-9.18104 -8.29944,-15.24708 4.22807,-13.44367 10.96151,-14.09945 5.16752,-15.08314 5.95053,-18.19813 -0.78292,-17.21445 4.69776,-3.27894 -13.7802,-13.77156 -20.82688,-12.62393 -20.20049,-5.41025 -29.12631,-4.75447 z"
       style="fill:#66bf2a;fill-opacity:1;fill-rule:evenodd;stroke:#000000;stroke-width:6;stroke-linecap:butt;stroke-linejoin:miter;stroke-opacity:1;stroke-miterlimit:4;stroke-dasharray:none" />
  </g>
</svg>
