<?xml version="1.0" encoding="UTF-8" standalone="no"?>
<!-- Created with Inkscape (http://www.inkscape.org/) -->

<svg
   xmlns:dc="http://purl.org/dc/elements/1.1/"
   xmlns:cc="http://creativecommons.org/ns#"
   xmlns:rdf="http://www.w3.org/1999/02/22-rdf-syntax-ns#"
   xmlns:svg="http://www.w3.org/2000/svg"
   xmlns="http://www.w3.org/2000/svg"
   xmlns:sodipodi="http://sodipodi.sourceforge.net/DTD/sodipodi-0.dtd"
   xmlns:inkscape="http://www.inkscape.org/namespaces/inkscape"
   id="svg2"
   version="1.1"
   inkscape:version="0.48.1 r9760"
   width="342.90009"
   height="356.51138"
   sodipodi:docname="Little_Miss_Muffet_Spider.svg">
  <title
     id="title4254">Little Miss Muffet's Spider</title>
  <metadata
     id="metadata8">
    <rdf:RDF>
      <cc:Work
         rdf:about="">
        <dc:format>image/svg+xml</dc:format>
        <dc:type
           rdf:resource="http://purl.org/dc/dcmitype/StillImage" />
        <dc:title>Little Miss Muffet's Spider</dc:title>
        <dc:date>27 June 2011</dc:date>
        <dc:creator>
          <cc:Agent>
            <dc:title>Serious Tux</dc:title>
          </cc:Agent>
        </dc:creator>
        <dc:rights>
          <cc:Agent>
            <dc:title>Public Domain</dc:title>
          </cc:Agent>
        </dc:rights>
        <dc:publisher>
          <cc:Agent>
            <dc:title>Open Clip Art</dc:title>
          </cc:Agent>
        </dc:publisher>
        <dc:source>http://en.wikipedia.org/wiki/File:Little_Miss_Muffet_1940_poster.jpg</dc:source>
        <dc:description>Spider from poster promoting reading among children. &quot;Little Miss Muffet / Sat on a tuffet / Reading a picture book / There came a spider / And sat down beside her / And said, 'May I have a look?'&quot;</dc:description>
        <dc:language>en</dc:language>
        <dc:subject>
          <rdf:Bag>
            <rdf:li>Miss Muffet</rdf:li>
            <rdf:li>spider</rdf:li>
            <rdf:li>arachnid</rdf:li>
          </rdf:Bag>
        </dc:subject>
      </cc:Work>
    </rdf:RDF>
  </metadata>
  <defs
     id="defs6">
    <linearGradient
       id="linearGradient4255">
      <stop
         style="stop-color:#ffffff;stop-opacity:1;"
         offset="0"
         id="stop4257" />
      <stop
         id="stop4263"
         offset="0.80000001"
         style="stop-color:#ffffff;stop-opacity:1;" />
      <stop
         style="stop-color:#ffffff;stop-opacity:0.49803922;"
         offset="1"
         id="stop4259" />
    </linearGradient>
    <linearGradient
       id="linearGradient4245">
      <stop
         style="stop-color:#ffffff;stop-opacity:1;"
         offset="0"
         id="stop4247" />
      <stop
         id="stop4253"
         offset="0.5"
         style="stop-color:#ffffff;stop-opacity:1;" />
      <stop
         style="stop-color:#ffffff;stop-opacity:0.49803922;"
         offset="1"
         id="stop4249" />
    </linearGradient>
    <linearGradient
       id="linearGradient4235">
      <stop
         style="stop-color:#ffffff;stop-opacity:1;"
         offset="0"
         id="stop4237" />
      <stop
         id="stop4243"
         offset="0.5"
         style="stop-color:#ffffff;stop-opacity:1;" />
      <stop
         style="stop-color:#ffffff;stop-opacity:0.49803922;"
         offset="1"
         id="stop4239" />
    </linearGradient>
    <linearGradient
       id="linearGradient4225">
      <stop
         style="stop-color:#ffffff;stop-opacity:1;"
         offset="0"
         id="stop4227" />
      <stop
         id="stop4233"
         offset="0.69999999"
         style="stop-color:#ffffff;stop-opacity:0.78431374;" />
      <stop
         style="stop-color:#ffffff;stop-opacity:0.49803922;"
         offset="1"
         id="stop4229" />
    </linearGradient>
    <linearGradient
       id="linearGradient4213">
      <stop
         style="stop-color:#ffffff;stop-opacity:1;"
         offset="0"
         id="stop4215" />
      <stop
         id="stop4221"
         offset="0.69863015"
         style="stop-color:#ffffff;stop-opacity:1;" />
      <stop
         style="stop-color:#ffffff;stop-opacity:0.49803922;"
         offset="1"
         id="stop4217" />
    </linearGradient>
  </defs>
  <sodipodi:namedview
     pagecolor="#ffffff"
     bordercolor="#666666"
     borderopacity="1"
     objecttolerance="10"
     gridtolerance="10"
     guidetolerance="10"
     inkscape:pageopacity="0"
     inkscape:pageshadow="2"
     inkscape:window-width="1920"
     inkscape:window-height="1056"
     id="namedview4"
     showgrid="false"
     inkscape:zoom="0.354536"
     inkscape:cx="192.72671"
     inkscape:cy="-571.15127"
     inkscape:window-x="0"
     inkscape:window-y="24"
     inkscape:window-maximized="1"
     inkscape:current-layer="svg2"
     fit-margin-top="0"
     fit-margin-left="0"
     fit-margin-right="0"
     fit-margin-bottom="0" />
  <g
     id="creature"
     transform="translate(-706.0378,0.91908461)">
    <path
       style="fill:#000000;fill-opacity:1;stroke:none"
       d="m 923.18432,268.3347 24.93071,-11.96674 c 0,0 2.8527,4.48305 2.74238,6.9806 -0.0798,1.80577 -2.42006,4.85263 -2.42006,4.85263 l 3.4903,-0.6749 c 0,0 1.36627,6.10949 0.17629,8.78624 -0.67009,1.5073 -3.7396,3.24099 -3.7396,3.24099 l 3.98891,-0.38282 c 0,0 0.66689,5.50891 -0.49861,7.86203 -0.95027,1.91857 -4.85264,4.20798 -4.85264,4.20798 l 3.35679,0.89396 c 0,0 -1.2295,5.09694 -2.99168,6.86481 -1.31928,1.32353 -5.13219,2.25629 -5.13219,2.25629 l 4.34149,1.07025 c 0,0 -1.51852,4.99833 -3.19822,6.89505 -1.97225,2.22706 -7.58247,4.70659 -7.58247,4.70659 l 3.69682,0.89396 c 0,0 -2.6523,4.60917 -4.59079,6.36619 -1.77196,1.60608 -6.20243,3.6061 -6.20243,3.6061 l 5.0894,0.46837 c 0,0 -2.91617,4.26022 -4.87034,5.89782 -1.68278,1.41018 -5.73406,3.24099 -5.73406,3.24099 l 3.80009,1.36233 c 0,0 -3.51454,4.10172 -5.54524,5.86758 -1.70572,1.48327 -5.52753,3.92842 -5.52753,3.92842 l 4.23822,0.74792 c 0,0 -1.36271,3.80183 -0.70515,5.54525 0.66488,1.76284 2.35424,3.75582 4.23822,3.7396 4.58333,-0.0395 11.37999,-0.0193 18.19942,-1.24654 2.0852,-0.37525 4.91349,-1.00765 5.23545,-2.99168 0.33938,-2.09134 -2.19781,-5.30747 -4.23822,-4.73683 -3.59024,1.00407 -6.50881,1.26502 -9.80853,1.4656 -2.70984,0.16472 -5.75453,0.2291 -8.14158,-0.21907 -0.89843,-0.16868 -0.50177,-1.97827 0,-2.74237 9.11982,-13.88772 17.59705,-26.56843 24.29859,-40.95939 2.5833,-5.54743 5.64088,-10.8528 6.05638,-17.33052 0.53791,-8.38619 1.11442,-17.24912 -1.38004,-24.67406 -1.65,-4.91134 -4.6461,-9.57175 -4.6461,-9.57175 l -23.25859,10.57416 z"
       id="right leg 1"
       inkscape:connector-curvature="0"
       sodipodi:nodetypes="ccaccaccaccaccaccaccaccaccassasassassccc" />
    <path
       style="fill:#000000;fill-opacity:1;stroke:none"
       d="m 943.48676,190.03713 c 0,0 11.98434,-9.56161 18.15754,-14.10294 14.99525,-11.03129 29.62623,-22.75166 45.8346,-31.9079 10.0312,-5.66672 20.4587,-11.00407 31.5553,-14.10294 3.1941,-0.89199 9.872,-1.23401 9.872,-1.23401 0,0 0.1423,6.12736 -0.1762,9.16691 -0.6175,5.89137 -1.7694,11.7434 -3.3495,17.45239 -2.4199,8.74315 -5.5929,17.30119 -9.3432,25.56158 -8.2299,18.12722 -18.8507,35.07609 -28.7347,52.35717 -7.64018,13.35807 -23.62245,39.66452 -23.62245,39.66452 0,0 2.33237,1.68491 3.70202,1.93916 4.0132,0.74498 8.09363,-0.83639 12.16379,-1.4103 1.32684,-0.18709 3.16094,-0.0741 3.87834,1.05772 0.5431,0.85679 0.4429,2.70603 -0.5289,2.99688 -3.50849,1.05006 -6.60252,2.32001 -10.04834,2.46801 -3.80291,0.16334 -7.62277,-0.71585 -11.28235,-1.76287 -2.8857,-0.82561 -8.28548,-3.52573 -8.28548,-3.52573 0,0 3.48519,-1.73191 4.93603,-2.99688 0.91309,-0.79611 2.29173,-2.82058 2.29173,-2.82058 l -3.70203,-0.88144 c 0,0 3.86116,-0.57362 5.46489,-1.58658 1.79474,-1.13361 4.23089,-4.75974 4.23089,-4.75974 l -5.64118,-0.70515 c 0,0 3.71936,-0.76763 5.2886,-1.76287 1.50924,-0.95719 3.70202,-3.8783 3.70202,-3.8783 l -3.70202,-0.88144 c 0,0 3.36951,-1.21096 4.75974,-2.29173 1.87704,-1.45921 4.58346,-5.46489 4.58346,-5.46489 l -3.34945,-1.41029 c 0,0 3.82555,-1.45779 5.46489,-2.6443 1.98621,-1.43757 5.1123,-5.2886 5.1123,-5.2886 l -5.28859,-0.70515 c 0,0 3.37869,-0.92544 4.75979,-1.93916 1.7832,-1.30883 4.2308,-5.11231 4.2308,-5.11231 l -5.8174,-0.88144 c 0,0 3.6242,-1.16342 5.1123,-2.29172 1.8286,-1.38644 4.4072,-5.28861 4.4072,-5.28861 l -3.5258,-2.29172 c 0,0 3.2596,-0.36754 4.5835,-1.23401 1.889,-1.23631 4.2309,-5.28861 4.2309,-5.28861 l -3.1732,-2.46801 c 0,0 3.4034,-1.03155 4.7597,-2.11544 3.1491,-2.51657 7.2278,-9.69577 7.2278,-9.69577 l -5.8175,0 c 0,0 3.9053,-1.88916 5.4649,-3.34945 2.1542,-2.01695 5.1123,-7.22776 5.1123,-7.22776 l -4.2308,-0.70515 c 0,0 3.5736,-1.75819 5.1123,-2.99687 1.6196,-1.30384 4.2309,-4.58346 4.2309,-4.58346 l -4.4072,-0.35257 c 0,0 2.8616,-1.68593 4.0546,-2.82059 1.1838,-1.12595 2.9969,-3.87831 2.9969,-3.87831 l -5.4649,-0.52886 c 0,0 3.0404,-1.21689 4.2309,-2.29173 1.1613,-1.04855 2.6443,-3.8783 2.6443,-3.8783 l -4.5835,-0.70515 c 0,0 2.6706,-1.00282 3.702,-1.93916 1.3516,-1.22697 2.9969,-4.58345 2.9969,-4.58345 l -4.936,-0.70515 c 0,0 3.3319,-1.66803 4.5834,-2.99687 1.6241,-1.72442 3.5258,-6.17004 3.5258,-6.17004 l -2.1155,-3.52574 c 0,0 2.6378,-1.93999 3.3495,-3.34944 1.4197,-2.81156 1.4102,-9.3432 1.4102,-9.3432 0,0 -4.6707,0.90386 -6.8751,1.76286 -10.3128,4.01862 -19.8698,9.83639 -29.2636,15.68953 -11.29381,7.03704 -22.04897,14.95339 -32.43679,23.26985 -9.03229,7.23122 -17.45205,15.2027 -25.91416,23.09357 -2.46169,2.29551 -7.22775,7.05147 -7.22775,7.05147 z"
       id="right leg 2"
       inkscape:connector-curvature="0"
       sodipodi:nodetypes="caaacaaaacasasaacaccaccaccaccaccaccaccaccaccaccaccaccaccaccaccacaaaacc" />
    <path
       style="fill:#000000;fill-opacity:1;stroke:none"
       d="m 924.68016,145.67559 6.48198,5.48476 c 0,0 9.07311,-14.2505 14.21051,-20.9418 13.92078,-18.13141 28.6368,-35.767139 44.87528,-51.855888 5.65402,-5.601883 18.19947,-15.457042 18.19947,-15.457042 0,0 1.0092,3.233526 0.4986,4.736836 -0.7373,2.170687 -4.7369,4.986142 -4.7369,4.986142 l 4.4876,-0.249307 c 0,0 0.6437,4.35497 -0.2493,6.232679 -0.8091,1.701481 -4.2383,3.739607 -4.2383,3.739607 l 3.9889,0.747921 c 0,0 -0.4132,3.332806 -1.2465,4.736835 -1.0501,1.769343 -4.4875,4.238222 -4.4875,4.238222 l 4.7368,0.747921 c 0,0 -0.2491,2.994551 -0.9972,4.238221 -0.9107,1.513994 -3.9889,3.490303 -3.9889,3.490303 l 3.7396,0.99723 c 0,0 -0.3093,4.01726 -1.2466,5.73406 -1.239,2.26935 -5.48471,5.48476 -5.48471,5.48476 l 4.23821,0.74792 c 0,0 -0.7347,4.01047 -1.7451,5.73406 -1.4564,2.48454 -5.98341,6.23268 -5.98341,6.23268 l 4.23822,0.49861 c 0,0 -0.93362,4.60812 -2.24376,6.48199 -1.65844,2.37204 -6.73129,5.48476 -6.73129,5.48476 l 5.23545,0.74792 c 0,0 -0.43376,5.87621 -1.99446,8.22713 -1.31457,1.98016 -5.73407,4.23823 -5.73407,4.23823 l 3.73961,1.24653 -3.24099,9.22436 -6.23268,2.99169 4.48753,1.49584 c 0,0 -1.603,4.01534 -3.09495,5.49729 -2.06172,2.0479 -7.62526,4.22569 -7.62526,4.22569 l 5.73407,1.49584 c 0,0 -1.02603,5.25215 -2.52332,7.37596 -1.33898,1.89925 -5.45451,4.34148 -5.45451,4.34148 l 4.73683,1.24654 c 0,0 -1.3646,3.82032 -2.52331,5.45451 -1.73359,2.44497 -6.45174,6.26292 -6.45174,6.26292 l 6.33594,-1.05772 c 0,0 -1.44145,5.53707 -3.09495,7.78901 -2.02791,2.76185 -7.97783,6.48199 -7.97783,6.48199 l 5.48476,0.74792 c 0,0 -1.35626,3.70688 -2.55357,5.23545 -1.5192,1.93951 -5.67357,4.73684 -5.67357,4.73684 l 5.16243,-0.13351 c 0,0 -1.8614,3.76105 -3.16797,5.38148 -1.74574,2.1651 -6.12942,5.66105 -6.12942,5.66105 l 4.13496,1.30702 c 0,0 -0.50463,2.50247 -1.24653,3.4903 -1.10809,1.4754 -4.48753,3.241 -4.48753,3.241 0,0 5.16471,-0.51479 7.72852,-0.24931 3.14761,0.32593 6.11701,1.64534 9.22436,2.24376 2.30808,0.4445 4.85376,1.07477 6.9806,0.99723 1.36965,-0.0499 1.47078,-2.70276 0.99723,-3.98891 -0.49399,-1.3417 -2.0245,-2.37897 -3.4903,-2.49307 -4.76164,-0.37065 -12.21605,0 -12.21605,0 0,0 17.63897,-48.97079 25.42933,-73.79491 6.93156,-22.08754 14.80103,-44.03903 18.94733,-66.81432 1.7775,-9.763556 2.7458,-19.746726 2.4931,-29.667545 -0.126,-4.946303 -1.9945,-14.70912 -1.9945,-14.70912 0,0 -13.61658,8.335391 -19.69524,13.462585 -10.96136,9.245631 -20.35578,20.226753 -29.91685,30.91409 -8.69766,9.72222 -16.71126,20.03643 -24.93071,30.16616 -3.94976,4.86771 -11.71744,14.70912 -11.71744,14.70912 z"
       id="right leg 3"
       inkscape:connector-curvature="0"
       sodipodi:nodetypes="ccaacaccaccaccaccaccaccaccacccccaccaccaccaccaccaccacaasascaaacaaac" />
    <path
       style="fill:none;stroke:#000000;stroke-width:4;stroke-linecap:round;stroke-linejoin:round;stroke-miterlimit:4;stroke-opacity:1;stroke-dasharray:none"
       d="m 891.52231,130.96647 c 0,0 0.52277,-17.80076 2.49307,-26.42656 3.51313,-15.380193 8.55637,-30.719598 16.45427,-44.376668 4.49037,-7.764761 17.20219,-20.692492 17.20219,-20.692492 0,0 10.13491,12.587868 13.21328,19.94457 5.60567,13.396462 7.25998,28.211145 8.97506,42.63152 2.01284,16.924 1.49584,51.10796 1.49584,51.10796 l 11.21882,-0.2493"
       id="right leg 4"
       inkscape:connector-curvature="0"
       sodipodi:nodetypes="caacaacc" />
    <path
       style="fill:#000000;fill-opacity:1;stroke:none"
       d="m 835.95184,262.13842 c 0,0 -8.38993,-2.19896 -12.51636,-3.52573 -4.10553,-1.32006 -12.16379,-4.40717 -12.16379,-4.40717 0,0 -1.90255,4.18879 -1.58658,6.34632 0.31689,2.16379 3.34945,5.64117 3.34945,5.64117 l -4.0546,0 c 0,0 0.40243,5.39812 1.58658,7.75662 0.98971,1.97123 4.40717,4.93603 4.40717,4.93603 l -4.23088,0.52886 c 0,0 0.59826,2.87637 1.41029,4.0546 1.08874,1.57973 4.40717,3.70202 4.40717,3.70202 L 810.74283,287.7 c 0,0 1.03028,4.39831 2.11544,6.34633 1.34006,2.40562 5.2886,6.34632 5.2886,6.34632 l -4.05459,-0.17629 c 0,0 1.60898,5.32838 3.34945,7.40404 1.73843,2.07322 6.69889,4.58346 6.69889,4.58346 l -4.23088,1.93915 c 0,0 1.7308,3.16094 2.99688,4.40717 1.75389,1.7264 6.17003,4.0546 6.17003,4.0546 l -3.70202,2.11544 c 0,0 3.0095,3.6881 4.75974,5.2886 1.51777,1.38792 4.93603,3.70203 4.93603,3.70203 l -5.2886,0.88143 c 0,0 3.9422,4.05494 5.81746,6.17004 1.52235,1.71705 4.17267,3.91234 4.40717,5.2886 0.23817,1.39785 -0.1722,4.61266 -2.46801,7.05147 -2.06834,2.19717 -5.98212,0.82435 -8.99062,1.05772 -3.10728,0.24102 -5.81871,0.13314 -9.3432,0.35257 -0.97611,0.0608 -1.58659,-2.46801 -1.58659,-2.46801 l -6.34632,0 c 0,0 4.02799,-2.9126 6.34633,-3.70203 1.73869,-0.59205 3.6393,-0.90718 5.46488,-0.70514 1.36724,0.15131 2.52885,1.14347 3.87831,1.41029 1.38471,0.27379 2.95552,0.78112 4.23089,0.17629 1.32736,-0.62948 3.60142,-2.41126 2.6443,-3.52573 -7.204,-8.3883 -12.36167,-16.73284 -16.74724,-26.09044 -4.47179,-9.54156 -7.66086,-19.77278 -9.51949,-30.14504 -1.70182,-9.4972 -1.70127,-20.04095 -1.4103,-28.91103 0.20314,-6.19248 3.52574,-11.28235 3.52574,-11.28235 0,0 6.82964,1.95389 10.22464,2.99687 3.30409,1.01505 6.55853,2.18932 9.87205,3.17316 1.92684,0.57211 5.81746,1.58658 5.81746,1.58658 z"
       id="left leg 1"
       inkscape:connector-curvature="0"
       sodipodi:nodetypes="cacaccaccaccaccaccaccaccassasccaaaasaascaacc" />
    <path
       style="fill:#000000;fill-opacity:1;stroke:none"
       d="m 824.9573,196.78355 c 0,0 -17.21094,-16.50475 -27.42378,-22.43764 -14.62592,-8.49655 -30.74691,-15.06312 -47.36836,-18.19942 -13.22939,-2.49625 -40.38775,-0.24931 -40.38775,-0.24931 0,0 0.10433,3.59426 0.74792,5.23545 0.95941,2.44654 4.48753,6.48199 4.48753,6.48199 l -3.4903,0.74792 c 0,0 0.44292,4.11128 1.24653,5.98337 1.03659,2.41485 4.48753,6.48198 4.48753,6.48198 0,0 -1.70163,1.11214 -1.74515,1.99446 -0.10567,2.14202 3.73961,5.23545 3.73961,5.23545 l 5.73406,4.23822 -4.98614,0.49862 c 0,0 1.29079,4.1881 2.49307,5.98337 1.3733,2.05064 5.23545,5.23545 5.23545,5.23545 l -2.99168,1.99445 c 0,0 2.5681,4.04297 4.23822,5.73407 2.12558,2.15229 7.22991,5.48476 7.22991,5.48476 l -5.23545,1.74515 c 0,0 1.97945,2.52635 3.24099,3.4903 1.5654,1.19612 5.23545,2.74237 5.23545,2.74237 l -2.99169,2.49308 c 0,0 2.51921,2.66176 3.98892,3.7396 1.2302,0.90219 3.98891,2.24377 3.98891,2.24377 l -4.23822,1.99445 c 0,0 2.78126,3.23703 4.48753,4.48753 1.88873,1.38422 6.23268,3.24099 6.23268,3.24099 l -4.98615,1.49585 c 0,0 3.05843,3.10421 4.73684,4.48753 2.20662,1.81866 6.9806,4.98614 6.9806,4.98614 l -3.98892,1.99446 c 0,0 3.61835,3.15523 5.73407,4.23822 1.94174,0.99393 6.23268,1.99445 6.23268,1.99445 l -6.7313,1.24654 c 0,0 1.83545,2.63896 2.99169,3.73961 1.33647,1.27221 4.48753,3.24099 4.48753,3.24099 l -4.98614,0.49861 1.49584,3.241 c 0,0 -8.72457,2.59479 -13.21328,3.24099 -5.4344,0.78234 -16.45427,0.74792 -16.45427,0.74792 l -1.24654,-1.49584 2.74238,-1.24654 -2.74238,-1.74515 1.24654,-1.49584 c 0,0 9.65299,0.11566 14.45981,-0.24931 3.09383,-0.2349 9.22436,-1.24653 9.22436,-1.24653 0,0 -4.66224,-5.85999 -6.73129,-8.97506 -9.74687,-14.67449 -19.12773,-29.70568 -26.67586,-45.62321 -5.50939,-11.61823 -10.25066,-23.69882 -13.46259,-36.14953 -2.24585,-8.7058 -3.98891,-26.67586 -3.98891,-26.67586 0,0 14.70648,-3.2112 22.18834,-3.4903 12.24817,-0.4569 24.72142,0.1669 36.64815,2.99168 9.50536,2.25129 18.57504,6.33593 27.17447,10.96952 12.09479,6.51697 33.90577,23.43486 33.90577,23.43486 z"
       id="left leg 2"
       inkscape:connector-curvature="0"
       sodipodi:nodetypes="caacaccacacccaccaccaccaccaccaccaccacccacccccacaaacaaacc" />
    <path
       style="fill:#000000;fill-opacity:1;stroke:none"
       d="m 851.88247,141.93598 c 0,0 -10.25511,-17.59574 -16.95288,-25.18002 -11.30698,-12.80355 -24.26504,-24.433428 -38.6426,-33.656462 -9.51697,-6.105021 -19.86065,-11.580997 -30.91409,-13.9612 -1.78729,-0.384867 -5.48476,0 -5.48476,0 0,0 -3.37909,16.03402 -3.73961,24.182792 -0.62205,14.06027 0.6682,28.21257 2.74239,42.1329 2.73009,18.32229 7.15413,36.42934 12.71466,54.09966 5.79945,18.42958 21.44041,53.85033 21.44041,53.85033 0,0 -5.48987,0.16745 -8.22713,0 -4.76352,-0.2914 -14.21051,-1.74515 -14.21051,-1.74515 0,0 1.89693,1.97363 2.24376,3.241 0.30787,1.12503 -0.2493,3.4903 -0.2493,3.4903 0,0 2.57096,1.57315 3.98891,1.49584 7.64616,-0.41687 12.99671,0.19897 20.19388,-0.74792 1.73806,-0.22867 4.48753,-2.74238 4.48753,-2.74238 0,0 -4.09018,-0.44474 -4.98615,-1.99446 -0.58823,-1.01744 0.49862,-3.4903 0.49862,-3.4903 l 5.23545,0.24931 c 0,0 -3.49145,-2.64947 -4.98614,-4.23822 -1.7083,-1.8158 -4.48753,-5.98337 -4.48753,-5.98337 l 3.98891,0 c 0,0 -4.06115,-3.95872 -5.73406,-6.23268 -1.08117,-1.46962 -2.74238,-4.73684 -2.74238,-4.73684 l 2.99168,-0.99722 c 0,0 -3.37675,-3.14071 -4.73683,-4.98615 -1.41268,-1.91681 -3.4903,-6.23268 -3.4903,-6.23268 l 3.98891,-0.74792 c 0,0 -4.14847,-4.42062 -5.73406,-6.9806 -1.39065,-2.24525 -3.24099,-7.2299 -3.24099,-7.2299 l 3.4903,-1.49585 c 0,0 -3.82219,-3.91653 -5.23545,-6.23267 -1.45507,-2.38466 -3.241,-7.72853 -3.241,-7.72853 l 5.48476,0 c 0,0 -5.14382,-4.78281 -6.9806,-7.72852 -1.42072,-2.27847 -2.99168,-7.47921 -2.99168,-7.47921 l 4.23822,-0.74792 c 0,0 -3.54068,-4.43569 -4.73684,-6.9806 -1.14109,-2.42775 -2.24376,-7.72852 -2.24376,-7.72852 l 4.73683,0.2493 c 0,0 -3.10411,-4.67695 -4.23822,-7.2299 -1.34443,-3.02642 -2.99168,-9.47367 -2.99168,-9.47367 l 3.98891,-0.74793 c 0,0 -3.17032,-4.47665 -4.23822,-6.98059 -1.01221,-2.37336 -1.99446,-7.47922 -1.99446,-7.47922 l 3.24099,-0.24931 c 0,0 -2.58829,-4.49959 -3.24099,-6.9806 -1.06053,-4.03122 -0.99723,-12.465353 -0.99723,-12.465353 l 3.98892,0 c 0,0 -1.81304,-1.999631 -2.24377,-3.240992 -0.43672,-1.258619 -0.2493,-3.988914 -0.2493,-3.988914 l 3.7396,-0.249308 c 0,0 -2.03288,-4.891893 -2.49307,-7.479214 -0.48045,-2.701243 -0.24931,-8.227135 -0.24931,-8.227135 0,0 2.35742,-0.264861 3.4903,0 8.39585,1.962897 15.92264,6.821303 23.18557,11.468128 10.25462,6.560909 19.80627,14.334566 28.42101,22.936258 7.94436,7.93233 15.04645,16.78162 21.19111,26.17725 2.86843,4.38603 7.2299,13.9612 7.2299,13.9612 z"
       id="left leg 3"
       inkscape:connector-curvature="0"
       sodipodi:nodetypes="caaacaaacacacsscaccaccaccaccaccaccaccaccaccaccaccaccacaaaacc" />
    <path
       style="fill:none;stroke:#000000;stroke-width:4;stroke-linecap:round;stroke-linejoin:round;stroke-miterlimit:4;stroke-opacity:1;stroke-dasharray:none"
       d="m 877.3118,129.22132 c 0,0 -1.47113,-20.50499 -3.98891,-30.415473 C 869.6178,84.221862 864.58664,69.735809 857.11792,56.672942 853.008,49.48466 841.66088,37.226985 841.66088,37.226985 c 0,0 -10.74462,18.632339 -14.45981,28.670321 -4.45644,12.040749 -7.54831,24.666961 -9.22437,37.396074 -2.17014,16.48154 -0.99722,49.86142 -0.99722,49.86142 l -11.46813,-0.2493"
       id="left leg 4"
       inkscape:connector-curvature="0"
       sodipodi:nodetypes="caacaacc" />
    <path
       style="fill:none;stroke:#000000;stroke-width:1.5;stroke-linecap:butt;stroke-linejoin:miter;stroke-miterlimit:4;stroke-opacity:1;stroke-dasharray:none"
       d="M 885.04032,127.97478 887.03478,-0.16908461"
       id="silk"
       inkscape:connector-curvature="0" />
    <path
       sodipodi:nodetypes="aaaaaaaaaa"
       inkscape:connector-curvature="0"
       id="body"
       d="m 824.95731,233.93031 c -3.82546,-18.13289 -6.25064,-38.0621 -0.24931,-55.59549 6.28786,-18.3705 18.5844,-37.08758 35.90022,-45.87251 13.79169,-6.99701 32.16532,-7.60844 46.37113,-1.49584 16.33011,7.02666 29.16448,23.24148 35.40162,39.88914 6.53114,17.43237 3.93428,37.76462 -0.49862,55.84479 -4.2658,17.3986 -10.99037,36.02518 -24.4321,47.86698 -9.94104,8.75778 -24.15467,13.89645 -37.39607,13.46258 -14.13448,-0.46313 -28.89052,-6.95438 -38.89191,-16.95288 -9.55382,-9.55106 -13.41634,-23.92854 -16.20496,-37.14677 z"
       style="fill:#000000;fill-opacity:1;stroke:none" />
    <g
       id="left eye">
      <path
         style="fill:#ffffff;fill-opacity:1;stroke:none"
         d="m 852.6304,242.15745 c 6.29097,-0.12577 13.42842,4.60548 15.70635,10.4709 2.38602,6.14375 0.008,14.62213 -4.73684,19.19665 -4.39992,4.24208 -12.1263,5.59373 -17.95011,3.7396 -8.49789,-2.70548 -12.88316,-12.67557 -11.21882,-20.19387 1.62033,-7.31954 10.70418,-13.06344 18.19942,-13.21328 z"
         id="left sclera"
         inkscape:connector-curvature="0"
         sodipodi:nodetypes="aaasaa" />
      <path
         style="fill:#000000;fill-opacity:1;stroke:none"
         d="m 842.90742,257.61449 c 2.70644,-2.547 8.39843,-4.67803 10.96951,-1.99446 3.12416,3.26084 0.27526,10.09551 -2.99169,13.21328 -2.74776,2.62229 -8.62118,4.76555 -11.21881,1.99446 -3.1015,-3.30859 -0.0615,-10.10531 3.24099,-13.21328 z"
         id="left pupil"
         inkscape:connector-curvature="0"
         sodipodi:nodetypes="aaaaa" />
    </g>
    <g
       id="right eye">
      <path
         style="fill:#ffffff;fill-opacity:1;stroke:none"
         d="m 906.97935,246.89428 c 5.01587,-0.1162 10.29518,2.8403 13.46259,6.7313 2.65964,3.26723 3.83114,8.0447 3.24099,12.21605 -0.6109,4.31809 -3.14067,8.74363 -6.73129,11.21882 -3.89217,2.68307 -9.69624,4.53216 -13.9612,2.49306 -4.7637,-2.27755 -8.49371,-4.06059 -10.47091,-7.97782 -2.4717,-4.89695 -2.98837,-11.7017 -0.2493,-16.45427 2.80523,-4.86736 9.09276,-8.09703 14.70912,-8.22714 z"
         id="right sclera"
         inkscape:connector-curvature="0"
         sodipodi:nodetypes="aaaasaaa" />
      <path
         sodipodi:nodetypes="aaaaa"
         inkscape:connector-curvature="0"
         id="right pupil"
         d="m 904.73559,259.35964 c 3.31246,-2.23788 8.9825,0.92471 11.21881,4.23822 2.09253,3.10047 2.80928,9.06554 -0.2493,11.21882 -3.22324,2.2692 -8.9481,-0.51744 -11.21882,-3.73961 -2.25044,-3.19339 -2.98785,-9.53041 0.24931,-11.71743 z"
         style="fill:#000000;fill-opacity:1;stroke:none" />
    </g>
  </g>
</svg>
