<?xml version="1.0" encoding="UTF-8" standalone="no"?>
<!-- Created with Inkscape (http://www.inkscape.org/) -->

<svg
   xmlns:dc="http://purl.org/dc/elements/1.1/"
   xmlns:cc="http://creativecommons.org/ns#"
   xmlns:rdf="http://www.w3.org/1999/02/22-rdf-syntax-ns#"
   xmlns:svg="http://www.w3.org/2000/svg"
   xmlns="http://www.w3.org/2000/svg"
   xmlns:xlink="http://www.w3.org/1999/xlink"
   xmlns:sodipodi="http://sodipodi.sourceforge.net/DTD/sodipodi-0.dtd"
   xmlns:inkscape="http://www.inkscape.org/namespaces/inkscape"
   width="640px"
   height="480px"
   id="svg5883"
   version="1.1"
   inkscape:version="0.48.2 r9819"
   sodipodi:docname="Thread.eps">
  <title
     id="title6513">Manja</title>
  <defs
     id="defs5885">
    <linearGradient
       inkscape:collect="always"
       id="linearGradient6505">
      <stop
         style="stop-color:#ffff3e;stop-opacity:1"
         offset="0"
         id="stop6507" />
      <stop
         style="stop-color:#364e59;stop-opacity:1"
         offset="1"
         id="stop6509" />
    </linearGradient>
    <linearGradient
       inkscape:collect="always"
       id="linearGradient6429">
      <stop
         style="stop-color:#b88100;stop-opacity:1;"
         offset="0"
         id="stop6431" />
      <stop
         style="stop-color:#804d00;stop-opacity:1"
         offset="1"
         id="stop6433" />
    </linearGradient>
    <radialGradient
       inkscape:collect="always"
       xlink:href="#linearGradient6429"
       id="radialGradient6421"
       cx="-428.54791"
       cy="125.9826"
       fx="-428.54791"
       fy="125.9826"
       r="124.5625"
       gradientTransform="matrix(0.04113694,0.50263514,-0.53029744,0.04693165,288.39214,534.97278)"
       gradientUnits="userSpaceOnUse" />
    <radialGradient
       inkscape:collect="always"
       xlink:href="#linearGradient6429"
       id="radialGradient6477"
       gradientUnits="userSpaceOnUse"
       gradientTransform="matrix(0.04113694,0.50263514,-0.53029744,0.04693165,211.53044,530.97643)"
       cx="-428.54791"
       cy="125.9826"
       fx="-428.54791"
       fy="125.9826"
       r="124.5625" />
    <radialGradient
       inkscape:collect="always"
       xlink:href="#linearGradient6505"
       id="radialGradient6511"
       cx="753.85309"
       cy="542.74561"
       fx="753.85309"
       fy="542.74561"
       r="322.60424"
       gradientTransform="matrix(-1.6540794,-0.97270602,0.7602192,-1.2927297,1027.9443,1476.0356)"
       gradientUnits="userSpaceOnUse" />
    <radialGradient
       inkscape:collect="always"
       xlink:href="#linearGradient6429-7"
       id="radialGradient6477-1"
       gradientUnits="userSpaceOnUse"
       gradientTransform="matrix(0.04113694,0.50263514,-0.53029744,0.04693165,211.53044,530.97643)"
       cx="-428.54791"
       cy="125.9826"
       fx="-428.54791"
       fy="125.9826"
       r="124.5625" />
    <linearGradient
       inkscape:collect="always"
       id="linearGradient6429-7">
      <stop
         style="stop-color:#b88100;stop-opacity:1;"
         offset="0"
         id="stop6431-4" />
      <stop
         style="stop-color:#804d00;stop-opacity:1"
         offset="1"
         id="stop6433-0" />
    </linearGradient>
    <radialGradient
       r="124.5625"
       fy="125.9826"
       fx="-428.54791"
       cy="125.9826"
       cx="-428.54791"
       gradientTransform="matrix(0.04113694,0.50263514,-0.53029744,0.04693165,436.31453,531.76338)"
       gradientUnits="userSpaceOnUse"
       id="radialGradient3986"
       xlink:href="#linearGradient6429-7"
       inkscape:collect="always" />
  </defs>
  <sodipodi:namedview
     id="base"
     pagecolor="#ffffff"
     bordercolor="#666666"
     borderopacity="1.0"
     inkscape:pageopacity="0.0"
     inkscape:pageshadow="2"
     inkscape:zoom="1.5494506"
     inkscape:cx="242.41818"
     inkscape:cy="197.7128"
     inkscape:current-layer="layer1"
     inkscape:document-units="px"
     showgrid="false"
     inkscape:window-width="1366"
     inkscape:window-height="706"
     inkscape:window-x="-8"
     inkscape:window-y="-8"
     inkscape:window-maximized="1" />
  <metadata
     id="metadata5888">
    <rdf:RDF>
      <cc:Work
         rdf:about="">
        <dc:format>image/svg+xml</dc:format>
        <dc:type
           rdf:resource="http://purl.org/dc/dcmitype/StillImage" />
        <dc:title>Manja</dc:title>
        <cc:license
           rdf:resource="http://creativecommons.org/licenses/publicdomain/" />
        <dc:subject>
          <rdf:Bag>
            <rdf:li>manja</rdf:li>
            <rdf:li>kite thread</rdf:li>
            <rdf:li>kites festival</rdf:li>
            <rdf:li>festivals of India</rdf:li>
            <rdf:li>hyderabad festival</rdf:li>
          </rdf:Bag>
        </dc:subject>
        <dc:description>Manja (or manjha), is the abrasive string used with fighter kites in Afghanistan, Bangladesh, Chile, India, Nepal and Pakistan. It is gummed, coloured and coated with powdered glass.

Kites are fought all throughout the year and during special kite flying festivals in the region. Two fighters will entangle the glass powder coated manja while flying their kites in the sky and try to cut off the string of each others kites.</dc:description>
        <dc:date>2010-12-28</dc:date>
        <dc:creator>
          <cc:Agent>
            <dc:title>netalloy</dc:title>
          </cc:Agent>
        </dc:creator>
      </cc:Work>
      <cc:License
         rdf:about="http://creativecommons.org/licenses/publicdomain/">
        <cc:permits
           rdf:resource="http://creativecommons.org/ns#Reproduction" />
        <cc:permits
           rdf:resource="http://creativecommons.org/ns#Distribution" />
        <cc:permits
           rdf:resource="http://creativecommons.org/ns#DerivativeWorks" />
      </cc:License>
    </rdf:RDF>
  </metadata>
  <g
     id="layer1"
     inkscape:label="Layer 1"
     inkscape:groupmode="layer">
    <rect
       rx="2.8448873"
       y="192.75108"
       x="316.53369"
       height="107.23541"
       width="76.861694"
       id="rect6469-2"
       style="fill:#008000;fill-opacity:1;stroke:#000000;stroke-width:2;stroke-linecap:round;stroke-miterlimit:4;stroke-opacity:1;stroke-dasharray:none;stroke-dashoffset:0" />
    <path
       style="fill:url(#radialGradient6421);fill-opacity:1;stroke:#000000;stroke-width:2;stroke-linecap:round;stroke-miterlimit:4;stroke-opacity:1;stroke-dashoffset:0;stroke-dasharray:none"
       d="m 201.39754,58.38835 c -1.8433,0.07926 -3.93498,1.454587 -6.12526,3.337959 -1.2146,1.04441 -2.85328,1.312024 -2.85328,2.950941 l 0,109.97512 c 0,1.63894 1.27722,2.96707 2.85328,2.96707 l 8.35826,0 1.96938,0 c 1.57607,0 2.83777,-1.32813 2.83777,-2.96707 l 0,-109.97512 c 0,-1.638917 -2.15594,-1.473329 -2.83777,-2.950941 -1.13847,-2.467189 -2.57595,-3.40791 -4.20238,-3.337959 z m 2.233,119.23109 c -34.13652,0 -61.81074,4.17052 -61.81074,9.32048 0,0.21459 0.0605,0.43405 0.15508,0.64501 -0.095,0.17851 -0.15508,0.37738 -0.15508,0.59665 l 0,6.176 c 0,0.68901 0.53146,1.24167 1.19405,1.24167 l 37.75943,0 c 7.07829,0.42589 14.77198,0.66114 22.85726,0.66114 8.08526,0 15.79448,-0.23525 22.87275,-0.66114 l 37.74392,0 c 0.66258,0 1.19404,-0.55266 1.19404,-1.24167 l 0,-6.176 c 0,-0.21136 -0.0508,-0.40657 -0.13956,-0.58052 0.0986,-0.21542 0.13956,-0.44193 0.13956,-0.66114 0,-5.14996 -27.67421,-9.32048 -61.81071,-9.32048 z"
       id="rect5891"
       inkscape:connector-curvature="0" />
    <rect
       style="fill:#ff6600;fill-opacity:1;stroke:#000000;stroke-width:2;stroke-linecap:round;stroke-miterlimit:4;stroke-opacity:1;stroke-dasharray:none;stroke-dashoffset:0"
       id="rect6407"
       width="76.861694"
       height="107.23541"
       x="164.24287"
       y="196.93288"
       rx="2.8448873" />
    <path
       style="fill:#804d00;fill-opacity:1;stroke:#000000;stroke-width:2;stroke-linecap:round;stroke-miterlimit:4;stroke-opacity:1;stroke-dashoffset:0;stroke-dasharray:none"
       d="m 204.91761,305.49374 c -8.08527,0 -15.77897,0.23525 -22.85725,0.66115 l -37.75944,0 c -0.66256,0 -1.19404,0.55267 -1.19404,1.24165 l 0,6.17603 c 0,0.21926 0.06,0.41812 0.15507,0.59663 -0.0946,0.21096 -0.15507,0.43043 -0.15507,0.64501 0,4.60294 22.11885,8.41566 51.18846,9.17536 -0.75046,0.53155 -1.22504,1.43156 -1.22504,2.45106 l 0,109.97512 c 0,1.63892 1.62317,1.90653 2.83777,2.95094 4.12286,3.54517 7.89891,5.26333 10.32763,0 0.68183,-1.47762 2.83777,-1.31202 2.83777,-2.95094 l 0,-109.97512 c 0,-0.94336 -0.41261,-1.7811 -1.06998,-2.32206 32.69126,-0.24421 58.72484,-4.31177 58.72484,-9.30436 0,-0.2192 -0.0409,-0.44571 -0.13956,-0.66113 0.0887,-0.17395 0.13956,-0.36916 0.13956,-0.58051 l 0,-6.17603 c 0,-0.68898 -0.53148,-1.24165 -1.19404,-1.24165 l -37.74392,0 c -7.07829,-0.4259 -14.7875,-0.66115 -22.87276,-0.66115 z"
       id="path6409"
       inkscape:connector-curvature="0" />
    <path
       style="fill:none;stroke:#e0391a;stroke-width:1.53121853;stroke-linecap:butt;stroke-linejoin:miter;stroke-miterlimit:4;stroke-opacity:1;stroke-dasharray:none"
       d="m 168.34048,197.53177 70.32516,4.29303 -69.06935,-0.7155 67.81354,7.87055 -64.04612,-2.86202 65.30193,7.87055 -71.58097,-2.86203 70.32516,7.15506 -71.58096,-1.43101 c 0,0 80.37161,8.58605 71.58096,7.87055 -8.79063,-0.71549 -66.55774,-2.86202 -66.55774,-2.86202 0,0 74.09258,10.01707 67.81355,8.58606 -6.27903,-1.43101 -71.58097,-4.29302 -71.58097,-4.29302 0,0 79.11581,9.30156 74.09258,9.30156 -5.02321,0 -79.11581,-1.43102 -74.09258,-1.43102 5.02322,0 78.51999,11.60324 71.58097,7.87055 -8.06131,-4.33639 -123.59051,13.64262 -118.04581,36.70592"
       id="path6439"
       inkscape:connector-curvature="0"
       sodipodi:nodetypes="cccccccccscscsssc" />
    <path
       inkscape:connector-curvature="0"
       id="path6441"
       d="m 168.34048,233.49893 70.32516,4.29303 -69.06935,-0.71551 67.81354,7.87054 -64.04612,-2.86201 65.30193,7.87056 -71.58097,-2.86202 70.32516,7.15505 -71.58096,-1.43102 c 0,0 80.37161,8.58607 71.58096,7.87056 -8.79063,-0.71551 -66.55774,-2.86201 -66.55774,-2.86201 0,0 74.09258,10.01706 67.81355,8.58605 -6.27903,-1.43101 -71.58097,-4.29303 -71.58097,-4.29303 0,0 79.11581,9.30156 74.09258,9.30156 -5.02321,0 -79.11581,-1.43101 -74.09258,-1.43101 5.02322,0 79.11581,10.01706 71.58097,7.87055 -7.53484,-2.14651 -71.92878,10.06359 -71.92878,10.06359"
       style="fill:none;stroke:#e0391a;stroke-width:1.07579982;stroke-linecap:butt;stroke-linejoin:miter;stroke-miterlimit:4;stroke-opacity:1;stroke-dasharray:none"
       sodipodi:nodetypes="cccccccccscscsssc" />
    <path
       id="path6467-9"
       d="m 349.3199,55.178953 c -1.84327,0.07926 -3.93496,1.454588 -6.12523,3.33796 -1.2146,1.044409 -2.85328,1.312024 -2.85328,2.95094 l 0,109.975117 c 0,1.63893 1.2772,2.96708 2.85328,2.96708 l 8.35824,0 1.96938,0 c 1.57608,0 2.83778,-1.32815 2.83778,-2.96708 l 0,-109.975117 c 0,-1.638916 -2.15593,-1.473328 -2.83778,-2.95094 -1.13846,-2.467189 -2.57594,-3.40791 -4.20239,-3.33796 z m 2.23301,119.231097 c -34.1365,0 -61.81071,4.17051 -61.81071,9.32046 0,0.21459 0.0605,0.43405 0.15507,0.64502 -0.095,0.17851 -0.15507,0.37738 -0.15507,0.59665 l 0,6.17601 c 0,0.68901 0.53147,1.24166 1.19404,1.24166 l 37.75943,0 c 7.07828,0.42588 14.77198,0.66113 22.85724,0.66113 8.08527,0 15.79447,-0.23525 22.87277,-0.66113 l 37.74391,0 c 0.66259,0 1.19405,-0.55265 1.19405,-1.24166 l 0,-6.17601 c 0,-0.21137 -0.0508,-0.40658 -0.13957,-0.58052 0.0987,-0.21543 0.13957,-0.44194 0.13957,-0.66115 0,-5.14995 -27.6742,-9.32046 -61.81073,-9.32046 z"
       style="fill:url(#radialGradient3986);fill-opacity:1;stroke:#000000;stroke-width:2;stroke-linecap:round;stroke-miterlimit:4;stroke-opacity:1;stroke-dasharray:none;stroke-dashoffset:0"
       inkscape:connector-curvature="0" />
    <path
       id="path6443"
       d="m 275.79025,54.468989 c -1.84327,0.07926 -3.93497,1.454586 -6.12523,3.337948 -1.21461,1.04442 -2.85329,1.312024 -2.85329,2.950949 l 0,109.975134 c 0,1.63891 1.27721,2.96706 2.85329,2.96706 l 8.35824,0 1.96938,0 c 1.57608,0 2.83777,-1.32815 2.83777,-2.96706 l 0,-109.975134 c 0,-1.638925 -2.15593,-1.473327 -2.83777,-2.950949 -1.13846,-2.467178 -2.57595,-3.40791 -4.20239,-3.337948 z m 2.23301,119.231091 c -34.13651,0 -61.81072,4.17051 -61.81072,9.32048 0,0.21458 0.0605,0.43404 0.15506,0.64501 -0.095,0.17851 -0.15506,0.37737 -0.15506,0.59663 l 0,6.17603 c 0,0.689 0.53146,1.24166 1.19403,1.24166 l 37.75944,0 c 7.07828,0.42588 14.77197,0.66113 22.85725,0.66113 8.08527,0 15.79447,-0.23525 22.87276,-0.66113 l 37.74392,0 c 0.66256,0 1.19403,-0.55266 1.19403,-1.24166 l 0,-6.17603 c 0,-0.21136 -0.0508,-0.40656 -0.13955,-0.58051 0.0987,-0.21543 0.13955,-0.44193 0.13955,-0.66113 0,-5.14997 -27.67421,-9.32048 -61.81071,-9.32048 z"
       style="fill:#b88100;fill-opacity:1;stroke:#000000;stroke-width:2;stroke-linecap:round;stroke-miterlimit:4;stroke-opacity:1;stroke-dasharray:none;stroke-dashoffset:0"
       inkscape:connector-curvature="0" />
    <rect
       rx="2.8448873"
       y="193.01349"
       x="238.63562"
       height="107.23541"
       width="76.861694"
       id="rect6445"
       style="fill:#0084c8;fill-opacity:1;stroke:#000000;stroke-width:2;stroke-linecap:round;stroke-miterlimit:4;stroke-opacity:1;stroke-dasharray:none;stroke-dashoffset:0" />
    <path
       id="path6471-4"
       d="m 354.13077,300.34818 c -8.08526,0 -15.77897,0.23524 -22.85724,0.66113 l -37.75944,0 c -0.66257,0 -1.19403,0.55267 -1.19403,1.24166 l 0,6.17603 c 0,0.21926 0.0601,0.41812 0.15507,0.59663 -0.0945,0.21096 -0.15507,0.43043 -0.15507,0.64502 0,4.60294 22.11884,8.41565 51.18844,9.17535 -0.75045,0.53155 -1.22504,1.43158 -1.22504,2.45105 l 0,109.97512 c 0,1.63894 1.62316,1.90654 2.83777,2.95095 4.12287,3.54516 7.89891,5.26334 10.32763,0 0.68184,-1.47761 2.83777,-1.31201 2.83777,-2.95095 l 0,-109.97512 c 0,-0.94334 -0.41261,-1.7811 -1.06997,-2.32205 32.69126,-0.24422 58.72483,-4.31176 58.72483,-9.30435 0,-0.21921 -0.0409,-0.44572 -0.13955,-0.66114 0.0887,-0.17394 0.13955,-0.36915 0.13955,-0.58051 l 0,-6.17603 c 0,-0.68899 -0.53147,-1.24166 -1.19403,-1.24166 l -37.74394,0 c -7.07827,-0.42589 -14.78748,-0.66113 -22.87275,-0.66113 z"
       style="fill:#804d00;fill-opacity:1;stroke:#000000;stroke-width:2;stroke-linecap:round;stroke-miterlimit:4;stroke-opacity:1;stroke-dasharray:none;stroke-dashoffset:0;marker-start:none"
       inkscape:connector-curvature="0" />
    <path
       id="path6447"
       d="m 279.31034,301.57439 c -8.08527,0 -15.77897,0.23525 -22.85725,0.66113 l -37.75943,0 c -0.66258,0 -1.19404,0.55266 -1.19404,1.24166 l 0,6.17602 c 0,0.21926 0.06,0.41814 0.15507,0.59664 -0.0946,0.21097 -0.15507,0.43043 -0.15507,0.64503 0,4.60293 22.11884,8.41564 51.18845,9.17533 -0.75047,0.53155 -1.22505,1.43159 -1.22505,2.45106 l 0,109.97512 c 0,1.63893 1.62317,1.90654 2.83778,2.95096 4.12286,3.54515 7.8989,5.26332 10.32763,0 0.68184,-1.47762 2.83777,-1.31203 2.83777,-2.95096 l 0,-109.97512 c 0,-0.94334 -0.41262,-1.78109 -1.06998,-2.32206 32.69125,-0.24421 58.72483,-4.31175 58.72483,-9.30433 0,-0.21922 -0.0409,-0.44573 -0.13955,-0.66116 0.0887,-0.17394 0.13955,-0.36915 0.13955,-0.58051 l 0,-6.17602 c 0,-0.689 -0.53146,-1.24166 -1.19403,-1.24166 l -37.74393,0 c -7.07827,-0.42588 -14.78749,-0.66113 -22.87275,-0.66113 z"
       style="fill:#804d00;fill-opacity:1;stroke:#000000;stroke-width:2;stroke-linecap:round;stroke-miterlimit:4;stroke-opacity:1;stroke-dasharray:none;stroke-dashoffset:0"
       inkscape:connector-curvature="0" />
    <path
       sodipodi:nodetypes="cccccccccscscsssc"
       inkscape:connector-curvature="0"
       id="path6449"
       d="m 240.7332,191.61241 70.32517,4.29303 -69.06936,-0.71551 67.81356,7.87054 -64.04614,-2.86201 65.30194,7.87056 -71.58096,-2.86202 70.32516,7.15505 -71.58099,-1.43102 c 0,0 80.37163,8.58607 71.58099,7.87056 -8.79065,-0.71551 -66.55775,-2.86201 -66.55775,-2.86201 0,0 74.09258,10.01706 67.81355,8.58605 -6.27904,-1.43101 -71.58096,-4.29303 -71.58096,-4.29303 0,0 79.1158,9.30156 74.09256,9.30156 -5.02322,0 -79.1158,-1.43101 -74.09256,-1.43101 5.02321,0 78.51998,11.60324 71.58096,7.87055 -8.06131,-4.33639 -123.59051,13.64261 -118.0458,36.70591"
       style="fill:none;stroke:#2a1ae0;stroke-width:1.53121853;stroke-linecap:butt;stroke-linejoin:miter;stroke-miterlimit:4;stroke-opacity:1;stroke-dasharray:none" />
    <path
       sodipodi:nodetypes="cccccccccscscsssc"
       style="fill:none;stroke:#26419c;stroke-width:1.07579982;stroke-linecap:butt;stroke-linejoin:miter;stroke-miterlimit:4;stroke-opacity:1;stroke-dasharray:none"
       d="m 240.7332,231.57956 70.32517,4.29303 -69.06936,-0.7155 67.81356,7.87056 -64.04614,-2.86203 65.30194,7.87055 -71.58096,-2.86201 70.32516,7.15504 -71.58099,-1.43101 c 0,0 80.37163,8.58605 71.58099,7.87056 -8.79065,-0.7155 -66.55775,-2.86202 -66.55775,-2.86202 0,0 74.09258,10.01706 67.81355,8.58607 -6.27904,-1.43103 -71.58096,-4.29304 -71.58096,-4.29304 0,0 79.1158,9.30156 74.09256,9.30156 -5.02322,0 -79.1158,-1.43102 -74.09256,-1.43102 5.02321,0 79.1158,10.01707 71.58096,7.87056 -7.53484,-2.14652 -71.9288,10.06357 -71.9288,10.06357"
       id="path6451"
       inkscape:connector-curvature="0" />
    <path
       id="path6467"
       d="m 124.53581,54.391999 c -1.84327,0.07926 -3.93496,1.454588 -6.12523,3.33796 -1.2146,1.044409 -2.85328,1.312024 -2.85328,2.95094 l 0,109.975121 c 0,1.63893 1.2772,2.96708 2.85328,2.96708 l 8.35824,0 1.96938,0 c 1.57608,0 2.83778,-1.32815 2.83778,-2.96708 l 0,-109.975121 c 0,-1.638916 -2.15593,-1.473328 -2.83778,-2.95094 -1.13846,-2.467189 -2.57594,-3.40791 -4.20239,-3.33796 z m 2.23301,119.231101 c -34.136499,0 -61.810711,4.17051 -61.810711,9.32046 0,0.21459 0.06052,0.43405 0.15507,0.64502 -0.09501,0.17851 -0.15507,0.37738 -0.15507,0.59665 l 0,6.17601 c 0,0.68901 0.531465,1.24166 1.194035,1.24166 l 37.759436,0 c 7.07828,0.42588 14.77198,0.66113 22.85724,0.66113 8.08527,0 15.79447,-0.23525 22.87277,-0.66113 l 37.74391,0 c 0.66259,0 1.19405,-0.55265 1.19405,-1.24166 l 0,-6.17601 c 0,-0.21137 -0.0508,-0.40658 -0.13957,-0.58052 0.0987,-0.21543 0.13957,-0.44194 0.13957,-0.66115 0,-5.14995 -27.6742,-9.32046 -61.81073,-9.32046 z"
       style="fill:url(#radialGradient6477);fill-opacity:1;stroke:#000000;stroke-width:2;stroke-linecap:round;stroke-miterlimit:4;stroke-opacity:1;stroke-dashoffset:0;stroke-dasharray:none"
       inkscape:connector-curvature="0" />
    <rect
       rx="2.8448873"
       y="192.93651"
       x="87.381165"
       height="107.23541"
       width="76.861694"
       id="rect6469"
       style="fill:#ffff3e;fill-opacity:1;stroke:#000000;stroke-width:2;stroke-linecap:round;stroke-miterlimit:4;stroke-opacity:1;stroke-dasharray:none;stroke-dashoffset:0" />
    <path
       id="path6471"
       d="m 128.0559,301.4974 c -8.08526,0 -15.77897,0.23524 -22.85724,0.66113 l -37.759438,0 c -0.662571,0 -1.194036,0.55267 -1.194036,1.24166 l 0,6.17603 c 0,0.21926 0.06006,0.41812 0.15507,0.59663 -0.09455,0.21096 -0.15507,0.43043 -0.15507,0.64502 0,4.60294 22.118847,8.41565 51.188444,9.17535 -0.75045,0.53155 -1.22504,1.43158 -1.22504,2.45105 l 0,109.97512 c 0,1.63894 1.62316,1.90654 2.83777,2.95095 4.12287,3.54516 7.89891,5.26334 10.32763,0 0.68184,-1.47761 2.83777,-1.31201 2.83777,-2.95095 l 0,-109.97512 c 0,-0.94334 -0.41261,-1.7811 -1.06997,-2.32205 32.69126,-0.24422 58.72483,-4.31176 58.72483,-9.30435 0,-0.21921 -0.0409,-0.44572 -0.13955,-0.66114 0.0887,-0.17394 0.13955,-0.36915 0.13955,-0.58051 l 0,-6.17603 c 0,-0.68899 -0.53147,-1.24166 -1.19403,-1.24166 l -37.74394,0 c -7.07827,-0.42589 -14.78748,-0.66113 -22.87275,-0.66113 z"
       style="fill:#804d00;fill-opacity:1;stroke:#000000;stroke-width:2;stroke-linecap:round;stroke-miterlimit:4;stroke-opacity:1;stroke-dashoffset:0;stroke-dasharray:none;marker-start:none"
       inkscape:connector-curvature="0" />
    <path
       sodipodi:nodetypes="cccccccccscscsssc"
       inkscape:connector-curvature="0"
       id="path6473"
       d="m 91.478778,193.53541 70.325152,4.29305 -69.069347,-0.71552 67.813547,7.87056 -64.046127,-2.86202 65.301927,7.87055 -71.580958,-2.86202 70.325158,7.15505 -71.580968,-1.43102 c 0,0 80.371618,8.58607 71.580968,7.87056 -8.79065,-0.7155 -66.557741,-2.86201 -66.557741,-2.86201 0,0 74.092581,10.01705 67.813541,8.58606 -6.27904,-1.43103 -71.580958,-4.29303 -71.580958,-4.29303 0,0 79.115808,9.30155 74.092578,9.30155 -5.02323,0 -79.115808,-1.431 -74.092578,-1.431 5.023227,0 78.519978,11.60323 71.580958,7.87055 -8.06131,-4.33641 -123.590497,13.64261 -118.045801,36.70592"
       style="fill:none;stroke:#e9e724;stroke-width:1.53121853;stroke-linecap:butt;stroke-linejoin:miter;stroke-miterlimit:4;stroke-opacity:1;stroke-dasharray:none" />
    <path
       sodipodi:nodetypes="cccccccccscscsssc"
       style="fill:none;stroke:#e4d806;stroke-width:1.07579982;stroke-linecap:butt;stroke-linejoin:miter;stroke-miterlimit:4;stroke-opacity:1;stroke-dasharray:none"
       d="m 91.478778,231.50258 70.325152,4.29302 -69.069347,-0.7155 67.813547,7.87056 -64.046127,-2.86203 65.301927,7.87055 -71.580958,-2.862 70.325158,7.15504 -71.580968,-1.43102 c 0,0 80.371618,8.58606 71.580968,7.87056 -8.79065,-0.7155 -66.557741,-2.86202 -66.557741,-2.86202 0,0 74.092581,10.01707 67.813541,8.58605 -6.27904,-1.431 -71.580958,-4.29302 -71.580958,-4.29302 0,0 79.115808,9.30157 74.092578,9.30157 -5.02323,0 -79.115808,-1.43103 -74.092578,-1.43103 5.023227,0 79.115808,10.01708 71.580958,7.87055 -7.53484,-2.1465 -71.92878,10.06359 -71.92878,10.06359"
       id="path6475"
       inkscape:connector-curvature="0" />
    <path
       sodipodi:nodetypes="cccccccccscscsssc"
       inkscape:connector-curvature="0"
       id="path6473-8"
       d="m 319.48982,194.32236 70.32515,4.29305 -69.06935,-0.71552 67.81355,7.87056 -64.04613,-2.86202 65.30193,7.87055 -71.58096,-2.86202 70.32516,7.15505 -71.58097,-1.43102 c 0,0 80.37162,8.58607 71.58097,7.87056 -8.79065,-0.7155 -66.55774,-2.86201 -66.55774,-2.86201 0,0 74.09258,10.01705 67.81354,8.58606 -6.27904,-1.43103 -71.58096,-4.29303 -71.58096,-4.29303 0,0 79.11581,9.30155 74.09258,9.30155 -5.02323,0 -79.11581,-1.431 -74.09258,-1.431 5.02323,0 78.51998,11.60323 71.58096,7.87055 -8.06131,-4.33641 -123.5905,13.64261 -118.0458,36.70592"
       style="fill:none;stroke:#112b00;stroke-width:1.53121853000000010;stroke-linecap:butt;stroke-linejoin:miter;stroke-miterlimit:4;stroke-opacity:1;stroke-dasharray:none" />
    <path
       sodipodi:nodetypes="cccccccccscscsssc"
       style="fill:none;stroke:#112b00;stroke-width:1.07579982000000010;stroke-linecap:butt;stroke-linejoin:miter;stroke-miterlimit:4;stroke-opacity:1;stroke-dasharray:none"
       d="m 320.13521,233.58031 70.32515,4.29302 -69.06935,-0.7155 67.81355,7.87056 -64.04613,-2.86203 65.30193,7.87055 -71.58096,-2.862 70.32516,7.15504 -71.58097,-1.43102 c 0,0 80.37162,8.58606 71.58097,7.87056 -8.79065,-0.7155 -66.55774,-2.86202 -66.55774,-2.86202 0,0 74.09258,10.01707 67.81354,8.58605 -6.27904,-1.431 -71.58096,-4.29302 -71.58096,-4.29302 0,0 79.11581,9.30157 74.09258,9.30157 -5.02323,0 -79.11581,-1.43103 -74.09258,-1.43103 5.02323,0 79.11581,10.01708 71.58096,7.87055 -7.53484,-2.1465 -71.92878,10.06359 -71.92878,10.06359"
       id="path6475-8"
       inkscape:connector-curvature="0" />
  </g>
</svg>
