<?xml version="1.0" encoding="UTF-8" standalone="no"?>
<!-- Created with Inkscape (http://www.inkscape.org/) -->

<svg
   xmlns:dc="http://purl.org/dc/elements/1.1/"
   xmlns:cc="http://creativecommons.org/ns#"
   xmlns:rdf="http://www.w3.org/1999/02/22-rdf-syntax-ns#"
   xmlns:svg="http://www.w3.org/2000/svg"
   xmlns="http://www.w3.org/2000/svg"
   xmlns:xlink="http://www.w3.org/1999/xlink"
   xmlns:sodipodi="http://sodipodi.sourceforge.net/DTD/sodipodi-0.dtd"
   xmlns:inkscape="http://www.inkscape.org/namespaces/inkscape"
   height="200.00000pt"
   id="svg2"
   inkscape:version="0.48.2 r9819"
   sodipodi:docname="Dinosaur1.eps"
   sodipodi:version="0.32"
   width="270.00000pt"
   inkscape:output_extension="org.inkscape.output.svg.inkscape"
   version="1.1">
  <metadata
     id="metadata3">
    <rdf:RDF>
      <cc:Work
         rdf:about="">
        <dc:title></dc:title>
        <dc:description />
        <dc:subject>
          <rdf:Bag>
            <rdf:li>silhouette</rdf:li>
            <rdf:li>gallimimus</rdf:li>
            <rdf:li>dino</rdf:li>
            <rdf:li>dinosaur</rdf:li>
            <rdf:li>jurassic</rdf:li>
          </rdf:Bag>
        </dc:subject>
        <dc:publisher>
          <cc:Agent
             rdf:about="http://www.openclipart.org/">
            <dc:title>Moisés Rincón Maza</dc:title>
          </cc:Agent>
        </dc:publisher>
        <dc:creator>
          <cc:Agent>
            <dc:title>Moisés Rincón Maza</dc:title>
          </cc:Agent>
        </dc:creator>
        <dc:rights>
          <cc:Agent>
            <dc:title>Moisés Rincón Maza</dc:title>
          </cc:Agent>
        </dc:rights>
        <dc:date>23-7-2005</dc:date>
        <dc:format>image/svg+xml</dc:format>
        <dc:type
           rdf:resource="http://purl.org/dc/dcmitype/StillImage" />
        <cc:license
           rdf:resource="http://web.resource.org/cc/PublicDomain" />
        <dc:language>Spanish</dc:language>
      </cc:Work>
      <cc:License
         rdf:about="http://web.resource.org/cc/PublicDomain">
        <cc:permits
           rdf:resource="http://web.resource.org/cc/Reproduction" />
        <cc:permits
           rdf:resource="http://web.resource.org/cc/Distribution" />
        <cc:permits
           rdf:resource="http://web.resource.org/cc/DerivativeWorks" />
      </cc:License>
    </rdf:RDF>
  </metadata>
  <defs
     id="defs3">
    <linearGradient
       id="linearGradient20672"
       inkscape:collect="always">
      <stop
         id="stop20674"
         offset="0"
         style="stop-color:#486800;stop-opacity:1;" />
      <stop
         id="stop20676"
         offset="1"
         style="stop-color:#486800;stop-opacity:0;" />
    </linearGradient>
    <linearGradient
       id="linearGradient20664"
       inkscape:collect="always">
      <stop
         id="stop20666"
         offset="0"
         style="stop-color:#488c00;stop-opacity:1;" />
      <stop
         id="stop20668"
         offset="1"
         style="stop-color:#488c00;stop-opacity:0;" />
    </linearGradient>
    <linearGradient
       id="linearGradient19030"
       inkscape:collect="always">
      <stop
         id="stop19032"
         offset="0"
         style="stop-color:#000000;stop-opacity:1;" />
      <stop
         id="stop19034"
         offset="1"
         style="stop-color:#000000;stop-opacity:0;" />
    </linearGradient>
    <linearGradient
       id="linearGradient14414">
      <stop
         id="stop14416"
         offset="0.0000000"
         style="stop-color:#ffffff;stop-opacity:0.74226803;" />
      <stop
         id="stop14418"
         offset="1"
         style="stop-color:#ffffff;stop-opacity:0;" />
    </linearGradient>
    <linearGradient
       id="linearGradient12887"
       inkscape:collect="always">
      <stop
         id="stop12889"
         offset="0"
         style="stop-color:#d58d00;stop-opacity:1;" />
      <stop
         id="stop12891"
         offset="1"
         style="stop-color:#d58d00;stop-opacity:0;" />
    </linearGradient>
    <linearGradient
       id="linearGradient12121"
       inkscape:collect="always">
      <stop
         id="stop12123"
         offset="0"
         style="stop-color:#b16e00;stop-opacity:1;" />
      <stop
         id="stop12125"
         offset="1"
         style="stop-color:#b16e00;stop-opacity:0;" />
    </linearGradient>
    <linearGradient
       id="linearGradient12113"
       inkscape:collect="always">
      <stop
         id="stop12115"
         offset="0"
         style="stop-color:#b16e00;stop-opacity:1;" />
      <stop
         id="stop12117"
         offset="1"
         style="stop-color:#b16e00;stop-opacity:0;" />
    </linearGradient>
    <linearGradient
       id="linearGradient11339">
      <stop
         id="stop11341"
         offset="0"
         style="stop-color:#d5b46e;stop-opacity:1;" />
      <stop
         id="stop11343"
         offset="1.0000000"
         style="stop-color:#000005;stop-opacity:0.73195875;" />
    </linearGradient>
    <linearGradient
       id="linearGradient11331">
      <stop
         id="stop11333"
         offset="0"
         style="stop-color:#b1650b;stop-opacity:1;" />
      <stop
         id="stop11335"
         offset="1.0000000"
         style="stop-color:#b06100;stop-opacity:0.49484536;" />
    </linearGradient>
    <linearGradient
       id="linearGradient11323">
      <stop
         id="stop11325"
         offset="0"
         style="stop-color:#e5e16e;stop-opacity:1;" />
      <stop
         id="stop11327"
         offset="1.0000000"
         style="stop-color:#e58600;stop-opacity:1.0000000;" />
    </linearGradient>
    <linearGradient
       gradientTransform="scale(1.163066,0.859797)"
       gradientUnits="userSpaceOnUse"
       id="linearGradient16727"
       inkscape:collect="always"
       x1="344.31363"
       x2="576.55530"
       xlink:href="#linearGradient11323"
       y1="44.644398"
       y2="384.20380" />
    <linearGradient
       gradientTransform="scale(1.019025,0.981330)"
       gradientUnits="userSpaceOnUse"
       id="linearGradient16729"
       inkscape:collect="always"
       x1="549.49158"
       x2="523.97321"
       xlink:href="#linearGradient11339"
       y1="148.15480"
       y2="127.19344" />
    <linearGradient
       gradientTransform="scale(0.653730,1.529684)"
       gradientUnits="userSpaceOnUse"
       id="linearGradient16731"
       inkscape:collect="always"
       x1="794.09137"
       x2="735.34839"
       xlink:href="#linearGradient12887"
       y1="114.67494"
       y2="137.25027" />
    <linearGradient
       gradientTransform="scale(1.560569,0.640792)"
       gradientUnits="userSpaceOnUse"
       id="linearGradient16733"
       inkscape:collect="always"
       x1="277.78339"
       x2="335.13428"
       xlink:href="#linearGradient11339"
       y1="220.02016"
       y2="220.02016" />
    <linearGradient
       gradientTransform="scale(0.798543,1.252280)"
       gradientUnits="userSpaceOnUse"
       id="linearGradient16735"
       inkscape:collect="always"
       x1="622.24658"
       x2="713.80133"
       xlink:href="#linearGradient14414"
       y1="117.85094"
       y2="131.10078" />
    <linearGradient
       gradientTransform="matrix(0.000000,0.335734,-2.669632,0.000000,763.4911,-102.1786)"
       gradientUnits="userSpaceOnUse"
       id="linearGradient16737"
       inkscape:collect="always"
       x1="622.24658"
       x2="713.80133"
       xlink:href="#linearGradient14414"
       y1="117.85094"
       y2="131.10078" />
    <linearGradient
       gradientTransform="matrix(0.000000,-1.160112,2.857648,0.000000,176.3599,856.3455)"
       gradientUnits="userSpaceOnUse"
       id="linearGradient16739"
       inkscape:collect="always"
       x1="622.24658"
       x2="713.80133"
       xlink:href="#linearGradient14414"
       y1="117.85094"
       y2="131.10078" />
    <linearGradient
       gradientTransform="scale(1.582834,0.631778)"
       gradientUnits="userSpaceOnUse"
       id="linearGradient16741"
       inkscape:collect="always"
       x1="216.06819"
       x2="403.70635"
       xlink:href="#linearGradient11331"
       y1="104.82754"
       y2="104.82754" />
    <linearGradient
       gradientTransform="scale(0.792885,1.261218)"
       gradientUnits="userSpaceOnUse"
       id="linearGradient16743"
       inkscape:collect="always"
       x1="725.12188"
       x2="752.31910"
       xlink:href="#linearGradient12121"
       y1="99.496238"
       y2="99.496238" />
    <linearGradient
       gradientTransform="scale(1.479511,0.675899)"
       gradientUnits="userSpaceOnUse"
       id="linearGradient16745"
       inkscape:collect="always"
       x1="400.80823"
       x2="415.09677"
       xlink:href="#linearGradient12113"
       y1="188.38432"
       y2="188.38432" />
    <linearGradient
       gradientTransform="matrix(1.479511,0.000000,0.000000,0.675899,45.42998,-111.9666)"
       gradientUnits="userSpaceOnUse"
       id="linearGradient16747"
       inkscape:collect="always"
       x1="400.80823"
       x2="415.09677"
       xlink:href="#linearGradient12113"
       y1="188.38432"
       y2="188.38432" />
    <radialGradient
       cx="90.266831"
       cy="544.12898"
       fx="90.266831"
       fy="544.12898"
       gradientTransform="scale(2.226732,0.449089)"
       gradientUnits="userSpaceOnUse"
       id="radialGradient19036"
       inkscape:collect="always"
       r="53.441557"
       xlink:href="#linearGradient19030" />
    <radialGradient
       cx="90.266831"
       cy="544.12898"
       fx="90.266831"
       fy="544.12898"
       gradientTransform="scale(2.226732,0.449089)"
       gradientUnits="userSpaceOnUse"
       id="radialGradient19040"
       inkscape:collect="always"
       r="53.441557"
       xlink:href="#linearGradient19030" />
    <radialGradient
       cx="90.266831"
       cy="544.12898"
       fx="90.266831"
       fy="544.12898"
       gradientTransform="scale(2.226732,0.449089)"
       gradientUnits="userSpaceOnUse"
       id="radialGradient19044"
       inkscape:collect="always"
       r="53.441557"
       xlink:href="#linearGradient19030" />
    <radialGradient
       cx="90.266831"
       cy="544.12898"
       fx="90.266831"
       fy="544.12898"
       gradientTransform="scale(2.226732,0.449089)"
       gradientUnits="userSpaceOnUse"
       id="radialGradient19055"
       inkscape:collect="always"
       r="53.441557"
       xlink:href="#linearGradient19030" />
    <radialGradient
       cx="90.266831"
       cy="544.12898"
       fx="90.266831"
       fy="544.12898"
       gradientTransform="scale(2.226732,0.449089)"
       gradientUnits="userSpaceOnUse"
       id="radialGradient19057"
       inkscape:collect="always"
       r="53.441557"
       xlink:href="#linearGradient19030" />
    <radialGradient
       cx="90.266831"
       cy="544.12898"
       fx="90.266831"
       fy="544.12898"
       gradientTransform="scale(2.226732,0.449089)"
       gradientUnits="userSpaceOnUse"
       id="radialGradient19059"
       inkscape:collect="always"
       r="53.441557"
       xlink:href="#linearGradient19030" />
    <linearGradient
       gradientTransform="scale(1.211462,0.825449)"
       gradientUnits="userSpaceOnUse"
       id="linearGradient20670"
       inkscape:collect="always"
       x1="-0.82544902"
       x2="332.65596"
       xlink:href="#linearGradient20664"
       y1="153.52399"
       y2="153.52399" />
    <linearGradient
       gradientTransform="scale(1.313558,0.761291)"
       gradientUnits="userSpaceOnUse"
       id="linearGradient20678"
       inkscape:collect="always"
       x1="15.640210"
       x2="295.00476"
       xlink:href="#linearGradient20672"
       y1="199.29022"
       y2="199.29022" />
  </defs>
  <sodipodi:namedview
     bordercolor="#666666"
     borderopacity="1.0"
     id="base"
     inkscape:current-layer="layer1"
     inkscape:cx="178.2485"
     inkscape:cy="218.97239"
     inkscape:document-units="px"
     inkscape:pageopacity="0.0"
     inkscape:pageshadow="2"
     inkscape:window-height="683"
     inkscape:window-width="1024"
     inkscape:window-x="0"
     inkscape:window-y="26"
     inkscape:zoom="2"
     pagecolor="#ffffff"
     showgrid="false"
     inkscape:window-maximized="0" />
  <g
     id="layer1"
     inkscape:groupmode="layer"
     inkscape:label="Layer 1">
    <path
       d="M 307.50000,1.3750000 C 304.04613,1.5302300 299.33053,2.7676230 297.37500,5.3750000 C 294.58053,9.1009560 293.28334,15.306882 293.25000,20.375000 C 293.20001,27.973549 296.43615,35.659904 297.12500,43.375000 C 297.68615,49.659904 297.77892,56.143662 297.00000,62.375000 C 296.36225,67.476995 294.97082,72.717625 292.87500,77.375000 C 291.22082,81.050960 289.27707,86.390700 285.75000,87.375000 C 278.52707,89.390700 268.96482,87.096280 260.62500,86.375000 C 253.54816,85.762950 246.56258,83.375000 239.50000,83.375000 C 229.47924,83.375000 219.24656,84.472050 209.37500,86.375000 C 198.49656,88.472050 187.93853,92.306520 177.25000,95.375000 C 170.52187,97.306520 163.89306,99.605570 157.12500,101.37500 C 151.14306,102.93890 145.12001,104.65883 139.00000,105.37500 C 131.41167,106.26300 123.63342,106.64755 116.00000,106.18750 C 104.96676,105.52255 94.029690,102.21665 83.000000,102.00000 C 70.696360,101.75832 58.262180,103.32839 46.000000,104.81250 C 37.262180,105.87005 27.780400,106.17476 20.000000,109.62500 C 13.780400,112.38310 7.5284200,118.00704 4.0000000,123.43750 C 2.1950800,126.21538 2.3244600,134.29833 4.0000000,134.25000 C 6.6577900,134.17333 11.877780,125.15941 17.000000,123.06250 C 25.211110,119.70108 34.983650,117.93648 44.000000,117.87500 C 53.316990,117.81148 62.717750,120.82705 72.000000,122.68750 C 82.051090,124.70205 92.098340,126.85581 102.00000,129.50000 C 114.09834,132.73081 125.76005,137.92571 138.00000,140.31250 C 150.76005,142.80071 165.53046,140.67711 177.00000,144.12500 C 179.98879,145.02347 179.11386,151.33216 181.37500,153.34375 C 183.03052,154.81655 188.94963,152.83653 188.75000,154.56250 C 188.19963,159.32091 183.32179,168.29176 179.12500,172.78125 C 177.57179,174.44280 173.20162,171.79394 171.50000,173.03125 C 169.78495,174.27832 169.28906,177.77424 168.87500,180.25000 C 168.53906,182.25862 169.88626,184.52019 169.25000,186.46875 C 166.13626,196.00457 160.52702,205.04363 157.62500,214.68750 C 156.25098,219.25359 156.54656,224.31409 156.43750,229.09375 C 156.41113,230.24964 156.56581,231.56034 157.21875,232.50000 C 159.76373,236.16255 163.32848,239.26396 166.00000,242.90625 C 167.19306,244.53284 167.08011,248.32670 168.81250,248.31250 C 174.94470,248.26224 188.14238,245.29465 189.62500,242.71875 C 190.67363,240.89686 180.20220,238.35121 176.40625,235.12500 C 173.06678,232.28676 168.03112,228.57292 168.18750,224.53125 C 168.56238,214.84180 173.20822,203.28676 178.00000,193.93750 C 181.39052,187.32224 191.42067,177.76899 192.75000,176.62500 C 193.58734,175.90441 183.12712,185.69716 184.50000,188.34375 C 186.33545,191.88206 196.41667,192.90364 202.37500,195.18750 C 208.33333,197.47136 214.19480,200.05423 220.25000,202.03125 C 224.61147,203.45527 230.16687,202.76176 233.62500,205.37500 C 238.41687,208.99613 241.77811,215.33407 245.00000,220.75000 C 246.56978,223.38876 246.92754,229.77316 248.00000,229.56250 C 249.26088,229.31483 250.66404,218.96323 252.00000,219.37500 C 253.70571,219.90073 255.08606,231.83128 257.12500,232.37500 C 258.83606,232.83128 264.12436,225.67258 263.25000,222.37500 C 261.20769,214.67258 255.24008,204.42905 248.37500,199.37500 C 241.65675,194.42905 230.97428,195.15020 222.50000,192.37500 C 216.72428,190.48354 210.65798,188.32768 205.62500,185.37500 C 204.40798,184.66102 203.17215,182.61525 203.75000,181.37500 C 206.58882,175.28192 212.65642,169.69070 215.87500,163.37500 C 217.07309,161.02403 215.28220,156.49683 217.00000,155.37500 C 219.36554,153.83016 224.74493,156.60412 228.12500,155.37500 C 234.82826,152.93745 241.09812,148.37109 247.25000,144.37500 C 250.84812,142.03776 254.55501,136.19008 257.37500,136.37500 C 259.63834,136.52342 261.78060,142.15885 262.50000,145.37500 C 263.19726,148.49218 260.21971,153.16061 261.62500,155.37500 C 261.63852,155.39630 261.67318,155.41634 261.68750,155.43750 C 261.58993,155.54609 261.51904,155.68288 261.46875,155.93750 C 261.00854,158.26767 260.97564,165.56747 261.37500,166.78125 C 261.54559,167.29975 262.58970,162.43012 263.18750,161.12500 C 263.62087,160.17883 264.06805,159.72173 264.50000,159.21875 C 265.30585,160.15929 266.12651,161.04866 266.84375,162.78125 C 267.80890,165.11275 268.98121,173.67151 269.43750,172.78125 C 270.29133,171.11539 271.09824,163.37089 271.21875,158.03125 C 271.48275,157.86056 271.74350,157.70560 271.96875,157.40625 C 272.25217,157.78025 272.53425,158.04875 272.81250,158.65625 C 273.41030,159.96137 274.45440,164.79974 274.62500,164.28125 C 275.02436,163.06747 274.99145,155.76768 274.53125,153.43750 C 274.40310,152.78864 274.11501,152.69628 273.78125,152.71875 C 273.80412,152.61317 273.85460,152.47543 273.87500,152.37500 C 274.52121,149.19367 274.84237,145.50252 274.00000,142.37500 C 272.88404,138.23168 267.78240,133.30965 268.00000,130.56250 C 268.11574,129.10132 273.50363,128.42732 275.00000,129.75000 C 278.17030,132.55232 280.76467,138.33074 282.00000,142.93750 C 282.76467,145.78908 280.17208,149.41357 281.00000,152.12500 C 281.05380,152.30119 281.24199,152.53068 281.31250,152.71875 C 281.06969,152.76360 280.85171,152.89125 280.75000,153.40625 C 280.28980,155.73643 280.25689,163.03622 280.65625,164.25000 C 280.82685,164.76849 281.87095,159.93012 282.46875,158.62500 C 282.85895,157.77309 283.26212,157.34668 283.65625,156.87500 C 283.77564,157.02393 283.90887,157.11010 284.03125,157.25000 C 284.08603,162.56905 284.95290,171.01191 285.84375,172.75000 C 286.30004,173.64026 287.47235,165.08150 288.43750,162.75000 C 289.15474,161.01741 289.97540,160.12804 290.78125,159.18750 C 291.21320,159.69048 291.66038,160.14758 292.09375,161.09375 C 292.69155,162.39887 293.73566,167.26850 293.90625,166.75000 C 294.30561,165.53622 294.27271,158.23642 293.81250,155.90625 C 293.71765,155.42602 293.51073,155.30026 293.28125,155.25000 C 294.06079,154.32674 294.69944,153.38557 295.00000,152.50000 C 296.32670,148.59097 295.11780,143.09883 294.00000,138.68750 C 292.78447,133.89050 288.20628,129.33580 288.00000,124.87500 C 287.87295,122.12746 291.34276,119.67266 293.00000,117.06250 C 296.34276,111.79766 300.19893,106.79378 303.00000,101.25000 C 306.19893,94.918780 309.39106,88.295590 311.00000,81.437500 C 312.72440,74.087258 313.00000,66.227837 313.00000,58.625000 C 313.00000,51.352838 309.99993,43.738004 311.00000,36.812500 C 311.66659,32.196338 314.34451,26.165480 318.00000,24.000000 C 322.01118,21.623814 328.98175,23.962376 334.00000,23.187500 C 334.64842,23.087376 335.53105,21.650642 335.00000,21.375000 C 331.15605,19.379808 320.59290,17.503387 320.87500,16.375000 C 321.17624,15.170053 336.93606,16.161197 336.75000,14.375000 C 336.51940,12.161197 325.60712,7.0337220 319.62500,4.3750000 C 315.85712,2.7003890 311.46280,1.1968970 307.50000,1.3750000 z "
       id="rect1427"
       style="fill:#ffffff;fill-opacity:1;fill-rule:evenodd;stroke:#000000;stroke-width:2.88000010000000020;stroke-linecap:round;stroke-linejoin:round;stroke-miterlimit:4;stroke-opacity:0.26368155999999998" />
    <path
       style="fill:#ffffff;fill-opacity:1;stroke:#000000;stroke-width:1.14999998;stroke-linejoin:miter;stroke-miterlimit:4;stroke-opacity:1;stroke-dasharray:none;stroke-dashoffset:0"
       d=""
       id="path3032"
       inkscape:connector-curvature="0" />
    <path
       style="fill:#000000;fill-opacity:1;stroke:#000000;stroke-width:1.14999998000000000;stroke-linejoin:miter;stroke-miterlimit:4;stroke-opacity:1;stroke-dasharray:none;stroke-dashoffset:0"
       d="m 166.96575,248.26302 c -0.38819,-0.61875 -0.95906,-1.9125 -1.2686,-2.875 -0.30954,-0.9625 -2.58561,-4.1125 -5.05793,-7 -2.47233,-2.8875 -4.75157,-6.02662 -5.06498,-6.97582 -0.37633,-1.13977 -0.46521,-3.79022 -0.26173,-7.80506 0.37796,-7.45741 1.42633,-11.02615 6.82093,-23.21912 5.98132,-13.51905 5.71329,-12.67199 5.77476,-18.25 0.0584,-5.29776 0.74259,-7.75228 2.70911,-9.7188 0.94381,-0.94382 1.40863,-1.02038 4.35951,-0.71805 3.08978,0.31656 3.36472,0.26087 4.25789,-0.86237 3.35246,-4.21602 7.91379,-12.81441 7.91379,-14.91801 0,-0.9259 -0.30242,-1.03277 -2.9225,-1.03277 -3.63169,0 -4.23551,-0.5849 -5.74931,-5.56913 -1.0406,-3.42622 -1.24232,-3.72191 -2.91574,-4.27418 -2.77786,-0.91676 -8.91348,-1.59144 -17.41245,-1.91469 -17.97256,-0.68358 -21.61605,-1.35964 -40.67481,-7.5473 -15.77016,-5.11997 -34.152287,-9.65384 -60.825187,-15.00226 -12.202408,-2.44682 -25.997205,-1.38023 -37.053925,2.86493 -3.442092,1.32158 -4.274401,1.93729 -8.75,6.47296 -5.4914349,5.56515 -6.8332384,6.27687 -8.3356833,4.42143 -0.837197,-1.0339 -0.9423637,-1.79566 -0.7637287,-5.53196 0.1816151,-3.79864 0.3888171,-4.59529 1.6802492,-6.4602 5.5601032,-8.02914 13.7691048,-13.78243 22.7504528,-15.94469 2.322449,-0.55912 12.210135,-1.95091 21.972635,-3.09285 16.164045,-1.89075 18.86687,-2.07848 30.25,-2.10109 11.852485,-0.0236 12.99089,0.0587 21.976427,1.58794 12.09418,2.05827 19.95418,2.60045 29.4895,2.03417 14.1453,-0.84006 17.42071,-1.61107 54.70541,-12.877307 23.79079,-7.188815 32.73769,-8.900735 49.07866,-9.390825 9.02866,-0.270785 10.28639,-0.196725 17,1.001055 18.57417,3.313815 32.99505,4.11221 35.91526,1.98841 1.96957,-1.432425 6.36355,-10.560825 7.90112,-16.41441 1.13093,-4.305465 1.34538,-6.31962 1.54383,-14.5 0.24439,-10.074178 0.0342,-12.066373 -2.58554,-24.5 -1.5247,-7.23655 -1.61311,-12.266742 -0.30547,-17.379556 1.22959,-4.8076567 2.50976,-7.3093723 4.7443,-9.271321 3.56386,-3.12910937 10.75336,-3.99210916 17.10883,-2.0536767 4.21681,1.286136 15.6134,6.6946745 19.39304,9.2034567 2.85962,1.89811 3.94878,3.786945 2.82924,4.906492 -0.3202,0.320198 -2.87998,0.81681 -5.68839,1.103583 l -5.10622,0.521404 4.22604,1.38244 c 2.32432,0.760343 4.51807,1.624807 4.875,1.921032 0.9204,0.76386 0.80377,2.121059 -0.26541,3.088652 -0.7606,0.688335 -2.11013,0.827494 -8.02483,0.827494 -5.34521,0 -7.47083,0.186357 -8.56205,0.75065 -3.31881,1.716219 -6.49875,8.778938 -6.49875,14.433849 0,1.768824 0.47321,6.332172 1.05157,10.140772 1.81641,11.961234 0.82238,26.337889 -2.54471,36.804144 -3.00904,9.35331 -11.0388,23.772652 -19.08277,34.267642 -3.02877,3.95165 -3.03177,3.90909 0.82567,11.7287 1.7054,3.45713 3.07629,7.06918 3.55782,9.37424 0.86732,4.15187 0.73538,10.05123 -0.26668,11.92359 -0.39032,0.72931 -0.65611,3.54413 -0.70793,7.49708 -0.0774,5.90601 -0.14796,6.32933 -1.05463,6.32933 -0.75195,0 -1.1977,-0.70663 -1.97127,-3.125 -0.54979,-1.71875 -1.16321,-3.125 -1.36316,-3.125 -0.4859,0 -1.75202,4.01447 -2.48083,7.86597 -0.66638,3.52159 -1.46975,4.93033 -2.57069,4.50786 -0.91421,-0.35082 -1.70442,-3.36906 -2.18157,-8.33259 l -0.35653,-3.70876 -0.80215,1.67244 c -1.04979,2.18879 -1.91659,2.4094 -2.59599,0.66072 -0.67548,-1.7386 -0.16444,-13.12961 0.77154,-17.19724 0.55671,-2.41944 0.52927,-3.13555 -0.21082,-5.5 -1.07615,-3.43811 -3.07735,-7.36933 -4.78362,-9.39712 -1.10943,-1.31848 -1.67224,-1.57128 -3.49819,-1.57128 -1.19682,0 -2.31979,0.2326 -2.49549,0.51688 -0.1757,0.28428 0.92197,2.51429 2.43926,4.95557 3.31936,5.34077 3.92681,7.38654 3.77403,12.71018 -0.0642,2.23706 0.0461,6.20487 0.24515,8.81737 0.38196,5.01359 -0.0521,7.75 -1.22928,7.75 -0.39014,0 -1.06613,-0.75564 -1.50222,-1.67921 l -0.79288,-1.6792 -0.58621,4.77006 c -0.71371,5.80759 -1.27908,7.47015 -2.46387,7.24543 -0.91413,-0.17338 -1.42501,-1.54927 -2.82309,-7.60306 -1.21056,-5.24178 -1.79299,-5.57014 -3.07414,-1.7331 -0.81104,2.42908 -1.28733,3.17908 -2.01889,3.17908 -0.908,0 -0.95303,-0.42592 -0.87217,-8.25 0.0469,-4.5375 0.15939,-10.05 0.25,-12.25 0.14421,-3.50137 0.005,-4.31164 -1.11851,-6.5 -1.88122,-3.66493 -2.70305,-3.57177 -7.39422,0.83813 -4.37391,4.11166 -14.17417,10.58569 -20.54531,13.57218 l -4.22278,1.97944 -4.27722,-0.48697 c -2.35247,-0.26784 -4.55847,-0.38771 -4.90222,-0.26638 -0.40186,0.14183 -0.625,1.24598 -0.625,3.09263 0,3.54259 -1.09488,5.74347 -6.47762,13.02097 -2.13571,2.8875 -4.47261,6.27488 -5.19311,7.5275 -1.21521,2.11269 -1.25382,2.35771 -0.53358,3.386 1.98617,2.83566 16.02728,8.04648 26.58355,9.86547 9.6773,1.66753 13.61899,2.93263 17.08346,5.48303 6.10613,4.49508 12.96844,14.85783 15.08877,22.78553 0.56039,2.09521 0.50348,2.49314 -0.74862,5.23503 -1.6064,3.51771 -4.5324,6.71744 -6.14279,6.71744 -1.50707,0 -2.35296,-1.4273 -3.70406,-6.25 -1.23818,-4.4196 -1.72158,-5.31128 -2.12802,-3.92533 -0.14925,0.50893 -0.63778,2.21983 -1.08563,3.80199 -0.81701,2.88633 -1.99335,4.14527 -3.18509,3.40873 -0.35137,-0.21716 -1.15877,-2.23729 -1.79422,-4.48918 -1.9357,-6.8597 -9.59404,-18.16966 -13.71856,-20.25979 -0.71196,-0.3608 -3.55766,-1.02953 -6.32377,-1.48607 -3.4474,-0.56899 -7.53638,-1.78677 -13,-3.87164 -8.54917,-3.26229 -13.6946,-5.02128 -21.20693,-7.24966 -3.16824,-0.9398 -5.29935,-1.89934 -6.43721,-2.8984 l -1.70099,-1.49348 -1.19279,1.48141 c -0.65603,0.81478 -2.18376,3.39392 -3.39496,5.73142 -4.85325,9.36637 -8.16724,19.46219 -8.62049,26.26172 l -0.30074,4.51173 2.60089,2.84579 c 3.57563,3.91231 6.49762,5.94573 12.04624,8.38304 2.60495,1.14425 5.13993,2.44318 5.63328,2.88651 3.0069,2.70196 -2.60245,5.87896 -13.8375,7.83723 -6.31196,1.10018 -8.12624,1.02936 -8.99226,-0.35102 l 0,0 z m 9.35473,-2.09439 c 3.95915,-0.75751 9.81984,-2.44653 11.23267,-3.23718 0.65986,-0.36928 -0.37554,-1.0379 -4.90921,-3.17018 -6.40598,-3.01286 -11.34567,-6.80238 -13.98474,-10.72848 -1.57625,-2.34498 -1.60394,-2.48313 -1.33139,-6.64477 0.57469,-8.77539 6.98946,-25.86483 12.53783,-33.40175 2.94641,-4.00242 12.29098,-13.67881 12.98622,-13.44736 1.29314,0.43049 0.67866,1.98613 -1.88677,4.77668 -3.46279,3.76665 -5.51165,6.84291 -5.16288,7.7518 0.32109,0.83674 5.10192,2.66604 12.34629,4.72409 2.8875,0.82031 9.075,2.98414 13.75,4.80852 6.03941,2.35682 10.0436,3.58966 13.83229,4.2588 2.93275,0.51797 6.14658,1.32818 7.14183,1.80045 3.9027,1.85196 12.32487,13.45442 14.28155,19.67442 0.92591,2.94332 1.10417,2.90328 1.98437,-0.44565 0.76944,-2.92754 1.80535,-4.5 2.96452,-4.5 1.15473,0 2.10462,1.95815 3.52086,7.25807 1.51243,5.65991 1.71361,5.87377 3.52004,3.74193 0.81559,-0.9625 1.86665,-2.73459 2.33569,-3.93798 0.83128,-2.13273 0.82247,-2.2771 -0.34883,-5.71757 -2.53334,-7.44118 -9.67258,-17.15568 -14.82829,-20.17712 -2.92822,-1.71605 -5.40926,-2.4073 -14.04838,-3.91402 -8.12412,-1.4169 -17.01547,-4.21927 -23.52654,-7.41508 -8.16865,-4.0094 -8.11233,-5.56894 0.62513,-17.30929 5.17312,-6.95101 5.79576,-8.26677 5.79576,-12.24749 0,-4.56685 0.73294,-5.01579 7.40869,-4.53798 4.91048,0.35146 4.92458,0.34915 8.62991,-1.41454 5.9019,-2.80922 15.3701,-9.15344 19.62918,-13.15263 5.36773,-5.0402 6.94513,-5.35042 9.58785,-1.88558 2.12568,2.78695 3.42397,7.08963 3.04576,10.09395 -0.16377,1.30093 -0.43862,4.50283 -0.61076,7.11533 l -0.313,4.75 1.03511,-0.92889 c 1.01522,-0.91104 1.0592,-0.90291 2.28828,0.42328 0.68923,0.74371 1.62577,2.39921 2.08118,3.6789 0.45541,1.27969 0.95603,2.66421 1.11249,3.07671 0.15647,0.4125 0.45129,-1.2304 0.65516,-3.65088 0.41395,-4.9147 1.00103,-6.07025 2.84842,-5.60658 1.15593,0.29012 1.20391,0.21702 0.88143,-1.34286 -0.18758,-0.90732 -0.38349,-4.24958 -0.43537,-7.42724 l -0.0943,-5.77757 -2.59435,-4.23428 c -3.49537,-5.70485 -3.88134,-6.79167 -2.92841,-8.24602 0.83619,-1.27618 4.30007,-2.06711 6.56421,-1.49884 3.76685,0.94542 9.63858,11.86907 9.069,16.87179 -0.13541,1.18936 -0.49876,4.27938 -0.80744,6.8667 -0.30868,2.58732 -0.41608,4.83732 -0.23867,5 0.17741,0.16268 0.42301,0.0145 0.54578,-0.32922 0.29229,-0.8184 2.10122,-0.80753 2.41668,0.0145 0.13497,0.35174 0.42556,2.77049 0.64574,5.375 0.22019,2.60451 0.52789,4.39797 0.68379,3.98547 0.1559,-0.4125 0.65607,-1.79702 1.11148,-3.07671 0.45541,-1.27969 1.39194,-2.93519 2.08118,-3.6789 1.22974,-1.32691 1.27269,-1.33482 2.29787,-0.42328 l 1.0447,0.92889 -0.26782,-2.45001 c -0.20417,-1.86786 -0.0433,-2.8183 0.67736,-4 2.26749,-3.71848 0.69588,-13.00579 -3.5435,-20.94006 -3.63105,-6.79573 -3.62509,-8.0751 0.0602,-12.91539 10.61319,-13.93948 18.4087,-29.394487 20.69943,-41.037667 0.46784,-2.37787 0.93351,-8.00856 1.0881,-13.15687 0.22899,-7.625425 0.10794,-10.047405 -0.79253,-15.857866 -0.58453,-3.771827 -1.06012,-8.046827 -1.05685,-9.5 0.0158,-7.043989 4.23974,-15.292331 8.8087,-17.201366 1.09996,-0.45961 3.69452,-0.690788 7.75264,-0.690788 3.35466,0 5.99037,-0.109017 5.85713,-0.242261 -0.13325,-0.133244 -2.5895,-0.935139 -5.45834,-1.781989 -2.86884,-0.84685 -5.65892,-1.97444 -6.20019,-2.505755 -0.91246,-0.895676 -0.92436,-1.025794 -0.16343,-1.786724 0.63773,-0.637737 2.27282,-0.892761 7.33442,-1.143944 3.58254,-0.177784 6.64075,-0.450276 6.79601,-0.605536 0.72242,-0.72242 -12.6756,-7.6718863 -18.55687,-9.625332 -8.53166,-2.8337613 -15.99853,-1.3123648 -18.54063,3.7777083 -3.07589,6.1588707 -3.42142,13.3974927 -1.13728,23.8256367 1.99711,9.117732 2.46997,13.096469 2.47656,20.838196 0.009,10.65279 -1.36656,17.558065 -5.27627,26.485465 -4.63066,10.5736 -7.11307,11.45123 -26.14196,9.242225 -4.84353,-0.56227 -12.06893,-1.6052 -16.05643,-2.317615 -10.92627,-1.95212 -22.39998,-1.68335 -37.66097,0.882195 -8.04667,1.35274 -14.63306,3.103575 -34.83903,9.26113 -33.13435,10.097337 -37.01758,10.867127 -55,10.902877 -12.366,0.0246 -13.04364,-0.0265 -22.5,-1.69573 -9.415102,-1.66195 -10.187937,-1.72102 -22.499997,-1.71968 -11.501515,0.001 -14.341205,0.18483 -29,1.87486 -8.9375,1.03042 -17.944458,2.1881 -20.015462,2.57262 -8.636092,1.60347 -13.447289,4.15522 -19.8116866,10.50766 -5.1019163,5.09233 -5.8476306,6.61307 -5.5827622,11.38496 l 0.1599107,2.88096 5.25,-5.1623 c 5.0850111,-5.00006 5.3914191,-5.21126 9.7500001,-6.72023 8.591716,-2.97451 15.40024,-4.12073 24.5,-4.12462 6.935815,-0.003 7.428685,0.0806 33.57775,5.69528 16.58994,3.56213 27.487837,6.42391 39.922247,10.48356 18.93678,6.18257 23.08229,6.97687 39.5,7.56841 8.49889,0.30622 17.05662,1.28114 20.1337,2.29368 1.77828,0.58516 2.68122,1.95144 3.60459,5.45429 1.06658,4.04612 1.59594,4.5 5.24839,4.5 2.46291,0 3.32119,0.19219 3.67404,0.82271 1.24679,2.22788 -4.02019,13.47494 -8.77487,18.7378 l -1.82854,2.02398 -3.51392,-0.16724 c -3.47067,-0.16519 -3.52314,-0.14878 -4.2626,1.33275 -0.50214,1.00606 -0.76462,3.14648 -0.79709,6.5 -0.0546,5.64039 -0.22701,6.18877 -5.95212,18.93225 -5.29533,11.78683 -6.35759,15.42906 -6.66042,22.83694 -0.30521,7.46626 -0.30695,7.46165 5.07657,13.48081 2.27304,2.54143 4.24041,5.3053 4.89373,6.875 1.04131,2.50187 1.17999,2.625 2.95657,2.625 1.0252,0 3.55598,-0.32373 5.62395,-0.71939 l 0,0 z"
       id="path3034"
       inkscape:connector-curvature="0" />
    <g
       style="overflow:visible"
       transform="matrix(0.32661554,0,0,0.32661554,265.92924,-4.36913)"
       id="g262">
      <path
         inkscape:connector-curvature="0"
         id="path3159_1_"
         style="fill:#ffffff;stroke:#000000;stroke-width:3;stroke-linecap:round;stroke-linejoin:round"
         d="m 151.873,40.101 c 1.308,5.13 -1.794,10.348 -6.925,11.653 -5.13,1.305 -10.347,-1.798 -11.65,-6.929 -1.306,-5.13 1.795,-10.348 6.925,-11.653 5.13,-1.304 10.346,1.798 11.65,6.929 z" />
      <path
         inkscape:connector-curvature="0"
         id="path3161_1_"
         style="stroke:#000000;stroke-width:2.66289997"
         d="m 144.034,43.84 c 0.436,1.709 -0.598,3.449 -2.309,3.884 -1.709,0.435 -3.448,-0.599 -3.883,-2.31 -0.435,-1.71 0.599,-3.449 2.309,-3.884 1.71,-0.435 3.449,0.599 3.883,2.31 z" />
    </g>
  </g>
</svg>
