<?xml version="1.0" encoding="UTF-8" standalone="no"?>
<!-- Generator: Adobe Illustrator 12.0.0, SVG Export Plug-In . SVG Version: 6.00 Build 51448)  -->

<svg
   xmlns:dc="http://purl.org/dc/elements/1.1/"
   xmlns:cc="http://creativecommons.org/ns#"
   xmlns:rdf="http://www.w3.org/1999/02/22-rdf-syntax-ns#"
   xmlns:svg="http://www.w3.org/2000/svg"
   xmlns="http://www.w3.org/2000/svg"
   xmlns:sodipodi="http://sodipodi.sourceforge.net/DTD/sodipodi-0.dtd"
   xmlns:inkscape="http://www.inkscape.org/namespaces/inkscape"
   height="173.43077"
   id="Layer_1"
   inkscape:version="0.48.2 r9819"
   sodipodi:docname="Stegosaurus.eps"
   sodipodi:version="0.32"
   space="preserve"
   style="overflow:visible;enable-background:new 0 0 278.88 173.428;"
   version="1.0"
   viewBox="0 0 278.88 173.428"
   width="278.88181"
   inkscape:output_extension="org.inkscape.output.svg.inkscape">
  <metadata
     id="metadata3">
    <rdf:RDF>
      <cc:Work
         rdf:about="">
        <dc:title></dc:title>
        <dc:description />
        <dc:subject>
          <rdf:Bag>
            <rdf:li>animal</rdf:li>
            <rdf:li>dinosaur</rdf:li>
          </rdf:Bag>
        </dc:subject>
        <dc:publisher>
          <cc:Agent
             rdf:about="http://www.openclipart.org/">
            <dc:title>Open Clip Art Library</dc:title>
          </cc:Agent>
        </dc:publisher>
        <dc:creator>
          <cc:Agent>
            <dc:title>Architetto Francesco Rollandin</dc:title>
          </cc:Agent>
        </dc:creator>
        <dc:rights>
          <cc:Agent>
            <dc:title>Architetto Francesco Rollandin</dc:title>
          </cc:Agent>
        </dc:rights>
        <dc:date />
        <dc:format>image/svg+xml</dc:format>
        <dc:type
           rdf:resource="http://purl.org/dc/dcmitype/StillImage" />
        <cc:license
           rdf:resource="http://web.resource.org/cc/PublicDomain" />
        <dc:language>en</dc:language>
      </cc:Work>
      <cc:License
         rdf:about="http://web.resource.org/cc/PublicDomain">
        <cc:permits
           rdf:resource="http://web.resource.org/cc/Reproduction" />
        <cc:permits
           rdf:resource="http://web.resource.org/cc/Distribution" />
        <cc:permits
           rdf:resource="http://web.resource.org/cc/DerivativeWorks" />
      </cc:License>
    </rdf:RDF>
  </metadata>
  <defs
     id="defs178" />
  <sodipodi:namedview
     bordercolor="#666666"
     borderopacity="1.0"
     id="base"
     inkscape:current-layer="Layer_1"
     inkscape:cx="142.76357"
     inkscape:cy="86.86948"
     inkscape:pageopacity="0.0"
     inkscape:pageshadow="2"
     inkscape:window-height="706"
     inkscape:window-width="1366"
     inkscape:window-x="-8"
     inkscape:window-y="-8"
     inkscape:zoom="2.0757895"
     pagecolor="#ffffff"
     showgrid="false"
     inkscape:window-maximized="1"
     inkscape:snap-global="false" />
  <path
     d="m 61.543932,141.10196 c -6.019,-6.917 8.798,-23.289 11.718,-30.284 -6.463,0 -12.605,-0.533 -18.554,2.441 -6.266,3.133 -14.404,6.654 -21.483,4.885 -15.008,-3.752 -25.7759997,-17.131 -30.2729997,-31.751005 2.414,0.972 4.624,3.238 5.86,5.862 -1.546,-4.785 -2.653,-9.628 -2.93,-14.654 2.086,6.361 6.8959997,11.687 8.7889997,17.585 -0.718,-6.8 -5.1539997,-13.207 -3.906,-19.54 0.479,5.923 4.217,11.374 6.835,16.609 -0.191,-4.646 0.75,-13.993 3.907,-16.609 -1.546,5.339 -2.367,22.803 0.976,25.400005 1.307,-9.650005 3.547,-17.624005 7.812,-26.377005 -1.45,6.312 -7.074,28.481005 -0.976,32.239005 0.263,-1.684 1.542,-3.061 1.953,-4.884 2.843,1.624 5.859,2.108 5.859,-1.466 0,-5.425005 2.34,-2.092005 3.906,-5.373005 1.192,-2.499 4.129,-1.288 2.441,-6.351 -1.624,-4.872 0.694,-4.009 4.396,-5.861 6.389,-3.198 -9.801,-10.729 0,-15.631 9.347,-4.676 5.067,-2.525 -0.977,-11.235 4.786,-4.879 11.659,-2.847 17.577,-4.885 -4.085,-4.38 -9.296,-9.336 -11.23,-15.143 -2.283,-6.856 14.959,-2.087 18.066,-1.465 -0.032,-4.215 3.46,-2.984 6.836,-1.954 -0.529,-6.595 -6.166,-11.59 -5.859,-18.562 7.781,0.66 15.455,11.196 18.554,-0.977 4.1,3.063 5.638,6.971 8.789,10.746 1.731998,-5.523 1.952998,-11.656 1.952998,-17.5840003 0,-10.257 9.42701,1.457 13.67101,2.931 2.694,-12.027 10.756,2.6340003 14.648,4.8850003 -1.043,-14.60100036 3.92,-6.9160003 10.742,-0.977 3.324,-3.3260003 6.701,-8.6730003 11.718,-8.7930003 -0.604,7.9930003 7.96,13.2270003 6.836,21.4940003 5.914,-2.689 17.758,-13.998 21.482,-7.816 1.902,3.158 2.939,16.486 2.932,20.517 -0.01,5.339 -2.923,9.489 -2.932,14.654 3.848,-3.068 17.909,-10.534 20.51,-6.838 3.121,4.437 -3.957,21.636 -4.885,26.377 5.997,-1.104 11,-4.137 16.602,-5.862 0,5.185 0.661,10.813 -0.977,15.631 4.328,-1.435 6.774,-4.289 10.742,-5.861 -1.495,5.231 -0.791,6.776 2.93,7.815 4.292,1.199 5.775,-8.586 7.813,1.954 0.706,-1.938 2.276,-3.144 2.93,-4.885 3.153,4.409 10.27,2.233 14.648,2.931 3.875,0.618 5.237,0.176 8.788,1.954 3.396,1.7 12.608,1.232 14.647,2.931 4.378,3.647 2.315,8.354 -1.953,10.747005 -2.291,1.284 -9.938,1.954 -12.694,1.954 -4.088,0 -10.174,4.63 -14.647,5.861 -11.098,3.054 -22.76,1.953 -34.18,1.953 -2.375,0 -4.75,0 -7.125,0 -5.521,0 -2.297,0.674 -3.617,4.886 -1.104,3.522 -0.805,10.78 0,13.677 1.848,6.65 11.057,19.851 16.113,24.912 4.8,4.805 13.85,2.666 17.09,8.305 -0.651,0 -1.302,0 -1.953,0 0.84,0.811 1.472,1.917 1.953,2.932 -2.754,-1.15 -2.577,0.11 -4.883,0 0.714,1.967 -0.092,2.393 0,3.907 -0.574,-1.13 -1.671,-1.526 -2.93,-2.932 -1.737,1.891 -2.602,0.158 -2.93,3.909 -4.108,-3.142 -7.4,-1.602 -11.719,-3.909 -4.285,-2.289 -4.485,-6.403 -8.102,-8.575 -7.977,-4.791 -12.946,-11.44 -17.287,-18.778 -1.824,-3.085 -7.635,-17.143 -11.719,-16.12 -7.439,1.861 -12.547,-1.599 -19.531,2.442 -5.837,3.377 -8.812,10.095 -11.719,16.607 -1.539,3.448 -6.636,12.899 -3.417,16.12 3.502,3.503 6.279,2.17 8.3,7.328 -1.265,-0.485 -2.79,-0.522 -3.906,-0.979 0.102,1.286 -0.009,2.618 0,3.908 -2.939,-3.531 -5.01,-2.814 -5.858,1.955 -1.659,-4.235 -4.573,-4.887 -5.86,0 -0.155,-3.882 -2.914,-6.966 -5.859,-3.909 -0.779,-5.575 -5.462,-10.177 0.488,-16.118 2.1,-2.097 0.888,-12.014 1.464,-15.145 0.718,-3.901 1.527,-9.951 2.93,-13.677 -9.684,-1.98 -19.774,2.904 -30.27301,-1.954 0.193,11.835 -4.881998,20.143 -4.881998,32.24 0,4.354 19.528008,7.647 11.718008,10.746 0.646,1.272 0.54,2.514 0.976,3.907 -2.935,-1.734 -4.93,-1.193 -5.85901,1.954 -2.276,-3.392 -5.502998,-2.123 -5.858998,1.955 -1.215,-4.945 -7.549,-4.268 -11.719,-6.352 -3.417,-1.707 -3.291,-14.46 -2.929,-18.073 -0.651,0 -1.302,0 -1.953,0 0.286,2.125 -0.708,3.326 -0.977,4.885 -1.267,-2.654 -1.971,-1.565 -3.906,-2.931 0.192,1.27 -0.114,2.627 0,3.907 -1.297,-1.382 -3.672,-2.354 -5.859,-3.907 0.054,0.973 -0.025,1.957 0,2.931 -3.614,-2.745 -5.724,-5.571 -7.811,-8.792 m 12.695,-4.885 c 0.804,-1.839 2.435,-3.552 3.906,-4.884 0.828,3.878 3.025,6.959 3.906,10.747 -3.744,-0.665 -6.441,-2.413 -7.812,-5.863"
     id="path3"
     style="fill:#ffffff;fill-rule:evenodd;stroke:#000000"
     inkscape:connector-curvature="0" />
  <path
     d="m 10.403626,94.824649 c -3.6759997,-4.624 -4.5629997,-11.79 -4.8829997,-17.585 0.98,2.988 11.5459997,21.774 4.8829997,17.585 m 4.881,6.839001 c -2.052,-7.506001 -6.2459997,-19.459001 -4.882,-26.379001 0.479,5.923 4.217,11.374 6.835,16.609 -0.191,-4.646 0.75,-13.993 3.907,-16.609 -1.302,4.5 2.355,34.128001 -5.86,26.379001 m 6.836,-0.979 c 1.307,-9.650001 3.547,-17.624001 7.812,-26.377001 -2.37,10.316 -2.929,20.568 -2.929,31.263001 -3.206,-0.183 -4.983,-1.851 -4.883,-4.886 m 5.859,5.863 c 0.66,-1.208 2.518,-2.428 2.93,-4.884 2.351,1.251 5.859,2.082 5.859,-1.466 0,-5.425001 2.34,-2.092001 3.906,-5.373001 1.192,-2.499 4.129,-1.288 2.441,-6.351 -1.624,-4.872 0.694,-4.009 4.396,-5.861 6.389,-3.198 -9.801,-10.729 0,-15.631 2.703,-1.353 6.858,0.366 6.835,-3.419 -0.004,-0.644 -6.926,-6.539 -7.812,-7.815 4.786,-4.879 11.659,-2.847 17.577,-4.885 -4.085,-4.38 -9.296,-9.336 -11.23,-15.143 -2.283,-6.856 14.959,-2.087 18.066,-1.465 -0.032,-4.215 3.46,-2.984 6.836,-1.954 -0.529,-6.595 -6.166,-11.59 -5.859,-18.562 7.781,0.66 15.455,11.196 18.554,-0.977 4.1,3.063 5.638,6.971 8.789,10.746 1.732004,-5.523 1.953004,-11.656 1.953004,-17.5840003 0,-10.257 9.427,1.457 13.671,2.931 2.694,-12.027 10.756,2.6340003 14.648,4.8850003 -1.043,-14.60100033 3.92,-6.9160003 10.742,-0.977 3.324,-3.3260003 6.701,-8.6730003 11.718,-8.7930003 -0.604,7.9930003 7.96,13.2270003 6.836,21.4940003 5.222,-2.375 17.493,-13.428 21.482,-8.793 1.403,1.63 2.784,16.899 2.932,19.539 0.348,6.222 -2.571,10.657 -2.932,16.608 3.848,-3.068 17.909,-10.534 20.51,-6.838 3.121,4.437 -3.957,21.636 -4.885,26.377 6.022,-1.109 11.05,-4.668 16.602,-5.862 0,5.185 0.661,10.813 -0.977,15.631 4.328,-1.435 6.774,-4.289 10.742,-5.861 -1.495,5.231 -0.791,6.776 2.93,7.815 4.292,1.199 5.775,-8.586 7.813,1.954 0.706,-1.938 2.276,-3.144 2.93,-4.885 9.835,5.466 -10.542,9.379 -14.648,7.328 -4.52,-2.257 -7.013,-1.298 -12.695,-3.42 -6.536,-2.441 -7.832,-4.947 -12.695,-9.77 -1.175,3.882 -11.609,-4.112 -13.672,-7.815 -3.064,-5.502 2.442,-12.384 -5.857,-13.677 0.181,1.528 -0.394,3.395 0,4.884 -4.063,-2.996 -6.979,-8.864 -11.719,-11.235 -5.225,-2.614 -14.593,-11.91 -14.648,-18.074 -2.792,2.192 -20.603,-0.521 -22.46,-3.908 -3.135,1.718 -26.654,3.963 -28.318004,0.977 -4.221,4.939 -13.095,6.524 -18.555,9.769 -2.145,1.275 -1.367,-1.722 -3.906,0 -0.35,0.237 -2.107,4.932 -2.929,5.862 -4.643,5.25 -8.891,8.995 -12.207,15.631 -1.644,3.29 -3.678,5.61 -5.371,8.792 -3.063,5.758 -3.098,13.038 -5.86,18.563 -4.678,9.352 -8.409,23.521001 -22.463,21.492001"
     id="path7"
     style="fill:#ffffff;fill-rule:evenodd;stroke:#000000"
     inkscape:connector-curvature="0" />
  <path
     d="m 69.355932,149.89496 c -2.917,-2.213 -4.012,-4.146 0,-4.885 0,1.538 0.277,3.375 0,4.885 m 4.883,0.977 c -2.225,-2.167 -2.61,-3.974 0.976,-4.884 0.446,2.025 -0.168,3.352 -0.976,4.884 m 4.882,-0.977 c -5.96,-5.804 4.374,-7.284 0,0 m 0.977,-4.885 c 0.253,-0.734 0,-2.146 0,-2.93 0.651,0 1.302,0 1.953,0 1.001,3.495 -1.073,1.813 -1.953,2.93 m 16.601,24.425 c -4.835,-5.906 3.115,-7.319 0,0 m 5.858998,-1.955 c -7.768998,-4.635 3.57801,-7.949 0,0 m 5.85901,-1.954 c -1.528,-0.133 -2.174,-0.887 -3.906,-0.976 0.446,-1.361 0.294,-2.673 0.977,-3.908 1.539,-0.533 0.943,0.942 1.953,0.977 0.075,-1.229 0.147,-2.687 0,-3.908 2.914,2.801 1.493,2.055 0,3.908 0.622,1.289 0.537,2.506 0.976,3.907 m 17.578,0 c 0.154,-1.257 0,-2.64 0,-3.907 0.651,0 1.302,0 1.953,0 0.283,2.381 -0.967,2.195 -1.953,3.907 m 5.859,3.909 c -2.927,-7.274 4.56,-6.488 0,0 m 5.86,0 c -1.456,-1.647 -2.325,-4.031 -2.93,-5.863 3.993,-1.859 4.853,2.178 2.93,5.863 m 5.858,-1.955 c -1.617,-0.694 -2.64,-2.118 -3.905,-2.93 0.313,-0.902 0.653,-2.125 0.976,-2.932 0.651,0 1.302,0 1.953,0 0.703,1.875 1.031,3.782 0.976,5.862 m 0.977,-3.908 c 0.046,-1.299 0,-2.607 0,-3.907 1.436,1.686 2.22,2.961 2.93,4.886 -0.987,-0.734 -1.928,-0.621 -2.93,-0.979 m 78.123,5.863 c -7.001,-3.209 0.426,-7.559 0,0 m 5.859,-0.977 c -6.163,-5.453 2.922,-6.139 0,0 m 4.883,-3.908 c -3.578,-0.835 -4.287,-3.202 -3.906,-5.862 2.57,0.72 2.48,0.589 3.906,2.931 -0.651,0 -1.302,0 -1.953,0 0.425,1.207 1.471,1.902 1.953,2.931"
     id="path11"
     style="fill:#e5cc99;fill-rule:evenodd;stroke:#000000"
     inkscape:connector-curvature="0" />
  <path
     d="m 252.94294,88.347955 c 2.526,-1.761 3.532,-2.621 4.885,0.976 -2.448,1.218 -3.04,0.451 -4.885,-0.976"
     id="path15"
     style="fill:#ffffff;fill-rule:evenodd;stroke:#000000"
     inkscape:connector-curvature="0" />
  <path
     d="m 255.87494,90.299955 c -1.145,-1.633 -3.239,-1.547 -0.979,-3.907 2.846,1.196 1.172,1.703 0.979,3.907"
     id="path19"
     style="fill:#ffab00;fill-rule:evenodd;stroke:#000000"
     inkscape:connector-curvature="0" />
  <path
     d="m 254.89594,89.323955 c 0.431,-1.178 -0.918,-2.101 0.979,-1.954 0.242,1.526 -0.584,0.875 -0.979,1.954 m 19.532,3.908 c -1.462,-0.938 -2.797,0.701 -2.928,-1.954 2.776,-0.578 1.762,1.205 2.928,1.954"
     id="path23"
     style="fill-rule:evenodd;stroke:#000000"
     inkscape:connector-curvature="0" />
  <path
     d="m 12.717932,96.162955 c -1.794,-6.334 -6.3049997,-11.995 -6.8359997,-18.562 1.878,5.727 9.8049997,13.089 6.8359997,18.562 m 6.835,7.815005 c -3.73,-8.103005 -6.784,-18.578005 -8.788,-27.354005 1.319,7.258 6.265,13.604 8.788,20.516 0,-7.306 0.039,-14.372 0.977,-21.493 1.609,5.408 2.001,21.766 -0.977,28.331005 m 5.859,1.954 c -2.325,-8.614005 0.23,-23.455005 4.882,-31.263005 -1.197,5.215 -2.255,30.815005 -4.882,31.263005 m 4.882,-0.977 c 0.38,-1.165 0.994,-1.646 0.977,-2.93 2.191,0.401 2.939,0.742 3.906,1.953 -3.247,0.194 -3.192,0.814 -4.883,0.977 m 6.836,-6.838005 c 1.565,-2.057 3.948,-3.359 6.836,-3.909 -2.801,1.271 -4.661,2.605 -3.906,4.886 -1.091,-1.005 -3.687,-1.367 -2.93,-0.977 m 5.859,-10.747 c -0.416,-4.434 4.773,-3.443 6.836,-5.861 -2.162,2.661 -2.667,2.483 -5.859,3.907 0.706,0.511 1.344,1.329 1.953,1.954 -1.552,-1.046 -1.72,-0.24 -2.93,0 m 0.977,-15.631 c -0.339,-5.309 7.133,-4.415 10.742,-6.839 -1.364,3.596 -4.782,4.886 -8.789,3.908 0,0.651 0,1.302 0,1.953 0.651,0 1.302,0 1.953,0 -1.233,0.268 -3.739,0.977 -3.906,0.978 m 3.906,-14.655 c -1.453,-4.878 14.214,-5.496 17.578,-4.885 -4.574,0.259 -11.095,1.53 -15.625,2.931 0.416,0.805 0.55,2.135 0.978,2.931 -1.016,-0.338 -1.946,-0.578 -2.931,-0.977 m 5.859,-20.516 c -3.467,-7.088 14.232,-2.623 17.578,-1.954 -0.041,-5.343 10.451,-2.391 5.859,2.931 -0.392,-0.647 -1.362,-1.477 -1.953,-1.954 -0.326,0.977 0,1.303 0.977,0.977 -4.871,2.692 -14.994,-3.343 -20.508,-1.954 2.529,2.12 5.155,4.407 7.813,5.862 -0.326,0.326 -0.651,0.651 -0.977,0.977 -1.838,-2.257 -7.605,-4.908 -8.789,-4.885 m 18.555,-18.562 c -0.152,-1.258 0,-2.636 0,-3.908 7.781,0.66 15.455,11.196 18.554,-0.977 4.077,3.046 10.519998,9.783 7.812,14.654 -0.771,-1.862 -1.973,-3.016 -2.929,-4.884 0.516,1.185 0.626,1.568 0.976,2.931 -5.845,-2.905 -17.329,-5.26 -21.484,-9.77 0.733,1.889 1.106,4.038 1.953,5.862 -1.484,-2.446 -2.108,-2.119 -2.929,-4.885 -1.86,-0.547 -1.339,0.557 -1.953,0.977 m 51.756008,5.861 c -4.681,-9.652 -15.246,-12.568 -19.531,-20.5160003 -0.542,4.698 2.917,7.2800003 2.93,11.7240003 -0.96,-3.532 -3.025,-6.5380003 -3.906,-9.7700003 -0.587,0.555 -1.25101,0.808 -1.95301,1.955 -1.44,-11.829 9.63201,0.551 13.67101,1.954 1.822,-8.134 6.366,-3.503 9.766,0 6.156,6.3410003 4.357,8.6700003 2.929,16.6080003 -0.8,-1.02 -1.944,-0.934 -2.929,-2.931 1.957,1.558 -0.05,0.448 -0.977,0.976 m 5.859,-15.6310003 c 0.485,-9.553 7.87,2.3840003 10.742,4.8850003 3.324,-3.3260003 6.701,-8.6730003 11.718,-8.7930003 -0.516,6.8300003 8.876,13.1950003 6.836,19.5390003 -0.872,2.713 -6.482,4.479 -9.766,5.862 0.361,-3.449 0.336,-2.484 -0.977,-5.862 0.263,1.079 0.841,1.5 0.977,2.932 -5.521,-3.133 -11.603,-14.228 -16.601,-19.5390003 0.277,3.0510003 1.634,6.0520003 2.93,8.7920003 -2.662,-1.835 -3.607,-9.1830003 -5.859,-7.8160003 m 32.226,16.6090003 c 3.795,-1.491 18.553,-15.9450003 18.553,-5.862 0,6.162 2.598,11.605 2.932,17.585 0.348,6.222 -2.571,10.657 -2.932,16.608 3.848,-3.068 17.909,-10.534 20.51,-6.838 3.121,4.437 -3.957,21.636 -4.885,26.377 6.022,-1.109 11.05,-4.668 16.602,-5.862 0,5.185 0.661,10.813 -0.977,15.631 4.328,-1.435 6.774,-4.289 10.742,-5.861 -1.495,5.231 -0.791,6.776 2.93,7.815 4.792,1.339 5.52,-7.717 7.813,2.931 -2.598,0.457 -4.333,1.267 -5.859,1.954 -2.431,-1.727 -4.795,-3.645 -6.836,-5.861 -0.026,1.265 -0.137,2.651 0,3.907 -0.095,-0.283 -1.6,-2.556 -1.953,-3.907 -2.7,5.884 -9.466,1.082 -10.742,-3.907 -0.066,1.313 -0.771,1.642 -0.977,2.93 -0.425,-5.196 -1.782,-0.252 -4.883,-1.954 -2.243,-1.232 -4.402,-3.267 -6.836,-5.861 -1.388,0.745 -7.389,-14.037 -7.811,-18.562 -0.992,1.582 -0.961,6.233 -1.953,7.815 0.311,-2.561 -0.408,-5.271 0,-7.815 -0.608,0.545 -2.064,1.046 -2.932,1.954 -2.085,-2.812 -4.877,-3.953 -6.834,-2.931 -2.326,-9.073 -4.706,-22.108 -10.742,-29.308 -1.333,3.181 -0.977,7.006 -0.977,10.746 -1,-2.557 0.73,-10.635 -1.953,-11.724 m 73.24,58.617 c 0.635,-0.812 1.172,-0.72 0.977,-1.954"
     id="path35"
     style="fill:#ffffff;fill-rule:evenodd;stroke:#000000"
     inkscape:connector-curvature="0"
     sodipodi:nodetypes="cccccccccccccccccccccccccccccccccccccccccccccccccccccccccccccccccccccccccccsccccccccccccccccccccccccccc" />
  <path
     d="m 69.355932,149.89496 c -1.728,-1.631 -2.895,-2.476 -2.93,-4.885 2.235,0.749 2.461,2.468 2.93,4.885 m 4.883,0.977 c -0.94,-1.605 -1.687,-1.741 -1.953,-3.907 2.693,0.447 1.43,1.779 1.953,3.907 m 4.882,-0.977 c -1.017,-1.81 -1.391,-1.961 -1.953,-3.907 2.703,0.448 1.415,1.781 1.953,3.907 m 0.977,-4.885 c 0.904,-0.817 -0.737,-3.103 1.953,-0.977 0.175,2.278 -0.958,0.078 -1.953,0.977 m 16.601,24.425 c -0.923,-1.689 -1.223,-3.062 -1.953,-4.885 2.22,1.531 1.391,2.67 1.953,4.885 m 5.858998,-1.955 c -1.082,-1.034 -0.269,-2.508 -2.928998,-1.954 0,-0.651 0,-1.303 0,-1.954 2.747998,0.458 2.101998,1.921 2.928998,3.908 m 5.85901,-1.954 c -1.523,-0.358 -2.168,-0.886 -3.906,-0.976 0,-0.651 0,-1.303 0,-1.954 2.798,-0.126 2.483,1.126 3.906,2.93 m -0.976,-3.907 c 1.404,-1.406 1.402,-1.403 0,0 m 18.554,3.907 c 0.208,-1.216 0,-2.671 0,-3.907 1.923,1.75 0.278,2.287 0,3.907 m 5.859,3.909 c -0.531,-2.407 -1.046,-3.884 0,-5.863 1.242,2.336 0.515,3.584 0,5.863 m 5.86,0 c -1.219,-1.663 -1.843,-3.326 -2.93,-4.885 0.326,-0.326 0.651,-0.652 0.977,-0.979 2.22,1.726 1.905,3.23 1.953,5.864 m 5.858,-1.955 c -1.81,-1.048 -3.208,-2.505 -3.905,-3.908 3.1,0.119 2.712,1.564 3.905,3.908 m 3.906,-2.93 c -1.832,-1.34 -3.216,-0.251 -2.93,-2.932 0.967,0.965 1.889,2.049 2.93,2.932 m 75.194,4.885 c -1.448,-0.989 -2.75,-1.47 -3.906,-2.932 2.802,-1.816 2.783,0.385 3.906,2.932 m 5.859,-0.977 c -0.839,-0.721 -2.183,-2.469 -2.93,-3.907 3.508,-0.25 2.357,1.421 2.93,3.907 m 4.883,-3.908 c -2.055,-1.114 -3.317,-0.66 -3.906,-2.932 1.778,0.509 2.421,1.697 3.906,2.932 m -2.93,-3.908 c 0.235,-0.836 -0.279,-1.544 -0.977,-1.954 2.525,0.978 2.329,0.525 3.906,2.931 -1.68,0.419 -1.801,-0.765 -2.929,-0.977"
     id="path39"
     style="fill:#b29966;fill-rule:evenodd;stroke:#000000"
     inkscape:connector-curvature="0" />
  <path
     d="m 74.238932,136.21696 c 0.804,-1.839 2.435,-3.552 3.906,-4.884 0.828,3.878 3.025,6.959 3.906,10.747 -3.744,-0.665 -6.441,-2.413 -7.812,-5.863"
     id="path49"
     style="fill:none;stroke:#000000;stroke-width:0;stroke-linecap:square;stroke-miterlimit:10"
     inkscape:connector-curvature="0" />
  <path
     d="m 13.693932,94.207955 c -1.95,3.2 -3.558,1.502 -4.8819997,-1.952"
     id="path51"
     style="fill:none;stroke:#000000;stroke-width:0;stroke-linecap:square;stroke-miterlimit:10"
     inkscape:connector-curvature="0" />
  <path
     d="m 17.598932,92.254955 c 0.436,2.394 5.29,9.962005 1.953,11.723005 -4.084,2.155 -5.125,-6.896005 -4.882,-8.792005"
     id="path53"
     style="fill:none;stroke:#000000;stroke-width:0;stroke-linecap:square;stroke-miterlimit:10"
     inkscape:connector-curvature="0" />
  <path
     id="path55"
     style="fill:none;stroke:#000080;stroke-width:0;stroke-linecap:square;stroke-miterlimit:10"
     d=""
     inkscape:connector-curvature="0" />
  <path
     d="m 73.261932,110.81796 c 1.703,0.464 3.333,1.115 4.883,1.953"
     id="path59"
     style="fill:none;stroke:#000000;stroke-width:0;stroke-linecap:square;stroke-miterlimit:10"
     inkscape:connector-curvature="0" />
  <path
     d="m 66.425932,146.96396 c 1.136,-2.41 2.217,-2.814 2.93,0"
     id="path63"
     style="fill:none;stroke:#000000;stroke-width:0;stroke-linecap:square;stroke-miterlimit:10"
     inkscape:connector-curvature="0" />
  <path
     d="m 69.355932,142.08096 c 0,0.977 0,1.953 0,2.93"
     id="path65"
     style="fill:none;stroke:#000000;stroke-width:0;stroke-linecap:square;stroke-miterlimit:10"
     inkscape:connector-curvature="0" />
  <path
     d="m 72.285932,148.91896 c 0.125,-2.277 1.151,-3.057 2.929,-1.955"
     id="path67"
     style="fill:none;stroke:#000000;stroke-width:0;stroke-linecap:square;stroke-miterlimit:10"
     inkscape:connector-curvature="0" />
  <path
     d="m 74.238932,144.03396 c 0.645,0.87 0.99,1.875 0.976,2.931"
     id="path69"
     style="fill:none;stroke:#000000;stroke-width:0;stroke-linecap:square;stroke-miterlimit:10"
     inkscape:connector-curvature="0" />
  <path
     d="m 77.167932,146.96396 c 0.085,-2.941 1.215,-3.354 2.93,-1.954"
     id="path71"
     style="fill:none;stroke:#000000;stroke-width:0;stroke-linecap:square;stroke-miterlimit:10"
     inkscape:connector-curvature="0" />
  <path
     d="m 78.144932,141.10196 c 0.83,1.181 1.157,2.483 0.976,3.908"
     id="path73"
     style="fill:none;stroke:#000000;stroke-width:0;stroke-linecap:square;stroke-miterlimit:10"
     inkscape:connector-curvature="0" />
  <path
     d="m 80.097932,145.00996 c 0,-0.977 0,-1.953 0,-2.93"
     id="path75"
     style="fill:none;stroke:#000000;stroke-width:0;stroke-linecap:square;stroke-miterlimit:10"
     inkscape:connector-curvature="0" />
  <line
     id="line77"
     style="fill:none;stroke:#000000;stroke-width:0;stroke-linecap:square;stroke-miterlimit:10"
     x1="82.050934"
     x2="82.050934"
     y1="142.08095"
     y2="145.00995" />
  <path
     d="m 94.745932,166.50296 c 1.227,-1.996 0.982,-4.573 2.93,-0.978 0.398,-3.06 -1.236,-3.18 -2.93,-4.884"
     id="path81"
     style="fill:none;stroke:#000000;stroke-width:0;stroke-linecap:square;stroke-miterlimit:10"
     inkscape:connector-curvature="0" />
  <path
     d="m 99.628932,159.66496 c 0.975998,0.978 1.951998,1.955 2.928998,2.932"
     id="path83"
     style="fill:none;stroke:#000000;stroke-width:0;stroke-linecap:square;stroke-miterlimit:10"
     inkscape:connector-curvature="0" />
  <path
     d="m 99.628932,165.52596 c 0.25,-4.614 1.789998,-4.443 3.906008,-0.976"
     id="path85"
     style="fill:none;stroke:#000000;stroke-width:0;stroke-linecap:square;stroke-miterlimit:10"
     inkscape:connector-curvature="0" />
  <path
     d="m 105.48794,164.54996 c -1.184,-2.058 -0.612,-3.311 1.953,-2.932"
     id="path87"
     style="fill:none;stroke:#000000;stroke-width:0;stroke-linecap:square;stroke-miterlimit:10"
     inkscape:connector-curvature="0" />
  <path
     d="m 103.53494,157.70996 c 1.485,1.849 3.289,0.779 2.929,3.908 1.199,-1.16 1.085,-2.247 0.977,-3.908"
     id="path89"
     style="fill:none;stroke:#000000;stroke-width:0;stroke-linecap:square;stroke-miterlimit:10"
     inkscape:connector-curvature="0" />
  <path
     d="m 130.87794,120.58596 c 0.491,-3.198 1.945,-6.223 3.906,-8.793"
     id="path91"
     style="fill:none;stroke:#000000;stroke-width:0;stroke-linecap:square;stroke-miterlimit:10"
     inkscape:connector-curvature="0" />
  <path
     d="m 125.99494,162.59596 c 1.085,-1.657 1.778,-1.296 1.953,0.976"
     id="path93"
     style="fill:none;stroke:#000000;stroke-width:0;stroke-linecap:square;stroke-miterlimit:10"
     inkscape:connector-curvature="0" />
  <path
     d="m 127.94794,157.70996 c 1.186,1.372 1.313,2.756 0,3.908"
     id="path95"
     style="fill:none;stroke:#000000;stroke-width:0;stroke-linecap:square;stroke-miterlimit:10"
     inkscape:connector-curvature="0" />
  <path
     d="m 130.87794,165.52596 c 1.315,-0.476 1.464,-3.76 2.93,0 0.449,-2.035 -0.188,-3.344 -0.977,-4.884"
     id="path97"
     style="fill:none;stroke:#000000;stroke-width:0;stroke-linecap:square;stroke-miterlimit:10"
     inkscape:connector-curvature="0" />
  <path
     d="m 135.76094,166.50296 c -0.315,-1.094 -0.619,-1.856 -0.977,-2.932 2.641,-1.477 2.613,0.03 3.906,1.954"
     id="path99"
     style="fill:none;stroke:#000000;stroke-width:0;stroke-linecap:square;stroke-miterlimit:10"
     inkscape:connector-curvature="0" />
  <path
     d="m 135.76094,161.61896 c 1.202,0.21 1.982,0.802 1.953,1.953"
     id="path101"
     style="fill:none;stroke:#000000;stroke-width:0;stroke-linecap:square;stroke-miterlimit:10"
     inkscape:connector-curvature="0" />
  <path
     d="m 140.64294,164.54996 c -0.009,-0.063 -0.7,-1.352 0,-2.932 0.651,0 1.302,0 1.953,0 -0.018,1.277 0.574,1.774 0.977,2.932"
     id="path103"
     style="fill:none;stroke:#000000;stroke-width:0;stroke-linecap:square;stroke-miterlimit:10"
     inkscape:connector-curvature="0" />
  <path
     d="m 140.64294,159.66496 c 0.651,0.651 1.302,1.303 1.953,1.954"
     id="path105"
     style="fill:none;stroke:#000000;stroke-width:0;stroke-linecap:square;stroke-miterlimit:10"
     inkscape:connector-curvature="0" />
  <path
     d="m 143.57194,163.57196 c -0.302,-1.209 0.003,-2.205 0.977,-2.93"
     id="path107"
     style="fill:none;stroke:#000000;stroke-width:0;stroke-linecap:square;stroke-miterlimit:10"
     inkscape:connector-curvature="0" />
  <path
     d="m 218.76494,166.50296 c 1.545,-2.252 2.85,-2.348 3.906,0"
     id="path111"
     style="fill:none;stroke:#000000;stroke-width:0;stroke-linecap:square;stroke-miterlimit:10"
     inkscape:connector-curvature="0" />
  <path
     d="m 219.74194,161.61896 c 1.469,0.933 2.153,2.221 1.953,3.907"
     id="path113"
     style="fill:none;stroke:#000000;stroke-width:0;stroke-linecap:square;stroke-miterlimit:10"
     inkscape:connector-curvature="0" />
  <path
     d="m 225.60094,165.52596 c 0.68,-2.131 1.758,-2.568 2.93,-0.976"
     id="path115"
     style="fill:none;stroke:#000000;stroke-width:0;stroke-linecap:square;stroke-miterlimit:10"
     inkscape:connector-curvature="0" />
  <path
     d="m 224.62494,160.64196 c 1.752,0.156 2.807,1.089 3.906,2.93"
     id="path117"
     style="fill:none;stroke:#000000;stroke-width:0;stroke-linecap:square;stroke-miterlimit:10"
     inkscape:connector-curvature="0" />
  <path
     d="m 230.48394,163.57196 c -0.666,-1.085 -1.365,-1.373 -0.977,-2.93 1.39,-0.22 0.993,0.441 1.953,0.977"
     id="path119"
     style="fill:none;stroke:#000000;stroke-width:0;stroke-linecap:square;stroke-miterlimit:10"
     inkscape:connector-curvature="0" />
  <path
     d="m 229.50794,158.68796 c 0.762,0.448 1.115,1.083 0.977,1.954"
     id="path121"
     style="fill:none;stroke:#000000;stroke-width:0;stroke-linecap:square;stroke-miterlimit:10"
     inkscape:connector-curvature="0" />
  <path
     d="m 29.318932,106.90896 c 17.645,9.072 20.175,-32.888005 26.854,-39.566005 4.85,-4.85 7.838,-12.741 11.447,-18.761 2.934,-4.894 16.329,-12.67 3.689,-13.967"
     id="path125"
     style="fill:none;stroke:#000000;stroke-width:0;stroke-linecap:square;stroke-miterlimit:10"
     inkscape:connector-curvature="0" />
  <line
     id="line127"
     style="fill:none;stroke:#000000;stroke-width:0;stroke-linecap:square;stroke-miterlimit:10"
     x1="65.450935"
     x2="64.472931"
     y1="52.198956"
     y2="51.221954" />
  <line
     id="line129"
     style="fill:none;stroke:#000000;stroke-width:0;stroke-linecap:square;stroke-miterlimit:10"
     x1="77.167931"
     x2="79.120934"
     y1="36.567955"
     y2="35.590954" />
  <path
     d="m 86.933932,19.958955 c 8.519,1.941 14.069998,5.022 6.834,10.747 -3.411,2.698 -15.042,9.221 -15.624,1.954"
     id="path131"
     style="fill:none;stroke:#000000;stroke-width:0;stroke-linecap:square;stroke-miterlimit:10"
     inkscape:connector-curvature="0" />
  <path
     d="m 115.25294,9.2129547 c 5.47,5.4720003 9.421,10.2400003 11.719,17.5850003 -5.624,0.855 -10.347,-0.146 -15.625,0 -4.509,0.125 -13.294008,5.263 -11.718008,-2.932"
     id="path133"
     style="fill:none;stroke:#000000;stroke-width:0;stroke-linecap:square;stroke-miterlimit:10"
     inkscape:connector-curvature="0" />
  <line
     id="line135"
     style="fill:none;stroke:#000000;stroke-width:0;stroke-linecap:square;stroke-miterlimit:10"
     x1="98.651932"
     x2="99.628929"
     y1="27.774954"
     y2="26.798954" />
  <line
     id="line139"
     style="fill:none;stroke:#000000;stroke-width:0;stroke-linecap:square;stroke-miterlimit:10"
     x1="126.97192"
     x2="127.94793"
     y1="25.821955"
     y2="25.821955" />
  <path
     d="m 166.03294,22.890955 c 6.418,7.75 11.868,26.153 10.742,36.147 -5.747,-4.237 -9.926,-12.781 -16.602,-16.12 -10.403,-5.205 -12.89,-14.795 -0.977,-17.097"
     id="path141"
     style="fill:none;stroke:#000000;stroke-width:0;stroke-linecap:square;stroke-miterlimit:10"
     inkscape:connector-curvature="0" />
  <line
     id="line143"
     style="fill:none;stroke:#000000;stroke-width:0;stroke-linecap:square;stroke-miterlimit:10"
     x1="150.40793"
     x2="150.40793"
     y1="29.728954"
     y2="29.728954" />
  <path
     d="m 180.67994,53.175955 c -0.592,2.296 -2.063,2.52 -3.904,0.978"
     id="path145"
     style="fill:none;stroke:#000000;stroke-width:0;stroke-linecap:square;stroke-miterlimit:10"
     inkscape:connector-curvature="0" />
  <path
     d="m 180.67994,65.875955 c -0.582,-5.125 2.713,-9.29 5.861,-12.7 5.078,6.634 7.666,16.009 9.764,24.425 -5.891,-1.204 -11.264,-7.362 -15.625,-11.725"
     id="path147"
     style="fill:none;stroke:#000000;stroke-width:0;stroke-linecap:square;stroke-miterlimit:10"
     inkscape:connector-curvature="0" />
  <path
     d="m 179.70494,55.129955 c 1.513,0.441 2.488,1.418 2.928,2.931"
     id="path149"
     style="fill:none;stroke:#000000;stroke-width:0;stroke-linecap:square;stroke-miterlimit:10"
     inkscape:connector-curvature="0" />
  <path
     d="m 200.21094,80.530955 c 2.057,-1.603 5.885,-2.057 8.789,-2.93 0.659,3.495 4.168,6.502 5.859,8.792 -5.163,-0.385 -11.371,-1.464 -14.648,-5.862"
     id="path151"
     style="fill:none;stroke:#000000;stroke-width:0;stroke-linecap:square;stroke-miterlimit:10"
     inkscape:connector-curvature="0" />
  <path
     d="m 196.30494,75.645955 c 1.302,1.303 2.604,2.606 3.906,3.909"
     id="path153"
     style="fill:none;stroke:#000000;stroke-width:0;stroke-linecap:square;stroke-miterlimit:10"
     inkscape:connector-curvature="0" />
  <path
     d="m 224.62494,85.415955 c 7.605,5.157 -2.083,2.933 -4.883,2.933 -4.109,0 -2.313,-3.785 -0.977,-6.84 2.133,-0.482 1.918,0.576 2.93,1.954"
     id="path155"
     style="fill:none;stroke:#000000;stroke-width:0;stroke-linecap:square;stroke-miterlimit:10"
     inkscape:connector-curvature="0" />
  <path
     d="m 214.85894,85.415955 c 0.447,0.762 1.082,1.115 1.953,0.978"
     id="path157"
     style="fill:none;stroke:#000000;stroke-width:0;stroke-linecap:square;stroke-miterlimit:10"
     inkscape:connector-curvature="0" />
  <path
     d="m 227.55494,88.347955 c 1.867,-0.849 3.82,-1.176 5.859,-0.979"
     id="path159"
     style="fill:none;stroke:#000000;stroke-width:0;stroke-linecap:square;stroke-miterlimit:10"
     inkscape:connector-curvature="0" />
  <path
     d="m 240.24994,84.438955 c -1.835,2.199 -5,3.144 -6.836,1.954"
     id="path161"
     style="fill:none;stroke:#000000;stroke-width:0;stroke-linecap:square;stroke-miterlimit:10"
     inkscape:connector-curvature="0" />
  <path
     d="m 257.82794,102.02496 c -2.28,1.276 -4.654,1.307 -6.836,0"
     id="path169"
     style="fill:none;stroke:#000000;stroke-width:0;stroke-linecap:square;stroke-miterlimit:10"
     inkscape:connector-curvature="0" />
  <path
     d="m 251.96894,95.185955 c 6.292,-2.521 17.021,-0.541 23.436,0.977"
     id="path171"
     style="fill:none;stroke:#000000;stroke-width:0;stroke-linecap:square;stroke-miterlimit:10"
     inkscape:connector-curvature="0" />
  <path
     d="m 274.42794,93.231955 c -1.462,-0.938 -2.797,0.701 -2.928,-1.954 2.776,-0.578 1.762,1.205 2.928,1.954"
     id="path173"
     style="fill:none;stroke:#000000;stroke-width:0;stroke-linecap:square;stroke-miterlimit:10"
     inkscape:connector-curvature="0" />
  <rect
     style="fill:#ffffff;fill-opacity:1;stroke:#ffffff;stroke-width:2.29998517;stroke-linejoin:miter;stroke-miterlimit:4;stroke-opacity:1;stroke-dasharray:none;stroke-dashoffset:0"
     id="rect3068"
     width="6.5035076"
     height="4.3356714"
     x="252.43245"
     y="86.956261"
     ry="2.1678357" />
  <g
     transform="matrix(0.32661343,0,0,0.32661343,201.76884,75.495929)"
     id="g262">
    <path
       inkscape:connector-curvature="0"
       id="path3159_1_"
       style="fill:#ffffff;stroke:#000000;stroke-width:3;stroke-linecap:round;stroke-linejoin:round"
       d="m 151.873,40.101 c 1.308,5.13 -1.794,10.348 -6.925,11.653 -5.13,1.305 -10.347,-1.798 -11.65,-6.929 -1.306,-5.13 1.795,-10.348 6.925,-11.653 5.13,-1.304 10.346,1.798 11.65,6.929 z" />
    <path
       inkscape:connector-curvature="0"
       id="path3161_1_"
       style="stroke:#000000;stroke-width:2.66289997"
       d="m 144.034,43.84 c 0.436,1.709 -0.598,3.449 -2.309,3.884 -1.709,0.435 -3.448,-0.599 -3.883,-2.31 -0.435,-1.71 0.599,-3.449 2.309,-3.884 1.71,-0.435 3.449,0.599 3.883,2.31 z" />
  </g>
  <rect
     style="fill:#ffffff;fill-opacity:1;stroke:#000000;stroke-width:0.9999935;stroke-linejoin:miter;stroke-miterlimit:4;stroke-opacity:1;stroke-dasharray:none;stroke-dashoffset:0"
     id="rect3085"
     width="1.9269651"
     height="0.48174128"
     x="319.39447"
     y="180.65494"
     ry="0.24087064" />
</svg>
