<?xml version="1.0" encoding="UTF-8" standalone="no"?>
<!-- Created with Inkscape (http://www.inkscape.org/) -->

<svg
   xmlns:dc="http://purl.org/dc/elements/1.1/"
   xmlns:cc="http://creativecommons.org/ns#"
   xmlns:rdf="http://www.w3.org/1999/02/22-rdf-syntax-ns#"
   xmlns:svg="http://www.w3.org/2000/svg"
   xmlns="http://www.w3.org/2000/svg"
   xmlns:sodipodi="http://sodipodi.sourceforge.net/DTD/sodipodi-0.dtd"
   xmlns:inkscape="http://www.inkscape.org/namespaces/inkscape"
   width="178.56"
   height="94.2173"
   id="svg13095"
   version="1.1"
   inkscape:version="0.48.2 r9819"
   sodipodi:docname="Velociraptor.svg">
  <defs
     id="defs13097" />
  <sodipodi:namedview
     id="base"
     pagecolor="#ffffff"
     bordercolor="#666666"
     borderopacity="1.0"
     inkscape:pageopacity="0.0"
     inkscape:pageshadow="2"
     inkscape:zoom="3.959798"
     inkscape:cx="136.15242"
     inkscape:cy="64.329226"
     inkscape:document-units="px"
     inkscape:current-layer="layer1"
     showgrid="false"
     fit-margin-top="0"
     fit-margin-left="0"
     fit-margin-right="0"
     fit-margin-bottom="0"
     inkscape:window-width="1366"
     inkscape:window-height="706"
     inkscape:window-x="-8"
     inkscape:window-y="-8"
     inkscape:window-maximized="1" />
  <metadata
     id="metadata13100">
    <rdf:RDF>
      <cc:Work
         rdf:about="">
        <dc:format>image/svg+xml</dc:format>
        <dc:type
           rdf:resource="http://purl.org/dc/dcmitype/StillImage" />
        <dc:title />
      </cc:Work>
    </rdf:RDF>
  </metadata>
  <g
     inkscape:label="Layer 1"
     inkscape:groupmode="layer"
     id="layer1"
     transform="translate(-20.658391,26.801921)">
    <flowRoot
       xml:space="preserve"
       id="flowRoot5209"
       style="font-size:40px;font-style:normal;font-weight:normal;line-height:125%;letter-spacing:0px;word-spacing:0px;fill:#000000;fill-opacity:1;stroke:none;font-family:Sans"
       transform="translate(-435.44948,-151.19697)"><flowRegion
         id="flowRegion5211"><rect
           id="rect5213"
           width="123.23861"
           height="86.873116"
           x="-62.629459"
           y="42.209637" /></flowRegion><flowPara
         id="flowPara5215">rhetorical raptorrhetorical raptorR</flowPara></flowRoot>    <path
       inkscape:connector-curvature="0"
       id="path9192"
       d="m 134.40465,67.20889 c -2.56671,-0.24644 -4.77986,-0.61831 -4.91811,-0.82639 -0.13826,-0.20807 -0.63044,-1.05928 -1.09373,-1.89158 -0.60097,-1.07962 -1.45104,-1.4387 -2.96642,-1.25305 -4.22771,0.51794 -10.09173,-0.6536 -10.55347,-2.10841 -0.54429,-1.71487 -2.63094,-14.35896 -2.64878,-16.05024 -0.008,-0.68889 1.17849,-2.67889 2.63501,-4.42222 1.45652,-1.74334 2.64821,-3.8054 2.64821,-4.58234 0,-0.77695 1.53218,-2.98913 3.40485,-4.91597 1.87266,-1.92683 3.40484,-3.75979 3.40484,-4.07325 0,-1.12138 -2.77973,-3.05441 -6.05306,-4.20931 -1.83134,-0.64613 -3.85735,-1.65222 -4.50222,-2.23573 -3.27043,-2.95923 -17.524039,-7.196654 -31.059499,-9.233614 -13.8565,-2.0852799 -32.04688,-0.65361 -52.77513,4.15364 -5.09781,1.18227 -9.26875,2.017774 -9.26875,1.856664 0,-0.943234 17.87697,-7.270554 27.20267,-9.6280239 15.73214,-3.97697 30.76905,-5.83499 52.243749,-6.45545 15.92014,-0.45996996 20.65866,-0.83541996 23.00158,-1.82246996 8.49763,-3.57999004 28.10578,-5.47626004 32.2326,-3.11716004 1.04037,0.59473 2.83634,1.0934 3.99104,1.10814 2.63713,0.0337 3.19421,-1.35338 3.86233,-9.6168001 0.56522,-6.99081 1.0949,-8.69305 3.68081,-11.829309 1.5752,-1.91043 2.46616,-2.24017 7.23363,-2.67717 6.16445,-0.56503 14.89798,0.22173 21.97566,1.97968 3.85771,0.95817 5.07151,1.63388 6.16501,3.431999 0.63749,1.04826 0.95806,1.64289 0.9733,2.23231 0.0153,0.58942 -0.27483,1.17362 -0.85862,2.20105 -1.36821,2.40794 -3.25762,3.17932 -10.82641,4.42007 -5.82071,0.95419 -10.17109,2.5943101 -12.44391,4.6914401 -0.87689,0.80911 -2.54975,3.84435 -3.71745,6.74499004 -1.99313,4.95102996 -3.44146,6.81136996 -10.27949,13.20372986 -1.49109,1.39391 -2.14093,3.00222 -2.6651,6.596024 l -0.6932,4.75262 3.97031,4.60218 3.97031,4.60218 -1.39118,3.72078 c -2.32077,6.20702 -3.14972,7.57897 -5.37277,8.89216 -2.9333,1.73273 -4.73686,1.58116 -7.08547,-0.59546 -2.19406,-2.03338 -2.33565,-2.51062 -1.24544,-4.1976 0.48898,-0.75664 0.73733,-0.81969 0.74505,-0.18916 0.0184,1.50164 1.37482,1.09719 1.90317,-0.56748 0.26416,-0.83229 0.81793,-1.51326 1.23059,-1.51326 0.41266,0 0.52217,0.36911 0.24335,0.82026 -0.31987,0.51756 0.11343,0.72698 1.17414,0.56748 0.99017,-0.1489 2.34631,-1.40648 3.29966,-3.05985 1.5268,-2.64788 1.54526,-2.88057 0.32557,-4.10337 -1.22056,-1.22365 -1.33513,-1.18553 -2.04452,0.68032 -1.79881,4.73124 -10.66017,5.13562 -10.66017,0.48646 0,-0.9308 0.37867,-1.25156 1.13495,-0.96135 0.7508,0.28811 1.13495,-0.0272 1.13495,-0.9317 0,-1.0634 0.20177,-1.16546 0.90796,-0.45927 1.32023,1.32023 2.37959,1.1187 3.49326,-0.6646 1.30069,-2.08273 0.18655,-3.3953 -3.37223,-3.97281 -1.50147,-0.24366 -3.29612,-0.95539 -3.9881,-1.58163 -1.84267,-1.66758 -4.60722,-0.72066 -4.60722,1.57808 0,2.77332 -1.99251,6.10092 -7.29694,12.18624 -6.85424,7.86329 -7.34556,8.75065 -6.85795,12.38608 0.54895,4.09278 1.4579,4.93187 3.66664,3.38482 0.95995,-0.67238 2.35058,-1.22251 3.09029,-1.22251 1.5247,0 4.37143,2.56219 4.37143,3.93449 0,0.70619 -0.20177,0.70619 -0.90795,0 -1.05344,-1.05344 -3.35954,-1.20405 -3.94447,-0.25761 -0.56516,0.91445 1.27109,4.63303 2.29133,4.64018 1.31221,0.009 4.83099,3.02629 4.83099,4.14225 0,0.54999 -0.76609,0.98111 -1.70242,0.95802 -0.93633,-0.0231 -2.21315,0.12946 -2.83737,0.33896 -0.62422,0.2095 -3.23499,0.17928 -5.80169,-0.0672 z M 123.92662,53.70891 c -2.24337,-5.37795 -2.25024,-5.14111 0.25889,-8.9292 3.12769,-4.72195 3.18295,-6.29551 0.14514,-4.1324 -3.32289,2.36611 -4.55464,4.51711 -4.54306,7.93353 0.0167,4.92577 0.68078,6.45217 2.80708,6.45217 1.50055,0 1.7718,-0.26965 1.33195,-1.3241 z"
       style="fill:#ffffff;fill-opacity:1;stroke:#000000"
       sodipodi:nodetypes="ccssscsssssssssssssssssssssssssscccssssssscssssssssssssssssssscsssccssssss" />
    <g
       style="overflow:visible"
       transform="matrix(0.2582781,0,0,0.2582781,138.89001,-32.95026)"
       id="g262">
      <path
         inkscape:connector-curvature="0"
         id="path3159_1_"
         style="fill:#ffffff;stroke:#000000;stroke-width:3;stroke-linecap:round;stroke-linejoin:round"
         d="m 151.873,40.101 c 1.308,5.13 -1.794,10.348 -6.925,11.653 -5.13,1.305 -10.347,-1.798 -11.65,-6.929 -1.306,-5.13 1.795,-10.348 6.925,-11.653 5.13,-1.304 10.346,1.798 11.65,6.929 z" />
      <path
         inkscape:connector-curvature="0"
         id="path3161_1_"
         style="stroke:#000000;stroke-width:2.66289997"
         d="m 144.034,43.84 c 0.436,1.709 -0.598,3.449 -2.309,3.884 -1.709,0.435 -3.448,-0.599 -3.883,-2.31 -0.435,-1.71 0.599,-3.449 2.309,-3.884 1.71,-0.435 3.449,0.599 3.883,2.31 z" />
    </g>
    <path
       style="fill:none;stroke:#000000;stroke-width:1px;stroke-linecap:butt;stroke-linejoin:miter;stroke-opacity:1"
       d="m 103.2881,80.832779 3.28299,9.091373"
       id="path2998"
       inkscape:connector-curvature="0"
       transform="translate(20.658391,-26.801921)" />
  </g>
</svg>
